G04 #@! TF.FileFunction,Copper,L2,Bot,Signal*
%FSLAX46Y46*%
G04 Gerber Fmt 4.6, Leading zero omitted, Abs format (unit mm)*
G04 Created by KiCad (PCBNEW 4.0.4+e1-6308~48~ubuntu16.04.1-stable) date Thu Nov 24 17:46:36 2016*
%MOMM*%
%LPD*%
G01*
G04 APERTURE LIST*
%ADD10C,0.100000*%
%ADD11R,0.750000X0.800000*%
%ADD12R,1.950720X1.501140*%
%ADD13R,1.000000X1.250000*%
%ADD14R,1.501140X1.950720*%
%ADD15R,0.700000X1.200000*%
%ADD16R,1.000000X2.800000*%
%ADD17R,1.300000X1.900000*%
%ADD18R,1.100000X1.200000*%
%ADD19R,1.000000X1.200000*%
%ADD20R,2.500000X2.000000*%
%ADD21R,2.000000X2.500000*%
%ADD22R,2.032000X1.727200*%
%ADD23O,2.032000X1.727200*%
%ADD24C,1.800000*%
%ADD25C,1.200000*%
%ADD26R,1.700000X1.200000*%
%ADD27O,1.700000X1.200000*%
%ADD28R,3.657600X2.032000*%
%ADD29R,1.016000X2.032000*%
%ADD30C,1.422400*%
%ADD31C,0.600000*%
%ADD32C,0.250000*%
%ADD33C,0.600000*%
%ADD34C,0.254000*%
G04 APERTURE END LIST*
D10*
D11*
X130820000Y-130480000D03*
X130820000Y-131980000D03*
X135900000Y-130520000D03*
X135900000Y-132020000D03*
D12*
X125574140Y-124600000D03*
X122825860Y-124600000D03*
D13*
X134750000Y-113230000D03*
X136750000Y-113230000D03*
X125200000Y-128100000D03*
X123200000Y-128100000D03*
D14*
X130400000Y-110725860D03*
X130400000Y-113474140D03*
X130400000Y-108374140D03*
X130400000Y-105625860D03*
D15*
X135310000Y-135130000D03*
D16*
X138310000Y-149430000D03*
D17*
X124810000Y-149880000D03*
D15*
X136410000Y-135130000D03*
X134210000Y-135130000D03*
X133110000Y-135130000D03*
X132010000Y-135130000D03*
X130910000Y-135130000D03*
X129810000Y-135130000D03*
X128710000Y-135130000D03*
D18*
X127160000Y-135130000D03*
D15*
X137360000Y-135130000D03*
D19*
X138410000Y-140030000D03*
D20*
X141610000Y-112830000D03*
X141610000Y-109430000D03*
X143500000Y-142660000D03*
X143500000Y-139260000D03*
D21*
X123380000Y-110490000D03*
X126780000Y-110490000D03*
D22*
X119380000Y-108585000D03*
D23*
X119380000Y-111125000D03*
X119380000Y-113665000D03*
X119380000Y-116205000D03*
X119380000Y-118745000D03*
X119380000Y-121285000D03*
X119380000Y-123825000D03*
X119380000Y-126365000D03*
X119380000Y-128905000D03*
X119380000Y-131445000D03*
X119380000Y-133985000D03*
X119380000Y-136525000D03*
X119380000Y-139065000D03*
X119380000Y-141605000D03*
X119380000Y-144145000D03*
D24*
X148405000Y-148460000D03*
D25*
X147205000Y-145210000D03*
X142355000Y-145210000D03*
D24*
X141155000Y-148460000D03*
D22*
X149880000Y-108585000D03*
D23*
X149880000Y-111125000D03*
X149880000Y-113665000D03*
X149880000Y-116205000D03*
X149880000Y-118745000D03*
X149880000Y-121285000D03*
X149880000Y-123825000D03*
X149880000Y-126365000D03*
X149880000Y-128905000D03*
X149880000Y-131445000D03*
X149880000Y-133985000D03*
X149880000Y-136525000D03*
X149880000Y-139065000D03*
X149880000Y-141605000D03*
X149880000Y-144145000D03*
D26*
X142875000Y-120015000D03*
D27*
X142875000Y-122015000D03*
D28*
X134620000Y-104013000D03*
D29*
X134620000Y-110617000D03*
X132334000Y-110617000D03*
X136906000Y-110617000D03*
D30*
X130810000Y-128905000D03*
X135890000Y-128905000D03*
D31*
X119710000Y-105960000D03*
X145720000Y-146880000D03*
X140390000Y-103250000D03*
X126350000Y-107180000D03*
X127170000Y-107270000D03*
X128850000Y-109990000D03*
X128830000Y-108960000D03*
X134000000Y-112800000D03*
X139370000Y-110640000D03*
X145430000Y-110200000D03*
X124700000Y-126100000D03*
X123860000Y-115790000D03*
X132790000Y-136570000D03*
X135890000Y-147320000D03*
X128270000Y-147320000D03*
X123825000Y-144780000D03*
X132430000Y-115760000D03*
X129630000Y-120080000D03*
X140980000Y-136410000D03*
X128530000Y-106510000D03*
X144820000Y-107230000D03*
X137550000Y-106010000D03*
X135890000Y-136750000D03*
X126610000Y-120180000D03*
X132800000Y-112400000D03*
X125800000Y-125600000D03*
X125200000Y-129000000D03*
X131445000Y-136525000D03*
X141980000Y-129710000D03*
X138600000Y-127700000D03*
X136500000Y-123000000D03*
X136300000Y-119600000D03*
X141140000Y-131550000D03*
X138600000Y-131700000D03*
X135300000Y-134200000D03*
X135255000Y-135890000D03*
X128190000Y-115390000D03*
X141930000Y-130720000D03*
X129270000Y-133990000D03*
X128360000Y-125960000D03*
X133100000Y-134000000D03*
X138600000Y-130800000D03*
X127060000Y-116310000D03*
X127540000Y-125960000D03*
X140980000Y-129760000D03*
X130500000Y-136450000D03*
X138600000Y-129900000D03*
X126160000Y-115600000D03*
X129000000Y-136620000D03*
X126630000Y-125900000D03*
X130000000Y-139790000D03*
X134100000Y-139740000D03*
X136900000Y-137400000D03*
X138600000Y-132600000D03*
X142810000Y-127160000D03*
X143400000Y-134200000D03*
X144890000Y-128780000D03*
X142900000Y-125990000D03*
X144410000Y-114360000D03*
X138940000Y-108560000D03*
X140370000Y-109430000D03*
X128240000Y-108060000D03*
X136680000Y-105740000D03*
X143370000Y-143560000D03*
X125690000Y-117200000D03*
X125660000Y-122400000D03*
X137740000Y-115110000D03*
X135980000Y-115110000D03*
X132270000Y-117100000D03*
X133270000Y-116110000D03*
X122100000Y-112400000D03*
X121650000Y-114580000D03*
X125100000Y-104800000D03*
X146750000Y-117450000D03*
X137630000Y-121200000D03*
X137650000Y-118030000D03*
X124800000Y-116330000D03*
X124570000Y-121550000D03*
X141700000Y-142400000D03*
X144910000Y-135510000D03*
X140980000Y-137220000D03*
X138670000Y-137240000D03*
X123510000Y-122280000D03*
X123440000Y-116810000D03*
X142700000Y-135500000D03*
X142750000Y-137690000D03*
X143300000Y-131000000D03*
X142100000Y-127700000D03*
X142900000Y-115900000D03*
X141890000Y-137730000D03*
X141870000Y-135450000D03*
X142280000Y-131550000D03*
X141300000Y-128300000D03*
X143500000Y-109000000D03*
X136290000Y-118640000D03*
X138280000Y-121700000D03*
X122180000Y-110540000D03*
D32*
X130820000Y-130480000D02*
X130810000Y-128905000D01*
X129205860Y-105625860D02*
X128690000Y-105110000D01*
X128690000Y-105110000D02*
X127450000Y-105110000D01*
X127450000Y-105110000D02*
X127170000Y-105390000D01*
X127170000Y-105390000D02*
X127170000Y-107270000D01*
X130400000Y-105625860D02*
X129205860Y-105625860D01*
X128850000Y-108980000D02*
X128850000Y-109990000D01*
X128830000Y-108960000D02*
X128850000Y-108980000D01*
X135900000Y-130520000D02*
X135890000Y-128905000D01*
D33*
X129630000Y-120080000D02*
X129630000Y-118560000D01*
X132430000Y-115760000D02*
X130590000Y-117600000D01*
X129630000Y-118560000D02*
X130590000Y-117600000D01*
X128530000Y-106510000D02*
X128530000Y-107210000D01*
X129800000Y-107940000D02*
X128530000Y-107210000D01*
X137550000Y-106010000D02*
X139110000Y-106000000D01*
X139110000Y-106000000D02*
X139910000Y-106610000D01*
X139910000Y-106610000D02*
X140710000Y-107220000D01*
X140710000Y-107220000D02*
X144820000Y-107230000D01*
X140970000Y-136410000D02*
X136680000Y-136420000D01*
X136680000Y-136420000D02*
X136020000Y-136780000D01*
X136020000Y-136780000D02*
X135890000Y-136750000D01*
X125574140Y-124600000D02*
X126600000Y-123780000D01*
X126600000Y-123780000D02*
X126610000Y-120180000D01*
X132334000Y-111934000D02*
X132334000Y-110617000D01*
X132800000Y-112400000D02*
X132334000Y-111934000D01*
D32*
X125574140Y-125374140D02*
X125574140Y-124600000D01*
X125800000Y-125600000D02*
X125574140Y-125374140D01*
X125200000Y-129000000D02*
X125200000Y-128100000D01*
D33*
X130400000Y-108374140D02*
X130400000Y-110725860D01*
D32*
X130400000Y-110725860D02*
X130508860Y-110617000D01*
D33*
X130508860Y-110617000D02*
X132334000Y-110617000D01*
X129800000Y-107940000D02*
X129774140Y-108374140D01*
D32*
X129774140Y-108374140D02*
X130400000Y-108374140D01*
X131445000Y-136525000D02*
X132010000Y-135960000D01*
X132010000Y-135960000D02*
X132010000Y-135130000D01*
D33*
X142875000Y-120015000D02*
X142875000Y-117035000D01*
X141610000Y-115770000D02*
X141610000Y-112830000D01*
X142875000Y-117035000D02*
X141610000Y-115770000D01*
D32*
X139910000Y-129010000D02*
X138600000Y-127700000D01*
X141280000Y-129010000D02*
X139910000Y-129010000D01*
X141980000Y-129710000D02*
X141280000Y-129010000D01*
X136300000Y-122300000D02*
X136500000Y-123000000D01*
X136300000Y-119600000D02*
X136300000Y-122300000D01*
X141140000Y-131550000D02*
X141040000Y-131650000D01*
X141040000Y-131650000D02*
X138600000Y-131700000D01*
X135300000Y-134200000D02*
X135310000Y-134210000D01*
X135310000Y-134210000D02*
X135310000Y-135130000D01*
X135310000Y-135130000D02*
X135310000Y-135835000D01*
X135310000Y-135835000D02*
X135255000Y-135890000D01*
X128360000Y-125960000D02*
X128960000Y-125240000D01*
X128960000Y-125240000D02*
X128960000Y-116660000D01*
X128960000Y-116660000D02*
X128190000Y-115390000D01*
X138600000Y-130800000D02*
X141850000Y-130800000D01*
X141850000Y-130800000D02*
X141930000Y-130720000D01*
X129475035Y-133983190D02*
X129276810Y-133983190D01*
X129276810Y-133983190D02*
X129270000Y-133990000D01*
X128360000Y-125960000D02*
X128360000Y-125860000D01*
X133000000Y-134000000D02*
X129475035Y-133983190D01*
X129475035Y-133983190D02*
X129460000Y-133950000D01*
X133100000Y-134000000D02*
X133000000Y-134000000D01*
X138600000Y-130800000D02*
X138500000Y-130800000D01*
X133110000Y-134010000D02*
X133110000Y-135130000D01*
X133100000Y-134000000D02*
X133110000Y-134010000D01*
X127540000Y-125960000D02*
X128150000Y-125210000D01*
X128150000Y-125210000D02*
X128150000Y-117650000D01*
X128150000Y-117650000D02*
X127060000Y-116310000D01*
X130910000Y-135130000D02*
X130910000Y-136040000D01*
X130910000Y-136040000D02*
X130500000Y-136450000D01*
X138900000Y-129900000D02*
X140980000Y-129770000D01*
X138600000Y-129900000D02*
X138900000Y-129900000D01*
X126160000Y-115600000D02*
X126390000Y-116780000D01*
X127340000Y-117730000D02*
X126390000Y-116780000D01*
X129810000Y-135890000D02*
X129810000Y-135130000D01*
X129810000Y-135890000D02*
X129000000Y-136620000D01*
X127340000Y-125230000D02*
X127340000Y-117730000D01*
X126630000Y-125900000D02*
X127340000Y-125230000D01*
X129810000Y-135130000D02*
X129810000Y-139600000D01*
X129810000Y-139600000D02*
X130000000Y-139790000D01*
X134770000Y-138930000D02*
X136100000Y-137400000D01*
X134100000Y-139740000D02*
X134770000Y-138930000D01*
X136100000Y-137400000D02*
X136900000Y-137400000D01*
X138600000Y-132600000D02*
X139000000Y-132200000D01*
X139000000Y-132200000D02*
X141300000Y-132200000D01*
X141300000Y-132200000D02*
X141310000Y-132190000D01*
X141310000Y-132190000D02*
X142650000Y-132190000D01*
X142650000Y-132190000D02*
X144000000Y-131300000D01*
X144000000Y-131300000D02*
X144000000Y-128800000D01*
X144000000Y-128800000D02*
X142800000Y-127600000D01*
X142800000Y-127600000D02*
X142810000Y-127160000D01*
D33*
X136906000Y-110617000D02*
X136906000Y-112284000D01*
X136906000Y-112284000D02*
X136525000Y-112665000D01*
X144370000Y-108330000D02*
X144160000Y-108120000D01*
X144160000Y-108120000D02*
X142280000Y-108120000D01*
X141610000Y-108790000D02*
X142280000Y-108120000D01*
X143580000Y-138190000D02*
X143500000Y-138270000D01*
X143580000Y-138190000D02*
X143580000Y-134380000D01*
X143580000Y-134380000D02*
X143400000Y-134200000D01*
X144890000Y-128780000D02*
X144620000Y-128510000D01*
X144620000Y-128510000D02*
X144620000Y-127710000D01*
X144620000Y-127710000D02*
X142900000Y-125990000D01*
X144410000Y-114360000D02*
X144400000Y-114350000D01*
X144400000Y-114350000D02*
X144400000Y-108330000D01*
X144400000Y-108330000D02*
X144370000Y-108330000D01*
X137145000Y-106785000D02*
X138940000Y-108560000D01*
X140370000Y-109430000D02*
X141610000Y-109430000D01*
X136906000Y-110617000D02*
X136906000Y-107024000D01*
X136906000Y-107024000D02*
X137145000Y-106785000D01*
X141610000Y-108790000D02*
X141610000Y-109430000D01*
X143500000Y-139260000D02*
X143500000Y-138270000D01*
X126780000Y-110490000D02*
X126780000Y-109520000D01*
X126780000Y-109520000D02*
X128240000Y-108060000D01*
X136680000Y-105740000D02*
X136700000Y-105760000D01*
X136700000Y-105760000D02*
X136700000Y-106340000D01*
X136700000Y-106340000D02*
X137145000Y-106785000D01*
D32*
X141115000Y-108935000D02*
X141610000Y-109430000D01*
X141610000Y-109430000D02*
X142590000Y-109430000D01*
X141610000Y-109430000D02*
X142690000Y-109430000D01*
X127085000Y-110490000D02*
X126780000Y-110490000D01*
X143370000Y-143560000D02*
X143500000Y-143430000D01*
X143500000Y-143430000D02*
X143500000Y-142660000D01*
D33*
X143500000Y-143620000D02*
X143500000Y-142660000D01*
X125650000Y-117437838D02*
X125650000Y-117240000D01*
X125660000Y-121680000D02*
X125660000Y-119757970D01*
X125660000Y-119757970D02*
X125650000Y-117437838D01*
X125660000Y-122400000D02*
X125660000Y-121680000D01*
X125650000Y-117240000D02*
X125690000Y-117200000D01*
X137760000Y-115090000D02*
X137740000Y-115110000D01*
X137740000Y-115110000D02*
X137760000Y-115090000D01*
X132270000Y-117100000D02*
X133270000Y-116110000D01*
X135980000Y-115110000D02*
X137740000Y-115110000D01*
D32*
X124600000Y-112600000D02*
X125100000Y-112100000D01*
X122300000Y-112600000D02*
X124600000Y-112600000D01*
X122100000Y-112400000D02*
X122300000Y-112600000D01*
X119380000Y-115720000D02*
X119530000Y-114950000D01*
X119530000Y-114950000D02*
X121650000Y-114580000D01*
X125100000Y-108300000D02*
X125100000Y-104800000D01*
X125100000Y-112100000D02*
X125100000Y-108300000D01*
X119380000Y-116205000D02*
X119380000Y-115720000D01*
X149870000Y-113660000D02*
X146410000Y-115590000D01*
X146410000Y-115590000D02*
X146410000Y-117110000D01*
X146410000Y-117110000D02*
X146750000Y-117450000D01*
X137630000Y-118050000D02*
X137630000Y-121200000D01*
X137650000Y-118030000D02*
X137630000Y-118050000D01*
X124570000Y-121550000D02*
X124570000Y-117830000D01*
X145300000Y-137700000D02*
X145300000Y-137300000D01*
X141700000Y-142400000D02*
X141900000Y-142200000D01*
X141900000Y-142200000D02*
X141900000Y-141300000D01*
X141900000Y-141300000D02*
X142300000Y-140900000D01*
X142300000Y-140900000D02*
X145100000Y-140900000D01*
X145100000Y-140900000D02*
X145310000Y-140690000D01*
X145310000Y-140690000D02*
X145310000Y-137710000D01*
X145310000Y-137710000D02*
X145300000Y-137700000D01*
X145200000Y-137200000D02*
X144890000Y-136870000D01*
X144890000Y-136870000D02*
X144910000Y-135510000D01*
X145300000Y-137300000D02*
X145200000Y-137200000D01*
X124800000Y-117460000D02*
X124800000Y-116330000D01*
X124570000Y-117830000D02*
X124800000Y-117460000D01*
X140302419Y-137240004D02*
X140980000Y-137220000D01*
X140302419Y-137240004D02*
X138670000Y-137240000D01*
X123510000Y-122280000D02*
X123520000Y-117890000D01*
X123520000Y-117890000D02*
X123440000Y-116810000D01*
X123440000Y-116910000D02*
X123440000Y-116810000D01*
X142740000Y-136790000D02*
X142700000Y-135500000D01*
X142750000Y-137690000D02*
X142740000Y-136790000D01*
X143300000Y-128900000D02*
X143300000Y-131000000D01*
X142100000Y-127700000D02*
X143300000Y-128900000D01*
X141890000Y-137730000D02*
X141890000Y-137170000D01*
X141890000Y-137170000D02*
X141900000Y-136800000D01*
X141900000Y-136800000D02*
X141900000Y-136100000D01*
X141900000Y-136100000D02*
X141870000Y-135450000D01*
X142280000Y-131550000D02*
X142700000Y-130700000D01*
X142700000Y-130700000D02*
X142700000Y-130500000D01*
X142700000Y-130500000D02*
X142700000Y-129500000D01*
X142700000Y-129500000D02*
X141500000Y-128300000D01*
X141500000Y-128300000D02*
X141300000Y-128300000D01*
X143500000Y-115300000D02*
X143500000Y-109000000D01*
X142900000Y-115900000D02*
X143500000Y-115300000D01*
X136910000Y-121830000D02*
X136910000Y-120020000D01*
X136910000Y-120020000D02*
X137060000Y-119550000D01*
X137060000Y-119550000D02*
X137070000Y-119070000D01*
X137070000Y-119070000D02*
X136290000Y-118640000D01*
X138280000Y-121700000D02*
X137690000Y-122030000D01*
X137690000Y-122030000D02*
X136910000Y-121830000D01*
D33*
X122180000Y-110540000D02*
X122220000Y-110500000D01*
X122220000Y-110500000D02*
X123380000Y-110490000D01*
D34*
G36*
X132555883Y-102393838D02*
X132339759Y-102532910D01*
X132194769Y-102745110D01*
X132143760Y-102997000D01*
X132143760Y-105029000D01*
X132188038Y-105264317D01*
X132327110Y-105480441D01*
X132539310Y-105625431D01*
X132791200Y-105676440D01*
X135745055Y-105676440D01*
X135744838Y-105925167D01*
X135765000Y-105973963D01*
X135765000Y-106340000D01*
X135836173Y-106697809D01*
X135990069Y-106928132D01*
X135971000Y-107024000D01*
X135971000Y-109121183D01*
X135946559Y-109136910D01*
X135801569Y-109349110D01*
X135763000Y-109539569D01*
X135763000Y-109474690D01*
X135666327Y-109241301D01*
X135487698Y-109062673D01*
X135254309Y-108966000D01*
X134905750Y-108966000D01*
X134747000Y-109124750D01*
X134747000Y-110490000D01*
X134767000Y-110490000D01*
X134767000Y-110744000D01*
X134747000Y-110744000D01*
X134747000Y-110764000D01*
X134493000Y-110764000D01*
X134493000Y-110744000D01*
X134473000Y-110744000D01*
X134473000Y-110490000D01*
X134493000Y-110490000D01*
X134493000Y-109124750D01*
X134334250Y-108966000D01*
X133985691Y-108966000D01*
X133752302Y-109062673D01*
X133573673Y-109241301D01*
X133477000Y-109474690D01*
X133477000Y-109534887D01*
X133445162Y-109365683D01*
X133306090Y-109149559D01*
X133093890Y-109004569D01*
X132842000Y-108953560D01*
X131826000Y-108953560D01*
X131798010Y-108958827D01*
X131798010Y-107398780D01*
X131753732Y-107163463D01*
X131649043Y-107000772D01*
X131688897Y-106960918D01*
X131785570Y-106727529D01*
X131785570Y-105911610D01*
X131626820Y-105752860D01*
X130527000Y-105752860D01*
X130527000Y-105772860D01*
X130273000Y-105772860D01*
X130273000Y-105752860D01*
X129173180Y-105752860D01*
X129134215Y-105791825D01*
X129060327Y-105717808D01*
X128716799Y-105575162D01*
X128344833Y-105574838D01*
X128001057Y-105716883D01*
X127737808Y-105979673D01*
X127595162Y-106323201D01*
X127594838Y-106695167D01*
X127595000Y-106695559D01*
X127595000Y-107210000D01*
X127619033Y-107330819D01*
X127620798Y-107356985D01*
X127447808Y-107529673D01*
X127447645Y-107530065D01*
X126385150Y-108592560D01*
X125860000Y-108592560D01*
X125860000Y-105362463D01*
X125892192Y-105330327D01*
X126034838Y-104986799D01*
X126035162Y-104614833D01*
X125997710Y-104524191D01*
X129014430Y-104524191D01*
X129014430Y-105340110D01*
X129173180Y-105498860D01*
X130273000Y-105498860D01*
X130273000Y-104174250D01*
X130527000Y-104174250D01*
X130527000Y-105498860D01*
X131626820Y-105498860D01*
X131785570Y-105340110D01*
X131785570Y-104524191D01*
X131688897Y-104290802D01*
X131510269Y-104112173D01*
X131276880Y-104015500D01*
X130685750Y-104015500D01*
X130527000Y-104174250D01*
X130273000Y-104174250D01*
X130114250Y-104015500D01*
X129523120Y-104015500D01*
X129289731Y-104112173D01*
X129111103Y-104290802D01*
X129014430Y-104524191D01*
X125997710Y-104524191D01*
X125893117Y-104271057D01*
X125630327Y-104007808D01*
X125286799Y-103865162D01*
X124914833Y-103864838D01*
X124571057Y-104006883D01*
X124307808Y-104269673D01*
X124165162Y-104613201D01*
X124164838Y-104985167D01*
X124306883Y-105328943D01*
X124340000Y-105362118D01*
X124340000Y-108592560D01*
X122380000Y-108592560D01*
X122144683Y-108636838D01*
X121928559Y-108775910D01*
X121783569Y-108988110D01*
X121732560Y-109240000D01*
X121732560Y-109713207D01*
X121651057Y-109746883D01*
X121559065Y-109838715D01*
X121558855Y-109838855D01*
X121519146Y-109878564D01*
X121387808Y-110009673D01*
X121245162Y-110353201D01*
X121244838Y-110725167D01*
X121386883Y-111068943D01*
X121649673Y-111332192D01*
X121732560Y-111366610D01*
X121732560Y-111540151D01*
X121571057Y-111606883D01*
X121307808Y-111869673D01*
X121165162Y-112213201D01*
X121164838Y-112585167D01*
X121306883Y-112928943D01*
X121569673Y-113192192D01*
X121913201Y-113334838D01*
X122174648Y-113335066D01*
X122300000Y-113360000D01*
X124600000Y-113360000D01*
X124890839Y-113302148D01*
X125137401Y-113137401D01*
X125637401Y-112637401D01*
X125802148Y-112390839D01*
X125802824Y-112387440D01*
X127780000Y-112387440D01*
X128015317Y-112343162D01*
X128231441Y-112204090D01*
X128376431Y-111991890D01*
X128427440Y-111740000D01*
X128427440Y-109240000D01*
X128420290Y-109202000D01*
X128900854Y-108721436D01*
X128909686Y-108712619D01*
X129001990Y-108870318D01*
X129001990Y-109349500D01*
X129041102Y-109557361D01*
X129001990Y-109750500D01*
X129001990Y-111701220D01*
X129046268Y-111936537D01*
X129150957Y-112099228D01*
X129111103Y-112139082D01*
X129014430Y-112372471D01*
X129014430Y-113188390D01*
X129173180Y-113347140D01*
X130273000Y-113347140D01*
X130273000Y-113327140D01*
X130527000Y-113327140D01*
X130527000Y-113347140D01*
X131626820Y-113347140D01*
X131785570Y-113188390D01*
X131785570Y-112707860D01*
X132138564Y-113060854D01*
X132269673Y-113192192D01*
X132613201Y-113334838D01*
X132799999Y-113335001D01*
X132800001Y-113335001D01*
X132985167Y-113335162D01*
X133328943Y-113193117D01*
X133592192Y-112930327D01*
X133615000Y-112875400D01*
X133615000Y-112944250D01*
X133773750Y-113103000D01*
X134623000Y-113103000D01*
X134623000Y-113083000D01*
X134877000Y-113083000D01*
X134877000Y-113103000D01*
X134897000Y-113103000D01*
X134897000Y-113357000D01*
X134877000Y-113357000D01*
X134877000Y-114331250D01*
X135035750Y-114490000D01*
X135277638Y-114490000D01*
X135187808Y-114579673D01*
X135045162Y-114923201D01*
X135044838Y-115295167D01*
X135186883Y-115638943D01*
X135449673Y-115902192D01*
X135793201Y-116044838D01*
X136165167Y-116045162D01*
X136165559Y-116045000D01*
X137739184Y-116045000D01*
X137925167Y-116045162D01*
X138268943Y-115903117D01*
X138532192Y-115640327D01*
X138592935Y-115494042D01*
X138623827Y-115447809D01*
X138634580Y-115393751D01*
X138674838Y-115296799D01*
X138674930Y-115190897D01*
X138695000Y-115090000D01*
X138675105Y-114989983D01*
X138675162Y-114924833D01*
X138650063Y-114864090D01*
X138623827Y-114732191D01*
X138549766Y-114621350D01*
X138533117Y-114581057D01*
X138502045Y-114549931D01*
X138421145Y-114428855D01*
X138301127Y-114348662D01*
X138270327Y-114317808D01*
X138229709Y-114300942D01*
X138117809Y-114226173D01*
X137986970Y-114200147D01*
X137926799Y-114175162D01*
X137861073Y-114175105D01*
X137807151Y-114164379D01*
X137846431Y-114106890D01*
X137897440Y-113855000D01*
X137897440Y-112605000D01*
X137853162Y-112369683D01*
X137830853Y-112335013D01*
X137841000Y-112284000D01*
X137841000Y-112112817D01*
X137865441Y-112097090D01*
X138010431Y-111884890D01*
X138061440Y-111633000D01*
X138061440Y-109601000D01*
X138017162Y-109365683D01*
X137878090Y-109149559D01*
X137841000Y-109124216D01*
X137841000Y-108788189D01*
X138280397Y-109222690D01*
X138409673Y-109352192D01*
X138753201Y-109494838D01*
X139125167Y-109495162D01*
X139435054Y-109367120D01*
X139434838Y-109615167D01*
X139576883Y-109958943D01*
X139712560Y-110094857D01*
X139712560Y-110430000D01*
X139756838Y-110665317D01*
X139895910Y-110881441D01*
X140108110Y-111026431D01*
X140360000Y-111077440D01*
X142740000Y-111077440D01*
X142740000Y-111182560D01*
X140360000Y-111182560D01*
X140124683Y-111226838D01*
X139908559Y-111365910D01*
X139763569Y-111578110D01*
X139712560Y-111830000D01*
X139712560Y-113830000D01*
X139756838Y-114065317D01*
X139895910Y-114281441D01*
X140108110Y-114426431D01*
X140360000Y-114477440D01*
X140675000Y-114477440D01*
X140675000Y-115770000D01*
X140746173Y-116127809D01*
X140948855Y-116431145D01*
X141940000Y-117422290D01*
X141940000Y-118783554D01*
X141789683Y-118811838D01*
X141573559Y-118950910D01*
X141428569Y-119163110D01*
X141377560Y-119415000D01*
X141377560Y-120615000D01*
X141421838Y-120850317D01*
X141560910Y-121066441D01*
X141713309Y-121170571D01*
X141693067Y-121185875D01*
X141446714Y-121605624D01*
X141431538Y-121697391D01*
X141556269Y-121888000D01*
X142748000Y-121888000D01*
X142748000Y-121868000D01*
X143002000Y-121868000D01*
X143002000Y-121888000D01*
X144193731Y-121888000D01*
X144318462Y-121697391D01*
X144303286Y-121605624D01*
X144056933Y-121185875D01*
X144035580Y-121169731D01*
X144176441Y-121079090D01*
X144321431Y-120866890D01*
X144372440Y-120615000D01*
X144372440Y-119415000D01*
X144328162Y-119179683D01*
X144189090Y-118963559D01*
X143976890Y-118818569D01*
X143810000Y-118784773D01*
X143810000Y-117035000D01*
X143738827Y-116677191D01*
X143621218Y-116501177D01*
X143692192Y-116430327D01*
X143834838Y-116086799D01*
X143834879Y-116039923D01*
X144037401Y-115837401D01*
X144202148Y-115590839D01*
X144260000Y-115300000D01*
X144260000Y-115294870D01*
X144595167Y-115295162D01*
X144938943Y-115153117D01*
X145202192Y-114890327D01*
X145344838Y-114546799D01*
X145345162Y-114174833D01*
X145335000Y-114150239D01*
X145335000Y-108330000D01*
X145279652Y-108051747D01*
X145348943Y-108023117D01*
X145612192Y-107760327D01*
X145754838Y-107416799D01*
X145755162Y-107044833D01*
X145613117Y-106701057D01*
X145350327Y-106437808D01*
X145006799Y-106295162D01*
X144821168Y-106295000D01*
X141026810Y-106285768D01*
X140476933Y-105866487D01*
X140476931Y-105866485D01*
X139676930Y-105256485D01*
X139565684Y-105202045D01*
X139462264Y-105133897D01*
X139403235Y-105122548D01*
X139349244Y-105096127D01*
X139225634Y-105088403D01*
X139104006Y-105065019D01*
X137547431Y-105074997D01*
X137364833Y-105074838D01*
X137345228Y-105082938D01*
X137341436Y-105079146D01*
X137210327Y-104947808D01*
X137096240Y-104900435D01*
X137096240Y-102997000D01*
X137051962Y-102761683D01*
X136912890Y-102545559D01*
X136700690Y-102400569D01*
X136510231Y-102362000D01*
X147480911Y-102362000D01*
X147351364Y-102491321D01*
X147010389Y-103312481D01*
X147009613Y-104201619D01*
X147349155Y-105023372D01*
X147977321Y-105652636D01*
X148798481Y-105993611D01*
X149687619Y-105994387D01*
X150509372Y-105654845D01*
X151098000Y-105067245D01*
X151098000Y-107114866D01*
X150896000Y-107073960D01*
X148864000Y-107073960D01*
X148628683Y-107118238D01*
X148412559Y-107257310D01*
X148267569Y-107469510D01*
X148216560Y-107721400D01*
X148216560Y-109448600D01*
X148260838Y-109683917D01*
X148399910Y-109900041D01*
X148612110Y-110045031D01*
X148706927Y-110064232D01*
X148529268Y-110222964D01*
X148275291Y-110750209D01*
X148272642Y-110765974D01*
X148393783Y-110998000D01*
X149753000Y-110998000D01*
X149753000Y-110978000D01*
X150007000Y-110978000D01*
X150007000Y-110998000D01*
X150027000Y-110998000D01*
X150027000Y-111252000D01*
X150007000Y-111252000D01*
X150007000Y-111272000D01*
X149753000Y-111272000D01*
X149753000Y-111252000D01*
X148393783Y-111252000D01*
X148272642Y-111484026D01*
X148275291Y-111499791D01*
X148529268Y-112027036D01*
X148945069Y-112398539D01*
X148635585Y-112605330D01*
X148310729Y-113091511D01*
X148196655Y-113665000D01*
X148207068Y-113717350D01*
X146039772Y-114926275D01*
X145959857Y-114994296D01*
X145872599Y-115052599D01*
X145847862Y-115089620D01*
X145813958Y-115118478D01*
X145766156Y-115211903D01*
X145707852Y-115299161D01*
X145699166Y-115342829D01*
X145678885Y-115382466D01*
X145670474Y-115487071D01*
X145650000Y-115590000D01*
X145650000Y-117110000D01*
X145707852Y-117400839D01*
X145814903Y-117561052D01*
X145814838Y-117635167D01*
X145956883Y-117978943D01*
X146219673Y-118242192D01*
X146563201Y-118384838D01*
X146935167Y-118385162D01*
X147278943Y-118243117D01*
X147542192Y-117980327D01*
X147684838Y-117636799D01*
X147685162Y-117264833D01*
X147543117Y-116921057D01*
X147280327Y-116657808D01*
X147170000Y-116611996D01*
X147170000Y-116036309D01*
X148557325Y-115262454D01*
X148310729Y-115631511D01*
X148196655Y-116205000D01*
X148310729Y-116778489D01*
X148635585Y-117264670D01*
X148950366Y-117475000D01*
X148635585Y-117685330D01*
X148310729Y-118171511D01*
X148196655Y-118745000D01*
X148310729Y-119318489D01*
X148635585Y-119804670D01*
X148950366Y-120015000D01*
X148635585Y-120225330D01*
X148310729Y-120711511D01*
X148196655Y-121285000D01*
X148310729Y-121858489D01*
X148635585Y-122344670D01*
X148950366Y-122555000D01*
X148635585Y-122765330D01*
X148310729Y-123251511D01*
X148196655Y-123825000D01*
X148310729Y-124398489D01*
X148635585Y-124884670D01*
X148950366Y-125095000D01*
X148635585Y-125305330D01*
X148310729Y-125791511D01*
X148196655Y-126365000D01*
X148310729Y-126938489D01*
X148635585Y-127424670D01*
X148945069Y-127631461D01*
X148529268Y-128002964D01*
X148275291Y-128530209D01*
X148272642Y-128545974D01*
X148393783Y-128778000D01*
X149753000Y-128778000D01*
X149753000Y-128758000D01*
X150007000Y-128758000D01*
X150007000Y-128778000D01*
X150027000Y-128778000D01*
X150027000Y-129032000D01*
X150007000Y-129032000D01*
X150007000Y-129052000D01*
X149753000Y-129052000D01*
X149753000Y-129032000D01*
X148393783Y-129032000D01*
X148272642Y-129264026D01*
X148275291Y-129279791D01*
X148529268Y-129807036D01*
X148945069Y-130178539D01*
X148635585Y-130385330D01*
X148310729Y-130871511D01*
X148196655Y-131445000D01*
X148310729Y-132018489D01*
X148635585Y-132504670D01*
X148950366Y-132715000D01*
X148635585Y-132925330D01*
X148310729Y-133411511D01*
X148196655Y-133985000D01*
X148310729Y-134558489D01*
X148635585Y-135044670D01*
X148950366Y-135255000D01*
X148635585Y-135465330D01*
X148310729Y-135951511D01*
X148196655Y-136525000D01*
X148310729Y-137098489D01*
X148635585Y-137584670D01*
X148950366Y-137795000D01*
X148635585Y-138005330D01*
X148310729Y-138491511D01*
X148196655Y-139065000D01*
X148310729Y-139638489D01*
X148635585Y-140124670D01*
X148950366Y-140335000D01*
X148635585Y-140545330D01*
X148310729Y-141031511D01*
X148196655Y-141605000D01*
X148310729Y-142178489D01*
X148635585Y-142664670D01*
X148950366Y-142875000D01*
X148635585Y-143085330D01*
X148310729Y-143571511D01*
X148196655Y-144145000D01*
X148285244Y-144590366D01*
X148252592Y-144511343D01*
X147905485Y-144163629D01*
X147451734Y-143975215D01*
X146960421Y-143974786D01*
X146506343Y-144162408D01*
X146158629Y-144509515D01*
X145970215Y-144963266D01*
X145969786Y-145454579D01*
X146157408Y-145908657D01*
X146504515Y-146256371D01*
X146958266Y-146444785D01*
X147449579Y-146445214D01*
X147903657Y-146257592D01*
X148251371Y-145910485D01*
X148439785Y-145456734D01*
X148440214Y-144965421D01*
X148382672Y-144826159D01*
X148635585Y-145204670D01*
X149121766Y-145529526D01*
X149695255Y-145643600D01*
X150064745Y-145643600D01*
X150638234Y-145529526D01*
X151098000Y-145222320D01*
X151098000Y-150368000D01*
X139457440Y-150368000D01*
X139457440Y-148763991D01*
X139619735Y-148763991D01*
X139852932Y-149328371D01*
X140284357Y-149760551D01*
X140848330Y-149994733D01*
X141458991Y-149995265D01*
X142023371Y-149762068D01*
X142455551Y-149330643D01*
X142689733Y-148766670D01*
X142689735Y-148763991D01*
X146869735Y-148763991D01*
X147102932Y-149328371D01*
X147534357Y-149760551D01*
X148098330Y-149994733D01*
X148708991Y-149995265D01*
X149273371Y-149762068D01*
X149705551Y-149330643D01*
X149939733Y-148766670D01*
X149940265Y-148156009D01*
X149707068Y-147591629D01*
X149275643Y-147159449D01*
X148711670Y-146925267D01*
X148101009Y-146924735D01*
X147536629Y-147157932D01*
X147104449Y-147589357D01*
X146870267Y-148153330D01*
X146869735Y-148763991D01*
X142689735Y-148763991D01*
X142690265Y-148156009D01*
X142457068Y-147591629D01*
X142025643Y-147159449D01*
X141461670Y-146925267D01*
X140851009Y-146924735D01*
X140286629Y-147157932D01*
X139854449Y-147589357D01*
X139620267Y-148153330D01*
X139619735Y-148763991D01*
X139457440Y-148763991D01*
X139457440Y-148030000D01*
X139413162Y-147794683D01*
X139274090Y-147578559D01*
X139061890Y-147433569D01*
X138810000Y-147382560D01*
X137810000Y-147382560D01*
X137574683Y-147426838D01*
X137358559Y-147565910D01*
X137213569Y-147778110D01*
X137162560Y-148030000D01*
X137162560Y-150368000D01*
X126107440Y-150368000D01*
X126107440Y-148930000D01*
X126063162Y-148694683D01*
X125924090Y-148478559D01*
X125711890Y-148333569D01*
X125460000Y-148282560D01*
X124160000Y-148282560D01*
X123924683Y-148326838D01*
X123708559Y-148465910D01*
X123563569Y-148678110D01*
X123512560Y-148930000D01*
X123512560Y-150368000D01*
X121651867Y-150368000D01*
X121908636Y-150111679D01*
X122249611Y-149290519D01*
X122250387Y-148401381D01*
X121910845Y-147579628D01*
X121282679Y-146950364D01*
X120461519Y-146609389D01*
X119572381Y-146608613D01*
X118750628Y-146948155D01*
X118237000Y-147460886D01*
X118237000Y-145272434D01*
X118621766Y-145529526D01*
X119195255Y-145643600D01*
X119564745Y-145643600D01*
X120138234Y-145529526D01*
X120624415Y-145204670D01*
X120949271Y-144718489D01*
X121063345Y-144145000D01*
X120949271Y-143571511D01*
X120624415Y-143085330D01*
X120309634Y-142875000D01*
X120624415Y-142664670D01*
X120949271Y-142178489D01*
X121063345Y-141605000D01*
X120949271Y-141031511D01*
X120624415Y-140545330D01*
X120309634Y-140335000D01*
X120624415Y-140124670D01*
X120949271Y-139638489D01*
X121063345Y-139065000D01*
X120949271Y-138491511D01*
X120624415Y-138005330D01*
X120309634Y-137795000D01*
X120624415Y-137584670D01*
X120949271Y-137098489D01*
X121063345Y-136525000D01*
X120949271Y-135951511D01*
X120624415Y-135465330D01*
X120309634Y-135255000D01*
X120624415Y-135044670D01*
X120949271Y-134558489D01*
X120954937Y-134530000D01*
X125962560Y-134530000D01*
X125962560Y-135730000D01*
X126006838Y-135965317D01*
X126145910Y-136181441D01*
X126358110Y-136326431D01*
X126610000Y-136377440D01*
X127710000Y-136377440D01*
X127945317Y-136333162D01*
X128034228Y-136275949D01*
X128108110Y-136326431D01*
X128109389Y-136326690D01*
X128065162Y-136433201D01*
X128064838Y-136805167D01*
X128206883Y-137148943D01*
X128469673Y-137412192D01*
X128813201Y-137554838D01*
X129050000Y-137555044D01*
X129050000Y-139600000D01*
X129065099Y-139675905D01*
X129064838Y-139975167D01*
X129206883Y-140318943D01*
X129469673Y-140582192D01*
X129813201Y-140724838D01*
X130185167Y-140725162D01*
X130528943Y-140583117D01*
X130792192Y-140320327D01*
X130934838Y-139976799D01*
X130934882Y-139925167D01*
X133164838Y-139925167D01*
X133306883Y-140268943D01*
X133569673Y-140532192D01*
X133913201Y-140674838D01*
X134285167Y-140675162D01*
X134628943Y-140533117D01*
X134846689Y-140315750D01*
X137275000Y-140315750D01*
X137275000Y-140756310D01*
X137371673Y-140989699D01*
X137550302Y-141168327D01*
X137783691Y-141265000D01*
X138124250Y-141265000D01*
X138283000Y-141106250D01*
X138283000Y-140157000D01*
X138537000Y-140157000D01*
X138537000Y-141106250D01*
X138695750Y-141265000D01*
X139036309Y-141265000D01*
X139269698Y-141168327D01*
X139448327Y-140989699D01*
X139545000Y-140756310D01*
X139545000Y-140315750D01*
X139386250Y-140157000D01*
X138537000Y-140157000D01*
X138283000Y-140157000D01*
X137433750Y-140157000D01*
X137275000Y-140315750D01*
X134846689Y-140315750D01*
X134892192Y-140270327D01*
X135034838Y-139926799D01*
X135034947Y-139802085D01*
X135349676Y-139421592D01*
X135452165Y-139303690D01*
X137275000Y-139303690D01*
X137275000Y-139744250D01*
X137433750Y-139903000D01*
X138283000Y-139903000D01*
X138283000Y-138953750D01*
X138537000Y-138953750D01*
X138537000Y-139903000D01*
X139386250Y-139903000D01*
X139545000Y-139744250D01*
X139545000Y-139303690D01*
X139448327Y-139070301D01*
X139269698Y-138891673D01*
X139036309Y-138795000D01*
X138695750Y-138795000D01*
X138537000Y-138953750D01*
X138283000Y-138953750D01*
X138124250Y-138795000D01*
X137783691Y-138795000D01*
X137550302Y-138891673D01*
X137371673Y-139070301D01*
X137275000Y-139303690D01*
X135452165Y-139303690D01*
X136405454Y-138207050D01*
X136713201Y-138334838D01*
X137085167Y-138335162D01*
X137428943Y-138193117D01*
X137692192Y-137930327D01*
X137818189Y-137626893D01*
X137876883Y-137768943D01*
X138139673Y-138032192D01*
X138483201Y-138174838D01*
X138855167Y-138175162D01*
X139198943Y-138033117D01*
X139232116Y-138000001D01*
X140302417Y-138000004D01*
X140313601Y-137997779D01*
X140324846Y-137999673D01*
X140433960Y-137996452D01*
X140449673Y-138012192D01*
X140793201Y-138154838D01*
X141053962Y-138155065D01*
X141096883Y-138258943D01*
X141359673Y-138522192D01*
X141602560Y-138623048D01*
X141602560Y-140260000D01*
X141644153Y-140481045D01*
X141362599Y-140762599D01*
X141197852Y-141009161D01*
X141140000Y-141300000D01*
X141140000Y-141637886D01*
X140907808Y-141869673D01*
X140765162Y-142213201D01*
X140764838Y-142585167D01*
X140906883Y-142928943D01*
X141169673Y-143192192D01*
X141513201Y-143334838D01*
X141602560Y-143334916D01*
X141602560Y-143660000D01*
X141646838Y-143895317D01*
X141784604Y-144109411D01*
X141656343Y-144162408D01*
X141308629Y-144509515D01*
X141120215Y-144963266D01*
X141119786Y-145454579D01*
X141307408Y-145908657D01*
X141654515Y-146256371D01*
X142108266Y-146444785D01*
X142599579Y-146445214D01*
X143053657Y-146257592D01*
X143401371Y-145910485D01*
X143589785Y-145456734D01*
X143590214Y-144965421D01*
X143413523Y-144537799D01*
X143500000Y-144555000D01*
X143857809Y-144483827D01*
X144121792Y-144307440D01*
X144750000Y-144307440D01*
X144985317Y-144263162D01*
X145201441Y-144124090D01*
X145346431Y-143911890D01*
X145397440Y-143660000D01*
X145397440Y-141660000D01*
X145386709Y-141602970D01*
X145390839Y-141602148D01*
X145637401Y-141437401D01*
X145847401Y-141227401D01*
X146012148Y-140980839D01*
X146070000Y-140690000D01*
X146070000Y-137710000D01*
X146060000Y-137659727D01*
X146060000Y-137300000D01*
X146043059Y-137214833D01*
X146002148Y-137009160D01*
X145837401Y-136762599D01*
X145745802Y-136671000D01*
X145654439Y-136573743D01*
X145661689Y-136080760D01*
X145702192Y-136040327D01*
X145844838Y-135696799D01*
X145845162Y-135324833D01*
X145703117Y-134981057D01*
X145440327Y-134717808D01*
X145096799Y-134575162D01*
X144724833Y-134574838D01*
X144515000Y-134661539D01*
X144515000Y-134380000D01*
X144443827Y-134022191D01*
X144241145Y-133718855D01*
X144061436Y-133539146D01*
X143930327Y-133407808D01*
X143586799Y-133265162D01*
X143214833Y-133264838D01*
X142871057Y-133406883D01*
X142607808Y-133669673D01*
X142465162Y-134013201D01*
X142464838Y-134385167D01*
X142539085Y-134564859D01*
X142514833Y-134564838D01*
X142345214Y-134634923D01*
X142056799Y-134515162D01*
X141684833Y-134514838D01*
X141341057Y-134656883D01*
X141077808Y-134919673D01*
X140935162Y-135263201D01*
X140934978Y-135474960D01*
X140794833Y-135474838D01*
X140793450Y-135475409D01*
X138357440Y-135481088D01*
X138357440Y-134530000D01*
X138313162Y-134294683D01*
X138174090Y-134078559D01*
X137961890Y-133933569D01*
X137710000Y-133882560D01*
X137010000Y-133882560D01*
X136880411Y-133906944D01*
X136760000Y-133882560D01*
X136180508Y-133882560D01*
X136093117Y-133671057D01*
X135830327Y-133407808D01*
X135486799Y-133265162D01*
X135114833Y-133264838D01*
X134771057Y-133406883D01*
X134507808Y-133669673D01*
X134365162Y-134013201D01*
X134365151Y-134025599D01*
X134337000Y-134053750D01*
X134337000Y-134409312D01*
X134312560Y-134530000D01*
X134312560Y-135730000D01*
X134320104Y-135770091D01*
X134319838Y-136075167D01*
X134337000Y-136116702D01*
X134337000Y-136206250D01*
X134400053Y-136269303D01*
X134461883Y-136418943D01*
X134724673Y-136682192D01*
X134954975Y-136777822D01*
X134954838Y-136935167D01*
X135096883Y-137278943D01*
X135151054Y-137333208D01*
X134196419Y-138431397D01*
X134191721Y-138439617D01*
X134184378Y-138445596D01*
X133872894Y-138822167D01*
X133571057Y-138946883D01*
X133307808Y-139209673D01*
X133165162Y-139553201D01*
X133164838Y-139925167D01*
X130934882Y-139925167D01*
X130935162Y-139604833D01*
X130793117Y-139261057D01*
X130570000Y-139037550D01*
X130570000Y-137385062D01*
X130685167Y-137385162D01*
X130895690Y-137298176D01*
X130914673Y-137317192D01*
X131258201Y-137459838D01*
X131630167Y-137460162D01*
X131973943Y-137318117D01*
X132237192Y-137055327D01*
X132379838Y-136711799D01*
X132379879Y-136664923D01*
X132547401Y-136497401D01*
X132643341Y-136353816D01*
X132760000Y-136377440D01*
X133460000Y-136377440D01*
X133668850Y-136338142D01*
X133733691Y-136365000D01*
X133924250Y-136365000D01*
X134083000Y-136206250D01*
X134083000Y-135850688D01*
X134107440Y-135730000D01*
X134107440Y-134530000D01*
X134083000Y-134400113D01*
X134083000Y-134053750D01*
X134034996Y-134005746D01*
X134035162Y-133814833D01*
X133893117Y-133471057D01*
X133630327Y-133207808D01*
X133286799Y-133065162D01*
X132914833Y-133064838D01*
X132571057Y-133206883D01*
X132540088Y-133237798D01*
X129827334Y-133224862D01*
X129800327Y-133197808D01*
X129456799Y-133055162D01*
X129084833Y-133054838D01*
X128741057Y-133196883D01*
X128477808Y-133459673D01*
X128335162Y-133803201D01*
X128335089Y-133887247D01*
X128124683Y-133926838D01*
X128035772Y-133984051D01*
X127961890Y-133933569D01*
X127710000Y-133882560D01*
X126610000Y-133882560D01*
X126374683Y-133926838D01*
X126158559Y-134065910D01*
X126013569Y-134278110D01*
X125962560Y-134530000D01*
X120954937Y-134530000D01*
X121063345Y-133985000D01*
X120949271Y-133411511D01*
X120624415Y-132925330D01*
X120309634Y-132715000D01*
X120624415Y-132504670D01*
X120784056Y-132265750D01*
X129810000Y-132265750D01*
X129810000Y-132506309D01*
X129906673Y-132739698D01*
X130085301Y-132918327D01*
X130318690Y-133015000D01*
X130534250Y-133015000D01*
X130693000Y-132856250D01*
X130693000Y-132107000D01*
X130947000Y-132107000D01*
X130947000Y-132856250D01*
X131105750Y-133015000D01*
X131321310Y-133015000D01*
X131554699Y-132918327D01*
X131733327Y-132739698D01*
X131830000Y-132506309D01*
X131830000Y-132305750D01*
X134890000Y-132305750D01*
X134890000Y-132546309D01*
X134986673Y-132779698D01*
X135165301Y-132958327D01*
X135398690Y-133055000D01*
X135614250Y-133055000D01*
X135773000Y-132896250D01*
X135773000Y-132147000D01*
X136027000Y-132147000D01*
X136027000Y-132896250D01*
X136185750Y-133055000D01*
X136401310Y-133055000D01*
X136634699Y-132958327D01*
X136813327Y-132779698D01*
X136910000Y-132546309D01*
X136910000Y-132305750D01*
X136751250Y-132147000D01*
X136027000Y-132147000D01*
X135773000Y-132147000D01*
X135048750Y-132147000D01*
X134890000Y-132305750D01*
X131830000Y-132305750D01*
X131830000Y-132265750D01*
X131671250Y-132107000D01*
X130947000Y-132107000D01*
X130693000Y-132107000D01*
X129968750Y-132107000D01*
X129810000Y-132265750D01*
X120784056Y-132265750D01*
X120949271Y-132018489D01*
X121063345Y-131445000D01*
X120949271Y-130871511D01*
X120624415Y-130385330D01*
X120309634Y-130175000D01*
X120624415Y-129964670D01*
X120949271Y-129478489D01*
X121063345Y-128905000D01*
X120960060Y-128385750D01*
X122065000Y-128385750D01*
X122065000Y-128851310D01*
X122161673Y-129084699D01*
X122340302Y-129263327D01*
X122573691Y-129360000D01*
X122914250Y-129360000D01*
X123073000Y-129201250D01*
X123073000Y-128227000D01*
X122223750Y-128227000D01*
X122065000Y-128385750D01*
X120960060Y-128385750D01*
X120949271Y-128331511D01*
X120624415Y-127845330D01*
X120314931Y-127638539D01*
X120639341Y-127348690D01*
X122065000Y-127348690D01*
X122065000Y-127814250D01*
X122223750Y-127973000D01*
X123073000Y-127973000D01*
X123073000Y-126998750D01*
X123327000Y-126998750D01*
X123327000Y-127973000D01*
X123347000Y-127973000D01*
X123347000Y-128227000D01*
X123327000Y-128227000D01*
X123327000Y-129201250D01*
X123485750Y-129360000D01*
X123826309Y-129360000D01*
X124059698Y-129263327D01*
X124200936Y-129122090D01*
X124235910Y-129176441D01*
X124271194Y-129200549D01*
X124406883Y-129528943D01*
X124669673Y-129792192D01*
X125013201Y-129934838D01*
X125385167Y-129935162D01*
X125728943Y-129793117D01*
X125992192Y-129530327D01*
X126127486Y-129204505D01*
X126151441Y-129189090D01*
X126163390Y-129171601D01*
X129463566Y-129171601D01*
X129668081Y-129666565D01*
X129845327Y-129844120D01*
X129797560Y-130080000D01*
X129797560Y-130880000D01*
X129841838Y-131115317D01*
X129908329Y-131218646D01*
X129906673Y-131220302D01*
X129810000Y-131453691D01*
X129810000Y-131694250D01*
X129968750Y-131853000D01*
X130693000Y-131853000D01*
X130693000Y-131833000D01*
X130947000Y-131833000D01*
X130947000Y-131853000D01*
X131671250Y-131853000D01*
X131830000Y-131694250D01*
X131830000Y-131453691D01*
X131733327Y-131220302D01*
X131731957Y-131218932D01*
X131791431Y-131131890D01*
X131842440Y-130880000D01*
X131842440Y-130080000D01*
X131798162Y-129844683D01*
X131788772Y-129830091D01*
X131950588Y-129668557D01*
X132155966Y-129173951D01*
X132155968Y-129171601D01*
X134543566Y-129171601D01*
X134748081Y-129666565D01*
X134936982Y-129855796D01*
X134928569Y-129868110D01*
X134877560Y-130120000D01*
X134877560Y-130920000D01*
X134921838Y-131155317D01*
X134988329Y-131258646D01*
X134986673Y-131260302D01*
X134890000Y-131493691D01*
X134890000Y-131734250D01*
X135048750Y-131893000D01*
X135773000Y-131893000D01*
X135773000Y-131873000D01*
X136027000Y-131873000D01*
X136027000Y-131893000D01*
X136751250Y-131893000D01*
X136910000Y-131734250D01*
X136910000Y-131493691D01*
X136813327Y-131260302D01*
X136811957Y-131258932D01*
X136871431Y-131171890D01*
X136922440Y-130920000D01*
X136922440Y-130120000D01*
X136878162Y-129884683D01*
X136853100Y-129845736D01*
X137030588Y-129668557D01*
X137235966Y-129173951D01*
X137236434Y-128638399D01*
X137031919Y-128143435D01*
X136774102Y-127885167D01*
X137664838Y-127885167D01*
X137806883Y-128228943D01*
X138069673Y-128492192D01*
X138413201Y-128634838D01*
X138460077Y-128634879D01*
X138792889Y-128967691D01*
X138786799Y-128965162D01*
X138414833Y-128964838D01*
X138071057Y-129106883D01*
X137807808Y-129369673D01*
X137665162Y-129713201D01*
X137664838Y-130085167D01*
X137774359Y-130350228D01*
X137665162Y-130613201D01*
X137664838Y-130985167D01*
X137774359Y-131250228D01*
X137665162Y-131513201D01*
X137664838Y-131885167D01*
X137774359Y-132150228D01*
X137665162Y-132413201D01*
X137664838Y-132785167D01*
X137806883Y-133128943D01*
X138069673Y-133392192D01*
X138413201Y-133534838D01*
X138785167Y-133535162D01*
X139128943Y-133393117D01*
X139392192Y-133130327D01*
X139462918Y-132960000D01*
X141300000Y-132960000D01*
X141350273Y-132950000D01*
X142650000Y-132950000D01*
X142721131Y-132935851D01*
X142793651Y-132936300D01*
X142865140Y-132907206D01*
X142940839Y-132892148D01*
X143001138Y-132851858D01*
X143068313Y-132824519D01*
X144418312Y-131934519D01*
X144473224Y-131880282D01*
X144537401Y-131837401D01*
X144577694Y-131777098D01*
X144629289Y-131726138D01*
X144659266Y-131655017D01*
X144702148Y-131590839D01*
X144716297Y-131519709D01*
X144744464Y-131452881D01*
X144744942Y-131375702D01*
X144760000Y-131300000D01*
X144760000Y-129714887D01*
X145075167Y-129715162D01*
X145418943Y-129573117D01*
X145682192Y-129310327D01*
X145824838Y-128966799D01*
X145825162Y-128594833D01*
X145683117Y-128251057D01*
X145555000Y-128122716D01*
X145555000Y-127710000D01*
X145483827Y-127352191D01*
X145281145Y-127048855D01*
X143561436Y-125329146D01*
X143430327Y-125197808D01*
X143086799Y-125055162D01*
X142714833Y-125054838D01*
X142371057Y-125196883D01*
X142107808Y-125459673D01*
X141965162Y-125803201D01*
X141964838Y-126175167D01*
X142106883Y-126518943D01*
X142117788Y-126529867D01*
X142017808Y-126629673D01*
X141961665Y-126764879D01*
X141914833Y-126764838D01*
X141571057Y-126906883D01*
X141307808Y-127169673D01*
X141226728Y-127364935D01*
X141114833Y-127364838D01*
X140771057Y-127506883D01*
X140507808Y-127769673D01*
X140365162Y-128113201D01*
X140365043Y-128250000D01*
X140224802Y-128250000D01*
X139535122Y-127560320D01*
X139535162Y-127514833D01*
X139393117Y-127171057D01*
X139130327Y-126907808D01*
X138786799Y-126765162D01*
X138414833Y-126764838D01*
X138071057Y-126906883D01*
X137807808Y-127169673D01*
X137665162Y-127513201D01*
X137664838Y-127885167D01*
X136774102Y-127885167D01*
X136653557Y-127764412D01*
X136158951Y-127559034D01*
X135623399Y-127558566D01*
X135128435Y-127763081D01*
X134749412Y-128141443D01*
X134544034Y-128636049D01*
X134543566Y-129171601D01*
X132155968Y-129171601D01*
X132156434Y-128638399D01*
X131951919Y-128143435D01*
X131573557Y-127764412D01*
X131078951Y-127559034D01*
X130543399Y-127558566D01*
X130048435Y-127763081D01*
X129669412Y-128141443D01*
X129464034Y-128636049D01*
X129463566Y-129171601D01*
X126163390Y-129171601D01*
X126296431Y-128976890D01*
X126347440Y-128725000D01*
X126347440Y-127475000D01*
X126303162Y-127239683D01*
X126164090Y-127023559D01*
X125951890Y-126878569D01*
X125700000Y-126827560D01*
X124700000Y-126827560D01*
X124464683Y-126871838D01*
X124248559Y-127010910D01*
X124202031Y-127079006D01*
X124059698Y-126936673D01*
X123826309Y-126840000D01*
X123485750Y-126840000D01*
X123327000Y-126998750D01*
X123073000Y-126998750D01*
X122914250Y-126840000D01*
X122573691Y-126840000D01*
X122340302Y-126936673D01*
X122161673Y-127115301D01*
X122065000Y-127348690D01*
X120639341Y-127348690D01*
X120730732Y-127267036D01*
X120984709Y-126739791D01*
X120987358Y-126724026D01*
X120866217Y-126492000D01*
X119507000Y-126492000D01*
X119507000Y-126512000D01*
X119253000Y-126512000D01*
X119253000Y-126492000D01*
X119233000Y-126492000D01*
X119233000Y-126238000D01*
X119253000Y-126238000D01*
X119253000Y-126218000D01*
X119507000Y-126218000D01*
X119507000Y-126238000D01*
X120866217Y-126238000D01*
X120987358Y-126005974D01*
X120984709Y-125990209D01*
X120730732Y-125462964D01*
X120314931Y-125091461D01*
X120622798Y-124885750D01*
X121215500Y-124885750D01*
X121215500Y-125476880D01*
X121312173Y-125710269D01*
X121490802Y-125888897D01*
X121724191Y-125985570D01*
X122540110Y-125985570D01*
X122698860Y-125826820D01*
X122698860Y-124727000D01*
X121374250Y-124727000D01*
X121215500Y-124885750D01*
X120622798Y-124885750D01*
X120624415Y-124884670D01*
X120949271Y-124398489D01*
X121063345Y-123825000D01*
X121043080Y-123723120D01*
X121215500Y-123723120D01*
X121215500Y-124314250D01*
X121374250Y-124473000D01*
X122698860Y-124473000D01*
X122698860Y-123373180D01*
X122540110Y-123214430D01*
X121724191Y-123214430D01*
X121490802Y-123311103D01*
X121312173Y-123489731D01*
X121215500Y-123723120D01*
X121043080Y-123723120D01*
X120949271Y-123251511D01*
X120624415Y-122765330D01*
X120314931Y-122558539D01*
X120730732Y-122187036D01*
X120984709Y-121659791D01*
X120987358Y-121644026D01*
X120866217Y-121412000D01*
X119507000Y-121412000D01*
X119507000Y-121432000D01*
X119253000Y-121432000D01*
X119253000Y-121412000D01*
X119233000Y-121412000D01*
X119233000Y-121158000D01*
X119253000Y-121158000D01*
X119253000Y-121138000D01*
X119507000Y-121138000D01*
X119507000Y-121158000D01*
X120866217Y-121158000D01*
X120987358Y-120925974D01*
X120984709Y-120910209D01*
X120730732Y-120382964D01*
X120314931Y-120011461D01*
X120624415Y-119804670D01*
X120949271Y-119318489D01*
X121063345Y-118745000D01*
X120949271Y-118171511D01*
X120624415Y-117685330D01*
X120309634Y-117475000D01*
X120624415Y-117264670D01*
X120804491Y-116995167D01*
X122504838Y-116995167D01*
X122646883Y-117338943D01*
X122722727Y-117414920D01*
X122759936Y-117917240D01*
X122751282Y-121716257D01*
X122717808Y-121749673D01*
X122575162Y-122093201D01*
X122574838Y-122465167D01*
X122716883Y-122808943D01*
X122979673Y-123072192D01*
X123322218Y-123214430D01*
X123111610Y-123214430D01*
X122952860Y-123373180D01*
X122952860Y-124473000D01*
X122972860Y-124473000D01*
X122972860Y-124727000D01*
X122952860Y-124727000D01*
X122952860Y-125826820D01*
X123111610Y-125985570D01*
X123927529Y-125985570D01*
X124160918Y-125888897D01*
X124201889Y-125847926D01*
X124346890Y-125947001D01*
X124598780Y-125998010D01*
X124952783Y-125998010D01*
X125006883Y-126128943D01*
X125269673Y-126392192D01*
X125613201Y-126534838D01*
X125942880Y-126535125D01*
X126099673Y-126692192D01*
X126443201Y-126834838D01*
X126815167Y-126835162D01*
X127012814Y-126753496D01*
X127353201Y-126894838D01*
X127725167Y-126895162D01*
X127950129Y-126802210D01*
X128173201Y-126894838D01*
X128545167Y-126895162D01*
X128888943Y-126753117D01*
X129152192Y-126490327D01*
X129294838Y-126146799D01*
X129294944Y-126025225D01*
X129543848Y-125726540D01*
X129598560Y-125626005D01*
X129662148Y-125530839D01*
X129668944Y-125496673D01*
X129685596Y-125466075D01*
X129697671Y-125352256D01*
X129720000Y-125240000D01*
X129720000Y-121015079D01*
X129815167Y-121015162D01*
X130158943Y-120873117D01*
X130422192Y-120610327D01*
X130564838Y-120266799D01*
X130565162Y-119894833D01*
X130565000Y-119894441D01*
X130565000Y-118947290D01*
X130687123Y-118825167D01*
X135354838Y-118825167D01*
X135481773Y-119132373D01*
X135365162Y-119413201D01*
X135364838Y-119785167D01*
X135506883Y-120128943D01*
X135540000Y-120162118D01*
X135540000Y-122300000D01*
X135560599Y-122403557D01*
X135569242Y-122508788D01*
X135619102Y-122683299D01*
X135565162Y-122813201D01*
X135564838Y-123185167D01*
X135706883Y-123528943D01*
X135969673Y-123792192D01*
X136313201Y-123934838D01*
X136685167Y-123935162D01*
X137028943Y-123793117D01*
X137292192Y-123530327D01*
X137434838Y-123186799D01*
X137435162Y-122814833D01*
X137404849Y-122741471D01*
X137501235Y-122766185D01*
X137640221Y-122773788D01*
X137778923Y-122784779D01*
X137787901Y-122781867D01*
X137797329Y-122782383D01*
X137928631Y-122736225D01*
X138060996Y-122693296D01*
X138165399Y-122634901D01*
X138465167Y-122635162D01*
X138808943Y-122493117D01*
X138969731Y-122332609D01*
X141431538Y-122332609D01*
X141446714Y-122424376D01*
X141693067Y-122844125D01*
X142081299Y-123137647D01*
X142552304Y-123260256D01*
X142748000Y-123097547D01*
X142748000Y-122142000D01*
X143002000Y-122142000D01*
X143002000Y-123097547D01*
X143197696Y-123260256D01*
X143668701Y-123137647D01*
X144056933Y-122844125D01*
X144303286Y-122424376D01*
X144318462Y-122332609D01*
X144193731Y-122142000D01*
X143002000Y-122142000D01*
X142748000Y-122142000D01*
X141556269Y-122142000D01*
X141431538Y-122332609D01*
X138969731Y-122332609D01*
X139072192Y-122230327D01*
X139214838Y-121886799D01*
X139215162Y-121514833D01*
X139073117Y-121171057D01*
X138810327Y-120907808D01*
X138466799Y-120765162D01*
X138461999Y-120765158D01*
X138423117Y-120671057D01*
X138390000Y-120637882D01*
X138390000Y-118612428D01*
X138442192Y-118560327D01*
X138584838Y-118216799D01*
X138585162Y-117844833D01*
X138443117Y-117501057D01*
X138180327Y-117237808D01*
X137836799Y-117095162D01*
X137464833Y-117094838D01*
X137121057Y-117236883D01*
X136857808Y-117499673D01*
X136728996Y-117809884D01*
X136476799Y-117705162D01*
X136104833Y-117704838D01*
X135761057Y-117846883D01*
X135497808Y-118109673D01*
X135355162Y-118453201D01*
X135354838Y-118825167D01*
X130687123Y-118825167D01*
X131679938Y-117832352D01*
X131739673Y-117892192D01*
X132083201Y-118034838D01*
X132455167Y-118035162D01*
X132798943Y-117893117D01*
X132929231Y-117763056D01*
X133797078Y-116903888D01*
X133798943Y-116903117D01*
X134062192Y-116640327D01*
X134204838Y-116296799D01*
X134205162Y-115924833D01*
X134063117Y-115581057D01*
X133800327Y-115317808D01*
X133456799Y-115175162D01*
X133167068Y-115174910D01*
X132960327Y-114967808D01*
X132616799Y-114825162D01*
X132244833Y-114824838D01*
X131901057Y-114966883D01*
X131637808Y-115229673D01*
X131637645Y-115230065D01*
X129720000Y-117147710D01*
X129720000Y-116660000D01*
X129708635Y-116602866D01*
X129711198Y-116544670D01*
X129679976Y-116458786D01*
X129662148Y-116369161D01*
X129629785Y-116320727D01*
X129609882Y-116265978D01*
X129124934Y-115466129D01*
X129125162Y-115204833D01*
X128983117Y-114861057D01*
X128720327Y-114597808D01*
X128376799Y-114455162D01*
X128004833Y-114454838D01*
X127661057Y-114596883D01*
X127397808Y-114859673D01*
X127255162Y-115203201D01*
X127255009Y-115378571D01*
X127246799Y-115375162D01*
X127078710Y-115375016D01*
X126953117Y-115071057D01*
X126690327Y-114807808D01*
X126346799Y-114665162D01*
X125974833Y-114664838D01*
X125631057Y-114806883D01*
X125367808Y-115069673D01*
X125225162Y-115413201D01*
X125225092Y-115494110D01*
X124986799Y-115395162D01*
X124614833Y-115394838D01*
X124271057Y-115536883D01*
X124007808Y-115799673D01*
X123925039Y-115999003D01*
X123626799Y-115875162D01*
X123254833Y-115874838D01*
X122911057Y-116016883D01*
X122647808Y-116279673D01*
X122505162Y-116623201D01*
X122504838Y-116995167D01*
X120804491Y-116995167D01*
X120949271Y-116778489D01*
X121063345Y-116205000D01*
X120949271Y-115631511D01*
X120854888Y-115490257D01*
X121241506Y-115422782D01*
X121463201Y-115514838D01*
X121835167Y-115515162D01*
X122178943Y-115373117D01*
X122442192Y-115110327D01*
X122584838Y-114766799D01*
X122585162Y-114394833D01*
X122443117Y-114051057D01*
X122180327Y-113787808D01*
X122113094Y-113759890D01*
X129014430Y-113759890D01*
X129014430Y-114575809D01*
X129111103Y-114809198D01*
X129289731Y-114987827D01*
X129523120Y-115084500D01*
X130114250Y-115084500D01*
X130273000Y-114925750D01*
X130273000Y-113601140D01*
X130527000Y-113601140D01*
X130527000Y-114925750D01*
X130685750Y-115084500D01*
X131276880Y-115084500D01*
X131510269Y-114987827D01*
X131688897Y-114809198D01*
X131785570Y-114575809D01*
X131785570Y-113759890D01*
X131626820Y-113601140D01*
X130527000Y-113601140D01*
X130273000Y-113601140D01*
X129173180Y-113601140D01*
X129014430Y-113759890D01*
X122113094Y-113759890D01*
X121836799Y-113645162D01*
X121464833Y-113644838D01*
X121121057Y-113786883D01*
X121018795Y-113888966D01*
X121063345Y-113665000D01*
X121033658Y-113515750D01*
X133615000Y-113515750D01*
X133615000Y-113981310D01*
X133711673Y-114214699D01*
X133890302Y-114393327D01*
X134123691Y-114490000D01*
X134464250Y-114490000D01*
X134623000Y-114331250D01*
X134623000Y-113357000D01*
X133773750Y-113357000D01*
X133615000Y-113515750D01*
X121033658Y-113515750D01*
X120949271Y-113091511D01*
X120624415Y-112605330D01*
X120314931Y-112398539D01*
X120730732Y-112027036D01*
X120984709Y-111499791D01*
X120987358Y-111484026D01*
X120866217Y-111252000D01*
X119507000Y-111252000D01*
X119507000Y-111272000D01*
X119253000Y-111272000D01*
X119253000Y-111252000D01*
X119233000Y-111252000D01*
X119233000Y-110998000D01*
X119253000Y-110998000D01*
X119253000Y-110978000D01*
X119507000Y-110978000D01*
X119507000Y-110998000D01*
X120866217Y-110998000D01*
X120987358Y-110765974D01*
X120984709Y-110750209D01*
X120730732Y-110222964D01*
X120555155Y-110066093D01*
X120631317Y-110051762D01*
X120847441Y-109912690D01*
X120992431Y-109700490D01*
X121043440Y-109448600D01*
X121043440Y-107721400D01*
X120999162Y-107486083D01*
X120860090Y-107269959D01*
X120647890Y-107124969D01*
X120396000Y-107073960D01*
X118364000Y-107073960D01*
X118237000Y-107097857D01*
X118237000Y-102362000D01*
X132725087Y-102362000D01*
X132555883Y-102393838D01*
X132555883Y-102393838D01*
G37*
X132555883Y-102393838D02*
X132339759Y-102532910D01*
X132194769Y-102745110D01*
X132143760Y-102997000D01*
X132143760Y-105029000D01*
X132188038Y-105264317D01*
X132327110Y-105480441D01*
X132539310Y-105625431D01*
X132791200Y-105676440D01*
X135745055Y-105676440D01*
X135744838Y-105925167D01*
X135765000Y-105973963D01*
X135765000Y-106340000D01*
X135836173Y-106697809D01*
X135990069Y-106928132D01*
X135971000Y-107024000D01*
X135971000Y-109121183D01*
X135946559Y-109136910D01*
X135801569Y-109349110D01*
X135763000Y-109539569D01*
X135763000Y-109474690D01*
X135666327Y-109241301D01*
X135487698Y-109062673D01*
X135254309Y-108966000D01*
X134905750Y-108966000D01*
X134747000Y-109124750D01*
X134747000Y-110490000D01*
X134767000Y-110490000D01*
X134767000Y-110744000D01*
X134747000Y-110744000D01*
X134747000Y-110764000D01*
X134493000Y-110764000D01*
X134493000Y-110744000D01*
X134473000Y-110744000D01*
X134473000Y-110490000D01*
X134493000Y-110490000D01*
X134493000Y-109124750D01*
X134334250Y-108966000D01*
X133985691Y-108966000D01*
X133752302Y-109062673D01*
X133573673Y-109241301D01*
X133477000Y-109474690D01*
X133477000Y-109534887D01*
X133445162Y-109365683D01*
X133306090Y-109149559D01*
X133093890Y-109004569D01*
X132842000Y-108953560D01*
X131826000Y-108953560D01*
X131798010Y-108958827D01*
X131798010Y-107398780D01*
X131753732Y-107163463D01*
X131649043Y-107000772D01*
X131688897Y-106960918D01*
X131785570Y-106727529D01*
X131785570Y-105911610D01*
X131626820Y-105752860D01*
X130527000Y-105752860D01*
X130527000Y-105772860D01*
X130273000Y-105772860D01*
X130273000Y-105752860D01*
X129173180Y-105752860D01*
X129134215Y-105791825D01*
X129060327Y-105717808D01*
X128716799Y-105575162D01*
X128344833Y-105574838D01*
X128001057Y-105716883D01*
X127737808Y-105979673D01*
X127595162Y-106323201D01*
X127594838Y-106695167D01*
X127595000Y-106695559D01*
X127595000Y-107210000D01*
X127619033Y-107330819D01*
X127620798Y-107356985D01*
X127447808Y-107529673D01*
X127447645Y-107530065D01*
X126385150Y-108592560D01*
X125860000Y-108592560D01*
X125860000Y-105362463D01*
X125892192Y-105330327D01*
X126034838Y-104986799D01*
X126035162Y-104614833D01*
X125997710Y-104524191D01*
X129014430Y-104524191D01*
X129014430Y-105340110D01*
X129173180Y-105498860D01*
X130273000Y-105498860D01*
X130273000Y-104174250D01*
X130527000Y-104174250D01*
X130527000Y-105498860D01*
X131626820Y-105498860D01*
X131785570Y-105340110D01*
X131785570Y-104524191D01*
X131688897Y-104290802D01*
X131510269Y-104112173D01*
X131276880Y-104015500D01*
X130685750Y-104015500D01*
X130527000Y-104174250D01*
X130273000Y-104174250D01*
X130114250Y-104015500D01*
X129523120Y-104015500D01*
X129289731Y-104112173D01*
X129111103Y-104290802D01*
X129014430Y-104524191D01*
X125997710Y-104524191D01*
X125893117Y-104271057D01*
X125630327Y-104007808D01*
X125286799Y-103865162D01*
X124914833Y-103864838D01*
X124571057Y-104006883D01*
X124307808Y-104269673D01*
X124165162Y-104613201D01*
X124164838Y-104985167D01*
X124306883Y-105328943D01*
X124340000Y-105362118D01*
X124340000Y-108592560D01*
X122380000Y-108592560D01*
X122144683Y-108636838D01*
X121928559Y-108775910D01*
X121783569Y-108988110D01*
X121732560Y-109240000D01*
X121732560Y-109713207D01*
X121651057Y-109746883D01*
X121559065Y-109838715D01*
X121558855Y-109838855D01*
X121519146Y-109878564D01*
X121387808Y-110009673D01*
X121245162Y-110353201D01*
X121244838Y-110725167D01*
X121386883Y-111068943D01*
X121649673Y-111332192D01*
X121732560Y-111366610D01*
X121732560Y-111540151D01*
X121571057Y-111606883D01*
X121307808Y-111869673D01*
X121165162Y-112213201D01*
X121164838Y-112585167D01*
X121306883Y-112928943D01*
X121569673Y-113192192D01*
X121913201Y-113334838D01*
X122174648Y-113335066D01*
X122300000Y-113360000D01*
X124600000Y-113360000D01*
X124890839Y-113302148D01*
X125137401Y-113137401D01*
X125637401Y-112637401D01*
X125802148Y-112390839D01*
X125802824Y-112387440D01*
X127780000Y-112387440D01*
X128015317Y-112343162D01*
X128231441Y-112204090D01*
X128376431Y-111991890D01*
X128427440Y-111740000D01*
X128427440Y-109240000D01*
X128420290Y-109202000D01*
X128900854Y-108721436D01*
X128909686Y-108712619D01*
X129001990Y-108870318D01*
X129001990Y-109349500D01*
X129041102Y-109557361D01*
X129001990Y-109750500D01*
X129001990Y-111701220D01*
X129046268Y-111936537D01*
X129150957Y-112099228D01*
X129111103Y-112139082D01*
X129014430Y-112372471D01*
X129014430Y-113188390D01*
X129173180Y-113347140D01*
X130273000Y-113347140D01*
X130273000Y-113327140D01*
X130527000Y-113327140D01*
X130527000Y-113347140D01*
X131626820Y-113347140D01*
X131785570Y-113188390D01*
X131785570Y-112707860D01*
X132138564Y-113060854D01*
X132269673Y-113192192D01*
X132613201Y-113334838D01*
X132799999Y-113335001D01*
X132800001Y-113335001D01*
X132985167Y-113335162D01*
X133328943Y-113193117D01*
X133592192Y-112930327D01*
X133615000Y-112875400D01*
X133615000Y-112944250D01*
X133773750Y-113103000D01*
X134623000Y-113103000D01*
X134623000Y-113083000D01*
X134877000Y-113083000D01*
X134877000Y-113103000D01*
X134897000Y-113103000D01*
X134897000Y-113357000D01*
X134877000Y-113357000D01*
X134877000Y-114331250D01*
X135035750Y-114490000D01*
X135277638Y-114490000D01*
X135187808Y-114579673D01*
X135045162Y-114923201D01*
X135044838Y-115295167D01*
X135186883Y-115638943D01*
X135449673Y-115902192D01*
X135793201Y-116044838D01*
X136165167Y-116045162D01*
X136165559Y-116045000D01*
X137739184Y-116045000D01*
X137925167Y-116045162D01*
X138268943Y-115903117D01*
X138532192Y-115640327D01*
X138592935Y-115494042D01*
X138623827Y-115447809D01*
X138634580Y-115393751D01*
X138674838Y-115296799D01*
X138674930Y-115190897D01*
X138695000Y-115090000D01*
X138675105Y-114989983D01*
X138675162Y-114924833D01*
X138650063Y-114864090D01*
X138623827Y-114732191D01*
X138549766Y-114621350D01*
X138533117Y-114581057D01*
X138502045Y-114549931D01*
X138421145Y-114428855D01*
X138301127Y-114348662D01*
X138270327Y-114317808D01*
X138229709Y-114300942D01*
X138117809Y-114226173D01*
X137986970Y-114200147D01*
X137926799Y-114175162D01*
X137861073Y-114175105D01*
X137807151Y-114164379D01*
X137846431Y-114106890D01*
X137897440Y-113855000D01*
X137897440Y-112605000D01*
X137853162Y-112369683D01*
X137830853Y-112335013D01*
X137841000Y-112284000D01*
X137841000Y-112112817D01*
X137865441Y-112097090D01*
X138010431Y-111884890D01*
X138061440Y-111633000D01*
X138061440Y-109601000D01*
X138017162Y-109365683D01*
X137878090Y-109149559D01*
X137841000Y-109124216D01*
X137841000Y-108788189D01*
X138280397Y-109222690D01*
X138409673Y-109352192D01*
X138753201Y-109494838D01*
X139125167Y-109495162D01*
X139435054Y-109367120D01*
X139434838Y-109615167D01*
X139576883Y-109958943D01*
X139712560Y-110094857D01*
X139712560Y-110430000D01*
X139756838Y-110665317D01*
X139895910Y-110881441D01*
X140108110Y-111026431D01*
X140360000Y-111077440D01*
X142740000Y-111077440D01*
X142740000Y-111182560D01*
X140360000Y-111182560D01*
X140124683Y-111226838D01*
X139908559Y-111365910D01*
X139763569Y-111578110D01*
X139712560Y-111830000D01*
X139712560Y-113830000D01*
X139756838Y-114065317D01*
X139895910Y-114281441D01*
X140108110Y-114426431D01*
X140360000Y-114477440D01*
X140675000Y-114477440D01*
X140675000Y-115770000D01*
X140746173Y-116127809D01*
X140948855Y-116431145D01*
X141940000Y-117422290D01*
X141940000Y-118783554D01*
X141789683Y-118811838D01*
X141573559Y-118950910D01*
X141428569Y-119163110D01*
X141377560Y-119415000D01*
X141377560Y-120615000D01*
X141421838Y-120850317D01*
X141560910Y-121066441D01*
X141713309Y-121170571D01*
X141693067Y-121185875D01*
X141446714Y-121605624D01*
X141431538Y-121697391D01*
X141556269Y-121888000D01*
X142748000Y-121888000D01*
X142748000Y-121868000D01*
X143002000Y-121868000D01*
X143002000Y-121888000D01*
X144193731Y-121888000D01*
X144318462Y-121697391D01*
X144303286Y-121605624D01*
X144056933Y-121185875D01*
X144035580Y-121169731D01*
X144176441Y-121079090D01*
X144321431Y-120866890D01*
X144372440Y-120615000D01*
X144372440Y-119415000D01*
X144328162Y-119179683D01*
X144189090Y-118963559D01*
X143976890Y-118818569D01*
X143810000Y-118784773D01*
X143810000Y-117035000D01*
X143738827Y-116677191D01*
X143621218Y-116501177D01*
X143692192Y-116430327D01*
X143834838Y-116086799D01*
X143834879Y-116039923D01*
X144037401Y-115837401D01*
X144202148Y-115590839D01*
X144260000Y-115300000D01*
X144260000Y-115294870D01*
X144595167Y-115295162D01*
X144938943Y-115153117D01*
X145202192Y-114890327D01*
X145344838Y-114546799D01*
X145345162Y-114174833D01*
X145335000Y-114150239D01*
X145335000Y-108330000D01*
X145279652Y-108051747D01*
X145348943Y-108023117D01*
X145612192Y-107760327D01*
X145754838Y-107416799D01*
X145755162Y-107044833D01*
X145613117Y-106701057D01*
X145350327Y-106437808D01*
X145006799Y-106295162D01*
X144821168Y-106295000D01*
X141026810Y-106285768D01*
X140476933Y-105866487D01*
X140476931Y-105866485D01*
X139676930Y-105256485D01*
X139565684Y-105202045D01*
X139462264Y-105133897D01*
X139403235Y-105122548D01*
X139349244Y-105096127D01*
X139225634Y-105088403D01*
X139104006Y-105065019D01*
X137547431Y-105074997D01*
X137364833Y-105074838D01*
X137345228Y-105082938D01*
X137341436Y-105079146D01*
X137210327Y-104947808D01*
X137096240Y-104900435D01*
X137096240Y-102997000D01*
X137051962Y-102761683D01*
X136912890Y-102545559D01*
X136700690Y-102400569D01*
X136510231Y-102362000D01*
X147480911Y-102362000D01*
X147351364Y-102491321D01*
X147010389Y-103312481D01*
X147009613Y-104201619D01*
X147349155Y-105023372D01*
X147977321Y-105652636D01*
X148798481Y-105993611D01*
X149687619Y-105994387D01*
X150509372Y-105654845D01*
X151098000Y-105067245D01*
X151098000Y-107114866D01*
X150896000Y-107073960D01*
X148864000Y-107073960D01*
X148628683Y-107118238D01*
X148412559Y-107257310D01*
X148267569Y-107469510D01*
X148216560Y-107721400D01*
X148216560Y-109448600D01*
X148260838Y-109683917D01*
X148399910Y-109900041D01*
X148612110Y-110045031D01*
X148706927Y-110064232D01*
X148529268Y-110222964D01*
X148275291Y-110750209D01*
X148272642Y-110765974D01*
X148393783Y-110998000D01*
X149753000Y-110998000D01*
X149753000Y-110978000D01*
X150007000Y-110978000D01*
X150007000Y-110998000D01*
X150027000Y-110998000D01*
X150027000Y-111252000D01*
X150007000Y-111252000D01*
X150007000Y-111272000D01*
X149753000Y-111272000D01*
X149753000Y-111252000D01*
X148393783Y-111252000D01*
X148272642Y-111484026D01*
X148275291Y-111499791D01*
X148529268Y-112027036D01*
X148945069Y-112398539D01*
X148635585Y-112605330D01*
X148310729Y-113091511D01*
X148196655Y-113665000D01*
X148207068Y-113717350D01*
X146039772Y-114926275D01*
X145959857Y-114994296D01*
X145872599Y-115052599D01*
X145847862Y-115089620D01*
X145813958Y-115118478D01*
X145766156Y-115211903D01*
X145707852Y-115299161D01*
X145699166Y-115342829D01*
X145678885Y-115382466D01*
X145670474Y-115487071D01*
X145650000Y-115590000D01*
X145650000Y-117110000D01*
X145707852Y-117400839D01*
X145814903Y-117561052D01*
X145814838Y-117635167D01*
X145956883Y-117978943D01*
X146219673Y-118242192D01*
X146563201Y-118384838D01*
X146935167Y-118385162D01*
X147278943Y-118243117D01*
X147542192Y-117980327D01*
X147684838Y-117636799D01*
X147685162Y-117264833D01*
X147543117Y-116921057D01*
X147280327Y-116657808D01*
X147170000Y-116611996D01*
X147170000Y-116036309D01*
X148557325Y-115262454D01*
X148310729Y-115631511D01*
X148196655Y-116205000D01*
X148310729Y-116778489D01*
X148635585Y-117264670D01*
X148950366Y-117475000D01*
X148635585Y-117685330D01*
X148310729Y-118171511D01*
X148196655Y-118745000D01*
X148310729Y-119318489D01*
X148635585Y-119804670D01*
X148950366Y-120015000D01*
X148635585Y-120225330D01*
X148310729Y-120711511D01*
X148196655Y-121285000D01*
X148310729Y-121858489D01*
X148635585Y-122344670D01*
X148950366Y-122555000D01*
X148635585Y-122765330D01*
X148310729Y-123251511D01*
X148196655Y-123825000D01*
X148310729Y-124398489D01*
X148635585Y-124884670D01*
X148950366Y-125095000D01*
X148635585Y-125305330D01*
X148310729Y-125791511D01*
X148196655Y-126365000D01*
X148310729Y-126938489D01*
X148635585Y-127424670D01*
X148945069Y-127631461D01*
X148529268Y-128002964D01*
X148275291Y-128530209D01*
X148272642Y-128545974D01*
X148393783Y-128778000D01*
X149753000Y-128778000D01*
X149753000Y-128758000D01*
X150007000Y-128758000D01*
X150007000Y-128778000D01*
X150027000Y-128778000D01*
X150027000Y-129032000D01*
X150007000Y-129032000D01*
X150007000Y-129052000D01*
X149753000Y-129052000D01*
X149753000Y-129032000D01*
X148393783Y-129032000D01*
X148272642Y-129264026D01*
X148275291Y-129279791D01*
X148529268Y-129807036D01*
X148945069Y-130178539D01*
X148635585Y-130385330D01*
X148310729Y-130871511D01*
X148196655Y-131445000D01*
X148310729Y-132018489D01*
X148635585Y-132504670D01*
X148950366Y-132715000D01*
X148635585Y-132925330D01*
X148310729Y-133411511D01*
X148196655Y-133985000D01*
X148310729Y-134558489D01*
X148635585Y-135044670D01*
X148950366Y-135255000D01*
X148635585Y-135465330D01*
X148310729Y-135951511D01*
X148196655Y-136525000D01*
X148310729Y-137098489D01*
X148635585Y-137584670D01*
X148950366Y-137795000D01*
X148635585Y-138005330D01*
X148310729Y-138491511D01*
X148196655Y-139065000D01*
X148310729Y-139638489D01*
X148635585Y-140124670D01*
X148950366Y-140335000D01*
X148635585Y-140545330D01*
X148310729Y-141031511D01*
X148196655Y-141605000D01*
X148310729Y-142178489D01*
X148635585Y-142664670D01*
X148950366Y-142875000D01*
X148635585Y-143085330D01*
X148310729Y-143571511D01*
X148196655Y-144145000D01*
X148285244Y-144590366D01*
X148252592Y-144511343D01*
X147905485Y-144163629D01*
X147451734Y-143975215D01*
X146960421Y-143974786D01*
X146506343Y-144162408D01*
X146158629Y-144509515D01*
X145970215Y-144963266D01*
X145969786Y-145454579D01*
X146157408Y-145908657D01*
X146504515Y-146256371D01*
X146958266Y-146444785D01*
X147449579Y-146445214D01*
X147903657Y-146257592D01*
X148251371Y-145910485D01*
X148439785Y-145456734D01*
X148440214Y-144965421D01*
X148382672Y-144826159D01*
X148635585Y-145204670D01*
X149121766Y-145529526D01*
X149695255Y-145643600D01*
X150064745Y-145643600D01*
X150638234Y-145529526D01*
X151098000Y-145222320D01*
X151098000Y-150368000D01*
X139457440Y-150368000D01*
X139457440Y-148763991D01*
X139619735Y-148763991D01*
X139852932Y-149328371D01*
X140284357Y-149760551D01*
X140848330Y-149994733D01*
X141458991Y-149995265D01*
X142023371Y-149762068D01*
X142455551Y-149330643D01*
X142689733Y-148766670D01*
X142689735Y-148763991D01*
X146869735Y-148763991D01*
X147102932Y-149328371D01*
X147534357Y-149760551D01*
X148098330Y-149994733D01*
X148708991Y-149995265D01*
X149273371Y-149762068D01*
X149705551Y-149330643D01*
X149939733Y-148766670D01*
X149940265Y-148156009D01*
X149707068Y-147591629D01*
X149275643Y-147159449D01*
X148711670Y-146925267D01*
X148101009Y-146924735D01*
X147536629Y-147157932D01*
X147104449Y-147589357D01*
X146870267Y-148153330D01*
X146869735Y-148763991D01*
X142689735Y-148763991D01*
X142690265Y-148156009D01*
X142457068Y-147591629D01*
X142025643Y-147159449D01*
X141461670Y-146925267D01*
X140851009Y-146924735D01*
X140286629Y-147157932D01*
X139854449Y-147589357D01*
X139620267Y-148153330D01*
X139619735Y-148763991D01*
X139457440Y-148763991D01*
X139457440Y-148030000D01*
X139413162Y-147794683D01*
X139274090Y-147578559D01*
X139061890Y-147433569D01*
X138810000Y-147382560D01*
X137810000Y-147382560D01*
X137574683Y-147426838D01*
X137358559Y-147565910D01*
X137213569Y-147778110D01*
X137162560Y-148030000D01*
X137162560Y-150368000D01*
X126107440Y-150368000D01*
X126107440Y-148930000D01*
X126063162Y-148694683D01*
X125924090Y-148478559D01*
X125711890Y-148333569D01*
X125460000Y-148282560D01*
X124160000Y-148282560D01*
X123924683Y-148326838D01*
X123708559Y-148465910D01*
X123563569Y-148678110D01*
X123512560Y-148930000D01*
X123512560Y-150368000D01*
X121651867Y-150368000D01*
X121908636Y-150111679D01*
X122249611Y-149290519D01*
X122250387Y-148401381D01*
X121910845Y-147579628D01*
X121282679Y-146950364D01*
X120461519Y-146609389D01*
X119572381Y-146608613D01*
X118750628Y-146948155D01*
X118237000Y-147460886D01*
X118237000Y-145272434D01*
X118621766Y-145529526D01*
X119195255Y-145643600D01*
X119564745Y-145643600D01*
X120138234Y-145529526D01*
X120624415Y-145204670D01*
X120949271Y-144718489D01*
X121063345Y-144145000D01*
X120949271Y-143571511D01*
X120624415Y-143085330D01*
X120309634Y-142875000D01*
X120624415Y-142664670D01*
X120949271Y-142178489D01*
X121063345Y-141605000D01*
X120949271Y-141031511D01*
X120624415Y-140545330D01*
X120309634Y-140335000D01*
X120624415Y-140124670D01*
X120949271Y-139638489D01*
X121063345Y-139065000D01*
X120949271Y-138491511D01*
X120624415Y-138005330D01*
X120309634Y-137795000D01*
X120624415Y-137584670D01*
X120949271Y-137098489D01*
X121063345Y-136525000D01*
X120949271Y-135951511D01*
X120624415Y-135465330D01*
X120309634Y-135255000D01*
X120624415Y-135044670D01*
X120949271Y-134558489D01*
X120954937Y-134530000D01*
X125962560Y-134530000D01*
X125962560Y-135730000D01*
X126006838Y-135965317D01*
X126145910Y-136181441D01*
X126358110Y-136326431D01*
X126610000Y-136377440D01*
X127710000Y-136377440D01*
X127945317Y-136333162D01*
X128034228Y-136275949D01*
X128108110Y-136326431D01*
X128109389Y-136326690D01*
X128065162Y-136433201D01*
X128064838Y-136805167D01*
X128206883Y-137148943D01*
X128469673Y-137412192D01*
X128813201Y-137554838D01*
X129050000Y-137555044D01*
X129050000Y-139600000D01*
X129065099Y-139675905D01*
X129064838Y-139975167D01*
X129206883Y-140318943D01*
X129469673Y-140582192D01*
X129813201Y-140724838D01*
X130185167Y-140725162D01*
X130528943Y-140583117D01*
X130792192Y-140320327D01*
X130934838Y-139976799D01*
X130934882Y-139925167D01*
X133164838Y-139925167D01*
X133306883Y-140268943D01*
X133569673Y-140532192D01*
X133913201Y-140674838D01*
X134285167Y-140675162D01*
X134628943Y-140533117D01*
X134846689Y-140315750D01*
X137275000Y-140315750D01*
X137275000Y-140756310D01*
X137371673Y-140989699D01*
X137550302Y-141168327D01*
X137783691Y-141265000D01*
X138124250Y-141265000D01*
X138283000Y-141106250D01*
X138283000Y-140157000D01*
X138537000Y-140157000D01*
X138537000Y-141106250D01*
X138695750Y-141265000D01*
X139036309Y-141265000D01*
X139269698Y-141168327D01*
X139448327Y-140989699D01*
X139545000Y-140756310D01*
X139545000Y-140315750D01*
X139386250Y-140157000D01*
X138537000Y-140157000D01*
X138283000Y-140157000D01*
X137433750Y-140157000D01*
X137275000Y-140315750D01*
X134846689Y-140315750D01*
X134892192Y-140270327D01*
X135034838Y-139926799D01*
X135034947Y-139802085D01*
X135349676Y-139421592D01*
X135452165Y-139303690D01*
X137275000Y-139303690D01*
X137275000Y-139744250D01*
X137433750Y-139903000D01*
X138283000Y-139903000D01*
X138283000Y-138953750D01*
X138537000Y-138953750D01*
X138537000Y-139903000D01*
X139386250Y-139903000D01*
X139545000Y-139744250D01*
X139545000Y-139303690D01*
X139448327Y-139070301D01*
X139269698Y-138891673D01*
X139036309Y-138795000D01*
X138695750Y-138795000D01*
X138537000Y-138953750D01*
X138283000Y-138953750D01*
X138124250Y-138795000D01*
X137783691Y-138795000D01*
X137550302Y-138891673D01*
X137371673Y-139070301D01*
X137275000Y-139303690D01*
X135452165Y-139303690D01*
X136405454Y-138207050D01*
X136713201Y-138334838D01*
X137085167Y-138335162D01*
X137428943Y-138193117D01*
X137692192Y-137930327D01*
X137818189Y-137626893D01*
X137876883Y-137768943D01*
X138139673Y-138032192D01*
X138483201Y-138174838D01*
X138855167Y-138175162D01*
X139198943Y-138033117D01*
X139232116Y-138000001D01*
X140302417Y-138000004D01*
X140313601Y-137997779D01*
X140324846Y-137999673D01*
X140433960Y-137996452D01*
X140449673Y-138012192D01*
X140793201Y-138154838D01*
X141053962Y-138155065D01*
X141096883Y-138258943D01*
X141359673Y-138522192D01*
X141602560Y-138623048D01*
X141602560Y-140260000D01*
X141644153Y-140481045D01*
X141362599Y-140762599D01*
X141197852Y-141009161D01*
X141140000Y-141300000D01*
X141140000Y-141637886D01*
X140907808Y-141869673D01*
X140765162Y-142213201D01*
X140764838Y-142585167D01*
X140906883Y-142928943D01*
X141169673Y-143192192D01*
X141513201Y-143334838D01*
X141602560Y-143334916D01*
X141602560Y-143660000D01*
X141646838Y-143895317D01*
X141784604Y-144109411D01*
X141656343Y-144162408D01*
X141308629Y-144509515D01*
X141120215Y-144963266D01*
X141119786Y-145454579D01*
X141307408Y-145908657D01*
X141654515Y-146256371D01*
X142108266Y-146444785D01*
X142599579Y-146445214D01*
X143053657Y-146257592D01*
X143401371Y-145910485D01*
X143589785Y-145456734D01*
X143590214Y-144965421D01*
X143413523Y-144537799D01*
X143500000Y-144555000D01*
X143857809Y-144483827D01*
X144121792Y-144307440D01*
X144750000Y-144307440D01*
X144985317Y-144263162D01*
X145201441Y-144124090D01*
X145346431Y-143911890D01*
X145397440Y-143660000D01*
X145397440Y-141660000D01*
X145386709Y-141602970D01*
X145390839Y-141602148D01*
X145637401Y-141437401D01*
X145847401Y-141227401D01*
X146012148Y-140980839D01*
X146070000Y-140690000D01*
X146070000Y-137710000D01*
X146060000Y-137659727D01*
X146060000Y-137300000D01*
X146043059Y-137214833D01*
X146002148Y-137009160D01*
X145837401Y-136762599D01*
X145745802Y-136671000D01*
X145654439Y-136573743D01*
X145661689Y-136080760D01*
X145702192Y-136040327D01*
X145844838Y-135696799D01*
X145845162Y-135324833D01*
X145703117Y-134981057D01*
X145440327Y-134717808D01*
X145096799Y-134575162D01*
X144724833Y-134574838D01*
X144515000Y-134661539D01*
X144515000Y-134380000D01*
X144443827Y-134022191D01*
X144241145Y-133718855D01*
X144061436Y-133539146D01*
X143930327Y-133407808D01*
X143586799Y-133265162D01*
X143214833Y-133264838D01*
X142871057Y-133406883D01*
X142607808Y-133669673D01*
X142465162Y-134013201D01*
X142464838Y-134385167D01*
X142539085Y-134564859D01*
X142514833Y-134564838D01*
X142345214Y-134634923D01*
X142056799Y-134515162D01*
X141684833Y-134514838D01*
X141341057Y-134656883D01*
X141077808Y-134919673D01*
X140935162Y-135263201D01*
X140934978Y-135474960D01*
X140794833Y-135474838D01*
X140793450Y-135475409D01*
X138357440Y-135481088D01*
X138357440Y-134530000D01*
X138313162Y-134294683D01*
X138174090Y-134078559D01*
X137961890Y-133933569D01*
X137710000Y-133882560D01*
X137010000Y-133882560D01*
X136880411Y-133906944D01*
X136760000Y-133882560D01*
X136180508Y-133882560D01*
X136093117Y-133671057D01*
X135830327Y-133407808D01*
X135486799Y-133265162D01*
X135114833Y-133264838D01*
X134771057Y-133406883D01*
X134507808Y-133669673D01*
X134365162Y-134013201D01*
X134365151Y-134025599D01*
X134337000Y-134053750D01*
X134337000Y-134409312D01*
X134312560Y-134530000D01*
X134312560Y-135730000D01*
X134320104Y-135770091D01*
X134319838Y-136075167D01*
X134337000Y-136116702D01*
X134337000Y-136206250D01*
X134400053Y-136269303D01*
X134461883Y-136418943D01*
X134724673Y-136682192D01*
X134954975Y-136777822D01*
X134954838Y-136935167D01*
X135096883Y-137278943D01*
X135151054Y-137333208D01*
X134196419Y-138431397D01*
X134191721Y-138439617D01*
X134184378Y-138445596D01*
X133872894Y-138822167D01*
X133571057Y-138946883D01*
X133307808Y-139209673D01*
X133165162Y-139553201D01*
X133164838Y-139925167D01*
X130934882Y-139925167D01*
X130935162Y-139604833D01*
X130793117Y-139261057D01*
X130570000Y-139037550D01*
X130570000Y-137385062D01*
X130685167Y-137385162D01*
X130895690Y-137298176D01*
X130914673Y-137317192D01*
X131258201Y-137459838D01*
X131630167Y-137460162D01*
X131973943Y-137318117D01*
X132237192Y-137055327D01*
X132379838Y-136711799D01*
X132379879Y-136664923D01*
X132547401Y-136497401D01*
X132643341Y-136353816D01*
X132760000Y-136377440D01*
X133460000Y-136377440D01*
X133668850Y-136338142D01*
X133733691Y-136365000D01*
X133924250Y-136365000D01*
X134083000Y-136206250D01*
X134083000Y-135850688D01*
X134107440Y-135730000D01*
X134107440Y-134530000D01*
X134083000Y-134400113D01*
X134083000Y-134053750D01*
X134034996Y-134005746D01*
X134035162Y-133814833D01*
X133893117Y-133471057D01*
X133630327Y-133207808D01*
X133286799Y-133065162D01*
X132914833Y-133064838D01*
X132571057Y-133206883D01*
X132540088Y-133237798D01*
X129827334Y-133224862D01*
X129800327Y-133197808D01*
X129456799Y-133055162D01*
X129084833Y-133054838D01*
X128741057Y-133196883D01*
X128477808Y-133459673D01*
X128335162Y-133803201D01*
X128335089Y-133887247D01*
X128124683Y-133926838D01*
X128035772Y-133984051D01*
X127961890Y-133933569D01*
X127710000Y-133882560D01*
X126610000Y-133882560D01*
X126374683Y-133926838D01*
X126158559Y-134065910D01*
X126013569Y-134278110D01*
X125962560Y-134530000D01*
X120954937Y-134530000D01*
X121063345Y-133985000D01*
X120949271Y-133411511D01*
X120624415Y-132925330D01*
X120309634Y-132715000D01*
X120624415Y-132504670D01*
X120784056Y-132265750D01*
X129810000Y-132265750D01*
X129810000Y-132506309D01*
X129906673Y-132739698D01*
X130085301Y-132918327D01*
X130318690Y-133015000D01*
X130534250Y-133015000D01*
X130693000Y-132856250D01*
X130693000Y-132107000D01*
X130947000Y-132107000D01*
X130947000Y-132856250D01*
X131105750Y-133015000D01*
X131321310Y-133015000D01*
X131554699Y-132918327D01*
X131733327Y-132739698D01*
X131830000Y-132506309D01*
X131830000Y-132305750D01*
X134890000Y-132305750D01*
X134890000Y-132546309D01*
X134986673Y-132779698D01*
X135165301Y-132958327D01*
X135398690Y-133055000D01*
X135614250Y-133055000D01*
X135773000Y-132896250D01*
X135773000Y-132147000D01*
X136027000Y-132147000D01*
X136027000Y-132896250D01*
X136185750Y-133055000D01*
X136401310Y-133055000D01*
X136634699Y-132958327D01*
X136813327Y-132779698D01*
X136910000Y-132546309D01*
X136910000Y-132305750D01*
X136751250Y-132147000D01*
X136027000Y-132147000D01*
X135773000Y-132147000D01*
X135048750Y-132147000D01*
X134890000Y-132305750D01*
X131830000Y-132305750D01*
X131830000Y-132265750D01*
X131671250Y-132107000D01*
X130947000Y-132107000D01*
X130693000Y-132107000D01*
X129968750Y-132107000D01*
X129810000Y-132265750D01*
X120784056Y-132265750D01*
X120949271Y-132018489D01*
X121063345Y-131445000D01*
X120949271Y-130871511D01*
X120624415Y-130385330D01*
X120309634Y-130175000D01*
X120624415Y-129964670D01*
X120949271Y-129478489D01*
X121063345Y-128905000D01*
X120960060Y-128385750D01*
X122065000Y-128385750D01*
X122065000Y-128851310D01*
X122161673Y-129084699D01*
X122340302Y-129263327D01*
X122573691Y-129360000D01*
X122914250Y-129360000D01*
X123073000Y-129201250D01*
X123073000Y-128227000D01*
X122223750Y-128227000D01*
X122065000Y-128385750D01*
X120960060Y-128385750D01*
X120949271Y-128331511D01*
X120624415Y-127845330D01*
X120314931Y-127638539D01*
X120639341Y-127348690D01*
X122065000Y-127348690D01*
X122065000Y-127814250D01*
X122223750Y-127973000D01*
X123073000Y-127973000D01*
X123073000Y-126998750D01*
X123327000Y-126998750D01*
X123327000Y-127973000D01*
X123347000Y-127973000D01*
X123347000Y-128227000D01*
X123327000Y-128227000D01*
X123327000Y-129201250D01*
X123485750Y-129360000D01*
X123826309Y-129360000D01*
X124059698Y-129263327D01*
X124200936Y-129122090D01*
X124235910Y-129176441D01*
X124271194Y-129200549D01*
X124406883Y-129528943D01*
X124669673Y-129792192D01*
X125013201Y-129934838D01*
X125385167Y-129935162D01*
X125728943Y-129793117D01*
X125992192Y-129530327D01*
X126127486Y-129204505D01*
X126151441Y-129189090D01*
X126163390Y-129171601D01*
X129463566Y-129171601D01*
X129668081Y-129666565D01*
X129845327Y-129844120D01*
X129797560Y-130080000D01*
X129797560Y-130880000D01*
X129841838Y-131115317D01*
X129908329Y-131218646D01*
X129906673Y-131220302D01*
X129810000Y-131453691D01*
X129810000Y-131694250D01*
X129968750Y-131853000D01*
X130693000Y-131853000D01*
X130693000Y-131833000D01*
X130947000Y-131833000D01*
X130947000Y-131853000D01*
X131671250Y-131853000D01*
X131830000Y-131694250D01*
X131830000Y-131453691D01*
X131733327Y-131220302D01*
X131731957Y-131218932D01*
X131791431Y-131131890D01*
X131842440Y-130880000D01*
X131842440Y-130080000D01*
X131798162Y-129844683D01*
X131788772Y-129830091D01*
X131950588Y-129668557D01*
X132155966Y-129173951D01*
X132155968Y-129171601D01*
X134543566Y-129171601D01*
X134748081Y-129666565D01*
X134936982Y-129855796D01*
X134928569Y-129868110D01*
X134877560Y-130120000D01*
X134877560Y-130920000D01*
X134921838Y-131155317D01*
X134988329Y-131258646D01*
X134986673Y-131260302D01*
X134890000Y-131493691D01*
X134890000Y-131734250D01*
X135048750Y-131893000D01*
X135773000Y-131893000D01*
X135773000Y-131873000D01*
X136027000Y-131873000D01*
X136027000Y-131893000D01*
X136751250Y-131893000D01*
X136910000Y-131734250D01*
X136910000Y-131493691D01*
X136813327Y-131260302D01*
X136811957Y-131258932D01*
X136871431Y-131171890D01*
X136922440Y-130920000D01*
X136922440Y-130120000D01*
X136878162Y-129884683D01*
X136853100Y-129845736D01*
X137030588Y-129668557D01*
X137235966Y-129173951D01*
X137236434Y-128638399D01*
X137031919Y-128143435D01*
X136774102Y-127885167D01*
X137664838Y-127885167D01*
X137806883Y-128228943D01*
X138069673Y-128492192D01*
X138413201Y-128634838D01*
X138460077Y-128634879D01*
X138792889Y-128967691D01*
X138786799Y-128965162D01*
X138414833Y-128964838D01*
X138071057Y-129106883D01*
X137807808Y-129369673D01*
X137665162Y-129713201D01*
X137664838Y-130085167D01*
X137774359Y-130350228D01*
X137665162Y-130613201D01*
X137664838Y-130985167D01*
X137774359Y-131250228D01*
X137665162Y-131513201D01*
X137664838Y-131885167D01*
X137774359Y-132150228D01*
X137665162Y-132413201D01*
X137664838Y-132785167D01*
X137806883Y-133128943D01*
X138069673Y-133392192D01*
X138413201Y-133534838D01*
X138785167Y-133535162D01*
X139128943Y-133393117D01*
X139392192Y-133130327D01*
X139462918Y-132960000D01*
X141300000Y-132960000D01*
X141350273Y-132950000D01*
X142650000Y-132950000D01*
X142721131Y-132935851D01*
X142793651Y-132936300D01*
X142865140Y-132907206D01*
X142940839Y-132892148D01*
X143001138Y-132851858D01*
X143068313Y-132824519D01*
X144418312Y-131934519D01*
X144473224Y-131880282D01*
X144537401Y-131837401D01*
X144577694Y-131777098D01*
X144629289Y-131726138D01*
X144659266Y-131655017D01*
X144702148Y-131590839D01*
X144716297Y-131519709D01*
X144744464Y-131452881D01*
X144744942Y-131375702D01*
X144760000Y-131300000D01*
X144760000Y-129714887D01*
X145075167Y-129715162D01*
X145418943Y-129573117D01*
X145682192Y-129310327D01*
X145824838Y-128966799D01*
X145825162Y-128594833D01*
X145683117Y-128251057D01*
X145555000Y-128122716D01*
X145555000Y-127710000D01*
X145483827Y-127352191D01*
X145281145Y-127048855D01*
X143561436Y-125329146D01*
X143430327Y-125197808D01*
X143086799Y-125055162D01*
X142714833Y-125054838D01*
X142371057Y-125196883D01*
X142107808Y-125459673D01*
X141965162Y-125803201D01*
X141964838Y-126175167D01*
X142106883Y-126518943D01*
X142117788Y-126529867D01*
X142017808Y-126629673D01*
X141961665Y-126764879D01*
X141914833Y-126764838D01*
X141571057Y-126906883D01*
X141307808Y-127169673D01*
X141226728Y-127364935D01*
X141114833Y-127364838D01*
X140771057Y-127506883D01*
X140507808Y-127769673D01*
X140365162Y-128113201D01*
X140365043Y-128250000D01*
X140224802Y-128250000D01*
X139535122Y-127560320D01*
X139535162Y-127514833D01*
X139393117Y-127171057D01*
X139130327Y-126907808D01*
X138786799Y-126765162D01*
X138414833Y-126764838D01*
X138071057Y-126906883D01*
X137807808Y-127169673D01*
X137665162Y-127513201D01*
X137664838Y-127885167D01*
X136774102Y-127885167D01*
X136653557Y-127764412D01*
X136158951Y-127559034D01*
X135623399Y-127558566D01*
X135128435Y-127763081D01*
X134749412Y-128141443D01*
X134544034Y-128636049D01*
X134543566Y-129171601D01*
X132155968Y-129171601D01*
X132156434Y-128638399D01*
X131951919Y-128143435D01*
X131573557Y-127764412D01*
X131078951Y-127559034D01*
X130543399Y-127558566D01*
X130048435Y-127763081D01*
X129669412Y-128141443D01*
X129464034Y-128636049D01*
X129463566Y-129171601D01*
X126163390Y-129171601D01*
X126296431Y-128976890D01*
X126347440Y-128725000D01*
X126347440Y-127475000D01*
X126303162Y-127239683D01*
X126164090Y-127023559D01*
X125951890Y-126878569D01*
X125700000Y-126827560D01*
X124700000Y-126827560D01*
X124464683Y-126871838D01*
X124248559Y-127010910D01*
X124202031Y-127079006D01*
X124059698Y-126936673D01*
X123826309Y-126840000D01*
X123485750Y-126840000D01*
X123327000Y-126998750D01*
X123073000Y-126998750D01*
X122914250Y-126840000D01*
X122573691Y-126840000D01*
X122340302Y-126936673D01*
X122161673Y-127115301D01*
X122065000Y-127348690D01*
X120639341Y-127348690D01*
X120730732Y-127267036D01*
X120984709Y-126739791D01*
X120987358Y-126724026D01*
X120866217Y-126492000D01*
X119507000Y-126492000D01*
X119507000Y-126512000D01*
X119253000Y-126512000D01*
X119253000Y-126492000D01*
X119233000Y-126492000D01*
X119233000Y-126238000D01*
X119253000Y-126238000D01*
X119253000Y-126218000D01*
X119507000Y-126218000D01*
X119507000Y-126238000D01*
X120866217Y-126238000D01*
X120987358Y-126005974D01*
X120984709Y-125990209D01*
X120730732Y-125462964D01*
X120314931Y-125091461D01*
X120622798Y-124885750D01*
X121215500Y-124885750D01*
X121215500Y-125476880D01*
X121312173Y-125710269D01*
X121490802Y-125888897D01*
X121724191Y-125985570D01*
X122540110Y-125985570D01*
X122698860Y-125826820D01*
X122698860Y-124727000D01*
X121374250Y-124727000D01*
X121215500Y-124885750D01*
X120622798Y-124885750D01*
X120624415Y-124884670D01*
X120949271Y-124398489D01*
X121063345Y-123825000D01*
X121043080Y-123723120D01*
X121215500Y-123723120D01*
X121215500Y-124314250D01*
X121374250Y-124473000D01*
X122698860Y-124473000D01*
X122698860Y-123373180D01*
X122540110Y-123214430D01*
X121724191Y-123214430D01*
X121490802Y-123311103D01*
X121312173Y-123489731D01*
X121215500Y-123723120D01*
X121043080Y-123723120D01*
X120949271Y-123251511D01*
X120624415Y-122765330D01*
X120314931Y-122558539D01*
X120730732Y-122187036D01*
X120984709Y-121659791D01*
X120987358Y-121644026D01*
X120866217Y-121412000D01*
X119507000Y-121412000D01*
X119507000Y-121432000D01*
X119253000Y-121432000D01*
X119253000Y-121412000D01*
X119233000Y-121412000D01*
X119233000Y-121158000D01*
X119253000Y-121158000D01*
X119253000Y-121138000D01*
X119507000Y-121138000D01*
X119507000Y-121158000D01*
X120866217Y-121158000D01*
X120987358Y-120925974D01*
X120984709Y-120910209D01*
X120730732Y-120382964D01*
X120314931Y-120011461D01*
X120624415Y-119804670D01*
X120949271Y-119318489D01*
X121063345Y-118745000D01*
X120949271Y-118171511D01*
X120624415Y-117685330D01*
X120309634Y-117475000D01*
X120624415Y-117264670D01*
X120804491Y-116995167D01*
X122504838Y-116995167D01*
X122646883Y-117338943D01*
X122722727Y-117414920D01*
X122759936Y-117917240D01*
X122751282Y-121716257D01*
X122717808Y-121749673D01*
X122575162Y-122093201D01*
X122574838Y-122465167D01*
X122716883Y-122808943D01*
X122979673Y-123072192D01*
X123322218Y-123214430D01*
X123111610Y-123214430D01*
X122952860Y-123373180D01*
X122952860Y-124473000D01*
X122972860Y-124473000D01*
X122972860Y-124727000D01*
X122952860Y-124727000D01*
X122952860Y-125826820D01*
X123111610Y-125985570D01*
X123927529Y-125985570D01*
X124160918Y-125888897D01*
X124201889Y-125847926D01*
X124346890Y-125947001D01*
X124598780Y-125998010D01*
X124952783Y-125998010D01*
X125006883Y-126128943D01*
X125269673Y-126392192D01*
X125613201Y-126534838D01*
X125942880Y-126535125D01*
X126099673Y-126692192D01*
X126443201Y-126834838D01*
X126815167Y-126835162D01*
X127012814Y-126753496D01*
X127353201Y-126894838D01*
X127725167Y-126895162D01*
X127950129Y-126802210D01*
X128173201Y-126894838D01*
X128545167Y-126895162D01*
X128888943Y-126753117D01*
X129152192Y-126490327D01*
X129294838Y-126146799D01*
X129294944Y-126025225D01*
X129543848Y-125726540D01*
X129598560Y-125626005D01*
X129662148Y-125530839D01*
X129668944Y-125496673D01*
X129685596Y-125466075D01*
X129697671Y-125352256D01*
X129720000Y-125240000D01*
X129720000Y-121015079D01*
X129815167Y-121015162D01*
X130158943Y-120873117D01*
X130422192Y-120610327D01*
X130564838Y-120266799D01*
X130565162Y-119894833D01*
X130565000Y-119894441D01*
X130565000Y-118947290D01*
X130687123Y-118825167D01*
X135354838Y-118825167D01*
X135481773Y-119132373D01*
X135365162Y-119413201D01*
X135364838Y-119785167D01*
X135506883Y-120128943D01*
X135540000Y-120162118D01*
X135540000Y-122300000D01*
X135560599Y-122403557D01*
X135569242Y-122508788D01*
X135619102Y-122683299D01*
X135565162Y-122813201D01*
X135564838Y-123185167D01*
X135706883Y-123528943D01*
X135969673Y-123792192D01*
X136313201Y-123934838D01*
X136685167Y-123935162D01*
X137028943Y-123793117D01*
X137292192Y-123530327D01*
X137434838Y-123186799D01*
X137435162Y-122814833D01*
X137404849Y-122741471D01*
X137501235Y-122766185D01*
X137640221Y-122773788D01*
X137778923Y-122784779D01*
X137787901Y-122781867D01*
X137797329Y-122782383D01*
X137928631Y-122736225D01*
X138060996Y-122693296D01*
X138165399Y-122634901D01*
X138465167Y-122635162D01*
X138808943Y-122493117D01*
X138969731Y-122332609D01*
X141431538Y-122332609D01*
X141446714Y-122424376D01*
X141693067Y-122844125D01*
X142081299Y-123137647D01*
X142552304Y-123260256D01*
X142748000Y-123097547D01*
X142748000Y-122142000D01*
X143002000Y-122142000D01*
X143002000Y-123097547D01*
X143197696Y-123260256D01*
X143668701Y-123137647D01*
X144056933Y-122844125D01*
X144303286Y-122424376D01*
X144318462Y-122332609D01*
X144193731Y-122142000D01*
X143002000Y-122142000D01*
X142748000Y-122142000D01*
X141556269Y-122142000D01*
X141431538Y-122332609D01*
X138969731Y-122332609D01*
X139072192Y-122230327D01*
X139214838Y-121886799D01*
X139215162Y-121514833D01*
X139073117Y-121171057D01*
X138810327Y-120907808D01*
X138466799Y-120765162D01*
X138461999Y-120765158D01*
X138423117Y-120671057D01*
X138390000Y-120637882D01*
X138390000Y-118612428D01*
X138442192Y-118560327D01*
X138584838Y-118216799D01*
X138585162Y-117844833D01*
X138443117Y-117501057D01*
X138180327Y-117237808D01*
X137836799Y-117095162D01*
X137464833Y-117094838D01*
X137121057Y-117236883D01*
X136857808Y-117499673D01*
X136728996Y-117809884D01*
X136476799Y-117705162D01*
X136104833Y-117704838D01*
X135761057Y-117846883D01*
X135497808Y-118109673D01*
X135355162Y-118453201D01*
X135354838Y-118825167D01*
X130687123Y-118825167D01*
X131679938Y-117832352D01*
X131739673Y-117892192D01*
X132083201Y-118034838D01*
X132455167Y-118035162D01*
X132798943Y-117893117D01*
X132929231Y-117763056D01*
X133797078Y-116903888D01*
X133798943Y-116903117D01*
X134062192Y-116640327D01*
X134204838Y-116296799D01*
X134205162Y-115924833D01*
X134063117Y-115581057D01*
X133800327Y-115317808D01*
X133456799Y-115175162D01*
X133167068Y-115174910D01*
X132960327Y-114967808D01*
X132616799Y-114825162D01*
X132244833Y-114824838D01*
X131901057Y-114966883D01*
X131637808Y-115229673D01*
X131637645Y-115230065D01*
X129720000Y-117147710D01*
X129720000Y-116660000D01*
X129708635Y-116602866D01*
X129711198Y-116544670D01*
X129679976Y-116458786D01*
X129662148Y-116369161D01*
X129629785Y-116320727D01*
X129609882Y-116265978D01*
X129124934Y-115466129D01*
X129125162Y-115204833D01*
X128983117Y-114861057D01*
X128720327Y-114597808D01*
X128376799Y-114455162D01*
X128004833Y-114454838D01*
X127661057Y-114596883D01*
X127397808Y-114859673D01*
X127255162Y-115203201D01*
X127255009Y-115378571D01*
X127246799Y-115375162D01*
X127078710Y-115375016D01*
X126953117Y-115071057D01*
X126690327Y-114807808D01*
X126346799Y-114665162D01*
X125974833Y-114664838D01*
X125631057Y-114806883D01*
X125367808Y-115069673D01*
X125225162Y-115413201D01*
X125225092Y-115494110D01*
X124986799Y-115395162D01*
X124614833Y-115394838D01*
X124271057Y-115536883D01*
X124007808Y-115799673D01*
X123925039Y-115999003D01*
X123626799Y-115875162D01*
X123254833Y-115874838D01*
X122911057Y-116016883D01*
X122647808Y-116279673D01*
X122505162Y-116623201D01*
X122504838Y-116995167D01*
X120804491Y-116995167D01*
X120949271Y-116778489D01*
X121063345Y-116205000D01*
X120949271Y-115631511D01*
X120854888Y-115490257D01*
X121241506Y-115422782D01*
X121463201Y-115514838D01*
X121835167Y-115515162D01*
X122178943Y-115373117D01*
X122442192Y-115110327D01*
X122584838Y-114766799D01*
X122585162Y-114394833D01*
X122443117Y-114051057D01*
X122180327Y-113787808D01*
X122113094Y-113759890D01*
X129014430Y-113759890D01*
X129014430Y-114575809D01*
X129111103Y-114809198D01*
X129289731Y-114987827D01*
X129523120Y-115084500D01*
X130114250Y-115084500D01*
X130273000Y-114925750D01*
X130273000Y-113601140D01*
X130527000Y-113601140D01*
X130527000Y-114925750D01*
X130685750Y-115084500D01*
X131276880Y-115084500D01*
X131510269Y-114987827D01*
X131688897Y-114809198D01*
X131785570Y-114575809D01*
X131785570Y-113759890D01*
X131626820Y-113601140D01*
X130527000Y-113601140D01*
X130273000Y-113601140D01*
X129173180Y-113601140D01*
X129014430Y-113759890D01*
X122113094Y-113759890D01*
X121836799Y-113645162D01*
X121464833Y-113644838D01*
X121121057Y-113786883D01*
X121018795Y-113888966D01*
X121063345Y-113665000D01*
X121033658Y-113515750D01*
X133615000Y-113515750D01*
X133615000Y-113981310D01*
X133711673Y-114214699D01*
X133890302Y-114393327D01*
X134123691Y-114490000D01*
X134464250Y-114490000D01*
X134623000Y-114331250D01*
X134623000Y-113357000D01*
X133773750Y-113357000D01*
X133615000Y-113515750D01*
X121033658Y-113515750D01*
X120949271Y-113091511D01*
X120624415Y-112605330D01*
X120314931Y-112398539D01*
X120730732Y-112027036D01*
X120984709Y-111499791D01*
X120987358Y-111484026D01*
X120866217Y-111252000D01*
X119507000Y-111252000D01*
X119507000Y-111272000D01*
X119253000Y-111272000D01*
X119253000Y-111252000D01*
X119233000Y-111252000D01*
X119233000Y-110998000D01*
X119253000Y-110998000D01*
X119253000Y-110978000D01*
X119507000Y-110978000D01*
X119507000Y-110998000D01*
X120866217Y-110998000D01*
X120987358Y-110765974D01*
X120984709Y-110750209D01*
X120730732Y-110222964D01*
X120555155Y-110066093D01*
X120631317Y-110051762D01*
X120847441Y-109912690D01*
X120992431Y-109700490D01*
X121043440Y-109448600D01*
X121043440Y-107721400D01*
X120999162Y-107486083D01*
X120860090Y-107269959D01*
X120647890Y-107124969D01*
X120396000Y-107073960D01*
X118364000Y-107073960D01*
X118237000Y-107097857D01*
X118237000Y-102362000D01*
X132725087Y-102362000D01*
X132555883Y-102393838D01*
M02*
