G04 #@! TF.FileFunction,Soldermask,Top*
%FSLAX46Y46*%
G04 Gerber Fmt 4.6, Leading zero omitted, Abs format (unit mm)*
G04 Created by KiCad (PCBNEW 4.0.4+e1-6308~48~ubuntu16.04.1-stable) date Thu Nov 24 17:46:36 2016*
%MOMM*%
%LPD*%
G01*
G04 APERTURE LIST*
%ADD10C,0.100000*%
%ADD11C,3.200000*%
%ADD12R,1.000000X1.250000*%
%ADD13R,2.032000X1.727200*%
%ADD14O,2.032000X1.727200*%
%ADD15C,1.800000*%
%ADD16C,1.200000*%
%ADD17R,0.400000X1.350000*%
%ADD18R,1.700000X1.200000*%
%ADD19O,1.700000X1.200000*%
%ADD20R,2.000000X2.500000*%
%ADD21R,0.600000X1.500000*%
%ADD22O,2.000000X0.900000*%
%ADD23R,2.000000X0.900000*%
%ADD24R,4.300000X4.300000*%
%ADD25C,1.422400*%
%ADD26R,0.900000X0.500000*%
%ADD27R,0.500000X0.900000*%
G04 APERTURE END LIST*
D10*
D11*
X149245000Y-103759000D03*
D12*
X130445000Y-137795000D03*
X132445000Y-137795000D03*
D13*
X119380000Y-108585000D03*
D14*
X119380000Y-111125000D03*
X119380000Y-113665000D03*
X119380000Y-116205000D03*
X119380000Y-118745000D03*
X119380000Y-121285000D03*
X119380000Y-123825000D03*
X119380000Y-126365000D03*
X119380000Y-128905000D03*
X119380000Y-131445000D03*
X119380000Y-133985000D03*
X119380000Y-136525000D03*
X119380000Y-139065000D03*
X119380000Y-141605000D03*
X119380000Y-144145000D03*
D15*
X148405000Y-148460000D03*
D16*
X147205000Y-145210000D03*
D17*
X144780000Y-145260000D03*
X144130000Y-145260000D03*
X143480000Y-145260000D03*
X145430000Y-145260000D03*
X146080000Y-145260000D03*
D16*
X142355000Y-145210000D03*
D15*
X141155000Y-148460000D03*
D13*
X149880000Y-108585000D03*
D14*
X149880000Y-111125000D03*
X149880000Y-113665000D03*
X149880000Y-116205000D03*
X149880000Y-118745000D03*
X149880000Y-121285000D03*
X149880000Y-123825000D03*
X149880000Y-126365000D03*
X149880000Y-128905000D03*
X149880000Y-131445000D03*
X149880000Y-133985000D03*
X149880000Y-136525000D03*
X149880000Y-139065000D03*
X149880000Y-141605000D03*
X149880000Y-144145000D03*
D18*
X142875000Y-120015000D03*
D19*
X142875000Y-122015000D03*
D20*
X135890000Y-140505000D03*
X135890000Y-149055000D03*
X128270000Y-140505000D03*
X128270000Y-149055000D03*
D21*
X125095000Y-123985000D03*
X126365000Y-123985000D03*
X127635000Y-123985000D03*
X128905000Y-123985000D03*
X130175000Y-123985000D03*
X131445000Y-123985000D03*
X132715000Y-123985000D03*
X133985000Y-123985000D03*
X133985000Y-118585000D03*
X132715000Y-118585000D03*
X131445000Y-118585000D03*
X130175000Y-118585000D03*
X128905000Y-118585000D03*
X127635000Y-118585000D03*
X126365000Y-118585000D03*
X125095000Y-118585000D03*
D22*
X141825000Y-114870000D03*
X123825000Y-114870000D03*
D23*
X123825000Y-102870000D03*
D22*
X123825000Y-104370000D03*
X123825000Y-105870000D03*
X123825000Y-107370000D03*
X123825000Y-108870000D03*
X123825000Y-110370000D03*
X123825000Y-111870000D03*
X123825000Y-113370000D03*
X141825000Y-113370000D03*
X141825000Y-111870000D03*
X141825000Y-110370000D03*
X141825000Y-108870000D03*
X141825000Y-107370000D03*
X141825000Y-105870000D03*
X141825000Y-104370000D03*
X141825000Y-102870000D03*
D24*
X133945000Y-109450000D03*
D25*
X130810000Y-128905000D03*
X135890000Y-128905000D03*
D11*
X120015000Y-148844000D03*
D26*
X128270000Y-137420000D03*
X128270000Y-138920000D03*
X135890000Y-137420000D03*
X135890000Y-138920000D03*
X145500000Y-133250000D03*
X145500000Y-134750000D03*
X133985000Y-138545000D03*
X133985000Y-137045000D03*
D27*
X122030000Y-105990000D03*
X120530000Y-105990000D03*
X120550000Y-104390000D03*
X122050000Y-104390000D03*
D26*
X124460000Y-144260000D03*
X124460000Y-142760000D03*
X122555000Y-144260000D03*
X122555000Y-142760000D03*
M02*
