G04 #@! TF.FileFunction,Legend,Top*
%FSLAX46Y46*%
G04 Gerber Fmt 4.6, Leading zero omitted, Abs format (unit mm)*
G04 Created by KiCad (PCBNEW 4.0.4+e1-6308~48~ubuntu16.04.1-stable) date Thu Nov 24 17:46:36 2016*
%MOMM*%
%LPD*%
G01*
G04 APERTURE LIST*
%ADD10C,0.100000*%
%ADD11C,0.200000*%
%ADD12C,0.150000*%
%ADD13C,0.152400*%
G04 APERTURE END LIST*
D10*
D11*
X131322381Y-145938095D02*
X130846190Y-146271429D01*
X131322381Y-146509524D02*
X130322381Y-146509524D01*
X130322381Y-146128571D01*
X130370000Y-146033333D01*
X130417619Y-145985714D01*
X130512857Y-145938095D01*
X130655714Y-145938095D01*
X130750952Y-145985714D01*
X130798571Y-146033333D01*
X130846190Y-146128571D01*
X130846190Y-146509524D01*
X131274762Y-145128571D02*
X131322381Y-145223809D01*
X131322381Y-145414286D01*
X131274762Y-145509524D01*
X131179524Y-145557143D01*
X130798571Y-145557143D01*
X130703333Y-145509524D01*
X130655714Y-145414286D01*
X130655714Y-145223809D01*
X130703333Y-145128571D01*
X130798571Y-145080952D01*
X130893810Y-145080952D01*
X130989048Y-145557143D01*
X131274762Y-144700000D02*
X131322381Y-144604762D01*
X131322381Y-144414286D01*
X131274762Y-144319047D01*
X131179524Y-144271428D01*
X131131905Y-144271428D01*
X131036667Y-144319047D01*
X130989048Y-144414286D01*
X130989048Y-144557143D01*
X130941429Y-144652381D01*
X130846190Y-144700000D01*
X130798571Y-144700000D01*
X130703333Y-144652381D01*
X130655714Y-144557143D01*
X130655714Y-144414286D01*
X130703333Y-144319047D01*
X131274762Y-143461904D02*
X131322381Y-143557142D01*
X131322381Y-143747619D01*
X131274762Y-143842857D01*
X131179524Y-143890476D01*
X130798571Y-143890476D01*
X130703333Y-143842857D01*
X130655714Y-143747619D01*
X130655714Y-143557142D01*
X130703333Y-143461904D01*
X130798571Y-143414285D01*
X130893810Y-143414285D01*
X130989048Y-143890476D01*
X130655714Y-143128571D02*
X130655714Y-142747619D01*
X130322381Y-142985714D02*
X131179524Y-142985714D01*
X131274762Y-142938095D01*
X131322381Y-142842857D01*
X131322381Y-142747619D01*
X138418571Y-145978571D02*
X138418571Y-146311905D01*
X138942381Y-146311905D02*
X137942381Y-146311905D01*
X137942381Y-145835714D01*
X138942381Y-145311905D02*
X138894762Y-145407143D01*
X138799524Y-145454762D01*
X137942381Y-145454762D01*
X138942381Y-144502380D02*
X138418571Y-144502380D01*
X138323333Y-144549999D01*
X138275714Y-144645237D01*
X138275714Y-144835714D01*
X138323333Y-144930952D01*
X138894762Y-144502380D02*
X138942381Y-144597618D01*
X138942381Y-144835714D01*
X138894762Y-144930952D01*
X138799524Y-144978571D01*
X138704286Y-144978571D01*
X138609048Y-144930952D01*
X138561429Y-144835714D01*
X138561429Y-144597618D01*
X138513810Y-144502380D01*
X138894762Y-144073809D02*
X138942381Y-143978571D01*
X138942381Y-143788095D01*
X138894762Y-143692856D01*
X138799524Y-143645237D01*
X138751905Y-143645237D01*
X138656667Y-143692856D01*
X138609048Y-143788095D01*
X138609048Y-143930952D01*
X138561429Y-144026190D01*
X138466190Y-144073809D01*
X138418571Y-144073809D01*
X138323333Y-144026190D01*
X138275714Y-143930952D01*
X138275714Y-143788095D01*
X138323333Y-143692856D01*
X138942381Y-143216666D02*
X137942381Y-143216666D01*
X138942381Y-142788094D02*
X138418571Y-142788094D01*
X138323333Y-142835713D01*
X138275714Y-142930951D01*
X138275714Y-143073809D01*
X138323333Y-143169047D01*
X138370952Y-143216666D01*
X138490475Y-127742381D02*
X138490475Y-126742381D01*
X138823809Y-127456667D01*
X139157142Y-126742381D01*
X139157142Y-127742381D01*
X140061904Y-127742381D02*
X140061904Y-127218571D01*
X140014285Y-127123333D01*
X139919047Y-127075714D01*
X139728570Y-127075714D01*
X139633332Y-127123333D01*
X140061904Y-127694762D02*
X139966666Y-127742381D01*
X139728570Y-127742381D01*
X139633332Y-127694762D01*
X139585713Y-127599524D01*
X139585713Y-127504286D01*
X139633332Y-127409048D01*
X139728570Y-127361429D01*
X139966666Y-127361429D01*
X140061904Y-127313810D01*
X140442856Y-127075714D02*
X140966666Y-127075714D01*
X140442856Y-127742381D01*
X140966666Y-127742381D01*
X141252380Y-127075714D02*
X141776190Y-127075714D01*
X141252380Y-127742381D01*
X141776190Y-127742381D01*
X142585714Y-127742381D02*
X142585714Y-127218571D01*
X142538095Y-127123333D01*
X142442857Y-127075714D01*
X142252380Y-127075714D01*
X142157142Y-127123333D01*
X142585714Y-127694762D02*
X142490476Y-127742381D01*
X142252380Y-127742381D01*
X142157142Y-127694762D01*
X142109523Y-127599524D01*
X142109523Y-127504286D01*
X142157142Y-127409048D01*
X142252380Y-127361429D01*
X142490476Y-127361429D01*
X142585714Y-127313810D01*
X143490476Y-127694762D02*
X143395238Y-127742381D01*
X143204761Y-127742381D01*
X143109523Y-127694762D01*
X143061904Y-127647143D01*
X143014285Y-127551905D01*
X143014285Y-127266190D01*
X143061904Y-127170952D01*
X143109523Y-127123333D01*
X143204761Y-127075714D01*
X143395238Y-127075714D01*
X143490476Y-127123333D01*
X143919047Y-127742381D02*
X143919047Y-127075714D01*
X143919047Y-127266190D02*
X143966666Y-127170952D01*
X144014285Y-127123333D01*
X144109523Y-127075714D01*
X144204762Y-127075714D01*
X144966667Y-127742381D02*
X144966667Y-127218571D01*
X144919048Y-127123333D01*
X144823810Y-127075714D01*
X144633333Y-127075714D01*
X144538095Y-127123333D01*
X144966667Y-127694762D02*
X144871429Y-127742381D01*
X144633333Y-127742381D01*
X144538095Y-127694762D01*
X144490476Y-127599524D01*
X144490476Y-127504286D01*
X144538095Y-127409048D01*
X144633333Y-127361429D01*
X144871429Y-127361429D01*
X144966667Y-127313810D01*
X145300000Y-127075714D02*
X145680952Y-127075714D01*
X145442857Y-127742381D02*
X145442857Y-126885238D01*
X145490476Y-126790000D01*
X145585714Y-126742381D01*
X145680952Y-126742381D01*
X145871429Y-127075714D02*
X146252381Y-127075714D01*
X146014286Y-126742381D02*
X146014286Y-127599524D01*
X146061905Y-127694762D01*
X146157143Y-127742381D01*
X146252381Y-127742381D01*
X128258095Y-126242381D02*
X127686666Y-126242381D01*
X127972380Y-126242381D02*
X127972380Y-125242381D01*
X127877142Y-125385238D01*
X127781904Y-125480476D01*
X127686666Y-125528095D01*
X129115238Y-125242381D02*
X128924761Y-125242381D01*
X128829523Y-125290000D01*
X128781904Y-125337619D01*
X128686666Y-125480476D01*
X128639047Y-125670952D01*
X128639047Y-126051905D01*
X128686666Y-126147143D01*
X128734285Y-126194762D01*
X128829523Y-126242381D01*
X129020000Y-126242381D01*
X129115238Y-126194762D01*
X129162857Y-126147143D01*
X129210476Y-126051905D01*
X129210476Y-125813810D01*
X129162857Y-125718571D01*
X129115238Y-125670952D01*
X129020000Y-125623333D01*
X128829523Y-125623333D01*
X128734285Y-125670952D01*
X128686666Y-125718571D01*
X128639047Y-125813810D01*
X130162857Y-126242381D02*
X129591428Y-126242381D01*
X129877142Y-126242381D02*
X129877142Y-125242381D01*
X129781904Y-125385238D01*
X129686666Y-125480476D01*
X129591428Y-125528095D01*
X131115238Y-126242381D02*
X130543809Y-126242381D01*
X130829523Y-126242381D02*
X130829523Y-125242381D01*
X130734285Y-125385238D01*
X130639047Y-125480476D01*
X130543809Y-125528095D01*
X131496190Y-125337619D02*
X131543809Y-125290000D01*
X131639047Y-125242381D01*
X131877143Y-125242381D01*
X131972381Y-125290000D01*
X132020000Y-125337619D01*
X132067619Y-125432857D01*
X132067619Y-125528095D01*
X132020000Y-125670952D01*
X131448571Y-126242381D01*
X132067619Y-126242381D01*
X132924762Y-125575714D02*
X132924762Y-126242381D01*
X132686666Y-125194762D02*
X132448571Y-125909048D01*
X133067619Y-125909048D01*
X133210476Y-126337619D02*
X133972381Y-126337619D01*
X134734286Y-126242381D02*
X134162857Y-126242381D01*
X134448571Y-126242381D02*
X134448571Y-125242381D01*
X134353333Y-125385238D01*
X134258095Y-125480476D01*
X134162857Y-125528095D01*
X135639048Y-125242381D02*
X135162857Y-125242381D01*
X135115238Y-125718571D01*
X135162857Y-125670952D01*
X135258095Y-125623333D01*
X135496191Y-125623333D01*
X135591429Y-125670952D01*
X135639048Y-125718571D01*
X135686667Y-125813810D01*
X135686667Y-126051905D01*
X135639048Y-126147143D01*
X135591429Y-126194762D01*
X135496191Y-126242381D01*
X135258095Y-126242381D01*
X135162857Y-126194762D01*
X135115238Y-126147143D01*
X136639048Y-126242381D02*
X136067619Y-126242381D01*
X136353333Y-126242381D02*
X136353333Y-125242381D01*
X136258095Y-125385238D01*
X136162857Y-125480476D01*
X136067619Y-125528095D01*
X137258095Y-125242381D02*
X137353334Y-125242381D01*
X137448572Y-125290000D01*
X137496191Y-125337619D01*
X137543810Y-125432857D01*
X137591429Y-125623333D01*
X137591429Y-125861429D01*
X137543810Y-126051905D01*
X137496191Y-126147143D01*
X137448572Y-126194762D01*
X137353334Y-126242381D01*
X137258095Y-126242381D01*
X137162857Y-126194762D01*
X137115238Y-126147143D01*
X137067619Y-126051905D01*
X137020000Y-125861429D01*
X137020000Y-125623333D01*
X137067619Y-125432857D01*
X137115238Y-125337619D01*
X137162857Y-125290000D01*
X137258095Y-125242381D01*
X138020000Y-125861429D02*
X138781905Y-125861429D01*
X139162857Y-125575714D02*
X139353333Y-126242381D01*
X139543810Y-125766190D01*
X139734286Y-126242381D01*
X139924762Y-125575714D01*
X140305714Y-126242381D02*
X140305714Y-125575714D01*
X140305714Y-125766190D02*
X140353333Y-125670952D01*
X140400952Y-125623333D01*
X140496190Y-125575714D01*
X140591429Y-125575714D01*
X140877143Y-125337619D02*
X140924762Y-125290000D01*
X141020000Y-125242381D01*
X141258096Y-125242381D01*
X141353334Y-125290000D01*
X141400953Y-125337619D01*
X141448572Y-125432857D01*
X141448572Y-125528095D01*
X141400953Y-125670952D01*
X140829524Y-126242381D01*
X141448572Y-126242381D01*
X141877143Y-126242381D02*
X141877143Y-125575714D01*
X141877143Y-125670952D02*
X141924762Y-125623333D01*
X142020000Y-125575714D01*
X142162858Y-125575714D01*
X142258096Y-125623333D01*
X142305715Y-125718571D01*
X142305715Y-126242381D01*
X142305715Y-125718571D02*
X142353334Y-125623333D01*
X142448572Y-125575714D01*
X142591429Y-125575714D01*
X142686667Y-125623333D01*
X142734286Y-125718571D01*
X142734286Y-126242381D01*
X143639048Y-125575714D02*
X143639048Y-126242381D01*
X143210476Y-125575714D02*
X143210476Y-126099524D01*
X143258095Y-126194762D01*
X143353333Y-126242381D01*
X143496191Y-126242381D01*
X143591429Y-126194762D01*
X143639048Y-126147143D01*
X144258095Y-126242381D02*
X144162857Y-126194762D01*
X144115238Y-126099524D01*
X144115238Y-125242381D01*
X144639048Y-125861429D02*
X145400953Y-125861429D01*
X145877143Y-126242381D02*
X145877143Y-125242381D01*
X145877143Y-125623333D02*
X145972381Y-125575714D01*
X146162858Y-125575714D01*
X146258096Y-125623333D01*
X146305715Y-125670952D01*
X146353334Y-125766190D01*
X146353334Y-126051905D01*
X146305715Y-126147143D01*
X146258096Y-126194762D01*
X146162858Y-126242381D01*
X145972381Y-126242381D01*
X145877143Y-126194762D01*
D12*
X131945000Y-136945000D02*
X130945000Y-136945000D01*
X130945000Y-138645000D02*
X131945000Y-138645000D01*
X140075000Y-118065000D02*
X144575000Y-118065000D01*
X144575000Y-118065000D02*
X144575000Y-123965000D01*
X144575000Y-123965000D02*
X140075000Y-123965000D01*
X140075000Y-123965000D02*
X140075000Y-118065000D01*
X144575000Y-120515000D02*
X144075000Y-120515000D01*
X144075000Y-120515000D02*
X144075000Y-118565000D01*
X144075000Y-118565000D02*
X140575000Y-118565000D01*
X140575000Y-118565000D02*
X140575000Y-123465000D01*
X140575000Y-123465000D02*
X144075000Y-123465000D01*
X144075000Y-123465000D02*
X144075000Y-121515000D01*
X144075000Y-121515000D02*
X144575000Y-121515000D01*
X143375000Y-118065000D02*
X143375000Y-118565000D01*
X142075000Y-118065000D02*
X142075000Y-118565000D01*
X143375000Y-123465000D02*
X143375000Y-123965000D01*
X142075000Y-123465000D02*
X142075000Y-123965000D01*
X144575000Y-119715000D02*
X144775000Y-119715000D01*
X144775000Y-119715000D02*
X144775000Y-119415000D01*
X144775000Y-119415000D02*
X144575000Y-119415000D01*
X144675000Y-119715000D02*
X144675000Y-119415000D01*
X140575000Y-120915000D02*
X141075000Y-120915000D01*
X141075000Y-120915000D02*
X141075000Y-121115000D01*
X141075000Y-121115000D02*
X140575000Y-121115000D01*
X140575000Y-121015000D02*
X141075000Y-121015000D01*
X137140000Y-141530000D02*
X137640000Y-141530000D01*
X137640000Y-141530000D02*
X137640000Y-148030000D01*
X137640000Y-148030000D02*
X137140000Y-148030000D01*
X134640000Y-148030000D02*
X134140000Y-148030000D01*
X134140000Y-148030000D02*
X134140000Y-141530000D01*
X134140000Y-141530000D02*
X134640000Y-141530000D01*
X129520000Y-141530000D02*
X130020000Y-141530000D01*
X130020000Y-141530000D02*
X130020000Y-148030000D01*
X130020000Y-148030000D02*
X129520000Y-148030000D01*
X127020000Y-148030000D02*
X126520000Y-148030000D01*
X126520000Y-148030000D02*
X126520000Y-141530000D01*
X126520000Y-141530000D02*
X127020000Y-141530000D01*
X124465000Y-123360000D02*
X124490000Y-123360000D01*
X124465000Y-119210000D02*
X124570000Y-119210000D01*
X134615000Y-119210000D02*
X134510000Y-119210000D01*
X134615000Y-123360000D02*
X134510000Y-123360000D01*
X124465000Y-123360000D02*
X124465000Y-119210000D01*
X134615000Y-123360000D02*
X134615000Y-119210000D01*
X124490000Y-123360000D02*
X124490000Y-124735000D01*
D13*
X123825000Y-95885000D02*
X123825000Y-102070000D01*
X141808200Y-115470000D02*
X141808200Y-115849400D01*
X123825000Y-115470000D02*
X123825000Y-115849400D01*
X141808200Y-95885000D02*
X141808200Y-102070000D01*
X123825000Y-115887500D02*
X141808200Y-115887500D01*
X141795500Y-95885000D02*
X123825000Y-95885000D01*
D12*
X136144000Y-131191000D02*
G75*
G03X136144000Y-126619000I0J2286000D01*
G01*
X130556000Y-126619000D02*
G75*
G03X130556000Y-131191000I0J-2286000D01*
G01*
X130556000Y-131191000D02*
X136144000Y-131191000D01*
X130556000Y-126619000D02*
X136144000Y-126619000D01*
X127595000Y-138670000D02*
X127595000Y-137670000D01*
X128945000Y-137670000D02*
X128945000Y-138670000D01*
X135215000Y-138670000D02*
X135215000Y-137670000D01*
X136565000Y-137670000D02*
X136565000Y-138670000D01*
X144825000Y-134500000D02*
X144825000Y-133500000D01*
X146175000Y-133500000D02*
X146175000Y-134500000D01*
X134660000Y-137295000D02*
X134660000Y-138295000D01*
X133310000Y-138295000D02*
X133310000Y-137295000D01*
X120780000Y-105315000D02*
X121780000Y-105315000D01*
X121780000Y-106665000D02*
X120780000Y-106665000D01*
X121800000Y-105065000D02*
X120800000Y-105065000D01*
X120800000Y-103715000D02*
X121800000Y-103715000D01*
X125135000Y-143010000D02*
X125135000Y-144010000D01*
X123785000Y-144010000D02*
X123785000Y-143010000D01*
X123230000Y-143010000D02*
X123230000Y-144010000D01*
X121880000Y-144010000D02*
X121880000Y-143010000D01*
X147856667Y-99902381D02*
X147523333Y-99426190D01*
X147285238Y-99902381D02*
X147285238Y-98902381D01*
X147666191Y-98902381D01*
X147761429Y-98950000D01*
X147809048Y-98997619D01*
X147856667Y-99092857D01*
X147856667Y-99235714D01*
X147809048Y-99330952D01*
X147761429Y-99378571D01*
X147666191Y-99426190D01*
X147285238Y-99426190D01*
X148285238Y-99378571D02*
X148618572Y-99378571D01*
X148761429Y-99902381D02*
X148285238Y-99902381D01*
X148285238Y-98902381D01*
X148761429Y-98902381D01*
X149523334Y-99378571D02*
X149190000Y-99378571D01*
X149190000Y-99902381D02*
X149190000Y-98902381D01*
X149666191Y-98902381D01*
X150190000Y-98902381D02*
X150190000Y-99140476D01*
X149951905Y-99045238D02*
X150190000Y-99140476D01*
X150428096Y-99045238D01*
X150047143Y-99330952D02*
X150190000Y-99140476D01*
X150332858Y-99330952D01*
X150951905Y-98902381D02*
X150951905Y-99140476D01*
X150713810Y-99045238D02*
X150951905Y-99140476D01*
X151190001Y-99045238D01*
X150809048Y-99330952D02*
X150951905Y-99140476D01*
X151094763Y-99330952D01*
X131203334Y-139877143D02*
X131155715Y-139924762D01*
X131012858Y-139972381D01*
X130917620Y-139972381D01*
X130774762Y-139924762D01*
X130679524Y-139829524D01*
X130631905Y-139734286D01*
X130584286Y-139543810D01*
X130584286Y-139400952D01*
X130631905Y-139210476D01*
X130679524Y-139115238D01*
X130774762Y-139020000D01*
X130917620Y-138972381D01*
X131012858Y-138972381D01*
X131155715Y-139020000D01*
X131203334Y-139067619D01*
X131536667Y-138972381D02*
X132155715Y-138972381D01*
X131822381Y-139353333D01*
X131965239Y-139353333D01*
X132060477Y-139400952D01*
X132108096Y-139448571D01*
X132155715Y-139543810D01*
X132155715Y-139781905D01*
X132108096Y-139877143D01*
X132060477Y-139924762D01*
X131965239Y-139972381D01*
X131679524Y-139972381D01*
X131584286Y-139924762D01*
X131536667Y-139877143D01*
X144041905Y-150802381D02*
X144041905Y-149802381D01*
X144422858Y-149802381D01*
X144518096Y-149850000D01*
X144565715Y-149897619D01*
X144613334Y-149992857D01*
X144613334Y-150135714D01*
X144565715Y-150230952D01*
X144518096Y-150278571D01*
X144422858Y-150326190D01*
X144041905Y-150326190D01*
X144994286Y-149897619D02*
X145041905Y-149850000D01*
X145137143Y-149802381D01*
X145375239Y-149802381D01*
X145470477Y-149850000D01*
X145518096Y-149897619D01*
X145565715Y-149992857D01*
X145565715Y-150088095D01*
X145518096Y-150230952D01*
X144946667Y-150802381D01*
X145565715Y-150802381D01*
X143601905Y-117412381D02*
X143601905Y-116412381D01*
X143982858Y-116412381D01*
X144078096Y-116460000D01*
X144125715Y-116507619D01*
X144173334Y-116602857D01*
X144173334Y-116745714D01*
X144125715Y-116840952D01*
X144078096Y-116888571D01*
X143982858Y-116936190D01*
X143601905Y-116936190D01*
X145030477Y-116745714D02*
X145030477Y-117412381D01*
X144792381Y-116364762D02*
X144554286Y-117079048D01*
X145173334Y-117079048D01*
X136534762Y-146003333D02*
X136582381Y-145860476D01*
X136582381Y-145622380D01*
X136534762Y-145527142D01*
X136487143Y-145479523D01*
X136391905Y-145431904D01*
X136296667Y-145431904D01*
X136201429Y-145479523D01*
X136153810Y-145527142D01*
X136106190Y-145622380D01*
X136058571Y-145812857D01*
X136010952Y-145908095D01*
X135963333Y-145955714D01*
X135868095Y-146003333D01*
X135772857Y-146003333D01*
X135677619Y-145955714D01*
X135630000Y-145908095D01*
X135582381Y-145812857D01*
X135582381Y-145574761D01*
X135630000Y-145431904D01*
X135582381Y-145098571D02*
X136582381Y-144860476D01*
X135868095Y-144669999D01*
X136582381Y-144479523D01*
X135582381Y-144241428D01*
X136582381Y-143336666D02*
X136582381Y-143908095D01*
X136582381Y-143622381D02*
X135582381Y-143622381D01*
X135725238Y-143717619D01*
X135820476Y-143812857D01*
X135868095Y-143908095D01*
X128724762Y-146033333D02*
X128772381Y-145890476D01*
X128772381Y-145652380D01*
X128724762Y-145557142D01*
X128677143Y-145509523D01*
X128581905Y-145461904D01*
X128486667Y-145461904D01*
X128391429Y-145509523D01*
X128343810Y-145557142D01*
X128296190Y-145652380D01*
X128248571Y-145842857D01*
X128200952Y-145938095D01*
X128153333Y-145985714D01*
X128058095Y-146033333D01*
X127962857Y-146033333D01*
X127867619Y-145985714D01*
X127820000Y-145938095D01*
X127772381Y-145842857D01*
X127772381Y-145604761D01*
X127820000Y-145461904D01*
X127772381Y-145128571D02*
X128772381Y-144890476D01*
X128058095Y-144699999D01*
X128772381Y-144509523D01*
X127772381Y-144271428D01*
X127867619Y-143938095D02*
X127820000Y-143890476D01*
X127772381Y-143795238D01*
X127772381Y-143557142D01*
X127820000Y-143461904D01*
X127867619Y-143414285D01*
X127962857Y-143366666D01*
X128058095Y-143366666D01*
X128200952Y-143414285D01*
X128772381Y-143985714D01*
X128772381Y-143366666D01*
X122992381Y-122046905D02*
X123801905Y-122046905D01*
X123897143Y-121999286D01*
X123944762Y-121951667D01*
X123992381Y-121856429D01*
X123992381Y-121665952D01*
X123944762Y-121570714D01*
X123897143Y-121523095D01*
X123801905Y-121475476D01*
X122992381Y-121475476D01*
X123992381Y-120475476D02*
X123992381Y-121046905D01*
X123992381Y-120761191D02*
X122992381Y-120761191D01*
X123135238Y-120856429D01*
X123230476Y-120951667D01*
X123278095Y-121046905D01*
X132218095Y-116112381D02*
X132218095Y-116921905D01*
X132265714Y-117017143D01*
X132313333Y-117064762D01*
X132408571Y-117112381D01*
X132599048Y-117112381D01*
X132694286Y-117064762D01*
X132741905Y-117017143D01*
X132789524Y-116921905D01*
X132789524Y-116112381D01*
X133170476Y-116112381D02*
X133789524Y-116112381D01*
X133456190Y-116493333D01*
X133599048Y-116493333D01*
X133694286Y-116540952D01*
X133741905Y-116588571D01*
X133789524Y-116683810D01*
X133789524Y-116921905D01*
X133741905Y-117017143D01*
X133694286Y-117064762D01*
X133599048Y-117112381D01*
X133313333Y-117112381D01*
X133218095Y-117064762D01*
X133170476Y-117017143D01*
X127123809Y-131006190D02*
X127123809Y-131482381D01*
X126790476Y-130482381D02*
X127123809Y-131006190D01*
X127457143Y-130482381D01*
X128314286Y-131482381D02*
X127742857Y-131482381D01*
X128028571Y-131482381D02*
X128028571Y-130482381D01*
X127933333Y-130625238D01*
X127838095Y-130720476D01*
X127742857Y-130768095D01*
X118566667Y-153732381D02*
X118233333Y-153256190D01*
X117995238Y-153732381D02*
X117995238Y-152732381D01*
X118376191Y-152732381D01*
X118471429Y-152780000D01*
X118519048Y-152827619D01*
X118566667Y-152922857D01*
X118566667Y-153065714D01*
X118519048Y-153160952D01*
X118471429Y-153208571D01*
X118376191Y-153256190D01*
X117995238Y-153256190D01*
X118995238Y-153208571D02*
X119328572Y-153208571D01*
X119471429Y-153732381D02*
X118995238Y-153732381D01*
X118995238Y-152732381D01*
X119471429Y-152732381D01*
X120233334Y-153208571D02*
X119900000Y-153208571D01*
X119900000Y-153732381D02*
X119900000Y-152732381D01*
X120376191Y-152732381D01*
X120900000Y-152732381D02*
X120900000Y-152970476D01*
X120661905Y-152875238D02*
X120900000Y-152970476D01*
X121138096Y-152875238D01*
X120757143Y-153160952D02*
X120900000Y-152970476D01*
X121042858Y-153160952D01*
X121661905Y-152732381D02*
X121661905Y-152970476D01*
X121423810Y-152875238D02*
X121661905Y-152970476D01*
X121900001Y-152875238D01*
X121519048Y-153160952D02*
X121661905Y-152970476D01*
X121804763Y-153160952D01*
X128722381Y-136126666D02*
X128246190Y-136460000D01*
X128722381Y-136698095D02*
X127722381Y-136698095D01*
X127722381Y-136317142D01*
X127770000Y-136221904D01*
X127817619Y-136174285D01*
X127912857Y-136126666D01*
X128055714Y-136126666D01*
X128150952Y-136174285D01*
X128198571Y-136221904D01*
X128246190Y-136317142D01*
X128246190Y-136698095D01*
X128722381Y-135650476D02*
X128722381Y-135460000D01*
X128674762Y-135364761D01*
X128627143Y-135317142D01*
X128484286Y-135221904D01*
X128293810Y-135174285D01*
X127912857Y-135174285D01*
X127817619Y-135221904D01*
X127770000Y-135269523D01*
X127722381Y-135364761D01*
X127722381Y-135555238D01*
X127770000Y-135650476D01*
X127817619Y-135698095D01*
X127912857Y-135745714D01*
X128150952Y-135745714D01*
X128246190Y-135698095D01*
X128293810Y-135650476D01*
X128341429Y-135555238D01*
X128341429Y-135364761D01*
X128293810Y-135269523D01*
X128246190Y-135221904D01*
X128150952Y-135174285D01*
X136352381Y-136096666D02*
X135876190Y-136430000D01*
X136352381Y-136668095D02*
X135352381Y-136668095D01*
X135352381Y-136287142D01*
X135400000Y-136191904D01*
X135447619Y-136144285D01*
X135542857Y-136096666D01*
X135685714Y-136096666D01*
X135780952Y-136144285D01*
X135828571Y-136191904D01*
X135876190Y-136287142D01*
X135876190Y-136668095D01*
X135352381Y-135763333D02*
X135352381Y-135096666D01*
X136352381Y-135525238D01*
X146022381Y-136566666D02*
X145546190Y-136900000D01*
X146022381Y-137138095D02*
X145022381Y-137138095D01*
X145022381Y-136757142D01*
X145070000Y-136661904D01*
X145117619Y-136614285D01*
X145212857Y-136566666D01*
X145355714Y-136566666D01*
X145450952Y-136614285D01*
X145498571Y-136661904D01*
X145546190Y-136757142D01*
X145546190Y-137138095D01*
X145022381Y-135709523D02*
X145022381Y-135900000D01*
X145070000Y-135995238D01*
X145117619Y-136042857D01*
X145260476Y-136138095D01*
X145450952Y-136185714D01*
X145831905Y-136185714D01*
X145927143Y-136138095D01*
X145974762Y-136090476D01*
X146022381Y-135995238D01*
X146022381Y-135804761D01*
X145974762Y-135709523D01*
X145927143Y-135661904D01*
X145831905Y-135614285D01*
X145593810Y-135614285D01*
X145498571Y-135661904D01*
X145450952Y-135709523D01*
X145403333Y-135804761D01*
X145403333Y-135995238D01*
X145450952Y-136090476D01*
X145498571Y-136138095D01*
X145593810Y-136185714D01*
X134392381Y-135676666D02*
X133916190Y-136010000D01*
X134392381Y-136248095D02*
X133392381Y-136248095D01*
X133392381Y-135867142D01*
X133440000Y-135771904D01*
X133487619Y-135724285D01*
X133582857Y-135676666D01*
X133725714Y-135676666D01*
X133820952Y-135724285D01*
X133868571Y-135771904D01*
X133916190Y-135867142D01*
X133916190Y-136248095D01*
X133392381Y-134771904D02*
X133392381Y-135248095D01*
X133868571Y-135295714D01*
X133820952Y-135248095D01*
X133773333Y-135152857D01*
X133773333Y-134914761D01*
X133820952Y-134819523D01*
X133868571Y-134771904D01*
X133963810Y-134724285D01*
X134201905Y-134724285D01*
X134297143Y-134771904D01*
X134344762Y-134819523D01*
X134392381Y-134914761D01*
X134392381Y-135152857D01*
X134344762Y-135248095D01*
X134297143Y-135295714D01*
X118703334Y-106612381D02*
X118370000Y-106136190D01*
X118131905Y-106612381D02*
X118131905Y-105612381D01*
X118512858Y-105612381D01*
X118608096Y-105660000D01*
X118655715Y-105707619D01*
X118703334Y-105802857D01*
X118703334Y-105945714D01*
X118655715Y-106040952D01*
X118608096Y-106088571D01*
X118512858Y-106136190D01*
X118131905Y-106136190D01*
X119560477Y-105945714D02*
X119560477Y-106612381D01*
X119322381Y-105564762D02*
X119084286Y-106279048D01*
X119703334Y-106279048D01*
X118728334Y-104837381D02*
X118395000Y-104361190D01*
X118156905Y-104837381D02*
X118156905Y-103837381D01*
X118537858Y-103837381D01*
X118633096Y-103885000D01*
X118680715Y-103932619D01*
X118728334Y-104027857D01*
X118728334Y-104170714D01*
X118680715Y-104265952D01*
X118633096Y-104313571D01*
X118537858Y-104361190D01*
X118156905Y-104361190D01*
X119061667Y-103837381D02*
X119680715Y-103837381D01*
X119347381Y-104218333D01*
X119490239Y-104218333D01*
X119585477Y-104265952D01*
X119633096Y-104313571D01*
X119680715Y-104408810D01*
X119680715Y-104646905D01*
X119633096Y-104742143D01*
X119585477Y-104789762D01*
X119490239Y-104837381D01*
X119204524Y-104837381D01*
X119109286Y-104789762D01*
X119061667Y-104742143D01*
X124932381Y-141506666D02*
X124456190Y-141840000D01*
X124932381Y-142078095D02*
X123932381Y-142078095D01*
X123932381Y-141697142D01*
X123980000Y-141601904D01*
X124027619Y-141554285D01*
X124122857Y-141506666D01*
X124265714Y-141506666D01*
X124360952Y-141554285D01*
X124408571Y-141601904D01*
X124456190Y-141697142D01*
X124456190Y-142078095D01*
X124027619Y-141125714D02*
X123980000Y-141078095D01*
X123932381Y-140982857D01*
X123932381Y-140744761D01*
X123980000Y-140649523D01*
X124027619Y-140601904D01*
X124122857Y-140554285D01*
X124218095Y-140554285D01*
X124360952Y-140601904D01*
X124932381Y-141173333D01*
X124932381Y-140554285D01*
X123032381Y-141516666D02*
X122556190Y-141850000D01*
X123032381Y-142088095D02*
X122032381Y-142088095D01*
X122032381Y-141707142D01*
X122080000Y-141611904D01*
X122127619Y-141564285D01*
X122222857Y-141516666D01*
X122365714Y-141516666D01*
X122460952Y-141564285D01*
X122508571Y-141611904D01*
X122556190Y-141707142D01*
X122556190Y-142088095D01*
X123032381Y-140564285D02*
X123032381Y-141135714D01*
X123032381Y-140850000D02*
X122032381Y-140850000D01*
X122175238Y-140945238D01*
X122270476Y-141040476D01*
X122318095Y-141135714D01*
M02*
