G04 #@! TF.FileFunction,Soldermask,Bot*
%FSLAX46Y46*%
G04 Gerber Fmt 4.6, Leading zero omitted, Abs format (unit mm)*
G04 Created by KiCad (PCBNEW 4.0.4+e1-6308~48~ubuntu16.04.1-stable) date Thu Nov 24 17:46:36 2016*
%MOMM*%
%LPD*%
G01*
G04 APERTURE LIST*
%ADD10C,0.100000*%
%ADD11C,3.200000*%
%ADD12R,0.750000X0.800000*%
%ADD13R,1.950720X1.501140*%
%ADD14R,1.000000X1.250000*%
%ADD15R,1.501140X1.950720*%
%ADD16R,0.700000X1.200000*%
%ADD17R,1.000000X2.800000*%
%ADD18R,1.300000X1.900000*%
%ADD19R,1.100000X1.200000*%
%ADD20R,1.000000X1.200000*%
%ADD21R,2.500000X2.000000*%
%ADD22R,2.000000X2.500000*%
%ADD23R,2.032000X1.727200*%
%ADD24O,2.032000X1.727200*%
%ADD25C,1.800000*%
%ADD26C,1.200000*%
%ADD27R,1.700000X1.200000*%
%ADD28O,1.700000X1.200000*%
%ADD29R,3.657600X2.032000*%
%ADD30R,1.016000X2.032000*%
%ADD31C,1.422400*%
G04 APERTURE END LIST*
D10*
D11*
X149245000Y-103759000D03*
D12*
X130820000Y-130480000D03*
X130820000Y-131980000D03*
X135900000Y-130520000D03*
X135900000Y-132020000D03*
D13*
X125574140Y-124600000D03*
X122825860Y-124600000D03*
D14*
X134750000Y-113230000D03*
X136750000Y-113230000D03*
X125200000Y-128100000D03*
X123200000Y-128100000D03*
D15*
X130400000Y-110725860D03*
X130400000Y-113474140D03*
X130400000Y-108374140D03*
X130400000Y-105625860D03*
D16*
X135310000Y-135130000D03*
D17*
X138310000Y-149430000D03*
D18*
X124810000Y-149880000D03*
D16*
X136410000Y-135130000D03*
X134210000Y-135130000D03*
X133110000Y-135130000D03*
X132010000Y-135130000D03*
X130910000Y-135130000D03*
X129810000Y-135130000D03*
X128710000Y-135130000D03*
D19*
X127160000Y-135130000D03*
D16*
X137360000Y-135130000D03*
D20*
X138410000Y-140030000D03*
D21*
X141610000Y-112830000D03*
X141610000Y-109430000D03*
X143500000Y-142660000D03*
X143500000Y-139260000D03*
D22*
X123380000Y-110490000D03*
X126780000Y-110490000D03*
D23*
X119380000Y-108585000D03*
D24*
X119380000Y-111125000D03*
X119380000Y-113665000D03*
X119380000Y-116205000D03*
X119380000Y-118745000D03*
X119380000Y-121285000D03*
X119380000Y-123825000D03*
X119380000Y-126365000D03*
X119380000Y-128905000D03*
X119380000Y-131445000D03*
X119380000Y-133985000D03*
X119380000Y-136525000D03*
X119380000Y-139065000D03*
X119380000Y-141605000D03*
X119380000Y-144145000D03*
D25*
X148405000Y-148460000D03*
D26*
X147205000Y-145210000D03*
X142355000Y-145210000D03*
D25*
X141155000Y-148460000D03*
D23*
X149880000Y-108585000D03*
D24*
X149880000Y-111125000D03*
X149880000Y-113665000D03*
X149880000Y-116205000D03*
X149880000Y-118745000D03*
X149880000Y-121285000D03*
X149880000Y-123825000D03*
X149880000Y-126365000D03*
X149880000Y-128905000D03*
X149880000Y-131445000D03*
X149880000Y-133985000D03*
X149880000Y-136525000D03*
X149880000Y-139065000D03*
X149880000Y-141605000D03*
X149880000Y-144145000D03*
D27*
X142875000Y-120015000D03*
D28*
X142875000Y-122015000D03*
D29*
X134620000Y-104013000D03*
D30*
X134620000Y-110617000D03*
X132334000Y-110617000D03*
X136906000Y-110617000D03*
D31*
X130810000Y-128905000D03*
X135890000Y-128905000D03*
D11*
X120015000Y-148844000D03*
M02*
