M48
;DRILL file {KiCad 4.0.4+e1-6308~48~ubuntu16.04.1-stable} date Thu Nov 24 17:46:47 2016
;FORMAT={-:-/ absolute / metric / decimal}
FMAT,2
METRIC,TZ
T1C0.400
T2C0.700
T3C0.762
T4C0.800
T5C1.016
T6C1.200
%
G90
G05
M71
T1
X119.71Y-105.96
X121.65Y-114.58
X122.1Y-112.4
X122.18Y-110.54
X123.44Y-116.81
X123.51Y-122.28
X123.825Y-144.78
X123.86Y-115.79
X124.57Y-121.55
X124.7Y-126.1
X124.8Y-116.33
X125.1Y-104.8
X125.2Y-129.
X125.66Y-122.4
X125.69Y-117.2
X125.8Y-125.6
X126.16Y-115.6
X126.35Y-107.18
X126.61Y-120.18
X126.63Y-125.9
X127.06Y-116.31
X127.17Y-107.27
X127.54Y-125.96
X128.19Y-115.39
X128.24Y-108.06
X128.27Y-147.32
X128.36Y-125.96
X128.53Y-106.51
X128.83Y-108.96
X128.85Y-109.99
X129.Y-136.62
X129.27Y-133.99
X129.63Y-120.08
X130.Y-139.79
X130.5Y-136.45
X131.445Y-136.525
X132.27Y-117.1
X132.43Y-115.76
X132.79Y-136.57
X132.8Y-112.4
X133.1Y-134.
X133.27Y-116.11
X134.Y-112.8
X134.1Y-139.74
X135.255Y-135.89
X135.3Y-134.2
X135.89Y-136.75
X135.89Y-147.32
X135.98Y-115.11
X136.29Y-118.64
X136.3Y-119.6
X136.5Y-123.
X136.68Y-105.74
X136.9Y-137.4
X137.55Y-106.01
X137.63Y-121.2
X137.65Y-118.03
X137.74Y-115.11
X138.28Y-121.7
X138.6Y-127.7
X138.6Y-129.9
X138.6Y-130.8
X138.6Y-131.7
X138.6Y-132.6
X138.67Y-137.24
X138.94Y-108.56
X139.37Y-110.64
X140.37Y-109.43
X140.39Y-103.25
X140.98Y-129.76
X140.98Y-136.41
X140.98Y-137.22
X141.14Y-131.55
X141.3Y-128.3
X141.7Y-142.4
X141.87Y-135.45
X141.89Y-137.73
X141.93Y-130.72
X141.98Y-129.71
X142.1Y-127.7
X142.28Y-131.55
X142.7Y-135.5
X142.75Y-137.69
X142.81Y-127.16
X142.9Y-115.9
X142.9Y-125.99
X143.3Y-131.
X143.37Y-143.56
X143.4Y-134.2
X143.5Y-109.
X144.41Y-114.36
X144.82Y-107.23
X144.89Y-128.78
X144.91Y-135.51
X145.43Y-110.2
X145.72Y-146.88
X146.75Y-117.45
T2
X142.875Y-120.015
X142.875Y-122.015
T3
X130.81Y-128.905
X135.89Y-128.905
T4
X142.355Y-145.21
X147.205Y-145.21
T5
X119.38Y-108.585
X119.38Y-111.125
X119.38Y-113.665
X119.38Y-116.205
X119.38Y-118.745
X119.38Y-121.285
X119.38Y-123.825
X119.38Y-126.365
X119.38Y-128.905
X119.38Y-131.445
X119.38Y-133.985
X119.38Y-136.525
X119.38Y-139.065
X119.38Y-141.605
X119.38Y-144.145
X149.88Y-108.585
X149.88Y-111.125
X149.88Y-113.665
X149.88Y-116.205
X149.88Y-118.745
X149.88Y-121.285
X149.88Y-123.825
X149.88Y-126.365
X149.88Y-128.905
X149.88Y-131.445
X149.88Y-133.985
X149.88Y-136.525
X149.88Y-139.065
X149.88Y-141.605
X149.88Y-144.145
T6
X141.155Y-148.46
X148.405Y-148.46
T0
M30
