G04 #@! TF.FileFunction,Legend,Top*
%FSLAX46Y46*%
G04 Gerber Fmt 4.6, Leading zero omitted, Abs format (unit mm)*
G04 Created by KiCad (PCBNEW 4.0.4+e1-6308~48~ubuntu16.04.1-stable) date Wed Nov  2 15:53:33 2016*
%MOMM*%
%LPD*%
G01*
G04 APERTURE LIST*
%ADD10C,0.100000*%
%ADD11C,0.200000*%
%ADD12C,0.150000*%
%ADD13C,0.152400*%
G04 APERTURE END LIST*
D10*
D11*
X131322381Y-145938095D02*
X130846190Y-146271429D01*
X131322381Y-146509524D02*
X130322381Y-146509524D01*
X130322381Y-146128571D01*
X130370000Y-146033333D01*
X130417619Y-145985714D01*
X130512857Y-145938095D01*
X130655714Y-145938095D01*
X130750952Y-145985714D01*
X130798571Y-146033333D01*
X130846190Y-146128571D01*
X130846190Y-146509524D01*
X131274762Y-145128571D02*
X131322381Y-145223809D01*
X131322381Y-145414286D01*
X131274762Y-145509524D01*
X131179524Y-145557143D01*
X130798571Y-145557143D01*
X130703333Y-145509524D01*
X130655714Y-145414286D01*
X130655714Y-145223809D01*
X130703333Y-145128571D01*
X130798571Y-145080952D01*
X130893810Y-145080952D01*
X130989048Y-145557143D01*
X131274762Y-144700000D02*
X131322381Y-144604762D01*
X131322381Y-144414286D01*
X131274762Y-144319047D01*
X131179524Y-144271428D01*
X131131905Y-144271428D01*
X131036667Y-144319047D01*
X130989048Y-144414286D01*
X130989048Y-144557143D01*
X130941429Y-144652381D01*
X130846190Y-144700000D01*
X130798571Y-144700000D01*
X130703333Y-144652381D01*
X130655714Y-144557143D01*
X130655714Y-144414286D01*
X130703333Y-144319047D01*
X131274762Y-143461904D02*
X131322381Y-143557142D01*
X131322381Y-143747619D01*
X131274762Y-143842857D01*
X131179524Y-143890476D01*
X130798571Y-143890476D01*
X130703333Y-143842857D01*
X130655714Y-143747619D01*
X130655714Y-143557142D01*
X130703333Y-143461904D01*
X130798571Y-143414285D01*
X130893810Y-143414285D01*
X130989048Y-143890476D01*
X130655714Y-143128571D02*
X130655714Y-142747619D01*
X130322381Y-142985714D02*
X131179524Y-142985714D01*
X131274762Y-142938095D01*
X131322381Y-142842857D01*
X131322381Y-142747619D01*
X138418571Y-145978571D02*
X138418571Y-146311905D01*
X138942381Y-146311905D02*
X137942381Y-146311905D01*
X137942381Y-145835714D01*
X138942381Y-145311905D02*
X138894762Y-145407143D01*
X138799524Y-145454762D01*
X137942381Y-145454762D01*
X138942381Y-144502380D02*
X138418571Y-144502380D01*
X138323333Y-144549999D01*
X138275714Y-144645237D01*
X138275714Y-144835714D01*
X138323333Y-144930952D01*
X138894762Y-144502380D02*
X138942381Y-144597618D01*
X138942381Y-144835714D01*
X138894762Y-144930952D01*
X138799524Y-144978571D01*
X138704286Y-144978571D01*
X138609048Y-144930952D01*
X138561429Y-144835714D01*
X138561429Y-144597618D01*
X138513810Y-144502380D01*
X138894762Y-144073809D02*
X138942381Y-143978571D01*
X138942381Y-143788095D01*
X138894762Y-143692856D01*
X138799524Y-143645237D01*
X138751905Y-143645237D01*
X138656667Y-143692856D01*
X138609048Y-143788095D01*
X138609048Y-143930952D01*
X138561429Y-144026190D01*
X138466190Y-144073809D01*
X138418571Y-144073809D01*
X138323333Y-144026190D01*
X138275714Y-143930952D01*
X138275714Y-143788095D01*
X138323333Y-143692856D01*
X138942381Y-143216666D02*
X137942381Y-143216666D01*
X138942381Y-142788094D02*
X138418571Y-142788094D01*
X138323333Y-142835713D01*
X138275714Y-142930951D01*
X138275714Y-143073809D01*
X138323333Y-143169047D01*
X138370952Y-143216666D01*
X138490475Y-127742381D02*
X138490475Y-126742381D01*
X138823809Y-127456667D01*
X139157142Y-126742381D01*
X139157142Y-127742381D01*
X140061904Y-127742381D02*
X140061904Y-127218571D01*
X140014285Y-127123333D01*
X139919047Y-127075714D01*
X139728570Y-127075714D01*
X139633332Y-127123333D01*
X140061904Y-127694762D02*
X139966666Y-127742381D01*
X139728570Y-127742381D01*
X139633332Y-127694762D01*
X139585713Y-127599524D01*
X139585713Y-127504286D01*
X139633332Y-127409048D01*
X139728570Y-127361429D01*
X139966666Y-127361429D01*
X140061904Y-127313810D01*
X140442856Y-127075714D02*
X140966666Y-127075714D01*
X140442856Y-127742381D01*
X140966666Y-127742381D01*
X141252380Y-127075714D02*
X141776190Y-127075714D01*
X141252380Y-127742381D01*
X141776190Y-127742381D01*
X142585714Y-127742381D02*
X142585714Y-127218571D01*
X142538095Y-127123333D01*
X142442857Y-127075714D01*
X142252380Y-127075714D01*
X142157142Y-127123333D01*
X142585714Y-127694762D02*
X142490476Y-127742381D01*
X142252380Y-127742381D01*
X142157142Y-127694762D01*
X142109523Y-127599524D01*
X142109523Y-127504286D01*
X142157142Y-127409048D01*
X142252380Y-127361429D01*
X142490476Y-127361429D01*
X142585714Y-127313810D01*
X143490476Y-127694762D02*
X143395238Y-127742381D01*
X143204761Y-127742381D01*
X143109523Y-127694762D01*
X143061904Y-127647143D01*
X143014285Y-127551905D01*
X143014285Y-127266190D01*
X143061904Y-127170952D01*
X143109523Y-127123333D01*
X143204761Y-127075714D01*
X143395238Y-127075714D01*
X143490476Y-127123333D01*
X143919047Y-127742381D02*
X143919047Y-127075714D01*
X143919047Y-127266190D02*
X143966666Y-127170952D01*
X144014285Y-127123333D01*
X144109523Y-127075714D01*
X144204762Y-127075714D01*
X144966667Y-127742381D02*
X144966667Y-127218571D01*
X144919048Y-127123333D01*
X144823810Y-127075714D01*
X144633333Y-127075714D01*
X144538095Y-127123333D01*
X144966667Y-127694762D02*
X144871429Y-127742381D01*
X144633333Y-127742381D01*
X144538095Y-127694762D01*
X144490476Y-127599524D01*
X144490476Y-127504286D01*
X144538095Y-127409048D01*
X144633333Y-127361429D01*
X144871429Y-127361429D01*
X144966667Y-127313810D01*
X145300000Y-127075714D02*
X145680952Y-127075714D01*
X145442857Y-127742381D02*
X145442857Y-126885238D01*
X145490476Y-126790000D01*
X145585714Y-126742381D01*
X145680952Y-126742381D01*
X145871429Y-127075714D02*
X146252381Y-127075714D01*
X146014286Y-126742381D02*
X146014286Y-127599524D01*
X146061905Y-127694762D01*
X146157143Y-127742381D01*
X146252381Y-127742381D01*
X128258095Y-126242381D02*
X127686666Y-126242381D01*
X127972380Y-126242381D02*
X127972380Y-125242381D01*
X127877142Y-125385238D01*
X127781904Y-125480476D01*
X127686666Y-125528095D01*
X129115238Y-125242381D02*
X128924761Y-125242381D01*
X128829523Y-125290000D01*
X128781904Y-125337619D01*
X128686666Y-125480476D01*
X128639047Y-125670952D01*
X128639047Y-126051905D01*
X128686666Y-126147143D01*
X128734285Y-126194762D01*
X128829523Y-126242381D01*
X129020000Y-126242381D01*
X129115238Y-126194762D01*
X129162857Y-126147143D01*
X129210476Y-126051905D01*
X129210476Y-125813810D01*
X129162857Y-125718571D01*
X129115238Y-125670952D01*
X129020000Y-125623333D01*
X128829523Y-125623333D01*
X128734285Y-125670952D01*
X128686666Y-125718571D01*
X128639047Y-125813810D01*
X130162857Y-126242381D02*
X129591428Y-126242381D01*
X129877142Y-126242381D02*
X129877142Y-125242381D01*
X129781904Y-125385238D01*
X129686666Y-125480476D01*
X129591428Y-125528095D01*
X130781904Y-125242381D02*
X130877143Y-125242381D01*
X130972381Y-125290000D01*
X131020000Y-125337619D01*
X131067619Y-125432857D01*
X131115238Y-125623333D01*
X131115238Y-125861429D01*
X131067619Y-126051905D01*
X131020000Y-126147143D01*
X130972381Y-126194762D01*
X130877143Y-126242381D01*
X130781904Y-126242381D01*
X130686666Y-126194762D01*
X130639047Y-126147143D01*
X130591428Y-126051905D01*
X130543809Y-125861429D01*
X130543809Y-125623333D01*
X130591428Y-125432857D01*
X130639047Y-125337619D01*
X130686666Y-125290000D01*
X130781904Y-125242381D01*
X131496190Y-125337619D02*
X131543809Y-125290000D01*
X131639047Y-125242381D01*
X131877143Y-125242381D01*
X131972381Y-125290000D01*
X132020000Y-125337619D01*
X132067619Y-125432857D01*
X132067619Y-125528095D01*
X132020000Y-125670952D01*
X131448571Y-126242381D01*
X132067619Y-126242381D01*
X132400952Y-125242381D02*
X133067619Y-125242381D01*
X132639047Y-126242381D01*
X133210476Y-126337619D02*
X133972381Y-126337619D01*
X134400952Y-125242381D02*
X134496191Y-125242381D01*
X134591429Y-125290000D01*
X134639048Y-125337619D01*
X134686667Y-125432857D01*
X134734286Y-125623333D01*
X134734286Y-125861429D01*
X134686667Y-126051905D01*
X134639048Y-126147143D01*
X134591429Y-126194762D01*
X134496191Y-126242381D01*
X134400952Y-126242381D01*
X134305714Y-126194762D01*
X134258095Y-126147143D01*
X134210476Y-126051905D01*
X134162857Y-125861429D01*
X134162857Y-125623333D01*
X134210476Y-125432857D01*
X134258095Y-125337619D01*
X134305714Y-125290000D01*
X134400952Y-125242381D01*
X135210476Y-126242381D02*
X135400952Y-126242381D01*
X135496191Y-126194762D01*
X135543810Y-126147143D01*
X135639048Y-126004286D01*
X135686667Y-125813810D01*
X135686667Y-125432857D01*
X135639048Y-125337619D01*
X135591429Y-125290000D01*
X135496191Y-125242381D01*
X135305714Y-125242381D01*
X135210476Y-125290000D01*
X135162857Y-125337619D01*
X135115238Y-125432857D01*
X135115238Y-125670952D01*
X135162857Y-125766190D01*
X135210476Y-125813810D01*
X135305714Y-125861429D01*
X135496191Y-125861429D01*
X135591429Y-125813810D01*
X135639048Y-125766190D01*
X135686667Y-125670952D01*
X136543810Y-125575714D02*
X136543810Y-126242381D01*
X136305714Y-125194762D02*
X136067619Y-125909048D01*
X136686667Y-125909048D01*
X136972381Y-125242381D02*
X137639048Y-125242381D01*
X137210476Y-126242381D01*
X138020000Y-125861429D02*
X138781905Y-125861429D01*
X139162857Y-125575714D02*
X139353333Y-126242381D01*
X139543810Y-125766190D01*
X139734286Y-126242381D01*
X139924762Y-125575714D01*
X140305714Y-126242381D02*
X140305714Y-125575714D01*
X140305714Y-125766190D02*
X140353333Y-125670952D01*
X140400952Y-125623333D01*
X140496190Y-125575714D01*
X140591429Y-125575714D01*
X140877143Y-125337619D02*
X140924762Y-125290000D01*
X141020000Y-125242381D01*
X141258096Y-125242381D01*
X141353334Y-125290000D01*
X141400953Y-125337619D01*
X141448572Y-125432857D01*
X141448572Y-125528095D01*
X141400953Y-125670952D01*
X140829524Y-126242381D01*
X141448572Y-126242381D01*
X141877143Y-126242381D02*
X141877143Y-125575714D01*
X141877143Y-125670952D02*
X141924762Y-125623333D01*
X142020000Y-125575714D01*
X142162858Y-125575714D01*
X142258096Y-125623333D01*
X142305715Y-125718571D01*
X142305715Y-126242381D01*
X142305715Y-125718571D02*
X142353334Y-125623333D01*
X142448572Y-125575714D01*
X142591429Y-125575714D01*
X142686667Y-125623333D01*
X142734286Y-125718571D01*
X142734286Y-126242381D01*
X143639048Y-125575714D02*
X143639048Y-126242381D01*
X143210476Y-125575714D02*
X143210476Y-126099524D01*
X143258095Y-126194762D01*
X143353333Y-126242381D01*
X143496191Y-126242381D01*
X143591429Y-126194762D01*
X143639048Y-126147143D01*
X144258095Y-126242381D02*
X144162857Y-126194762D01*
X144115238Y-126099524D01*
X144115238Y-125242381D01*
X144639048Y-125861429D02*
X145400953Y-125861429D01*
X146305715Y-126242381D02*
X146305715Y-125718571D01*
X146258096Y-125623333D01*
X146162858Y-125575714D01*
X145972381Y-125575714D01*
X145877143Y-125623333D01*
X146305715Y-126194762D02*
X146210477Y-126242381D01*
X145972381Y-126242381D01*
X145877143Y-126194762D01*
X145829524Y-126099524D01*
X145829524Y-126004286D01*
X145877143Y-125909048D01*
X145972381Y-125861429D01*
X146210477Y-125861429D01*
X146305715Y-125813810D01*
D12*
X131945000Y-136945000D02*
X130945000Y-136945000D01*
X130945000Y-138645000D02*
X131945000Y-138645000D01*
X140075000Y-118065000D02*
X144575000Y-118065000D01*
X144575000Y-118065000D02*
X144575000Y-123965000D01*
X144575000Y-123965000D02*
X140075000Y-123965000D01*
X140075000Y-123965000D02*
X140075000Y-118065000D01*
X144575000Y-120515000D02*
X144075000Y-120515000D01*
X144075000Y-120515000D02*
X144075000Y-118565000D01*
X144075000Y-118565000D02*
X140575000Y-118565000D01*
X140575000Y-118565000D02*
X140575000Y-123465000D01*
X140575000Y-123465000D02*
X144075000Y-123465000D01*
X144075000Y-123465000D02*
X144075000Y-121515000D01*
X144075000Y-121515000D02*
X144575000Y-121515000D01*
X143375000Y-118065000D02*
X143375000Y-118565000D01*
X142075000Y-118065000D02*
X142075000Y-118565000D01*
X143375000Y-123465000D02*
X143375000Y-123965000D01*
X142075000Y-123465000D02*
X142075000Y-123965000D01*
X144575000Y-119715000D02*
X144775000Y-119715000D01*
X144775000Y-119715000D02*
X144775000Y-119415000D01*
X144775000Y-119415000D02*
X144575000Y-119415000D01*
X144675000Y-119715000D02*
X144675000Y-119415000D01*
X140575000Y-120915000D02*
X141075000Y-120915000D01*
X141075000Y-120915000D02*
X141075000Y-121115000D01*
X141075000Y-121115000D02*
X140575000Y-121115000D01*
X140575000Y-121015000D02*
X141075000Y-121015000D01*
X122030000Y-143260000D02*
X122030000Y-143760000D01*
X123080000Y-143760000D02*
X123080000Y-143260000D01*
X123935000Y-143260000D02*
X123935000Y-143760000D01*
X124985000Y-143760000D02*
X124985000Y-143260000D01*
X121400000Y-103065000D02*
X121170000Y-103065000D01*
X121170000Y-103945000D02*
X121400000Y-103945000D01*
X121185000Y-105240000D02*
X121415000Y-105240000D01*
X121415000Y-104360000D02*
X121185000Y-104360000D01*
X133545000Y-137680000D02*
X133545000Y-137910000D01*
X134425000Y-137910000D02*
X134425000Y-137680000D01*
X145940000Y-134115000D02*
X145940000Y-133885000D01*
X145060000Y-133885000D02*
X145060000Y-134115000D01*
X136330000Y-138285000D02*
X136330000Y-138055000D01*
X135450000Y-138055000D02*
X135450000Y-138285000D01*
X128710000Y-138285000D02*
X128710000Y-138055000D01*
X127830000Y-138055000D02*
X127830000Y-138285000D01*
X137140000Y-141530000D02*
X137640000Y-141530000D01*
X137640000Y-141530000D02*
X137640000Y-148030000D01*
X137640000Y-148030000D02*
X137140000Y-148030000D01*
X134640000Y-148030000D02*
X134140000Y-148030000D01*
X134140000Y-148030000D02*
X134140000Y-141530000D01*
X134140000Y-141530000D02*
X134640000Y-141530000D01*
X129520000Y-141530000D02*
X130020000Y-141530000D01*
X130020000Y-141530000D02*
X130020000Y-148030000D01*
X130020000Y-148030000D02*
X129520000Y-148030000D01*
X127020000Y-148030000D02*
X126520000Y-148030000D01*
X126520000Y-148030000D02*
X126520000Y-141530000D01*
X126520000Y-141530000D02*
X127020000Y-141530000D01*
X124465000Y-123360000D02*
X124490000Y-123360000D01*
X124465000Y-119210000D02*
X124570000Y-119210000D01*
X134615000Y-119210000D02*
X134510000Y-119210000D01*
X134615000Y-123360000D02*
X134510000Y-123360000D01*
X124465000Y-123360000D02*
X124465000Y-119210000D01*
X134615000Y-123360000D02*
X134615000Y-119210000D01*
X124490000Y-123360000D02*
X124490000Y-124735000D01*
D13*
X123825000Y-95885000D02*
X123825000Y-102070000D01*
X141808200Y-115470000D02*
X141808200Y-115849400D01*
X123825000Y-115470000D02*
X123825000Y-115849400D01*
X141808200Y-95885000D02*
X141808200Y-102070000D01*
X123825000Y-115887500D02*
X141808200Y-115887500D01*
X141795500Y-95885000D02*
X123825000Y-95885000D01*
D12*
X136144000Y-131191000D02*
G75*
G03X136144000Y-126619000I0J2286000D01*
G01*
X130556000Y-126619000D02*
G75*
G03X130556000Y-131191000I0J-2286000D01*
G01*
X130556000Y-131191000D02*
X136144000Y-131191000D01*
X130556000Y-126619000D02*
X136144000Y-126619000D01*
X131203334Y-139877143D02*
X131155715Y-139924762D01*
X131012858Y-139972381D01*
X130917620Y-139972381D01*
X130774762Y-139924762D01*
X130679524Y-139829524D01*
X130631905Y-139734286D01*
X130584286Y-139543810D01*
X130584286Y-139400952D01*
X130631905Y-139210476D01*
X130679524Y-139115238D01*
X130774762Y-139020000D01*
X130917620Y-138972381D01*
X131012858Y-138972381D01*
X131155715Y-139020000D01*
X131203334Y-139067619D01*
X131536667Y-138972381D02*
X132155715Y-138972381D01*
X131822381Y-139353333D01*
X131965239Y-139353333D01*
X132060477Y-139400952D01*
X132108096Y-139448571D01*
X132155715Y-139543810D01*
X132155715Y-139781905D01*
X132108096Y-139877143D01*
X132060477Y-139924762D01*
X131965239Y-139972381D01*
X131679524Y-139972381D01*
X131584286Y-139924762D01*
X131536667Y-139877143D01*
X144081905Y-145502381D02*
X144081905Y-144502381D01*
X144462858Y-144502381D01*
X144558096Y-144550000D01*
X144605715Y-144597619D01*
X144653334Y-144692857D01*
X144653334Y-144835714D01*
X144605715Y-144930952D01*
X144558096Y-144978571D01*
X144462858Y-145026190D01*
X144081905Y-145026190D01*
X145034286Y-144597619D02*
X145081905Y-144550000D01*
X145177143Y-144502381D01*
X145415239Y-144502381D01*
X145510477Y-144550000D01*
X145558096Y-144597619D01*
X145605715Y-144692857D01*
X145605715Y-144788095D01*
X145558096Y-144930952D01*
X144986667Y-145502381D01*
X145605715Y-145502381D01*
X143601905Y-117412381D02*
X143601905Y-116412381D01*
X143982858Y-116412381D01*
X144078096Y-116460000D01*
X144125715Y-116507619D01*
X144173334Y-116602857D01*
X144173334Y-116745714D01*
X144125715Y-116840952D01*
X144078096Y-116888571D01*
X143982858Y-116936190D01*
X143601905Y-116936190D01*
X145030477Y-116745714D02*
X145030477Y-117412381D01*
X144792381Y-116364762D02*
X144554286Y-117079048D01*
X145173334Y-117079048D01*
X122403334Y-142332381D02*
X122070000Y-141856190D01*
X121831905Y-142332381D02*
X121831905Y-141332381D01*
X122212858Y-141332381D01*
X122308096Y-141380000D01*
X122355715Y-141427619D01*
X122403334Y-141522857D01*
X122403334Y-141665714D01*
X122355715Y-141760952D01*
X122308096Y-141808571D01*
X122212858Y-141856190D01*
X121831905Y-141856190D01*
X123355715Y-142332381D02*
X122784286Y-142332381D01*
X123070000Y-142332381D02*
X123070000Y-141332381D01*
X122974762Y-141475238D01*
X122879524Y-141570476D01*
X122784286Y-141618095D01*
X124303334Y-142372381D02*
X123970000Y-141896190D01*
X123731905Y-142372381D02*
X123731905Y-141372381D01*
X124112858Y-141372381D01*
X124208096Y-141420000D01*
X124255715Y-141467619D01*
X124303334Y-141562857D01*
X124303334Y-141705714D01*
X124255715Y-141800952D01*
X124208096Y-141848571D01*
X124112858Y-141896190D01*
X123731905Y-141896190D01*
X124684286Y-141467619D02*
X124731905Y-141420000D01*
X124827143Y-141372381D01*
X125065239Y-141372381D01*
X125160477Y-141420000D01*
X125208096Y-141467619D01*
X125255715Y-141562857D01*
X125255715Y-141658095D01*
X125208096Y-141800952D01*
X124636667Y-142372381D01*
X125255715Y-142372381D01*
X119493334Y-103792381D02*
X119160000Y-103316190D01*
X118921905Y-103792381D02*
X118921905Y-102792381D01*
X119302858Y-102792381D01*
X119398096Y-102840000D01*
X119445715Y-102887619D01*
X119493334Y-102982857D01*
X119493334Y-103125714D01*
X119445715Y-103220952D01*
X119398096Y-103268571D01*
X119302858Y-103316190D01*
X118921905Y-103316190D01*
X119826667Y-102792381D02*
X120445715Y-102792381D01*
X120112381Y-103173333D01*
X120255239Y-103173333D01*
X120350477Y-103220952D01*
X120398096Y-103268571D01*
X120445715Y-103363810D01*
X120445715Y-103601905D01*
X120398096Y-103697143D01*
X120350477Y-103744762D01*
X120255239Y-103792381D01*
X119969524Y-103792381D01*
X119874286Y-103744762D01*
X119826667Y-103697143D01*
X119503334Y-105302381D02*
X119170000Y-104826190D01*
X118931905Y-105302381D02*
X118931905Y-104302381D01*
X119312858Y-104302381D01*
X119408096Y-104350000D01*
X119455715Y-104397619D01*
X119503334Y-104492857D01*
X119503334Y-104635714D01*
X119455715Y-104730952D01*
X119408096Y-104778571D01*
X119312858Y-104826190D01*
X118931905Y-104826190D01*
X120360477Y-104635714D02*
X120360477Y-105302381D01*
X120122381Y-104254762D02*
X119884286Y-104969048D01*
X120503334Y-104969048D01*
X134023334Y-136812381D02*
X133690000Y-136336190D01*
X133451905Y-136812381D02*
X133451905Y-135812381D01*
X133832858Y-135812381D01*
X133928096Y-135860000D01*
X133975715Y-135907619D01*
X134023334Y-136002857D01*
X134023334Y-136145714D01*
X133975715Y-136240952D01*
X133928096Y-136288571D01*
X133832858Y-136336190D01*
X133451905Y-136336190D01*
X134928096Y-135812381D02*
X134451905Y-135812381D01*
X134404286Y-136288571D01*
X134451905Y-136240952D01*
X134547143Y-136193333D01*
X134785239Y-136193333D01*
X134880477Y-136240952D01*
X134928096Y-136288571D01*
X134975715Y-136383810D01*
X134975715Y-136621905D01*
X134928096Y-136717143D01*
X134880477Y-136764762D01*
X134785239Y-136812381D01*
X134547143Y-136812381D01*
X134451905Y-136764762D01*
X134404286Y-136717143D01*
X145303334Y-133152381D02*
X144970000Y-132676190D01*
X144731905Y-133152381D02*
X144731905Y-132152381D01*
X145112858Y-132152381D01*
X145208096Y-132200000D01*
X145255715Y-132247619D01*
X145303334Y-132342857D01*
X145303334Y-132485714D01*
X145255715Y-132580952D01*
X145208096Y-132628571D01*
X145112858Y-132676190D01*
X144731905Y-132676190D01*
X146160477Y-132152381D02*
X145970000Y-132152381D01*
X145874762Y-132200000D01*
X145827143Y-132247619D01*
X145731905Y-132390476D01*
X145684286Y-132580952D01*
X145684286Y-132961905D01*
X145731905Y-133057143D01*
X145779524Y-133104762D01*
X145874762Y-133152381D01*
X146065239Y-133152381D01*
X146160477Y-133104762D01*
X146208096Y-133057143D01*
X146255715Y-132961905D01*
X146255715Y-132723810D01*
X146208096Y-132628571D01*
X146160477Y-132580952D01*
X146065239Y-132533333D01*
X145874762Y-132533333D01*
X145779524Y-132580952D01*
X145731905Y-132628571D01*
X145684286Y-132723810D01*
X135963334Y-137312381D02*
X135630000Y-136836190D01*
X135391905Y-137312381D02*
X135391905Y-136312381D01*
X135772858Y-136312381D01*
X135868096Y-136360000D01*
X135915715Y-136407619D01*
X135963334Y-136502857D01*
X135963334Y-136645714D01*
X135915715Y-136740952D01*
X135868096Y-136788571D01*
X135772858Y-136836190D01*
X135391905Y-136836190D01*
X136296667Y-136312381D02*
X136963334Y-136312381D01*
X136534762Y-137312381D01*
X128153334Y-137272381D02*
X127820000Y-136796190D01*
X127581905Y-137272381D02*
X127581905Y-136272381D01*
X127962858Y-136272381D01*
X128058096Y-136320000D01*
X128105715Y-136367619D01*
X128153334Y-136462857D01*
X128153334Y-136605714D01*
X128105715Y-136700952D01*
X128058096Y-136748571D01*
X127962858Y-136796190D01*
X127581905Y-136796190D01*
X128629524Y-137272381D02*
X128820000Y-137272381D01*
X128915239Y-137224762D01*
X128962858Y-137177143D01*
X129058096Y-137034286D01*
X129105715Y-136843810D01*
X129105715Y-136462857D01*
X129058096Y-136367619D01*
X129010477Y-136320000D01*
X128915239Y-136272381D01*
X128724762Y-136272381D01*
X128629524Y-136320000D01*
X128581905Y-136367619D01*
X128534286Y-136462857D01*
X128534286Y-136700952D01*
X128581905Y-136796190D01*
X128629524Y-136843810D01*
X128724762Y-136891429D01*
X128915239Y-136891429D01*
X129010477Y-136843810D01*
X129058096Y-136796190D01*
X129105715Y-136700952D01*
X136534762Y-146003333D02*
X136582381Y-145860476D01*
X136582381Y-145622380D01*
X136534762Y-145527142D01*
X136487143Y-145479523D01*
X136391905Y-145431904D01*
X136296667Y-145431904D01*
X136201429Y-145479523D01*
X136153810Y-145527142D01*
X136106190Y-145622380D01*
X136058571Y-145812857D01*
X136010952Y-145908095D01*
X135963333Y-145955714D01*
X135868095Y-146003333D01*
X135772857Y-146003333D01*
X135677619Y-145955714D01*
X135630000Y-145908095D01*
X135582381Y-145812857D01*
X135582381Y-145574761D01*
X135630000Y-145431904D01*
X135582381Y-145098571D02*
X136582381Y-144860476D01*
X135868095Y-144669999D01*
X136582381Y-144479523D01*
X135582381Y-144241428D01*
X136582381Y-143336666D02*
X136582381Y-143908095D01*
X136582381Y-143622381D02*
X135582381Y-143622381D01*
X135725238Y-143717619D01*
X135820476Y-143812857D01*
X135868095Y-143908095D01*
X128724762Y-146033333D02*
X128772381Y-145890476D01*
X128772381Y-145652380D01*
X128724762Y-145557142D01*
X128677143Y-145509523D01*
X128581905Y-145461904D01*
X128486667Y-145461904D01*
X128391429Y-145509523D01*
X128343810Y-145557142D01*
X128296190Y-145652380D01*
X128248571Y-145842857D01*
X128200952Y-145938095D01*
X128153333Y-145985714D01*
X128058095Y-146033333D01*
X127962857Y-146033333D01*
X127867619Y-145985714D01*
X127820000Y-145938095D01*
X127772381Y-145842857D01*
X127772381Y-145604761D01*
X127820000Y-145461904D01*
X127772381Y-145128571D02*
X128772381Y-144890476D01*
X128058095Y-144699999D01*
X128772381Y-144509523D01*
X127772381Y-144271428D01*
X127867619Y-143938095D02*
X127820000Y-143890476D01*
X127772381Y-143795238D01*
X127772381Y-143557142D01*
X127820000Y-143461904D01*
X127867619Y-143414285D01*
X127962857Y-143366666D01*
X128058095Y-143366666D01*
X128200952Y-143414285D01*
X128772381Y-143985714D01*
X128772381Y-143366666D01*
X122992381Y-122046905D02*
X123801905Y-122046905D01*
X123897143Y-121999286D01*
X123944762Y-121951667D01*
X123992381Y-121856429D01*
X123992381Y-121665952D01*
X123944762Y-121570714D01*
X123897143Y-121523095D01*
X123801905Y-121475476D01*
X122992381Y-121475476D01*
X123992381Y-120475476D02*
X123992381Y-121046905D01*
X123992381Y-120761191D02*
X122992381Y-120761191D01*
X123135238Y-120856429D01*
X123230476Y-120951667D01*
X123278095Y-121046905D01*
X132218095Y-116112381D02*
X132218095Y-116921905D01*
X132265714Y-117017143D01*
X132313333Y-117064762D01*
X132408571Y-117112381D01*
X132599048Y-117112381D01*
X132694286Y-117064762D01*
X132741905Y-117017143D01*
X132789524Y-116921905D01*
X132789524Y-116112381D01*
X133170476Y-116112381D02*
X133789524Y-116112381D01*
X133456190Y-116493333D01*
X133599048Y-116493333D01*
X133694286Y-116540952D01*
X133741905Y-116588571D01*
X133789524Y-116683810D01*
X133789524Y-116921905D01*
X133741905Y-117017143D01*
X133694286Y-117064762D01*
X133599048Y-117112381D01*
X133313333Y-117112381D01*
X133218095Y-117064762D01*
X133170476Y-117017143D01*
X127123809Y-131006190D02*
X127123809Y-131482381D01*
X126790476Y-130482381D02*
X127123809Y-131006190D01*
X127457143Y-130482381D01*
X128314286Y-131482381D02*
X127742857Y-131482381D01*
X128028571Y-131482381D02*
X128028571Y-130482381D01*
X127933333Y-130625238D01*
X127838095Y-130720476D01*
X127742857Y-130768095D01*
X118566667Y-153732381D02*
X118233333Y-153256190D01*
X117995238Y-153732381D02*
X117995238Y-152732381D01*
X118376191Y-152732381D01*
X118471429Y-152780000D01*
X118519048Y-152827619D01*
X118566667Y-152922857D01*
X118566667Y-153065714D01*
X118519048Y-153160952D01*
X118471429Y-153208571D01*
X118376191Y-153256190D01*
X117995238Y-153256190D01*
X118995238Y-153208571D02*
X119328572Y-153208571D01*
X119471429Y-153732381D02*
X118995238Y-153732381D01*
X118995238Y-152732381D01*
X119471429Y-152732381D01*
X120233334Y-153208571D02*
X119900000Y-153208571D01*
X119900000Y-153732381D02*
X119900000Y-152732381D01*
X120376191Y-152732381D01*
X120900000Y-152732381D02*
X120900000Y-152970476D01*
X120661905Y-152875238D02*
X120900000Y-152970476D01*
X121138096Y-152875238D01*
X120757143Y-153160952D02*
X120900000Y-152970476D01*
X121042858Y-153160952D01*
X121661905Y-152732381D02*
X121661905Y-152970476D01*
X121423810Y-152875238D02*
X121661905Y-152970476D01*
X121900001Y-152875238D01*
X121519048Y-153160952D02*
X121661905Y-152970476D01*
X121804763Y-153160952D01*
X145986667Y-100011381D02*
X145653333Y-99535190D01*
X145415238Y-100011381D02*
X145415238Y-99011381D01*
X145796191Y-99011381D01*
X145891429Y-99059000D01*
X145939048Y-99106619D01*
X145986667Y-99201857D01*
X145986667Y-99344714D01*
X145939048Y-99439952D01*
X145891429Y-99487571D01*
X145796191Y-99535190D01*
X145415238Y-99535190D01*
X146415238Y-99487571D02*
X146748572Y-99487571D01*
X146891429Y-100011381D02*
X146415238Y-100011381D01*
X146415238Y-99011381D01*
X146891429Y-99011381D01*
X147653334Y-99487571D02*
X147320000Y-99487571D01*
X147320000Y-100011381D02*
X147320000Y-99011381D01*
X147796191Y-99011381D01*
X148320000Y-99011381D02*
X148320000Y-99249476D01*
X148081905Y-99154238D02*
X148320000Y-99249476D01*
X148558096Y-99154238D01*
X148177143Y-99439952D02*
X148320000Y-99249476D01*
X148462858Y-99439952D01*
X149081905Y-99011381D02*
X149081905Y-99249476D01*
X148843810Y-99154238D02*
X149081905Y-99249476D01*
X149320001Y-99154238D01*
X148939048Y-99439952D02*
X149081905Y-99249476D01*
X149224763Y-99439952D01*
M02*
