M48
;DRILL file {KiCad 4.0.4+e1-6308~48~ubuntu16.04.1-stable} date Tue Nov  1 10:02:56 2016
;FORMAT={-:-/ absolute / metric / decimal}
FMAT,2
METRIC,TZ
T1C0.400
T2C0.700
T3C0.762
T4C0.800
T5C1.016
T6C1.200
%
G90
G05
M71
T1
X120.4Y-105.1
X120.9Y-114.2
X121.87Y-110.53
X122.1Y-112.4
X123.67Y-117.49
X123.825Y-144.78
X123.86Y-115.79
X124.19Y-122.17
X124.7Y-126.1
X124.8Y-116.75
X125.1Y-104.8
X125.17Y-121.55
X125.2Y-129.
X125.7Y-116.96
X125.78Y-122.42
X125.8Y-125.6
X126.18Y-116.09
X126.35Y-107.18
X126.61Y-120.18
X126.63Y-125.9
X127.06Y-116.56
X127.17Y-107.27
X127.54Y-125.96
X128.2Y-115.9
X128.24Y-108.06
X128.27Y-147.32
X128.36Y-125.96
X128.53Y-106.51
X128.83Y-108.96
X128.85Y-109.99
X129.Y-136.62
X129.27Y-133.99
X129.63Y-120.08
X130.Y-139.79
X130.5Y-136.45
X131.4Y-116.1
X131.445Y-136.525
X132.27Y-117.1
X132.8Y-112.4
X133.1Y-134.
X133.35Y-136.525
X133.45Y-115.98
X134.Y-112.8
X134.1Y-139.74
X135.255Y-135.89
X135.3Y-113.7
X135.3Y-134.2
X135.89Y-136.75
X135.89Y-147.32
X136.29Y-118.64
X136.3Y-119.6
X136.5Y-123.
X136.68Y-105.74
X136.9Y-137.4
X137.55Y-106.01
X137.63Y-121.2
X137.65Y-118.03
X137.8Y-113.6
X138.28Y-121.7
X138.6Y-127.7
X138.6Y-129.9
X138.6Y-130.8
X138.6Y-131.7
X138.6Y-132.6
X138.67Y-108.31
X138.67Y-137.24
X139.37Y-110.64
X140.37Y-109.43
X140.39Y-103.25
X140.98Y-129.76
X140.98Y-136.41
X140.98Y-137.22
X141.14Y-131.55
X141.3Y-128.3
X141.7Y-142.4
X141.87Y-135.45
X141.89Y-137.73
X141.93Y-130.72
X141.98Y-129.71
X142.1Y-127.7
X142.28Y-131.55
X142.7Y-135.5
X142.75Y-137.69
X142.81Y-127.16
X142.9Y-115.9
X142.9Y-125.99
X143.3Y-131.
X143.4Y-134.2
X143.5Y-109.
X143.5Y-143.62
X144.41Y-114.36
X144.82Y-107.23
X144.89Y-128.78
X144.91Y-135.51
X145.43Y-110.2
X146.05Y-145.415
X146.75Y-117.45
T2
X142.875Y-120.015
X142.875Y-122.015
T3
X130.81Y-128.905
X135.89Y-128.905
T4
X142.355Y-146.61
X147.205Y-146.61
T5
X119.38Y-108.585
X119.38Y-111.125
X119.38Y-113.665
X119.38Y-116.205
X119.38Y-118.745
X119.38Y-121.285
X119.38Y-123.825
X119.38Y-126.365
X119.38Y-128.905
X119.38Y-131.445
X119.38Y-133.985
X119.38Y-136.525
X119.38Y-139.065
X119.38Y-141.605
X119.38Y-144.145
X147.955Y-108.585
X147.955Y-111.125
X147.955Y-113.665
X147.955Y-116.205
X147.955Y-118.745
X147.955Y-121.285
X147.955Y-123.825
X147.955Y-126.365
X147.955Y-128.905
X147.955Y-131.445
X147.955Y-133.985
X147.955Y-136.525
X147.955Y-139.065
X147.955Y-141.605
X147.955Y-144.145
T6
X141.155Y-149.86
X148.405Y-149.86
T0
M30
