G04 #@! TF.FileFunction,Copper,L1,Top,Signal*
%FSLAX46Y46*%
G04 Gerber Fmt 4.6, Leading zero omitted, Abs format (unit mm)*
G04 Created by KiCad (PCBNEW 4.0.4+e1-6308~48~ubuntu16.04.1-stable) date Wed Nov  2 15:53:33 2016*
%MOMM*%
%LPD*%
G01*
G04 APERTURE LIST*
%ADD10C,0.100000*%
%ADD11R,1.000000X1.250000*%
%ADD12R,2.032000X1.727200*%
%ADD13O,2.032000X1.727200*%
%ADD14C,1.800000*%
%ADD15C,1.200000*%
%ADD16R,0.400000X1.350000*%
%ADD17R,1.700000X1.200000*%
%ADD18O,1.700000X1.200000*%
%ADD19R,0.600000X0.400000*%
%ADD20R,0.280000X0.430000*%
%ADD21R,0.430000X0.280000*%
%ADD22R,2.000000X2.500000*%
%ADD23R,0.600000X1.500000*%
%ADD24O,2.000000X0.900000*%
%ADD25R,2.000000X0.900000*%
%ADD26R,4.300000X4.300000*%
%ADD27C,1.422400*%
%ADD28C,0.600000*%
%ADD29C,0.250000*%
%ADD30C,0.600000*%
%ADD31C,0.254000*%
G04 APERTURE END LIST*
D10*
D11*
X130445000Y-137795000D03*
X132445000Y-137795000D03*
D12*
X119380000Y-108585000D03*
D13*
X119380000Y-111125000D03*
X119380000Y-113665000D03*
X119380000Y-116205000D03*
X119380000Y-118745000D03*
X119380000Y-121285000D03*
X119380000Y-123825000D03*
X119380000Y-126365000D03*
X119380000Y-128905000D03*
X119380000Y-131445000D03*
X119380000Y-133985000D03*
X119380000Y-136525000D03*
X119380000Y-139065000D03*
X119380000Y-141605000D03*
X119380000Y-144145000D03*
D14*
X148405000Y-149860000D03*
D15*
X147205000Y-146610000D03*
D16*
X144780000Y-146660000D03*
X144130000Y-146660000D03*
X143480000Y-146660000D03*
X145430000Y-146660000D03*
X146080000Y-146660000D03*
D15*
X142355000Y-146610000D03*
D14*
X141155000Y-149860000D03*
D12*
X147955000Y-108585000D03*
D13*
X147955000Y-111125000D03*
X147955000Y-113665000D03*
X147955000Y-116205000D03*
X147955000Y-118745000D03*
X147955000Y-121285000D03*
X147955000Y-123825000D03*
X147955000Y-126365000D03*
X147955000Y-128905000D03*
X147955000Y-131445000D03*
X147955000Y-133985000D03*
X147955000Y-136525000D03*
X147955000Y-139065000D03*
X147955000Y-141605000D03*
X147955000Y-144145000D03*
D17*
X142875000Y-120015000D03*
D18*
X142875000Y-122015000D03*
D19*
X122555000Y-143960000D03*
X122555000Y-143060000D03*
X124460000Y-143960000D03*
X124460000Y-143060000D03*
D20*
X121030000Y-103505000D03*
X121540000Y-103505000D03*
X121555000Y-104800000D03*
X121045000Y-104800000D03*
D21*
X133985000Y-138050000D03*
X133985000Y-137540000D03*
X145500000Y-133745000D03*
X145500000Y-134255000D03*
X135890000Y-137915000D03*
X135890000Y-138425000D03*
X128270000Y-137915000D03*
X128270000Y-138425000D03*
D22*
X135890000Y-140505000D03*
X135890000Y-149055000D03*
X128270000Y-140505000D03*
X128270000Y-149055000D03*
D23*
X125095000Y-123985000D03*
X126365000Y-123985000D03*
X127635000Y-123985000D03*
X128905000Y-123985000D03*
X130175000Y-123985000D03*
X131445000Y-123985000D03*
X132715000Y-123985000D03*
X133985000Y-123985000D03*
X133985000Y-118585000D03*
X132715000Y-118585000D03*
X131445000Y-118585000D03*
X130175000Y-118585000D03*
X128905000Y-118585000D03*
X127635000Y-118585000D03*
X126365000Y-118585000D03*
X125095000Y-118585000D03*
D24*
X141825000Y-114870000D03*
X123825000Y-114870000D03*
D25*
X123825000Y-102870000D03*
D24*
X123825000Y-104370000D03*
X123825000Y-105870000D03*
X123825000Y-107370000D03*
X123825000Y-108870000D03*
X123825000Y-110370000D03*
X123825000Y-111870000D03*
X123825000Y-113370000D03*
X141825000Y-113370000D03*
X141825000Y-111870000D03*
X141825000Y-110370000D03*
X141825000Y-108870000D03*
X141825000Y-107370000D03*
X141825000Y-105870000D03*
X141825000Y-104370000D03*
X141825000Y-102870000D03*
D26*
X133945000Y-109450000D03*
D27*
X130810000Y-128905000D03*
X135890000Y-128905000D03*
D28*
X140390000Y-103250000D03*
X126350000Y-107180000D03*
X127170000Y-107270000D03*
X128850000Y-109990000D03*
X128830000Y-108960000D03*
X134000000Y-112800000D03*
X139370000Y-110640000D03*
X145430000Y-110200000D03*
X124700000Y-126100000D03*
X123860000Y-115790000D03*
X120400000Y-105100000D03*
X133350000Y-136525000D03*
X146050000Y-145415000D03*
X135890000Y-147320000D03*
X128270000Y-147320000D03*
X123825000Y-144780000D03*
X140980000Y-136410000D03*
X131400000Y-116100000D03*
X129630000Y-120080000D03*
X128530000Y-106510000D03*
X137550000Y-106010000D03*
X144820000Y-107230000D03*
X135890000Y-136750000D03*
X126610000Y-120180000D03*
X132800000Y-112400000D03*
X125800000Y-125600000D03*
X125200000Y-129000000D03*
X131445000Y-136525000D03*
X141980000Y-129710000D03*
X138600000Y-127700000D03*
X136500000Y-123000000D03*
X136300000Y-119600000D03*
X141140000Y-131550000D03*
X138600000Y-131700000D03*
X135300000Y-134200000D03*
X135255000Y-135890000D03*
X128200000Y-115900000D03*
X141930000Y-130720000D03*
X129270000Y-133990000D03*
X128360000Y-125960000D03*
X133100000Y-134000000D03*
X138600000Y-130800000D03*
X127060000Y-116560000D03*
X127540000Y-125960000D03*
X140980000Y-129760000D03*
X130500000Y-136450000D03*
X138600000Y-129900000D03*
X126180000Y-116090000D03*
X129000000Y-136620000D03*
X126630000Y-125900000D03*
X130000000Y-139790000D03*
X134100000Y-139740000D03*
X136900000Y-137400000D03*
X138600000Y-132600000D03*
X142810000Y-127160000D03*
X143400000Y-134200000D03*
X144890000Y-128780000D03*
X142900000Y-125990000D03*
X144410000Y-114360000D03*
X138670000Y-108310000D03*
X140370000Y-109430000D03*
X128240000Y-108060000D03*
X136680000Y-105740000D03*
X143500000Y-143620000D03*
X132270000Y-117100000D03*
X133450000Y-115980000D03*
X137800000Y-113600000D03*
X135300000Y-113700000D03*
X125700000Y-116960000D03*
X125780000Y-122420000D03*
X122100000Y-112400000D03*
X120900000Y-114200000D03*
X125100000Y-104800000D03*
X146750000Y-117450000D03*
X137630000Y-121200000D03*
X137650000Y-118030000D03*
X124800000Y-116750000D03*
X125170000Y-121550000D03*
X141700000Y-142400000D03*
X144910000Y-135510000D03*
X124190000Y-122170000D03*
X123670000Y-117490000D03*
X138670000Y-137240000D03*
X140980000Y-137220000D03*
X142700000Y-135500000D03*
X142750000Y-137690000D03*
X143300000Y-131000000D03*
X142100000Y-127700000D03*
X142900000Y-115900000D03*
X141890000Y-137730000D03*
X141870000Y-135450000D03*
X142280000Y-131550000D03*
X141300000Y-128300000D03*
X143500000Y-109000000D03*
X136290000Y-118640000D03*
X138280000Y-121700000D03*
X121870000Y-110530000D03*
D29*
X132715000Y-123985000D02*
X132715000Y-127185000D01*
X132715000Y-127185000D02*
X130995000Y-128905000D01*
X130995000Y-128905000D02*
X130810000Y-128905000D01*
X141825000Y-102870000D02*
X140770000Y-102870000D01*
X140770000Y-102870000D02*
X140390000Y-103250000D01*
X128850000Y-109990000D02*
X128850000Y-111010000D01*
X126680002Y-107510002D02*
X126350000Y-107180000D01*
X126680002Y-108760000D02*
X126680002Y-107510002D01*
X127590000Y-109669998D02*
X126680002Y-108760000D01*
X127590000Y-109750000D02*
X127590000Y-109669998D01*
X128850000Y-111010000D02*
X127590000Y-109750000D01*
X127170000Y-107270000D02*
X127170000Y-107880000D01*
X128580000Y-108710000D02*
X128830000Y-108960000D01*
X128000000Y-108710000D02*
X128580000Y-108710000D01*
X127170000Y-107880000D02*
X128000000Y-108710000D01*
X128830000Y-108960000D02*
X128830000Y-109140000D01*
X128850000Y-109990000D02*
X128830000Y-110010000D01*
X128830000Y-108960000D02*
X128850000Y-108980000D01*
X128850000Y-108980000D02*
X128850000Y-109990000D01*
X133945000Y-109450000D02*
X133945000Y-112745000D01*
X133945000Y-112745000D02*
X134000000Y-112800000D01*
X141825000Y-110370000D02*
X140530000Y-110370000D01*
X139960000Y-110370000D02*
X139370000Y-110640000D01*
X140530000Y-110370000D02*
X139960000Y-110370000D01*
X141825000Y-110370000D02*
X145260000Y-110370000D01*
X145260000Y-110370000D02*
X145430000Y-110200000D01*
X125095000Y-123985000D02*
X125095000Y-125705000D01*
X125095000Y-125705000D02*
X124700000Y-126100000D01*
X123825000Y-114870000D02*
X123885000Y-115765000D01*
X123885000Y-115765000D02*
X123860000Y-115790000D01*
X121045000Y-104800000D02*
X120700000Y-104800000D01*
X120700000Y-104800000D02*
X120400000Y-105100000D01*
X132445000Y-137795000D02*
X132715000Y-137795000D01*
X132715000Y-137795000D02*
X133350000Y-136525000D01*
X146080000Y-146660000D02*
X146080000Y-145445000D01*
X146080000Y-145445000D02*
X146050000Y-145415000D01*
X135890000Y-149055000D02*
X135890000Y-147320000D01*
X128270000Y-149055000D02*
X128270000Y-147320000D01*
X124460000Y-143960000D02*
X124460000Y-144145000D01*
X124460000Y-144145000D02*
X123825000Y-144780000D01*
X135890000Y-128905000D02*
X135705000Y-128905000D01*
X135705000Y-128905000D02*
X133985000Y-127185000D01*
X133985000Y-127185000D02*
X133985000Y-123985000D01*
X145500000Y-133745000D02*
X144695000Y-133745000D01*
X144695000Y-133745000D02*
X144290000Y-134150000D01*
D30*
X147955000Y-131445000D02*
X146065000Y-131445000D01*
X144290000Y-133220000D02*
X146065000Y-131445000D01*
X143490000Y-136370000D02*
X143820000Y-136040000D01*
X141180000Y-136410000D02*
X140980000Y-136410000D01*
X141620000Y-136410000D02*
X141180000Y-136410000D01*
X142270000Y-136410000D02*
X141620000Y-136410000D01*
X143490000Y-136370000D02*
X142270000Y-136410000D01*
X144290000Y-134520000D02*
X144290000Y-134150000D01*
X144290000Y-134150000D02*
X144290000Y-133250000D01*
X143820000Y-134990000D02*
X144290000Y-134520000D01*
X143820000Y-136040000D02*
X143820000Y-134990000D01*
X144290000Y-133250000D02*
X144290000Y-133220000D01*
D29*
X128905000Y-123985000D02*
X128905000Y-125035000D01*
X126130000Y-125270000D02*
X125800000Y-125600000D01*
X128670000Y-125270000D02*
X126130000Y-125270000D01*
X128905000Y-125035000D02*
X128670000Y-125270000D01*
D30*
X132800000Y-112400000D02*
X132800000Y-114700000D01*
X131400000Y-116100000D02*
X132800000Y-114700000D01*
X129530000Y-120180000D02*
X126610000Y-120180000D01*
X129630000Y-120080000D02*
X129530000Y-120180000D01*
X128530000Y-102900000D02*
X128520000Y-102890000D01*
X128530000Y-106510000D02*
X128530000Y-102900000D01*
D29*
X128270000Y-137915000D02*
X128270000Y-137800000D01*
X128270000Y-137800000D02*
X128010000Y-137540000D01*
D30*
X129340000Y-137540000D02*
X128010000Y-137540000D01*
X128010000Y-137540000D02*
X127760000Y-137540000D01*
X129595000Y-137795000D02*
X129340000Y-137540000D01*
X130445000Y-137795000D02*
X129595000Y-137795000D01*
X127540000Y-137320000D02*
X124720000Y-137300000D01*
X124660000Y-129540000D02*
X125200000Y-129000000D01*
X124689998Y-137269998D02*
X124660000Y-129540000D01*
X124720000Y-137300000D02*
X124689998Y-137269998D01*
X127760000Y-137540000D02*
X127540000Y-137320000D01*
X125060000Y-120180000D02*
X121200000Y-120180000D01*
X121200000Y-120180000D02*
X121200000Y-118900000D01*
X121200000Y-118900000D02*
X121045000Y-118745000D01*
X121045000Y-118745000D02*
X119380000Y-118745000D01*
X126610000Y-120180000D02*
X125060000Y-120180000D01*
D29*
X125095000Y-120145000D02*
X125095000Y-118585000D01*
X125060000Y-120180000D02*
X125095000Y-120145000D01*
D30*
X131620000Y-112400000D02*
X132800000Y-112400000D01*
X137550000Y-106010000D02*
X137000000Y-106560000D01*
X137000000Y-106560000D02*
X131450000Y-106560000D01*
X131450000Y-106560000D02*
X131120000Y-106890000D01*
X131120000Y-106890000D02*
X131120000Y-111900000D01*
X147955000Y-108585000D02*
X146060000Y-108610000D01*
X144820000Y-107230000D02*
X146060000Y-108610000D01*
X131120000Y-111900000D02*
X131620000Y-112400000D01*
X135890000Y-136750000D02*
X135890000Y-137290000D01*
D29*
X135890000Y-137290000D02*
X135890000Y-137915000D01*
X126610000Y-120180000D02*
X126505000Y-120075000D01*
X119380000Y-118745000D02*
X120045000Y-118745000D01*
D30*
X121200000Y-118900000D02*
X121200000Y-122005000D01*
X121200000Y-122005000D02*
X119380000Y-123825000D01*
X125930000Y-125470000D02*
X125800000Y-125600000D01*
X125200000Y-129000000D02*
X125210000Y-127700000D01*
X125210000Y-127700000D02*
X125800000Y-126000000D01*
X125800000Y-126000000D02*
X125800000Y-125600000D01*
X135510000Y-137540000D02*
X135160000Y-137540000D01*
X135160000Y-137540000D02*
X135000000Y-137700000D01*
X135000000Y-137700000D02*
X135000000Y-138000000D01*
X135000000Y-138000000D02*
X134570000Y-138430000D01*
X134570000Y-138430000D02*
X134130000Y-138430000D01*
X134130000Y-138430000D02*
X133985000Y-138285000D01*
D29*
X133985000Y-138285000D02*
X133985000Y-138050000D01*
X135890000Y-137915000D02*
X135510000Y-137540000D01*
D30*
X134620000Y-138430000D02*
X134365000Y-138430000D01*
X131410000Y-139240000D02*
X130445000Y-137795000D01*
X133390000Y-139230000D02*
X131410000Y-139240000D01*
X134070000Y-138430000D02*
X133390000Y-139230000D01*
X134620000Y-138430000D02*
X134070000Y-138430000D01*
D29*
X121030000Y-103505000D02*
X121030000Y-103170000D01*
X121330000Y-102870000D02*
X123825000Y-102870000D01*
X121030000Y-103170000D02*
X121330000Y-102870000D01*
D30*
X123825000Y-102870000D02*
X128520000Y-102890000D01*
X128520000Y-102890000D02*
X128550000Y-102920000D01*
D29*
X130445000Y-137795000D02*
X130445000Y-137525000D01*
X130445000Y-137525000D02*
X131445000Y-136525000D01*
X135890000Y-137915000D02*
X135890000Y-137160000D01*
X147675000Y-123825000D02*
X141980000Y-129710000D01*
X132710365Y-116412414D02*
X133126346Y-116940000D01*
X128200000Y-116800000D02*
X131640000Y-116800000D01*
X131640000Y-116800000D02*
X132040000Y-116400000D01*
X132040000Y-116400000D02*
X132710365Y-116412414D01*
X138600000Y-127700000D02*
X138800000Y-127500000D01*
X138800000Y-127500000D02*
X138800000Y-127300000D01*
X136700000Y-125200000D02*
X136700000Y-123000000D01*
X138800000Y-127300000D02*
X136700000Y-125200000D01*
X136700000Y-123000000D02*
X136500000Y-123000000D01*
X125670000Y-109360000D02*
X126540000Y-110200000D01*
X125670000Y-108690000D02*
X125670000Y-109360000D01*
X124350000Y-107370000D02*
X125670000Y-108690000D01*
X126540000Y-110200000D02*
X126538992Y-110168992D01*
X126560000Y-110710000D02*
X127700000Y-111610000D01*
X126538992Y-110168992D02*
X126560000Y-110710000D01*
X127700000Y-111610000D02*
X127700000Y-115300000D01*
X127700000Y-115300000D02*
X127500000Y-115500000D01*
X127500000Y-115500000D02*
X127500000Y-116100000D01*
X127500000Y-116100000D02*
X128200000Y-116800000D01*
X135570000Y-119360000D02*
X136300000Y-119600000D01*
X135100000Y-118690000D02*
X135570000Y-119360000D01*
X135100000Y-117400000D02*
X135100000Y-118690000D01*
X135000000Y-117200000D02*
X135100000Y-117400000D01*
X134730000Y-116930000D02*
X135000000Y-117200000D01*
X133126346Y-116940000D02*
X134730000Y-116930000D01*
X123825000Y-107370000D02*
X124350000Y-107370000D01*
X147955000Y-123825000D02*
X147675000Y-123825000D01*
X141960000Y-129740000D02*
X141222380Y-130479059D01*
X141222380Y-130479059D02*
X141140000Y-131550000D01*
X138600000Y-131700000D02*
X136600000Y-133400000D01*
X136600000Y-133400000D02*
X135900000Y-133400000D01*
X135900000Y-133400000D02*
X135300000Y-134200000D01*
X134710000Y-136590000D02*
X133985000Y-137540000D01*
X135255000Y-135890000D02*
X134710000Y-136590000D01*
X128200000Y-115900000D02*
X128220000Y-111330000D01*
X128220000Y-111330000D02*
X127020000Y-110380000D01*
X127020000Y-110380000D02*
X127020000Y-109870000D01*
X127020000Y-109870000D02*
X126988608Y-109855569D01*
X126230000Y-109144375D02*
X126230000Y-108010000D01*
X126988608Y-109855569D02*
X126230000Y-109144375D01*
X126230000Y-108010000D02*
X124288990Y-105870000D01*
X145935000Y-126365000D02*
X141930000Y-130720000D01*
X145935000Y-126365000D02*
X147955000Y-126365000D01*
X128630000Y-133240000D02*
X128610000Y-133230000D01*
X129450000Y-134030000D02*
X128630000Y-133240000D01*
X124288990Y-105870000D02*
X123825000Y-105870000D01*
X128610000Y-133230000D02*
X127990000Y-132570000D01*
X127990000Y-132570000D02*
X127960000Y-128540000D01*
X127960000Y-128550000D02*
X128370000Y-126000000D01*
X134200000Y-132900000D02*
X133100000Y-134000000D01*
X136200000Y-132900000D02*
X134200000Y-132900000D01*
X138600000Y-130800000D02*
X136200000Y-132900000D01*
X127000000Y-115300000D02*
X127000000Y-116500000D01*
X127000000Y-115300000D02*
X127000000Y-115200000D01*
X124300000Y-108870000D02*
X126100000Y-110670000D01*
X126100000Y-110670000D02*
X126100000Y-110900000D01*
X126100000Y-110900000D02*
X127000000Y-111810000D01*
X127000000Y-111810000D02*
X127000000Y-113120000D01*
X127000000Y-113120000D02*
X127000000Y-115200000D01*
X127000000Y-116500000D02*
X127060000Y-116560000D01*
X127361926Y-127619113D02*
X127361926Y-126138074D01*
X127361926Y-126138074D02*
X127540000Y-125960000D01*
X130500000Y-136450000D02*
X130480000Y-135460000D01*
X128320000Y-134330000D02*
X130480000Y-135460000D01*
X127348388Y-133305068D02*
X128320000Y-134330000D01*
X127361926Y-127619113D02*
X127348388Y-133305068D01*
X140980000Y-129760000D02*
X141400000Y-129130000D01*
X141420000Y-129110000D02*
X141873602Y-128990000D01*
X141400000Y-129130000D02*
X141420000Y-129110000D01*
X124300000Y-108870000D02*
X123825000Y-108870000D01*
X126960000Y-116660000D02*
X127060000Y-116560000D01*
X146815000Y-121285000D02*
X147955000Y-121285000D01*
X146000000Y-122100000D02*
X146815000Y-121285000D01*
X146000000Y-124863602D02*
X146000000Y-122100000D01*
X141863602Y-129000000D02*
X141873602Y-128990000D01*
X141873602Y-128990000D02*
X146000000Y-124863602D01*
X137850000Y-130540000D02*
X138600000Y-129900000D01*
X137800000Y-130600000D02*
X137850000Y-130540000D01*
X136000000Y-132400000D02*
X137800000Y-130600000D01*
X133700000Y-132400000D02*
X136000000Y-132400000D01*
X132013423Y-134114850D02*
X133700000Y-132400000D01*
X130500000Y-135460000D02*
X132013423Y-134114850D01*
X130500000Y-136450000D02*
X130500000Y-135460000D01*
X126180000Y-116090000D02*
X126180000Y-113260000D01*
X124840000Y-110370000D02*
X125600000Y-111130000D01*
X125600000Y-111130000D02*
X125600000Y-111100000D01*
X125600000Y-111100000D02*
X126180000Y-111711351D01*
X126180000Y-111711351D02*
X126180000Y-113260000D01*
X123825000Y-110370000D02*
X124840000Y-110370000D01*
X129000000Y-135610000D02*
X129000000Y-136620000D01*
X127790000Y-135000000D02*
X129000000Y-135610000D01*
X126640000Y-133799051D02*
X127790000Y-135000000D01*
X126640000Y-127427612D02*
X126640000Y-133799051D01*
X126640000Y-127020000D02*
X126640000Y-127427612D01*
X126630000Y-125900000D02*
X126640000Y-127020000D01*
X126180000Y-113260000D02*
X126180000Y-113260000D01*
X130000000Y-139790000D02*
X130479798Y-139933935D01*
X130479798Y-139933935D02*
X133900000Y-139940000D01*
X133900000Y-139940000D02*
X134100000Y-139740000D01*
X136900000Y-137400000D02*
X138600000Y-135700000D01*
X138600000Y-135700000D02*
X138600000Y-132600000D01*
X142810000Y-127160000D02*
X145500000Y-124400000D01*
X145500000Y-124400000D02*
X145500000Y-121900000D01*
X145500000Y-121900000D02*
X145500000Y-120000000D01*
X145500000Y-120000000D02*
X146755000Y-118745000D01*
X146755000Y-118745000D02*
X147955000Y-118745000D01*
X123825000Y-110370000D02*
X123070000Y-110370000D01*
X123070000Y-110370000D02*
X122100000Y-109400000D01*
X122100000Y-109400000D02*
X122100000Y-108100000D01*
X122100000Y-108100000D02*
X121555000Y-107555000D01*
X121555000Y-107555000D02*
X121555000Y-104800000D01*
D30*
X143400000Y-134200000D02*
X143400000Y-132920000D01*
X144410000Y-131910000D02*
X144890000Y-131430000D01*
X144890000Y-131430000D02*
X144890000Y-128780000D01*
X142900000Y-125990000D02*
X144840000Y-124050000D01*
X144840000Y-124050000D02*
X144840000Y-114790000D01*
X144840000Y-114790000D02*
X144410000Y-114360000D01*
X143400000Y-132920000D02*
X144410000Y-131910000D01*
X139790000Y-109430000D02*
X140370000Y-109430000D01*
X138670000Y-108310000D02*
X139790000Y-109430000D01*
X128240000Y-108060000D02*
X131480000Y-104820000D01*
X131480000Y-104820000D02*
X135760000Y-104820000D01*
X135760000Y-104820000D02*
X136680000Y-105740000D01*
X143480000Y-145500000D02*
X143480000Y-143640000D01*
D29*
X143480000Y-146660000D02*
X143480000Y-145500000D01*
D30*
X143480000Y-143640000D02*
X143500000Y-143620000D01*
D29*
X125180000Y-117390000D02*
X124520000Y-117390000D01*
X124520000Y-117390000D02*
X124150000Y-118190000D01*
X124150000Y-118190000D02*
X123230000Y-118170000D01*
X125940000Y-117200000D02*
X125700000Y-116960000D01*
X133450000Y-115980000D02*
X134000000Y-114400000D01*
X132119998Y-117250002D02*
X132270000Y-117100000D01*
X131980000Y-117300000D02*
X132029998Y-117250002D01*
X127900000Y-117300000D02*
X131980000Y-117300000D01*
X126000000Y-117300000D02*
X127900000Y-117300000D01*
X132029998Y-117250002D02*
X132119998Y-117250002D01*
X137610000Y-108440000D02*
X138580000Y-107420000D01*
X137580000Y-112360000D02*
X137610000Y-108440000D01*
X137800000Y-113600000D02*
X137580000Y-112360000D01*
X134700000Y-113700000D02*
X135300000Y-113700000D01*
X134000000Y-114400000D02*
X134700000Y-113700000D01*
X141825000Y-107370000D02*
X138610000Y-107390000D01*
X138580000Y-107420000D02*
X138610000Y-107390000D01*
X121759730Y-116044730D02*
X119380000Y-113665000D01*
X121770207Y-116657617D02*
X121759730Y-116044730D01*
X125700000Y-116960000D02*
X125180000Y-117390000D01*
X123231250Y-118171340D02*
X121770207Y-116657617D01*
X126000000Y-117300000D02*
X125940000Y-117200000D01*
X128270000Y-138425000D02*
X127660000Y-138430000D01*
X127660000Y-138430000D02*
X127050000Y-138050000D01*
X127050000Y-138050000D02*
X126470000Y-138050000D01*
X126470000Y-138050000D02*
X124350000Y-138050000D01*
X124000000Y-137700000D02*
X123990000Y-123280000D01*
X123990000Y-123280000D02*
X124970000Y-122420000D01*
X124970000Y-122420000D02*
X125780000Y-122420000D01*
X124350000Y-138050000D02*
X124000000Y-137700000D01*
X128270000Y-140505000D02*
X128270000Y-138425000D01*
X122100000Y-113000000D02*
X122100000Y-112400000D01*
X120900000Y-114200000D02*
X122100000Y-113000000D01*
X125100000Y-104800000D02*
X124670000Y-104370000D01*
X124670000Y-104370000D02*
X123825000Y-104370000D01*
X123825000Y-104370000D02*
X123170000Y-104370000D01*
X123170000Y-104370000D02*
X122305000Y-103505000D01*
X122305000Y-103505000D02*
X121540000Y-103505000D01*
X135600000Y-120300000D02*
X131539554Y-120284113D01*
X122555000Y-143060000D02*
X122260000Y-142765000D01*
X131519554Y-120264113D02*
X130934849Y-120894446D01*
X130934849Y-120894446D02*
X123000000Y-120900000D01*
X123000000Y-120900000D02*
X123004401Y-120909000D01*
X123004401Y-120909000D02*
X122260000Y-121720000D01*
X136540000Y-120300000D02*
X135600000Y-120300000D01*
X137000000Y-119820000D02*
X136540000Y-120300000D01*
X137000000Y-119250000D02*
X137000000Y-119820000D01*
X137000000Y-117800000D02*
X137000000Y-119250000D01*
X137000000Y-117800000D02*
X137120000Y-117490000D01*
X122260000Y-121720000D02*
X122260000Y-142765000D01*
X131539554Y-120284113D02*
X131519554Y-120264113D01*
X141825000Y-105870000D02*
X139390000Y-105870000D01*
X137100000Y-115200000D02*
X137110000Y-117470000D01*
X137110000Y-117470000D02*
X137120000Y-117500000D01*
X137100000Y-108150002D02*
X137100000Y-115200000D01*
X139000000Y-106250002D02*
X137100000Y-108150002D01*
X139360000Y-105900000D02*
X139000000Y-106250002D01*
X139390000Y-105870000D02*
X139360000Y-105900000D01*
X122555000Y-143060000D02*
X124460000Y-143060000D01*
X119380000Y-141605000D02*
X121100000Y-141605000D01*
X121100000Y-141605000D02*
X122555000Y-143060000D01*
X119380000Y-144145000D02*
X122370000Y-144145000D01*
X122370000Y-144145000D02*
X122555000Y-143960000D01*
X144780000Y-146660000D02*
X144780000Y-143080000D01*
X130175000Y-123125000D02*
X130175000Y-123985000D01*
X130500000Y-122800000D02*
X130175000Y-123125000D01*
X131300000Y-122800000D02*
X130500000Y-122800000D01*
X132300000Y-121800000D02*
X131300000Y-122800000D01*
X137157492Y-121809581D02*
X132300000Y-121800000D01*
X139800000Y-126800000D02*
X138100000Y-125100000D01*
X138100000Y-125100000D02*
X138100000Y-122842467D01*
X138100000Y-122842467D02*
X137157492Y-121809581D01*
X139800000Y-138900000D02*
X139800000Y-126800000D01*
X143200000Y-142300000D02*
X139800000Y-138900000D01*
X144000000Y-142300000D02*
X143200000Y-142300000D01*
X144780000Y-143080000D02*
X144000000Y-142300000D01*
X144130000Y-146660000D02*
X144130000Y-143870000D01*
X131445000Y-123345000D02*
X131445000Y-123985000D01*
X132490000Y-122300000D02*
X131445000Y-123345000D01*
X136744823Y-122290481D02*
X132490000Y-122300000D01*
X139300000Y-127000000D02*
X137400000Y-125100000D01*
X137400000Y-125100000D02*
X137400000Y-123035001D01*
X137400000Y-123035001D02*
X136744823Y-122290481D01*
X139300000Y-139100000D02*
X139300000Y-127000000D01*
X143000000Y-142800000D02*
X139300000Y-139100000D01*
X143800000Y-142800000D02*
X143000000Y-142800000D01*
X144200000Y-143200000D02*
X143800000Y-142800000D01*
X144200000Y-143800000D02*
X144200000Y-143200000D01*
X144130000Y-143870000D02*
X144200000Y-143800000D01*
X138119718Y-118620097D02*
X138119718Y-118630282D01*
X126365000Y-122915000D02*
X126365000Y-123985000D01*
X127470000Y-121810000D02*
X126365000Y-122915000D01*
X130830000Y-121810000D02*
X127470000Y-121810000D01*
X131820000Y-120820000D02*
X130830000Y-121810000D01*
X136930000Y-120820000D02*
X131820000Y-120820000D01*
X137650000Y-120100000D02*
X136930000Y-120820000D01*
X137650000Y-119100000D02*
X137650000Y-120100000D01*
X138119718Y-118630282D02*
X137650000Y-119100000D01*
X146750000Y-117450000D02*
X145890000Y-116590000D01*
X145890000Y-116590000D02*
X145890000Y-114730000D01*
X145890000Y-114730000D02*
X144530000Y-113370000D01*
X144530000Y-113370000D02*
X141825000Y-113370000D01*
X142120000Y-113665000D02*
X141825000Y-113370000D01*
X141825000Y-113370000D02*
X141330000Y-113370000D01*
X141330000Y-113370000D02*
X140200000Y-114500000D01*
X140200000Y-114500000D02*
X140210000Y-116490000D01*
X140210000Y-116490000D02*
X138119718Y-118620097D01*
X138119718Y-118620097D02*
X138110000Y-118630000D01*
X137600000Y-117900000D02*
X137600000Y-117980000D01*
X140830000Y-111870000D02*
X140300000Y-112400000D01*
X140300000Y-113700000D02*
X140300000Y-112400000D01*
X139700000Y-114300000D02*
X140300000Y-113700000D01*
X139700000Y-115800000D02*
X139700000Y-114300000D01*
X137600000Y-117900000D02*
X139700000Y-115800000D01*
X128710000Y-122320000D02*
X127635000Y-123395000D01*
X131100000Y-122320000D02*
X128710000Y-122320000D01*
X132090000Y-121330000D02*
X131100000Y-122320000D01*
X137500000Y-121330000D02*
X132090000Y-121330000D01*
X137630000Y-121200000D02*
X137500000Y-121330000D01*
X137600000Y-117980000D02*
X137650000Y-118030000D01*
X127635000Y-123395000D02*
X127635000Y-123985000D01*
X147955000Y-116205000D02*
X147005000Y-116205000D01*
X147005000Y-116205000D02*
X146400000Y-115600000D01*
X146400000Y-115600000D02*
X146350499Y-113125928D01*
X146348933Y-113085219D02*
X145170000Y-111870000D01*
X145170000Y-111870000D02*
X141825000Y-111870000D01*
X140830000Y-111870000D02*
X141825000Y-111870000D01*
X124900000Y-116850000D02*
X124800000Y-116750000D01*
X122750000Y-122070000D02*
X123250000Y-121540000D01*
X123250000Y-121540000D02*
X125170000Y-121550000D01*
X122750000Y-138200000D02*
X122750000Y-122230000D01*
X122750000Y-138200000D02*
X123700000Y-139100000D01*
X123700000Y-139100000D02*
X126000000Y-139100000D01*
X126000000Y-139100000D02*
X126200000Y-139300000D01*
X126200000Y-139300000D02*
X126200000Y-142400000D01*
X126200000Y-142400000D02*
X126550002Y-142750002D01*
X126550002Y-142750002D02*
X141349998Y-142750002D01*
X141349998Y-142750002D02*
X141700000Y-142400000D01*
X144910000Y-135510000D02*
X144990000Y-135430000D01*
X144990000Y-135430000D02*
X145500000Y-134255000D01*
X122750000Y-122230000D02*
X122750000Y-122070000D01*
X145545000Y-134300000D02*
X146000000Y-134300000D01*
X146000000Y-134300000D02*
X147955000Y-133985000D01*
X145545000Y-134300000D02*
X145500000Y-134255000D01*
X123825000Y-111870000D02*
X125330000Y-112770000D01*
X125330000Y-115699500D02*
X124800000Y-116680000D01*
X125330000Y-112770000D02*
X125330000Y-115699500D01*
X145560000Y-134240000D02*
X145500000Y-134255000D01*
X124190000Y-122170000D02*
X124170000Y-122150000D01*
X135890000Y-140505000D02*
X130395000Y-140505000D01*
X123300000Y-137700000D02*
X123300000Y-122850000D01*
X123300000Y-122850000D02*
X124170000Y-122150000D01*
X124200000Y-138600000D02*
X123300000Y-137700000D01*
X126399998Y-138600000D02*
X124200000Y-138600000D01*
X126700000Y-138900002D02*
X126399998Y-138600000D01*
X126700000Y-142200000D02*
X126700000Y-138900002D01*
X126800000Y-142300000D02*
X126700000Y-142200000D01*
X129600000Y-142300000D02*
X126800000Y-142300000D01*
X129900000Y-142000000D02*
X129600000Y-142300000D01*
X129900000Y-141000000D02*
X129900000Y-142000000D01*
X130395000Y-140505000D02*
X129900000Y-141000000D01*
X122930000Y-113370000D02*
X122330000Y-113970000D01*
X123670000Y-117490000D02*
X122330000Y-116115990D01*
X122330000Y-116115990D02*
X122330000Y-113970000D01*
X141490000Y-137035002D02*
X141164998Y-137035002D01*
X144190000Y-136600000D02*
X143754998Y-137035002D01*
X143754998Y-137035002D02*
X141490000Y-137035002D01*
X147955000Y-136525000D02*
X146100000Y-136600000D01*
X146100000Y-136600000D02*
X144190000Y-136600000D01*
X141164998Y-137035002D02*
X140980000Y-137220000D01*
X122930000Y-113370000D02*
X123825000Y-113370000D01*
X137543664Y-138394918D02*
X137510000Y-138420000D01*
X137510000Y-138420000D02*
X135890000Y-138425000D01*
X138670000Y-137240000D02*
X137543664Y-138394918D01*
X141005000Y-137245000D02*
X140980000Y-137220000D01*
X135890000Y-140505000D02*
X135890000Y-138425000D01*
X147955000Y-139065000D02*
X143365000Y-139065000D01*
X142700000Y-135500000D02*
X142530000Y-134870000D01*
X142530000Y-134870000D02*
X142530000Y-133990000D01*
X143365000Y-139065000D02*
X142750000Y-137690000D01*
X141825000Y-114870000D02*
X143250000Y-114870000D01*
X142530000Y-132370000D02*
X142530000Y-133990000D01*
X143330000Y-131570000D02*
X142530000Y-132370000D01*
X143330000Y-130970000D02*
X143330000Y-131570000D01*
X143300000Y-131000000D02*
X143330000Y-130970000D01*
X141300000Y-126900000D02*
X142100000Y-127700000D01*
X141300000Y-125800000D02*
X141300000Y-126900000D01*
X139900000Y-124400000D02*
X141300000Y-125800000D01*
X139900000Y-119000000D02*
X139900000Y-124400000D01*
X142100000Y-116800000D02*
X139900000Y-119000000D01*
X143300000Y-116800000D02*
X142100000Y-116800000D01*
X143660000Y-116440000D02*
X143300000Y-116800000D01*
X143660000Y-115280000D02*
X143660000Y-116440000D01*
X143250000Y-114870000D02*
X143660000Y-115280000D01*
X146295000Y-141605000D02*
X145990000Y-141300000D01*
X145990000Y-141300000D02*
X143700000Y-141300000D01*
X143700000Y-141300000D02*
X141880000Y-139470000D01*
X141880000Y-139470000D02*
X141876718Y-137743282D01*
X141876718Y-137743282D02*
X141890000Y-137730000D01*
X141870000Y-135450000D02*
X141890000Y-134700000D01*
X141890000Y-134700000D02*
X141890000Y-132190000D01*
X141890000Y-132190000D02*
X142280000Y-131550000D01*
X141300000Y-128300000D02*
X140800000Y-127800000D01*
X140800000Y-127800000D02*
X140800000Y-126100000D01*
X140800000Y-126100000D02*
X139400000Y-124700000D01*
X139400000Y-124700000D02*
X139400000Y-118700000D01*
X139400000Y-118700000D02*
X140800000Y-117300000D01*
X140800000Y-117300000D02*
X140800000Y-117290000D01*
X140800000Y-117290000D02*
X142190000Y-115900000D01*
X142190000Y-115900000D02*
X142900000Y-115900000D01*
X147955000Y-141605000D02*
X146295000Y-141605000D01*
X143370000Y-108870000D02*
X141825000Y-108870000D01*
X143500000Y-109000000D02*
X143370000Y-108870000D01*
X140320000Y-126630000D02*
X140100000Y-126400000D01*
X145775002Y-144145000D02*
X145300000Y-143669998D01*
X145300000Y-143669998D02*
X145300000Y-142800000D01*
X145300000Y-142800000D02*
X144381801Y-141881801D01*
X144381801Y-141881801D02*
X144281801Y-141881801D01*
X144281801Y-141881801D02*
X144249998Y-141849998D01*
X144249998Y-141849998D02*
X143449998Y-141849998D01*
X143449998Y-141849998D02*
X140300000Y-138700000D01*
X140300000Y-138700000D02*
X140320000Y-126630000D01*
X147955000Y-144145000D02*
X145775002Y-144145000D01*
X140030000Y-104340000D02*
X141825000Y-104370000D01*
X139490000Y-105020000D02*
X140030000Y-104340000D01*
X138500000Y-106100000D02*
X139490000Y-105020000D01*
X136600000Y-108000000D02*
X138500000Y-106100000D01*
X136619452Y-117489837D02*
X136600000Y-108000000D01*
X136290000Y-118640000D02*
X136619452Y-117489837D01*
X138248199Y-121731801D02*
X138280000Y-121700000D01*
X138048199Y-121731801D02*
X138248199Y-121731801D01*
X138260000Y-121910000D02*
X138048199Y-121731801D01*
X138800000Y-125100000D02*
X138800000Y-122640000D01*
X138800000Y-122640000D02*
X138260000Y-121910000D01*
X140100000Y-126400000D02*
X138800000Y-125100000D01*
D30*
X119380000Y-108585000D02*
X119925000Y-108585000D01*
X119925000Y-108585000D02*
X121870000Y-110530000D01*
D31*
G36*
X127169611Y-107326581D02*
X127590775Y-107365578D01*
X127573023Y-108297581D01*
X127582086Y-108347173D01*
X127619720Y-108398408D01*
X127999720Y-108708408D01*
X128044331Y-108731888D01*
X128077691Y-108736979D01*
X128627691Y-108746979D01*
X128635076Y-108746899D01*
X128751316Y-108742249D01*
X128726127Y-110732180D01*
X127680631Y-109968164D01*
X127696804Y-109677045D01*
X127689555Y-109627156D01*
X127659803Y-109580197D01*
X126798746Y-108719140D01*
X126826931Y-107864185D01*
X126812317Y-107800722D01*
X126538276Y-107281486D01*
X127169611Y-107326581D01*
X127169611Y-107326581D01*
G37*
X127169611Y-107326581D02*
X127590775Y-107365578D01*
X127573023Y-108297581D01*
X127582086Y-108347173D01*
X127619720Y-108398408D01*
X127999720Y-108708408D01*
X128044331Y-108731888D01*
X128077691Y-108736979D01*
X128627691Y-108746979D01*
X128635076Y-108746899D01*
X128751316Y-108742249D01*
X128726127Y-110732180D01*
X127680631Y-109968164D01*
X127696804Y-109677045D01*
X127689555Y-109627156D01*
X127659803Y-109580197D01*
X126798746Y-108719140D01*
X126826931Y-107864185D01*
X126812317Y-107800722D01*
X126538276Y-107281486D01*
X127169611Y-107326581D01*
M02*
