G04 #@! TF.FileFunction,Paste,Top*
%FSLAX46Y46*%
G04 Gerber Fmt 4.6, Leading zero omitted, Abs format (unit mm)*
G04 Created by KiCad (PCBNEW 4.0.4+e1-6308~48~ubuntu16.04.1-stable) date Wed Nov  2 15:53:33 2016*
%MOMM*%
%LPD*%
G01*
G04 APERTURE LIST*
%ADD10C,0.100000*%
%ADD11R,1.000000X1.250000*%
%ADD12R,0.400000X1.350000*%
%ADD13R,0.600000X0.400000*%
%ADD14R,0.280000X0.430000*%
%ADD15R,0.430000X0.280000*%
%ADD16R,2.000000X2.500000*%
%ADD17R,0.600000X1.500000*%
%ADD18O,2.000000X0.900000*%
%ADD19R,2.000000X0.900000*%
%ADD20R,4.300000X4.300000*%
G04 APERTURE END LIST*
D10*
D11*
X130445000Y-137795000D03*
X132445000Y-137795000D03*
D12*
X144780000Y-146660000D03*
X144130000Y-146660000D03*
X143480000Y-146660000D03*
X145430000Y-146660000D03*
X146080000Y-146660000D03*
D13*
X122555000Y-143960000D03*
X122555000Y-143060000D03*
X124460000Y-143960000D03*
X124460000Y-143060000D03*
D14*
X121030000Y-103505000D03*
X121540000Y-103505000D03*
X121555000Y-104800000D03*
X121045000Y-104800000D03*
D15*
X133985000Y-138050000D03*
X133985000Y-137540000D03*
X145500000Y-133745000D03*
X145500000Y-134255000D03*
X135890000Y-137915000D03*
X135890000Y-138425000D03*
X128270000Y-137915000D03*
X128270000Y-138425000D03*
D16*
X135890000Y-140505000D03*
X135890000Y-149055000D03*
X128270000Y-140505000D03*
X128270000Y-149055000D03*
D17*
X125095000Y-123985000D03*
X126365000Y-123985000D03*
X127635000Y-123985000D03*
X128905000Y-123985000D03*
X130175000Y-123985000D03*
X131445000Y-123985000D03*
X132715000Y-123985000D03*
X133985000Y-123985000D03*
X133985000Y-118585000D03*
X132715000Y-118585000D03*
X131445000Y-118585000D03*
X130175000Y-118585000D03*
X128905000Y-118585000D03*
X127635000Y-118585000D03*
X126365000Y-118585000D03*
X125095000Y-118585000D03*
D18*
X141825000Y-114870000D03*
X123825000Y-114870000D03*
D19*
X123825000Y-102870000D03*
D18*
X123825000Y-104370000D03*
X123825000Y-105870000D03*
X123825000Y-107370000D03*
X123825000Y-108870000D03*
X123825000Y-110370000D03*
X123825000Y-111870000D03*
X123825000Y-113370000D03*
X141825000Y-113370000D03*
X141825000Y-111870000D03*
X141825000Y-110370000D03*
X141825000Y-108870000D03*
X141825000Y-107370000D03*
X141825000Y-105870000D03*
X141825000Y-104370000D03*
X141825000Y-102870000D03*
D20*
X133945000Y-109450000D03*
M02*
