G04 #@! TF.FileFunction,Legend,Bot*
%FSLAX46Y46*%
G04 Gerber Fmt 4.6, Leading zero omitted, Abs format (unit mm)*
G04 Created by KiCad (PCBNEW 4.0.3+e1-6302~38~ubuntu14.04.1-stable) date Tue Aug 30 16:59:56 2016*
%MOMM*%
%LPD*%
G01*
G04 APERTURE LIST*
%ADD10C,0.100000*%
%ADD11C,0.150000*%
G04 APERTURE END LIST*
D10*
D11*
X172212000Y-113792000D02*
X136652000Y-113792000D01*
X136652000Y-113792000D02*
X136652000Y-111252000D01*
X136652000Y-111252000D02*
X172212000Y-111252000D01*
X175032000Y-110972000D02*
X173482000Y-110972000D01*
X172212000Y-111252000D02*
X172212000Y-113792000D01*
X173482000Y-114072000D02*
X175032000Y-114072000D01*
X175032000Y-114072000D02*
X175032000Y-110972000D01*
X172212000Y-133604000D02*
X136652000Y-133604000D01*
X136652000Y-133604000D02*
X136652000Y-131064000D01*
X136652000Y-131064000D02*
X172212000Y-131064000D01*
X175032000Y-130784000D02*
X173482000Y-130784000D01*
X172212000Y-131064000D02*
X172212000Y-133604000D01*
X173482000Y-133884000D02*
X175032000Y-133884000D01*
X175032000Y-133884000D02*
X175032000Y-130784000D01*
X175314000Y-114813000D02*
X158814000Y-114813000D01*
X158814000Y-114813000D02*
X158814000Y-129563000D01*
X158814000Y-129563000D02*
X158814000Y-130063000D01*
X158814000Y-130063000D02*
X175314000Y-130063000D01*
X175314000Y-130063000D02*
X175314000Y-114813000D01*
X171314000Y-123063000D02*
X166314000Y-123063000D01*
X166314000Y-123063000D02*
X167314000Y-124063000D01*
X167314000Y-124063000D02*
X166314000Y-123063000D01*
X166314000Y-123063000D02*
X167314000Y-122063000D01*
X174728095Y-115514381D02*
X174728095Y-114514381D01*
X174347142Y-114514381D01*
X174251904Y-114562000D01*
X174204285Y-114609619D01*
X174156666Y-114704857D01*
X174156666Y-114847714D01*
X174204285Y-114942952D01*
X174251904Y-114990571D01*
X174347142Y-115038190D01*
X174728095Y-115038190D01*
X173204285Y-115514381D02*
X173775714Y-115514381D01*
X173490000Y-115514381D02*
X173490000Y-114514381D01*
X173585238Y-114657238D01*
X173680476Y-114752476D01*
X173775714Y-114800095D01*
X174728095Y-130246381D02*
X174728095Y-129246381D01*
X174347142Y-129246381D01*
X174251904Y-129294000D01*
X174204285Y-129341619D01*
X174156666Y-129436857D01*
X174156666Y-129579714D01*
X174204285Y-129674952D01*
X174251904Y-129722571D01*
X174347142Y-129770190D01*
X174728095Y-129770190D01*
X173823333Y-129246381D02*
X173204285Y-129246381D01*
X173537619Y-129627333D01*
X173394761Y-129627333D01*
X173299523Y-129674952D01*
X173251904Y-129722571D01*
X173204285Y-129817810D01*
X173204285Y-130055905D01*
X173251904Y-130151143D01*
X173299523Y-130198762D01*
X173394761Y-130246381D01*
X173680476Y-130246381D01*
X173775714Y-130198762D01*
X173823333Y-130151143D01*
X158297143Y-121545715D02*
X158344762Y-121498096D01*
X158392381Y-121355239D01*
X158392381Y-121260001D01*
X158344762Y-121117143D01*
X158249524Y-121021905D01*
X158154286Y-120974286D01*
X157963810Y-120926667D01*
X157820952Y-120926667D01*
X157630476Y-120974286D01*
X157535238Y-121021905D01*
X157440000Y-121117143D01*
X157392381Y-121260001D01*
X157392381Y-121355239D01*
X157440000Y-121498096D01*
X157487619Y-121545715D01*
X157392381Y-122164762D02*
X157392381Y-122355239D01*
X157440000Y-122450477D01*
X157535238Y-122545715D01*
X157725714Y-122593334D01*
X158059048Y-122593334D01*
X158249524Y-122545715D01*
X158344762Y-122450477D01*
X158392381Y-122355239D01*
X158392381Y-122164762D01*
X158344762Y-122069524D01*
X158249524Y-121974286D01*
X158059048Y-121926667D01*
X157725714Y-121926667D01*
X157535238Y-121974286D01*
X157440000Y-122069524D01*
X157392381Y-122164762D01*
X158392381Y-123021905D02*
X157392381Y-123021905D01*
X158392381Y-123593334D01*
X157392381Y-123593334D01*
X158392381Y-124593334D02*
X158392381Y-124021905D01*
X158392381Y-124307619D02*
X157392381Y-124307619D01*
X157535238Y-124212381D01*
X157630476Y-124117143D01*
X157678095Y-124021905D01*
M02*
