G04 #@! TF.FileFunction,Legend,Top*
%FSLAX46Y46*%
G04 Gerber Fmt 4.6, Leading zero omitted, Abs format (unit mm)*
G04 Created by KiCad (PCBNEW 4.0.4+e1-6308~48~ubuntu16.04.1-stable) date Fri Sep  2 10:56:05 2016*
%MOMM*%
%LPD*%
G01*
G04 APERTURE LIST*
%ADD10C,0.100000*%
%ADD11C,0.200000*%
%ADD12C,0.150000*%
%ADD13C,0.152400*%
G04 APERTURE END LIST*
D10*
D11*
X155851905Y-138462381D02*
X155518571Y-137986190D01*
X155280476Y-138462381D02*
X155280476Y-137462381D01*
X155661429Y-137462381D01*
X155756667Y-137510000D01*
X155804286Y-137557619D01*
X155851905Y-137652857D01*
X155851905Y-137795714D01*
X155804286Y-137890952D01*
X155756667Y-137938571D01*
X155661429Y-137986190D01*
X155280476Y-137986190D01*
X156661429Y-138414762D02*
X156566191Y-138462381D01*
X156375714Y-138462381D01*
X156280476Y-138414762D01*
X156232857Y-138319524D01*
X156232857Y-137938571D01*
X156280476Y-137843333D01*
X156375714Y-137795714D01*
X156566191Y-137795714D01*
X156661429Y-137843333D01*
X156709048Y-137938571D01*
X156709048Y-138033810D01*
X156232857Y-138129048D01*
X157090000Y-138414762D02*
X157185238Y-138462381D01*
X157375714Y-138462381D01*
X157470953Y-138414762D01*
X157518572Y-138319524D01*
X157518572Y-138271905D01*
X157470953Y-138176667D01*
X157375714Y-138129048D01*
X157232857Y-138129048D01*
X157137619Y-138081429D01*
X157090000Y-137986190D01*
X157090000Y-137938571D01*
X157137619Y-137843333D01*
X157232857Y-137795714D01*
X157375714Y-137795714D01*
X157470953Y-137843333D01*
X158328096Y-138414762D02*
X158232858Y-138462381D01*
X158042381Y-138462381D01*
X157947143Y-138414762D01*
X157899524Y-138319524D01*
X157899524Y-137938571D01*
X157947143Y-137843333D01*
X158042381Y-137795714D01*
X158232858Y-137795714D01*
X158328096Y-137843333D01*
X158375715Y-137938571D01*
X158375715Y-138033810D01*
X157899524Y-138129048D01*
X158661429Y-137795714D02*
X159042381Y-137795714D01*
X158804286Y-137462381D02*
X158804286Y-138319524D01*
X158851905Y-138414762D01*
X158947143Y-138462381D01*
X159042381Y-138462381D01*
X143561429Y-137938571D02*
X143228095Y-137938571D01*
X143228095Y-138462381D02*
X143228095Y-137462381D01*
X143704286Y-137462381D01*
X144228095Y-138462381D02*
X144132857Y-138414762D01*
X144085238Y-138319524D01*
X144085238Y-137462381D01*
X145037620Y-138462381D02*
X145037620Y-137938571D01*
X144990001Y-137843333D01*
X144894763Y-137795714D01*
X144704286Y-137795714D01*
X144609048Y-137843333D01*
X145037620Y-138414762D02*
X144942382Y-138462381D01*
X144704286Y-138462381D01*
X144609048Y-138414762D01*
X144561429Y-138319524D01*
X144561429Y-138224286D01*
X144609048Y-138129048D01*
X144704286Y-138081429D01*
X144942382Y-138081429D01*
X145037620Y-138033810D01*
X145466191Y-138414762D02*
X145561429Y-138462381D01*
X145751905Y-138462381D01*
X145847144Y-138414762D01*
X145894763Y-138319524D01*
X145894763Y-138271905D01*
X145847144Y-138176667D01*
X145751905Y-138129048D01*
X145609048Y-138129048D01*
X145513810Y-138081429D01*
X145466191Y-137986190D01*
X145466191Y-137938571D01*
X145513810Y-137843333D01*
X145609048Y-137795714D01*
X145751905Y-137795714D01*
X145847144Y-137843333D01*
X146323334Y-138462381D02*
X146323334Y-137462381D01*
X146751906Y-138462381D02*
X146751906Y-137938571D01*
X146704287Y-137843333D01*
X146609049Y-137795714D01*
X146466191Y-137795714D01*
X146370953Y-137843333D01*
X146323334Y-137890952D01*
X157099524Y-110612381D02*
X156528095Y-110612381D01*
X156813809Y-110612381D02*
X156813809Y-109612381D01*
X156718571Y-109755238D01*
X156623333Y-109850476D01*
X156528095Y-109898095D01*
X157956667Y-109612381D02*
X157766190Y-109612381D01*
X157670952Y-109660000D01*
X157623333Y-109707619D01*
X157528095Y-109850476D01*
X157480476Y-110040952D01*
X157480476Y-110421905D01*
X157528095Y-110517143D01*
X157575714Y-110564762D01*
X157670952Y-110612381D01*
X157861429Y-110612381D01*
X157956667Y-110564762D01*
X158004286Y-110517143D01*
X158051905Y-110421905D01*
X158051905Y-110183810D01*
X158004286Y-110088571D01*
X157956667Y-110040952D01*
X157861429Y-109993333D01*
X157670952Y-109993333D01*
X157575714Y-110040952D01*
X157528095Y-110088571D01*
X157480476Y-110183810D01*
X158670952Y-109612381D02*
X158766191Y-109612381D01*
X158861429Y-109660000D01*
X158909048Y-109707619D01*
X158956667Y-109802857D01*
X159004286Y-109993333D01*
X159004286Y-110231429D01*
X158956667Y-110421905D01*
X158909048Y-110517143D01*
X158861429Y-110564762D01*
X158766191Y-110612381D01*
X158670952Y-110612381D01*
X158575714Y-110564762D01*
X158528095Y-110517143D01*
X158480476Y-110421905D01*
X158432857Y-110231429D01*
X158432857Y-109993333D01*
X158480476Y-109802857D01*
X158528095Y-109707619D01*
X158575714Y-109660000D01*
X158670952Y-109612381D01*
X159575714Y-110040952D02*
X159480476Y-109993333D01*
X159432857Y-109945714D01*
X159385238Y-109850476D01*
X159385238Y-109802857D01*
X159432857Y-109707619D01*
X159480476Y-109660000D01*
X159575714Y-109612381D01*
X159766191Y-109612381D01*
X159861429Y-109660000D01*
X159909048Y-109707619D01*
X159956667Y-109802857D01*
X159956667Y-109850476D01*
X159909048Y-109945714D01*
X159861429Y-109993333D01*
X159766191Y-110040952D01*
X159575714Y-110040952D01*
X159480476Y-110088571D01*
X159432857Y-110136190D01*
X159385238Y-110231429D01*
X159385238Y-110421905D01*
X159432857Y-110517143D01*
X159480476Y-110564762D01*
X159575714Y-110612381D01*
X159766191Y-110612381D01*
X159861429Y-110564762D01*
X159909048Y-110517143D01*
X159956667Y-110421905D01*
X159956667Y-110231429D01*
X159909048Y-110136190D01*
X159861429Y-110088571D01*
X159766191Y-110040952D01*
X160290000Y-109612381D02*
X160909048Y-109612381D01*
X160575714Y-109993333D01*
X160718572Y-109993333D01*
X160813810Y-110040952D01*
X160861429Y-110088571D01*
X160909048Y-110183810D01*
X160909048Y-110421905D01*
X160861429Y-110517143D01*
X160813810Y-110564762D01*
X160718572Y-110612381D01*
X160432857Y-110612381D01*
X160337619Y-110564762D01*
X160290000Y-110517143D01*
X161528095Y-109612381D02*
X161623334Y-109612381D01*
X161718572Y-109660000D01*
X161766191Y-109707619D01*
X161813810Y-109802857D01*
X161861429Y-109993333D01*
X161861429Y-110231429D01*
X161813810Y-110421905D01*
X161766191Y-110517143D01*
X161718572Y-110564762D01*
X161623334Y-110612381D01*
X161528095Y-110612381D01*
X161432857Y-110564762D01*
X161385238Y-110517143D01*
X161337619Y-110421905D01*
X161290000Y-110231429D01*
X161290000Y-109993333D01*
X161337619Y-109802857D01*
X161385238Y-109707619D01*
X161432857Y-109660000D01*
X161528095Y-109612381D01*
X162051905Y-110707619D02*
X162813810Y-110707619D01*
X163575715Y-110612381D02*
X163004286Y-110612381D01*
X163290000Y-110612381D02*
X163290000Y-109612381D01*
X163194762Y-109755238D01*
X163099524Y-109850476D01*
X163004286Y-109898095D01*
X163909048Y-109612381D02*
X164575715Y-109612381D01*
X164147143Y-110612381D01*
X165480477Y-110612381D02*
X164909048Y-110612381D01*
X165194762Y-110612381D02*
X165194762Y-109612381D01*
X165099524Y-109755238D01*
X165004286Y-109850476D01*
X164909048Y-109898095D01*
X165813810Y-109612381D02*
X166480477Y-109612381D01*
X166051905Y-110612381D01*
X166861429Y-110231429D02*
X167623334Y-110231429D01*
X168004286Y-109945714D02*
X168194762Y-110612381D01*
X168385239Y-110136190D01*
X168575715Y-110612381D01*
X168766191Y-109945714D01*
X169147143Y-110612381D02*
X169147143Y-109945714D01*
X169147143Y-110136190D02*
X169194762Y-110040952D01*
X169242381Y-109993333D01*
X169337619Y-109945714D01*
X169432858Y-109945714D01*
X169956667Y-109612381D02*
X170051906Y-109612381D01*
X170147144Y-109660000D01*
X170194763Y-109707619D01*
X170242382Y-109802857D01*
X170290001Y-109993333D01*
X170290001Y-110231429D01*
X170242382Y-110421905D01*
X170194763Y-110517143D01*
X170147144Y-110564762D01*
X170051906Y-110612381D01*
X169956667Y-110612381D01*
X169861429Y-110564762D01*
X169813810Y-110517143D01*
X169766191Y-110421905D01*
X169718572Y-110231429D01*
X169718572Y-109993333D01*
X169766191Y-109802857D01*
X169813810Y-109707619D01*
X169861429Y-109660000D01*
X169956667Y-109612381D01*
X170670953Y-109707619D02*
X170718572Y-109660000D01*
X170813810Y-109612381D01*
X171051906Y-109612381D01*
X171147144Y-109660000D01*
X171194763Y-109707619D01*
X171242382Y-109802857D01*
X171242382Y-109898095D01*
X171194763Y-110040952D01*
X170623334Y-110612381D01*
X171242382Y-110612381D01*
X171623334Y-110564762D02*
X171718572Y-110612381D01*
X171909048Y-110612381D01*
X172004287Y-110564762D01*
X172051906Y-110469524D01*
X172051906Y-110421905D01*
X172004287Y-110326667D01*
X171909048Y-110279048D01*
X171766191Y-110279048D01*
X171670953Y-110231429D01*
X171623334Y-110136190D01*
X171623334Y-110088571D01*
X171670953Y-109993333D01*
X171766191Y-109945714D01*
X171909048Y-109945714D01*
X172004287Y-109993333D01*
X172909049Y-110612381D02*
X172909049Y-109612381D01*
X172909049Y-110564762D02*
X172813811Y-110612381D01*
X172623334Y-110612381D01*
X172528096Y-110564762D01*
X172480477Y-110517143D01*
X172432858Y-110421905D01*
X172432858Y-110136190D01*
X172480477Y-110040952D01*
X172528096Y-109993333D01*
X172623334Y-109945714D01*
X172813811Y-109945714D01*
X172909049Y-109993333D01*
X173385239Y-110231429D02*
X174147144Y-110231429D01*
X174575715Y-110326667D02*
X175051906Y-110326667D01*
X174480477Y-110612381D02*
X174813810Y-109612381D01*
X175147144Y-110612381D01*
X167273927Y-135412381D02*
X167398927Y-134412381D01*
X167642976Y-135126667D01*
X168065594Y-134412381D01*
X167940594Y-135412381D01*
X168845356Y-135412381D02*
X168910833Y-134888571D01*
X168875118Y-134793333D01*
X168785833Y-134745714D01*
X168595356Y-134745714D01*
X168494165Y-134793333D01*
X168851309Y-135364762D02*
X168750118Y-135412381D01*
X168512022Y-135412381D01*
X168422737Y-135364762D01*
X168387023Y-135269524D01*
X168398927Y-135174286D01*
X168458451Y-135079048D01*
X168559641Y-135031429D01*
X168797737Y-135031429D01*
X168898928Y-134983810D01*
X169309642Y-134745714D02*
X169833452Y-134745714D01*
X169226308Y-135412381D01*
X169750118Y-135412381D01*
X170119166Y-134745714D02*
X170642976Y-134745714D01*
X170035832Y-135412381D01*
X170559642Y-135412381D01*
X171369166Y-135412381D02*
X171434643Y-134888571D01*
X171398928Y-134793333D01*
X171309643Y-134745714D01*
X171119166Y-134745714D01*
X171017975Y-134793333D01*
X171375119Y-135364762D02*
X171273928Y-135412381D01*
X171035832Y-135412381D01*
X170946547Y-135364762D01*
X170910833Y-135269524D01*
X170922737Y-135174286D01*
X170982261Y-135079048D01*
X171083451Y-135031429D01*
X171321547Y-135031429D01*
X171422738Y-134983810D01*
X172279881Y-135364762D02*
X172178690Y-135412381D01*
X171988213Y-135412381D01*
X171898928Y-135364762D01*
X171857261Y-135317143D01*
X171821547Y-135221905D01*
X171857261Y-134936190D01*
X171916785Y-134840952D01*
X171970356Y-134793333D01*
X172071547Y-134745714D01*
X172262024Y-134745714D01*
X172351309Y-134793333D01*
X172702499Y-135412381D02*
X172785833Y-134745714D01*
X172762023Y-134936190D02*
X172821547Y-134840952D01*
X172875118Y-134793333D01*
X172976309Y-134745714D01*
X173071548Y-134745714D01*
X173750119Y-135412381D02*
X173815596Y-134888571D01*
X173779881Y-134793333D01*
X173690596Y-134745714D01*
X173500119Y-134745714D01*
X173398928Y-134793333D01*
X173756072Y-135364762D02*
X173654881Y-135412381D01*
X173416785Y-135412381D01*
X173327500Y-135364762D01*
X173291786Y-135269524D01*
X173303690Y-135174286D01*
X173363214Y-135079048D01*
X173464404Y-135031429D01*
X173702500Y-135031429D01*
X173803691Y-134983810D01*
X174166786Y-134745714D02*
X174547738Y-134745714D01*
X174226309Y-135412381D02*
X174333452Y-134555238D01*
X174392976Y-134460000D01*
X174494166Y-134412381D01*
X174589404Y-134412381D01*
X174738215Y-134745714D02*
X175119167Y-134745714D01*
X174922738Y-134412381D02*
X174815596Y-135269524D01*
X174851310Y-135364762D01*
X174940595Y-135412381D01*
X175035833Y-135412381D01*
D12*
X152489240Y-116661000D02*
X152890560Y-116460340D01*
X152890560Y-116460340D02*
X153490000Y-116358740D01*
X153490000Y-116358740D02*
X153990380Y-116460340D01*
X153990380Y-116460340D02*
X154688880Y-116859120D01*
X154688880Y-116859120D02*
X155090200Y-117461100D01*
X155090200Y-117461100D02*
X155290860Y-118060540D01*
X155290860Y-118060540D02*
X155290860Y-124659460D01*
X155290860Y-124659460D02*
X155090200Y-125360500D01*
X155090200Y-125360500D02*
X154790480Y-125759280D01*
X154790480Y-125759280D02*
X154290100Y-126160600D01*
X154290100Y-126160600D02*
X153690660Y-126361260D01*
X153690660Y-126361260D02*
X153190280Y-126361260D01*
X153190280Y-126361260D02*
X152689900Y-126160600D01*
X152689900Y-126160600D02*
X152090460Y-125660220D01*
X152090460Y-125660220D02*
X151790740Y-125159840D01*
X151790740Y-125159840D02*
X151689140Y-124659460D01*
X151689140Y-124560400D02*
X151689140Y-117958940D01*
X151689140Y-117958940D02*
X151790740Y-117560160D01*
X151790740Y-117560160D02*
X152090460Y-117059780D01*
X152090460Y-117059780D02*
X152590840Y-116559400D01*
X151160820Y-124550240D02*
X151209080Y-125009980D01*
X151209080Y-125009980D02*
X151320840Y-125408760D01*
X151320840Y-125408760D02*
X151539280Y-125840560D01*
X151539280Y-125840560D02*
X151770420Y-126130120D01*
X151770420Y-126130120D02*
X152120940Y-126460320D01*
X152120940Y-126460320D02*
X152659420Y-126749880D01*
X152659420Y-126749880D02*
X153258860Y-126879420D01*
X153258860Y-126879420D02*
X153769400Y-126879420D01*
X153769400Y-126879420D02*
X154470440Y-126709240D01*
X154470440Y-126709240D02*
X155059720Y-126310460D01*
X155059720Y-126310460D02*
X155430560Y-125850720D01*
X155430560Y-125850720D02*
X155638840Y-125429080D01*
X155638840Y-125429080D02*
X155798860Y-124979500D01*
X155798860Y-124979500D02*
X155829340Y-124540080D01*
X155610900Y-117199480D02*
X155389920Y-116821020D01*
X155389920Y-116821020D02*
X155110520Y-116500980D01*
X155110520Y-116500980D02*
X154780320Y-116249520D01*
X154780320Y-116249520D02*
X154229140Y-115949800D01*
X154229140Y-115949800D02*
X153759240Y-115840580D01*
X153759240Y-115840580D02*
X153299500Y-115820260D01*
X153299500Y-115820260D02*
X152839760Y-115909160D01*
X152839760Y-115909160D02*
X152390180Y-116099660D01*
X152390180Y-116099660D02*
X151920280Y-116460340D01*
X151920280Y-116460340D02*
X151600240Y-116810860D01*
X151600240Y-116810860D02*
X151369100Y-117199480D01*
X151369100Y-117199480D02*
X151229400Y-117628740D01*
X151229400Y-117628740D02*
X151160820Y-118070700D01*
X155819180Y-124560400D02*
X155819180Y-118108800D01*
X155819180Y-118108800D02*
X155781080Y-117689700D01*
X155781080Y-117689700D02*
X155610900Y-117199480D01*
X151160820Y-124560400D02*
X151160820Y-118108800D01*
X169647000Y-125247200D02*
X169647000Y-126872800D01*
X172390200Y-126872800D02*
X172390200Y-125247200D01*
X172390200Y-125247200D02*
X169189800Y-125247200D01*
X169189800Y-125247200D02*
X169189800Y-126872800D01*
X169189800Y-126872800D02*
X172390200Y-126872800D01*
X143205200Y-97917000D02*
X144830800Y-97917000D01*
X144830800Y-95173800D02*
X143205200Y-95173800D01*
X143205200Y-95173800D02*
X143205200Y-98374200D01*
X143205200Y-98374200D02*
X144830800Y-98374200D01*
X144830800Y-98374200D02*
X144830800Y-95173800D01*
X145490000Y-120960000D02*
X137190000Y-120960000D01*
X137190000Y-114560000D02*
X145490000Y-114560000D01*
X136490000Y-124110000D02*
X140990000Y-124110000D01*
X140990000Y-124110000D02*
X140990000Y-130010000D01*
X140990000Y-130010000D02*
X136490000Y-130010000D01*
X136490000Y-130010000D02*
X136490000Y-124110000D01*
X140990000Y-126560000D02*
X140490000Y-126560000D01*
X140490000Y-126560000D02*
X140490000Y-124610000D01*
X140490000Y-124610000D02*
X136990000Y-124610000D01*
X136990000Y-124610000D02*
X136990000Y-129510000D01*
X136990000Y-129510000D02*
X140490000Y-129510000D01*
X140490000Y-129510000D02*
X140490000Y-127560000D01*
X140490000Y-127560000D02*
X140990000Y-127560000D01*
X139790000Y-124110000D02*
X139790000Y-124610000D01*
X138490000Y-124110000D02*
X138490000Y-124610000D01*
X139790000Y-129510000D02*
X139790000Y-130010000D01*
X138490000Y-129510000D02*
X138490000Y-130010000D01*
X140990000Y-125760000D02*
X141190000Y-125760000D01*
X141190000Y-125760000D02*
X141190000Y-125460000D01*
X141190000Y-125460000D02*
X140990000Y-125460000D01*
X141090000Y-125760000D02*
X141090000Y-125460000D01*
X136990000Y-126960000D02*
X137490000Y-126960000D01*
X137490000Y-126960000D02*
X137490000Y-127160000D01*
X137490000Y-127160000D02*
X136990000Y-127160000D01*
X136990000Y-127060000D02*
X137490000Y-127060000D01*
X168065000Y-121235000D02*
X168040000Y-121235000D01*
X168065000Y-125385000D02*
X167960000Y-125385000D01*
X157915000Y-125385000D02*
X158020000Y-125385000D01*
X157915000Y-121235000D02*
X158020000Y-121235000D01*
X168065000Y-121235000D02*
X168065000Y-125385000D01*
X157915000Y-121235000D02*
X157915000Y-125385000D01*
X168040000Y-121235000D02*
X168040000Y-119860000D01*
X141934000Y-127434000D02*
X141934000Y-130482000D01*
X141934000Y-130482000D02*
X149046000Y-130482000D01*
X149046000Y-130482000D02*
X149046000Y-127434000D01*
X141934000Y-124386000D02*
X141934000Y-123624000D01*
X141934000Y-123624000D02*
X143458000Y-121338000D01*
X143458000Y-121338000D02*
X147522000Y-121338000D01*
X147522000Y-121338000D02*
X149046000Y-123624000D01*
X149046000Y-123624000D02*
X149046000Y-124386000D01*
D13*
X147066000Y-88265000D02*
X147066000Y-94450000D01*
X165049200Y-107850000D02*
X165049200Y-108229400D01*
X147066000Y-107850000D02*
X147066000Y-108229400D01*
X165049200Y-88265000D02*
X165049200Y-94450000D01*
X147066000Y-108267500D02*
X165049200Y-108267500D01*
X165036500Y-88265000D02*
X147066000Y-88265000D01*
D12*
X159439100Y-144277460D02*
X168139100Y-144277460D01*
X159439100Y-137872460D02*
X168139100Y-137872460D01*
X168139100Y-137872460D02*
X168139100Y-144277460D01*
X168139100Y-143047460D02*
X159439100Y-143047460D01*
X159439100Y-144277460D02*
X159439100Y-137872460D01*
X156390000Y-141160000D02*
X153590000Y-141160000D01*
X153590000Y-141160000D02*
X153590000Y-139760000D01*
X153590000Y-139760000D02*
X156390000Y-139760000D01*
X156390000Y-139760000D02*
X156390000Y-141160000D01*
X151990000Y-142210000D02*
X151990000Y-141560000D01*
X151990000Y-138710000D02*
X151990000Y-139360000D01*
X157990000Y-139360000D02*
X157990000Y-138710000D01*
X157990000Y-142210000D02*
X157990000Y-141560000D01*
X151990000Y-142210000D02*
X157990000Y-142210000D01*
X157990000Y-138710000D02*
X151990000Y-138710000D01*
X145590000Y-139760000D02*
X148390000Y-139760000D01*
X148390000Y-139760000D02*
X148390000Y-141160000D01*
X148390000Y-141160000D02*
X145590000Y-141160000D01*
X145590000Y-141160000D02*
X145590000Y-139760000D01*
X149990000Y-138710000D02*
X149990000Y-139360000D01*
X149990000Y-142210000D02*
X149990000Y-141560000D01*
X143990000Y-141560000D02*
X143990000Y-142210000D01*
X143990000Y-138710000D02*
X143990000Y-139360000D01*
X149990000Y-138710000D02*
X143990000Y-138710000D01*
X143990000Y-142210000D02*
X149990000Y-142210000D01*
X156040000Y-123460000D02*
X156040000Y-122760000D01*
X157240000Y-122760000D02*
X157240000Y-123460000D01*
X157240000Y-119510000D02*
X157240000Y-120210000D01*
X156040000Y-120210000D02*
X156040000Y-119510000D01*
X163540000Y-117210000D02*
X162540000Y-117210000D01*
X162540000Y-118910000D02*
X163540000Y-118910000D01*
X168590000Y-122260000D02*
X168590000Y-123260000D01*
X170290000Y-123260000D02*
X170290000Y-122260000D01*
X140340000Y-123360000D02*
X139640000Y-123360000D01*
X139640000Y-122160000D02*
X140340000Y-122160000D01*
X147633000Y-136022800D02*
X147633000Y-134397200D01*
X144889800Y-134397200D02*
X144889800Y-136022800D01*
X144889800Y-136022800D02*
X148090200Y-136022800D01*
X148090200Y-136022800D02*
X148090200Y-134397200D01*
X148090200Y-134397200D02*
X144889800Y-134397200D01*
X155090000Y-136160000D02*
X155090000Y-135460000D01*
X156290000Y-135460000D02*
X156290000Y-136160000D01*
X139440000Y-110485000D02*
X138440000Y-110485000D01*
X138440000Y-109135000D02*
X139440000Y-109135000D01*
X139440000Y-108385000D02*
X138440000Y-108385000D01*
X138440000Y-107035000D02*
X139440000Y-107035000D01*
X143490000Y-101435000D02*
X142490000Y-101435000D01*
X142490000Y-100085000D02*
X143490000Y-100085000D01*
X142502000Y-102195000D02*
X143502000Y-102195000D01*
X143502000Y-103545000D02*
X142502000Y-103545000D01*
X143502000Y-105577000D02*
X142502000Y-105577000D01*
X142502000Y-104227000D02*
X143502000Y-104227000D01*
X143502000Y-107609000D02*
X142502000Y-107609000D01*
X142502000Y-106259000D02*
X143502000Y-106259000D01*
X143502000Y-109641000D02*
X142502000Y-109641000D01*
X142502000Y-108291000D02*
X143502000Y-108291000D01*
X149565000Y-137460000D02*
X149565000Y-136460000D01*
X150915000Y-136460000D02*
X150915000Y-137460000D01*
X153465000Y-135060000D02*
X153465000Y-136060000D01*
X152115000Y-136060000D02*
X152115000Y-135060000D01*
X152913809Y-127686190D02*
X152913809Y-128162381D01*
X152580476Y-127162381D02*
X152913809Y-127686190D01*
X153247143Y-127162381D01*
X154104286Y-128162381D02*
X153532857Y-128162381D01*
X153818571Y-128162381D02*
X153818571Y-127162381D01*
X153723333Y-127305238D01*
X153628095Y-127400476D01*
X153532857Y-127448095D01*
X170623334Y-128117143D02*
X170575715Y-128164762D01*
X170432858Y-128212381D01*
X170337620Y-128212381D01*
X170194762Y-128164762D01*
X170099524Y-128069524D01*
X170051905Y-127974286D01*
X170004286Y-127783810D01*
X170004286Y-127640952D01*
X170051905Y-127450476D01*
X170099524Y-127355238D01*
X170194762Y-127260000D01*
X170337620Y-127212381D01*
X170432858Y-127212381D01*
X170575715Y-127260000D01*
X170623334Y-127307619D01*
X171480477Y-127545714D02*
X171480477Y-128212381D01*
X171242381Y-127164762D02*
X171004286Y-127879048D01*
X171623334Y-127879048D01*
X145847143Y-96926666D02*
X145894762Y-96974285D01*
X145942381Y-97117142D01*
X145942381Y-97212380D01*
X145894762Y-97355238D01*
X145799524Y-97450476D01*
X145704286Y-97498095D01*
X145513810Y-97545714D01*
X145370952Y-97545714D01*
X145180476Y-97498095D01*
X145085238Y-97450476D01*
X144990000Y-97355238D01*
X144942381Y-97212380D01*
X144942381Y-97117142D01*
X144990000Y-96974285D01*
X145037619Y-96926666D01*
X145370952Y-96355238D02*
X145323333Y-96450476D01*
X145275714Y-96498095D01*
X145180476Y-96545714D01*
X145132857Y-96545714D01*
X145037619Y-96498095D01*
X144990000Y-96450476D01*
X144942381Y-96355238D01*
X144942381Y-96164761D01*
X144990000Y-96069523D01*
X145037619Y-96021904D01*
X145132857Y-95974285D01*
X145180476Y-95974285D01*
X145275714Y-96021904D01*
X145323333Y-96069523D01*
X145370952Y-96164761D01*
X145370952Y-96355238D01*
X145418571Y-96450476D01*
X145466190Y-96498095D01*
X145561429Y-96545714D01*
X145751905Y-96545714D01*
X145847143Y-96498095D01*
X145894762Y-96450476D01*
X145942381Y-96355238D01*
X145942381Y-96164761D01*
X145894762Y-96069523D01*
X145847143Y-96021904D01*
X145751905Y-95974285D01*
X145561429Y-95974285D01*
X145466190Y-96021904D01*
X145418571Y-96069523D01*
X145370952Y-96164761D01*
X148538381Y-118498095D02*
X147538381Y-118498095D01*
X147538381Y-118260000D01*
X147586000Y-118117142D01*
X147681238Y-118021904D01*
X147776476Y-117974285D01*
X147966952Y-117926666D01*
X148109810Y-117926666D01*
X148300286Y-117974285D01*
X148395524Y-118021904D01*
X148490762Y-118117142D01*
X148538381Y-118260000D01*
X148538381Y-118498095D01*
X148538381Y-116974285D02*
X148538381Y-117545714D01*
X148538381Y-117260000D02*
X147538381Y-117260000D01*
X147681238Y-117355238D01*
X147776476Y-117450476D01*
X147824095Y-117545714D01*
X142282381Y-127814095D02*
X141282381Y-127814095D01*
X141282381Y-127433142D01*
X141330000Y-127337904D01*
X141377619Y-127290285D01*
X141472857Y-127242666D01*
X141615714Y-127242666D01*
X141710952Y-127290285D01*
X141758571Y-127337904D01*
X141806190Y-127433142D01*
X141806190Y-127814095D01*
X141615714Y-126385523D02*
X142282381Y-126385523D01*
X141234762Y-126623619D02*
X141949048Y-126861714D01*
X141949048Y-126242666D01*
X166378095Y-127212381D02*
X166378095Y-128021905D01*
X166425714Y-128117143D01*
X166473333Y-128164762D01*
X166568571Y-128212381D01*
X166759048Y-128212381D01*
X166854286Y-128164762D01*
X166901905Y-128117143D01*
X166949524Y-128021905D01*
X166949524Y-127212381D01*
X167949524Y-128212381D02*
X167378095Y-128212381D01*
X167663809Y-128212381D02*
X167663809Y-127212381D01*
X167568571Y-127355238D01*
X167473333Y-127450476D01*
X167378095Y-127498095D01*
X144728095Y-124600381D02*
X144728095Y-125409905D01*
X144775714Y-125505143D01*
X144823333Y-125552762D01*
X144918571Y-125600381D01*
X145109048Y-125600381D01*
X145204286Y-125552762D01*
X145251905Y-125505143D01*
X145299524Y-125409905D01*
X145299524Y-124600381D01*
X145728095Y-124695619D02*
X145775714Y-124648000D01*
X145870952Y-124600381D01*
X146109048Y-124600381D01*
X146204286Y-124648000D01*
X146251905Y-124695619D01*
X146299524Y-124790857D01*
X146299524Y-124886095D01*
X146251905Y-125028952D01*
X145680476Y-125600381D01*
X146299524Y-125600381D01*
X166678095Y-106712381D02*
X166678095Y-107521905D01*
X166725714Y-107617143D01*
X166773333Y-107664762D01*
X166868571Y-107712381D01*
X167059048Y-107712381D01*
X167154286Y-107664762D01*
X167201905Y-107617143D01*
X167249524Y-107521905D01*
X167249524Y-106712381D01*
X167630476Y-106712381D02*
X168249524Y-106712381D01*
X167916190Y-107093333D01*
X168059048Y-107093333D01*
X168154286Y-107140952D01*
X168201905Y-107188571D01*
X168249524Y-107283810D01*
X168249524Y-107521905D01*
X168201905Y-107617143D01*
X168154286Y-107664762D01*
X168059048Y-107712381D01*
X167773333Y-107712381D01*
X167678095Y-107664762D01*
X167630476Y-107617143D01*
X163051905Y-137462381D02*
X163051905Y-136462381D01*
X163432858Y-136462381D01*
X163528096Y-136510000D01*
X163575715Y-136557619D01*
X163623334Y-136652857D01*
X163623334Y-136795714D01*
X163575715Y-136890952D01*
X163528096Y-136938571D01*
X163432858Y-136986190D01*
X163051905Y-136986190D01*
X164004286Y-136557619D02*
X164051905Y-136510000D01*
X164147143Y-136462381D01*
X164385239Y-136462381D01*
X164480477Y-136510000D01*
X164528096Y-136557619D01*
X164575715Y-136652857D01*
X164575715Y-136748095D01*
X164528096Y-136890952D01*
X163956667Y-137462381D01*
X164575715Y-137462381D01*
X153806667Y-140014762D02*
X153949524Y-140062381D01*
X154187620Y-140062381D01*
X154282858Y-140014762D01*
X154330477Y-139967143D01*
X154378096Y-139871905D01*
X154378096Y-139776667D01*
X154330477Y-139681429D01*
X154282858Y-139633810D01*
X154187620Y-139586190D01*
X153997143Y-139538571D01*
X153901905Y-139490952D01*
X153854286Y-139443333D01*
X153806667Y-139348095D01*
X153806667Y-139252857D01*
X153854286Y-139157619D01*
X153901905Y-139110000D01*
X153997143Y-139062381D01*
X154235239Y-139062381D01*
X154378096Y-139110000D01*
X154711429Y-139062381D02*
X154949524Y-140062381D01*
X155140001Y-139348095D01*
X155330477Y-140062381D01*
X155568572Y-139062381D01*
X155901905Y-139157619D02*
X155949524Y-139110000D01*
X156044762Y-139062381D01*
X156282858Y-139062381D01*
X156378096Y-139110000D01*
X156425715Y-139157619D01*
X156473334Y-139252857D01*
X156473334Y-139348095D01*
X156425715Y-139490952D01*
X155854286Y-140062381D01*
X156473334Y-140062381D01*
X145856667Y-140014762D02*
X145999524Y-140062381D01*
X146237620Y-140062381D01*
X146332858Y-140014762D01*
X146380477Y-139967143D01*
X146428096Y-139871905D01*
X146428096Y-139776667D01*
X146380477Y-139681429D01*
X146332858Y-139633810D01*
X146237620Y-139586190D01*
X146047143Y-139538571D01*
X145951905Y-139490952D01*
X145904286Y-139443333D01*
X145856667Y-139348095D01*
X145856667Y-139252857D01*
X145904286Y-139157619D01*
X145951905Y-139110000D01*
X146047143Y-139062381D01*
X146285239Y-139062381D01*
X146428096Y-139110000D01*
X146761429Y-139062381D02*
X146999524Y-140062381D01*
X147190001Y-139348095D01*
X147380477Y-140062381D01*
X147618572Y-139062381D01*
X148523334Y-140062381D02*
X147951905Y-140062381D01*
X148237619Y-140062381D02*
X148237619Y-139062381D01*
X148142381Y-139205238D01*
X148047143Y-139300476D01*
X147951905Y-139348095D01*
X157147143Y-125626666D02*
X157194762Y-125674285D01*
X157242381Y-125817142D01*
X157242381Y-125912380D01*
X157194762Y-126055238D01*
X157099524Y-126150476D01*
X157004286Y-126198095D01*
X156813810Y-126245714D01*
X156670952Y-126245714D01*
X156480476Y-126198095D01*
X156385238Y-126150476D01*
X156290000Y-126055238D01*
X156242381Y-125912380D01*
X156242381Y-125817142D01*
X156290000Y-125674285D01*
X156337619Y-125626666D01*
X157242381Y-124674285D02*
X157242381Y-125245714D01*
X157242381Y-124960000D02*
X156242381Y-124960000D01*
X156385238Y-125055238D01*
X156480476Y-125150476D01*
X156528095Y-125245714D01*
X157247143Y-117626666D02*
X157294762Y-117674285D01*
X157342381Y-117817142D01*
X157342381Y-117912380D01*
X157294762Y-118055238D01*
X157199524Y-118150476D01*
X157104286Y-118198095D01*
X156913810Y-118245714D01*
X156770952Y-118245714D01*
X156580476Y-118198095D01*
X156485238Y-118150476D01*
X156390000Y-118055238D01*
X156342381Y-117912380D01*
X156342381Y-117817142D01*
X156390000Y-117674285D01*
X156437619Y-117626666D01*
X156437619Y-117245714D02*
X156390000Y-117198095D01*
X156342381Y-117102857D01*
X156342381Y-116864761D01*
X156390000Y-116769523D01*
X156437619Y-116721904D01*
X156532857Y-116674285D01*
X156628095Y-116674285D01*
X156770952Y-116721904D01*
X157342381Y-117293333D01*
X157342381Y-116674285D01*
X162823334Y-116867143D02*
X162775715Y-116914762D01*
X162632858Y-116962381D01*
X162537620Y-116962381D01*
X162394762Y-116914762D01*
X162299524Y-116819524D01*
X162251905Y-116724286D01*
X162204286Y-116533810D01*
X162204286Y-116390952D01*
X162251905Y-116200476D01*
X162299524Y-116105238D01*
X162394762Y-116010000D01*
X162537620Y-115962381D01*
X162632858Y-115962381D01*
X162775715Y-116010000D01*
X162823334Y-116057619D01*
X163156667Y-115962381D02*
X163775715Y-115962381D01*
X163442381Y-116343333D01*
X163585239Y-116343333D01*
X163680477Y-116390952D01*
X163728096Y-116438571D01*
X163775715Y-116533810D01*
X163775715Y-116771905D01*
X163728096Y-116867143D01*
X163680477Y-116914762D01*
X163585239Y-116962381D01*
X163299524Y-116962381D01*
X163204286Y-116914762D01*
X163156667Y-116867143D01*
X169223334Y-120767143D02*
X169175715Y-120814762D01*
X169032858Y-120862381D01*
X168937620Y-120862381D01*
X168794762Y-120814762D01*
X168699524Y-120719524D01*
X168651905Y-120624286D01*
X168604286Y-120433810D01*
X168604286Y-120290952D01*
X168651905Y-120100476D01*
X168699524Y-120005238D01*
X168794762Y-119910000D01*
X168937620Y-119862381D01*
X169032858Y-119862381D01*
X169175715Y-119910000D01*
X169223334Y-119957619D01*
X170080477Y-119862381D02*
X169890000Y-119862381D01*
X169794762Y-119910000D01*
X169747143Y-119957619D01*
X169651905Y-120100476D01*
X169604286Y-120290952D01*
X169604286Y-120671905D01*
X169651905Y-120767143D01*
X169699524Y-120814762D01*
X169794762Y-120862381D01*
X169985239Y-120862381D01*
X170080477Y-120814762D01*
X170128096Y-120767143D01*
X170175715Y-120671905D01*
X170175715Y-120433810D01*
X170128096Y-120338571D01*
X170080477Y-120290952D01*
X169985239Y-120243333D01*
X169794762Y-120243333D01*
X169699524Y-120290952D01*
X169651905Y-120338571D01*
X169604286Y-120433810D01*
X138397143Y-122826666D02*
X138444762Y-122874285D01*
X138492381Y-123017142D01*
X138492381Y-123112380D01*
X138444762Y-123255238D01*
X138349524Y-123350476D01*
X138254286Y-123398095D01*
X138063810Y-123445714D01*
X137920952Y-123445714D01*
X137730476Y-123398095D01*
X137635238Y-123350476D01*
X137540000Y-123255238D01*
X137492381Y-123112380D01*
X137492381Y-123017142D01*
X137540000Y-122874285D01*
X137587619Y-122826666D01*
X137492381Y-121921904D02*
X137492381Y-122398095D01*
X137968571Y-122445714D01*
X137920952Y-122398095D01*
X137873333Y-122302857D01*
X137873333Y-122064761D01*
X137920952Y-121969523D01*
X137968571Y-121921904D01*
X138063810Y-121874285D01*
X138301905Y-121874285D01*
X138397143Y-121921904D01*
X138444762Y-121969523D01*
X138492381Y-122064761D01*
X138492381Y-122302857D01*
X138444762Y-122398095D01*
X138397143Y-122445714D01*
X142773334Y-135667143D02*
X142725715Y-135714762D01*
X142582858Y-135762381D01*
X142487620Y-135762381D01*
X142344762Y-135714762D01*
X142249524Y-135619524D01*
X142201905Y-135524286D01*
X142154286Y-135333810D01*
X142154286Y-135190952D01*
X142201905Y-135000476D01*
X142249524Y-134905238D01*
X142344762Y-134810000D01*
X142487620Y-134762381D01*
X142582858Y-134762381D01*
X142725715Y-134810000D01*
X142773334Y-134857619D01*
X143106667Y-134762381D02*
X143773334Y-134762381D01*
X143344762Y-135762381D01*
X157447143Y-135176666D02*
X157494762Y-135224285D01*
X157542381Y-135367142D01*
X157542381Y-135462380D01*
X157494762Y-135605238D01*
X157399524Y-135700476D01*
X157304286Y-135748095D01*
X157113810Y-135795714D01*
X156970952Y-135795714D01*
X156780476Y-135748095D01*
X156685238Y-135700476D01*
X156590000Y-135605238D01*
X156542381Y-135462380D01*
X156542381Y-135367142D01*
X156590000Y-135224285D01*
X156637619Y-135176666D01*
X157542381Y-134700476D02*
X157542381Y-134510000D01*
X157494762Y-134414761D01*
X157447143Y-134367142D01*
X157304286Y-134271904D01*
X157113810Y-134224285D01*
X156732857Y-134224285D01*
X156637619Y-134271904D01*
X156590000Y-134319523D01*
X156542381Y-134414761D01*
X156542381Y-134605238D01*
X156590000Y-134700476D01*
X156637619Y-134748095D01*
X156732857Y-134795714D01*
X156970952Y-134795714D01*
X157066190Y-134748095D01*
X157113810Y-134700476D01*
X157161429Y-134605238D01*
X157161429Y-134414761D01*
X157113810Y-134319523D01*
X157066190Y-134271904D01*
X156970952Y-134224285D01*
X141342381Y-109926666D02*
X140866190Y-110260000D01*
X141342381Y-110498095D02*
X140342381Y-110498095D01*
X140342381Y-110117142D01*
X140390000Y-110021904D01*
X140437619Y-109974285D01*
X140532857Y-109926666D01*
X140675714Y-109926666D01*
X140770952Y-109974285D01*
X140818571Y-110021904D01*
X140866190Y-110117142D01*
X140866190Y-110498095D01*
X141342381Y-108974285D02*
X141342381Y-109545714D01*
X141342381Y-109260000D02*
X140342381Y-109260000D01*
X140485238Y-109355238D01*
X140580476Y-109450476D01*
X140628095Y-109545714D01*
X141342381Y-107926666D02*
X140866190Y-108260000D01*
X141342381Y-108498095D02*
X140342381Y-108498095D01*
X140342381Y-108117142D01*
X140390000Y-108021904D01*
X140437619Y-107974285D01*
X140532857Y-107926666D01*
X140675714Y-107926666D01*
X140770952Y-107974285D01*
X140818571Y-108021904D01*
X140866190Y-108117142D01*
X140866190Y-108498095D01*
X140437619Y-107545714D02*
X140390000Y-107498095D01*
X140342381Y-107402857D01*
X140342381Y-107164761D01*
X140390000Y-107069523D01*
X140437619Y-107021904D01*
X140532857Y-106974285D01*
X140628095Y-106974285D01*
X140770952Y-107021904D01*
X141342381Y-107593333D01*
X141342381Y-106974285D01*
X145442381Y-100976666D02*
X144966190Y-101310000D01*
X145442381Y-101548095D02*
X144442381Y-101548095D01*
X144442381Y-101167142D01*
X144490000Y-101071904D01*
X144537619Y-101024285D01*
X144632857Y-100976666D01*
X144775714Y-100976666D01*
X144870952Y-101024285D01*
X144918571Y-101071904D01*
X144966190Y-101167142D01*
X144966190Y-101548095D01*
X144442381Y-100643333D02*
X144442381Y-100024285D01*
X144823333Y-100357619D01*
X144823333Y-100214761D01*
X144870952Y-100119523D01*
X144918571Y-100071904D01*
X145013810Y-100024285D01*
X145251905Y-100024285D01*
X145347143Y-100071904D01*
X145394762Y-100119523D01*
X145442381Y-100214761D01*
X145442381Y-100500476D01*
X145394762Y-100595714D01*
X145347143Y-100643333D01*
X145392381Y-103076666D02*
X144916190Y-103410000D01*
X145392381Y-103648095D02*
X144392381Y-103648095D01*
X144392381Y-103267142D01*
X144440000Y-103171904D01*
X144487619Y-103124285D01*
X144582857Y-103076666D01*
X144725714Y-103076666D01*
X144820952Y-103124285D01*
X144868571Y-103171904D01*
X144916190Y-103267142D01*
X144916190Y-103648095D01*
X144725714Y-102219523D02*
X145392381Y-102219523D01*
X144344762Y-102457619D02*
X145059048Y-102695714D01*
X145059048Y-102076666D01*
X145392381Y-105076666D02*
X144916190Y-105410000D01*
X145392381Y-105648095D02*
X144392381Y-105648095D01*
X144392381Y-105267142D01*
X144440000Y-105171904D01*
X144487619Y-105124285D01*
X144582857Y-105076666D01*
X144725714Y-105076666D01*
X144820952Y-105124285D01*
X144868571Y-105171904D01*
X144916190Y-105267142D01*
X144916190Y-105648095D01*
X144392381Y-104171904D02*
X144392381Y-104648095D01*
X144868571Y-104695714D01*
X144820952Y-104648095D01*
X144773333Y-104552857D01*
X144773333Y-104314761D01*
X144820952Y-104219523D01*
X144868571Y-104171904D01*
X144963810Y-104124285D01*
X145201905Y-104124285D01*
X145297143Y-104171904D01*
X145344762Y-104219523D01*
X145392381Y-104314761D01*
X145392381Y-104552857D01*
X145344762Y-104648095D01*
X145297143Y-104695714D01*
X145392381Y-107076666D02*
X144916190Y-107410000D01*
X145392381Y-107648095D02*
X144392381Y-107648095D01*
X144392381Y-107267142D01*
X144440000Y-107171904D01*
X144487619Y-107124285D01*
X144582857Y-107076666D01*
X144725714Y-107076666D01*
X144820952Y-107124285D01*
X144868571Y-107171904D01*
X144916190Y-107267142D01*
X144916190Y-107648095D01*
X144392381Y-106219523D02*
X144392381Y-106410000D01*
X144440000Y-106505238D01*
X144487619Y-106552857D01*
X144630476Y-106648095D01*
X144820952Y-106695714D01*
X145201905Y-106695714D01*
X145297143Y-106648095D01*
X145344762Y-106600476D01*
X145392381Y-106505238D01*
X145392381Y-106314761D01*
X145344762Y-106219523D01*
X145297143Y-106171904D01*
X145201905Y-106124285D01*
X144963810Y-106124285D01*
X144868571Y-106171904D01*
X144820952Y-106219523D01*
X144773333Y-106314761D01*
X144773333Y-106505238D01*
X144820952Y-106600476D01*
X144868571Y-106648095D01*
X144963810Y-106695714D01*
X145392381Y-109126666D02*
X144916190Y-109460000D01*
X145392381Y-109698095D02*
X144392381Y-109698095D01*
X144392381Y-109317142D01*
X144440000Y-109221904D01*
X144487619Y-109174285D01*
X144582857Y-109126666D01*
X144725714Y-109126666D01*
X144820952Y-109174285D01*
X144868571Y-109221904D01*
X144916190Y-109317142D01*
X144916190Y-109698095D01*
X144392381Y-108793333D02*
X144392381Y-108126666D01*
X145392381Y-108555238D01*
X152573334Y-138012381D02*
X152240000Y-137536190D01*
X152001905Y-138012381D02*
X152001905Y-137012381D01*
X152382858Y-137012381D01*
X152478096Y-137060000D01*
X152525715Y-137107619D01*
X152573334Y-137202857D01*
X152573334Y-137345714D01*
X152525715Y-137440952D01*
X152478096Y-137488571D01*
X152382858Y-137536190D01*
X152001905Y-137536190D01*
X153144762Y-137440952D02*
X153049524Y-137393333D01*
X153001905Y-137345714D01*
X152954286Y-137250476D01*
X152954286Y-137202857D01*
X153001905Y-137107619D01*
X153049524Y-137060000D01*
X153144762Y-137012381D01*
X153335239Y-137012381D01*
X153430477Y-137060000D01*
X153478096Y-137107619D01*
X153525715Y-137202857D01*
X153525715Y-137250476D01*
X153478096Y-137345714D01*
X153430477Y-137393333D01*
X153335239Y-137440952D01*
X153144762Y-137440952D01*
X153049524Y-137488571D01*
X153001905Y-137536190D01*
X152954286Y-137631429D01*
X152954286Y-137821905D01*
X153001905Y-137917143D01*
X153049524Y-137964762D01*
X153144762Y-138012381D01*
X153335239Y-138012381D01*
X153430477Y-137964762D01*
X153478096Y-137917143D01*
X153525715Y-137821905D01*
X153525715Y-137631429D01*
X153478096Y-137536190D01*
X153430477Y-137488571D01*
X153335239Y-137440952D01*
X150123334Y-135562381D02*
X149790000Y-135086190D01*
X149551905Y-135562381D02*
X149551905Y-134562381D01*
X149932858Y-134562381D01*
X150028096Y-134610000D01*
X150075715Y-134657619D01*
X150123334Y-134752857D01*
X150123334Y-134895714D01*
X150075715Y-134990952D01*
X150028096Y-135038571D01*
X149932858Y-135086190D01*
X149551905Y-135086190D01*
X150599524Y-135562381D02*
X150790000Y-135562381D01*
X150885239Y-135514762D01*
X150932858Y-135467143D01*
X151028096Y-135324286D01*
X151075715Y-135133810D01*
X151075715Y-134752857D01*
X151028096Y-134657619D01*
X150980477Y-134610000D01*
X150885239Y-134562381D01*
X150694762Y-134562381D01*
X150599524Y-134610000D01*
X150551905Y-134657619D01*
X150504286Y-134752857D01*
X150504286Y-134990952D01*
X150551905Y-135086190D01*
X150599524Y-135133810D01*
X150694762Y-135181429D01*
X150885239Y-135181429D01*
X150980477Y-135133810D01*
X151028096Y-135086190D01*
X151075715Y-134990952D01*
M02*
