G04 #@! TF.FileFunction,Copper,L2,Bot,Signal*
%FSLAX46Y46*%
G04 Gerber Fmt 4.6, Leading zero omitted, Abs format (unit mm)*
G04 Created by KiCad (PCBNEW 4.0.3+e1-6302~38~ubuntu14.04.1-stable) date Wed Aug 31 12:24:13 2016*
%MOMM*%
%LPD*%
G01*
G04 APERTURE LIST*
%ADD10C,0.100000*%
%ADD11C,1.501140*%
%ADD12R,1.727200X2.032000*%
%ADD13O,1.727200X2.032000*%
%ADD14R,1.700000X1.200000*%
%ADD15O,1.700000X1.200000*%
%ADD16O,1.250000X0.950000*%
%ADD17O,1.000000X1.550000*%
%ADD18R,1.200000X0.700000*%
%ADD19R,2.800000X1.000000*%
%ADD20R,1.900000X1.300000*%
%ADD21R,1.200000X1.100000*%
%ADD22R,1.200000X1.000000*%
%ADD23C,0.600000*%
%ADD24C,0.250000*%
%ADD25C,0.600000*%
%ADD26C,0.800000*%
%ADD27C,0.254000*%
G04 APERTURE END LIST*
D10*
D11*
X152040000Y-122419060D03*
X152040000Y-127300940D03*
D12*
X173482000Y-112522000D03*
D13*
X170942000Y-112522000D03*
X168402000Y-112522000D03*
X165862000Y-112522000D03*
X163322000Y-112522000D03*
X160782000Y-112522000D03*
X158242000Y-112522000D03*
X155702000Y-112522000D03*
X153162000Y-112522000D03*
X150622000Y-112522000D03*
X148082000Y-112522000D03*
X145542000Y-112522000D03*
X143002000Y-112522000D03*
X140462000Y-112522000D03*
X137922000Y-112522000D03*
D12*
X173482000Y-132334000D03*
D13*
X170942000Y-132334000D03*
X168402000Y-132334000D03*
X165862000Y-132334000D03*
X163322000Y-132334000D03*
X160782000Y-132334000D03*
X158242000Y-132334000D03*
X155702000Y-132334000D03*
X153162000Y-132334000D03*
X150622000Y-132334000D03*
X148082000Y-132334000D03*
X145542000Y-132334000D03*
X143002000Y-132334000D03*
X140462000Y-132334000D03*
X137922000Y-132334000D03*
D14*
X139290000Y-126060000D03*
D15*
X139290000Y-128060000D03*
D16*
X160821100Y-138899460D03*
X165821100Y-138899460D03*
D17*
X159821100Y-141599460D03*
X166821100Y-141599460D03*
D18*
X159514000Y-118563000D03*
D19*
X173814000Y-115563000D03*
D20*
X174264000Y-129063000D03*
D18*
X159514000Y-117463000D03*
X159514000Y-119663000D03*
X159514000Y-120763000D03*
X159514000Y-121863000D03*
X159514000Y-122963000D03*
X159514000Y-124063000D03*
X159514000Y-125163000D03*
D21*
X159514000Y-126713000D03*
D18*
X159514000Y-116513000D03*
D22*
X164414000Y-115463000D03*
D23*
X155390000Y-130610000D03*
X156840000Y-131110000D03*
X155190000Y-121860000D03*
X155390000Y-128310000D03*
X151940000Y-131110000D03*
X155590000Y-118110000D03*
X163740000Y-117860000D03*
X168590000Y-120610000D03*
X144040000Y-135910000D03*
X145840000Y-127710000D03*
X140290000Y-123610000D03*
X158640002Y-109810000D03*
X158242000Y-99568000D03*
X142113000Y-103251000D03*
X162814000Y-101854000D03*
X162306000Y-96266000D03*
X145034000Y-96266000D03*
X138938000Y-106426000D03*
X146050000Y-108458000D03*
X146558000Y-141478000D03*
X151638000Y-141478000D03*
X164990000Y-137160000D03*
X149240000Y-129210000D03*
X159740000Y-115160000D03*
X154990000Y-123710000D03*
X160390000Y-120710000D03*
X155702000Y-107786002D03*
X155448000Y-104902000D03*
X153416000Y-100076000D03*
X153670000Y-97790000D03*
X162690000Y-109710000D03*
X161390000Y-109710000D03*
X159890000Y-136610000D03*
X157226000Y-136652000D03*
X154305000Y-136652000D03*
X151638000Y-136525000D03*
X164490000Y-135960000D03*
X150114000Y-135763000D03*
X143129000Y-99314000D03*
X145542000Y-94869000D03*
X162690000Y-109710000D03*
X143090000Y-127510000D03*
X154440000Y-130660000D03*
X153740000Y-130610000D03*
X155540000Y-134060000D03*
X154490000Y-134260000D03*
X153090000Y-130610000D03*
X158369000Y-115331000D03*
X150740000Y-117310000D03*
X152290000Y-115460000D03*
X156240000Y-115410000D03*
X146790000Y-120210000D03*
X148190000Y-120310000D03*
X159540000Y-113710000D03*
X159540000Y-111260000D03*
X172720000Y-108712000D03*
X166540000Y-129360000D03*
X162990000Y-135660000D03*
X159690000Y-135710000D03*
X164890000Y-126260000D03*
X167513000Y-104902000D03*
X167513000Y-103505000D03*
X159004000Y-98806000D03*
X161544000Y-101727000D03*
X163340000Y-105410000D03*
X166890000Y-106460000D03*
X160782000Y-98044000D03*
X159390000Y-98010000D03*
X154686000Y-98044000D03*
X154305000Y-99568000D03*
X150368000Y-100584000D03*
X139954000Y-106680000D03*
X160140000Y-130860000D03*
X161340000Y-134010000D03*
X167740000Y-106060000D03*
X169040000Y-105810000D03*
X169690000Y-109560000D03*
X163690000Y-128010000D03*
X160340000Y-128010000D03*
X170390000Y-110110000D03*
X169690000Y-114310000D03*
X167290000Y-127310000D03*
X167090000Y-128710000D03*
X164090000Y-128710000D03*
X159690000Y-128610000D03*
X157590000Y-113960000D03*
X158290000Y-117910000D03*
X160640000Y-118710000D03*
X163790000Y-123310000D03*
X165540000Y-127310000D03*
X165190000Y-129410000D03*
X156972000Y-110744000D03*
X145415000Y-102616000D03*
X149987000Y-102870000D03*
X153670000Y-105283000D03*
X154436000Y-107610000D03*
X157390000Y-117960000D03*
X160990000Y-121760000D03*
X145542000Y-101219000D03*
X149987000Y-101600000D03*
X152908000Y-103632000D03*
X153390000Y-107760000D03*
X149352000Y-100584000D03*
X149340000Y-105860000D03*
X150890000Y-107760000D03*
X151890000Y-111410000D03*
X148690000Y-114010000D03*
X156890000Y-130310000D03*
X144653000Y-103251000D03*
X145669000Y-100076000D03*
X148690000Y-106460000D03*
X150690000Y-108560000D03*
X154740000Y-120960000D03*
X155340000Y-126510000D03*
X144690000Y-108160000D03*
X144340000Y-115510000D03*
X147490000Y-120860000D03*
X146890000Y-124410000D03*
X143490000Y-115260000D03*
X143690000Y-120860000D03*
X143440000Y-124360000D03*
X144526000Y-108966000D03*
X143256000Y-109728000D03*
D24*
X157390000Y-131010000D02*
X156940000Y-131010000D01*
X156940000Y-131010000D02*
X156840000Y-131110000D01*
X162040000Y-131110000D02*
X162040000Y-130910000D01*
X156990000Y-131110000D02*
X156990000Y-133310000D01*
X157090000Y-131010000D02*
X156990000Y-131110000D01*
X157390000Y-131010000D02*
X157090000Y-131010000D01*
X158690000Y-129710000D02*
X157390000Y-131010000D01*
X160840000Y-129710000D02*
X158690000Y-129710000D01*
X162040000Y-130910000D02*
X160840000Y-129710000D01*
X164590000Y-131360000D02*
X164590000Y-131010000D01*
X162040000Y-131060000D02*
X162040000Y-131110000D01*
X162040000Y-131110000D02*
X162040000Y-133260000D01*
X162990000Y-130110000D02*
X162040000Y-131060000D01*
X163690000Y-130110000D02*
X162990000Y-130110000D01*
X164590000Y-131010000D02*
X163690000Y-130110000D01*
D25*
X155390000Y-128310000D02*
X154990000Y-127910000D01*
D24*
X154990000Y-127910000D02*
X154990000Y-127110000D01*
X154990000Y-127110000D02*
X154690000Y-126810000D01*
X154690000Y-126810000D02*
X154690000Y-125660000D01*
X154690000Y-125660000D02*
X154890000Y-125460000D01*
X139290000Y-128060000D02*
X139290000Y-128360000D01*
D25*
X158640002Y-109810000D02*
X158640000Y-109810000D01*
D24*
X170942000Y-132334000D02*
X170942000Y-134058000D01*
X170942000Y-134058000D02*
X170940000Y-134060000D01*
X170940000Y-134060000D02*
X164590000Y-134060000D01*
X164590000Y-134060000D02*
X164590000Y-131360000D01*
X164590000Y-131360000D02*
X164590000Y-131210000D01*
D25*
X149665000Y-128760000D02*
X149240000Y-129210000D01*
X153890000Y-124760000D02*
X149690000Y-124760000D01*
X149690000Y-124760000D02*
X149665000Y-128760000D01*
X153940000Y-124810000D02*
X153890000Y-124760000D01*
X153890000Y-124760000D02*
X153890000Y-124760000D01*
X153890000Y-123710000D02*
X153940000Y-124810000D01*
X154990000Y-123710000D02*
X153890000Y-123710000D01*
D24*
X159514000Y-120763000D02*
X159514000Y-120384000D01*
D25*
X153890000Y-119710000D02*
X153890000Y-123710000D01*
X154390000Y-119210000D02*
X153890000Y-119710000D01*
X157190000Y-119210000D02*
X154390000Y-119210000D01*
X158340000Y-120360000D02*
X157190000Y-119210000D01*
D24*
X159490000Y-120360000D02*
X158340000Y-120360000D01*
X159514000Y-120384000D02*
X159490000Y-120360000D01*
D25*
X159740000Y-115160000D02*
X158590000Y-114010000D01*
X158590000Y-114010000D02*
X158590000Y-112870000D01*
X158590000Y-112870000D02*
X158242000Y-112522000D01*
D24*
X160337000Y-120763000D02*
X159514000Y-120763000D01*
X160390000Y-120710000D02*
X160337000Y-120763000D01*
D26*
X155702000Y-107786002D02*
X155702000Y-105156000D01*
X155702000Y-105156000D02*
X155448000Y-104902000D01*
X153416000Y-100076000D02*
X153416000Y-99949000D01*
X153416000Y-99949000D02*
X153162000Y-99949000D01*
X153162000Y-99949000D02*
X153162000Y-98298000D01*
X153162000Y-98298000D02*
X153670000Y-97790000D01*
D25*
X162658000Y-109742000D02*
X161390000Y-109710000D01*
X162658000Y-109742000D02*
X162690000Y-109710000D01*
D26*
X157226000Y-136652000D02*
X154305000Y-136652000D01*
X159890000Y-136610000D02*
X163840000Y-136610000D01*
X163840000Y-136610000D02*
X164490000Y-135960000D01*
D25*
X151638000Y-136525000D02*
X151638000Y-136519828D01*
X151638000Y-136519828D02*
X151640873Y-136516955D01*
X151640873Y-136516955D02*
X151640873Y-136522127D01*
X151640873Y-136522127D02*
X151638000Y-136525000D01*
X151638000Y-136525000D02*
X151638000Y-136515929D01*
D26*
X151638000Y-136515929D02*
X150114000Y-135763000D01*
X143256000Y-99187000D02*
X143129000Y-99314000D01*
X143256000Y-94869000D02*
X143256000Y-99187000D01*
X145542000Y-94869000D02*
X143256000Y-94869000D01*
D24*
X159500000Y-120777000D02*
X159514000Y-120763000D01*
D25*
X143090000Y-127510000D02*
X141640000Y-126060000D01*
X141640000Y-126060000D02*
X139290000Y-126060000D01*
X139290000Y-126060000D02*
X139390000Y-126060000D01*
D24*
X154440000Y-130660000D02*
X153740000Y-130310000D01*
X153740000Y-130310000D02*
X153740000Y-130610000D01*
X154440000Y-134210000D02*
X154440000Y-130360000D01*
D25*
X154490000Y-134260000D02*
X154440000Y-134210000D01*
X154040000Y-130110000D02*
X153090000Y-130610000D01*
X154440000Y-130360000D02*
X154040000Y-130110000D01*
X150740000Y-117010000D02*
X150740000Y-117310000D01*
X152290000Y-115460000D02*
X150740000Y-117010000D01*
X158290000Y-115410000D02*
X156240000Y-115410000D01*
X158290000Y-115410000D02*
X158369000Y-115331000D01*
D24*
X148090000Y-120210000D02*
X146790000Y-120210000D01*
X148190000Y-120310000D02*
X148090000Y-120210000D01*
X159540000Y-113710000D02*
X159540000Y-111260000D01*
X159590000Y-111260000D02*
X159540000Y-111260000D01*
D25*
X159717000Y-111133000D02*
X160140000Y-108710000D01*
X160140000Y-108710000D02*
X172720000Y-108712000D01*
D24*
X165490000Y-126260000D02*
X164890000Y-126260000D01*
X166390000Y-127160000D02*
X165490000Y-126260000D01*
X166390000Y-129210000D02*
X166390000Y-127160000D01*
X166540000Y-129360000D02*
X166390000Y-129210000D01*
X162940000Y-135710000D02*
X162990000Y-135660000D01*
X159690000Y-135710000D02*
X162940000Y-135710000D01*
X167513000Y-104902000D02*
X167513000Y-103505000D01*
X160909000Y-98806000D02*
X159004000Y-98806000D01*
X161544000Y-99441000D02*
X160909000Y-98806000D01*
X161544000Y-101727000D02*
X161544000Y-99441000D01*
X163640000Y-105710000D02*
X163340000Y-105410000D01*
X166890000Y-106460000D02*
X165940000Y-105664000D01*
X165940000Y-105664000D02*
X163640000Y-105710000D01*
X159390000Y-98010000D02*
X160782000Y-98044000D01*
X154305000Y-98425000D02*
X154686000Y-98044000D01*
X154305000Y-99568000D02*
X154305000Y-98425000D01*
X150876000Y-101092000D02*
X150368000Y-100584000D01*
X150876000Y-103759000D02*
X150876000Y-101092000D01*
X149987000Y-103759000D02*
X150876000Y-103759000D01*
X149733000Y-103505000D02*
X149987000Y-103759000D01*
X149225000Y-103505000D02*
X149733000Y-103505000D01*
X148971000Y-103505000D02*
X149225000Y-103505000D01*
X145669000Y-103505000D02*
X148971000Y-103505000D01*
X145161000Y-104013000D02*
X145669000Y-103505000D01*
X144526000Y-104013000D02*
X145161000Y-104013000D01*
X141859000Y-106680000D02*
X144526000Y-104013000D01*
X139954000Y-106680000D02*
X141859000Y-106680000D01*
X159490000Y-131360000D02*
X160140000Y-130860000D01*
X159490000Y-133310000D02*
X159490000Y-131360000D01*
X160090000Y-133910000D02*
X159490000Y-133310000D01*
X161240000Y-133910000D02*
X160090000Y-133910000D01*
X161340000Y-134010000D02*
X161240000Y-133910000D01*
X168790000Y-106060000D02*
X167740000Y-106060000D01*
X169040000Y-105810000D02*
X168790000Y-106060000D01*
X169690000Y-109560000D02*
X169640000Y-109610000D01*
X160340000Y-128010000D02*
X163690000Y-128010000D01*
X170040000Y-110110000D02*
X170390000Y-110110000D01*
X169690000Y-110460000D02*
X170040000Y-110110000D01*
X169690000Y-114310000D02*
X169690000Y-110460000D01*
X167290000Y-128510000D02*
X167290000Y-127310000D01*
X167090000Y-128710000D02*
X167290000Y-128510000D01*
X164040000Y-128660000D02*
X164090000Y-128710000D01*
X159740000Y-128660000D02*
X164040000Y-128660000D01*
X159690000Y-128610000D02*
X159740000Y-128660000D01*
X157607000Y-113919000D02*
X157607000Y-113943000D01*
X157607000Y-113943000D02*
X157590000Y-113960000D01*
X159514000Y-118563000D02*
X159514000Y-118234000D01*
X159514000Y-118234000D02*
X159440000Y-118160000D01*
X159440000Y-118160000D02*
X158540000Y-118160000D01*
X158540000Y-118160000D02*
X158290000Y-117910000D01*
X159761000Y-118810000D02*
X160640000Y-118710000D01*
X161490000Y-119610000D02*
X160640000Y-118710000D01*
X163240000Y-119610000D02*
X161490000Y-119610000D01*
X163790000Y-123310000D02*
X163790000Y-120210000D01*
X163790000Y-120210000D02*
X163240000Y-119610000D01*
X165540000Y-128010000D02*
X165540000Y-127310000D01*
X165390000Y-129210000D02*
X165540000Y-128010000D01*
X165190000Y-129410000D02*
X165390000Y-129210000D01*
X159761000Y-118810000D02*
X159514000Y-118563000D01*
X157607000Y-113919000D02*
X157607000Y-113919000D01*
X157607000Y-113919000D02*
X156972000Y-113284000D01*
X145415000Y-102616000D02*
X149733000Y-102616000D01*
X149987000Y-102870000D02*
X149733000Y-102616000D01*
X153690000Y-107060000D02*
X153670000Y-105283000D01*
X154436000Y-107610000D02*
X153690000Y-107060000D01*
X156972000Y-110998000D02*
X156972000Y-113284000D01*
X159514000Y-119663000D02*
X159514000Y-119334000D01*
X159514000Y-119334000D02*
X159440000Y-119260000D01*
X157440000Y-117960000D02*
X157390000Y-117960000D01*
X158740000Y-119260000D02*
X157440000Y-117960000D01*
X159440000Y-119260000D02*
X158740000Y-119260000D01*
X160987000Y-121763000D02*
X161040000Y-119910000D01*
X161040000Y-119910000D02*
X159514000Y-119663000D01*
X160990000Y-121760000D02*
X160987000Y-121763000D01*
X149606000Y-101219000D02*
X145542000Y-101219000D01*
X149987000Y-101600000D02*
X149606000Y-101219000D01*
X152890000Y-107460000D02*
X152908000Y-103632000D01*
X152890000Y-107460000D02*
X152890000Y-107460000D01*
X153190000Y-107810000D02*
X152890000Y-107460000D01*
X153440000Y-107760000D02*
X153240000Y-107810000D01*
X148690000Y-114010000D02*
X151240000Y-114010000D01*
X148844000Y-100076000D02*
X145669000Y-100076000D01*
X149352000Y-100584000D02*
X148844000Y-100076000D01*
X149340000Y-106210000D02*
X149340000Y-105860000D01*
X150890000Y-107760000D02*
X149340000Y-106210000D01*
X151890000Y-113310000D02*
X151890000Y-111410000D01*
X151840000Y-113360000D02*
X151890000Y-113310000D01*
X151840000Y-113410000D02*
X151840000Y-113360000D01*
X151240000Y-114010000D02*
X151840000Y-113410000D01*
X148690000Y-114010000D02*
X148702000Y-113998000D01*
X157837000Y-124413000D02*
X159164000Y-124413000D01*
X156690000Y-125560000D02*
X157837000Y-124413000D01*
X156690000Y-129810000D02*
X156690000Y-125710000D01*
X156690000Y-125710000D02*
X156690000Y-125560000D01*
X156890000Y-130310000D02*
X156690000Y-129810000D01*
X144907000Y-100838000D02*
X145669000Y-100076000D01*
X144653000Y-100838000D02*
X144907000Y-100838000D01*
X144653000Y-103251000D02*
X144653000Y-100838000D01*
X159244000Y-124333000D02*
X159164000Y-124413000D01*
X159514000Y-121863000D02*
X158993000Y-121863000D01*
X148690000Y-106460000D02*
X150090000Y-108107059D01*
X150090000Y-108107059D02*
X150690000Y-108560000D01*
X155702000Y-132334000D02*
X155702000Y-131198000D01*
X155420769Y-119960000D02*
X156840000Y-119960000D01*
X156840000Y-119960000D02*
X158590000Y-121510000D01*
X158590000Y-121510000D02*
X159390000Y-121510000D01*
X159390000Y-121510000D02*
X159514000Y-121863000D01*
X154740000Y-120960000D02*
X154702500Y-120997500D01*
X154702500Y-120997500D02*
X155420769Y-119960000D01*
X155390000Y-126510000D02*
X155340000Y-126510000D01*
X156239998Y-127359998D02*
X155390000Y-126510000D01*
X156239998Y-130660002D02*
X156239998Y-127359998D01*
X155702000Y-131198000D02*
X156239998Y-130660002D01*
X145190000Y-108660000D02*
X144690000Y-108160000D01*
X145190000Y-109260000D02*
X145190000Y-108660000D01*
X144840000Y-109610000D02*
X145190000Y-109260000D01*
X144590000Y-109610000D02*
X144840000Y-109610000D01*
X144290000Y-109910000D02*
X144590000Y-109610000D01*
X144290000Y-115460000D02*
X144290000Y-109910000D01*
X144340000Y-115510000D02*
X144290000Y-115460000D01*
X146990000Y-121360000D02*
X147490000Y-120860000D01*
X146990000Y-124310000D02*
X146990000Y-121360000D01*
X146890000Y-124410000D02*
X146990000Y-124310000D01*
X143256000Y-109794000D02*
X143256000Y-109728000D01*
X141740000Y-111310000D02*
X143256000Y-109794000D01*
X141740000Y-113510000D02*
X141740000Y-111310000D01*
X143490000Y-115260000D02*
X141740000Y-113510000D01*
X143390000Y-121160000D02*
X143690000Y-120860000D01*
X143390000Y-124310000D02*
X143390000Y-121160000D01*
X143440000Y-124360000D02*
X143390000Y-124310000D01*
X143764000Y-109728000D02*
X144526000Y-108966000D01*
X143256000Y-109728000D02*
X143764000Y-109728000D01*
D27*
G36*
X168275000Y-100838000D02*
X168285006Y-100887410D01*
X168313447Y-100929035D01*
X168355841Y-100956315D01*
X168402000Y-100965000D01*
X173863000Y-100965000D01*
X173863000Y-110858560D01*
X172618400Y-110858560D01*
X172383083Y-110902838D01*
X172166959Y-111041910D01*
X172021969Y-111254110D01*
X172002768Y-111348927D01*
X171844036Y-111171268D01*
X171316791Y-110917291D01*
X171301026Y-110914642D01*
X171069002Y-111035782D01*
X171069002Y-110871000D01*
X170951116Y-110871000D01*
X171182192Y-110640327D01*
X171324838Y-110296799D01*
X171325162Y-109924833D01*
X171210265Y-109646760D01*
X172719035Y-109647000D01*
X172905167Y-109647162D01*
X173248943Y-109505117D01*
X173512192Y-109242327D01*
X173654838Y-108898799D01*
X173655162Y-108526833D01*
X173513117Y-108183057D01*
X173250327Y-107919808D01*
X172906799Y-107777162D01*
X172534833Y-107776838D01*
X172534512Y-107776970D01*
X160140149Y-107775000D01*
X160039090Y-107795085D01*
X159936079Y-107797508D01*
X159861886Y-107830304D01*
X159782328Y-107846116D01*
X159696649Y-107903345D01*
X159602406Y-107945004D01*
X159546412Y-108003696D01*
X159478960Y-108048750D01*
X159421702Y-108134413D01*
X159350578Y-108208964D01*
X159321306Y-108284616D01*
X159276230Y-108352054D01*
X159256113Y-108453104D01*
X159218930Y-108549202D01*
X158857362Y-110620310D01*
X158747808Y-110729673D01*
X158667417Y-110923276D01*
X158242000Y-110838655D01*
X157906860Y-110905318D01*
X157907162Y-110558833D01*
X157765117Y-110215057D01*
X157502327Y-109951808D01*
X157158799Y-109809162D01*
X156786833Y-109808838D01*
X156443057Y-109950883D01*
X156179808Y-110213673D01*
X156037162Y-110557201D01*
X156036840Y-110927270D01*
X155829000Y-111035783D01*
X155829000Y-112395000D01*
X155849000Y-112395000D01*
X155849000Y-112649000D01*
X155829000Y-112649000D01*
X155829000Y-114008217D01*
X156061026Y-114129358D01*
X156076791Y-114126709D01*
X156524327Y-113911129D01*
X156654928Y-114041730D01*
X156654838Y-114145167D01*
X156791122Y-114475000D01*
X156240816Y-114475000D01*
X156054833Y-114474838D01*
X155711057Y-114616883D01*
X155447808Y-114879673D01*
X155305162Y-115223201D01*
X155304838Y-115595167D01*
X155446883Y-115938943D01*
X155709673Y-116202192D01*
X156053201Y-116344838D01*
X156425167Y-116345162D01*
X156425559Y-116345000D01*
X158266560Y-116345000D01*
X158266560Y-116863000D01*
X158287634Y-116974997D01*
X158104833Y-116974838D01*
X157779417Y-117109297D01*
X157576799Y-117025162D01*
X157204833Y-117024838D01*
X156861057Y-117166883D01*
X156597808Y-117429673D01*
X156455162Y-117773201D01*
X156454838Y-118145167D01*
X156508484Y-118275000D01*
X154390000Y-118275000D01*
X154032191Y-118346173D01*
X153728855Y-118548855D01*
X153228855Y-119048855D01*
X153026173Y-119352191D01*
X152955000Y-119710000D01*
X152955000Y-121374454D01*
X152825887Y-121245116D01*
X152316816Y-121033731D01*
X151765602Y-121033250D01*
X151256163Y-121243746D01*
X150866056Y-121633173D01*
X150654671Y-122142244D01*
X150654190Y-122693458D01*
X150864686Y-123202897D01*
X151254113Y-123593004D01*
X151763184Y-123804389D01*
X152314398Y-123804870D01*
X152823837Y-123594374D01*
X152955000Y-123463440D01*
X152955000Y-123710000D01*
X152959205Y-123731142D01*
X152955964Y-123752456D01*
X152959261Y-123825000D01*
X149690000Y-123825000D01*
X149513886Y-123860031D01*
X149337597Y-123893954D01*
X149335112Y-123895592D01*
X149332191Y-123896173D01*
X149182869Y-123995947D01*
X149033000Y-124094736D01*
X149031331Y-124097201D01*
X149028855Y-124098855D01*
X148929110Y-124248134D01*
X148828426Y-124396799D01*
X148827827Y-124399716D01*
X148826173Y-124402191D01*
X148791154Y-124578245D01*
X148755018Y-124754156D01*
X148732320Y-128385808D01*
X148569703Y-128557991D01*
X148447808Y-128679673D01*
X148305162Y-129023201D01*
X148304838Y-129395167D01*
X148446883Y-129738943D01*
X148709673Y-130002192D01*
X149053201Y-130144838D01*
X149425167Y-130145162D01*
X149768943Y-130003117D01*
X150032192Y-129740327D01*
X150037663Y-129727151D01*
X150344757Y-129401993D01*
X150433236Y-129261019D01*
X150526574Y-129123201D01*
X150529902Y-129107001D01*
X150538694Y-129092992D01*
X150566491Y-128928881D01*
X150599982Y-128765844D01*
X150607422Y-127575338D01*
X150654190Y-127575338D01*
X150864686Y-128084777D01*
X151254113Y-128474884D01*
X151763184Y-128686269D01*
X152314398Y-128686750D01*
X152823837Y-128476254D01*
X153213944Y-128086827D01*
X153425329Y-127577756D01*
X153425810Y-127026542D01*
X153215314Y-126517103D01*
X152825887Y-126126996D01*
X152316816Y-125915611D01*
X151765602Y-125915130D01*
X151256163Y-126125626D01*
X150866056Y-126515053D01*
X150654671Y-127024124D01*
X150654190Y-127575338D01*
X150607422Y-127575338D01*
X150619175Y-125695000D01*
X153660032Y-125695000D01*
X153781527Y-125713478D01*
X153940000Y-125745000D01*
X153961142Y-125740795D01*
X153982456Y-125744036D01*
X154139342Y-125705348D01*
X154297809Y-125673827D01*
X154315733Y-125661851D01*
X154336664Y-125656689D01*
X154466796Y-125560914D01*
X154601145Y-125471145D01*
X154613122Y-125453220D01*
X154630484Y-125440442D01*
X154714059Y-125302156D01*
X154803827Y-125167809D01*
X154808033Y-125146666D01*
X154819183Y-125128216D01*
X154843478Y-124968473D01*
X154875000Y-124810000D01*
X154870795Y-124788858D01*
X154874036Y-124767544D01*
X154868466Y-124645000D01*
X154989184Y-124645000D01*
X155175167Y-124645162D01*
X155518943Y-124503117D01*
X155782192Y-124240327D01*
X155924838Y-123896799D01*
X155925162Y-123524833D01*
X155783117Y-123181057D01*
X155520327Y-122917808D01*
X155176799Y-122775162D01*
X154825000Y-122774856D01*
X154825000Y-121895075D01*
X154925167Y-121895162D01*
X155268943Y-121753117D01*
X155532192Y-121490327D01*
X155674838Y-121146799D01*
X155675029Y-120927920D01*
X155818973Y-120720000D01*
X156551821Y-120720000D01*
X158086093Y-122078927D01*
X158194646Y-122142313D01*
X158266560Y-122190365D01*
X158266560Y-122213000D01*
X158305858Y-122421850D01*
X158279000Y-122486691D01*
X158279000Y-122677250D01*
X158437750Y-122836000D01*
X158793312Y-122836000D01*
X158914000Y-122860440D01*
X160114000Y-122860440D01*
X160243887Y-122836000D01*
X160590250Y-122836000D01*
X160749000Y-122677250D01*
X160749000Y-122672332D01*
X160803201Y-122694838D01*
X161175167Y-122695162D01*
X161518943Y-122553117D01*
X161782192Y-122290327D01*
X161924838Y-121946799D01*
X161925162Y-121574833D01*
X161783117Y-121231057D01*
X161763099Y-121211004D01*
X161787153Y-120370000D01*
X162905675Y-120370000D01*
X163030000Y-120505628D01*
X163030000Y-122747537D01*
X162997808Y-122779673D01*
X162855162Y-123123201D01*
X162854838Y-123495167D01*
X162996883Y-123838943D01*
X163259673Y-124102192D01*
X163603201Y-124244838D01*
X163975167Y-124245162D01*
X164318943Y-124103117D01*
X164582192Y-123840327D01*
X164724838Y-123496799D01*
X164725162Y-123124833D01*
X164583117Y-122781057D01*
X164550000Y-122747882D01*
X164550000Y-120210000D01*
X164524231Y-120080453D01*
X164504118Y-119949934D01*
X164495419Y-119935604D01*
X164492148Y-119919161D01*
X164418775Y-119809350D01*
X164350237Y-119696449D01*
X163800237Y-119096449D01*
X163786715Y-119086538D01*
X163777401Y-119072599D01*
X163667590Y-118999226D01*
X163561064Y-118921148D01*
X163544779Y-118917166D01*
X163530839Y-118907852D01*
X163401297Y-118882084D01*
X163273012Y-118850718D01*
X163256445Y-118853271D01*
X163240000Y-118850000D01*
X161817595Y-118850000D01*
X161575102Y-118593243D01*
X161575162Y-118524833D01*
X161433117Y-118181057D01*
X161170327Y-117917808D01*
X160826799Y-117775162D01*
X160761440Y-117775105D01*
X160761440Y-117113000D01*
X160737056Y-116983411D01*
X160761440Y-116863000D01*
X160761440Y-116163000D01*
X160717162Y-115927683D01*
X160602022Y-115748750D01*
X163179000Y-115748750D01*
X163179000Y-116089309D01*
X163275673Y-116322698D01*
X163454301Y-116501327D01*
X163687690Y-116598000D01*
X164128250Y-116598000D01*
X164287000Y-116439250D01*
X164287000Y-115590000D01*
X164541000Y-115590000D01*
X164541000Y-116439250D01*
X164699750Y-116598000D01*
X165140310Y-116598000D01*
X165373699Y-116501327D01*
X165552327Y-116322698D01*
X165649000Y-116089309D01*
X165649000Y-115748750D01*
X165490250Y-115590000D01*
X164541000Y-115590000D01*
X164287000Y-115590000D01*
X163337750Y-115590000D01*
X163179000Y-115748750D01*
X160602022Y-115748750D01*
X160578090Y-115711559D01*
X160535468Y-115682437D01*
X160674838Y-115346799D01*
X160675162Y-114974833D01*
X160618084Y-114836691D01*
X163179000Y-114836691D01*
X163179000Y-115177250D01*
X163337750Y-115336000D01*
X164287000Y-115336000D01*
X164287000Y-114486750D01*
X164541000Y-114486750D01*
X164541000Y-115336000D01*
X165490250Y-115336000D01*
X165649000Y-115177250D01*
X165649000Y-114836691D01*
X165552327Y-114603302D01*
X165373699Y-114424673D01*
X165140310Y-114328000D01*
X164699750Y-114328000D01*
X164541000Y-114486750D01*
X164287000Y-114486750D01*
X164128250Y-114328000D01*
X163687690Y-114328000D01*
X163454301Y-114424673D01*
X163275673Y-114603302D01*
X163179000Y-114836691D01*
X160618084Y-114836691D01*
X160533117Y-114631057D01*
X160270327Y-114367808D01*
X160269935Y-114367645D01*
X160237322Y-114335032D01*
X160332192Y-114240327D01*
X160384011Y-114115534D01*
X160407209Y-114126709D01*
X160422974Y-114129358D01*
X160655000Y-114008217D01*
X160655000Y-112649000D01*
X160635000Y-112649000D01*
X160635000Y-112395000D01*
X160655000Y-112395000D01*
X160655000Y-111196821D01*
X160788681Y-110431076D01*
X160859673Y-110502192D01*
X161203201Y-110644838D01*
X161377827Y-110644990D01*
X162634412Y-110676702D01*
X162646233Y-110674659D01*
X162658000Y-110677000D01*
X162818309Y-110645112D01*
X162875167Y-110645162D01*
X162917036Y-110627862D01*
X162993902Y-110614579D01*
X163004042Y-110608168D01*
X163015809Y-110605827D01*
X163089448Y-110556623D01*
X163218943Y-110503117D01*
X163318978Y-110403257D01*
X163319145Y-110403145D01*
X163350854Y-110371436D01*
X163482192Y-110240327D01*
X163624838Y-109896799D01*
X163625057Y-109645554D01*
X168754924Y-109646370D01*
X168754838Y-109745167D01*
X168896883Y-110088943D01*
X168986042Y-110178258D01*
X168930000Y-110460000D01*
X168930000Y-110943681D01*
X168402000Y-110838655D01*
X167828511Y-110952729D01*
X167342330Y-111277585D01*
X167132000Y-111592366D01*
X166921670Y-111277585D01*
X166435489Y-110952729D01*
X165862000Y-110838655D01*
X165288511Y-110952729D01*
X164802330Y-111277585D01*
X164592000Y-111592366D01*
X164381670Y-111277585D01*
X163895489Y-110952729D01*
X163322000Y-110838655D01*
X162748511Y-110952729D01*
X162262330Y-111277585D01*
X162055539Y-111587069D01*
X161684036Y-111171268D01*
X161156791Y-110917291D01*
X161141026Y-110914642D01*
X160909000Y-111035783D01*
X160909000Y-112395000D01*
X160929000Y-112395000D01*
X160929000Y-112649000D01*
X160909000Y-112649000D01*
X160909000Y-114008217D01*
X161141026Y-114129358D01*
X161156791Y-114126709D01*
X161684036Y-113872732D01*
X162055539Y-113456931D01*
X162262330Y-113766415D01*
X162748511Y-114091271D01*
X163322000Y-114205345D01*
X163895489Y-114091271D01*
X164381670Y-113766415D01*
X164592000Y-113451634D01*
X164802330Y-113766415D01*
X165288511Y-114091271D01*
X165862000Y-114205345D01*
X166435489Y-114091271D01*
X166921670Y-113766415D01*
X167132000Y-113451634D01*
X167342330Y-113766415D01*
X167828511Y-114091271D01*
X168402000Y-114205345D01*
X168755152Y-114135099D01*
X168754838Y-114495167D01*
X168896883Y-114838943D01*
X169159673Y-115102192D01*
X169503201Y-115244838D01*
X169875167Y-115245162D01*
X170218943Y-115103117D01*
X170482192Y-114840327D01*
X170624838Y-114496799D01*
X170625162Y-114124833D01*
X170619214Y-114110437D01*
X170815000Y-114008217D01*
X170815000Y-112649000D01*
X170795000Y-112649000D01*
X170795000Y-112395000D01*
X170815000Y-112395000D01*
X170815000Y-112375000D01*
X171069000Y-112375000D01*
X171069000Y-112395000D01*
X171089000Y-112395000D01*
X171089000Y-112649000D01*
X171069000Y-112649000D01*
X171069000Y-114008217D01*
X171301026Y-114129358D01*
X171316791Y-114126709D01*
X171844036Y-113872732D01*
X172000907Y-113697155D01*
X172015238Y-113773317D01*
X172154310Y-113989441D01*
X172366510Y-114134431D01*
X172618400Y-114185440D01*
X173863000Y-114185440D01*
X173863000Y-114415560D01*
X172414000Y-114415560D01*
X172178683Y-114459838D01*
X171962559Y-114598910D01*
X171817569Y-114811110D01*
X171766560Y-115063000D01*
X171766560Y-116063000D01*
X171810838Y-116298317D01*
X171949910Y-116514441D01*
X172162110Y-116659431D01*
X172414000Y-116710440D01*
X173863000Y-116710440D01*
X173863000Y-127765560D01*
X173314000Y-127765560D01*
X173078683Y-127809838D01*
X172862559Y-127948910D01*
X172717569Y-128161110D01*
X172666560Y-128413000D01*
X172666560Y-129713000D01*
X172710838Y-129948317D01*
X172849910Y-130164441D01*
X173062110Y-130309431D01*
X173314000Y-130360440D01*
X173863000Y-130360440D01*
X173863000Y-130670560D01*
X172618400Y-130670560D01*
X172383083Y-130714838D01*
X172166959Y-130853910D01*
X172021969Y-131066110D01*
X172002768Y-131160927D01*
X171844036Y-130983268D01*
X171316791Y-130729291D01*
X171301026Y-130726642D01*
X171069000Y-130847783D01*
X171069000Y-132207000D01*
X171089000Y-132207000D01*
X171089000Y-132461000D01*
X171069000Y-132461000D01*
X171069000Y-133820217D01*
X171301026Y-133941358D01*
X171316791Y-133938709D01*
X171844036Y-133684732D01*
X172000907Y-133509155D01*
X172015238Y-133585317D01*
X172154310Y-133801441D01*
X172366510Y-133946431D01*
X172618400Y-133997440D01*
X173863000Y-133997440D01*
X173863000Y-136271000D01*
X168402000Y-136271000D01*
X168352590Y-136281006D01*
X168310965Y-136309447D01*
X168283685Y-136351841D01*
X168275000Y-136398000D01*
X168275000Y-142367000D01*
X167849277Y-142367000D01*
X167869703Y-142336430D01*
X167956100Y-141902084D01*
X167956100Y-141296836D01*
X167869703Y-140862490D01*
X167623666Y-140494270D01*
X167255446Y-140248233D01*
X166821100Y-140161836D01*
X166386754Y-140248233D01*
X166018534Y-140494270D01*
X165772497Y-140862490D01*
X165686100Y-141296836D01*
X165686100Y-141902084D01*
X165772497Y-142336430D01*
X165792923Y-142367000D01*
X160849277Y-142367000D01*
X160869703Y-142336430D01*
X160956100Y-141902084D01*
X160956100Y-141296836D01*
X160869703Y-140862490D01*
X160623666Y-140494270D01*
X160255446Y-140248233D01*
X159821100Y-140161836D01*
X159386754Y-140248233D01*
X159018534Y-140494270D01*
X158772497Y-140862490D01*
X158686100Y-141296836D01*
X158686100Y-141902084D01*
X158772497Y-142336430D01*
X158792923Y-142367000D01*
X143129000Y-142367000D01*
X143129000Y-138899460D01*
X159536415Y-138899460D01*
X159620909Y-139324239D01*
X159861526Y-139684349D01*
X160221636Y-139924966D01*
X160646415Y-140009460D01*
X160995785Y-140009460D01*
X161420564Y-139924966D01*
X161780674Y-139684349D01*
X162021291Y-139324239D01*
X162105785Y-138899460D01*
X164536415Y-138899460D01*
X164620909Y-139324239D01*
X164861526Y-139684349D01*
X165221636Y-139924966D01*
X165646415Y-140009460D01*
X165995785Y-140009460D01*
X166420564Y-139924966D01*
X166780674Y-139684349D01*
X167021291Y-139324239D01*
X167105785Y-138899460D01*
X167021291Y-138474681D01*
X166780674Y-138114571D01*
X166420564Y-137873954D01*
X165995785Y-137789460D01*
X165646415Y-137789460D01*
X165221636Y-137873954D01*
X164861526Y-138114571D01*
X164620909Y-138474681D01*
X164536415Y-138899460D01*
X162105785Y-138899460D01*
X162021291Y-138474681D01*
X161780674Y-138114571D01*
X161420564Y-137873954D01*
X160995785Y-137789460D01*
X160646415Y-137789460D01*
X160221636Y-137873954D01*
X159861526Y-138114571D01*
X159620909Y-138474681D01*
X159536415Y-138899460D01*
X143129000Y-138899460D01*
X143129000Y-136398000D01*
X143118994Y-136348590D01*
X143090553Y-136306965D01*
X143048159Y-136279685D01*
X143002000Y-136271000D01*
X137541000Y-136271000D01*
X137541000Y-135694558D01*
X149081266Y-135694558D01*
X149133686Y-136094979D01*
X149335351Y-136444858D01*
X149655558Y-136690931D01*
X151179557Y-137443860D01*
X151569558Y-137548663D01*
X151969978Y-137496243D01*
X152319857Y-137294578D01*
X152565930Y-136974371D01*
X152652560Y-136652000D01*
X153270000Y-136652000D01*
X153348785Y-137048077D01*
X153573144Y-137383856D01*
X153908923Y-137608215D01*
X154305000Y-137687000D01*
X157226000Y-137687000D01*
X157622077Y-137608215D01*
X157957856Y-137383856D01*
X158182215Y-137048077D01*
X158261000Y-136652000D01*
X158182215Y-136255923D01*
X157957856Y-135920144D01*
X157920476Y-135895167D01*
X158754838Y-135895167D01*
X158896883Y-136238943D01*
X158923504Y-136265610D01*
X158855000Y-136610000D01*
X158933785Y-137006077D01*
X159158144Y-137341856D01*
X159493923Y-137566215D01*
X159890000Y-137645000D01*
X163839995Y-137645000D01*
X163840000Y-137645001D01*
X164236077Y-137566215D01*
X164571856Y-137341856D01*
X165221856Y-136691855D01*
X165446215Y-136356077D01*
X165525001Y-135960000D01*
X165446215Y-135563922D01*
X165221856Y-135228144D01*
X164886078Y-135003785D01*
X164490000Y-134924999D01*
X164093923Y-135003785D01*
X163809151Y-135194063D01*
X163783117Y-135131057D01*
X163520327Y-134867808D01*
X163176799Y-134725162D01*
X162804833Y-134724838D01*
X162461057Y-134866883D01*
X162377795Y-134950000D01*
X160252463Y-134950000D01*
X160220327Y-134917808D01*
X159876799Y-134775162D01*
X159504833Y-134774838D01*
X159161057Y-134916883D01*
X158897808Y-135179673D01*
X158755162Y-135523201D01*
X158754838Y-135895167D01*
X157920476Y-135895167D01*
X157622077Y-135695785D01*
X157226000Y-135617000D01*
X154305000Y-135617000D01*
X153908923Y-135695785D01*
X153573144Y-135920144D01*
X153348785Y-136255923D01*
X153270000Y-136652000D01*
X152652560Y-136652000D01*
X152670734Y-136584371D01*
X152618314Y-136183950D01*
X152416648Y-135834071D01*
X152096442Y-135587998D01*
X150572442Y-134835069D01*
X150182442Y-134730266D01*
X149782021Y-134782686D01*
X149432142Y-134984351D01*
X149186069Y-135304558D01*
X149081266Y-135694558D01*
X137541000Y-135694558D01*
X137541000Y-133941559D01*
X137922000Y-134017345D01*
X138495489Y-133903271D01*
X138981670Y-133578415D01*
X139192000Y-133263634D01*
X139402330Y-133578415D01*
X139888511Y-133903271D01*
X140462000Y-134017345D01*
X141035489Y-133903271D01*
X141521670Y-133578415D01*
X141732000Y-133263634D01*
X141942330Y-133578415D01*
X142428511Y-133903271D01*
X143002000Y-134017345D01*
X143575489Y-133903271D01*
X144061670Y-133578415D01*
X144272000Y-133263634D01*
X144482330Y-133578415D01*
X144968511Y-133903271D01*
X145542000Y-134017345D01*
X146115489Y-133903271D01*
X146601670Y-133578415D01*
X146812000Y-133263634D01*
X147022330Y-133578415D01*
X147508511Y-133903271D01*
X148082000Y-134017345D01*
X148655489Y-133903271D01*
X149141670Y-133578415D01*
X149352000Y-133263634D01*
X149562330Y-133578415D01*
X150048511Y-133903271D01*
X150622000Y-134017345D01*
X151195489Y-133903271D01*
X151681670Y-133578415D01*
X151888461Y-133268931D01*
X152259964Y-133684732D01*
X152787209Y-133938709D01*
X152802974Y-133941358D01*
X153035000Y-133820217D01*
X153035000Y-132461000D01*
X153015000Y-132461000D01*
X153015000Y-132207000D01*
X153035000Y-132207000D01*
X153035000Y-132187000D01*
X153289000Y-132187000D01*
X153289000Y-132207000D01*
X153309000Y-132207000D01*
X153309000Y-132461000D01*
X153289000Y-132461000D01*
X153289000Y-133820217D01*
X153521026Y-133941358D01*
X153536791Y-133938709D01*
X153561313Y-133926897D01*
X153505000Y-134210000D01*
X153576173Y-134567809D01*
X153653056Y-134682872D01*
X153696883Y-134788943D01*
X153778680Y-134870882D01*
X153778855Y-134871145D01*
X153828564Y-134920854D01*
X153959673Y-135052192D01*
X154303201Y-135194838D01*
X154675167Y-135195162D01*
X155018943Y-135053117D01*
X155158367Y-134913936D01*
X155353201Y-134994838D01*
X155725167Y-134995162D01*
X156068943Y-134853117D01*
X156332192Y-134590327D01*
X156474838Y-134246799D01*
X156475162Y-133874833D01*
X156441170Y-133792566D01*
X156761670Y-133578415D01*
X156972000Y-133263634D01*
X157182330Y-133578415D01*
X157668511Y-133903271D01*
X158242000Y-134017345D01*
X158815489Y-133903271D01*
X158936087Y-133822690D01*
X158952599Y-133847401D01*
X159552599Y-134447401D01*
X159799161Y-134612148D01*
X160090000Y-134670000D01*
X160677711Y-134670000D01*
X160809673Y-134802192D01*
X161153201Y-134944838D01*
X161525167Y-134945162D01*
X161868943Y-134803117D01*
X162132192Y-134540327D01*
X162274838Y-134196799D01*
X162275162Y-133824833D01*
X162133117Y-133481057D01*
X161997498Y-133345202D01*
X162052000Y-133263634D01*
X162262330Y-133578415D01*
X162748511Y-133903271D01*
X163322000Y-134017345D01*
X163895489Y-133903271D01*
X164381670Y-133578415D01*
X164592000Y-133263634D01*
X164802330Y-133578415D01*
X165288511Y-133903271D01*
X165862000Y-134017345D01*
X166435489Y-133903271D01*
X166921670Y-133578415D01*
X167132000Y-133263634D01*
X167342330Y-133578415D01*
X167828511Y-133903271D01*
X168402000Y-134017345D01*
X168975489Y-133903271D01*
X169461670Y-133578415D01*
X169668461Y-133268931D01*
X170039964Y-133684732D01*
X170567209Y-133938709D01*
X170582974Y-133941358D01*
X170815000Y-133820217D01*
X170815000Y-132461000D01*
X170795000Y-132461000D01*
X170795000Y-132207000D01*
X170815000Y-132207000D01*
X170815000Y-130847783D01*
X170582974Y-130726642D01*
X170567209Y-130729291D01*
X170039964Y-130983268D01*
X169668461Y-131399069D01*
X169461670Y-131089585D01*
X168975489Y-130764729D01*
X168402000Y-130650655D01*
X167828511Y-130764729D01*
X167342330Y-131089585D01*
X167132000Y-131404366D01*
X166921670Y-131089585D01*
X166435489Y-130764729D01*
X165862000Y-130650655D01*
X165288511Y-130764729D01*
X164802330Y-131089585D01*
X164592000Y-131404366D01*
X164381670Y-131089585D01*
X163895489Y-130764729D01*
X163322000Y-130650655D01*
X162748511Y-130764729D01*
X162262330Y-131089585D01*
X162052000Y-131404366D01*
X161841670Y-131089585D01*
X161355489Y-130764729D01*
X161075132Y-130708963D01*
X161075162Y-130674833D01*
X160933117Y-130331057D01*
X160670327Y-130067808D01*
X160326799Y-129925162D01*
X159954833Y-129924838D01*
X159611057Y-130066883D01*
X159347808Y-130329673D01*
X159237459Y-130595422D01*
X159026620Y-130757606D01*
X158993908Y-130794998D01*
X158952599Y-130822599D01*
X158937011Y-130845928D01*
X158815489Y-130764729D01*
X158242000Y-130650655D01*
X157717641Y-130754956D01*
X157824838Y-130496799D01*
X157825162Y-130124833D01*
X157683117Y-129781057D01*
X157450000Y-129547533D01*
X157450000Y-125874802D01*
X158151802Y-125173000D01*
X158266560Y-125173000D01*
X158266560Y-125513000D01*
X158310838Y-125748317D01*
X158368051Y-125837228D01*
X158317569Y-125911110D01*
X158266560Y-126163000D01*
X158266560Y-127263000D01*
X158310838Y-127498317D01*
X158449910Y-127714441D01*
X158662110Y-127859431D01*
X158914000Y-127910440D01*
X159067337Y-127910440D01*
X158897808Y-128079673D01*
X158755162Y-128423201D01*
X158754838Y-128795167D01*
X158896883Y-129138943D01*
X159159673Y-129402192D01*
X159503201Y-129544838D01*
X159875167Y-129545162D01*
X160178083Y-129420000D01*
X163477624Y-129420000D01*
X163559673Y-129502192D01*
X163903201Y-129644838D01*
X164275167Y-129645162D01*
X164275448Y-129645046D01*
X164396883Y-129938943D01*
X164659673Y-130202192D01*
X165003201Y-130344838D01*
X165375167Y-130345162D01*
X165718943Y-130203117D01*
X165890024Y-130032334D01*
X166009673Y-130152192D01*
X166353201Y-130294838D01*
X166725167Y-130295162D01*
X167068943Y-130153117D01*
X167332192Y-129890327D01*
X167466888Y-129565945D01*
X167618943Y-129503117D01*
X167882192Y-129240327D01*
X168024838Y-128896799D01*
X168025066Y-128635352D01*
X168050000Y-128510000D01*
X168050000Y-127872463D01*
X168082192Y-127840327D01*
X168224838Y-127496799D01*
X168225162Y-127124833D01*
X168083117Y-126781057D01*
X167820327Y-126517808D01*
X167476799Y-126375162D01*
X167104833Y-126374838D01*
X166803959Y-126499157D01*
X166027401Y-125722599D01*
X165780839Y-125557852D01*
X165490000Y-125500000D01*
X165452463Y-125500000D01*
X165420327Y-125467808D01*
X165076799Y-125325162D01*
X164704833Y-125324838D01*
X164361057Y-125466883D01*
X164097808Y-125729673D01*
X163955162Y-126073201D01*
X163954838Y-126445167D01*
X164096883Y-126788943D01*
X164359673Y-127052192D01*
X164605135Y-127154117D01*
X164604838Y-127495167D01*
X164746883Y-127838943D01*
X164780000Y-127872118D01*
X164780000Y-127962685D01*
X164767216Y-128064954D01*
X164625077Y-127922566D01*
X164625162Y-127824833D01*
X164483117Y-127481057D01*
X164220327Y-127217808D01*
X163876799Y-127075162D01*
X163504833Y-127074838D01*
X163161057Y-127216883D01*
X163127882Y-127250000D01*
X160902463Y-127250000D01*
X160870327Y-127217808D01*
X160761440Y-127172594D01*
X160761440Y-126163000D01*
X160717162Y-125927683D01*
X160659949Y-125838772D01*
X160710431Y-125764890D01*
X160761440Y-125513000D01*
X160761440Y-124813000D01*
X160722426Y-124605658D01*
X160761440Y-124413000D01*
X160761440Y-123713000D01*
X160722142Y-123504150D01*
X160749000Y-123439309D01*
X160749000Y-123248750D01*
X160590250Y-123090000D01*
X160234688Y-123090000D01*
X160114000Y-123065560D01*
X158914000Y-123065560D01*
X158784113Y-123090000D01*
X158437750Y-123090000D01*
X158279000Y-123248750D01*
X158279000Y-123439309D01*
X158307870Y-123509007D01*
X158278710Y-123653000D01*
X157837000Y-123653000D01*
X157546161Y-123710852D01*
X157299599Y-123875599D01*
X156152599Y-125022599D01*
X155987852Y-125269161D01*
X155930000Y-125560000D01*
X155930000Y-125777585D01*
X155870327Y-125717808D01*
X155526799Y-125575162D01*
X155154833Y-125574838D01*
X154811057Y-125716883D01*
X154547808Y-125979673D01*
X154405162Y-126323201D01*
X154404838Y-126695167D01*
X154546883Y-127038943D01*
X154809673Y-127302192D01*
X155153201Y-127444838D01*
X155250120Y-127444922D01*
X155479998Y-127674800D01*
X155479998Y-130345200D01*
X155367912Y-130457286D01*
X155359826Y-130437718D01*
X155351056Y-130149756D01*
X155201249Y-129817115D01*
X154935549Y-129567122D01*
X154535549Y-129317122D01*
X154422961Y-129274454D01*
X154317134Y-129217015D01*
X154253877Y-129210376D01*
X154194406Y-129187838D01*
X154074059Y-129191503D01*
X153954308Y-129178935D01*
X153893328Y-129197008D01*
X153829756Y-129198944D01*
X153719970Y-129248387D01*
X153604528Y-129282601D01*
X152692882Y-129762414D01*
X152561057Y-129816883D01*
X152297808Y-130079673D01*
X152155162Y-130423201D01*
X152154838Y-130795167D01*
X152241225Y-131004241D01*
X151888461Y-131399069D01*
X151681670Y-131089585D01*
X151195489Y-130764729D01*
X150622000Y-130650655D01*
X150048511Y-130764729D01*
X149562330Y-131089585D01*
X149352000Y-131404366D01*
X149141670Y-131089585D01*
X148655489Y-130764729D01*
X148082000Y-130650655D01*
X147508511Y-130764729D01*
X147022330Y-131089585D01*
X146812000Y-131404366D01*
X146601670Y-131089585D01*
X146115489Y-130764729D01*
X145542000Y-130650655D01*
X144968511Y-130764729D01*
X144482330Y-131089585D01*
X144272000Y-131404366D01*
X144061670Y-131089585D01*
X143575489Y-130764729D01*
X143002000Y-130650655D01*
X142428511Y-130764729D01*
X141942330Y-131089585D01*
X141732000Y-131404366D01*
X141521670Y-131089585D01*
X141035489Y-130764729D01*
X140462000Y-130650655D01*
X139888511Y-130764729D01*
X139402330Y-131089585D01*
X139192000Y-131404366D01*
X138981670Y-131089585D01*
X138495489Y-130764729D01*
X137922000Y-130650655D01*
X137541000Y-130726441D01*
X137541000Y-128377609D01*
X137846538Y-128377609D01*
X137861714Y-128469376D01*
X138108067Y-128889125D01*
X138496299Y-129182647D01*
X138967304Y-129305256D01*
X139163000Y-129142547D01*
X139163000Y-128187000D01*
X139417000Y-128187000D01*
X139417000Y-129142547D01*
X139612696Y-129305256D01*
X140083701Y-129182647D01*
X140471933Y-128889125D01*
X140718286Y-128469376D01*
X140733462Y-128377609D01*
X140608731Y-128187000D01*
X139417000Y-128187000D01*
X139163000Y-128187000D01*
X137971269Y-128187000D01*
X137846538Y-128377609D01*
X137541000Y-128377609D01*
X137541000Y-125460000D01*
X137792560Y-125460000D01*
X137792560Y-126660000D01*
X137836838Y-126895317D01*
X137975910Y-127111441D01*
X138128309Y-127215571D01*
X138108067Y-127230875D01*
X137861714Y-127650624D01*
X137846538Y-127742391D01*
X137971269Y-127933000D01*
X139163000Y-127933000D01*
X139163000Y-127913000D01*
X139417000Y-127913000D01*
X139417000Y-127933000D01*
X140608731Y-127933000D01*
X140733462Y-127742391D01*
X140718286Y-127650624D01*
X140471933Y-127230875D01*
X140450580Y-127214731D01*
X140591441Y-127124090D01*
X140679644Y-126995000D01*
X141252710Y-126995000D01*
X142428564Y-128170854D01*
X142559673Y-128302192D01*
X142903201Y-128444838D01*
X143275167Y-128445162D01*
X143618943Y-128303117D01*
X143882192Y-128040327D01*
X144024838Y-127696799D01*
X144025162Y-127324833D01*
X143883117Y-126981057D01*
X143620327Y-126717808D01*
X143619935Y-126717645D01*
X142301145Y-125398855D01*
X141997809Y-125196173D01*
X141640000Y-125125000D01*
X140679018Y-125125000D01*
X140604090Y-125008559D01*
X140391890Y-124863569D01*
X140140000Y-124812560D01*
X138440000Y-124812560D01*
X138204683Y-124856838D01*
X137988559Y-124995910D01*
X137843569Y-125208110D01*
X137792560Y-125460000D01*
X137541000Y-125460000D01*
X137541000Y-124545167D01*
X142504838Y-124545167D01*
X142646883Y-124888943D01*
X142909673Y-125152192D01*
X143253201Y-125294838D01*
X143625167Y-125295162D01*
X143968943Y-125153117D01*
X144232192Y-124890327D01*
X144374838Y-124546799D01*
X144375162Y-124174833D01*
X144233117Y-123831057D01*
X144150000Y-123747795D01*
X144150000Y-121681604D01*
X144218943Y-121653117D01*
X144482192Y-121390327D01*
X144624838Y-121046799D01*
X144625162Y-120674833D01*
X144509607Y-120395167D01*
X145854838Y-120395167D01*
X145996883Y-120738943D01*
X146259673Y-121002192D01*
X146316760Y-121025897D01*
X146287852Y-121069161D01*
X146230000Y-121360000D01*
X146230000Y-123747711D01*
X146097808Y-123879673D01*
X145955162Y-124223201D01*
X145954838Y-124595167D01*
X146096883Y-124938943D01*
X146359673Y-125202192D01*
X146703201Y-125344838D01*
X147075167Y-125345162D01*
X147418943Y-125203117D01*
X147682192Y-124940327D01*
X147824838Y-124596799D01*
X147825162Y-124224833D01*
X147750000Y-124042927D01*
X147750000Y-121764242D01*
X148018943Y-121653117D01*
X148282192Y-121390327D01*
X148342482Y-121245134D01*
X148375167Y-121245162D01*
X148718943Y-121103117D01*
X148982192Y-120840327D01*
X149124838Y-120496799D01*
X149125162Y-120124833D01*
X148983117Y-119781057D01*
X148720327Y-119517808D01*
X148376799Y-119375162D01*
X148004833Y-119374838D01*
X147822927Y-119450000D01*
X147352463Y-119450000D01*
X147320327Y-119417808D01*
X146976799Y-119275162D01*
X146604833Y-119274838D01*
X146261057Y-119416883D01*
X145997808Y-119679673D01*
X145855162Y-120023201D01*
X145854838Y-120395167D01*
X144509607Y-120395167D01*
X144483117Y-120331057D01*
X144220327Y-120067808D01*
X143876799Y-119925162D01*
X143504833Y-119924838D01*
X143161057Y-120066883D01*
X142897808Y-120329673D01*
X142755162Y-120673201D01*
X142755079Y-120768548D01*
X142687852Y-120869161D01*
X142630000Y-121160000D01*
X142630000Y-123872559D01*
X142505162Y-124173201D01*
X142504838Y-124545167D01*
X137541000Y-124545167D01*
X137541000Y-117495167D01*
X149804838Y-117495167D01*
X149946883Y-117838943D01*
X150209673Y-118102192D01*
X150553201Y-118244838D01*
X150925167Y-118245162D01*
X151268943Y-118103117D01*
X151532192Y-117840327D01*
X151674838Y-117496799D01*
X151674925Y-117397365D01*
X152950854Y-116121436D01*
X153082192Y-115990327D01*
X153224838Y-115646799D01*
X153225162Y-115274833D01*
X153083117Y-114931057D01*
X152820327Y-114667808D01*
X152476799Y-114525162D01*
X152104833Y-114524838D01*
X151761057Y-114666883D01*
X151497808Y-114929673D01*
X151497645Y-114930065D01*
X150078855Y-116348855D01*
X149876173Y-116652191D01*
X149805000Y-117010000D01*
X149805000Y-117309184D01*
X149804838Y-117495167D01*
X137541000Y-117495167D01*
X137541000Y-114129559D01*
X137922000Y-114205345D01*
X138495489Y-114091271D01*
X138981670Y-113766415D01*
X139192000Y-113451634D01*
X139402330Y-113766415D01*
X139888511Y-114091271D01*
X140462000Y-114205345D01*
X141035489Y-114091271D01*
X141171284Y-114000535D01*
X141202599Y-114047401D01*
X142554878Y-115399680D01*
X142554838Y-115445167D01*
X142696883Y-115788943D01*
X142959673Y-116052192D01*
X143303201Y-116194838D01*
X143675167Y-116195162D01*
X143694752Y-116187070D01*
X143809673Y-116302192D01*
X144153201Y-116444838D01*
X144525167Y-116445162D01*
X144868943Y-116303117D01*
X145132192Y-116040327D01*
X145274838Y-115696799D01*
X145275162Y-115324833D01*
X145133117Y-114981057D01*
X145050000Y-114897795D01*
X145050000Y-114107480D01*
X145542000Y-114205345D01*
X146115489Y-114091271D01*
X146601670Y-113766415D01*
X146812000Y-113451634D01*
X147022330Y-113766415D01*
X147508511Y-114091271D01*
X147754886Y-114140278D01*
X147754838Y-114195167D01*
X147896883Y-114538943D01*
X148159673Y-114802192D01*
X148503201Y-114944838D01*
X148875167Y-114945162D01*
X149218943Y-114803117D01*
X149252118Y-114770000D01*
X151240000Y-114770000D01*
X151530839Y-114712148D01*
X151777401Y-114547401D01*
X152375716Y-113949086D01*
X152588511Y-114091271D01*
X153162000Y-114205345D01*
X153735489Y-114091271D01*
X154221670Y-113766415D01*
X154428461Y-113456931D01*
X154799964Y-113872732D01*
X155327209Y-114126709D01*
X155342974Y-114129358D01*
X155575000Y-114008217D01*
X155575000Y-112649000D01*
X155555000Y-112649000D01*
X155555000Y-112395000D01*
X155575000Y-112395000D01*
X155575000Y-111035783D01*
X155342974Y-110914642D01*
X155327209Y-110917291D01*
X154799964Y-111171268D01*
X154428461Y-111587069D01*
X154221670Y-111277585D01*
X153735489Y-110952729D01*
X153162000Y-110838655D01*
X152703297Y-110929897D01*
X152683117Y-110881057D01*
X152420327Y-110617808D01*
X152076799Y-110475162D01*
X151704833Y-110474838D01*
X151361057Y-110616883D01*
X151097808Y-110879673D01*
X151077239Y-110929208D01*
X150622000Y-110838655D01*
X150048511Y-110952729D01*
X149562330Y-111277585D01*
X149352000Y-111592366D01*
X149141670Y-111277585D01*
X148655489Y-110952729D01*
X148082000Y-110838655D01*
X147508511Y-110952729D01*
X147022330Y-111277585D01*
X146812000Y-111592366D01*
X146601670Y-111277585D01*
X146115489Y-110952729D01*
X145542000Y-110838655D01*
X145050000Y-110936520D01*
X145050000Y-110328228D01*
X145130839Y-110312148D01*
X145377401Y-110147401D01*
X145727401Y-109797401D01*
X145892148Y-109550839D01*
X145950000Y-109260000D01*
X145950000Y-108660000D01*
X145892148Y-108369161D01*
X145727401Y-108122599D01*
X145625122Y-108020320D01*
X145625162Y-107974833D01*
X145483117Y-107631057D01*
X145220327Y-107367808D01*
X144876799Y-107225162D01*
X144504833Y-107224838D01*
X144161057Y-107366883D01*
X143897808Y-107629673D01*
X143755162Y-107973201D01*
X143754838Y-108345167D01*
X143775173Y-108394381D01*
X143733808Y-108435673D01*
X143591162Y-108779201D01*
X143591121Y-108826077D01*
X143570860Y-108846338D01*
X143442799Y-108793162D01*
X143070833Y-108792838D01*
X142727057Y-108934883D01*
X142463808Y-109197673D01*
X142321162Y-109541201D01*
X142321064Y-109654134D01*
X141202599Y-110772599D01*
X141067810Y-110974325D01*
X141035489Y-110952729D01*
X140462000Y-110838655D01*
X139888511Y-110952729D01*
X139402330Y-111277585D01*
X139192000Y-111592366D01*
X138981670Y-111277585D01*
X138495489Y-110952729D01*
X137922000Y-110838655D01*
X137541000Y-110914441D01*
X137541000Y-106865167D01*
X139018838Y-106865167D01*
X139160883Y-107208943D01*
X139423673Y-107472192D01*
X139767201Y-107614838D01*
X140139167Y-107615162D01*
X140482943Y-107473117D01*
X140516118Y-107440000D01*
X141859000Y-107440000D01*
X142149839Y-107382148D01*
X142396401Y-107217401D01*
X142968635Y-106645167D01*
X147754838Y-106645167D01*
X147896883Y-106988943D01*
X148159673Y-107252192D01*
X148478406Y-107384542D01*
X149510926Y-108599272D01*
X149576472Y-108651196D01*
X149632099Y-108713629D01*
X149791539Y-108833991D01*
X149896883Y-109088943D01*
X150159673Y-109352192D01*
X150503201Y-109494838D01*
X150875167Y-109495162D01*
X151218943Y-109353117D01*
X151482192Y-109090327D01*
X151624838Y-108746799D01*
X151625162Y-108374833D01*
X151617095Y-108355310D01*
X151682192Y-108290327D01*
X151824838Y-107946799D01*
X151825162Y-107574833D01*
X151683117Y-107231057D01*
X151420327Y-106967808D01*
X151076799Y-106825162D01*
X151029923Y-106825121D01*
X150268020Y-106063218D01*
X150274838Y-106046799D01*
X150275162Y-105674833D01*
X150133117Y-105331057D01*
X149870327Y-105067808D01*
X149526799Y-104925162D01*
X149154833Y-104924838D01*
X148811057Y-105066883D01*
X148547808Y-105329673D01*
X148458885Y-105543823D01*
X148161057Y-105666883D01*
X147897808Y-105929673D01*
X147755162Y-106273201D01*
X147754838Y-106645167D01*
X142968635Y-106645167D01*
X144840802Y-104773000D01*
X145161000Y-104773000D01*
X145451839Y-104715148D01*
X145698401Y-104550401D01*
X145983802Y-104265000D01*
X149418198Y-104265000D01*
X149449599Y-104296401D01*
X149696160Y-104461148D01*
X149987000Y-104519000D01*
X150876000Y-104519000D01*
X151166839Y-104461148D01*
X151413401Y-104296401D01*
X151578148Y-104049839D01*
X151624429Y-103817167D01*
X151972838Y-103817167D01*
X152114883Y-104160943D01*
X152145360Y-104191474D01*
X152130008Y-107456426D01*
X152130355Y-107458215D01*
X152130000Y-107460000D01*
X152153342Y-107577347D01*
X152167614Y-107696130D01*
X152181209Y-107720305D01*
X152186492Y-107747534D01*
X152187497Y-107749053D01*
X152187852Y-107750839D01*
X152254321Y-107850318D01*
X152312965Y-107954601D01*
X152594407Y-108282949D01*
X152596883Y-108288943D01*
X152859673Y-108552192D01*
X153203201Y-108694838D01*
X153575167Y-108695162D01*
X153918943Y-108553117D01*
X154021819Y-108450420D01*
X154249201Y-108544838D01*
X154621167Y-108545162D01*
X154908939Y-108426257D01*
X154970144Y-108517858D01*
X155305923Y-108742217D01*
X155702000Y-108821002D01*
X156098077Y-108742217D01*
X156433856Y-108517858D01*
X156658215Y-108182079D01*
X156737000Y-107786002D01*
X156737000Y-105595167D01*
X162404838Y-105595167D01*
X162546883Y-105938943D01*
X162809673Y-106202192D01*
X163153201Y-106344838D01*
X163248548Y-106344921D01*
X163349161Y-106412148D01*
X163356745Y-106413657D01*
X163363259Y-106417823D01*
X163501883Y-106442527D01*
X163640000Y-106470000D01*
X163647584Y-106468491D01*
X163655197Y-106469848D01*
X165670306Y-106429546D01*
X165969239Y-106680021D01*
X166096883Y-106988943D01*
X166359673Y-107252192D01*
X166703201Y-107394838D01*
X167075167Y-107395162D01*
X167418943Y-107253117D01*
X167677565Y-106994946D01*
X167925167Y-106995162D01*
X168268943Y-106853117D01*
X168302118Y-106820000D01*
X168790000Y-106820000D01*
X169080839Y-106762148D01*
X169106415Y-106745059D01*
X169225167Y-106745162D01*
X169568943Y-106603117D01*
X169832192Y-106340327D01*
X169974838Y-105996799D01*
X169975162Y-105624833D01*
X169833117Y-105281057D01*
X169570327Y-105017808D01*
X169226799Y-104875162D01*
X168854833Y-104874838D01*
X168511057Y-105016883D01*
X168447846Y-105079984D01*
X168448162Y-104716833D01*
X168306117Y-104373057D01*
X168273000Y-104339882D01*
X168273000Y-104067463D01*
X168305192Y-104035327D01*
X168447838Y-103691799D01*
X168448162Y-103319833D01*
X168306117Y-102976057D01*
X168043327Y-102712808D01*
X167699799Y-102570162D01*
X167327833Y-102569838D01*
X166984057Y-102711883D01*
X166720808Y-102974673D01*
X166578162Y-103318201D01*
X166577838Y-103690167D01*
X166719883Y-104033943D01*
X166753000Y-104067118D01*
X166753000Y-104339537D01*
X166720808Y-104371673D01*
X166578162Y-104715201D01*
X166577838Y-105087167D01*
X166653521Y-105270334D01*
X166428107Y-105081461D01*
X166320288Y-105022409D01*
X166216741Y-104956177D01*
X166190978Y-104951586D01*
X166168024Y-104939014D01*
X166045818Y-104925718D01*
X165924803Y-104904152D01*
X164157266Y-104939503D01*
X164133117Y-104881057D01*
X163870327Y-104617808D01*
X163526799Y-104475162D01*
X163154833Y-104474838D01*
X162811057Y-104616883D01*
X162547808Y-104879673D01*
X162405162Y-105223201D01*
X162404838Y-105595167D01*
X156737000Y-105595167D01*
X156737000Y-105156005D01*
X156737001Y-105156000D01*
X156658215Y-104759922D01*
X156529417Y-104567162D01*
X156433856Y-104424144D01*
X156433853Y-104424142D01*
X156179856Y-104170144D01*
X155844077Y-103945785D01*
X155448000Y-103866999D01*
X155051923Y-103945785D01*
X154716144Y-104170144D01*
X154491785Y-104505923D01*
X154445865Y-104736775D01*
X154200327Y-104490808D01*
X153856799Y-104348162D01*
X153664642Y-104347995D01*
X153665352Y-104197107D01*
X153700192Y-104162327D01*
X153842838Y-103818799D01*
X153843162Y-103446833D01*
X153701117Y-103103057D01*
X153438327Y-102839808D01*
X153094799Y-102697162D01*
X152722833Y-102696838D01*
X152379057Y-102838883D01*
X152115808Y-103101673D01*
X151973162Y-103445201D01*
X151972838Y-103817167D01*
X151624429Y-103817167D01*
X151636000Y-103759000D01*
X151636000Y-101092000D01*
X151578148Y-100801161D01*
X151413401Y-100554599D01*
X151303122Y-100444320D01*
X151303162Y-100398833D01*
X151161117Y-100055057D01*
X150898327Y-99791808D01*
X150554799Y-99649162D01*
X150182833Y-99648838D01*
X149859629Y-99782383D01*
X149538799Y-99649162D01*
X149491923Y-99649121D01*
X149381401Y-99538599D01*
X149134839Y-99373852D01*
X148844000Y-99316000D01*
X146231463Y-99316000D01*
X146199327Y-99283808D01*
X145855799Y-99141162D01*
X145483833Y-99140838D01*
X145140057Y-99282883D01*
X144876808Y-99545673D01*
X144734162Y-99889201D01*
X144734121Y-99936077D01*
X144577101Y-100093097D01*
X144362161Y-100135852D01*
X144115599Y-100300599D01*
X143950852Y-100547161D01*
X143893000Y-100838000D01*
X143893000Y-102688537D01*
X143860808Y-102720673D01*
X143718162Y-103064201D01*
X143717838Y-103436167D01*
X143808533Y-103655665D01*
X141544198Y-105920000D01*
X140516463Y-105920000D01*
X140484327Y-105887808D01*
X140140799Y-105745162D01*
X139768833Y-105744838D01*
X139425057Y-105886883D01*
X139161808Y-106149673D01*
X139019162Y-106493201D01*
X139018838Y-106865167D01*
X137541000Y-106865167D01*
X137541000Y-100965000D01*
X143002000Y-100965000D01*
X143051410Y-100954994D01*
X143093035Y-100926553D01*
X143120315Y-100884159D01*
X143129000Y-100838000D01*
X143129000Y-100349001D01*
X143525077Y-100270215D01*
X143860856Y-100045856D01*
X143987853Y-99918858D01*
X143987856Y-99918856D01*
X144212215Y-99583077D01*
X144225436Y-99516611D01*
X144291001Y-99187000D01*
X144291000Y-99186995D01*
X144291000Y-98298000D01*
X152126999Y-98298000D01*
X152127000Y-98298005D01*
X152127000Y-99949000D01*
X152205785Y-100345077D01*
X152430144Y-100680856D01*
X152765923Y-100905215D01*
X152856952Y-100923322D01*
X153019923Y-101032215D01*
X153416000Y-101111000D01*
X153812077Y-101032215D01*
X154147856Y-100807856D01*
X154351525Y-100503041D01*
X154490167Y-100503162D01*
X154833943Y-100361117D01*
X155097192Y-100098327D01*
X155239838Y-99754799D01*
X155240162Y-99382833D01*
X155098117Y-99039057D01*
X155065000Y-99005882D01*
X155065000Y-98991167D01*
X158068838Y-98991167D01*
X158210883Y-99334943D01*
X158473673Y-99598192D01*
X158817201Y-99740838D01*
X159189167Y-99741162D01*
X159532943Y-99599117D01*
X159566118Y-99566000D01*
X160594198Y-99566000D01*
X160784000Y-99755802D01*
X160784000Y-101164537D01*
X160751808Y-101196673D01*
X160609162Y-101540201D01*
X160608838Y-101912167D01*
X160750883Y-102255943D01*
X161013673Y-102519192D01*
X161357201Y-102661838D01*
X161729167Y-102662162D01*
X162072943Y-102520117D01*
X162336192Y-102257327D01*
X162478838Y-101913799D01*
X162479162Y-101541833D01*
X162337117Y-101198057D01*
X162304000Y-101164882D01*
X162304000Y-99441000D01*
X162246148Y-99150161D01*
X162081401Y-98903599D01*
X161626400Y-98448598D01*
X161716838Y-98230799D01*
X161717162Y-97858833D01*
X161575117Y-97515057D01*
X161312327Y-97251808D01*
X160968799Y-97109162D01*
X160596833Y-97108838D01*
X160253057Y-97250883D01*
X160233529Y-97270377D01*
X159966288Y-97263850D01*
X159920327Y-97217808D01*
X159576799Y-97075162D01*
X159204833Y-97074838D01*
X158861057Y-97216883D01*
X158597808Y-97479673D01*
X158455162Y-97823201D01*
X158454979Y-98032926D01*
X158211808Y-98275673D01*
X158069162Y-98619201D01*
X158068838Y-98991167D01*
X155065000Y-98991167D01*
X155065000Y-98899072D01*
X155214943Y-98837117D01*
X155478192Y-98574327D01*
X155620838Y-98230799D01*
X155621162Y-97858833D01*
X155479117Y-97515057D01*
X155216327Y-97251808D01*
X154872799Y-97109162D01*
X154500833Y-97108838D01*
X154449813Y-97129919D01*
X154401855Y-97058145D01*
X154066077Y-96833786D01*
X153670000Y-96755000D01*
X153273922Y-96833786D01*
X152938144Y-97058145D01*
X152430144Y-97566144D01*
X152205785Y-97901923D01*
X152126999Y-98298000D01*
X144291000Y-98298000D01*
X144291000Y-95904000D01*
X145542000Y-95904000D01*
X145938077Y-95825215D01*
X146273856Y-95600856D01*
X146498215Y-95265077D01*
X146577000Y-94869000D01*
X168275000Y-94869000D01*
X168275000Y-100838000D01*
X168275000Y-100838000D01*
G37*
X168275000Y-100838000D02*
X168285006Y-100887410D01*
X168313447Y-100929035D01*
X168355841Y-100956315D01*
X168402000Y-100965000D01*
X173863000Y-100965000D01*
X173863000Y-110858560D01*
X172618400Y-110858560D01*
X172383083Y-110902838D01*
X172166959Y-111041910D01*
X172021969Y-111254110D01*
X172002768Y-111348927D01*
X171844036Y-111171268D01*
X171316791Y-110917291D01*
X171301026Y-110914642D01*
X171069002Y-111035782D01*
X171069002Y-110871000D01*
X170951116Y-110871000D01*
X171182192Y-110640327D01*
X171324838Y-110296799D01*
X171325162Y-109924833D01*
X171210265Y-109646760D01*
X172719035Y-109647000D01*
X172905167Y-109647162D01*
X173248943Y-109505117D01*
X173512192Y-109242327D01*
X173654838Y-108898799D01*
X173655162Y-108526833D01*
X173513117Y-108183057D01*
X173250327Y-107919808D01*
X172906799Y-107777162D01*
X172534833Y-107776838D01*
X172534512Y-107776970D01*
X160140149Y-107775000D01*
X160039090Y-107795085D01*
X159936079Y-107797508D01*
X159861886Y-107830304D01*
X159782328Y-107846116D01*
X159696649Y-107903345D01*
X159602406Y-107945004D01*
X159546412Y-108003696D01*
X159478960Y-108048750D01*
X159421702Y-108134413D01*
X159350578Y-108208964D01*
X159321306Y-108284616D01*
X159276230Y-108352054D01*
X159256113Y-108453104D01*
X159218930Y-108549202D01*
X158857362Y-110620310D01*
X158747808Y-110729673D01*
X158667417Y-110923276D01*
X158242000Y-110838655D01*
X157906860Y-110905318D01*
X157907162Y-110558833D01*
X157765117Y-110215057D01*
X157502327Y-109951808D01*
X157158799Y-109809162D01*
X156786833Y-109808838D01*
X156443057Y-109950883D01*
X156179808Y-110213673D01*
X156037162Y-110557201D01*
X156036840Y-110927270D01*
X155829000Y-111035783D01*
X155829000Y-112395000D01*
X155849000Y-112395000D01*
X155849000Y-112649000D01*
X155829000Y-112649000D01*
X155829000Y-114008217D01*
X156061026Y-114129358D01*
X156076791Y-114126709D01*
X156524327Y-113911129D01*
X156654928Y-114041730D01*
X156654838Y-114145167D01*
X156791122Y-114475000D01*
X156240816Y-114475000D01*
X156054833Y-114474838D01*
X155711057Y-114616883D01*
X155447808Y-114879673D01*
X155305162Y-115223201D01*
X155304838Y-115595167D01*
X155446883Y-115938943D01*
X155709673Y-116202192D01*
X156053201Y-116344838D01*
X156425167Y-116345162D01*
X156425559Y-116345000D01*
X158266560Y-116345000D01*
X158266560Y-116863000D01*
X158287634Y-116974997D01*
X158104833Y-116974838D01*
X157779417Y-117109297D01*
X157576799Y-117025162D01*
X157204833Y-117024838D01*
X156861057Y-117166883D01*
X156597808Y-117429673D01*
X156455162Y-117773201D01*
X156454838Y-118145167D01*
X156508484Y-118275000D01*
X154390000Y-118275000D01*
X154032191Y-118346173D01*
X153728855Y-118548855D01*
X153228855Y-119048855D01*
X153026173Y-119352191D01*
X152955000Y-119710000D01*
X152955000Y-121374454D01*
X152825887Y-121245116D01*
X152316816Y-121033731D01*
X151765602Y-121033250D01*
X151256163Y-121243746D01*
X150866056Y-121633173D01*
X150654671Y-122142244D01*
X150654190Y-122693458D01*
X150864686Y-123202897D01*
X151254113Y-123593004D01*
X151763184Y-123804389D01*
X152314398Y-123804870D01*
X152823837Y-123594374D01*
X152955000Y-123463440D01*
X152955000Y-123710000D01*
X152959205Y-123731142D01*
X152955964Y-123752456D01*
X152959261Y-123825000D01*
X149690000Y-123825000D01*
X149513886Y-123860031D01*
X149337597Y-123893954D01*
X149335112Y-123895592D01*
X149332191Y-123896173D01*
X149182869Y-123995947D01*
X149033000Y-124094736D01*
X149031331Y-124097201D01*
X149028855Y-124098855D01*
X148929110Y-124248134D01*
X148828426Y-124396799D01*
X148827827Y-124399716D01*
X148826173Y-124402191D01*
X148791154Y-124578245D01*
X148755018Y-124754156D01*
X148732320Y-128385808D01*
X148569703Y-128557991D01*
X148447808Y-128679673D01*
X148305162Y-129023201D01*
X148304838Y-129395167D01*
X148446883Y-129738943D01*
X148709673Y-130002192D01*
X149053201Y-130144838D01*
X149425167Y-130145162D01*
X149768943Y-130003117D01*
X150032192Y-129740327D01*
X150037663Y-129727151D01*
X150344757Y-129401993D01*
X150433236Y-129261019D01*
X150526574Y-129123201D01*
X150529902Y-129107001D01*
X150538694Y-129092992D01*
X150566491Y-128928881D01*
X150599982Y-128765844D01*
X150607422Y-127575338D01*
X150654190Y-127575338D01*
X150864686Y-128084777D01*
X151254113Y-128474884D01*
X151763184Y-128686269D01*
X152314398Y-128686750D01*
X152823837Y-128476254D01*
X153213944Y-128086827D01*
X153425329Y-127577756D01*
X153425810Y-127026542D01*
X153215314Y-126517103D01*
X152825887Y-126126996D01*
X152316816Y-125915611D01*
X151765602Y-125915130D01*
X151256163Y-126125626D01*
X150866056Y-126515053D01*
X150654671Y-127024124D01*
X150654190Y-127575338D01*
X150607422Y-127575338D01*
X150619175Y-125695000D01*
X153660032Y-125695000D01*
X153781527Y-125713478D01*
X153940000Y-125745000D01*
X153961142Y-125740795D01*
X153982456Y-125744036D01*
X154139342Y-125705348D01*
X154297809Y-125673827D01*
X154315733Y-125661851D01*
X154336664Y-125656689D01*
X154466796Y-125560914D01*
X154601145Y-125471145D01*
X154613122Y-125453220D01*
X154630484Y-125440442D01*
X154714059Y-125302156D01*
X154803827Y-125167809D01*
X154808033Y-125146666D01*
X154819183Y-125128216D01*
X154843478Y-124968473D01*
X154875000Y-124810000D01*
X154870795Y-124788858D01*
X154874036Y-124767544D01*
X154868466Y-124645000D01*
X154989184Y-124645000D01*
X155175167Y-124645162D01*
X155518943Y-124503117D01*
X155782192Y-124240327D01*
X155924838Y-123896799D01*
X155925162Y-123524833D01*
X155783117Y-123181057D01*
X155520327Y-122917808D01*
X155176799Y-122775162D01*
X154825000Y-122774856D01*
X154825000Y-121895075D01*
X154925167Y-121895162D01*
X155268943Y-121753117D01*
X155532192Y-121490327D01*
X155674838Y-121146799D01*
X155675029Y-120927920D01*
X155818973Y-120720000D01*
X156551821Y-120720000D01*
X158086093Y-122078927D01*
X158194646Y-122142313D01*
X158266560Y-122190365D01*
X158266560Y-122213000D01*
X158305858Y-122421850D01*
X158279000Y-122486691D01*
X158279000Y-122677250D01*
X158437750Y-122836000D01*
X158793312Y-122836000D01*
X158914000Y-122860440D01*
X160114000Y-122860440D01*
X160243887Y-122836000D01*
X160590250Y-122836000D01*
X160749000Y-122677250D01*
X160749000Y-122672332D01*
X160803201Y-122694838D01*
X161175167Y-122695162D01*
X161518943Y-122553117D01*
X161782192Y-122290327D01*
X161924838Y-121946799D01*
X161925162Y-121574833D01*
X161783117Y-121231057D01*
X161763099Y-121211004D01*
X161787153Y-120370000D01*
X162905675Y-120370000D01*
X163030000Y-120505628D01*
X163030000Y-122747537D01*
X162997808Y-122779673D01*
X162855162Y-123123201D01*
X162854838Y-123495167D01*
X162996883Y-123838943D01*
X163259673Y-124102192D01*
X163603201Y-124244838D01*
X163975167Y-124245162D01*
X164318943Y-124103117D01*
X164582192Y-123840327D01*
X164724838Y-123496799D01*
X164725162Y-123124833D01*
X164583117Y-122781057D01*
X164550000Y-122747882D01*
X164550000Y-120210000D01*
X164524231Y-120080453D01*
X164504118Y-119949934D01*
X164495419Y-119935604D01*
X164492148Y-119919161D01*
X164418775Y-119809350D01*
X164350237Y-119696449D01*
X163800237Y-119096449D01*
X163786715Y-119086538D01*
X163777401Y-119072599D01*
X163667590Y-118999226D01*
X163561064Y-118921148D01*
X163544779Y-118917166D01*
X163530839Y-118907852D01*
X163401297Y-118882084D01*
X163273012Y-118850718D01*
X163256445Y-118853271D01*
X163240000Y-118850000D01*
X161817595Y-118850000D01*
X161575102Y-118593243D01*
X161575162Y-118524833D01*
X161433117Y-118181057D01*
X161170327Y-117917808D01*
X160826799Y-117775162D01*
X160761440Y-117775105D01*
X160761440Y-117113000D01*
X160737056Y-116983411D01*
X160761440Y-116863000D01*
X160761440Y-116163000D01*
X160717162Y-115927683D01*
X160602022Y-115748750D01*
X163179000Y-115748750D01*
X163179000Y-116089309D01*
X163275673Y-116322698D01*
X163454301Y-116501327D01*
X163687690Y-116598000D01*
X164128250Y-116598000D01*
X164287000Y-116439250D01*
X164287000Y-115590000D01*
X164541000Y-115590000D01*
X164541000Y-116439250D01*
X164699750Y-116598000D01*
X165140310Y-116598000D01*
X165373699Y-116501327D01*
X165552327Y-116322698D01*
X165649000Y-116089309D01*
X165649000Y-115748750D01*
X165490250Y-115590000D01*
X164541000Y-115590000D01*
X164287000Y-115590000D01*
X163337750Y-115590000D01*
X163179000Y-115748750D01*
X160602022Y-115748750D01*
X160578090Y-115711559D01*
X160535468Y-115682437D01*
X160674838Y-115346799D01*
X160675162Y-114974833D01*
X160618084Y-114836691D01*
X163179000Y-114836691D01*
X163179000Y-115177250D01*
X163337750Y-115336000D01*
X164287000Y-115336000D01*
X164287000Y-114486750D01*
X164541000Y-114486750D01*
X164541000Y-115336000D01*
X165490250Y-115336000D01*
X165649000Y-115177250D01*
X165649000Y-114836691D01*
X165552327Y-114603302D01*
X165373699Y-114424673D01*
X165140310Y-114328000D01*
X164699750Y-114328000D01*
X164541000Y-114486750D01*
X164287000Y-114486750D01*
X164128250Y-114328000D01*
X163687690Y-114328000D01*
X163454301Y-114424673D01*
X163275673Y-114603302D01*
X163179000Y-114836691D01*
X160618084Y-114836691D01*
X160533117Y-114631057D01*
X160270327Y-114367808D01*
X160269935Y-114367645D01*
X160237322Y-114335032D01*
X160332192Y-114240327D01*
X160384011Y-114115534D01*
X160407209Y-114126709D01*
X160422974Y-114129358D01*
X160655000Y-114008217D01*
X160655000Y-112649000D01*
X160635000Y-112649000D01*
X160635000Y-112395000D01*
X160655000Y-112395000D01*
X160655000Y-111196821D01*
X160788681Y-110431076D01*
X160859673Y-110502192D01*
X161203201Y-110644838D01*
X161377827Y-110644990D01*
X162634412Y-110676702D01*
X162646233Y-110674659D01*
X162658000Y-110677000D01*
X162818309Y-110645112D01*
X162875167Y-110645162D01*
X162917036Y-110627862D01*
X162993902Y-110614579D01*
X163004042Y-110608168D01*
X163015809Y-110605827D01*
X163089448Y-110556623D01*
X163218943Y-110503117D01*
X163318978Y-110403257D01*
X163319145Y-110403145D01*
X163350854Y-110371436D01*
X163482192Y-110240327D01*
X163624838Y-109896799D01*
X163625057Y-109645554D01*
X168754924Y-109646370D01*
X168754838Y-109745167D01*
X168896883Y-110088943D01*
X168986042Y-110178258D01*
X168930000Y-110460000D01*
X168930000Y-110943681D01*
X168402000Y-110838655D01*
X167828511Y-110952729D01*
X167342330Y-111277585D01*
X167132000Y-111592366D01*
X166921670Y-111277585D01*
X166435489Y-110952729D01*
X165862000Y-110838655D01*
X165288511Y-110952729D01*
X164802330Y-111277585D01*
X164592000Y-111592366D01*
X164381670Y-111277585D01*
X163895489Y-110952729D01*
X163322000Y-110838655D01*
X162748511Y-110952729D01*
X162262330Y-111277585D01*
X162055539Y-111587069D01*
X161684036Y-111171268D01*
X161156791Y-110917291D01*
X161141026Y-110914642D01*
X160909000Y-111035783D01*
X160909000Y-112395000D01*
X160929000Y-112395000D01*
X160929000Y-112649000D01*
X160909000Y-112649000D01*
X160909000Y-114008217D01*
X161141026Y-114129358D01*
X161156791Y-114126709D01*
X161684036Y-113872732D01*
X162055539Y-113456931D01*
X162262330Y-113766415D01*
X162748511Y-114091271D01*
X163322000Y-114205345D01*
X163895489Y-114091271D01*
X164381670Y-113766415D01*
X164592000Y-113451634D01*
X164802330Y-113766415D01*
X165288511Y-114091271D01*
X165862000Y-114205345D01*
X166435489Y-114091271D01*
X166921670Y-113766415D01*
X167132000Y-113451634D01*
X167342330Y-113766415D01*
X167828511Y-114091271D01*
X168402000Y-114205345D01*
X168755152Y-114135099D01*
X168754838Y-114495167D01*
X168896883Y-114838943D01*
X169159673Y-115102192D01*
X169503201Y-115244838D01*
X169875167Y-115245162D01*
X170218943Y-115103117D01*
X170482192Y-114840327D01*
X170624838Y-114496799D01*
X170625162Y-114124833D01*
X170619214Y-114110437D01*
X170815000Y-114008217D01*
X170815000Y-112649000D01*
X170795000Y-112649000D01*
X170795000Y-112395000D01*
X170815000Y-112395000D01*
X170815000Y-112375000D01*
X171069000Y-112375000D01*
X171069000Y-112395000D01*
X171089000Y-112395000D01*
X171089000Y-112649000D01*
X171069000Y-112649000D01*
X171069000Y-114008217D01*
X171301026Y-114129358D01*
X171316791Y-114126709D01*
X171844036Y-113872732D01*
X172000907Y-113697155D01*
X172015238Y-113773317D01*
X172154310Y-113989441D01*
X172366510Y-114134431D01*
X172618400Y-114185440D01*
X173863000Y-114185440D01*
X173863000Y-114415560D01*
X172414000Y-114415560D01*
X172178683Y-114459838D01*
X171962559Y-114598910D01*
X171817569Y-114811110D01*
X171766560Y-115063000D01*
X171766560Y-116063000D01*
X171810838Y-116298317D01*
X171949910Y-116514441D01*
X172162110Y-116659431D01*
X172414000Y-116710440D01*
X173863000Y-116710440D01*
X173863000Y-127765560D01*
X173314000Y-127765560D01*
X173078683Y-127809838D01*
X172862559Y-127948910D01*
X172717569Y-128161110D01*
X172666560Y-128413000D01*
X172666560Y-129713000D01*
X172710838Y-129948317D01*
X172849910Y-130164441D01*
X173062110Y-130309431D01*
X173314000Y-130360440D01*
X173863000Y-130360440D01*
X173863000Y-130670560D01*
X172618400Y-130670560D01*
X172383083Y-130714838D01*
X172166959Y-130853910D01*
X172021969Y-131066110D01*
X172002768Y-131160927D01*
X171844036Y-130983268D01*
X171316791Y-130729291D01*
X171301026Y-130726642D01*
X171069000Y-130847783D01*
X171069000Y-132207000D01*
X171089000Y-132207000D01*
X171089000Y-132461000D01*
X171069000Y-132461000D01*
X171069000Y-133820217D01*
X171301026Y-133941358D01*
X171316791Y-133938709D01*
X171844036Y-133684732D01*
X172000907Y-133509155D01*
X172015238Y-133585317D01*
X172154310Y-133801441D01*
X172366510Y-133946431D01*
X172618400Y-133997440D01*
X173863000Y-133997440D01*
X173863000Y-136271000D01*
X168402000Y-136271000D01*
X168352590Y-136281006D01*
X168310965Y-136309447D01*
X168283685Y-136351841D01*
X168275000Y-136398000D01*
X168275000Y-142367000D01*
X167849277Y-142367000D01*
X167869703Y-142336430D01*
X167956100Y-141902084D01*
X167956100Y-141296836D01*
X167869703Y-140862490D01*
X167623666Y-140494270D01*
X167255446Y-140248233D01*
X166821100Y-140161836D01*
X166386754Y-140248233D01*
X166018534Y-140494270D01*
X165772497Y-140862490D01*
X165686100Y-141296836D01*
X165686100Y-141902084D01*
X165772497Y-142336430D01*
X165792923Y-142367000D01*
X160849277Y-142367000D01*
X160869703Y-142336430D01*
X160956100Y-141902084D01*
X160956100Y-141296836D01*
X160869703Y-140862490D01*
X160623666Y-140494270D01*
X160255446Y-140248233D01*
X159821100Y-140161836D01*
X159386754Y-140248233D01*
X159018534Y-140494270D01*
X158772497Y-140862490D01*
X158686100Y-141296836D01*
X158686100Y-141902084D01*
X158772497Y-142336430D01*
X158792923Y-142367000D01*
X143129000Y-142367000D01*
X143129000Y-138899460D01*
X159536415Y-138899460D01*
X159620909Y-139324239D01*
X159861526Y-139684349D01*
X160221636Y-139924966D01*
X160646415Y-140009460D01*
X160995785Y-140009460D01*
X161420564Y-139924966D01*
X161780674Y-139684349D01*
X162021291Y-139324239D01*
X162105785Y-138899460D01*
X164536415Y-138899460D01*
X164620909Y-139324239D01*
X164861526Y-139684349D01*
X165221636Y-139924966D01*
X165646415Y-140009460D01*
X165995785Y-140009460D01*
X166420564Y-139924966D01*
X166780674Y-139684349D01*
X167021291Y-139324239D01*
X167105785Y-138899460D01*
X167021291Y-138474681D01*
X166780674Y-138114571D01*
X166420564Y-137873954D01*
X165995785Y-137789460D01*
X165646415Y-137789460D01*
X165221636Y-137873954D01*
X164861526Y-138114571D01*
X164620909Y-138474681D01*
X164536415Y-138899460D01*
X162105785Y-138899460D01*
X162021291Y-138474681D01*
X161780674Y-138114571D01*
X161420564Y-137873954D01*
X160995785Y-137789460D01*
X160646415Y-137789460D01*
X160221636Y-137873954D01*
X159861526Y-138114571D01*
X159620909Y-138474681D01*
X159536415Y-138899460D01*
X143129000Y-138899460D01*
X143129000Y-136398000D01*
X143118994Y-136348590D01*
X143090553Y-136306965D01*
X143048159Y-136279685D01*
X143002000Y-136271000D01*
X137541000Y-136271000D01*
X137541000Y-135694558D01*
X149081266Y-135694558D01*
X149133686Y-136094979D01*
X149335351Y-136444858D01*
X149655558Y-136690931D01*
X151179557Y-137443860D01*
X151569558Y-137548663D01*
X151969978Y-137496243D01*
X152319857Y-137294578D01*
X152565930Y-136974371D01*
X152652560Y-136652000D01*
X153270000Y-136652000D01*
X153348785Y-137048077D01*
X153573144Y-137383856D01*
X153908923Y-137608215D01*
X154305000Y-137687000D01*
X157226000Y-137687000D01*
X157622077Y-137608215D01*
X157957856Y-137383856D01*
X158182215Y-137048077D01*
X158261000Y-136652000D01*
X158182215Y-136255923D01*
X157957856Y-135920144D01*
X157920476Y-135895167D01*
X158754838Y-135895167D01*
X158896883Y-136238943D01*
X158923504Y-136265610D01*
X158855000Y-136610000D01*
X158933785Y-137006077D01*
X159158144Y-137341856D01*
X159493923Y-137566215D01*
X159890000Y-137645000D01*
X163839995Y-137645000D01*
X163840000Y-137645001D01*
X164236077Y-137566215D01*
X164571856Y-137341856D01*
X165221856Y-136691855D01*
X165446215Y-136356077D01*
X165525001Y-135960000D01*
X165446215Y-135563922D01*
X165221856Y-135228144D01*
X164886078Y-135003785D01*
X164490000Y-134924999D01*
X164093923Y-135003785D01*
X163809151Y-135194063D01*
X163783117Y-135131057D01*
X163520327Y-134867808D01*
X163176799Y-134725162D01*
X162804833Y-134724838D01*
X162461057Y-134866883D01*
X162377795Y-134950000D01*
X160252463Y-134950000D01*
X160220327Y-134917808D01*
X159876799Y-134775162D01*
X159504833Y-134774838D01*
X159161057Y-134916883D01*
X158897808Y-135179673D01*
X158755162Y-135523201D01*
X158754838Y-135895167D01*
X157920476Y-135895167D01*
X157622077Y-135695785D01*
X157226000Y-135617000D01*
X154305000Y-135617000D01*
X153908923Y-135695785D01*
X153573144Y-135920144D01*
X153348785Y-136255923D01*
X153270000Y-136652000D01*
X152652560Y-136652000D01*
X152670734Y-136584371D01*
X152618314Y-136183950D01*
X152416648Y-135834071D01*
X152096442Y-135587998D01*
X150572442Y-134835069D01*
X150182442Y-134730266D01*
X149782021Y-134782686D01*
X149432142Y-134984351D01*
X149186069Y-135304558D01*
X149081266Y-135694558D01*
X137541000Y-135694558D01*
X137541000Y-133941559D01*
X137922000Y-134017345D01*
X138495489Y-133903271D01*
X138981670Y-133578415D01*
X139192000Y-133263634D01*
X139402330Y-133578415D01*
X139888511Y-133903271D01*
X140462000Y-134017345D01*
X141035489Y-133903271D01*
X141521670Y-133578415D01*
X141732000Y-133263634D01*
X141942330Y-133578415D01*
X142428511Y-133903271D01*
X143002000Y-134017345D01*
X143575489Y-133903271D01*
X144061670Y-133578415D01*
X144272000Y-133263634D01*
X144482330Y-133578415D01*
X144968511Y-133903271D01*
X145542000Y-134017345D01*
X146115489Y-133903271D01*
X146601670Y-133578415D01*
X146812000Y-133263634D01*
X147022330Y-133578415D01*
X147508511Y-133903271D01*
X148082000Y-134017345D01*
X148655489Y-133903271D01*
X149141670Y-133578415D01*
X149352000Y-133263634D01*
X149562330Y-133578415D01*
X150048511Y-133903271D01*
X150622000Y-134017345D01*
X151195489Y-133903271D01*
X151681670Y-133578415D01*
X151888461Y-133268931D01*
X152259964Y-133684732D01*
X152787209Y-133938709D01*
X152802974Y-133941358D01*
X153035000Y-133820217D01*
X153035000Y-132461000D01*
X153015000Y-132461000D01*
X153015000Y-132207000D01*
X153035000Y-132207000D01*
X153035000Y-132187000D01*
X153289000Y-132187000D01*
X153289000Y-132207000D01*
X153309000Y-132207000D01*
X153309000Y-132461000D01*
X153289000Y-132461000D01*
X153289000Y-133820217D01*
X153521026Y-133941358D01*
X153536791Y-133938709D01*
X153561313Y-133926897D01*
X153505000Y-134210000D01*
X153576173Y-134567809D01*
X153653056Y-134682872D01*
X153696883Y-134788943D01*
X153778680Y-134870882D01*
X153778855Y-134871145D01*
X153828564Y-134920854D01*
X153959673Y-135052192D01*
X154303201Y-135194838D01*
X154675167Y-135195162D01*
X155018943Y-135053117D01*
X155158367Y-134913936D01*
X155353201Y-134994838D01*
X155725167Y-134995162D01*
X156068943Y-134853117D01*
X156332192Y-134590327D01*
X156474838Y-134246799D01*
X156475162Y-133874833D01*
X156441170Y-133792566D01*
X156761670Y-133578415D01*
X156972000Y-133263634D01*
X157182330Y-133578415D01*
X157668511Y-133903271D01*
X158242000Y-134017345D01*
X158815489Y-133903271D01*
X158936087Y-133822690D01*
X158952599Y-133847401D01*
X159552599Y-134447401D01*
X159799161Y-134612148D01*
X160090000Y-134670000D01*
X160677711Y-134670000D01*
X160809673Y-134802192D01*
X161153201Y-134944838D01*
X161525167Y-134945162D01*
X161868943Y-134803117D01*
X162132192Y-134540327D01*
X162274838Y-134196799D01*
X162275162Y-133824833D01*
X162133117Y-133481057D01*
X161997498Y-133345202D01*
X162052000Y-133263634D01*
X162262330Y-133578415D01*
X162748511Y-133903271D01*
X163322000Y-134017345D01*
X163895489Y-133903271D01*
X164381670Y-133578415D01*
X164592000Y-133263634D01*
X164802330Y-133578415D01*
X165288511Y-133903271D01*
X165862000Y-134017345D01*
X166435489Y-133903271D01*
X166921670Y-133578415D01*
X167132000Y-133263634D01*
X167342330Y-133578415D01*
X167828511Y-133903271D01*
X168402000Y-134017345D01*
X168975489Y-133903271D01*
X169461670Y-133578415D01*
X169668461Y-133268931D01*
X170039964Y-133684732D01*
X170567209Y-133938709D01*
X170582974Y-133941358D01*
X170815000Y-133820217D01*
X170815000Y-132461000D01*
X170795000Y-132461000D01*
X170795000Y-132207000D01*
X170815000Y-132207000D01*
X170815000Y-130847783D01*
X170582974Y-130726642D01*
X170567209Y-130729291D01*
X170039964Y-130983268D01*
X169668461Y-131399069D01*
X169461670Y-131089585D01*
X168975489Y-130764729D01*
X168402000Y-130650655D01*
X167828511Y-130764729D01*
X167342330Y-131089585D01*
X167132000Y-131404366D01*
X166921670Y-131089585D01*
X166435489Y-130764729D01*
X165862000Y-130650655D01*
X165288511Y-130764729D01*
X164802330Y-131089585D01*
X164592000Y-131404366D01*
X164381670Y-131089585D01*
X163895489Y-130764729D01*
X163322000Y-130650655D01*
X162748511Y-130764729D01*
X162262330Y-131089585D01*
X162052000Y-131404366D01*
X161841670Y-131089585D01*
X161355489Y-130764729D01*
X161075132Y-130708963D01*
X161075162Y-130674833D01*
X160933117Y-130331057D01*
X160670327Y-130067808D01*
X160326799Y-129925162D01*
X159954833Y-129924838D01*
X159611057Y-130066883D01*
X159347808Y-130329673D01*
X159237459Y-130595422D01*
X159026620Y-130757606D01*
X158993908Y-130794998D01*
X158952599Y-130822599D01*
X158937011Y-130845928D01*
X158815489Y-130764729D01*
X158242000Y-130650655D01*
X157717641Y-130754956D01*
X157824838Y-130496799D01*
X157825162Y-130124833D01*
X157683117Y-129781057D01*
X157450000Y-129547533D01*
X157450000Y-125874802D01*
X158151802Y-125173000D01*
X158266560Y-125173000D01*
X158266560Y-125513000D01*
X158310838Y-125748317D01*
X158368051Y-125837228D01*
X158317569Y-125911110D01*
X158266560Y-126163000D01*
X158266560Y-127263000D01*
X158310838Y-127498317D01*
X158449910Y-127714441D01*
X158662110Y-127859431D01*
X158914000Y-127910440D01*
X159067337Y-127910440D01*
X158897808Y-128079673D01*
X158755162Y-128423201D01*
X158754838Y-128795167D01*
X158896883Y-129138943D01*
X159159673Y-129402192D01*
X159503201Y-129544838D01*
X159875167Y-129545162D01*
X160178083Y-129420000D01*
X163477624Y-129420000D01*
X163559673Y-129502192D01*
X163903201Y-129644838D01*
X164275167Y-129645162D01*
X164275448Y-129645046D01*
X164396883Y-129938943D01*
X164659673Y-130202192D01*
X165003201Y-130344838D01*
X165375167Y-130345162D01*
X165718943Y-130203117D01*
X165890024Y-130032334D01*
X166009673Y-130152192D01*
X166353201Y-130294838D01*
X166725167Y-130295162D01*
X167068943Y-130153117D01*
X167332192Y-129890327D01*
X167466888Y-129565945D01*
X167618943Y-129503117D01*
X167882192Y-129240327D01*
X168024838Y-128896799D01*
X168025066Y-128635352D01*
X168050000Y-128510000D01*
X168050000Y-127872463D01*
X168082192Y-127840327D01*
X168224838Y-127496799D01*
X168225162Y-127124833D01*
X168083117Y-126781057D01*
X167820327Y-126517808D01*
X167476799Y-126375162D01*
X167104833Y-126374838D01*
X166803959Y-126499157D01*
X166027401Y-125722599D01*
X165780839Y-125557852D01*
X165490000Y-125500000D01*
X165452463Y-125500000D01*
X165420327Y-125467808D01*
X165076799Y-125325162D01*
X164704833Y-125324838D01*
X164361057Y-125466883D01*
X164097808Y-125729673D01*
X163955162Y-126073201D01*
X163954838Y-126445167D01*
X164096883Y-126788943D01*
X164359673Y-127052192D01*
X164605135Y-127154117D01*
X164604838Y-127495167D01*
X164746883Y-127838943D01*
X164780000Y-127872118D01*
X164780000Y-127962685D01*
X164767216Y-128064954D01*
X164625077Y-127922566D01*
X164625162Y-127824833D01*
X164483117Y-127481057D01*
X164220327Y-127217808D01*
X163876799Y-127075162D01*
X163504833Y-127074838D01*
X163161057Y-127216883D01*
X163127882Y-127250000D01*
X160902463Y-127250000D01*
X160870327Y-127217808D01*
X160761440Y-127172594D01*
X160761440Y-126163000D01*
X160717162Y-125927683D01*
X160659949Y-125838772D01*
X160710431Y-125764890D01*
X160761440Y-125513000D01*
X160761440Y-124813000D01*
X160722426Y-124605658D01*
X160761440Y-124413000D01*
X160761440Y-123713000D01*
X160722142Y-123504150D01*
X160749000Y-123439309D01*
X160749000Y-123248750D01*
X160590250Y-123090000D01*
X160234688Y-123090000D01*
X160114000Y-123065560D01*
X158914000Y-123065560D01*
X158784113Y-123090000D01*
X158437750Y-123090000D01*
X158279000Y-123248750D01*
X158279000Y-123439309D01*
X158307870Y-123509007D01*
X158278710Y-123653000D01*
X157837000Y-123653000D01*
X157546161Y-123710852D01*
X157299599Y-123875599D01*
X156152599Y-125022599D01*
X155987852Y-125269161D01*
X155930000Y-125560000D01*
X155930000Y-125777585D01*
X155870327Y-125717808D01*
X155526799Y-125575162D01*
X155154833Y-125574838D01*
X154811057Y-125716883D01*
X154547808Y-125979673D01*
X154405162Y-126323201D01*
X154404838Y-126695167D01*
X154546883Y-127038943D01*
X154809673Y-127302192D01*
X155153201Y-127444838D01*
X155250120Y-127444922D01*
X155479998Y-127674800D01*
X155479998Y-130345200D01*
X155367912Y-130457286D01*
X155359826Y-130437718D01*
X155351056Y-130149756D01*
X155201249Y-129817115D01*
X154935549Y-129567122D01*
X154535549Y-129317122D01*
X154422961Y-129274454D01*
X154317134Y-129217015D01*
X154253877Y-129210376D01*
X154194406Y-129187838D01*
X154074059Y-129191503D01*
X153954308Y-129178935D01*
X153893328Y-129197008D01*
X153829756Y-129198944D01*
X153719970Y-129248387D01*
X153604528Y-129282601D01*
X152692882Y-129762414D01*
X152561057Y-129816883D01*
X152297808Y-130079673D01*
X152155162Y-130423201D01*
X152154838Y-130795167D01*
X152241225Y-131004241D01*
X151888461Y-131399069D01*
X151681670Y-131089585D01*
X151195489Y-130764729D01*
X150622000Y-130650655D01*
X150048511Y-130764729D01*
X149562330Y-131089585D01*
X149352000Y-131404366D01*
X149141670Y-131089585D01*
X148655489Y-130764729D01*
X148082000Y-130650655D01*
X147508511Y-130764729D01*
X147022330Y-131089585D01*
X146812000Y-131404366D01*
X146601670Y-131089585D01*
X146115489Y-130764729D01*
X145542000Y-130650655D01*
X144968511Y-130764729D01*
X144482330Y-131089585D01*
X144272000Y-131404366D01*
X144061670Y-131089585D01*
X143575489Y-130764729D01*
X143002000Y-130650655D01*
X142428511Y-130764729D01*
X141942330Y-131089585D01*
X141732000Y-131404366D01*
X141521670Y-131089585D01*
X141035489Y-130764729D01*
X140462000Y-130650655D01*
X139888511Y-130764729D01*
X139402330Y-131089585D01*
X139192000Y-131404366D01*
X138981670Y-131089585D01*
X138495489Y-130764729D01*
X137922000Y-130650655D01*
X137541000Y-130726441D01*
X137541000Y-128377609D01*
X137846538Y-128377609D01*
X137861714Y-128469376D01*
X138108067Y-128889125D01*
X138496299Y-129182647D01*
X138967304Y-129305256D01*
X139163000Y-129142547D01*
X139163000Y-128187000D01*
X139417000Y-128187000D01*
X139417000Y-129142547D01*
X139612696Y-129305256D01*
X140083701Y-129182647D01*
X140471933Y-128889125D01*
X140718286Y-128469376D01*
X140733462Y-128377609D01*
X140608731Y-128187000D01*
X139417000Y-128187000D01*
X139163000Y-128187000D01*
X137971269Y-128187000D01*
X137846538Y-128377609D01*
X137541000Y-128377609D01*
X137541000Y-125460000D01*
X137792560Y-125460000D01*
X137792560Y-126660000D01*
X137836838Y-126895317D01*
X137975910Y-127111441D01*
X138128309Y-127215571D01*
X138108067Y-127230875D01*
X137861714Y-127650624D01*
X137846538Y-127742391D01*
X137971269Y-127933000D01*
X139163000Y-127933000D01*
X139163000Y-127913000D01*
X139417000Y-127913000D01*
X139417000Y-127933000D01*
X140608731Y-127933000D01*
X140733462Y-127742391D01*
X140718286Y-127650624D01*
X140471933Y-127230875D01*
X140450580Y-127214731D01*
X140591441Y-127124090D01*
X140679644Y-126995000D01*
X141252710Y-126995000D01*
X142428564Y-128170854D01*
X142559673Y-128302192D01*
X142903201Y-128444838D01*
X143275167Y-128445162D01*
X143618943Y-128303117D01*
X143882192Y-128040327D01*
X144024838Y-127696799D01*
X144025162Y-127324833D01*
X143883117Y-126981057D01*
X143620327Y-126717808D01*
X143619935Y-126717645D01*
X142301145Y-125398855D01*
X141997809Y-125196173D01*
X141640000Y-125125000D01*
X140679018Y-125125000D01*
X140604090Y-125008559D01*
X140391890Y-124863569D01*
X140140000Y-124812560D01*
X138440000Y-124812560D01*
X138204683Y-124856838D01*
X137988559Y-124995910D01*
X137843569Y-125208110D01*
X137792560Y-125460000D01*
X137541000Y-125460000D01*
X137541000Y-124545167D01*
X142504838Y-124545167D01*
X142646883Y-124888943D01*
X142909673Y-125152192D01*
X143253201Y-125294838D01*
X143625167Y-125295162D01*
X143968943Y-125153117D01*
X144232192Y-124890327D01*
X144374838Y-124546799D01*
X144375162Y-124174833D01*
X144233117Y-123831057D01*
X144150000Y-123747795D01*
X144150000Y-121681604D01*
X144218943Y-121653117D01*
X144482192Y-121390327D01*
X144624838Y-121046799D01*
X144625162Y-120674833D01*
X144509607Y-120395167D01*
X145854838Y-120395167D01*
X145996883Y-120738943D01*
X146259673Y-121002192D01*
X146316760Y-121025897D01*
X146287852Y-121069161D01*
X146230000Y-121360000D01*
X146230000Y-123747711D01*
X146097808Y-123879673D01*
X145955162Y-124223201D01*
X145954838Y-124595167D01*
X146096883Y-124938943D01*
X146359673Y-125202192D01*
X146703201Y-125344838D01*
X147075167Y-125345162D01*
X147418943Y-125203117D01*
X147682192Y-124940327D01*
X147824838Y-124596799D01*
X147825162Y-124224833D01*
X147750000Y-124042927D01*
X147750000Y-121764242D01*
X148018943Y-121653117D01*
X148282192Y-121390327D01*
X148342482Y-121245134D01*
X148375167Y-121245162D01*
X148718943Y-121103117D01*
X148982192Y-120840327D01*
X149124838Y-120496799D01*
X149125162Y-120124833D01*
X148983117Y-119781057D01*
X148720327Y-119517808D01*
X148376799Y-119375162D01*
X148004833Y-119374838D01*
X147822927Y-119450000D01*
X147352463Y-119450000D01*
X147320327Y-119417808D01*
X146976799Y-119275162D01*
X146604833Y-119274838D01*
X146261057Y-119416883D01*
X145997808Y-119679673D01*
X145855162Y-120023201D01*
X145854838Y-120395167D01*
X144509607Y-120395167D01*
X144483117Y-120331057D01*
X144220327Y-120067808D01*
X143876799Y-119925162D01*
X143504833Y-119924838D01*
X143161057Y-120066883D01*
X142897808Y-120329673D01*
X142755162Y-120673201D01*
X142755079Y-120768548D01*
X142687852Y-120869161D01*
X142630000Y-121160000D01*
X142630000Y-123872559D01*
X142505162Y-124173201D01*
X142504838Y-124545167D01*
X137541000Y-124545167D01*
X137541000Y-117495167D01*
X149804838Y-117495167D01*
X149946883Y-117838943D01*
X150209673Y-118102192D01*
X150553201Y-118244838D01*
X150925167Y-118245162D01*
X151268943Y-118103117D01*
X151532192Y-117840327D01*
X151674838Y-117496799D01*
X151674925Y-117397365D01*
X152950854Y-116121436D01*
X153082192Y-115990327D01*
X153224838Y-115646799D01*
X153225162Y-115274833D01*
X153083117Y-114931057D01*
X152820327Y-114667808D01*
X152476799Y-114525162D01*
X152104833Y-114524838D01*
X151761057Y-114666883D01*
X151497808Y-114929673D01*
X151497645Y-114930065D01*
X150078855Y-116348855D01*
X149876173Y-116652191D01*
X149805000Y-117010000D01*
X149805000Y-117309184D01*
X149804838Y-117495167D01*
X137541000Y-117495167D01*
X137541000Y-114129559D01*
X137922000Y-114205345D01*
X138495489Y-114091271D01*
X138981670Y-113766415D01*
X139192000Y-113451634D01*
X139402330Y-113766415D01*
X139888511Y-114091271D01*
X140462000Y-114205345D01*
X141035489Y-114091271D01*
X141171284Y-114000535D01*
X141202599Y-114047401D01*
X142554878Y-115399680D01*
X142554838Y-115445167D01*
X142696883Y-115788943D01*
X142959673Y-116052192D01*
X143303201Y-116194838D01*
X143675167Y-116195162D01*
X143694752Y-116187070D01*
X143809673Y-116302192D01*
X144153201Y-116444838D01*
X144525167Y-116445162D01*
X144868943Y-116303117D01*
X145132192Y-116040327D01*
X145274838Y-115696799D01*
X145275162Y-115324833D01*
X145133117Y-114981057D01*
X145050000Y-114897795D01*
X145050000Y-114107480D01*
X145542000Y-114205345D01*
X146115489Y-114091271D01*
X146601670Y-113766415D01*
X146812000Y-113451634D01*
X147022330Y-113766415D01*
X147508511Y-114091271D01*
X147754886Y-114140278D01*
X147754838Y-114195167D01*
X147896883Y-114538943D01*
X148159673Y-114802192D01*
X148503201Y-114944838D01*
X148875167Y-114945162D01*
X149218943Y-114803117D01*
X149252118Y-114770000D01*
X151240000Y-114770000D01*
X151530839Y-114712148D01*
X151777401Y-114547401D01*
X152375716Y-113949086D01*
X152588511Y-114091271D01*
X153162000Y-114205345D01*
X153735489Y-114091271D01*
X154221670Y-113766415D01*
X154428461Y-113456931D01*
X154799964Y-113872732D01*
X155327209Y-114126709D01*
X155342974Y-114129358D01*
X155575000Y-114008217D01*
X155575000Y-112649000D01*
X155555000Y-112649000D01*
X155555000Y-112395000D01*
X155575000Y-112395000D01*
X155575000Y-111035783D01*
X155342974Y-110914642D01*
X155327209Y-110917291D01*
X154799964Y-111171268D01*
X154428461Y-111587069D01*
X154221670Y-111277585D01*
X153735489Y-110952729D01*
X153162000Y-110838655D01*
X152703297Y-110929897D01*
X152683117Y-110881057D01*
X152420327Y-110617808D01*
X152076799Y-110475162D01*
X151704833Y-110474838D01*
X151361057Y-110616883D01*
X151097808Y-110879673D01*
X151077239Y-110929208D01*
X150622000Y-110838655D01*
X150048511Y-110952729D01*
X149562330Y-111277585D01*
X149352000Y-111592366D01*
X149141670Y-111277585D01*
X148655489Y-110952729D01*
X148082000Y-110838655D01*
X147508511Y-110952729D01*
X147022330Y-111277585D01*
X146812000Y-111592366D01*
X146601670Y-111277585D01*
X146115489Y-110952729D01*
X145542000Y-110838655D01*
X145050000Y-110936520D01*
X145050000Y-110328228D01*
X145130839Y-110312148D01*
X145377401Y-110147401D01*
X145727401Y-109797401D01*
X145892148Y-109550839D01*
X145950000Y-109260000D01*
X145950000Y-108660000D01*
X145892148Y-108369161D01*
X145727401Y-108122599D01*
X145625122Y-108020320D01*
X145625162Y-107974833D01*
X145483117Y-107631057D01*
X145220327Y-107367808D01*
X144876799Y-107225162D01*
X144504833Y-107224838D01*
X144161057Y-107366883D01*
X143897808Y-107629673D01*
X143755162Y-107973201D01*
X143754838Y-108345167D01*
X143775173Y-108394381D01*
X143733808Y-108435673D01*
X143591162Y-108779201D01*
X143591121Y-108826077D01*
X143570860Y-108846338D01*
X143442799Y-108793162D01*
X143070833Y-108792838D01*
X142727057Y-108934883D01*
X142463808Y-109197673D01*
X142321162Y-109541201D01*
X142321064Y-109654134D01*
X141202599Y-110772599D01*
X141067810Y-110974325D01*
X141035489Y-110952729D01*
X140462000Y-110838655D01*
X139888511Y-110952729D01*
X139402330Y-111277585D01*
X139192000Y-111592366D01*
X138981670Y-111277585D01*
X138495489Y-110952729D01*
X137922000Y-110838655D01*
X137541000Y-110914441D01*
X137541000Y-106865167D01*
X139018838Y-106865167D01*
X139160883Y-107208943D01*
X139423673Y-107472192D01*
X139767201Y-107614838D01*
X140139167Y-107615162D01*
X140482943Y-107473117D01*
X140516118Y-107440000D01*
X141859000Y-107440000D01*
X142149839Y-107382148D01*
X142396401Y-107217401D01*
X142968635Y-106645167D01*
X147754838Y-106645167D01*
X147896883Y-106988943D01*
X148159673Y-107252192D01*
X148478406Y-107384542D01*
X149510926Y-108599272D01*
X149576472Y-108651196D01*
X149632099Y-108713629D01*
X149791539Y-108833991D01*
X149896883Y-109088943D01*
X150159673Y-109352192D01*
X150503201Y-109494838D01*
X150875167Y-109495162D01*
X151218943Y-109353117D01*
X151482192Y-109090327D01*
X151624838Y-108746799D01*
X151625162Y-108374833D01*
X151617095Y-108355310D01*
X151682192Y-108290327D01*
X151824838Y-107946799D01*
X151825162Y-107574833D01*
X151683117Y-107231057D01*
X151420327Y-106967808D01*
X151076799Y-106825162D01*
X151029923Y-106825121D01*
X150268020Y-106063218D01*
X150274838Y-106046799D01*
X150275162Y-105674833D01*
X150133117Y-105331057D01*
X149870327Y-105067808D01*
X149526799Y-104925162D01*
X149154833Y-104924838D01*
X148811057Y-105066883D01*
X148547808Y-105329673D01*
X148458885Y-105543823D01*
X148161057Y-105666883D01*
X147897808Y-105929673D01*
X147755162Y-106273201D01*
X147754838Y-106645167D01*
X142968635Y-106645167D01*
X144840802Y-104773000D01*
X145161000Y-104773000D01*
X145451839Y-104715148D01*
X145698401Y-104550401D01*
X145983802Y-104265000D01*
X149418198Y-104265000D01*
X149449599Y-104296401D01*
X149696160Y-104461148D01*
X149987000Y-104519000D01*
X150876000Y-104519000D01*
X151166839Y-104461148D01*
X151413401Y-104296401D01*
X151578148Y-104049839D01*
X151624429Y-103817167D01*
X151972838Y-103817167D01*
X152114883Y-104160943D01*
X152145360Y-104191474D01*
X152130008Y-107456426D01*
X152130355Y-107458215D01*
X152130000Y-107460000D01*
X152153342Y-107577347D01*
X152167614Y-107696130D01*
X152181209Y-107720305D01*
X152186492Y-107747534D01*
X152187497Y-107749053D01*
X152187852Y-107750839D01*
X152254321Y-107850318D01*
X152312965Y-107954601D01*
X152594407Y-108282949D01*
X152596883Y-108288943D01*
X152859673Y-108552192D01*
X153203201Y-108694838D01*
X153575167Y-108695162D01*
X153918943Y-108553117D01*
X154021819Y-108450420D01*
X154249201Y-108544838D01*
X154621167Y-108545162D01*
X154908939Y-108426257D01*
X154970144Y-108517858D01*
X155305923Y-108742217D01*
X155702000Y-108821002D01*
X156098077Y-108742217D01*
X156433856Y-108517858D01*
X156658215Y-108182079D01*
X156737000Y-107786002D01*
X156737000Y-105595167D01*
X162404838Y-105595167D01*
X162546883Y-105938943D01*
X162809673Y-106202192D01*
X163153201Y-106344838D01*
X163248548Y-106344921D01*
X163349161Y-106412148D01*
X163356745Y-106413657D01*
X163363259Y-106417823D01*
X163501883Y-106442527D01*
X163640000Y-106470000D01*
X163647584Y-106468491D01*
X163655197Y-106469848D01*
X165670306Y-106429546D01*
X165969239Y-106680021D01*
X166096883Y-106988943D01*
X166359673Y-107252192D01*
X166703201Y-107394838D01*
X167075167Y-107395162D01*
X167418943Y-107253117D01*
X167677565Y-106994946D01*
X167925167Y-106995162D01*
X168268943Y-106853117D01*
X168302118Y-106820000D01*
X168790000Y-106820000D01*
X169080839Y-106762148D01*
X169106415Y-106745059D01*
X169225167Y-106745162D01*
X169568943Y-106603117D01*
X169832192Y-106340327D01*
X169974838Y-105996799D01*
X169975162Y-105624833D01*
X169833117Y-105281057D01*
X169570327Y-105017808D01*
X169226799Y-104875162D01*
X168854833Y-104874838D01*
X168511057Y-105016883D01*
X168447846Y-105079984D01*
X168448162Y-104716833D01*
X168306117Y-104373057D01*
X168273000Y-104339882D01*
X168273000Y-104067463D01*
X168305192Y-104035327D01*
X168447838Y-103691799D01*
X168448162Y-103319833D01*
X168306117Y-102976057D01*
X168043327Y-102712808D01*
X167699799Y-102570162D01*
X167327833Y-102569838D01*
X166984057Y-102711883D01*
X166720808Y-102974673D01*
X166578162Y-103318201D01*
X166577838Y-103690167D01*
X166719883Y-104033943D01*
X166753000Y-104067118D01*
X166753000Y-104339537D01*
X166720808Y-104371673D01*
X166578162Y-104715201D01*
X166577838Y-105087167D01*
X166653521Y-105270334D01*
X166428107Y-105081461D01*
X166320288Y-105022409D01*
X166216741Y-104956177D01*
X166190978Y-104951586D01*
X166168024Y-104939014D01*
X166045818Y-104925718D01*
X165924803Y-104904152D01*
X164157266Y-104939503D01*
X164133117Y-104881057D01*
X163870327Y-104617808D01*
X163526799Y-104475162D01*
X163154833Y-104474838D01*
X162811057Y-104616883D01*
X162547808Y-104879673D01*
X162405162Y-105223201D01*
X162404838Y-105595167D01*
X156737000Y-105595167D01*
X156737000Y-105156005D01*
X156737001Y-105156000D01*
X156658215Y-104759922D01*
X156529417Y-104567162D01*
X156433856Y-104424144D01*
X156433853Y-104424142D01*
X156179856Y-104170144D01*
X155844077Y-103945785D01*
X155448000Y-103866999D01*
X155051923Y-103945785D01*
X154716144Y-104170144D01*
X154491785Y-104505923D01*
X154445865Y-104736775D01*
X154200327Y-104490808D01*
X153856799Y-104348162D01*
X153664642Y-104347995D01*
X153665352Y-104197107D01*
X153700192Y-104162327D01*
X153842838Y-103818799D01*
X153843162Y-103446833D01*
X153701117Y-103103057D01*
X153438327Y-102839808D01*
X153094799Y-102697162D01*
X152722833Y-102696838D01*
X152379057Y-102838883D01*
X152115808Y-103101673D01*
X151973162Y-103445201D01*
X151972838Y-103817167D01*
X151624429Y-103817167D01*
X151636000Y-103759000D01*
X151636000Y-101092000D01*
X151578148Y-100801161D01*
X151413401Y-100554599D01*
X151303122Y-100444320D01*
X151303162Y-100398833D01*
X151161117Y-100055057D01*
X150898327Y-99791808D01*
X150554799Y-99649162D01*
X150182833Y-99648838D01*
X149859629Y-99782383D01*
X149538799Y-99649162D01*
X149491923Y-99649121D01*
X149381401Y-99538599D01*
X149134839Y-99373852D01*
X148844000Y-99316000D01*
X146231463Y-99316000D01*
X146199327Y-99283808D01*
X145855799Y-99141162D01*
X145483833Y-99140838D01*
X145140057Y-99282883D01*
X144876808Y-99545673D01*
X144734162Y-99889201D01*
X144734121Y-99936077D01*
X144577101Y-100093097D01*
X144362161Y-100135852D01*
X144115599Y-100300599D01*
X143950852Y-100547161D01*
X143893000Y-100838000D01*
X143893000Y-102688537D01*
X143860808Y-102720673D01*
X143718162Y-103064201D01*
X143717838Y-103436167D01*
X143808533Y-103655665D01*
X141544198Y-105920000D01*
X140516463Y-105920000D01*
X140484327Y-105887808D01*
X140140799Y-105745162D01*
X139768833Y-105744838D01*
X139425057Y-105886883D01*
X139161808Y-106149673D01*
X139019162Y-106493201D01*
X139018838Y-106865167D01*
X137541000Y-106865167D01*
X137541000Y-100965000D01*
X143002000Y-100965000D01*
X143051410Y-100954994D01*
X143093035Y-100926553D01*
X143120315Y-100884159D01*
X143129000Y-100838000D01*
X143129000Y-100349001D01*
X143525077Y-100270215D01*
X143860856Y-100045856D01*
X143987853Y-99918858D01*
X143987856Y-99918856D01*
X144212215Y-99583077D01*
X144225436Y-99516611D01*
X144291001Y-99187000D01*
X144291000Y-99186995D01*
X144291000Y-98298000D01*
X152126999Y-98298000D01*
X152127000Y-98298005D01*
X152127000Y-99949000D01*
X152205785Y-100345077D01*
X152430144Y-100680856D01*
X152765923Y-100905215D01*
X152856952Y-100923322D01*
X153019923Y-101032215D01*
X153416000Y-101111000D01*
X153812077Y-101032215D01*
X154147856Y-100807856D01*
X154351525Y-100503041D01*
X154490167Y-100503162D01*
X154833943Y-100361117D01*
X155097192Y-100098327D01*
X155239838Y-99754799D01*
X155240162Y-99382833D01*
X155098117Y-99039057D01*
X155065000Y-99005882D01*
X155065000Y-98991167D01*
X158068838Y-98991167D01*
X158210883Y-99334943D01*
X158473673Y-99598192D01*
X158817201Y-99740838D01*
X159189167Y-99741162D01*
X159532943Y-99599117D01*
X159566118Y-99566000D01*
X160594198Y-99566000D01*
X160784000Y-99755802D01*
X160784000Y-101164537D01*
X160751808Y-101196673D01*
X160609162Y-101540201D01*
X160608838Y-101912167D01*
X160750883Y-102255943D01*
X161013673Y-102519192D01*
X161357201Y-102661838D01*
X161729167Y-102662162D01*
X162072943Y-102520117D01*
X162336192Y-102257327D01*
X162478838Y-101913799D01*
X162479162Y-101541833D01*
X162337117Y-101198057D01*
X162304000Y-101164882D01*
X162304000Y-99441000D01*
X162246148Y-99150161D01*
X162081401Y-98903599D01*
X161626400Y-98448598D01*
X161716838Y-98230799D01*
X161717162Y-97858833D01*
X161575117Y-97515057D01*
X161312327Y-97251808D01*
X160968799Y-97109162D01*
X160596833Y-97108838D01*
X160253057Y-97250883D01*
X160233529Y-97270377D01*
X159966288Y-97263850D01*
X159920327Y-97217808D01*
X159576799Y-97075162D01*
X159204833Y-97074838D01*
X158861057Y-97216883D01*
X158597808Y-97479673D01*
X158455162Y-97823201D01*
X158454979Y-98032926D01*
X158211808Y-98275673D01*
X158069162Y-98619201D01*
X158068838Y-98991167D01*
X155065000Y-98991167D01*
X155065000Y-98899072D01*
X155214943Y-98837117D01*
X155478192Y-98574327D01*
X155620838Y-98230799D01*
X155621162Y-97858833D01*
X155479117Y-97515057D01*
X155216327Y-97251808D01*
X154872799Y-97109162D01*
X154500833Y-97108838D01*
X154449813Y-97129919D01*
X154401855Y-97058145D01*
X154066077Y-96833786D01*
X153670000Y-96755000D01*
X153273922Y-96833786D01*
X152938144Y-97058145D01*
X152430144Y-97566144D01*
X152205785Y-97901923D01*
X152126999Y-98298000D01*
X144291000Y-98298000D01*
X144291000Y-95904000D01*
X145542000Y-95904000D01*
X145938077Y-95825215D01*
X146273856Y-95600856D01*
X146498215Y-95265077D01*
X146577000Y-94869000D01*
X168275000Y-94869000D01*
X168275000Y-100838000D01*
M02*
