G04 #@! TF.FileFunction,Copper,L2,Bot,Signal*
%FSLAX46Y46*%
G04 Gerber Fmt 4.6, Leading zero omitted, Abs format (unit mm)*
G04 Created by KiCad (PCBNEW 4.0.3+e1-6302~38~ubuntu14.04.1-stable) date Wed Aug 31 17:21:32 2016*
%MOMM*%
%LPD*%
G01*
G04 APERTURE LIST*
%ADD10C,0.100000*%
%ADD11C,1.501140*%
%ADD12R,1.727200X2.032000*%
%ADD13O,1.727200X2.032000*%
%ADD14R,1.700000X1.200000*%
%ADD15O,1.700000X1.200000*%
%ADD16O,1.250000X0.950000*%
%ADD17O,1.000000X1.550000*%
%ADD18R,1.200000X0.700000*%
%ADD19R,2.800000X1.000000*%
%ADD20R,1.900000X1.300000*%
%ADD21R,1.200000X1.100000*%
%ADD22R,1.200000X1.000000*%
%ADD23C,0.600000*%
%ADD24C,0.250000*%
%ADD25C,0.600000*%
%ADD26C,0.800000*%
%ADD27C,0.254000*%
G04 APERTURE END LIST*
D10*
D11*
X153490000Y-123800940D03*
X153490000Y-118919060D03*
D12*
X173482000Y-112522000D03*
D13*
X170942000Y-112522000D03*
X168402000Y-112522000D03*
X165862000Y-112522000D03*
X163322000Y-112522000D03*
X160782000Y-112522000D03*
X158242000Y-112522000D03*
X155702000Y-112522000D03*
X153162000Y-112522000D03*
X150622000Y-112522000D03*
X148082000Y-112522000D03*
X145542000Y-112522000D03*
X143002000Y-112522000D03*
X140462000Y-112522000D03*
X137922000Y-112522000D03*
D12*
X173482000Y-132334000D03*
D13*
X170942000Y-132334000D03*
X168402000Y-132334000D03*
X165862000Y-132334000D03*
X163322000Y-132334000D03*
X160782000Y-132334000D03*
X158242000Y-132334000D03*
X155702000Y-132334000D03*
X153162000Y-132334000D03*
X150622000Y-132334000D03*
X148082000Y-132334000D03*
X145542000Y-132334000D03*
X143002000Y-132334000D03*
X140462000Y-132334000D03*
X137922000Y-132334000D03*
D14*
X139290000Y-126060000D03*
D15*
X139290000Y-128060000D03*
D16*
X160821100Y-138899460D03*
X165821100Y-138899460D03*
D17*
X159821100Y-141599460D03*
X166821100Y-141599460D03*
D18*
X159514000Y-118563000D03*
D19*
X173814000Y-115563000D03*
D20*
X174264000Y-129063000D03*
D18*
X159514000Y-117463000D03*
X159514000Y-119663000D03*
X159514000Y-120763000D03*
X159514000Y-121863000D03*
X159514000Y-122963000D03*
X159514000Y-124063000D03*
X159514000Y-125163000D03*
D21*
X159514000Y-126713000D03*
D18*
X159514000Y-116513000D03*
D22*
X164414000Y-115463000D03*
D23*
X156440000Y-122710000D03*
X156440000Y-120360000D03*
X172190000Y-124760000D03*
X167790000Y-119510000D03*
X170890000Y-121210000D03*
X165690000Y-118060000D03*
X151940000Y-131110000D03*
X144040000Y-135910000D03*
X145840000Y-127710000D03*
X140290000Y-123610000D03*
X158640002Y-109810000D03*
X158242000Y-99568000D03*
X142113000Y-103251000D03*
X162814000Y-101854000D03*
X162306000Y-96266000D03*
X145034000Y-96266000D03*
X138938000Y-106426000D03*
X146050000Y-108458000D03*
X146558000Y-141478000D03*
X151638000Y-141478000D03*
X164990000Y-137160000D03*
X170790000Y-128360000D03*
X169440000Y-127060000D03*
X163625000Y-119245000D03*
X162790000Y-117910000D03*
X156840000Y-115610000D03*
X158140000Y-113810000D03*
X149040000Y-115810000D03*
X166940000Y-124460000D03*
X162040000Y-122210000D03*
X155702000Y-107786002D03*
X155448000Y-104902000D03*
X153416000Y-100076000D03*
X153670000Y-97790000D03*
X164490000Y-135960000D03*
X154305000Y-136652000D03*
X157226000Y-136652000D03*
X159890000Y-136610000D03*
X151638000Y-136525000D03*
X150114000Y-135763000D03*
X143129000Y-99314000D03*
X145542000Y-94869000D03*
X143090000Y-127510000D03*
X157240000Y-116410000D03*
X149840000Y-116510000D03*
X154440000Y-130660000D03*
X153740000Y-130610000D03*
X155540000Y-134060000D03*
X153090000Y-130610000D03*
X154490000Y-134260000D03*
X146740000Y-119710000D03*
X149890000Y-119810000D03*
X159540000Y-113710000D03*
X159540000Y-111260000D03*
X172720000Y-108712000D03*
X169740000Y-120010000D03*
X163490000Y-135660000D03*
X159590000Y-135660000D03*
X170790000Y-122210000D03*
X167513000Y-104902000D03*
X167513000Y-103505000D03*
X159004000Y-98806000D03*
X161544000Y-101727000D03*
X163340000Y-105410000D03*
X166740000Y-106560000D03*
X160782000Y-98044000D03*
X159390000Y-98010000D03*
X154686000Y-98044000D03*
X154305000Y-99568000D03*
X150368000Y-100584000D03*
X139954000Y-106680000D03*
X162740000Y-119160000D03*
X163540000Y-127510000D03*
X161940000Y-129310000D03*
X163390000Y-124460000D03*
X165790000Y-124510000D03*
X164890000Y-127510000D03*
X169690000Y-114310000D03*
X167140000Y-114260000D03*
X164690000Y-124510000D03*
X164190000Y-128010000D03*
X145415000Y-102616000D03*
X149987000Y-102870000D03*
X153670000Y-105283000D03*
X154390000Y-107660000D03*
X158390000Y-118160000D03*
X162440000Y-128660000D03*
X158390000Y-119310000D03*
X161590000Y-128560000D03*
X145542000Y-101219000D03*
X149987000Y-101600000D03*
X152908000Y-103632000D03*
X153390000Y-107760000D03*
X151890000Y-113310000D03*
X149352000Y-100584000D03*
X149340000Y-105860000D03*
X150890000Y-107760000D03*
X151890000Y-111410000D03*
X158190000Y-127560000D03*
X144653000Y-103251000D03*
X145669000Y-100076000D03*
X148690000Y-106460000D03*
X150690000Y-108560000D03*
X157540000Y-128260000D03*
X144690000Y-108160000D03*
X144340000Y-115510000D03*
X147490000Y-120860000D03*
X146890000Y-124410000D03*
X143490000Y-115260000D03*
X143690000Y-120860000D03*
X143440000Y-124360000D03*
X143256000Y-109728000D03*
D24*
X139290000Y-128060000D02*
X139290000Y-128360000D01*
D25*
X158640002Y-109810000D02*
X158640000Y-109810000D01*
D24*
X170942000Y-132334000D02*
X170942000Y-134058000D01*
X170942000Y-134058000D02*
X170940000Y-134060000D01*
X170940000Y-134060000D02*
X164590000Y-134060000D01*
X164590000Y-134060000D02*
X164590000Y-131360000D01*
X164590000Y-131360000D02*
X164590000Y-131210000D01*
D26*
X169440000Y-127060000D02*
X170790000Y-128360000D01*
D25*
X163640000Y-118760000D02*
X162790000Y-117910000D01*
X166740000Y-124060000D02*
X164790000Y-122110000D01*
X164790000Y-122110000D02*
X164790000Y-120860000D01*
X164790000Y-120860000D02*
X164790000Y-119910000D01*
X164790000Y-119910000D02*
X162790000Y-117910000D01*
X162790000Y-117910000D02*
X162790000Y-117910000D01*
X166740000Y-124460000D02*
X166740000Y-124060000D01*
X163640000Y-119230000D02*
X163640000Y-118760000D01*
X163640000Y-119230000D02*
X163625000Y-119245000D01*
X158138000Y-113762000D02*
X158138000Y-113808000D01*
X158140000Y-113810000D02*
X158138000Y-113808000D01*
X158138000Y-113762000D02*
X158290000Y-113610000D01*
X158290000Y-113610000D02*
X158138000Y-113762000D01*
X156840000Y-115660000D02*
X156840000Y-115610000D01*
X156840000Y-115610000D02*
X156840000Y-115660000D01*
X156840000Y-115660000D02*
X149190000Y-115660000D01*
X149190000Y-115660000D02*
X149040000Y-115810000D01*
X158242000Y-112522000D02*
X158290000Y-113610000D01*
D24*
X166940000Y-124460000D02*
X166740000Y-124460000D01*
D25*
X169440000Y-127060000D02*
X166840000Y-127060000D01*
X166840000Y-127060000D02*
X166740000Y-126960000D01*
X166740000Y-126960000D02*
X166740000Y-124460000D01*
X169540000Y-127060000D02*
X169440000Y-127060000D01*
X159514000Y-120763000D02*
X160593000Y-120763000D01*
X160593000Y-120763000D02*
X162040000Y-122210000D01*
D26*
X155702000Y-107786002D02*
X155702000Y-105156000D01*
X155702000Y-105156000D02*
X155448000Y-104902000D01*
X153416000Y-100076000D02*
X153416000Y-99949000D01*
X153416000Y-99949000D02*
X153162000Y-99949000D01*
X153162000Y-99949000D02*
X153162000Y-98298000D01*
X153162000Y-98298000D02*
X153670000Y-97790000D01*
X157226000Y-136652000D02*
X154305000Y-136652000D01*
X163840000Y-136610000D02*
X164490000Y-135960000D01*
X159890000Y-136610000D02*
X163840000Y-136610000D01*
D25*
X151638000Y-136525000D02*
X151638000Y-136519828D01*
X151638000Y-136519828D02*
X151640873Y-136516955D01*
X151640873Y-136516955D02*
X151640873Y-136522127D01*
X151640873Y-136522127D02*
X151638000Y-136525000D01*
X151638000Y-136525000D02*
X151638000Y-136515929D01*
D26*
X151638000Y-136515929D02*
X150114000Y-135763000D01*
X143256000Y-99187000D02*
X143129000Y-99314000D01*
X143256000Y-94869000D02*
X143256000Y-99187000D01*
X145542000Y-94869000D02*
X143256000Y-94869000D01*
D24*
X159500000Y-120777000D02*
X159514000Y-120763000D01*
D25*
X143090000Y-127510000D02*
X141640000Y-126060000D01*
X141640000Y-126060000D02*
X139290000Y-126060000D01*
X139290000Y-126060000D02*
X139390000Y-126060000D01*
X157161000Y-116489000D02*
X157240000Y-116410000D01*
X157161000Y-116489000D02*
X149840000Y-116510000D01*
D24*
X154440000Y-130660000D02*
X153740000Y-130310000D01*
X153740000Y-130310000D02*
X153740000Y-130610000D01*
X154440000Y-134210000D02*
X154440000Y-130360000D01*
D25*
X154440000Y-130360000D02*
X154040000Y-130110000D01*
X154040000Y-130110000D02*
X153090000Y-130610000D01*
X154490000Y-134260000D02*
X154440000Y-134210000D01*
D26*
X149790000Y-119710000D02*
X146740000Y-119710000D01*
X149890000Y-119810000D02*
X149790000Y-119710000D01*
D24*
X159540000Y-113710000D02*
X159540000Y-111260000D01*
X159590000Y-111260000D02*
X159540000Y-111260000D01*
D25*
X159717000Y-111133000D02*
X160140000Y-108710000D01*
X160140000Y-108710000D02*
X172720000Y-108712000D01*
D24*
X170790000Y-122210000D02*
X169740000Y-121160000D01*
X169740000Y-121160000D02*
X169740000Y-120010000D01*
X163490000Y-135860000D02*
X163490000Y-135660000D01*
X159790000Y-135860000D02*
X163490000Y-135860000D01*
X159590000Y-135660000D02*
X159790000Y-135860000D01*
X167513000Y-104902000D02*
X167513000Y-103505000D01*
X160909000Y-98806000D02*
X159004000Y-98806000D01*
X161544000Y-99441000D02*
X160909000Y-98806000D01*
X161544000Y-101727000D02*
X161544000Y-99441000D01*
X163640000Y-105710000D02*
X163340000Y-105410000D01*
X166740000Y-106560000D02*
X165990000Y-105710000D01*
X165990000Y-105710000D02*
X163640000Y-105710000D01*
X159390000Y-98010000D02*
X160782000Y-98044000D01*
X154305000Y-98425000D02*
X154686000Y-98044000D01*
X154305000Y-99568000D02*
X154305000Y-98425000D01*
X150876000Y-101092000D02*
X150368000Y-100584000D01*
X150876000Y-103759000D02*
X150876000Y-101092000D01*
X149987000Y-103759000D02*
X150876000Y-103759000D01*
X149733000Y-103505000D02*
X149987000Y-103759000D01*
X149225000Y-103505000D02*
X149733000Y-103505000D01*
X148971000Y-103505000D02*
X149225000Y-103505000D01*
X145669000Y-103505000D02*
X148971000Y-103505000D01*
X145161000Y-104013000D02*
X145669000Y-103505000D01*
X145176000Y-104013000D02*
X145161000Y-104013000D01*
X142509000Y-106680000D02*
X145176000Y-104013000D01*
X139954000Y-106680000D02*
X142509000Y-106680000D01*
X162740000Y-120560000D02*
X162740000Y-119160000D01*
X163190000Y-121010000D02*
X162740000Y-120560000D01*
X163290000Y-121010000D02*
X163190000Y-121010000D01*
X164040000Y-121760000D02*
X163290000Y-121010000D01*
X164040000Y-124760000D02*
X164040000Y-121760000D01*
X163690000Y-125110000D02*
X164040000Y-124760000D01*
X163440000Y-125110000D02*
X163690000Y-125110000D01*
X163390000Y-125160000D02*
X163440000Y-125110000D01*
X163390000Y-127360000D02*
X163390000Y-125160000D01*
X163540000Y-127510000D02*
X163390000Y-127360000D01*
X161940000Y-129310000D02*
X162640000Y-129310000D01*
X162640000Y-129310000D02*
X162740000Y-129310000D01*
X162740000Y-129310000D02*
X163090000Y-128960000D01*
X163090000Y-128960000D02*
X163090000Y-128310000D01*
X163090000Y-128310000D02*
X162940000Y-128160000D01*
X162940000Y-128160000D02*
X162940000Y-128110000D01*
X162940000Y-128110000D02*
X162890002Y-128060002D01*
X162890002Y-128060002D02*
X162890002Y-124660000D01*
X162890002Y-124660000D02*
X163090002Y-124460000D01*
X163090002Y-124460000D02*
X163390000Y-124460000D01*
X165090000Y-125210000D02*
X165790000Y-124510000D01*
X165090000Y-127310000D02*
X165090000Y-125210000D01*
X164890000Y-127510000D02*
X165090000Y-127310000D01*
X167190000Y-114310000D02*
X169690000Y-114310000D01*
X167140000Y-114260000D02*
X167190000Y-114310000D01*
X164690000Y-124910000D02*
X164690000Y-124510000D01*
X164240000Y-125360000D02*
X164690000Y-124910000D01*
X164240000Y-126760000D02*
X164240000Y-125360000D01*
X164190000Y-126810000D02*
X164240000Y-126760000D01*
X164190000Y-128010000D02*
X164190000Y-126810000D01*
X145415000Y-102616000D02*
X149733000Y-102616000D01*
X149987000Y-102870000D02*
X149733000Y-102616000D01*
X153690000Y-106960000D02*
X153670000Y-105283000D01*
X154390000Y-107660000D02*
X153690000Y-106960000D01*
X159514000Y-118563000D02*
X159514000Y-118234000D01*
X159514000Y-118234000D02*
X159440000Y-118160000D01*
X159440000Y-118160000D02*
X158390000Y-118160000D01*
X159514000Y-118563000D02*
X160043000Y-118563000D01*
X160043000Y-118563000D02*
X163490000Y-122010000D01*
X162440000Y-124460000D02*
X162440000Y-128660000D01*
X163290000Y-123610000D02*
X162440000Y-124460000D01*
X163340000Y-123610000D02*
X163290000Y-123610000D01*
X163490000Y-123460000D02*
X163340000Y-123610000D01*
X163490000Y-122010000D02*
X163490000Y-123460000D01*
X159761000Y-118810000D02*
X159514000Y-118563000D01*
X158740000Y-119260000D02*
X158440000Y-119260000D01*
X159390000Y-119260000D02*
X158740000Y-119260000D01*
X159514000Y-119384000D02*
X159390000Y-119260000D01*
X158440000Y-119260000D02*
X158390000Y-119310000D01*
X159514000Y-119663000D02*
X159514000Y-119384000D01*
X159514000Y-119663000D02*
X160443000Y-119663000D01*
X161940000Y-128210000D02*
X161590000Y-128560000D01*
X161940000Y-124260000D02*
X161940000Y-128210000D01*
X162990000Y-123210000D02*
X161940000Y-124260000D01*
X162990000Y-122210000D02*
X162990000Y-123210000D01*
X160443000Y-119663000D02*
X162990000Y-122210000D01*
X149606000Y-101219000D02*
X145542000Y-101219000D01*
X149987000Y-101600000D02*
X149606000Y-101219000D01*
X152890000Y-107460000D02*
X152908000Y-103632000D01*
X152890000Y-107460000D02*
X152890000Y-107460000D01*
X153190000Y-107810000D02*
X152890000Y-107460000D01*
X153440000Y-107760000D02*
X153240000Y-107810000D01*
X145669000Y-100076000D02*
X148844000Y-100076000D01*
X149352000Y-100584000D02*
X148844000Y-100076000D01*
X149340000Y-106210000D02*
X149340000Y-105860000D01*
X150890000Y-107760000D02*
X149340000Y-106210000D01*
X151890000Y-113110000D02*
X151890000Y-111410000D01*
X151840000Y-113160000D02*
X151890000Y-113110000D01*
X151840000Y-113210000D02*
X151840000Y-113160000D01*
X151890000Y-113310000D02*
X151840000Y-113210000D01*
X158390000Y-127760000D02*
X160490000Y-127760000D01*
X158190000Y-127560000D02*
X158390000Y-127760000D01*
X160190000Y-124060000D02*
X159514000Y-124063000D01*
X160890000Y-124410000D02*
X160190000Y-124060000D01*
X160889998Y-127410002D02*
X160890000Y-124410000D01*
X160490000Y-127760000D02*
X160889998Y-127410002D01*
X144653000Y-103251000D02*
X144653000Y-100838000D01*
X144653000Y-100838000D02*
X144907000Y-100838000D01*
X144907000Y-100838000D02*
X145669000Y-100076000D01*
X148690000Y-106460000D02*
X150090000Y-108107059D01*
X150090000Y-108107059D02*
X150690000Y-108560000D01*
X160990000Y-128260000D02*
X157540000Y-128260000D01*
X161440000Y-127710000D02*
X160990000Y-128260000D01*
X161440000Y-122901667D02*
X161440000Y-127710000D01*
X160143000Y-121863000D02*
X160306143Y-121862298D01*
X160306143Y-121862298D02*
X161440000Y-122901667D01*
X159514000Y-121863000D02*
X160143000Y-121863000D01*
X159514000Y-121863000D02*
X159514000Y-122086000D01*
X159514000Y-121863000D02*
X158993000Y-121863000D01*
X144690000Y-109610000D02*
X144690000Y-108160000D01*
X144590000Y-109610000D02*
X144690000Y-109610000D01*
X144290000Y-109910000D02*
X144590000Y-109610000D01*
X144290000Y-115460000D02*
X144290000Y-109910000D01*
X144340000Y-115510000D02*
X144290000Y-115460000D01*
X146990000Y-121360000D02*
X147490000Y-120860000D01*
X146990000Y-124310000D02*
X146990000Y-121360000D01*
X146890000Y-124410000D02*
X146990000Y-124310000D01*
X143256000Y-109794000D02*
X143256000Y-109728000D01*
X141740000Y-111310000D02*
X143256000Y-109794000D01*
X141740000Y-113510000D02*
X141740000Y-111310000D01*
X143490000Y-115260000D02*
X141740000Y-113510000D01*
X143390000Y-121160000D02*
X143690000Y-120860000D01*
X143390000Y-124310000D02*
X143390000Y-121160000D01*
X143440000Y-124360000D02*
X143390000Y-124310000D01*
D27*
G36*
X168275000Y-100838000D02*
X168285006Y-100887410D01*
X168313447Y-100929035D01*
X168355841Y-100956315D01*
X168402000Y-100965000D01*
X173863000Y-100965000D01*
X173863000Y-110858560D01*
X172618400Y-110858560D01*
X172383083Y-110902838D01*
X172166959Y-111041910D01*
X172021969Y-111254110D01*
X172002768Y-111348927D01*
X171844036Y-111171268D01*
X171316791Y-110917291D01*
X171301026Y-110914642D01*
X171069000Y-111035783D01*
X171069000Y-112395000D01*
X171089000Y-112395000D01*
X171089000Y-112649000D01*
X171069000Y-112649000D01*
X171069000Y-114008217D01*
X171301026Y-114129358D01*
X171316791Y-114126709D01*
X171844036Y-113872732D01*
X172000907Y-113697155D01*
X172015238Y-113773317D01*
X172154310Y-113989441D01*
X172366510Y-114134431D01*
X172618400Y-114185440D01*
X173863000Y-114185440D01*
X173863000Y-114415560D01*
X172414000Y-114415560D01*
X172178683Y-114459838D01*
X171962559Y-114598910D01*
X171817569Y-114811110D01*
X171766560Y-115063000D01*
X171766560Y-116063000D01*
X171810838Y-116298317D01*
X171949910Y-116514441D01*
X172162110Y-116659431D01*
X172414000Y-116710440D01*
X173863000Y-116710440D01*
X173863000Y-127765560D01*
X173314000Y-127765560D01*
X173078683Y-127809838D01*
X172862559Y-127948910D01*
X172717569Y-128161110D01*
X172666560Y-128413000D01*
X172666560Y-129713000D01*
X172710838Y-129948317D01*
X172849910Y-130164441D01*
X173062110Y-130309431D01*
X173314000Y-130360440D01*
X173863000Y-130360440D01*
X173863000Y-130670560D01*
X172618400Y-130670560D01*
X172383083Y-130714838D01*
X172166959Y-130853910D01*
X172021969Y-131066110D01*
X172002768Y-131160927D01*
X171844036Y-130983268D01*
X171316791Y-130729291D01*
X171301026Y-130726642D01*
X171069000Y-130847783D01*
X171069000Y-132207000D01*
X171089000Y-132207000D01*
X171089000Y-132461000D01*
X171069000Y-132461000D01*
X171069000Y-133820217D01*
X171301026Y-133941358D01*
X171316791Y-133938709D01*
X171844036Y-133684732D01*
X172000907Y-133509155D01*
X172015238Y-133585317D01*
X172154310Y-133801441D01*
X172366510Y-133946431D01*
X172618400Y-133997440D01*
X173863000Y-133997440D01*
X173863000Y-136271000D01*
X168402000Y-136271000D01*
X168352590Y-136281006D01*
X168310965Y-136309447D01*
X168283685Y-136351841D01*
X168275000Y-136398000D01*
X168275000Y-142367000D01*
X167849277Y-142367000D01*
X167869703Y-142336430D01*
X167956100Y-141902084D01*
X167956100Y-141296836D01*
X167869703Y-140862490D01*
X167623666Y-140494270D01*
X167255446Y-140248233D01*
X166821100Y-140161836D01*
X166386754Y-140248233D01*
X166018534Y-140494270D01*
X165772497Y-140862490D01*
X165686100Y-141296836D01*
X165686100Y-141902084D01*
X165772497Y-142336430D01*
X165792923Y-142367000D01*
X160849277Y-142367000D01*
X160869703Y-142336430D01*
X160956100Y-141902084D01*
X160956100Y-141296836D01*
X160869703Y-140862490D01*
X160623666Y-140494270D01*
X160255446Y-140248233D01*
X159821100Y-140161836D01*
X159386754Y-140248233D01*
X159018534Y-140494270D01*
X158772497Y-140862490D01*
X158686100Y-141296836D01*
X158686100Y-141902084D01*
X158772497Y-142336430D01*
X158792923Y-142367000D01*
X143129000Y-142367000D01*
X143129000Y-138899460D01*
X159536415Y-138899460D01*
X159620909Y-139324239D01*
X159861526Y-139684349D01*
X160221636Y-139924966D01*
X160646415Y-140009460D01*
X160995785Y-140009460D01*
X161420564Y-139924966D01*
X161780674Y-139684349D01*
X162021291Y-139324239D01*
X162105785Y-138899460D01*
X164536415Y-138899460D01*
X164620909Y-139324239D01*
X164861526Y-139684349D01*
X165221636Y-139924966D01*
X165646415Y-140009460D01*
X165995785Y-140009460D01*
X166420564Y-139924966D01*
X166780674Y-139684349D01*
X167021291Y-139324239D01*
X167105785Y-138899460D01*
X167021291Y-138474681D01*
X166780674Y-138114571D01*
X166420564Y-137873954D01*
X165995785Y-137789460D01*
X165646415Y-137789460D01*
X165221636Y-137873954D01*
X164861526Y-138114571D01*
X164620909Y-138474681D01*
X164536415Y-138899460D01*
X162105785Y-138899460D01*
X162021291Y-138474681D01*
X161780674Y-138114571D01*
X161420564Y-137873954D01*
X160995785Y-137789460D01*
X160646415Y-137789460D01*
X160221636Y-137873954D01*
X159861526Y-138114571D01*
X159620909Y-138474681D01*
X159536415Y-138899460D01*
X143129000Y-138899460D01*
X143129000Y-136398000D01*
X143118994Y-136348590D01*
X143090553Y-136306965D01*
X143048159Y-136279685D01*
X143002000Y-136271000D01*
X137541000Y-136271000D01*
X137541000Y-135694558D01*
X149081266Y-135694558D01*
X149133686Y-136094979D01*
X149335351Y-136444858D01*
X149655558Y-136690931D01*
X151179557Y-137443860D01*
X151569558Y-137548663D01*
X151969978Y-137496243D01*
X152319857Y-137294578D01*
X152565930Y-136974371D01*
X152652560Y-136652000D01*
X153270000Y-136652000D01*
X153348785Y-137048077D01*
X153573144Y-137383856D01*
X153908923Y-137608215D01*
X154305000Y-137687000D01*
X157226000Y-137687000D01*
X157622077Y-137608215D01*
X157957856Y-137383856D01*
X158182215Y-137048077D01*
X158261000Y-136652000D01*
X158182215Y-136255923D01*
X157957856Y-135920144D01*
X157845645Y-135845167D01*
X158654838Y-135845167D01*
X158796883Y-136188943D01*
X158915182Y-136307448D01*
X158855000Y-136610000D01*
X158933785Y-137006077D01*
X159158144Y-137341856D01*
X159493923Y-137566215D01*
X159890000Y-137645000D01*
X163839995Y-137645000D01*
X163840000Y-137645001D01*
X164236077Y-137566215D01*
X164571856Y-137341856D01*
X165221856Y-136691855D01*
X165446215Y-136356077D01*
X165525001Y-135960000D01*
X165446215Y-135563922D01*
X165221856Y-135228144D01*
X164886078Y-135003785D01*
X164490000Y-134924999D01*
X164145771Y-134993472D01*
X164020327Y-134867808D01*
X163676799Y-134725162D01*
X163304833Y-134724838D01*
X162961057Y-134866883D01*
X162727533Y-135100000D01*
X160352114Y-135100000D01*
X160120327Y-134867808D01*
X159776799Y-134725162D01*
X159404833Y-134724838D01*
X159061057Y-134866883D01*
X158797808Y-135129673D01*
X158655162Y-135473201D01*
X158654838Y-135845167D01*
X157845645Y-135845167D01*
X157622077Y-135695785D01*
X157226000Y-135617000D01*
X154305000Y-135617000D01*
X153908923Y-135695785D01*
X153573144Y-135920144D01*
X153348785Y-136255923D01*
X153270000Y-136652000D01*
X152652560Y-136652000D01*
X152670734Y-136584371D01*
X152618314Y-136183950D01*
X152416648Y-135834071D01*
X152096442Y-135587998D01*
X150572442Y-134835069D01*
X150182442Y-134730266D01*
X149782021Y-134782686D01*
X149432142Y-134984351D01*
X149186069Y-135304558D01*
X149081266Y-135694558D01*
X137541000Y-135694558D01*
X137541000Y-133941559D01*
X137922000Y-134017345D01*
X138495489Y-133903271D01*
X138981670Y-133578415D01*
X139192000Y-133263634D01*
X139402330Y-133578415D01*
X139888511Y-133903271D01*
X140462000Y-134017345D01*
X141035489Y-133903271D01*
X141521670Y-133578415D01*
X141732000Y-133263634D01*
X141942330Y-133578415D01*
X142428511Y-133903271D01*
X143002000Y-134017345D01*
X143575489Y-133903271D01*
X144061670Y-133578415D01*
X144272000Y-133263634D01*
X144482330Y-133578415D01*
X144968511Y-133903271D01*
X145542000Y-134017345D01*
X146115489Y-133903271D01*
X146601670Y-133578415D01*
X146812000Y-133263634D01*
X147022330Y-133578415D01*
X147508511Y-133903271D01*
X148082000Y-134017345D01*
X148655489Y-133903271D01*
X149141670Y-133578415D01*
X149352000Y-133263634D01*
X149562330Y-133578415D01*
X150048511Y-133903271D01*
X150622000Y-134017345D01*
X151195489Y-133903271D01*
X151681670Y-133578415D01*
X151888461Y-133268931D01*
X152259964Y-133684732D01*
X152787209Y-133938709D01*
X152802974Y-133941358D01*
X153035000Y-133820217D01*
X153035000Y-132461000D01*
X153015000Y-132461000D01*
X153015000Y-132207000D01*
X153035000Y-132207000D01*
X153035000Y-132187000D01*
X153289000Y-132187000D01*
X153289000Y-132207000D01*
X153309000Y-132207000D01*
X153309000Y-132461000D01*
X153289000Y-132461000D01*
X153289000Y-133820217D01*
X153521026Y-133941358D01*
X153536791Y-133938709D01*
X153561313Y-133926897D01*
X153505000Y-134210000D01*
X153576173Y-134567809D01*
X153653056Y-134682872D01*
X153696883Y-134788943D01*
X153778680Y-134870882D01*
X153778855Y-134871145D01*
X153828564Y-134920854D01*
X153959673Y-135052192D01*
X154303201Y-135194838D01*
X154675167Y-135195162D01*
X155018943Y-135053117D01*
X155158367Y-134913936D01*
X155353201Y-134994838D01*
X155725167Y-134995162D01*
X156068943Y-134853117D01*
X156332192Y-134590327D01*
X156474838Y-134246799D01*
X156475162Y-133874833D01*
X156441170Y-133792566D01*
X156761670Y-133578415D01*
X156972000Y-133263634D01*
X157182330Y-133578415D01*
X157668511Y-133903271D01*
X158242000Y-134017345D01*
X158815489Y-133903271D01*
X159301670Y-133578415D01*
X159512000Y-133263634D01*
X159722330Y-133578415D01*
X160208511Y-133903271D01*
X160782000Y-134017345D01*
X161355489Y-133903271D01*
X161841670Y-133578415D01*
X162052000Y-133263634D01*
X162262330Y-133578415D01*
X162748511Y-133903271D01*
X163322000Y-134017345D01*
X163895489Y-133903271D01*
X164381670Y-133578415D01*
X164592000Y-133263634D01*
X164802330Y-133578415D01*
X165288511Y-133903271D01*
X165862000Y-134017345D01*
X166435489Y-133903271D01*
X166921670Y-133578415D01*
X167132000Y-133263634D01*
X167342330Y-133578415D01*
X167828511Y-133903271D01*
X168402000Y-134017345D01*
X168975489Y-133903271D01*
X169461670Y-133578415D01*
X169668461Y-133268931D01*
X170039964Y-133684732D01*
X170567209Y-133938709D01*
X170582974Y-133941358D01*
X170815000Y-133820217D01*
X170815000Y-132461000D01*
X170795000Y-132461000D01*
X170795000Y-132207000D01*
X170815000Y-132207000D01*
X170815000Y-130847783D01*
X170582974Y-130726642D01*
X170567209Y-130729291D01*
X170039964Y-130983268D01*
X169668461Y-131399069D01*
X169461670Y-131089585D01*
X168975489Y-130764729D01*
X168402000Y-130650655D01*
X167828511Y-130764729D01*
X167342330Y-131089585D01*
X167132000Y-131404366D01*
X166921670Y-131089585D01*
X166435489Y-130764729D01*
X165862000Y-130650655D01*
X165288511Y-130764729D01*
X164802330Y-131089585D01*
X164592000Y-131404366D01*
X164381670Y-131089585D01*
X163895489Y-130764729D01*
X163322000Y-130650655D01*
X162748511Y-130764729D01*
X162262330Y-131089585D01*
X162052000Y-131404366D01*
X161841670Y-131089585D01*
X161355489Y-130764729D01*
X160782000Y-130650655D01*
X160208511Y-130764729D01*
X159722330Y-131089585D01*
X159512000Y-131404366D01*
X159301670Y-131089585D01*
X158815489Y-130764729D01*
X158242000Y-130650655D01*
X157668511Y-130764729D01*
X157182330Y-131089585D01*
X156972000Y-131404366D01*
X156761670Y-131089585D01*
X156275489Y-130764729D01*
X155702000Y-130650655D01*
X155374952Y-130715709D01*
X155375162Y-130474833D01*
X155359826Y-130437718D01*
X155351056Y-130149756D01*
X155201249Y-129817115D01*
X154935549Y-129567122D01*
X154535549Y-129317122D01*
X154422961Y-129274454D01*
X154317134Y-129217015D01*
X154253877Y-129210376D01*
X154194406Y-129187838D01*
X154074059Y-129191503D01*
X153954308Y-129178935D01*
X153893328Y-129197008D01*
X153829756Y-129198944D01*
X153719970Y-129248387D01*
X153604528Y-129282601D01*
X152692882Y-129762414D01*
X152561057Y-129816883D01*
X152297808Y-130079673D01*
X152155162Y-130423201D01*
X152154838Y-130795167D01*
X152241225Y-131004241D01*
X151888461Y-131399069D01*
X151681670Y-131089585D01*
X151195489Y-130764729D01*
X150622000Y-130650655D01*
X150048511Y-130764729D01*
X149562330Y-131089585D01*
X149352000Y-131404366D01*
X149141670Y-131089585D01*
X148655489Y-130764729D01*
X148082000Y-130650655D01*
X147508511Y-130764729D01*
X147022330Y-131089585D01*
X146812000Y-131404366D01*
X146601670Y-131089585D01*
X146115489Y-130764729D01*
X145542000Y-130650655D01*
X144968511Y-130764729D01*
X144482330Y-131089585D01*
X144272000Y-131404366D01*
X144061670Y-131089585D01*
X143575489Y-130764729D01*
X143002000Y-130650655D01*
X142428511Y-130764729D01*
X141942330Y-131089585D01*
X141732000Y-131404366D01*
X141521670Y-131089585D01*
X141035489Y-130764729D01*
X140462000Y-130650655D01*
X139888511Y-130764729D01*
X139402330Y-131089585D01*
X139192000Y-131404366D01*
X138981670Y-131089585D01*
X138495489Y-130764729D01*
X137922000Y-130650655D01*
X137541000Y-130726441D01*
X137541000Y-128377609D01*
X137846538Y-128377609D01*
X137861714Y-128469376D01*
X138108067Y-128889125D01*
X138496299Y-129182647D01*
X138967304Y-129305256D01*
X139163000Y-129142547D01*
X139163000Y-128187000D01*
X139417000Y-128187000D01*
X139417000Y-129142547D01*
X139612696Y-129305256D01*
X140083701Y-129182647D01*
X140471933Y-128889125D01*
X140718286Y-128469376D01*
X140722289Y-128445167D01*
X156604838Y-128445167D01*
X156746883Y-128788943D01*
X157009673Y-129052192D01*
X157353201Y-129194838D01*
X157725167Y-129195162D01*
X158068943Y-129053117D01*
X158102118Y-129020000D01*
X160768396Y-129020000D01*
X160796883Y-129088943D01*
X161005010Y-129297434D01*
X161004838Y-129495167D01*
X161146883Y-129838943D01*
X161409673Y-130102192D01*
X161753201Y-130244838D01*
X162125167Y-130245162D01*
X162468943Y-130103117D01*
X162502118Y-130070000D01*
X162740000Y-130070000D01*
X163030839Y-130012148D01*
X163277401Y-129847401D01*
X163627401Y-129497401D01*
X163792148Y-129250839D01*
X163850000Y-128960000D01*
X163850000Y-128881223D01*
X164003201Y-128944838D01*
X164375167Y-128945162D01*
X164718943Y-128803117D01*
X164982192Y-128540327D01*
X165021727Y-128445115D01*
X165075167Y-128445162D01*
X165418943Y-128303117D01*
X165682192Y-128040327D01*
X165824838Y-127696799D01*
X165825066Y-127435352D01*
X165850000Y-127310000D01*
X165850000Y-127186229D01*
X165876173Y-127317809D01*
X166078855Y-127621145D01*
X166178855Y-127721145D01*
X166482191Y-127923827D01*
X166840000Y-127995000D01*
X168918837Y-127995000D01*
X170072081Y-129105531D01*
X170412031Y-129323516D01*
X170809524Y-129394816D01*
X171204045Y-129308573D01*
X171535531Y-129077919D01*
X171753516Y-128737968D01*
X171824816Y-128340475D01*
X171738573Y-127945954D01*
X171507919Y-127614468D01*
X170157919Y-126314469D01*
X169817968Y-126096483D01*
X169420475Y-126025183D01*
X169025955Y-126111427D01*
X169006448Y-126125000D01*
X167675000Y-126125000D01*
X167675000Y-125047419D01*
X167732192Y-124990327D01*
X167874838Y-124646799D01*
X167875162Y-124274833D01*
X167733117Y-123931057D01*
X167628507Y-123826264D01*
X167603827Y-123702191D01*
X167401145Y-123398855D01*
X165725000Y-121722710D01*
X165725000Y-120195167D01*
X168804838Y-120195167D01*
X168946883Y-120538943D01*
X168980000Y-120572118D01*
X168980000Y-121160000D01*
X169037852Y-121450839D01*
X169202599Y-121697401D01*
X169854878Y-122349680D01*
X169854838Y-122395167D01*
X169996883Y-122738943D01*
X170259673Y-123002192D01*
X170603201Y-123144838D01*
X170975167Y-123145162D01*
X171318943Y-123003117D01*
X171582192Y-122740327D01*
X171724838Y-122396799D01*
X171725162Y-122024833D01*
X171583117Y-121681057D01*
X171320327Y-121417808D01*
X170976799Y-121275162D01*
X170929923Y-121275121D01*
X170500000Y-120845198D01*
X170500000Y-120572463D01*
X170532192Y-120540327D01*
X170674838Y-120196799D01*
X170675162Y-119824833D01*
X170533117Y-119481057D01*
X170270327Y-119217808D01*
X169926799Y-119075162D01*
X169554833Y-119074838D01*
X169211057Y-119216883D01*
X168947808Y-119479673D01*
X168805162Y-119823201D01*
X168804838Y-120195167D01*
X165725000Y-120195167D01*
X165725000Y-119910000D01*
X165653827Y-119552191D01*
X165451145Y-119248855D01*
X163451436Y-117249146D01*
X163320327Y-117117808D01*
X162976799Y-116975162D01*
X162604833Y-116974838D01*
X162261057Y-117116883D01*
X161997808Y-117379673D01*
X161855162Y-117723201D01*
X161854838Y-118095167D01*
X161996883Y-118438943D01*
X162067753Y-118509937D01*
X161947808Y-118629673D01*
X161805162Y-118973201D01*
X161804921Y-119250119D01*
X160759965Y-118205163D01*
X160722426Y-118005658D01*
X160761440Y-117813000D01*
X160761440Y-117113000D01*
X160737056Y-116983411D01*
X160761440Y-116863000D01*
X160761440Y-116163000D01*
X160717162Y-115927683D01*
X160602022Y-115748750D01*
X163179000Y-115748750D01*
X163179000Y-116089309D01*
X163275673Y-116322698D01*
X163454301Y-116501327D01*
X163687690Y-116598000D01*
X164128250Y-116598000D01*
X164287000Y-116439250D01*
X164287000Y-115590000D01*
X164541000Y-115590000D01*
X164541000Y-116439250D01*
X164699750Y-116598000D01*
X165140310Y-116598000D01*
X165373699Y-116501327D01*
X165552327Y-116322698D01*
X165649000Y-116089309D01*
X165649000Y-115748750D01*
X165490250Y-115590000D01*
X164541000Y-115590000D01*
X164287000Y-115590000D01*
X163337750Y-115590000D01*
X163179000Y-115748750D01*
X160602022Y-115748750D01*
X160578090Y-115711559D01*
X160365890Y-115566569D01*
X160114000Y-115515560D01*
X158914000Y-115515560D01*
X158678683Y-115559838D01*
X158462559Y-115698910D01*
X158317569Y-115911110D01*
X158266560Y-116163000D01*
X158266560Y-116863000D01*
X158290944Y-116992589D01*
X158266560Y-117113000D01*
X158266560Y-117224892D01*
X158204833Y-117224838D01*
X157861057Y-117366883D01*
X157597808Y-117629673D01*
X157455162Y-117973201D01*
X157454838Y-118345167D01*
X157596883Y-118688943D01*
X157642710Y-118734850D01*
X157597808Y-118779673D01*
X157455162Y-119123201D01*
X157454838Y-119495167D01*
X157596883Y-119838943D01*
X157859673Y-120102192D01*
X158203201Y-120244838D01*
X158300596Y-120244923D01*
X158266560Y-120413000D01*
X158266560Y-121113000D01*
X158305574Y-121320342D01*
X158266560Y-121513000D01*
X158266560Y-121694284D01*
X158233000Y-121863000D01*
X158266560Y-122031716D01*
X158266560Y-122213000D01*
X158305858Y-122421850D01*
X158279000Y-122486691D01*
X158279000Y-122677250D01*
X158437750Y-122836000D01*
X158793312Y-122836000D01*
X158914000Y-122860440D01*
X159661000Y-122860440D01*
X159661000Y-123065560D01*
X158914000Y-123065560D01*
X158784113Y-123090000D01*
X158437750Y-123090000D01*
X158279000Y-123248750D01*
X158279000Y-123439309D01*
X158307870Y-123509007D01*
X158266560Y-123713000D01*
X158266560Y-124413000D01*
X158305574Y-124620342D01*
X158266560Y-124813000D01*
X158266560Y-125513000D01*
X158310838Y-125748317D01*
X158368051Y-125837228D01*
X158317569Y-125911110D01*
X158266560Y-126163000D01*
X158266560Y-126625066D01*
X158004833Y-126624838D01*
X157661057Y-126766883D01*
X157397808Y-127029673D01*
X157258761Y-127364534D01*
X157011057Y-127466883D01*
X156747808Y-127729673D01*
X156605162Y-128073201D01*
X156604838Y-128445167D01*
X140722289Y-128445167D01*
X140733462Y-128377609D01*
X140608731Y-128187000D01*
X139417000Y-128187000D01*
X139163000Y-128187000D01*
X137971269Y-128187000D01*
X137846538Y-128377609D01*
X137541000Y-128377609D01*
X137541000Y-125460000D01*
X137792560Y-125460000D01*
X137792560Y-126660000D01*
X137836838Y-126895317D01*
X137975910Y-127111441D01*
X138128309Y-127215571D01*
X138108067Y-127230875D01*
X137861714Y-127650624D01*
X137846538Y-127742391D01*
X137971269Y-127933000D01*
X139163000Y-127933000D01*
X139163000Y-127913000D01*
X139417000Y-127913000D01*
X139417000Y-127933000D01*
X140608731Y-127933000D01*
X140733462Y-127742391D01*
X140718286Y-127650624D01*
X140471933Y-127230875D01*
X140450580Y-127214731D01*
X140591441Y-127124090D01*
X140679644Y-126995000D01*
X141252710Y-126995000D01*
X142428564Y-128170854D01*
X142559673Y-128302192D01*
X142903201Y-128444838D01*
X143275167Y-128445162D01*
X143618943Y-128303117D01*
X143882192Y-128040327D01*
X144024838Y-127696799D01*
X144025162Y-127324833D01*
X143883117Y-126981057D01*
X143620327Y-126717808D01*
X143619935Y-126717645D01*
X142301145Y-125398855D01*
X141997809Y-125196173D01*
X141640000Y-125125000D01*
X140679018Y-125125000D01*
X140604090Y-125008559D01*
X140391890Y-124863569D01*
X140140000Y-124812560D01*
X138440000Y-124812560D01*
X138204683Y-124856838D01*
X137988559Y-124995910D01*
X137843569Y-125208110D01*
X137792560Y-125460000D01*
X137541000Y-125460000D01*
X137541000Y-124545167D01*
X142504838Y-124545167D01*
X142646883Y-124888943D01*
X142909673Y-125152192D01*
X143253201Y-125294838D01*
X143625167Y-125295162D01*
X143968943Y-125153117D01*
X144232192Y-124890327D01*
X144374838Y-124546799D01*
X144375162Y-124174833D01*
X144233117Y-123831057D01*
X144150000Y-123747795D01*
X144150000Y-121681604D01*
X144218943Y-121653117D01*
X144482192Y-121390327D01*
X144624838Y-121046799D01*
X144625162Y-120674833D01*
X144483117Y-120331057D01*
X144220327Y-120067808D01*
X143876799Y-119925162D01*
X143504833Y-119924838D01*
X143161057Y-120066883D01*
X142897808Y-120329673D01*
X142755162Y-120673201D01*
X142755079Y-120768548D01*
X142687852Y-120869161D01*
X142630000Y-121160000D01*
X142630000Y-123872559D01*
X142505162Y-124173201D01*
X142504838Y-124545167D01*
X137541000Y-124545167D01*
X137541000Y-119710000D01*
X145705000Y-119710000D01*
X145783785Y-120106077D01*
X146008144Y-120441856D01*
X146343923Y-120666215D01*
X146555131Y-120708227D01*
X146555121Y-120720077D01*
X146452599Y-120822599D01*
X146287852Y-121069161D01*
X146230000Y-121360000D01*
X146230000Y-123747711D01*
X146097808Y-123879673D01*
X145955162Y-124223201D01*
X145954838Y-124595167D01*
X146096883Y-124938943D01*
X146359673Y-125202192D01*
X146703201Y-125344838D01*
X147075167Y-125345162D01*
X147418943Y-125203117D01*
X147682192Y-124940327D01*
X147824838Y-124596799D01*
X147825162Y-124224833D01*
X147763392Y-124075338D01*
X152104190Y-124075338D01*
X152314686Y-124584777D01*
X152704113Y-124974884D01*
X153213184Y-125186269D01*
X153764398Y-125186750D01*
X154273837Y-124976254D01*
X154663944Y-124586827D01*
X154875329Y-124077756D01*
X154875810Y-123526542D01*
X154665314Y-123017103D01*
X154275887Y-122626996D01*
X153766816Y-122415611D01*
X153215602Y-122415130D01*
X152706163Y-122625626D01*
X152316056Y-123015053D01*
X152104671Y-123524124D01*
X152104190Y-124075338D01*
X147763392Y-124075338D01*
X147750000Y-124042927D01*
X147750000Y-121764242D01*
X148018943Y-121653117D01*
X148282192Y-121390327D01*
X148424838Y-121046799D01*
X148425101Y-120745000D01*
X149462172Y-120745000D01*
X149493922Y-120766215D01*
X149890000Y-120845000D01*
X150286077Y-120766215D01*
X150621855Y-120541855D01*
X150846215Y-120206077D01*
X150925000Y-119810000D01*
X150846215Y-119413922D01*
X150698906Y-119193458D01*
X152104190Y-119193458D01*
X152314686Y-119702897D01*
X152704113Y-120093004D01*
X153213184Y-120304389D01*
X153764398Y-120304870D01*
X154273837Y-120094374D01*
X154663944Y-119704947D01*
X154875329Y-119195876D01*
X154875810Y-118644662D01*
X154665314Y-118135223D01*
X154275887Y-117745116D01*
X153766816Y-117533731D01*
X153215602Y-117533250D01*
X152706163Y-117743746D01*
X152316056Y-118133173D01*
X152104671Y-118642244D01*
X152104190Y-119193458D01*
X150698906Y-119193458D01*
X150621855Y-119078144D01*
X150521856Y-118978144D01*
X150186077Y-118753785D01*
X149790000Y-118674999D01*
X149789995Y-118675000D01*
X146740000Y-118675000D01*
X146343923Y-118753785D01*
X146008144Y-118978144D01*
X145783785Y-119313923D01*
X145705000Y-119710000D01*
X137541000Y-119710000D01*
X137541000Y-114129559D01*
X137922000Y-114205345D01*
X138495489Y-114091271D01*
X138981670Y-113766415D01*
X139192000Y-113451634D01*
X139402330Y-113766415D01*
X139888511Y-114091271D01*
X140462000Y-114205345D01*
X141035489Y-114091271D01*
X141171284Y-114000535D01*
X141202599Y-114047401D01*
X142554878Y-115399680D01*
X142554838Y-115445167D01*
X142696883Y-115788943D01*
X142959673Y-116052192D01*
X143303201Y-116194838D01*
X143675167Y-116195162D01*
X143694752Y-116187070D01*
X143809673Y-116302192D01*
X144153201Y-116444838D01*
X144525167Y-116445162D01*
X144868943Y-116303117D01*
X145132192Y-116040327D01*
X145150944Y-115995167D01*
X148104838Y-115995167D01*
X148246883Y-116338943D01*
X148509673Y-116602192D01*
X148853201Y-116744838D01*
X148925388Y-116744901D01*
X149046883Y-117038943D01*
X149309673Y-117302192D01*
X149653201Y-117444838D01*
X150025167Y-117445162D01*
X150026847Y-117444468D01*
X157163682Y-117423996D01*
X157341142Y-117388167D01*
X157518809Y-117352827D01*
X157519946Y-117352067D01*
X157521285Y-117351797D01*
X157671571Y-117250755D01*
X157700611Y-117231351D01*
X157768943Y-117203117D01*
X157821729Y-117150423D01*
X157822145Y-117150145D01*
X157900854Y-117071436D01*
X158032192Y-116940327D01*
X158174838Y-116596799D01*
X158175162Y-116224833D01*
X158033117Y-115881057D01*
X157775000Y-115622489D01*
X157775000Y-115610816D01*
X157775162Y-115424833D01*
X157633117Y-115081057D01*
X157389178Y-114836691D01*
X163179000Y-114836691D01*
X163179000Y-115177250D01*
X163337750Y-115336000D01*
X164287000Y-115336000D01*
X164287000Y-114486750D01*
X164541000Y-114486750D01*
X164541000Y-115336000D01*
X165490250Y-115336000D01*
X165649000Y-115177250D01*
X165649000Y-114836691D01*
X165552327Y-114603302D01*
X165373699Y-114424673D01*
X165140310Y-114328000D01*
X164699750Y-114328000D01*
X164541000Y-114486750D01*
X164287000Y-114486750D01*
X164128250Y-114328000D01*
X163687690Y-114328000D01*
X163454301Y-114424673D01*
X163275673Y-114603302D01*
X163179000Y-114836691D01*
X157389178Y-114836691D01*
X157370327Y-114817808D01*
X157026799Y-114675162D01*
X156654833Y-114674838D01*
X156533431Y-114725000D01*
X149190000Y-114725000D01*
X148832191Y-114796173D01*
X148528855Y-114998855D01*
X148379146Y-115148564D01*
X148247808Y-115279673D01*
X148105162Y-115623201D01*
X148104838Y-115995167D01*
X145150944Y-115995167D01*
X145274838Y-115696799D01*
X145275162Y-115324833D01*
X145133117Y-114981057D01*
X145050000Y-114897795D01*
X145050000Y-114107480D01*
X145542000Y-114205345D01*
X146115489Y-114091271D01*
X146601670Y-113766415D01*
X146812000Y-113451634D01*
X147022330Y-113766415D01*
X147508511Y-114091271D01*
X148082000Y-114205345D01*
X148655489Y-114091271D01*
X149141670Y-113766415D01*
X149352000Y-113451634D01*
X149562330Y-113766415D01*
X150048511Y-114091271D01*
X150622000Y-114205345D01*
X151195489Y-114091271D01*
X151287439Y-114029832D01*
X151359673Y-114102192D01*
X151703201Y-114244838D01*
X152075167Y-114245162D01*
X152418943Y-114103117D01*
X152494042Y-114028149D01*
X152588511Y-114091271D01*
X153162000Y-114205345D01*
X153735489Y-114091271D01*
X154221670Y-113766415D01*
X154428461Y-113456931D01*
X154799964Y-113872732D01*
X155327209Y-114126709D01*
X155342974Y-114129358D01*
X155575000Y-114008217D01*
X155575000Y-112649000D01*
X155555000Y-112649000D01*
X155555000Y-112395000D01*
X155575000Y-112395000D01*
X155575000Y-111035783D01*
X155829000Y-111035783D01*
X155829000Y-112395000D01*
X155849000Y-112395000D01*
X155849000Y-112649000D01*
X155829000Y-112649000D01*
X155829000Y-114008217D01*
X156061026Y-114129358D01*
X156076791Y-114126709D01*
X156604036Y-113872732D01*
X156975539Y-113456931D01*
X157182330Y-113766415D01*
X157203000Y-113780226D01*
X157203000Y-113808000D01*
X157204992Y-113818016D01*
X157204838Y-113995167D01*
X157273084Y-114160336D01*
X157274173Y-114165809D01*
X157277246Y-114170408D01*
X157346883Y-114338943D01*
X157476849Y-114469136D01*
X157476855Y-114469145D01*
X157478564Y-114470854D01*
X157609673Y-114602192D01*
X157953201Y-114744838D01*
X158325167Y-114745162D01*
X158668943Y-114603117D01*
X158890068Y-114382378D01*
X159009673Y-114502192D01*
X159353201Y-114644838D01*
X159725167Y-114645162D01*
X160068943Y-114503117D01*
X160332192Y-114240327D01*
X160384011Y-114115534D01*
X160407209Y-114126709D01*
X160422974Y-114129358D01*
X160655000Y-114008217D01*
X160655000Y-112649000D01*
X160635000Y-112649000D01*
X160635000Y-112395000D01*
X160655000Y-112395000D01*
X160655000Y-111196821D01*
X160683113Y-111035783D01*
X160909000Y-111035783D01*
X160909000Y-112395000D01*
X160929000Y-112395000D01*
X160929000Y-112649000D01*
X160909000Y-112649000D01*
X160909000Y-114008217D01*
X161141026Y-114129358D01*
X161156791Y-114126709D01*
X161684036Y-113872732D01*
X162055539Y-113456931D01*
X162262330Y-113766415D01*
X162748511Y-114091271D01*
X163322000Y-114205345D01*
X163895489Y-114091271D01*
X164381670Y-113766415D01*
X164592000Y-113451634D01*
X164802330Y-113766415D01*
X165288511Y-114091271D01*
X165862000Y-114205345D01*
X166205106Y-114137097D01*
X166204838Y-114445167D01*
X166346883Y-114788943D01*
X166609673Y-115052192D01*
X166953201Y-115194838D01*
X167325167Y-115195162D01*
X167628083Y-115070000D01*
X169127537Y-115070000D01*
X169159673Y-115102192D01*
X169503201Y-115244838D01*
X169875167Y-115245162D01*
X170218943Y-115103117D01*
X170482192Y-114840327D01*
X170624838Y-114496799D01*
X170625162Y-114124833D01*
X170619214Y-114110437D01*
X170815000Y-114008217D01*
X170815000Y-112649000D01*
X170795000Y-112649000D01*
X170795000Y-112395000D01*
X170815000Y-112395000D01*
X170815000Y-111035783D01*
X170582974Y-110914642D01*
X170567209Y-110917291D01*
X170039964Y-111171268D01*
X169668461Y-111587069D01*
X169461670Y-111277585D01*
X168975489Y-110952729D01*
X168402000Y-110838655D01*
X167828511Y-110952729D01*
X167342330Y-111277585D01*
X167132000Y-111592366D01*
X166921670Y-111277585D01*
X166435489Y-110952729D01*
X165862000Y-110838655D01*
X165288511Y-110952729D01*
X164802330Y-111277585D01*
X164592000Y-111592366D01*
X164381670Y-111277585D01*
X163895489Y-110952729D01*
X163322000Y-110838655D01*
X162748511Y-110952729D01*
X162262330Y-111277585D01*
X162055539Y-111587069D01*
X161684036Y-111171268D01*
X161156791Y-110917291D01*
X161141026Y-110914642D01*
X160909000Y-111035783D01*
X160683113Y-111035783D01*
X160925890Y-109645125D01*
X172719035Y-109647000D01*
X172905167Y-109647162D01*
X173248943Y-109505117D01*
X173512192Y-109242327D01*
X173654838Y-108898799D01*
X173655162Y-108526833D01*
X173513117Y-108183057D01*
X173250327Y-107919808D01*
X172906799Y-107777162D01*
X172534833Y-107776838D01*
X172534512Y-107776970D01*
X160140149Y-107775000D01*
X160039090Y-107795085D01*
X159936079Y-107797508D01*
X159861886Y-107830304D01*
X159782328Y-107846116D01*
X159696649Y-107903345D01*
X159602406Y-107945004D01*
X159546412Y-108003696D01*
X159478960Y-108048750D01*
X159421702Y-108134413D01*
X159350578Y-108208964D01*
X159321306Y-108284616D01*
X159276230Y-108352054D01*
X159256113Y-108453104D01*
X159218930Y-108549202D01*
X158857362Y-110620310D01*
X158747808Y-110729673D01*
X158667417Y-110923276D01*
X158242000Y-110838655D01*
X157668511Y-110952729D01*
X157182330Y-111277585D01*
X156975539Y-111587069D01*
X156604036Y-111171268D01*
X156076791Y-110917291D01*
X156061026Y-110914642D01*
X155829000Y-111035783D01*
X155575000Y-111035783D01*
X155342974Y-110914642D01*
X155327209Y-110917291D01*
X154799964Y-111171268D01*
X154428461Y-111587069D01*
X154221670Y-111277585D01*
X153735489Y-110952729D01*
X153162000Y-110838655D01*
X152703297Y-110929897D01*
X152683117Y-110881057D01*
X152420327Y-110617808D01*
X152076799Y-110475162D01*
X151704833Y-110474838D01*
X151361057Y-110616883D01*
X151097808Y-110879673D01*
X151077239Y-110929208D01*
X150622000Y-110838655D01*
X150048511Y-110952729D01*
X149562330Y-111277585D01*
X149352000Y-111592366D01*
X149141670Y-111277585D01*
X148655489Y-110952729D01*
X148082000Y-110838655D01*
X147508511Y-110952729D01*
X147022330Y-111277585D01*
X146812000Y-111592366D01*
X146601670Y-111277585D01*
X146115489Y-110952729D01*
X145542000Y-110838655D01*
X145050000Y-110936520D01*
X145050000Y-110265936D01*
X145227401Y-110147401D01*
X145392148Y-109900839D01*
X145450000Y-109610000D01*
X145450000Y-108722463D01*
X145482192Y-108690327D01*
X145624838Y-108346799D01*
X145625162Y-107974833D01*
X145483117Y-107631057D01*
X145220327Y-107367808D01*
X144876799Y-107225162D01*
X144504833Y-107224838D01*
X144161057Y-107366883D01*
X143897808Y-107629673D01*
X143755162Y-107973201D01*
X143754838Y-108345167D01*
X143896883Y-108688943D01*
X143930000Y-108722118D01*
X143930000Y-109079732D01*
X143786327Y-108935808D01*
X143442799Y-108793162D01*
X143070833Y-108792838D01*
X142727057Y-108934883D01*
X142463808Y-109197673D01*
X142321162Y-109541201D01*
X142321064Y-109654134D01*
X141202599Y-110772599D01*
X141067810Y-110974325D01*
X141035489Y-110952729D01*
X140462000Y-110838655D01*
X139888511Y-110952729D01*
X139402330Y-111277585D01*
X139192000Y-111592366D01*
X138981670Y-111277585D01*
X138495489Y-110952729D01*
X137922000Y-110838655D01*
X137541000Y-110914441D01*
X137541000Y-106865167D01*
X139018838Y-106865167D01*
X139160883Y-107208943D01*
X139423673Y-107472192D01*
X139767201Y-107614838D01*
X140139167Y-107615162D01*
X140482943Y-107473117D01*
X140516118Y-107440000D01*
X142509000Y-107440000D01*
X142799839Y-107382148D01*
X143046401Y-107217401D01*
X143618635Y-106645167D01*
X147754838Y-106645167D01*
X147896883Y-106988943D01*
X148159673Y-107252192D01*
X148478406Y-107384542D01*
X149510926Y-108599272D01*
X149576472Y-108651196D01*
X149632099Y-108713629D01*
X149791539Y-108833991D01*
X149896883Y-109088943D01*
X150159673Y-109352192D01*
X150503201Y-109494838D01*
X150875167Y-109495162D01*
X151218943Y-109353117D01*
X151482192Y-109090327D01*
X151624838Y-108746799D01*
X151625162Y-108374833D01*
X151617095Y-108355310D01*
X151682192Y-108290327D01*
X151824838Y-107946799D01*
X151825162Y-107574833D01*
X151683117Y-107231057D01*
X151420327Y-106967808D01*
X151076799Y-106825162D01*
X151029923Y-106825121D01*
X150268020Y-106063218D01*
X150274838Y-106046799D01*
X150275162Y-105674833D01*
X150133117Y-105331057D01*
X149870327Y-105067808D01*
X149526799Y-104925162D01*
X149154833Y-104924838D01*
X148811057Y-105066883D01*
X148547808Y-105329673D01*
X148458885Y-105543823D01*
X148161057Y-105666883D01*
X147897808Y-105929673D01*
X147755162Y-106273201D01*
X147754838Y-106645167D01*
X143618635Y-106645167D01*
X145713401Y-104550401D01*
X145743606Y-104505196D01*
X145983802Y-104265000D01*
X149418198Y-104265000D01*
X149449599Y-104296401D01*
X149696160Y-104461148D01*
X149987000Y-104519000D01*
X150876000Y-104519000D01*
X151166839Y-104461148D01*
X151413401Y-104296401D01*
X151578148Y-104049839D01*
X151624429Y-103817167D01*
X151972838Y-103817167D01*
X152114883Y-104160943D01*
X152145360Y-104191474D01*
X152130008Y-107456426D01*
X152130355Y-107458215D01*
X152130000Y-107460000D01*
X152153342Y-107577347D01*
X152167614Y-107696130D01*
X152181209Y-107720305D01*
X152186492Y-107747534D01*
X152187497Y-107749053D01*
X152187852Y-107750839D01*
X152254321Y-107850318D01*
X152312965Y-107954601D01*
X152594407Y-108282949D01*
X152596883Y-108288943D01*
X152859673Y-108552192D01*
X153203201Y-108694838D01*
X153575167Y-108695162D01*
X153918943Y-108553117D01*
X153972932Y-108499222D01*
X154203201Y-108594838D01*
X154575167Y-108595162D01*
X154918943Y-108453117D01*
X154923708Y-108448361D01*
X154970144Y-108517858D01*
X155305923Y-108742217D01*
X155702000Y-108821002D01*
X156098077Y-108742217D01*
X156433856Y-108517858D01*
X156658215Y-108182079D01*
X156737000Y-107786002D01*
X156737000Y-105595167D01*
X162404838Y-105595167D01*
X162546883Y-105938943D01*
X162809673Y-106202192D01*
X163153201Y-106344838D01*
X163248548Y-106344921D01*
X163349161Y-106412148D01*
X163640000Y-106470000D01*
X165647036Y-106470000D01*
X165804922Y-106648937D01*
X165804838Y-106745167D01*
X165946883Y-107088943D01*
X166209673Y-107352192D01*
X166553201Y-107494838D01*
X166925167Y-107495162D01*
X167268943Y-107353117D01*
X167532192Y-107090327D01*
X167674838Y-106746799D01*
X167675162Y-106374833D01*
X167533117Y-106031057D01*
X167339248Y-105836849D01*
X167698167Y-105837162D01*
X168041943Y-105695117D01*
X168305192Y-105432327D01*
X168447838Y-105088799D01*
X168448162Y-104716833D01*
X168306117Y-104373057D01*
X168273000Y-104339882D01*
X168273000Y-104067463D01*
X168305192Y-104035327D01*
X168447838Y-103691799D01*
X168448162Y-103319833D01*
X168306117Y-102976057D01*
X168043327Y-102712808D01*
X167699799Y-102570162D01*
X167327833Y-102569838D01*
X166984057Y-102711883D01*
X166720808Y-102974673D01*
X166578162Y-103318201D01*
X166577838Y-103690167D01*
X166719883Y-104033943D01*
X166753000Y-104067118D01*
X166753000Y-104339537D01*
X166720808Y-104371673D01*
X166578162Y-104715201D01*
X166577838Y-105087167D01*
X166686907Y-105351135D01*
X166559877Y-105207168D01*
X166540758Y-105192590D01*
X166527401Y-105172599D01*
X166423468Y-105103153D01*
X166324072Y-105027362D01*
X166300830Y-105021210D01*
X166280839Y-105007852D01*
X166158241Y-104983466D01*
X166037407Y-104951480D01*
X166013580Y-104954690D01*
X165990000Y-104950000D01*
X164161604Y-104950000D01*
X164133117Y-104881057D01*
X163870327Y-104617808D01*
X163526799Y-104475162D01*
X163154833Y-104474838D01*
X162811057Y-104616883D01*
X162547808Y-104879673D01*
X162405162Y-105223201D01*
X162404838Y-105595167D01*
X156737000Y-105595167D01*
X156737000Y-105156005D01*
X156737001Y-105156000D01*
X156658215Y-104759922D01*
X156529417Y-104567162D01*
X156433856Y-104424144D01*
X156433853Y-104424142D01*
X156179856Y-104170144D01*
X155844077Y-103945785D01*
X155448000Y-103866999D01*
X155051923Y-103945785D01*
X154716144Y-104170144D01*
X154491785Y-104505923D01*
X154445865Y-104736775D01*
X154200327Y-104490808D01*
X153856799Y-104348162D01*
X153664642Y-104347995D01*
X153665352Y-104197107D01*
X153700192Y-104162327D01*
X153842838Y-103818799D01*
X153843162Y-103446833D01*
X153701117Y-103103057D01*
X153438327Y-102839808D01*
X153094799Y-102697162D01*
X152722833Y-102696838D01*
X152379057Y-102838883D01*
X152115808Y-103101673D01*
X151973162Y-103445201D01*
X151972838Y-103817167D01*
X151624429Y-103817167D01*
X151636000Y-103759000D01*
X151636000Y-101092000D01*
X151578148Y-100801161D01*
X151413401Y-100554599D01*
X151303122Y-100444320D01*
X151303162Y-100398833D01*
X151161117Y-100055057D01*
X150898327Y-99791808D01*
X150554799Y-99649162D01*
X150182833Y-99648838D01*
X149859629Y-99782383D01*
X149538799Y-99649162D01*
X149491923Y-99649121D01*
X149381401Y-99538599D01*
X149134839Y-99373852D01*
X148844000Y-99316000D01*
X146231463Y-99316000D01*
X146199327Y-99283808D01*
X145855799Y-99141162D01*
X145483833Y-99140838D01*
X145140057Y-99282883D01*
X144876808Y-99545673D01*
X144734162Y-99889201D01*
X144734121Y-99936077D01*
X144577101Y-100093097D01*
X144362161Y-100135852D01*
X144115599Y-100300599D01*
X143950852Y-100547161D01*
X143893000Y-100838000D01*
X143893000Y-102688537D01*
X143860808Y-102720673D01*
X143718162Y-103064201D01*
X143717838Y-103436167D01*
X143859883Y-103779943D01*
X144096862Y-104017336D01*
X142194198Y-105920000D01*
X140516463Y-105920000D01*
X140484327Y-105887808D01*
X140140799Y-105745162D01*
X139768833Y-105744838D01*
X139425057Y-105886883D01*
X139161808Y-106149673D01*
X139019162Y-106493201D01*
X139018838Y-106865167D01*
X137541000Y-106865167D01*
X137541000Y-100965000D01*
X143002000Y-100965000D01*
X143051410Y-100954994D01*
X143093035Y-100926553D01*
X143120315Y-100884159D01*
X143129000Y-100838000D01*
X143129000Y-100349001D01*
X143525077Y-100270215D01*
X143860856Y-100045856D01*
X143987853Y-99918858D01*
X143987856Y-99918856D01*
X144212215Y-99583077D01*
X144225436Y-99516611D01*
X144291001Y-99187000D01*
X144291000Y-99186995D01*
X144291000Y-98298000D01*
X152126999Y-98298000D01*
X152127000Y-98298005D01*
X152127000Y-99949000D01*
X152205785Y-100345077D01*
X152430144Y-100680856D01*
X152765923Y-100905215D01*
X152856952Y-100923322D01*
X153019923Y-101032215D01*
X153416000Y-101111000D01*
X153812077Y-101032215D01*
X154147856Y-100807856D01*
X154351525Y-100503041D01*
X154490167Y-100503162D01*
X154833943Y-100361117D01*
X155097192Y-100098327D01*
X155239838Y-99754799D01*
X155240162Y-99382833D01*
X155098117Y-99039057D01*
X155065000Y-99005882D01*
X155065000Y-98991167D01*
X158068838Y-98991167D01*
X158210883Y-99334943D01*
X158473673Y-99598192D01*
X158817201Y-99740838D01*
X159189167Y-99741162D01*
X159532943Y-99599117D01*
X159566118Y-99566000D01*
X160594198Y-99566000D01*
X160784000Y-99755802D01*
X160784000Y-101164537D01*
X160751808Y-101196673D01*
X160609162Y-101540201D01*
X160608838Y-101912167D01*
X160750883Y-102255943D01*
X161013673Y-102519192D01*
X161357201Y-102661838D01*
X161729167Y-102662162D01*
X162072943Y-102520117D01*
X162336192Y-102257327D01*
X162478838Y-101913799D01*
X162479162Y-101541833D01*
X162337117Y-101198057D01*
X162304000Y-101164882D01*
X162304000Y-99441000D01*
X162246148Y-99150161D01*
X162081401Y-98903599D01*
X161626400Y-98448598D01*
X161716838Y-98230799D01*
X161717162Y-97858833D01*
X161575117Y-97515057D01*
X161312327Y-97251808D01*
X160968799Y-97109162D01*
X160596833Y-97108838D01*
X160253057Y-97250883D01*
X160233529Y-97270377D01*
X159966288Y-97263850D01*
X159920327Y-97217808D01*
X159576799Y-97075162D01*
X159204833Y-97074838D01*
X158861057Y-97216883D01*
X158597808Y-97479673D01*
X158455162Y-97823201D01*
X158454979Y-98032926D01*
X158211808Y-98275673D01*
X158069162Y-98619201D01*
X158068838Y-98991167D01*
X155065000Y-98991167D01*
X155065000Y-98899072D01*
X155214943Y-98837117D01*
X155478192Y-98574327D01*
X155620838Y-98230799D01*
X155621162Y-97858833D01*
X155479117Y-97515057D01*
X155216327Y-97251808D01*
X154872799Y-97109162D01*
X154500833Y-97108838D01*
X154449813Y-97129919D01*
X154401855Y-97058145D01*
X154066077Y-96833786D01*
X153670000Y-96755000D01*
X153273922Y-96833786D01*
X152938144Y-97058145D01*
X152430144Y-97566144D01*
X152205785Y-97901923D01*
X152126999Y-98298000D01*
X144291000Y-98298000D01*
X144291000Y-95904000D01*
X145542000Y-95904000D01*
X145938077Y-95825215D01*
X146273856Y-95600856D01*
X146498215Y-95265077D01*
X146577000Y-94869000D01*
X168275000Y-94869000D01*
X168275000Y-100838000D01*
X168275000Y-100838000D01*
G37*
X168275000Y-100838000D02*
X168285006Y-100887410D01*
X168313447Y-100929035D01*
X168355841Y-100956315D01*
X168402000Y-100965000D01*
X173863000Y-100965000D01*
X173863000Y-110858560D01*
X172618400Y-110858560D01*
X172383083Y-110902838D01*
X172166959Y-111041910D01*
X172021969Y-111254110D01*
X172002768Y-111348927D01*
X171844036Y-111171268D01*
X171316791Y-110917291D01*
X171301026Y-110914642D01*
X171069000Y-111035783D01*
X171069000Y-112395000D01*
X171089000Y-112395000D01*
X171089000Y-112649000D01*
X171069000Y-112649000D01*
X171069000Y-114008217D01*
X171301026Y-114129358D01*
X171316791Y-114126709D01*
X171844036Y-113872732D01*
X172000907Y-113697155D01*
X172015238Y-113773317D01*
X172154310Y-113989441D01*
X172366510Y-114134431D01*
X172618400Y-114185440D01*
X173863000Y-114185440D01*
X173863000Y-114415560D01*
X172414000Y-114415560D01*
X172178683Y-114459838D01*
X171962559Y-114598910D01*
X171817569Y-114811110D01*
X171766560Y-115063000D01*
X171766560Y-116063000D01*
X171810838Y-116298317D01*
X171949910Y-116514441D01*
X172162110Y-116659431D01*
X172414000Y-116710440D01*
X173863000Y-116710440D01*
X173863000Y-127765560D01*
X173314000Y-127765560D01*
X173078683Y-127809838D01*
X172862559Y-127948910D01*
X172717569Y-128161110D01*
X172666560Y-128413000D01*
X172666560Y-129713000D01*
X172710838Y-129948317D01*
X172849910Y-130164441D01*
X173062110Y-130309431D01*
X173314000Y-130360440D01*
X173863000Y-130360440D01*
X173863000Y-130670560D01*
X172618400Y-130670560D01*
X172383083Y-130714838D01*
X172166959Y-130853910D01*
X172021969Y-131066110D01*
X172002768Y-131160927D01*
X171844036Y-130983268D01*
X171316791Y-130729291D01*
X171301026Y-130726642D01*
X171069000Y-130847783D01*
X171069000Y-132207000D01*
X171089000Y-132207000D01*
X171089000Y-132461000D01*
X171069000Y-132461000D01*
X171069000Y-133820217D01*
X171301026Y-133941358D01*
X171316791Y-133938709D01*
X171844036Y-133684732D01*
X172000907Y-133509155D01*
X172015238Y-133585317D01*
X172154310Y-133801441D01*
X172366510Y-133946431D01*
X172618400Y-133997440D01*
X173863000Y-133997440D01*
X173863000Y-136271000D01*
X168402000Y-136271000D01*
X168352590Y-136281006D01*
X168310965Y-136309447D01*
X168283685Y-136351841D01*
X168275000Y-136398000D01*
X168275000Y-142367000D01*
X167849277Y-142367000D01*
X167869703Y-142336430D01*
X167956100Y-141902084D01*
X167956100Y-141296836D01*
X167869703Y-140862490D01*
X167623666Y-140494270D01*
X167255446Y-140248233D01*
X166821100Y-140161836D01*
X166386754Y-140248233D01*
X166018534Y-140494270D01*
X165772497Y-140862490D01*
X165686100Y-141296836D01*
X165686100Y-141902084D01*
X165772497Y-142336430D01*
X165792923Y-142367000D01*
X160849277Y-142367000D01*
X160869703Y-142336430D01*
X160956100Y-141902084D01*
X160956100Y-141296836D01*
X160869703Y-140862490D01*
X160623666Y-140494270D01*
X160255446Y-140248233D01*
X159821100Y-140161836D01*
X159386754Y-140248233D01*
X159018534Y-140494270D01*
X158772497Y-140862490D01*
X158686100Y-141296836D01*
X158686100Y-141902084D01*
X158772497Y-142336430D01*
X158792923Y-142367000D01*
X143129000Y-142367000D01*
X143129000Y-138899460D01*
X159536415Y-138899460D01*
X159620909Y-139324239D01*
X159861526Y-139684349D01*
X160221636Y-139924966D01*
X160646415Y-140009460D01*
X160995785Y-140009460D01*
X161420564Y-139924966D01*
X161780674Y-139684349D01*
X162021291Y-139324239D01*
X162105785Y-138899460D01*
X164536415Y-138899460D01*
X164620909Y-139324239D01*
X164861526Y-139684349D01*
X165221636Y-139924966D01*
X165646415Y-140009460D01*
X165995785Y-140009460D01*
X166420564Y-139924966D01*
X166780674Y-139684349D01*
X167021291Y-139324239D01*
X167105785Y-138899460D01*
X167021291Y-138474681D01*
X166780674Y-138114571D01*
X166420564Y-137873954D01*
X165995785Y-137789460D01*
X165646415Y-137789460D01*
X165221636Y-137873954D01*
X164861526Y-138114571D01*
X164620909Y-138474681D01*
X164536415Y-138899460D01*
X162105785Y-138899460D01*
X162021291Y-138474681D01*
X161780674Y-138114571D01*
X161420564Y-137873954D01*
X160995785Y-137789460D01*
X160646415Y-137789460D01*
X160221636Y-137873954D01*
X159861526Y-138114571D01*
X159620909Y-138474681D01*
X159536415Y-138899460D01*
X143129000Y-138899460D01*
X143129000Y-136398000D01*
X143118994Y-136348590D01*
X143090553Y-136306965D01*
X143048159Y-136279685D01*
X143002000Y-136271000D01*
X137541000Y-136271000D01*
X137541000Y-135694558D01*
X149081266Y-135694558D01*
X149133686Y-136094979D01*
X149335351Y-136444858D01*
X149655558Y-136690931D01*
X151179557Y-137443860D01*
X151569558Y-137548663D01*
X151969978Y-137496243D01*
X152319857Y-137294578D01*
X152565930Y-136974371D01*
X152652560Y-136652000D01*
X153270000Y-136652000D01*
X153348785Y-137048077D01*
X153573144Y-137383856D01*
X153908923Y-137608215D01*
X154305000Y-137687000D01*
X157226000Y-137687000D01*
X157622077Y-137608215D01*
X157957856Y-137383856D01*
X158182215Y-137048077D01*
X158261000Y-136652000D01*
X158182215Y-136255923D01*
X157957856Y-135920144D01*
X157845645Y-135845167D01*
X158654838Y-135845167D01*
X158796883Y-136188943D01*
X158915182Y-136307448D01*
X158855000Y-136610000D01*
X158933785Y-137006077D01*
X159158144Y-137341856D01*
X159493923Y-137566215D01*
X159890000Y-137645000D01*
X163839995Y-137645000D01*
X163840000Y-137645001D01*
X164236077Y-137566215D01*
X164571856Y-137341856D01*
X165221856Y-136691855D01*
X165446215Y-136356077D01*
X165525001Y-135960000D01*
X165446215Y-135563922D01*
X165221856Y-135228144D01*
X164886078Y-135003785D01*
X164490000Y-134924999D01*
X164145771Y-134993472D01*
X164020327Y-134867808D01*
X163676799Y-134725162D01*
X163304833Y-134724838D01*
X162961057Y-134866883D01*
X162727533Y-135100000D01*
X160352114Y-135100000D01*
X160120327Y-134867808D01*
X159776799Y-134725162D01*
X159404833Y-134724838D01*
X159061057Y-134866883D01*
X158797808Y-135129673D01*
X158655162Y-135473201D01*
X158654838Y-135845167D01*
X157845645Y-135845167D01*
X157622077Y-135695785D01*
X157226000Y-135617000D01*
X154305000Y-135617000D01*
X153908923Y-135695785D01*
X153573144Y-135920144D01*
X153348785Y-136255923D01*
X153270000Y-136652000D01*
X152652560Y-136652000D01*
X152670734Y-136584371D01*
X152618314Y-136183950D01*
X152416648Y-135834071D01*
X152096442Y-135587998D01*
X150572442Y-134835069D01*
X150182442Y-134730266D01*
X149782021Y-134782686D01*
X149432142Y-134984351D01*
X149186069Y-135304558D01*
X149081266Y-135694558D01*
X137541000Y-135694558D01*
X137541000Y-133941559D01*
X137922000Y-134017345D01*
X138495489Y-133903271D01*
X138981670Y-133578415D01*
X139192000Y-133263634D01*
X139402330Y-133578415D01*
X139888511Y-133903271D01*
X140462000Y-134017345D01*
X141035489Y-133903271D01*
X141521670Y-133578415D01*
X141732000Y-133263634D01*
X141942330Y-133578415D01*
X142428511Y-133903271D01*
X143002000Y-134017345D01*
X143575489Y-133903271D01*
X144061670Y-133578415D01*
X144272000Y-133263634D01*
X144482330Y-133578415D01*
X144968511Y-133903271D01*
X145542000Y-134017345D01*
X146115489Y-133903271D01*
X146601670Y-133578415D01*
X146812000Y-133263634D01*
X147022330Y-133578415D01*
X147508511Y-133903271D01*
X148082000Y-134017345D01*
X148655489Y-133903271D01*
X149141670Y-133578415D01*
X149352000Y-133263634D01*
X149562330Y-133578415D01*
X150048511Y-133903271D01*
X150622000Y-134017345D01*
X151195489Y-133903271D01*
X151681670Y-133578415D01*
X151888461Y-133268931D01*
X152259964Y-133684732D01*
X152787209Y-133938709D01*
X152802974Y-133941358D01*
X153035000Y-133820217D01*
X153035000Y-132461000D01*
X153015000Y-132461000D01*
X153015000Y-132207000D01*
X153035000Y-132207000D01*
X153035000Y-132187000D01*
X153289000Y-132187000D01*
X153289000Y-132207000D01*
X153309000Y-132207000D01*
X153309000Y-132461000D01*
X153289000Y-132461000D01*
X153289000Y-133820217D01*
X153521026Y-133941358D01*
X153536791Y-133938709D01*
X153561313Y-133926897D01*
X153505000Y-134210000D01*
X153576173Y-134567809D01*
X153653056Y-134682872D01*
X153696883Y-134788943D01*
X153778680Y-134870882D01*
X153778855Y-134871145D01*
X153828564Y-134920854D01*
X153959673Y-135052192D01*
X154303201Y-135194838D01*
X154675167Y-135195162D01*
X155018943Y-135053117D01*
X155158367Y-134913936D01*
X155353201Y-134994838D01*
X155725167Y-134995162D01*
X156068943Y-134853117D01*
X156332192Y-134590327D01*
X156474838Y-134246799D01*
X156475162Y-133874833D01*
X156441170Y-133792566D01*
X156761670Y-133578415D01*
X156972000Y-133263634D01*
X157182330Y-133578415D01*
X157668511Y-133903271D01*
X158242000Y-134017345D01*
X158815489Y-133903271D01*
X159301670Y-133578415D01*
X159512000Y-133263634D01*
X159722330Y-133578415D01*
X160208511Y-133903271D01*
X160782000Y-134017345D01*
X161355489Y-133903271D01*
X161841670Y-133578415D01*
X162052000Y-133263634D01*
X162262330Y-133578415D01*
X162748511Y-133903271D01*
X163322000Y-134017345D01*
X163895489Y-133903271D01*
X164381670Y-133578415D01*
X164592000Y-133263634D01*
X164802330Y-133578415D01*
X165288511Y-133903271D01*
X165862000Y-134017345D01*
X166435489Y-133903271D01*
X166921670Y-133578415D01*
X167132000Y-133263634D01*
X167342330Y-133578415D01*
X167828511Y-133903271D01*
X168402000Y-134017345D01*
X168975489Y-133903271D01*
X169461670Y-133578415D01*
X169668461Y-133268931D01*
X170039964Y-133684732D01*
X170567209Y-133938709D01*
X170582974Y-133941358D01*
X170815000Y-133820217D01*
X170815000Y-132461000D01*
X170795000Y-132461000D01*
X170795000Y-132207000D01*
X170815000Y-132207000D01*
X170815000Y-130847783D01*
X170582974Y-130726642D01*
X170567209Y-130729291D01*
X170039964Y-130983268D01*
X169668461Y-131399069D01*
X169461670Y-131089585D01*
X168975489Y-130764729D01*
X168402000Y-130650655D01*
X167828511Y-130764729D01*
X167342330Y-131089585D01*
X167132000Y-131404366D01*
X166921670Y-131089585D01*
X166435489Y-130764729D01*
X165862000Y-130650655D01*
X165288511Y-130764729D01*
X164802330Y-131089585D01*
X164592000Y-131404366D01*
X164381670Y-131089585D01*
X163895489Y-130764729D01*
X163322000Y-130650655D01*
X162748511Y-130764729D01*
X162262330Y-131089585D01*
X162052000Y-131404366D01*
X161841670Y-131089585D01*
X161355489Y-130764729D01*
X160782000Y-130650655D01*
X160208511Y-130764729D01*
X159722330Y-131089585D01*
X159512000Y-131404366D01*
X159301670Y-131089585D01*
X158815489Y-130764729D01*
X158242000Y-130650655D01*
X157668511Y-130764729D01*
X157182330Y-131089585D01*
X156972000Y-131404366D01*
X156761670Y-131089585D01*
X156275489Y-130764729D01*
X155702000Y-130650655D01*
X155374952Y-130715709D01*
X155375162Y-130474833D01*
X155359826Y-130437718D01*
X155351056Y-130149756D01*
X155201249Y-129817115D01*
X154935549Y-129567122D01*
X154535549Y-129317122D01*
X154422961Y-129274454D01*
X154317134Y-129217015D01*
X154253877Y-129210376D01*
X154194406Y-129187838D01*
X154074059Y-129191503D01*
X153954308Y-129178935D01*
X153893328Y-129197008D01*
X153829756Y-129198944D01*
X153719970Y-129248387D01*
X153604528Y-129282601D01*
X152692882Y-129762414D01*
X152561057Y-129816883D01*
X152297808Y-130079673D01*
X152155162Y-130423201D01*
X152154838Y-130795167D01*
X152241225Y-131004241D01*
X151888461Y-131399069D01*
X151681670Y-131089585D01*
X151195489Y-130764729D01*
X150622000Y-130650655D01*
X150048511Y-130764729D01*
X149562330Y-131089585D01*
X149352000Y-131404366D01*
X149141670Y-131089585D01*
X148655489Y-130764729D01*
X148082000Y-130650655D01*
X147508511Y-130764729D01*
X147022330Y-131089585D01*
X146812000Y-131404366D01*
X146601670Y-131089585D01*
X146115489Y-130764729D01*
X145542000Y-130650655D01*
X144968511Y-130764729D01*
X144482330Y-131089585D01*
X144272000Y-131404366D01*
X144061670Y-131089585D01*
X143575489Y-130764729D01*
X143002000Y-130650655D01*
X142428511Y-130764729D01*
X141942330Y-131089585D01*
X141732000Y-131404366D01*
X141521670Y-131089585D01*
X141035489Y-130764729D01*
X140462000Y-130650655D01*
X139888511Y-130764729D01*
X139402330Y-131089585D01*
X139192000Y-131404366D01*
X138981670Y-131089585D01*
X138495489Y-130764729D01*
X137922000Y-130650655D01*
X137541000Y-130726441D01*
X137541000Y-128377609D01*
X137846538Y-128377609D01*
X137861714Y-128469376D01*
X138108067Y-128889125D01*
X138496299Y-129182647D01*
X138967304Y-129305256D01*
X139163000Y-129142547D01*
X139163000Y-128187000D01*
X139417000Y-128187000D01*
X139417000Y-129142547D01*
X139612696Y-129305256D01*
X140083701Y-129182647D01*
X140471933Y-128889125D01*
X140718286Y-128469376D01*
X140722289Y-128445167D01*
X156604838Y-128445167D01*
X156746883Y-128788943D01*
X157009673Y-129052192D01*
X157353201Y-129194838D01*
X157725167Y-129195162D01*
X158068943Y-129053117D01*
X158102118Y-129020000D01*
X160768396Y-129020000D01*
X160796883Y-129088943D01*
X161005010Y-129297434D01*
X161004838Y-129495167D01*
X161146883Y-129838943D01*
X161409673Y-130102192D01*
X161753201Y-130244838D01*
X162125167Y-130245162D01*
X162468943Y-130103117D01*
X162502118Y-130070000D01*
X162740000Y-130070000D01*
X163030839Y-130012148D01*
X163277401Y-129847401D01*
X163627401Y-129497401D01*
X163792148Y-129250839D01*
X163850000Y-128960000D01*
X163850000Y-128881223D01*
X164003201Y-128944838D01*
X164375167Y-128945162D01*
X164718943Y-128803117D01*
X164982192Y-128540327D01*
X165021727Y-128445115D01*
X165075167Y-128445162D01*
X165418943Y-128303117D01*
X165682192Y-128040327D01*
X165824838Y-127696799D01*
X165825066Y-127435352D01*
X165850000Y-127310000D01*
X165850000Y-127186229D01*
X165876173Y-127317809D01*
X166078855Y-127621145D01*
X166178855Y-127721145D01*
X166482191Y-127923827D01*
X166840000Y-127995000D01*
X168918837Y-127995000D01*
X170072081Y-129105531D01*
X170412031Y-129323516D01*
X170809524Y-129394816D01*
X171204045Y-129308573D01*
X171535531Y-129077919D01*
X171753516Y-128737968D01*
X171824816Y-128340475D01*
X171738573Y-127945954D01*
X171507919Y-127614468D01*
X170157919Y-126314469D01*
X169817968Y-126096483D01*
X169420475Y-126025183D01*
X169025955Y-126111427D01*
X169006448Y-126125000D01*
X167675000Y-126125000D01*
X167675000Y-125047419D01*
X167732192Y-124990327D01*
X167874838Y-124646799D01*
X167875162Y-124274833D01*
X167733117Y-123931057D01*
X167628507Y-123826264D01*
X167603827Y-123702191D01*
X167401145Y-123398855D01*
X165725000Y-121722710D01*
X165725000Y-120195167D01*
X168804838Y-120195167D01*
X168946883Y-120538943D01*
X168980000Y-120572118D01*
X168980000Y-121160000D01*
X169037852Y-121450839D01*
X169202599Y-121697401D01*
X169854878Y-122349680D01*
X169854838Y-122395167D01*
X169996883Y-122738943D01*
X170259673Y-123002192D01*
X170603201Y-123144838D01*
X170975167Y-123145162D01*
X171318943Y-123003117D01*
X171582192Y-122740327D01*
X171724838Y-122396799D01*
X171725162Y-122024833D01*
X171583117Y-121681057D01*
X171320327Y-121417808D01*
X170976799Y-121275162D01*
X170929923Y-121275121D01*
X170500000Y-120845198D01*
X170500000Y-120572463D01*
X170532192Y-120540327D01*
X170674838Y-120196799D01*
X170675162Y-119824833D01*
X170533117Y-119481057D01*
X170270327Y-119217808D01*
X169926799Y-119075162D01*
X169554833Y-119074838D01*
X169211057Y-119216883D01*
X168947808Y-119479673D01*
X168805162Y-119823201D01*
X168804838Y-120195167D01*
X165725000Y-120195167D01*
X165725000Y-119910000D01*
X165653827Y-119552191D01*
X165451145Y-119248855D01*
X163451436Y-117249146D01*
X163320327Y-117117808D01*
X162976799Y-116975162D01*
X162604833Y-116974838D01*
X162261057Y-117116883D01*
X161997808Y-117379673D01*
X161855162Y-117723201D01*
X161854838Y-118095167D01*
X161996883Y-118438943D01*
X162067753Y-118509937D01*
X161947808Y-118629673D01*
X161805162Y-118973201D01*
X161804921Y-119250119D01*
X160759965Y-118205163D01*
X160722426Y-118005658D01*
X160761440Y-117813000D01*
X160761440Y-117113000D01*
X160737056Y-116983411D01*
X160761440Y-116863000D01*
X160761440Y-116163000D01*
X160717162Y-115927683D01*
X160602022Y-115748750D01*
X163179000Y-115748750D01*
X163179000Y-116089309D01*
X163275673Y-116322698D01*
X163454301Y-116501327D01*
X163687690Y-116598000D01*
X164128250Y-116598000D01*
X164287000Y-116439250D01*
X164287000Y-115590000D01*
X164541000Y-115590000D01*
X164541000Y-116439250D01*
X164699750Y-116598000D01*
X165140310Y-116598000D01*
X165373699Y-116501327D01*
X165552327Y-116322698D01*
X165649000Y-116089309D01*
X165649000Y-115748750D01*
X165490250Y-115590000D01*
X164541000Y-115590000D01*
X164287000Y-115590000D01*
X163337750Y-115590000D01*
X163179000Y-115748750D01*
X160602022Y-115748750D01*
X160578090Y-115711559D01*
X160365890Y-115566569D01*
X160114000Y-115515560D01*
X158914000Y-115515560D01*
X158678683Y-115559838D01*
X158462559Y-115698910D01*
X158317569Y-115911110D01*
X158266560Y-116163000D01*
X158266560Y-116863000D01*
X158290944Y-116992589D01*
X158266560Y-117113000D01*
X158266560Y-117224892D01*
X158204833Y-117224838D01*
X157861057Y-117366883D01*
X157597808Y-117629673D01*
X157455162Y-117973201D01*
X157454838Y-118345167D01*
X157596883Y-118688943D01*
X157642710Y-118734850D01*
X157597808Y-118779673D01*
X157455162Y-119123201D01*
X157454838Y-119495167D01*
X157596883Y-119838943D01*
X157859673Y-120102192D01*
X158203201Y-120244838D01*
X158300596Y-120244923D01*
X158266560Y-120413000D01*
X158266560Y-121113000D01*
X158305574Y-121320342D01*
X158266560Y-121513000D01*
X158266560Y-121694284D01*
X158233000Y-121863000D01*
X158266560Y-122031716D01*
X158266560Y-122213000D01*
X158305858Y-122421850D01*
X158279000Y-122486691D01*
X158279000Y-122677250D01*
X158437750Y-122836000D01*
X158793312Y-122836000D01*
X158914000Y-122860440D01*
X159661000Y-122860440D01*
X159661000Y-123065560D01*
X158914000Y-123065560D01*
X158784113Y-123090000D01*
X158437750Y-123090000D01*
X158279000Y-123248750D01*
X158279000Y-123439309D01*
X158307870Y-123509007D01*
X158266560Y-123713000D01*
X158266560Y-124413000D01*
X158305574Y-124620342D01*
X158266560Y-124813000D01*
X158266560Y-125513000D01*
X158310838Y-125748317D01*
X158368051Y-125837228D01*
X158317569Y-125911110D01*
X158266560Y-126163000D01*
X158266560Y-126625066D01*
X158004833Y-126624838D01*
X157661057Y-126766883D01*
X157397808Y-127029673D01*
X157258761Y-127364534D01*
X157011057Y-127466883D01*
X156747808Y-127729673D01*
X156605162Y-128073201D01*
X156604838Y-128445167D01*
X140722289Y-128445167D01*
X140733462Y-128377609D01*
X140608731Y-128187000D01*
X139417000Y-128187000D01*
X139163000Y-128187000D01*
X137971269Y-128187000D01*
X137846538Y-128377609D01*
X137541000Y-128377609D01*
X137541000Y-125460000D01*
X137792560Y-125460000D01*
X137792560Y-126660000D01*
X137836838Y-126895317D01*
X137975910Y-127111441D01*
X138128309Y-127215571D01*
X138108067Y-127230875D01*
X137861714Y-127650624D01*
X137846538Y-127742391D01*
X137971269Y-127933000D01*
X139163000Y-127933000D01*
X139163000Y-127913000D01*
X139417000Y-127913000D01*
X139417000Y-127933000D01*
X140608731Y-127933000D01*
X140733462Y-127742391D01*
X140718286Y-127650624D01*
X140471933Y-127230875D01*
X140450580Y-127214731D01*
X140591441Y-127124090D01*
X140679644Y-126995000D01*
X141252710Y-126995000D01*
X142428564Y-128170854D01*
X142559673Y-128302192D01*
X142903201Y-128444838D01*
X143275167Y-128445162D01*
X143618943Y-128303117D01*
X143882192Y-128040327D01*
X144024838Y-127696799D01*
X144025162Y-127324833D01*
X143883117Y-126981057D01*
X143620327Y-126717808D01*
X143619935Y-126717645D01*
X142301145Y-125398855D01*
X141997809Y-125196173D01*
X141640000Y-125125000D01*
X140679018Y-125125000D01*
X140604090Y-125008559D01*
X140391890Y-124863569D01*
X140140000Y-124812560D01*
X138440000Y-124812560D01*
X138204683Y-124856838D01*
X137988559Y-124995910D01*
X137843569Y-125208110D01*
X137792560Y-125460000D01*
X137541000Y-125460000D01*
X137541000Y-124545167D01*
X142504838Y-124545167D01*
X142646883Y-124888943D01*
X142909673Y-125152192D01*
X143253201Y-125294838D01*
X143625167Y-125295162D01*
X143968943Y-125153117D01*
X144232192Y-124890327D01*
X144374838Y-124546799D01*
X144375162Y-124174833D01*
X144233117Y-123831057D01*
X144150000Y-123747795D01*
X144150000Y-121681604D01*
X144218943Y-121653117D01*
X144482192Y-121390327D01*
X144624838Y-121046799D01*
X144625162Y-120674833D01*
X144483117Y-120331057D01*
X144220327Y-120067808D01*
X143876799Y-119925162D01*
X143504833Y-119924838D01*
X143161057Y-120066883D01*
X142897808Y-120329673D01*
X142755162Y-120673201D01*
X142755079Y-120768548D01*
X142687852Y-120869161D01*
X142630000Y-121160000D01*
X142630000Y-123872559D01*
X142505162Y-124173201D01*
X142504838Y-124545167D01*
X137541000Y-124545167D01*
X137541000Y-119710000D01*
X145705000Y-119710000D01*
X145783785Y-120106077D01*
X146008144Y-120441856D01*
X146343923Y-120666215D01*
X146555131Y-120708227D01*
X146555121Y-120720077D01*
X146452599Y-120822599D01*
X146287852Y-121069161D01*
X146230000Y-121360000D01*
X146230000Y-123747711D01*
X146097808Y-123879673D01*
X145955162Y-124223201D01*
X145954838Y-124595167D01*
X146096883Y-124938943D01*
X146359673Y-125202192D01*
X146703201Y-125344838D01*
X147075167Y-125345162D01*
X147418943Y-125203117D01*
X147682192Y-124940327D01*
X147824838Y-124596799D01*
X147825162Y-124224833D01*
X147763392Y-124075338D01*
X152104190Y-124075338D01*
X152314686Y-124584777D01*
X152704113Y-124974884D01*
X153213184Y-125186269D01*
X153764398Y-125186750D01*
X154273837Y-124976254D01*
X154663944Y-124586827D01*
X154875329Y-124077756D01*
X154875810Y-123526542D01*
X154665314Y-123017103D01*
X154275887Y-122626996D01*
X153766816Y-122415611D01*
X153215602Y-122415130D01*
X152706163Y-122625626D01*
X152316056Y-123015053D01*
X152104671Y-123524124D01*
X152104190Y-124075338D01*
X147763392Y-124075338D01*
X147750000Y-124042927D01*
X147750000Y-121764242D01*
X148018943Y-121653117D01*
X148282192Y-121390327D01*
X148424838Y-121046799D01*
X148425101Y-120745000D01*
X149462172Y-120745000D01*
X149493922Y-120766215D01*
X149890000Y-120845000D01*
X150286077Y-120766215D01*
X150621855Y-120541855D01*
X150846215Y-120206077D01*
X150925000Y-119810000D01*
X150846215Y-119413922D01*
X150698906Y-119193458D01*
X152104190Y-119193458D01*
X152314686Y-119702897D01*
X152704113Y-120093004D01*
X153213184Y-120304389D01*
X153764398Y-120304870D01*
X154273837Y-120094374D01*
X154663944Y-119704947D01*
X154875329Y-119195876D01*
X154875810Y-118644662D01*
X154665314Y-118135223D01*
X154275887Y-117745116D01*
X153766816Y-117533731D01*
X153215602Y-117533250D01*
X152706163Y-117743746D01*
X152316056Y-118133173D01*
X152104671Y-118642244D01*
X152104190Y-119193458D01*
X150698906Y-119193458D01*
X150621855Y-119078144D01*
X150521856Y-118978144D01*
X150186077Y-118753785D01*
X149790000Y-118674999D01*
X149789995Y-118675000D01*
X146740000Y-118675000D01*
X146343923Y-118753785D01*
X146008144Y-118978144D01*
X145783785Y-119313923D01*
X145705000Y-119710000D01*
X137541000Y-119710000D01*
X137541000Y-114129559D01*
X137922000Y-114205345D01*
X138495489Y-114091271D01*
X138981670Y-113766415D01*
X139192000Y-113451634D01*
X139402330Y-113766415D01*
X139888511Y-114091271D01*
X140462000Y-114205345D01*
X141035489Y-114091271D01*
X141171284Y-114000535D01*
X141202599Y-114047401D01*
X142554878Y-115399680D01*
X142554838Y-115445167D01*
X142696883Y-115788943D01*
X142959673Y-116052192D01*
X143303201Y-116194838D01*
X143675167Y-116195162D01*
X143694752Y-116187070D01*
X143809673Y-116302192D01*
X144153201Y-116444838D01*
X144525167Y-116445162D01*
X144868943Y-116303117D01*
X145132192Y-116040327D01*
X145150944Y-115995167D01*
X148104838Y-115995167D01*
X148246883Y-116338943D01*
X148509673Y-116602192D01*
X148853201Y-116744838D01*
X148925388Y-116744901D01*
X149046883Y-117038943D01*
X149309673Y-117302192D01*
X149653201Y-117444838D01*
X150025167Y-117445162D01*
X150026847Y-117444468D01*
X157163682Y-117423996D01*
X157341142Y-117388167D01*
X157518809Y-117352827D01*
X157519946Y-117352067D01*
X157521285Y-117351797D01*
X157671571Y-117250755D01*
X157700611Y-117231351D01*
X157768943Y-117203117D01*
X157821729Y-117150423D01*
X157822145Y-117150145D01*
X157900854Y-117071436D01*
X158032192Y-116940327D01*
X158174838Y-116596799D01*
X158175162Y-116224833D01*
X158033117Y-115881057D01*
X157775000Y-115622489D01*
X157775000Y-115610816D01*
X157775162Y-115424833D01*
X157633117Y-115081057D01*
X157389178Y-114836691D01*
X163179000Y-114836691D01*
X163179000Y-115177250D01*
X163337750Y-115336000D01*
X164287000Y-115336000D01*
X164287000Y-114486750D01*
X164541000Y-114486750D01*
X164541000Y-115336000D01*
X165490250Y-115336000D01*
X165649000Y-115177250D01*
X165649000Y-114836691D01*
X165552327Y-114603302D01*
X165373699Y-114424673D01*
X165140310Y-114328000D01*
X164699750Y-114328000D01*
X164541000Y-114486750D01*
X164287000Y-114486750D01*
X164128250Y-114328000D01*
X163687690Y-114328000D01*
X163454301Y-114424673D01*
X163275673Y-114603302D01*
X163179000Y-114836691D01*
X157389178Y-114836691D01*
X157370327Y-114817808D01*
X157026799Y-114675162D01*
X156654833Y-114674838D01*
X156533431Y-114725000D01*
X149190000Y-114725000D01*
X148832191Y-114796173D01*
X148528855Y-114998855D01*
X148379146Y-115148564D01*
X148247808Y-115279673D01*
X148105162Y-115623201D01*
X148104838Y-115995167D01*
X145150944Y-115995167D01*
X145274838Y-115696799D01*
X145275162Y-115324833D01*
X145133117Y-114981057D01*
X145050000Y-114897795D01*
X145050000Y-114107480D01*
X145542000Y-114205345D01*
X146115489Y-114091271D01*
X146601670Y-113766415D01*
X146812000Y-113451634D01*
X147022330Y-113766415D01*
X147508511Y-114091271D01*
X148082000Y-114205345D01*
X148655489Y-114091271D01*
X149141670Y-113766415D01*
X149352000Y-113451634D01*
X149562330Y-113766415D01*
X150048511Y-114091271D01*
X150622000Y-114205345D01*
X151195489Y-114091271D01*
X151287439Y-114029832D01*
X151359673Y-114102192D01*
X151703201Y-114244838D01*
X152075167Y-114245162D01*
X152418943Y-114103117D01*
X152494042Y-114028149D01*
X152588511Y-114091271D01*
X153162000Y-114205345D01*
X153735489Y-114091271D01*
X154221670Y-113766415D01*
X154428461Y-113456931D01*
X154799964Y-113872732D01*
X155327209Y-114126709D01*
X155342974Y-114129358D01*
X155575000Y-114008217D01*
X155575000Y-112649000D01*
X155555000Y-112649000D01*
X155555000Y-112395000D01*
X155575000Y-112395000D01*
X155575000Y-111035783D01*
X155829000Y-111035783D01*
X155829000Y-112395000D01*
X155849000Y-112395000D01*
X155849000Y-112649000D01*
X155829000Y-112649000D01*
X155829000Y-114008217D01*
X156061026Y-114129358D01*
X156076791Y-114126709D01*
X156604036Y-113872732D01*
X156975539Y-113456931D01*
X157182330Y-113766415D01*
X157203000Y-113780226D01*
X157203000Y-113808000D01*
X157204992Y-113818016D01*
X157204838Y-113995167D01*
X157273084Y-114160336D01*
X157274173Y-114165809D01*
X157277246Y-114170408D01*
X157346883Y-114338943D01*
X157476849Y-114469136D01*
X157476855Y-114469145D01*
X157478564Y-114470854D01*
X157609673Y-114602192D01*
X157953201Y-114744838D01*
X158325167Y-114745162D01*
X158668943Y-114603117D01*
X158890068Y-114382378D01*
X159009673Y-114502192D01*
X159353201Y-114644838D01*
X159725167Y-114645162D01*
X160068943Y-114503117D01*
X160332192Y-114240327D01*
X160384011Y-114115534D01*
X160407209Y-114126709D01*
X160422974Y-114129358D01*
X160655000Y-114008217D01*
X160655000Y-112649000D01*
X160635000Y-112649000D01*
X160635000Y-112395000D01*
X160655000Y-112395000D01*
X160655000Y-111196821D01*
X160683113Y-111035783D01*
X160909000Y-111035783D01*
X160909000Y-112395000D01*
X160929000Y-112395000D01*
X160929000Y-112649000D01*
X160909000Y-112649000D01*
X160909000Y-114008217D01*
X161141026Y-114129358D01*
X161156791Y-114126709D01*
X161684036Y-113872732D01*
X162055539Y-113456931D01*
X162262330Y-113766415D01*
X162748511Y-114091271D01*
X163322000Y-114205345D01*
X163895489Y-114091271D01*
X164381670Y-113766415D01*
X164592000Y-113451634D01*
X164802330Y-113766415D01*
X165288511Y-114091271D01*
X165862000Y-114205345D01*
X166205106Y-114137097D01*
X166204838Y-114445167D01*
X166346883Y-114788943D01*
X166609673Y-115052192D01*
X166953201Y-115194838D01*
X167325167Y-115195162D01*
X167628083Y-115070000D01*
X169127537Y-115070000D01*
X169159673Y-115102192D01*
X169503201Y-115244838D01*
X169875167Y-115245162D01*
X170218943Y-115103117D01*
X170482192Y-114840327D01*
X170624838Y-114496799D01*
X170625162Y-114124833D01*
X170619214Y-114110437D01*
X170815000Y-114008217D01*
X170815000Y-112649000D01*
X170795000Y-112649000D01*
X170795000Y-112395000D01*
X170815000Y-112395000D01*
X170815000Y-111035783D01*
X170582974Y-110914642D01*
X170567209Y-110917291D01*
X170039964Y-111171268D01*
X169668461Y-111587069D01*
X169461670Y-111277585D01*
X168975489Y-110952729D01*
X168402000Y-110838655D01*
X167828511Y-110952729D01*
X167342330Y-111277585D01*
X167132000Y-111592366D01*
X166921670Y-111277585D01*
X166435489Y-110952729D01*
X165862000Y-110838655D01*
X165288511Y-110952729D01*
X164802330Y-111277585D01*
X164592000Y-111592366D01*
X164381670Y-111277585D01*
X163895489Y-110952729D01*
X163322000Y-110838655D01*
X162748511Y-110952729D01*
X162262330Y-111277585D01*
X162055539Y-111587069D01*
X161684036Y-111171268D01*
X161156791Y-110917291D01*
X161141026Y-110914642D01*
X160909000Y-111035783D01*
X160683113Y-111035783D01*
X160925890Y-109645125D01*
X172719035Y-109647000D01*
X172905167Y-109647162D01*
X173248943Y-109505117D01*
X173512192Y-109242327D01*
X173654838Y-108898799D01*
X173655162Y-108526833D01*
X173513117Y-108183057D01*
X173250327Y-107919808D01*
X172906799Y-107777162D01*
X172534833Y-107776838D01*
X172534512Y-107776970D01*
X160140149Y-107775000D01*
X160039090Y-107795085D01*
X159936079Y-107797508D01*
X159861886Y-107830304D01*
X159782328Y-107846116D01*
X159696649Y-107903345D01*
X159602406Y-107945004D01*
X159546412Y-108003696D01*
X159478960Y-108048750D01*
X159421702Y-108134413D01*
X159350578Y-108208964D01*
X159321306Y-108284616D01*
X159276230Y-108352054D01*
X159256113Y-108453104D01*
X159218930Y-108549202D01*
X158857362Y-110620310D01*
X158747808Y-110729673D01*
X158667417Y-110923276D01*
X158242000Y-110838655D01*
X157668511Y-110952729D01*
X157182330Y-111277585D01*
X156975539Y-111587069D01*
X156604036Y-111171268D01*
X156076791Y-110917291D01*
X156061026Y-110914642D01*
X155829000Y-111035783D01*
X155575000Y-111035783D01*
X155342974Y-110914642D01*
X155327209Y-110917291D01*
X154799964Y-111171268D01*
X154428461Y-111587069D01*
X154221670Y-111277585D01*
X153735489Y-110952729D01*
X153162000Y-110838655D01*
X152703297Y-110929897D01*
X152683117Y-110881057D01*
X152420327Y-110617808D01*
X152076799Y-110475162D01*
X151704833Y-110474838D01*
X151361057Y-110616883D01*
X151097808Y-110879673D01*
X151077239Y-110929208D01*
X150622000Y-110838655D01*
X150048511Y-110952729D01*
X149562330Y-111277585D01*
X149352000Y-111592366D01*
X149141670Y-111277585D01*
X148655489Y-110952729D01*
X148082000Y-110838655D01*
X147508511Y-110952729D01*
X147022330Y-111277585D01*
X146812000Y-111592366D01*
X146601670Y-111277585D01*
X146115489Y-110952729D01*
X145542000Y-110838655D01*
X145050000Y-110936520D01*
X145050000Y-110265936D01*
X145227401Y-110147401D01*
X145392148Y-109900839D01*
X145450000Y-109610000D01*
X145450000Y-108722463D01*
X145482192Y-108690327D01*
X145624838Y-108346799D01*
X145625162Y-107974833D01*
X145483117Y-107631057D01*
X145220327Y-107367808D01*
X144876799Y-107225162D01*
X144504833Y-107224838D01*
X144161057Y-107366883D01*
X143897808Y-107629673D01*
X143755162Y-107973201D01*
X143754838Y-108345167D01*
X143896883Y-108688943D01*
X143930000Y-108722118D01*
X143930000Y-109079732D01*
X143786327Y-108935808D01*
X143442799Y-108793162D01*
X143070833Y-108792838D01*
X142727057Y-108934883D01*
X142463808Y-109197673D01*
X142321162Y-109541201D01*
X142321064Y-109654134D01*
X141202599Y-110772599D01*
X141067810Y-110974325D01*
X141035489Y-110952729D01*
X140462000Y-110838655D01*
X139888511Y-110952729D01*
X139402330Y-111277585D01*
X139192000Y-111592366D01*
X138981670Y-111277585D01*
X138495489Y-110952729D01*
X137922000Y-110838655D01*
X137541000Y-110914441D01*
X137541000Y-106865167D01*
X139018838Y-106865167D01*
X139160883Y-107208943D01*
X139423673Y-107472192D01*
X139767201Y-107614838D01*
X140139167Y-107615162D01*
X140482943Y-107473117D01*
X140516118Y-107440000D01*
X142509000Y-107440000D01*
X142799839Y-107382148D01*
X143046401Y-107217401D01*
X143618635Y-106645167D01*
X147754838Y-106645167D01*
X147896883Y-106988943D01*
X148159673Y-107252192D01*
X148478406Y-107384542D01*
X149510926Y-108599272D01*
X149576472Y-108651196D01*
X149632099Y-108713629D01*
X149791539Y-108833991D01*
X149896883Y-109088943D01*
X150159673Y-109352192D01*
X150503201Y-109494838D01*
X150875167Y-109495162D01*
X151218943Y-109353117D01*
X151482192Y-109090327D01*
X151624838Y-108746799D01*
X151625162Y-108374833D01*
X151617095Y-108355310D01*
X151682192Y-108290327D01*
X151824838Y-107946799D01*
X151825162Y-107574833D01*
X151683117Y-107231057D01*
X151420327Y-106967808D01*
X151076799Y-106825162D01*
X151029923Y-106825121D01*
X150268020Y-106063218D01*
X150274838Y-106046799D01*
X150275162Y-105674833D01*
X150133117Y-105331057D01*
X149870327Y-105067808D01*
X149526799Y-104925162D01*
X149154833Y-104924838D01*
X148811057Y-105066883D01*
X148547808Y-105329673D01*
X148458885Y-105543823D01*
X148161057Y-105666883D01*
X147897808Y-105929673D01*
X147755162Y-106273201D01*
X147754838Y-106645167D01*
X143618635Y-106645167D01*
X145713401Y-104550401D01*
X145743606Y-104505196D01*
X145983802Y-104265000D01*
X149418198Y-104265000D01*
X149449599Y-104296401D01*
X149696160Y-104461148D01*
X149987000Y-104519000D01*
X150876000Y-104519000D01*
X151166839Y-104461148D01*
X151413401Y-104296401D01*
X151578148Y-104049839D01*
X151624429Y-103817167D01*
X151972838Y-103817167D01*
X152114883Y-104160943D01*
X152145360Y-104191474D01*
X152130008Y-107456426D01*
X152130355Y-107458215D01*
X152130000Y-107460000D01*
X152153342Y-107577347D01*
X152167614Y-107696130D01*
X152181209Y-107720305D01*
X152186492Y-107747534D01*
X152187497Y-107749053D01*
X152187852Y-107750839D01*
X152254321Y-107850318D01*
X152312965Y-107954601D01*
X152594407Y-108282949D01*
X152596883Y-108288943D01*
X152859673Y-108552192D01*
X153203201Y-108694838D01*
X153575167Y-108695162D01*
X153918943Y-108553117D01*
X153972932Y-108499222D01*
X154203201Y-108594838D01*
X154575167Y-108595162D01*
X154918943Y-108453117D01*
X154923708Y-108448361D01*
X154970144Y-108517858D01*
X155305923Y-108742217D01*
X155702000Y-108821002D01*
X156098077Y-108742217D01*
X156433856Y-108517858D01*
X156658215Y-108182079D01*
X156737000Y-107786002D01*
X156737000Y-105595167D01*
X162404838Y-105595167D01*
X162546883Y-105938943D01*
X162809673Y-106202192D01*
X163153201Y-106344838D01*
X163248548Y-106344921D01*
X163349161Y-106412148D01*
X163640000Y-106470000D01*
X165647036Y-106470000D01*
X165804922Y-106648937D01*
X165804838Y-106745167D01*
X165946883Y-107088943D01*
X166209673Y-107352192D01*
X166553201Y-107494838D01*
X166925167Y-107495162D01*
X167268943Y-107353117D01*
X167532192Y-107090327D01*
X167674838Y-106746799D01*
X167675162Y-106374833D01*
X167533117Y-106031057D01*
X167339248Y-105836849D01*
X167698167Y-105837162D01*
X168041943Y-105695117D01*
X168305192Y-105432327D01*
X168447838Y-105088799D01*
X168448162Y-104716833D01*
X168306117Y-104373057D01*
X168273000Y-104339882D01*
X168273000Y-104067463D01*
X168305192Y-104035327D01*
X168447838Y-103691799D01*
X168448162Y-103319833D01*
X168306117Y-102976057D01*
X168043327Y-102712808D01*
X167699799Y-102570162D01*
X167327833Y-102569838D01*
X166984057Y-102711883D01*
X166720808Y-102974673D01*
X166578162Y-103318201D01*
X166577838Y-103690167D01*
X166719883Y-104033943D01*
X166753000Y-104067118D01*
X166753000Y-104339537D01*
X166720808Y-104371673D01*
X166578162Y-104715201D01*
X166577838Y-105087167D01*
X166686907Y-105351135D01*
X166559877Y-105207168D01*
X166540758Y-105192590D01*
X166527401Y-105172599D01*
X166423468Y-105103153D01*
X166324072Y-105027362D01*
X166300830Y-105021210D01*
X166280839Y-105007852D01*
X166158241Y-104983466D01*
X166037407Y-104951480D01*
X166013580Y-104954690D01*
X165990000Y-104950000D01*
X164161604Y-104950000D01*
X164133117Y-104881057D01*
X163870327Y-104617808D01*
X163526799Y-104475162D01*
X163154833Y-104474838D01*
X162811057Y-104616883D01*
X162547808Y-104879673D01*
X162405162Y-105223201D01*
X162404838Y-105595167D01*
X156737000Y-105595167D01*
X156737000Y-105156005D01*
X156737001Y-105156000D01*
X156658215Y-104759922D01*
X156529417Y-104567162D01*
X156433856Y-104424144D01*
X156433853Y-104424142D01*
X156179856Y-104170144D01*
X155844077Y-103945785D01*
X155448000Y-103866999D01*
X155051923Y-103945785D01*
X154716144Y-104170144D01*
X154491785Y-104505923D01*
X154445865Y-104736775D01*
X154200327Y-104490808D01*
X153856799Y-104348162D01*
X153664642Y-104347995D01*
X153665352Y-104197107D01*
X153700192Y-104162327D01*
X153842838Y-103818799D01*
X153843162Y-103446833D01*
X153701117Y-103103057D01*
X153438327Y-102839808D01*
X153094799Y-102697162D01*
X152722833Y-102696838D01*
X152379057Y-102838883D01*
X152115808Y-103101673D01*
X151973162Y-103445201D01*
X151972838Y-103817167D01*
X151624429Y-103817167D01*
X151636000Y-103759000D01*
X151636000Y-101092000D01*
X151578148Y-100801161D01*
X151413401Y-100554599D01*
X151303122Y-100444320D01*
X151303162Y-100398833D01*
X151161117Y-100055057D01*
X150898327Y-99791808D01*
X150554799Y-99649162D01*
X150182833Y-99648838D01*
X149859629Y-99782383D01*
X149538799Y-99649162D01*
X149491923Y-99649121D01*
X149381401Y-99538599D01*
X149134839Y-99373852D01*
X148844000Y-99316000D01*
X146231463Y-99316000D01*
X146199327Y-99283808D01*
X145855799Y-99141162D01*
X145483833Y-99140838D01*
X145140057Y-99282883D01*
X144876808Y-99545673D01*
X144734162Y-99889201D01*
X144734121Y-99936077D01*
X144577101Y-100093097D01*
X144362161Y-100135852D01*
X144115599Y-100300599D01*
X143950852Y-100547161D01*
X143893000Y-100838000D01*
X143893000Y-102688537D01*
X143860808Y-102720673D01*
X143718162Y-103064201D01*
X143717838Y-103436167D01*
X143859883Y-103779943D01*
X144096862Y-104017336D01*
X142194198Y-105920000D01*
X140516463Y-105920000D01*
X140484327Y-105887808D01*
X140140799Y-105745162D01*
X139768833Y-105744838D01*
X139425057Y-105886883D01*
X139161808Y-106149673D01*
X139019162Y-106493201D01*
X139018838Y-106865167D01*
X137541000Y-106865167D01*
X137541000Y-100965000D01*
X143002000Y-100965000D01*
X143051410Y-100954994D01*
X143093035Y-100926553D01*
X143120315Y-100884159D01*
X143129000Y-100838000D01*
X143129000Y-100349001D01*
X143525077Y-100270215D01*
X143860856Y-100045856D01*
X143987853Y-99918858D01*
X143987856Y-99918856D01*
X144212215Y-99583077D01*
X144225436Y-99516611D01*
X144291001Y-99187000D01*
X144291000Y-99186995D01*
X144291000Y-98298000D01*
X152126999Y-98298000D01*
X152127000Y-98298005D01*
X152127000Y-99949000D01*
X152205785Y-100345077D01*
X152430144Y-100680856D01*
X152765923Y-100905215D01*
X152856952Y-100923322D01*
X153019923Y-101032215D01*
X153416000Y-101111000D01*
X153812077Y-101032215D01*
X154147856Y-100807856D01*
X154351525Y-100503041D01*
X154490167Y-100503162D01*
X154833943Y-100361117D01*
X155097192Y-100098327D01*
X155239838Y-99754799D01*
X155240162Y-99382833D01*
X155098117Y-99039057D01*
X155065000Y-99005882D01*
X155065000Y-98991167D01*
X158068838Y-98991167D01*
X158210883Y-99334943D01*
X158473673Y-99598192D01*
X158817201Y-99740838D01*
X159189167Y-99741162D01*
X159532943Y-99599117D01*
X159566118Y-99566000D01*
X160594198Y-99566000D01*
X160784000Y-99755802D01*
X160784000Y-101164537D01*
X160751808Y-101196673D01*
X160609162Y-101540201D01*
X160608838Y-101912167D01*
X160750883Y-102255943D01*
X161013673Y-102519192D01*
X161357201Y-102661838D01*
X161729167Y-102662162D01*
X162072943Y-102520117D01*
X162336192Y-102257327D01*
X162478838Y-101913799D01*
X162479162Y-101541833D01*
X162337117Y-101198057D01*
X162304000Y-101164882D01*
X162304000Y-99441000D01*
X162246148Y-99150161D01*
X162081401Y-98903599D01*
X161626400Y-98448598D01*
X161716838Y-98230799D01*
X161717162Y-97858833D01*
X161575117Y-97515057D01*
X161312327Y-97251808D01*
X160968799Y-97109162D01*
X160596833Y-97108838D01*
X160253057Y-97250883D01*
X160233529Y-97270377D01*
X159966288Y-97263850D01*
X159920327Y-97217808D01*
X159576799Y-97075162D01*
X159204833Y-97074838D01*
X158861057Y-97216883D01*
X158597808Y-97479673D01*
X158455162Y-97823201D01*
X158454979Y-98032926D01*
X158211808Y-98275673D01*
X158069162Y-98619201D01*
X158068838Y-98991167D01*
X155065000Y-98991167D01*
X155065000Y-98899072D01*
X155214943Y-98837117D01*
X155478192Y-98574327D01*
X155620838Y-98230799D01*
X155621162Y-97858833D01*
X155479117Y-97515057D01*
X155216327Y-97251808D01*
X154872799Y-97109162D01*
X154500833Y-97108838D01*
X154449813Y-97129919D01*
X154401855Y-97058145D01*
X154066077Y-96833786D01*
X153670000Y-96755000D01*
X153273922Y-96833786D01*
X152938144Y-97058145D01*
X152430144Y-97566144D01*
X152205785Y-97901923D01*
X152126999Y-98298000D01*
X144291000Y-98298000D01*
X144291000Y-95904000D01*
X145542000Y-95904000D01*
X145938077Y-95825215D01*
X146273856Y-95600856D01*
X146498215Y-95265077D01*
X146577000Y-94869000D01*
X168275000Y-94869000D01*
X168275000Y-100838000D01*
M02*
