M48
;DRILL file {KiCad 4.0.4+e1-6308~48~ubuntu16.04.1-stable} date Thu Sep  1 17:55:31 2016
;FORMAT={-:-/ absolute / metric / decimal}
FMAT,2
METRIC,TZ
T1C0.400
T2C0.500
T3C0.550
T4C0.700
T5C0.800
T6C1.016
%
G90
G05
M71
T1
X138.34Y-106.21
X139.954Y-106.68
X140.99Y-122.11
X141.09Y-101.11
X141.49Y-103.06
X143.09Y-127.51
X143.129Y-99.314
X143.256Y-109.728
X143.44Y-124.36
X143.49Y-115.26
X143.69Y-120.86
X144.04Y-135.91
X144.34Y-115.51
X144.653Y-103.251
X144.69Y-108.16
X145.034Y-96.266
X145.415Y-102.616
X145.542Y-94.869
X145.542Y-101.219
X145.669Y-100.076
X145.84Y-127.71
X145.99Y-140.31
X146.05Y-108.458
X146.74Y-119.71
X146.89Y-124.41
X147.49Y-120.86
X148.69Y-106.46
X149.04Y-115.81
X149.34Y-105.86
X149.352Y-100.584
X149.84Y-116.51
X149.89Y-119.81
X149.987Y-101.6
X149.987Y-102.87
X150.368Y-100.584
X150.69Y-108.56
X150.89Y-107.76
X151.89Y-111.41
X151.89Y-113.31
X151.94Y-131.11
X152.908Y-103.632
X153.09Y-130.61
X153.39Y-107.76
X153.416Y-100.076
X153.67Y-97.79
X153.67Y-105.283
X153.74Y-130.61
X154.305Y-99.568
X154.305Y-136.652
X154.39Y-107.66
X154.44Y-130.66
X154.49Y-134.26
X154.686Y-98.044
X155.448Y-104.902
X155.54Y-134.06
X155.702Y-107.786
X156.14Y-140.81
X156.84Y-115.61
X157.226Y-136.652
X157.24Y-116.41
X157.44Y-121.46
X157.54Y-128.26
X158.14Y-113.81
X158.19Y-127.56
X158.242Y-99.568
X158.39Y-118.16
X158.39Y-119.31
X158.64Y-109.81
X159.004Y-98.806
X159.39Y-98.01
X159.54Y-111.26
X159.54Y-113.71
X159.59Y-135.66
X159.89Y-136.61
X160.782Y-98.044
X161.544Y-101.727
X161.59Y-128.56
X161.94Y-129.31
X162.04Y-122.21
X162.306Y-96.266
X162.44Y-128.66
X162.74Y-119.16
X162.79Y-117.91
X162.814Y-101.854
X163.34Y-105.41
X163.39Y-124.46
X163.49Y-135.66
X163.54Y-127.51
X163.625Y-119.245
X164.19Y-128.01
X164.49Y-135.96
X164.69Y-124.51
X164.89Y-127.51
X165.19Y-137.26
X165.69Y-118.06
X165.79Y-124.51
X166.74Y-106.56
X166.94Y-124.46
X167.14Y-114.26
X167.513Y-103.505
X167.513Y-104.902
X167.79Y-119.51
X169.44Y-127.06
X169.69Y-114.31
X169.74Y-120.01
X170.79Y-122.21
X170.79Y-128.36
X170.89Y-121.21
X172.19Y-124.76
X172.72Y-108.712
T4
X139.29Y-126.06
X139.29Y-128.06
T5
X153.49Y-118.919
X153.49Y-123.801
T6
X137.922Y-112.522
X137.922Y-132.334
X140.462Y-112.522
X140.462Y-132.334
X143.002Y-112.522
X143.002Y-132.334
X145.542Y-112.522
X145.542Y-132.334
X148.082Y-112.522
X148.082Y-132.334
X150.622Y-112.522
X150.622Y-132.334
X153.162Y-112.522
X153.162Y-132.334
X155.702Y-112.522
X155.702Y-132.334
X158.242Y-112.522
X158.242Y-132.334
X160.782Y-112.522
X160.782Y-132.334
X163.322Y-112.522
X163.322Y-132.334
X165.862Y-112.522
X165.862Y-132.334
X168.402Y-112.522
X168.402Y-132.334
X170.942Y-112.522
X170.942Y-132.334
X173.482Y-112.522
X173.482Y-132.334
T2
X160.289Y-141.922G85X160.289Y-141.272
G05
X167.289Y-141.922G85X167.289Y-141.272
G05
T3
X161.139Y-138.897G85X161.439Y-138.897
G05
X166.139Y-138.897G85X166.439Y-138.897
G05
T0
M30
