G04 #@! TF.FileFunction,Legend,Top*
%FSLAX46Y46*%
G04 Gerber Fmt 4.6, Leading zero omitted, Abs format (unit mm)*
G04 Created by KiCad (PCBNEW 4.0.3+e1-6302~38~ubuntu14.04.1-stable) date Wed Aug 31 17:21:32 2016*
%MOMM*%
%LPD*%
G01*
G04 APERTURE LIST*
%ADD10C,0.100000*%
%ADD11C,0.200000*%
%ADD12C,0.150000*%
%ADD13C,0.152400*%
G04 APERTURE END LIST*
D10*
D11*
X153942381Y-141698095D02*
X153466190Y-142031429D01*
X153942381Y-142269524D02*
X152942381Y-142269524D01*
X152942381Y-141888571D01*
X152990000Y-141793333D01*
X153037619Y-141745714D01*
X153132857Y-141698095D01*
X153275714Y-141698095D01*
X153370952Y-141745714D01*
X153418571Y-141793333D01*
X153466190Y-141888571D01*
X153466190Y-142269524D01*
X153894762Y-140888571D02*
X153942381Y-140983809D01*
X153942381Y-141174286D01*
X153894762Y-141269524D01*
X153799524Y-141317143D01*
X153418571Y-141317143D01*
X153323333Y-141269524D01*
X153275714Y-141174286D01*
X153275714Y-140983809D01*
X153323333Y-140888571D01*
X153418571Y-140840952D01*
X153513810Y-140840952D01*
X153609048Y-141317143D01*
X153894762Y-140460000D02*
X153942381Y-140364762D01*
X153942381Y-140174286D01*
X153894762Y-140079047D01*
X153799524Y-140031428D01*
X153751905Y-140031428D01*
X153656667Y-140079047D01*
X153609048Y-140174286D01*
X153609048Y-140317143D01*
X153561429Y-140412381D01*
X153466190Y-140460000D01*
X153418571Y-140460000D01*
X153323333Y-140412381D01*
X153275714Y-140317143D01*
X153275714Y-140174286D01*
X153323333Y-140079047D01*
X153894762Y-139221904D02*
X153942381Y-139317142D01*
X153942381Y-139507619D01*
X153894762Y-139602857D01*
X153799524Y-139650476D01*
X153418571Y-139650476D01*
X153323333Y-139602857D01*
X153275714Y-139507619D01*
X153275714Y-139317142D01*
X153323333Y-139221904D01*
X153418571Y-139174285D01*
X153513810Y-139174285D01*
X153609048Y-139650476D01*
X153275714Y-138888571D02*
X153275714Y-138507619D01*
X152942381Y-138745714D02*
X153799524Y-138745714D01*
X153894762Y-138698095D01*
X153942381Y-138602857D01*
X153942381Y-138507619D01*
X148368571Y-141888571D02*
X148368571Y-142221905D01*
X148892381Y-142221905D02*
X147892381Y-142221905D01*
X147892381Y-141745714D01*
X148892381Y-141221905D02*
X148844762Y-141317143D01*
X148749524Y-141364762D01*
X147892381Y-141364762D01*
X148892381Y-140412380D02*
X148368571Y-140412380D01*
X148273333Y-140459999D01*
X148225714Y-140555237D01*
X148225714Y-140745714D01*
X148273333Y-140840952D01*
X148844762Y-140412380D02*
X148892381Y-140507618D01*
X148892381Y-140745714D01*
X148844762Y-140840952D01*
X148749524Y-140888571D01*
X148654286Y-140888571D01*
X148559048Y-140840952D01*
X148511429Y-140745714D01*
X148511429Y-140507618D01*
X148463810Y-140412380D01*
X148844762Y-139983809D02*
X148892381Y-139888571D01*
X148892381Y-139698095D01*
X148844762Y-139602856D01*
X148749524Y-139555237D01*
X148701905Y-139555237D01*
X148606667Y-139602856D01*
X148559048Y-139698095D01*
X148559048Y-139840952D01*
X148511429Y-139936190D01*
X148416190Y-139983809D01*
X148368571Y-139983809D01*
X148273333Y-139936190D01*
X148225714Y-139840952D01*
X148225714Y-139698095D01*
X148273333Y-139602856D01*
X148892381Y-139126666D02*
X147892381Y-139126666D01*
X148892381Y-138698094D02*
X148368571Y-138698094D01*
X148273333Y-138745713D01*
X148225714Y-138840951D01*
X148225714Y-138983809D01*
X148273333Y-139079047D01*
X148320952Y-139126666D01*
X157099524Y-110612381D02*
X156528095Y-110612381D01*
X156813809Y-110612381D02*
X156813809Y-109612381D01*
X156718571Y-109755238D01*
X156623333Y-109850476D01*
X156528095Y-109898095D01*
X157956667Y-109612381D02*
X157766190Y-109612381D01*
X157670952Y-109660000D01*
X157623333Y-109707619D01*
X157528095Y-109850476D01*
X157480476Y-110040952D01*
X157480476Y-110421905D01*
X157528095Y-110517143D01*
X157575714Y-110564762D01*
X157670952Y-110612381D01*
X157861429Y-110612381D01*
X157956667Y-110564762D01*
X158004286Y-110517143D01*
X158051905Y-110421905D01*
X158051905Y-110183810D01*
X158004286Y-110088571D01*
X157956667Y-110040952D01*
X157861429Y-109993333D01*
X157670952Y-109993333D01*
X157575714Y-110040952D01*
X157528095Y-110088571D01*
X157480476Y-110183810D01*
X158670952Y-109612381D02*
X158766191Y-109612381D01*
X158861429Y-109660000D01*
X158909048Y-109707619D01*
X158956667Y-109802857D01*
X159004286Y-109993333D01*
X159004286Y-110231429D01*
X158956667Y-110421905D01*
X158909048Y-110517143D01*
X158861429Y-110564762D01*
X158766191Y-110612381D01*
X158670952Y-110612381D01*
X158575714Y-110564762D01*
X158528095Y-110517143D01*
X158480476Y-110421905D01*
X158432857Y-110231429D01*
X158432857Y-109993333D01*
X158480476Y-109802857D01*
X158528095Y-109707619D01*
X158575714Y-109660000D01*
X158670952Y-109612381D01*
X159575714Y-110040952D02*
X159480476Y-109993333D01*
X159432857Y-109945714D01*
X159385238Y-109850476D01*
X159385238Y-109802857D01*
X159432857Y-109707619D01*
X159480476Y-109660000D01*
X159575714Y-109612381D01*
X159766191Y-109612381D01*
X159861429Y-109660000D01*
X159909048Y-109707619D01*
X159956667Y-109802857D01*
X159956667Y-109850476D01*
X159909048Y-109945714D01*
X159861429Y-109993333D01*
X159766191Y-110040952D01*
X159575714Y-110040952D01*
X159480476Y-110088571D01*
X159432857Y-110136190D01*
X159385238Y-110231429D01*
X159385238Y-110421905D01*
X159432857Y-110517143D01*
X159480476Y-110564762D01*
X159575714Y-110612381D01*
X159766191Y-110612381D01*
X159861429Y-110564762D01*
X159909048Y-110517143D01*
X159956667Y-110421905D01*
X159956667Y-110231429D01*
X159909048Y-110136190D01*
X159861429Y-110088571D01*
X159766191Y-110040952D01*
X160290000Y-109612381D02*
X160909048Y-109612381D01*
X160575714Y-109993333D01*
X160718572Y-109993333D01*
X160813810Y-110040952D01*
X160861429Y-110088571D01*
X160909048Y-110183810D01*
X160909048Y-110421905D01*
X160861429Y-110517143D01*
X160813810Y-110564762D01*
X160718572Y-110612381D01*
X160432857Y-110612381D01*
X160337619Y-110564762D01*
X160290000Y-110517143D01*
X161528095Y-109612381D02*
X161623334Y-109612381D01*
X161718572Y-109660000D01*
X161766191Y-109707619D01*
X161813810Y-109802857D01*
X161861429Y-109993333D01*
X161861429Y-110231429D01*
X161813810Y-110421905D01*
X161766191Y-110517143D01*
X161718572Y-110564762D01*
X161623334Y-110612381D01*
X161528095Y-110612381D01*
X161432857Y-110564762D01*
X161385238Y-110517143D01*
X161337619Y-110421905D01*
X161290000Y-110231429D01*
X161290000Y-109993333D01*
X161337619Y-109802857D01*
X161385238Y-109707619D01*
X161432857Y-109660000D01*
X161528095Y-109612381D01*
X162051905Y-110707619D02*
X162813810Y-110707619D01*
X163575715Y-110612381D02*
X163004286Y-110612381D01*
X163290000Y-110612381D02*
X163290000Y-109612381D01*
X163194762Y-109755238D01*
X163099524Y-109850476D01*
X163004286Y-109898095D01*
X163909048Y-109612381D02*
X164575715Y-109612381D01*
X164147143Y-110612381D01*
X165480477Y-110612381D02*
X164909048Y-110612381D01*
X165194762Y-110612381D02*
X165194762Y-109612381D01*
X165099524Y-109755238D01*
X165004286Y-109850476D01*
X164909048Y-109898095D01*
X165813810Y-109612381D02*
X166480477Y-109612381D01*
X166051905Y-110612381D01*
X166861429Y-110231429D02*
X167623334Y-110231429D01*
X168004286Y-109945714D02*
X168194762Y-110612381D01*
X168385239Y-110136190D01*
X168575715Y-110612381D01*
X168766191Y-109945714D01*
X169147143Y-110612381D02*
X169147143Y-109945714D01*
X169147143Y-110136190D02*
X169194762Y-110040952D01*
X169242381Y-109993333D01*
X169337619Y-109945714D01*
X169432858Y-109945714D01*
X169956667Y-109612381D02*
X170051906Y-109612381D01*
X170147144Y-109660000D01*
X170194763Y-109707619D01*
X170242382Y-109802857D01*
X170290001Y-109993333D01*
X170290001Y-110231429D01*
X170242382Y-110421905D01*
X170194763Y-110517143D01*
X170147144Y-110564762D01*
X170051906Y-110612381D01*
X169956667Y-110612381D01*
X169861429Y-110564762D01*
X169813810Y-110517143D01*
X169766191Y-110421905D01*
X169718572Y-110231429D01*
X169718572Y-109993333D01*
X169766191Y-109802857D01*
X169813810Y-109707619D01*
X169861429Y-109660000D01*
X169956667Y-109612381D01*
X170670953Y-109707619D02*
X170718572Y-109660000D01*
X170813810Y-109612381D01*
X171051906Y-109612381D01*
X171147144Y-109660000D01*
X171194763Y-109707619D01*
X171242382Y-109802857D01*
X171242382Y-109898095D01*
X171194763Y-110040952D01*
X170623334Y-110612381D01*
X171242382Y-110612381D01*
X171623334Y-110564762D02*
X171718572Y-110612381D01*
X171909048Y-110612381D01*
X172004287Y-110564762D01*
X172051906Y-110469524D01*
X172051906Y-110421905D01*
X172004287Y-110326667D01*
X171909048Y-110279048D01*
X171766191Y-110279048D01*
X171670953Y-110231429D01*
X171623334Y-110136190D01*
X171623334Y-110088571D01*
X171670953Y-109993333D01*
X171766191Y-109945714D01*
X171909048Y-109945714D01*
X172004287Y-109993333D01*
X172909049Y-110612381D02*
X172909049Y-109612381D01*
X172909049Y-110564762D02*
X172813811Y-110612381D01*
X172623334Y-110612381D01*
X172528096Y-110564762D01*
X172480477Y-110517143D01*
X172432858Y-110421905D01*
X172432858Y-110136190D01*
X172480477Y-110040952D01*
X172528096Y-109993333D01*
X172623334Y-109945714D01*
X172813811Y-109945714D01*
X172909049Y-109993333D01*
X173385239Y-110231429D02*
X174147144Y-110231429D01*
X174575715Y-110326667D02*
X175051906Y-110326667D01*
X174480477Y-110612381D02*
X174813810Y-109612381D01*
X175147144Y-110612381D01*
X167273927Y-135412381D02*
X167398927Y-134412381D01*
X167642976Y-135126667D01*
X168065594Y-134412381D01*
X167940594Y-135412381D01*
X168845356Y-135412381D02*
X168910833Y-134888571D01*
X168875118Y-134793333D01*
X168785833Y-134745714D01*
X168595356Y-134745714D01*
X168494165Y-134793333D01*
X168851309Y-135364762D02*
X168750118Y-135412381D01*
X168512022Y-135412381D01*
X168422737Y-135364762D01*
X168387023Y-135269524D01*
X168398927Y-135174286D01*
X168458451Y-135079048D01*
X168559641Y-135031429D01*
X168797737Y-135031429D01*
X168898928Y-134983810D01*
X169309642Y-134745714D02*
X169833452Y-134745714D01*
X169226308Y-135412381D01*
X169750118Y-135412381D01*
X170119166Y-134745714D02*
X170642976Y-134745714D01*
X170035832Y-135412381D01*
X170559642Y-135412381D01*
X171369166Y-135412381D02*
X171434643Y-134888571D01*
X171398928Y-134793333D01*
X171309643Y-134745714D01*
X171119166Y-134745714D01*
X171017975Y-134793333D01*
X171375119Y-135364762D02*
X171273928Y-135412381D01*
X171035832Y-135412381D01*
X170946547Y-135364762D01*
X170910833Y-135269524D01*
X170922737Y-135174286D01*
X170982261Y-135079048D01*
X171083451Y-135031429D01*
X171321547Y-135031429D01*
X171422738Y-134983810D01*
X172279881Y-135364762D02*
X172178690Y-135412381D01*
X171988213Y-135412381D01*
X171898928Y-135364762D01*
X171857261Y-135317143D01*
X171821547Y-135221905D01*
X171857261Y-134936190D01*
X171916785Y-134840952D01*
X171970356Y-134793333D01*
X172071547Y-134745714D01*
X172262024Y-134745714D01*
X172351309Y-134793333D01*
X172702499Y-135412381D02*
X172785833Y-134745714D01*
X172762023Y-134936190D02*
X172821547Y-134840952D01*
X172875118Y-134793333D01*
X172976309Y-134745714D01*
X173071548Y-134745714D01*
X173750119Y-135412381D02*
X173815596Y-134888571D01*
X173779881Y-134793333D01*
X173690596Y-134745714D01*
X173500119Y-134745714D01*
X173398928Y-134793333D01*
X173756072Y-135364762D02*
X173654881Y-135412381D01*
X173416785Y-135412381D01*
X173327500Y-135364762D01*
X173291786Y-135269524D01*
X173303690Y-135174286D01*
X173363214Y-135079048D01*
X173464404Y-135031429D01*
X173702500Y-135031429D01*
X173803691Y-134983810D01*
X174166786Y-134745714D02*
X174547738Y-134745714D01*
X174226309Y-135412381D02*
X174333452Y-134555238D01*
X174392976Y-134460000D01*
X174494166Y-134412381D01*
X174589404Y-134412381D01*
X174738215Y-134745714D02*
X175119167Y-134745714D01*
X174922738Y-134412381D02*
X174815596Y-135269524D01*
X174851310Y-135364762D01*
X174940595Y-135412381D01*
X175035833Y-135412381D01*
D12*
X152489240Y-116661000D02*
X152890560Y-116460340D01*
X152890560Y-116460340D02*
X153490000Y-116358740D01*
X153490000Y-116358740D02*
X153990380Y-116460340D01*
X153990380Y-116460340D02*
X154688880Y-116859120D01*
X154688880Y-116859120D02*
X155090200Y-117461100D01*
X155090200Y-117461100D02*
X155290860Y-118060540D01*
X155290860Y-118060540D02*
X155290860Y-124659460D01*
X155290860Y-124659460D02*
X155090200Y-125360500D01*
X155090200Y-125360500D02*
X154790480Y-125759280D01*
X154790480Y-125759280D02*
X154290100Y-126160600D01*
X154290100Y-126160600D02*
X153690660Y-126361260D01*
X153690660Y-126361260D02*
X153190280Y-126361260D01*
X153190280Y-126361260D02*
X152689900Y-126160600D01*
X152689900Y-126160600D02*
X152090460Y-125660220D01*
X152090460Y-125660220D02*
X151790740Y-125159840D01*
X151790740Y-125159840D02*
X151689140Y-124659460D01*
X151689140Y-124560400D02*
X151689140Y-117958940D01*
X151689140Y-117958940D02*
X151790740Y-117560160D01*
X151790740Y-117560160D02*
X152090460Y-117059780D01*
X152090460Y-117059780D02*
X152590840Y-116559400D01*
X151160820Y-124550240D02*
X151209080Y-125009980D01*
X151209080Y-125009980D02*
X151320840Y-125408760D01*
X151320840Y-125408760D02*
X151539280Y-125840560D01*
X151539280Y-125840560D02*
X151770420Y-126130120D01*
X151770420Y-126130120D02*
X152120940Y-126460320D01*
X152120940Y-126460320D02*
X152659420Y-126749880D01*
X152659420Y-126749880D02*
X153258860Y-126879420D01*
X153258860Y-126879420D02*
X153769400Y-126879420D01*
X153769400Y-126879420D02*
X154470440Y-126709240D01*
X154470440Y-126709240D02*
X155059720Y-126310460D01*
X155059720Y-126310460D02*
X155430560Y-125850720D01*
X155430560Y-125850720D02*
X155638840Y-125429080D01*
X155638840Y-125429080D02*
X155798860Y-124979500D01*
X155798860Y-124979500D02*
X155829340Y-124540080D01*
X155610900Y-117199480D02*
X155389920Y-116821020D01*
X155389920Y-116821020D02*
X155110520Y-116500980D01*
X155110520Y-116500980D02*
X154780320Y-116249520D01*
X154780320Y-116249520D02*
X154229140Y-115949800D01*
X154229140Y-115949800D02*
X153759240Y-115840580D01*
X153759240Y-115840580D02*
X153299500Y-115820260D01*
X153299500Y-115820260D02*
X152839760Y-115909160D01*
X152839760Y-115909160D02*
X152390180Y-116099660D01*
X152390180Y-116099660D02*
X151920280Y-116460340D01*
X151920280Y-116460340D02*
X151600240Y-116810860D01*
X151600240Y-116810860D02*
X151369100Y-117199480D01*
X151369100Y-117199480D02*
X151229400Y-117628740D01*
X151229400Y-117628740D02*
X151160820Y-118070700D01*
X155819180Y-124560400D02*
X155819180Y-118108800D01*
X155819180Y-118108800D02*
X155781080Y-117689700D01*
X155781080Y-117689700D02*
X155610900Y-117199480D01*
X151160820Y-124560400D02*
X151160820Y-118108800D01*
X145640000Y-137185000D02*
X147640000Y-137185000D01*
X147640000Y-134235000D02*
X145640000Y-134235000D01*
X156840000Y-123385000D02*
X156840000Y-123635000D01*
X156040000Y-123635000D02*
X156040000Y-123385000D01*
X156040000Y-119335000D02*
X156040000Y-119085000D01*
X156840000Y-119085000D02*
X156840000Y-119335000D01*
X164040000Y-117035000D02*
X162040000Y-117035000D01*
X162040000Y-119085000D02*
X164040000Y-119085000D01*
X169647000Y-125247200D02*
X169647000Y-126872800D01*
X172390200Y-126872800D02*
X172390200Y-125247200D01*
X172390200Y-125247200D02*
X169189800Y-125247200D01*
X169189800Y-125247200D02*
X169189800Y-126872800D01*
X169189800Y-126872800D02*
X172390200Y-126872800D01*
X138140000Y-123435000D02*
X140140000Y-123435000D01*
X140140000Y-121385000D02*
X138140000Y-121385000D01*
X168415000Y-121760000D02*
X168415000Y-123760000D01*
X170465000Y-123760000D02*
X170465000Y-121760000D01*
X143205200Y-97917000D02*
X144830800Y-97917000D01*
X144830800Y-95173800D02*
X143205200Y-95173800D01*
X143205200Y-95173800D02*
X143205200Y-98374200D01*
X143205200Y-98374200D02*
X144830800Y-98374200D01*
X144830800Y-98374200D02*
X144830800Y-95173800D01*
X154852000Y-135898000D02*
X154852000Y-136898000D01*
X156552000Y-136898000D02*
X156552000Y-135898000D01*
X145490000Y-120960000D02*
X137190000Y-120960000D01*
X137190000Y-114560000D02*
X145490000Y-114560000D01*
X136490000Y-124110000D02*
X140990000Y-124110000D01*
X140990000Y-124110000D02*
X140990000Y-130010000D01*
X140990000Y-130010000D02*
X136490000Y-130010000D01*
X136490000Y-130010000D02*
X136490000Y-124110000D01*
X140990000Y-126560000D02*
X140490000Y-126560000D01*
X140490000Y-126560000D02*
X140490000Y-124610000D01*
X140490000Y-124610000D02*
X136990000Y-124610000D01*
X136990000Y-124610000D02*
X136990000Y-129510000D01*
X136990000Y-129510000D02*
X140490000Y-129510000D01*
X140490000Y-129510000D02*
X140490000Y-127560000D01*
X140490000Y-127560000D02*
X140990000Y-127560000D01*
X139790000Y-124110000D02*
X139790000Y-124610000D01*
X138490000Y-124110000D02*
X138490000Y-124610000D01*
X139790000Y-129510000D02*
X139790000Y-130010000D01*
X138490000Y-129510000D02*
X138490000Y-130010000D01*
X140990000Y-125760000D02*
X141190000Y-125760000D01*
X141190000Y-125760000D02*
X141190000Y-125460000D01*
X141190000Y-125460000D02*
X140990000Y-125460000D01*
X141090000Y-125760000D02*
X141090000Y-125460000D01*
X136990000Y-126960000D02*
X137490000Y-126960000D01*
X137490000Y-126960000D02*
X137490000Y-127160000D01*
X137490000Y-127160000D02*
X136990000Y-127160000D01*
X136990000Y-127060000D02*
X137490000Y-127060000D01*
X139188000Y-108949000D02*
X138688000Y-108949000D01*
X138688000Y-109999000D02*
X139188000Y-109999000D01*
X139188000Y-106917000D02*
X138688000Y-106917000D01*
X138688000Y-107967000D02*
X139188000Y-107967000D01*
X143117000Y-100398000D02*
X142887000Y-100398000D01*
X142887000Y-101278000D02*
X143117000Y-101278000D01*
X142887000Y-103310000D02*
X143117000Y-103310000D01*
X143117000Y-102430000D02*
X142887000Y-102430000D01*
X143117000Y-104462000D02*
X142887000Y-104462000D01*
X142887000Y-105342000D02*
X143117000Y-105342000D01*
X143117000Y-106494000D02*
X142887000Y-106494000D01*
X142887000Y-107374000D02*
X143117000Y-107374000D01*
X143117000Y-108526000D02*
X142887000Y-108526000D01*
X142887000Y-109406000D02*
X143117000Y-109406000D01*
X151062000Y-136513000D02*
X151062000Y-136283000D01*
X150182000Y-136283000D02*
X150182000Y-136513000D01*
X152722000Y-135267000D02*
X152722000Y-135497000D01*
X153602000Y-135497000D02*
X153602000Y-135267000D01*
X146800000Y-140462000D02*
G75*
G03X146800000Y-140462000I-750000J0D01*
G01*
X147150000Y-142112000D02*
X147450000Y-142112000D01*
X147450000Y-142112000D02*
X147450000Y-138812000D01*
X147450000Y-138812000D02*
X147150000Y-138812000D01*
X144950000Y-142112000D02*
X144650000Y-142112000D01*
X144650000Y-142112000D02*
X144650000Y-138812000D01*
X144650000Y-138812000D02*
X144950000Y-138812000D01*
X151880000Y-140462000D02*
G75*
G03X151880000Y-140462000I-750000J0D01*
G01*
X152230000Y-142112000D02*
X152530000Y-142112000D01*
X152530000Y-142112000D02*
X152530000Y-138812000D01*
X152530000Y-138812000D02*
X152230000Y-138812000D01*
X150030000Y-142112000D02*
X149730000Y-142112000D01*
X149730000Y-142112000D02*
X149730000Y-138812000D01*
X149730000Y-138812000D02*
X150030000Y-138812000D01*
X168065000Y-121235000D02*
X168040000Y-121235000D01*
X168065000Y-125385000D02*
X167960000Y-125385000D01*
X157915000Y-125385000D02*
X158020000Y-125385000D01*
X157915000Y-121235000D02*
X158020000Y-121235000D01*
X168065000Y-121235000D02*
X168065000Y-125385000D01*
X157915000Y-121235000D02*
X157915000Y-125385000D01*
X168040000Y-121235000D02*
X168040000Y-119860000D01*
X141934000Y-127434000D02*
X141934000Y-130482000D01*
X141934000Y-130482000D02*
X149046000Y-130482000D01*
X149046000Y-130482000D02*
X149046000Y-127434000D01*
X141934000Y-124386000D02*
X141934000Y-123624000D01*
X141934000Y-123624000D02*
X143458000Y-121338000D01*
X143458000Y-121338000D02*
X147522000Y-121338000D01*
X147522000Y-121338000D02*
X149046000Y-123624000D01*
X149046000Y-123624000D02*
X149046000Y-124386000D01*
D13*
X147066000Y-88265000D02*
X147066000Y-94450000D01*
X165049200Y-107850000D02*
X165049200Y-108229400D01*
X147066000Y-107850000D02*
X147066000Y-108229400D01*
X165049200Y-88265000D02*
X165049200Y-94450000D01*
X147066000Y-108267500D02*
X165049200Y-108267500D01*
X165036500Y-88265000D02*
X147066000Y-88265000D01*
D12*
X158971100Y-144279460D02*
X167671100Y-144279460D01*
X158971100Y-137874460D02*
X167671100Y-137874460D01*
X167671100Y-137874460D02*
X167671100Y-144279460D01*
X167671100Y-143049460D02*
X158971100Y-143049460D01*
X158971100Y-144279460D02*
X158971100Y-137874460D01*
X152913809Y-127686190D02*
X152913809Y-128162381D01*
X152580476Y-127162381D02*
X152913809Y-127686190D01*
X153247143Y-127162381D01*
X154104286Y-128162381D02*
X153532857Y-128162381D01*
X153818571Y-128162381D02*
X153818571Y-127162381D01*
X153723333Y-127305238D01*
X153628095Y-127400476D01*
X153532857Y-127448095D01*
X143173334Y-135367143D02*
X143125715Y-135414762D01*
X142982858Y-135462381D01*
X142887620Y-135462381D01*
X142744762Y-135414762D01*
X142649524Y-135319524D01*
X142601905Y-135224286D01*
X142554286Y-135033810D01*
X142554286Y-134890952D01*
X142601905Y-134700476D01*
X142649524Y-134605238D01*
X142744762Y-134510000D01*
X142887620Y-134462381D01*
X142982858Y-134462381D01*
X143125715Y-134510000D01*
X143173334Y-134557619D01*
X143506667Y-134462381D02*
X144173334Y-134462381D01*
X143744762Y-135462381D01*
X156747143Y-122226666D02*
X156794762Y-122274285D01*
X156842381Y-122417142D01*
X156842381Y-122512380D01*
X156794762Y-122655238D01*
X156699524Y-122750476D01*
X156604286Y-122798095D01*
X156413810Y-122845714D01*
X156270952Y-122845714D01*
X156080476Y-122798095D01*
X155985238Y-122750476D01*
X155890000Y-122655238D01*
X155842381Y-122512380D01*
X155842381Y-122417142D01*
X155890000Y-122274285D01*
X155937619Y-122226666D01*
X156842381Y-121274285D02*
X156842381Y-121845714D01*
X156842381Y-121560000D02*
X155842381Y-121560000D01*
X155985238Y-121655238D01*
X156080476Y-121750476D01*
X156128095Y-121845714D01*
X156747143Y-117776666D02*
X156794762Y-117824285D01*
X156842381Y-117967142D01*
X156842381Y-118062380D01*
X156794762Y-118205238D01*
X156699524Y-118300476D01*
X156604286Y-118348095D01*
X156413810Y-118395714D01*
X156270952Y-118395714D01*
X156080476Y-118348095D01*
X155985238Y-118300476D01*
X155890000Y-118205238D01*
X155842381Y-118062380D01*
X155842381Y-117967142D01*
X155890000Y-117824285D01*
X155937619Y-117776666D01*
X155937619Y-117395714D02*
X155890000Y-117348095D01*
X155842381Y-117252857D01*
X155842381Y-117014761D01*
X155890000Y-116919523D01*
X155937619Y-116871904D01*
X156032857Y-116824285D01*
X156128095Y-116824285D01*
X156270952Y-116871904D01*
X156842381Y-117443333D01*
X156842381Y-116824285D01*
X162873334Y-116667143D02*
X162825715Y-116714762D01*
X162682858Y-116762381D01*
X162587620Y-116762381D01*
X162444762Y-116714762D01*
X162349524Y-116619524D01*
X162301905Y-116524286D01*
X162254286Y-116333810D01*
X162254286Y-116190952D01*
X162301905Y-116000476D01*
X162349524Y-115905238D01*
X162444762Y-115810000D01*
X162587620Y-115762381D01*
X162682858Y-115762381D01*
X162825715Y-115810000D01*
X162873334Y-115857619D01*
X163206667Y-115762381D02*
X163825715Y-115762381D01*
X163492381Y-116143333D01*
X163635239Y-116143333D01*
X163730477Y-116190952D01*
X163778096Y-116238571D01*
X163825715Y-116333810D01*
X163825715Y-116571905D01*
X163778096Y-116667143D01*
X163730477Y-116714762D01*
X163635239Y-116762381D01*
X163349524Y-116762381D01*
X163254286Y-116714762D01*
X163206667Y-116667143D01*
X170623334Y-128117143D02*
X170575715Y-128164762D01*
X170432858Y-128212381D01*
X170337620Y-128212381D01*
X170194762Y-128164762D01*
X170099524Y-128069524D01*
X170051905Y-127974286D01*
X170004286Y-127783810D01*
X170004286Y-127640952D01*
X170051905Y-127450476D01*
X170099524Y-127355238D01*
X170194762Y-127260000D01*
X170337620Y-127212381D01*
X170432858Y-127212381D01*
X170575715Y-127260000D01*
X170623334Y-127307619D01*
X171480477Y-127545714D02*
X171480477Y-128212381D01*
X171242381Y-127164762D02*
X171004286Y-127879048D01*
X171623334Y-127879048D01*
X142497143Y-122626666D02*
X142544762Y-122674285D01*
X142592381Y-122817142D01*
X142592381Y-122912380D01*
X142544762Y-123055238D01*
X142449524Y-123150476D01*
X142354286Y-123198095D01*
X142163810Y-123245714D01*
X142020952Y-123245714D01*
X141830476Y-123198095D01*
X141735238Y-123150476D01*
X141640000Y-123055238D01*
X141592381Y-122912380D01*
X141592381Y-122817142D01*
X141640000Y-122674285D01*
X141687619Y-122626666D01*
X141592381Y-121721904D02*
X141592381Y-122198095D01*
X142068571Y-122245714D01*
X142020952Y-122198095D01*
X141973333Y-122102857D01*
X141973333Y-121864761D01*
X142020952Y-121769523D01*
X142068571Y-121721904D01*
X142163810Y-121674285D01*
X142401905Y-121674285D01*
X142497143Y-121721904D01*
X142544762Y-121769523D01*
X142592381Y-121864761D01*
X142592381Y-122102857D01*
X142544762Y-122198095D01*
X142497143Y-122245714D01*
X171697143Y-122926666D02*
X171744762Y-122974285D01*
X171792381Y-123117142D01*
X171792381Y-123212380D01*
X171744762Y-123355238D01*
X171649524Y-123450476D01*
X171554286Y-123498095D01*
X171363810Y-123545714D01*
X171220952Y-123545714D01*
X171030476Y-123498095D01*
X170935238Y-123450476D01*
X170840000Y-123355238D01*
X170792381Y-123212380D01*
X170792381Y-123117142D01*
X170840000Y-122974285D01*
X170887619Y-122926666D01*
X170792381Y-122069523D02*
X170792381Y-122260000D01*
X170840000Y-122355238D01*
X170887619Y-122402857D01*
X171030476Y-122498095D01*
X171220952Y-122545714D01*
X171601905Y-122545714D01*
X171697143Y-122498095D01*
X171744762Y-122450476D01*
X171792381Y-122355238D01*
X171792381Y-122164761D01*
X171744762Y-122069523D01*
X171697143Y-122021904D01*
X171601905Y-121974285D01*
X171363810Y-121974285D01*
X171268571Y-122021904D01*
X171220952Y-122069523D01*
X171173333Y-122164761D01*
X171173333Y-122355238D01*
X171220952Y-122450476D01*
X171268571Y-122498095D01*
X171363810Y-122545714D01*
X145847143Y-96926666D02*
X145894762Y-96974285D01*
X145942381Y-97117142D01*
X145942381Y-97212380D01*
X145894762Y-97355238D01*
X145799524Y-97450476D01*
X145704286Y-97498095D01*
X145513810Y-97545714D01*
X145370952Y-97545714D01*
X145180476Y-97498095D01*
X145085238Y-97450476D01*
X144990000Y-97355238D01*
X144942381Y-97212380D01*
X144942381Y-97117142D01*
X144990000Y-96974285D01*
X145037619Y-96926666D01*
X145370952Y-96355238D02*
X145323333Y-96450476D01*
X145275714Y-96498095D01*
X145180476Y-96545714D01*
X145132857Y-96545714D01*
X145037619Y-96498095D01*
X144990000Y-96450476D01*
X144942381Y-96355238D01*
X144942381Y-96164761D01*
X144990000Y-96069523D01*
X145037619Y-96021904D01*
X145132857Y-95974285D01*
X145180476Y-95974285D01*
X145275714Y-96021904D01*
X145323333Y-96069523D01*
X145370952Y-96164761D01*
X145370952Y-96355238D01*
X145418571Y-96450476D01*
X145466190Y-96498095D01*
X145561429Y-96545714D01*
X145751905Y-96545714D01*
X145847143Y-96498095D01*
X145894762Y-96450476D01*
X145942381Y-96355238D01*
X145942381Y-96164761D01*
X145894762Y-96069523D01*
X145847143Y-96021904D01*
X145751905Y-95974285D01*
X145561429Y-95974285D01*
X145466190Y-96021904D01*
X145418571Y-96069523D01*
X145370952Y-96164761D01*
X155535334Y-139295143D02*
X155487715Y-139342762D01*
X155344858Y-139390381D01*
X155249620Y-139390381D01*
X155106762Y-139342762D01*
X155011524Y-139247524D01*
X154963905Y-139152286D01*
X154916286Y-138961810D01*
X154916286Y-138818952D01*
X154963905Y-138628476D01*
X155011524Y-138533238D01*
X155106762Y-138438000D01*
X155249620Y-138390381D01*
X155344858Y-138390381D01*
X155487715Y-138438000D01*
X155535334Y-138485619D01*
X156011524Y-139390381D02*
X156202000Y-139390381D01*
X156297239Y-139342762D01*
X156344858Y-139295143D01*
X156440096Y-139152286D01*
X156487715Y-138961810D01*
X156487715Y-138580857D01*
X156440096Y-138485619D01*
X156392477Y-138438000D01*
X156297239Y-138390381D01*
X156106762Y-138390381D01*
X156011524Y-138438000D01*
X155963905Y-138485619D01*
X155916286Y-138580857D01*
X155916286Y-138818952D01*
X155963905Y-138914190D01*
X156011524Y-138961810D01*
X156106762Y-139009429D01*
X156297239Y-139009429D01*
X156392477Y-138961810D01*
X156440096Y-138914190D01*
X156487715Y-138818952D01*
X148538381Y-118498095D02*
X147538381Y-118498095D01*
X147538381Y-118260000D01*
X147586000Y-118117142D01*
X147681238Y-118021904D01*
X147776476Y-117974285D01*
X147966952Y-117926666D01*
X148109810Y-117926666D01*
X148300286Y-117974285D01*
X148395524Y-118021904D01*
X148490762Y-118117142D01*
X148538381Y-118260000D01*
X148538381Y-118498095D01*
X148538381Y-116974285D02*
X148538381Y-117545714D01*
X148538381Y-117260000D02*
X147538381Y-117260000D01*
X147681238Y-117355238D01*
X147776476Y-117450476D01*
X147824095Y-117545714D01*
X142282381Y-127814095D02*
X141282381Y-127814095D01*
X141282381Y-127433142D01*
X141330000Y-127337904D01*
X141377619Y-127290285D01*
X141472857Y-127242666D01*
X141615714Y-127242666D01*
X141710952Y-127290285D01*
X141758571Y-127337904D01*
X141806190Y-127433142D01*
X141806190Y-127814095D01*
X141615714Y-126385523D02*
X142282381Y-126385523D01*
X141234762Y-126623619D02*
X141949048Y-126861714D01*
X141949048Y-126242666D01*
X140803334Y-110434381D02*
X140470000Y-109958190D01*
X140231905Y-110434381D02*
X140231905Y-109434381D01*
X140612858Y-109434381D01*
X140708096Y-109482000D01*
X140755715Y-109529619D01*
X140803334Y-109624857D01*
X140803334Y-109767714D01*
X140755715Y-109862952D01*
X140708096Y-109910571D01*
X140612858Y-109958190D01*
X140231905Y-109958190D01*
X141755715Y-110434381D02*
X141184286Y-110434381D01*
X141470000Y-110434381D02*
X141470000Y-109434381D01*
X141374762Y-109577238D01*
X141279524Y-109672476D01*
X141184286Y-109720095D01*
X140803334Y-108402381D02*
X140470000Y-107926190D01*
X140231905Y-108402381D02*
X140231905Y-107402381D01*
X140612858Y-107402381D01*
X140708096Y-107450000D01*
X140755715Y-107497619D01*
X140803334Y-107592857D01*
X140803334Y-107735714D01*
X140755715Y-107830952D01*
X140708096Y-107878571D01*
X140612858Y-107926190D01*
X140231905Y-107926190D01*
X141184286Y-107497619D02*
X141231905Y-107450000D01*
X141327143Y-107402381D01*
X141565239Y-107402381D01*
X141660477Y-107450000D01*
X141708096Y-107497619D01*
X141755715Y-107592857D01*
X141755715Y-107688095D01*
X141708096Y-107830952D01*
X141136667Y-108402381D01*
X141755715Y-108402381D01*
X144359334Y-101798381D02*
X144026000Y-101322190D01*
X143787905Y-101798381D02*
X143787905Y-100798381D01*
X144168858Y-100798381D01*
X144264096Y-100846000D01*
X144311715Y-100893619D01*
X144359334Y-100988857D01*
X144359334Y-101131714D01*
X144311715Y-101226952D01*
X144264096Y-101274571D01*
X144168858Y-101322190D01*
X143787905Y-101322190D01*
X144692667Y-100798381D02*
X145311715Y-100798381D01*
X144978381Y-101179333D01*
X145121239Y-101179333D01*
X145216477Y-101226952D01*
X145264096Y-101274571D01*
X145311715Y-101369810D01*
X145311715Y-101607905D01*
X145264096Y-101703143D01*
X145216477Y-101750762D01*
X145121239Y-101798381D01*
X144835524Y-101798381D01*
X144740286Y-101750762D01*
X144692667Y-101703143D01*
X144373334Y-103862381D02*
X144040000Y-103386190D01*
X143801905Y-103862381D02*
X143801905Y-102862381D01*
X144182858Y-102862381D01*
X144278096Y-102910000D01*
X144325715Y-102957619D01*
X144373334Y-103052857D01*
X144373334Y-103195714D01*
X144325715Y-103290952D01*
X144278096Y-103338571D01*
X144182858Y-103386190D01*
X143801905Y-103386190D01*
X145230477Y-103195714D02*
X145230477Y-103862381D01*
X144992381Y-102814762D02*
X144754286Y-103529048D01*
X145373334Y-103529048D01*
X144359334Y-105862381D02*
X144026000Y-105386190D01*
X143787905Y-105862381D02*
X143787905Y-104862381D01*
X144168858Y-104862381D01*
X144264096Y-104910000D01*
X144311715Y-104957619D01*
X144359334Y-105052857D01*
X144359334Y-105195714D01*
X144311715Y-105290952D01*
X144264096Y-105338571D01*
X144168858Y-105386190D01*
X143787905Y-105386190D01*
X145264096Y-104862381D02*
X144787905Y-104862381D01*
X144740286Y-105338571D01*
X144787905Y-105290952D01*
X144883143Y-105243333D01*
X145121239Y-105243333D01*
X145216477Y-105290952D01*
X145264096Y-105338571D01*
X145311715Y-105433810D01*
X145311715Y-105671905D01*
X145264096Y-105767143D01*
X145216477Y-105814762D01*
X145121239Y-105862381D01*
X144883143Y-105862381D01*
X144787905Y-105814762D01*
X144740286Y-105767143D01*
X144359334Y-107894381D02*
X144026000Y-107418190D01*
X143787905Y-107894381D02*
X143787905Y-106894381D01*
X144168858Y-106894381D01*
X144264096Y-106942000D01*
X144311715Y-106989619D01*
X144359334Y-107084857D01*
X144359334Y-107227714D01*
X144311715Y-107322952D01*
X144264096Y-107370571D01*
X144168858Y-107418190D01*
X143787905Y-107418190D01*
X145216477Y-106894381D02*
X145026000Y-106894381D01*
X144930762Y-106942000D01*
X144883143Y-106989619D01*
X144787905Y-107132476D01*
X144740286Y-107322952D01*
X144740286Y-107703905D01*
X144787905Y-107799143D01*
X144835524Y-107846762D01*
X144930762Y-107894381D01*
X145121239Y-107894381D01*
X145216477Y-107846762D01*
X145264096Y-107799143D01*
X145311715Y-107703905D01*
X145311715Y-107465810D01*
X145264096Y-107370571D01*
X145216477Y-107322952D01*
X145121239Y-107275333D01*
X144930762Y-107275333D01*
X144835524Y-107322952D01*
X144787905Y-107370571D01*
X144740286Y-107465810D01*
X144359334Y-109926381D02*
X144026000Y-109450190D01*
X143787905Y-109926381D02*
X143787905Y-108926381D01*
X144168858Y-108926381D01*
X144264096Y-108974000D01*
X144311715Y-109021619D01*
X144359334Y-109116857D01*
X144359334Y-109259714D01*
X144311715Y-109354952D01*
X144264096Y-109402571D01*
X144168858Y-109450190D01*
X143787905Y-109450190D01*
X144692667Y-108926381D02*
X145359334Y-108926381D01*
X144930762Y-109926381D01*
X150455334Y-135326381D02*
X150122000Y-134850190D01*
X149883905Y-135326381D02*
X149883905Y-134326381D01*
X150264858Y-134326381D01*
X150360096Y-134374000D01*
X150407715Y-134421619D01*
X150455334Y-134516857D01*
X150455334Y-134659714D01*
X150407715Y-134754952D01*
X150360096Y-134802571D01*
X150264858Y-134850190D01*
X149883905Y-134850190D01*
X151026762Y-134754952D02*
X150931524Y-134707333D01*
X150883905Y-134659714D01*
X150836286Y-134564476D01*
X150836286Y-134516857D01*
X150883905Y-134421619D01*
X150931524Y-134374000D01*
X151026762Y-134326381D01*
X151217239Y-134326381D01*
X151312477Y-134374000D01*
X151360096Y-134421619D01*
X151407715Y-134516857D01*
X151407715Y-134564476D01*
X151360096Y-134659714D01*
X151312477Y-134707333D01*
X151217239Y-134754952D01*
X151026762Y-134754952D01*
X150931524Y-134802571D01*
X150883905Y-134850190D01*
X150836286Y-134945429D01*
X150836286Y-135135905D01*
X150883905Y-135231143D01*
X150931524Y-135278762D01*
X151026762Y-135326381D01*
X151217239Y-135326381D01*
X151312477Y-135278762D01*
X151360096Y-135231143D01*
X151407715Y-135135905D01*
X151407715Y-134945429D01*
X151360096Y-134850190D01*
X151312477Y-134802571D01*
X151217239Y-134754952D01*
X153023334Y-137212381D02*
X152690000Y-136736190D01*
X152451905Y-137212381D02*
X152451905Y-136212381D01*
X152832858Y-136212381D01*
X152928096Y-136260000D01*
X152975715Y-136307619D01*
X153023334Y-136402857D01*
X153023334Y-136545714D01*
X152975715Y-136640952D01*
X152928096Y-136688571D01*
X152832858Y-136736190D01*
X152451905Y-136736190D01*
X153499524Y-137212381D02*
X153690000Y-137212381D01*
X153785239Y-137164762D01*
X153832858Y-137117143D01*
X153928096Y-136974286D01*
X153975715Y-136783810D01*
X153975715Y-136402857D01*
X153928096Y-136307619D01*
X153880477Y-136260000D01*
X153785239Y-136212381D01*
X153594762Y-136212381D01*
X153499524Y-136260000D01*
X153451905Y-136307619D01*
X153404286Y-136402857D01*
X153404286Y-136640952D01*
X153451905Y-136736190D01*
X153499524Y-136783810D01*
X153594762Y-136831429D01*
X153785239Y-136831429D01*
X153880477Y-136783810D01*
X153928096Y-136736190D01*
X153975715Y-136640952D01*
X144756667Y-140814762D02*
X144899524Y-140862381D01*
X145137620Y-140862381D01*
X145232858Y-140814762D01*
X145280477Y-140767143D01*
X145328096Y-140671905D01*
X145328096Y-140576667D01*
X145280477Y-140481429D01*
X145232858Y-140433810D01*
X145137620Y-140386190D01*
X144947143Y-140338571D01*
X144851905Y-140290952D01*
X144804286Y-140243333D01*
X144756667Y-140148095D01*
X144756667Y-140052857D01*
X144804286Y-139957619D01*
X144851905Y-139910000D01*
X144947143Y-139862381D01*
X145185239Y-139862381D01*
X145328096Y-139910000D01*
X145661429Y-139862381D02*
X145899524Y-140862381D01*
X146090001Y-140148095D01*
X146280477Y-140862381D01*
X146518572Y-139862381D01*
X147423334Y-140862381D02*
X146851905Y-140862381D01*
X147137619Y-140862381D02*
X147137619Y-139862381D01*
X147042381Y-140005238D01*
X146947143Y-140100476D01*
X146851905Y-140148095D01*
X150006667Y-140814762D02*
X150149524Y-140862381D01*
X150387620Y-140862381D01*
X150482858Y-140814762D01*
X150530477Y-140767143D01*
X150578096Y-140671905D01*
X150578096Y-140576667D01*
X150530477Y-140481429D01*
X150482858Y-140433810D01*
X150387620Y-140386190D01*
X150197143Y-140338571D01*
X150101905Y-140290952D01*
X150054286Y-140243333D01*
X150006667Y-140148095D01*
X150006667Y-140052857D01*
X150054286Y-139957619D01*
X150101905Y-139910000D01*
X150197143Y-139862381D01*
X150435239Y-139862381D01*
X150578096Y-139910000D01*
X150911429Y-139862381D02*
X151149524Y-140862381D01*
X151340001Y-140148095D01*
X151530477Y-140862381D01*
X151768572Y-139862381D01*
X152101905Y-139957619D02*
X152149524Y-139910000D01*
X152244762Y-139862381D01*
X152482858Y-139862381D01*
X152578096Y-139910000D01*
X152625715Y-139957619D01*
X152673334Y-140052857D01*
X152673334Y-140148095D01*
X152625715Y-140290952D01*
X152054286Y-140862381D01*
X152673334Y-140862381D01*
X166378095Y-127212381D02*
X166378095Y-128021905D01*
X166425714Y-128117143D01*
X166473333Y-128164762D01*
X166568571Y-128212381D01*
X166759048Y-128212381D01*
X166854286Y-128164762D01*
X166901905Y-128117143D01*
X166949524Y-128021905D01*
X166949524Y-127212381D01*
X167949524Y-128212381D02*
X167378095Y-128212381D01*
X167663809Y-128212381D02*
X167663809Y-127212381D01*
X167568571Y-127355238D01*
X167473333Y-127450476D01*
X167378095Y-127498095D01*
X144728095Y-124600381D02*
X144728095Y-125409905D01*
X144775714Y-125505143D01*
X144823333Y-125552762D01*
X144918571Y-125600381D01*
X145109048Y-125600381D01*
X145204286Y-125552762D01*
X145251905Y-125505143D01*
X145299524Y-125409905D01*
X145299524Y-124600381D01*
X145728095Y-124695619D02*
X145775714Y-124648000D01*
X145870952Y-124600381D01*
X146109048Y-124600381D01*
X146204286Y-124648000D01*
X146251905Y-124695619D01*
X146299524Y-124790857D01*
X146299524Y-124886095D01*
X146251905Y-125028952D01*
X145680476Y-125600381D01*
X146299524Y-125600381D01*
X166678095Y-106712381D02*
X166678095Y-107521905D01*
X166725714Y-107617143D01*
X166773333Y-107664762D01*
X166868571Y-107712381D01*
X167059048Y-107712381D01*
X167154286Y-107664762D01*
X167201905Y-107617143D01*
X167249524Y-107521905D01*
X167249524Y-106712381D01*
X167630476Y-106712381D02*
X168249524Y-106712381D01*
X167916190Y-107093333D01*
X168059048Y-107093333D01*
X168154286Y-107140952D01*
X168201905Y-107188571D01*
X168249524Y-107283810D01*
X168249524Y-107521905D01*
X168201905Y-107617143D01*
X168154286Y-107664762D01*
X168059048Y-107712381D01*
X167773333Y-107712381D01*
X167678095Y-107664762D01*
X167630476Y-107617143D01*
X162583905Y-137464381D02*
X162583905Y-136464381D01*
X162964858Y-136464381D01*
X163060096Y-136512000D01*
X163107715Y-136559619D01*
X163155334Y-136654857D01*
X163155334Y-136797714D01*
X163107715Y-136892952D01*
X163060096Y-136940571D01*
X162964858Y-136988190D01*
X162583905Y-136988190D01*
X163536286Y-136559619D02*
X163583905Y-136512000D01*
X163679143Y-136464381D01*
X163917239Y-136464381D01*
X164012477Y-136512000D01*
X164060096Y-136559619D01*
X164107715Y-136654857D01*
X164107715Y-136750095D01*
X164060096Y-136892952D01*
X163488667Y-137464381D01*
X164107715Y-137464381D01*
M02*
