M48
;DRILL file {KiCad 4.0.3+e1-6302~38~ubuntu14.04.1-stable} date Tue Aug 30 16:59:59 2016
;FORMAT={-:-/ absolute / metric / decimal}
FMAT,2
METRIC,TZ
T1C0.400
T2C0.500
T3C0.550
T4C0.700
T5C0.800
T6C1.016
%
G90
G05
M71
T1
X137.922Y-128.524
X138.938Y-106.426
X139.192Y-134.112
X139.954Y-106.68
X141.859Y-134.112
X141.986Y-128.27
X142.113Y-103.251
X143.129Y-99.314
X143.256Y-109.728
X143.383Y-114.3
X144.272Y-110.236
X144.399Y-131.064
X144.526Y-108.966
X144.653Y-103.251
X145.034Y-96.266
X145.034Y-110.49
X145.288Y-135.001
X145.415Y-102.616
X145.542Y-94.869
X145.542Y-101.219
X145.542Y-130.429
X145.669Y-100.076
X146.05Y-108.458
X146.304Y-125.603
X146.558Y-141.478
X146.812Y-134.874
X147.19Y-126.46
X147.447Y-124.46
X147.99Y-117.26
X148.89Y-114.41
X148.89Y-117.26
X148.99Y-118.31
X149.352Y-100.584
X149.352Y-107.061
X149.69Y-114.06
X149.69Y-116.76
X149.89Y-118.16
X149.987Y-101.6
X149.987Y-102.87
X150.114Y-135.763
X150.34Y-116.21
X150.368Y-100.584
X150.622Y-129.286
X151.003Y-125.857
X151.638Y-136.525
X151.638Y-141.478
X151.79Y-118.91
X151.892Y-133.985
X152.89Y-118.96
X152.908Y-103.632
X153.416Y-100.076
X153.67Y-97.79
X153.67Y-105.283
X154.305Y-99.568
X154.305Y-136.652
X154.432Y-107.823
X154.432Y-130.429
X154.686Y-98.044
X155.067Y-108.458
X155.067Y-109.347
X155.448Y-104.902
X155.702Y-107.786
X156.337Y-116.459
X156.74Y-121.56
X156.845Y-129.667
X156.972Y-110.744
X156.972Y-133.731
X157.226Y-136.652
X157.48Y-118.872
X157.734Y-114.046
X157.734Y-118.11
X157.861Y-129.032
X157.988Y-119.888
X158.19Y-123.21
X158.242Y-99.568
X158.369Y-116.459
X158.64Y-109.81
X159.004Y-98.806
X159.39Y-98.01
X159.54Y-111.26
X159.54Y-113.71
X159.893Y-136.271
X160.59Y-118.56
X160.64Y-130.41
X160.782Y-98.044
X160.782Y-100.076
X161.39Y-109.71
X161.39Y-129.76
X161.544Y-101.727
X162.052Y-105.41
X162.052Y-106.299
X162.052Y-107.696
X162.09Y-118.66
X162.29Y-116.41
X162.306Y-96.266
X162.69Y-109.71
X162.69Y-109.71
X162.74Y-121.56
X162.79Y-123.36
X162.814Y-101.854
X163.14Y-124.21
X163.64Y-129.66
X164.084Y-135.382
X164.09Y-123.76
X164.19Y-116.61
X164.846Y-136.906
X165.09Y-124.61
X165.34Y-116.96
X166.34Y-125.16
X166.69Y-116.26
X166.878Y-105.664
X167.09Y-124.81
X167.513Y-103.505
X167.513Y-104.902
X168.74Y-121.96
X169.89Y-116.21
X170.09Y-121.86
X170.49Y-120.91
X170.54Y-124.81
X171.84Y-125.21
X172.19Y-124.31
X172.72Y-108.712
T4
X139.446Y-125.222
X139.446Y-127.222
T5
X167.099Y-128.06
X171.981Y-128.06
T6
X137.922Y-112.522
X137.922Y-132.334
X140.462Y-112.522
X140.462Y-132.334
X143.002Y-112.522
X143.002Y-132.334
X145.542Y-112.522
X145.542Y-132.334
X148.082Y-112.522
X148.082Y-132.334
X150.622Y-112.522
X150.622Y-132.334
X153.162Y-112.522
X153.162Y-132.334
X155.702Y-112.522
X155.702Y-132.334
X158.242Y-112.522
X158.242Y-132.334
X160.782Y-112.522
X160.782Y-132.334
X163.322Y-112.522
X163.322Y-132.334
X165.862Y-112.522
X165.862Y-132.334
X168.402Y-112.522
X168.402Y-132.334
X170.942Y-112.522
X170.942Y-132.334
X173.482Y-112.522
X173.482Y-132.334
T2
X159.821Y-141.924G85X159.821Y-141.274
G05
X166.821Y-141.924G85X166.821Y-141.274
G05
T3
X160.671Y-138.899G85X160.971Y-138.899
G05
X165.671Y-138.899G85X165.971Y-138.899
G05
T0
M30
