G04 #@! TF.FileFunction,Copper,L1,Top,Signal*
%FSLAX46Y46*%
G04 Gerber Fmt 4.6, Leading zero omitted, Abs format (unit mm)*
G04 Created by KiCad (PCBNEW 4.0.3+e1-6302~38~ubuntu14.04.1-stable) date Wed Aug 31 17:21:32 2016*
%MOMM*%
%LPD*%
G01*
G04 APERTURE LIST*
%ADD10C,0.100000*%
%ADD11C,1.501140*%
%ADD12R,1.000000X2.500000*%
%ADD13R,0.350000X0.300000*%
%ADD14R,1.000000X1.600000*%
%ADD15R,1.950720X1.501140*%
%ADD16R,1.600000X1.000000*%
%ADD17R,1.501140X1.950720*%
%ADD18R,1.250000X1.000000*%
%ADD19R,2.600000X3.200000*%
%ADD20R,1.727200X2.032000*%
%ADD21O,1.727200X2.032000*%
%ADD22R,1.700000X1.200000*%
%ADD23O,1.700000X1.200000*%
%ADD24R,0.400000X0.600000*%
%ADD25R,0.280000X0.430000*%
%ADD26R,0.430000X0.280000*%
%ADD27R,1.700000X0.900000*%
%ADD28R,0.600000X1.500000*%
%ADD29R,3.657600X2.032000*%
%ADD30R,1.016000X2.032000*%
%ADD31O,2.000000X0.900000*%
%ADD32R,2.000000X0.900000*%
%ADD33R,4.300000X4.300000*%
%ADD34R,0.400000X1.350000*%
%ADD35O,1.250000X0.950000*%
%ADD36O,1.000000X1.550000*%
%ADD37C,0.600000*%
%ADD38C,0.250000*%
%ADD39C,0.600000*%
%ADD40C,0.800000*%
%ADD41C,0.300000*%
G04 APERTURE END LIST*
D10*
D11*
X153490000Y-123800940D03*
X153490000Y-118919060D03*
D12*
X148140000Y-135710000D03*
X145140000Y-135710000D03*
D13*
X156440000Y-123785000D03*
X156440000Y-123235000D03*
X156440000Y-118935000D03*
X156440000Y-119485000D03*
D14*
X161540000Y-118060000D03*
X164540000Y-118060000D03*
D15*
X169415860Y-126060000D03*
X172164140Y-126060000D03*
D14*
X140640000Y-122410000D03*
X137640000Y-122410000D03*
D16*
X169440000Y-124260000D03*
X169440000Y-121260000D03*
D17*
X144018000Y-98148140D03*
X144018000Y-95399860D03*
D18*
X155702000Y-137398000D03*
X155702000Y-135398000D03*
D19*
X145590000Y-117760000D03*
X138390000Y-117760000D03*
D20*
X173482000Y-112522000D03*
D21*
X170942000Y-112522000D03*
X168402000Y-112522000D03*
X165862000Y-112522000D03*
X163322000Y-112522000D03*
X160782000Y-112522000D03*
X158242000Y-112522000D03*
X155702000Y-112522000D03*
X153162000Y-112522000D03*
X150622000Y-112522000D03*
X148082000Y-112522000D03*
X145542000Y-112522000D03*
X143002000Y-112522000D03*
X140462000Y-112522000D03*
X137922000Y-112522000D03*
D20*
X173482000Y-132334000D03*
D21*
X170942000Y-132334000D03*
X168402000Y-132334000D03*
X165862000Y-132334000D03*
X163322000Y-132334000D03*
X160782000Y-132334000D03*
X158242000Y-132334000D03*
X155702000Y-132334000D03*
X153162000Y-132334000D03*
X150622000Y-132334000D03*
X148082000Y-132334000D03*
X145542000Y-132334000D03*
X143002000Y-132334000D03*
X140462000Y-132334000D03*
X137922000Y-132334000D03*
D22*
X139290000Y-126060000D03*
D23*
X139290000Y-128060000D03*
D24*
X138488000Y-109474000D03*
X139388000Y-109474000D03*
X138488000Y-107442000D03*
X139388000Y-107442000D03*
D25*
X142747000Y-100838000D03*
X143257000Y-100838000D03*
X143257000Y-102870000D03*
X142747000Y-102870000D03*
X142747000Y-104902000D03*
X143257000Y-104902000D03*
X142747000Y-106934000D03*
X143257000Y-106934000D03*
X142747000Y-108966000D03*
X143257000Y-108966000D03*
D26*
X150622000Y-136143000D03*
X150622000Y-136653000D03*
X153162000Y-135637000D03*
X153162000Y-135127000D03*
D27*
X146050000Y-142162000D03*
X146050000Y-138762000D03*
X151130000Y-142162000D03*
X151130000Y-138762000D03*
D28*
X167435000Y-120610000D03*
X166165000Y-120610000D03*
X164895000Y-120610000D03*
X163625000Y-120610000D03*
X162355000Y-120610000D03*
X161085000Y-120610000D03*
X159815000Y-120610000D03*
X158545000Y-120610000D03*
X158545000Y-126010000D03*
X159815000Y-126010000D03*
X161085000Y-126010000D03*
X162355000Y-126010000D03*
X163625000Y-126010000D03*
X164895000Y-126010000D03*
X166165000Y-126010000D03*
X167435000Y-126010000D03*
D29*
X145490000Y-122608000D03*
D30*
X145490000Y-129212000D03*
X147776000Y-129212000D03*
X143204000Y-129212000D03*
D31*
X165066000Y-107250000D03*
X147066000Y-107250000D03*
D32*
X147066000Y-95250000D03*
D31*
X147066000Y-96750000D03*
X147066000Y-98250000D03*
X147066000Y-99750000D03*
X147066000Y-101250000D03*
X147066000Y-102750000D03*
X147066000Y-104250000D03*
X147066000Y-105750000D03*
X165066000Y-105750000D03*
X165066000Y-104250000D03*
X165066000Y-102750000D03*
X165066000Y-101250000D03*
X165066000Y-99750000D03*
X165066000Y-98250000D03*
X165066000Y-96750000D03*
X165066000Y-95250000D03*
D33*
X157186000Y-101830000D03*
D34*
X162021100Y-138899460D03*
X162671100Y-138899460D03*
X163321100Y-138899460D03*
X163971100Y-138899460D03*
X164621100Y-138899460D03*
D35*
X160821100Y-138899460D03*
X165821100Y-138899460D03*
D36*
X159821100Y-141599460D03*
X166821100Y-141599460D03*
D37*
X156440000Y-122710000D03*
X156440000Y-120360000D03*
X172190000Y-124760000D03*
X167790000Y-119510000D03*
X170890000Y-121210000D03*
X165690000Y-118060000D03*
X151940000Y-131110000D03*
X144040000Y-135910000D03*
X145840000Y-127710000D03*
X140290000Y-123610000D03*
X158640002Y-109810000D03*
X158242000Y-99568000D03*
X142113000Y-103251000D03*
X162814000Y-101854000D03*
X162306000Y-96266000D03*
X145034000Y-96266000D03*
X138938000Y-106426000D03*
X146050000Y-108458000D03*
X146558000Y-141478000D03*
X151638000Y-141478000D03*
X164990000Y-137160000D03*
X170790000Y-128360000D03*
X169440000Y-127060000D03*
X163625000Y-119245000D03*
X162790000Y-117910000D03*
X156840000Y-115610000D03*
X158140000Y-113810000D03*
X149040000Y-115810000D03*
X166940000Y-124460000D03*
X162040000Y-122210000D03*
X155702000Y-107786002D03*
X155448000Y-104902000D03*
X153416000Y-100076000D03*
X153670000Y-97790000D03*
X164490000Y-135960000D03*
X154305000Y-136652000D03*
X157226000Y-136652000D03*
X159890000Y-136610000D03*
X151638000Y-136525000D03*
X150114000Y-135763000D03*
X143129000Y-99314000D03*
X145542000Y-94869000D03*
X143090000Y-127510000D03*
X157240000Y-116410000D03*
X149840000Y-116510000D03*
X154440000Y-130660000D03*
X153740000Y-130610000D03*
X155540000Y-134060000D03*
X153090000Y-130610000D03*
X154490000Y-134260000D03*
X146740000Y-119710000D03*
X149890000Y-119810000D03*
X159540000Y-113710000D03*
X159540000Y-111260000D03*
X172720000Y-108712000D03*
X169740000Y-120010000D03*
X163490000Y-135660000D03*
X159590000Y-135660000D03*
X170790000Y-122210000D03*
X167513000Y-104902000D03*
X167513000Y-103505000D03*
X159004000Y-98806000D03*
X161544000Y-101727000D03*
X163340000Y-105410000D03*
X166740000Y-106560000D03*
X160782000Y-98044000D03*
X159390000Y-98010000D03*
X154686000Y-98044000D03*
X154305000Y-99568000D03*
X150368000Y-100584000D03*
X139954000Y-106680000D03*
X162740000Y-119160000D03*
X163540000Y-127510000D03*
X161940000Y-129310000D03*
X163390000Y-124460000D03*
X165790000Y-124510000D03*
X164890000Y-127510000D03*
X169690000Y-114310000D03*
X167140000Y-114260000D03*
X164690000Y-124510000D03*
X164190000Y-128010000D03*
X145415000Y-102616000D03*
X149987000Y-102870000D03*
X153670000Y-105283000D03*
X154390000Y-107660000D03*
X158390000Y-118160000D03*
X162440000Y-128660000D03*
X158390000Y-119310000D03*
X161590000Y-128560000D03*
X145542000Y-101219000D03*
X149987000Y-101600000D03*
X152908000Y-103632000D03*
X153390000Y-107760000D03*
X151890000Y-113310000D03*
X149352000Y-100584000D03*
X149340000Y-105860000D03*
X150890000Y-107760000D03*
X151890000Y-111410000D03*
X158190000Y-127560000D03*
X144653000Y-103251000D03*
X145669000Y-100076000D03*
X148690000Y-106460000D03*
X150690000Y-108560000D03*
X157540000Y-128260000D03*
X144690000Y-108160000D03*
X144340000Y-115510000D03*
X147490000Y-120860000D03*
X146890000Y-124410000D03*
X143490000Y-115260000D03*
X143690000Y-120860000D03*
X143440000Y-124360000D03*
X143256000Y-109728000D03*
D38*
X159815000Y-122035000D02*
X159815000Y-120610000D01*
X159790000Y-122060000D02*
X159815000Y-122035000D01*
X158690000Y-122710000D02*
X159790000Y-122060000D01*
X156455940Y-123769060D02*
X156890000Y-123760000D01*
X156890000Y-123760000D02*
X158690000Y-122710000D01*
X153490000Y-123800940D02*
X156455940Y-123769060D01*
X153080940Y-123800940D02*
X153490000Y-123800940D01*
X156440000Y-123235000D02*
X156440000Y-122710000D01*
X156440000Y-119485000D02*
X156440000Y-120360000D01*
X172164140Y-126060000D02*
X172164140Y-124785860D01*
X172164140Y-124785860D02*
X172190000Y-124760000D01*
X167435000Y-120610000D02*
X167740000Y-120610000D01*
X167790000Y-120560000D02*
X167790000Y-119510000D01*
X167740000Y-120610000D02*
X167790000Y-120560000D01*
X169440000Y-121260000D02*
X170840000Y-121260000D01*
X170840000Y-121260000D02*
X170890000Y-121210000D01*
X164540000Y-118060000D02*
X165690000Y-118060000D01*
X153162000Y-132334000D02*
X153162000Y-131782000D01*
D39*
X153162000Y-131782000D02*
X151940000Y-131110000D01*
D38*
X172164140Y-126060000D02*
X172164140Y-125885860D01*
X145140000Y-135710000D02*
X144240000Y-135710000D01*
X144240000Y-135710000D02*
X144040000Y-135910000D01*
X145490000Y-129212000D02*
X145490000Y-128060000D01*
X145490000Y-128060000D02*
X145840000Y-127710000D01*
X140640000Y-122410000D02*
X140640000Y-122660000D01*
X140640000Y-122660000D02*
X140290000Y-123610000D01*
X145140000Y-135710000D02*
X144840000Y-135710000D01*
D39*
X160782000Y-112522000D02*
X160782000Y-110652000D01*
X160782000Y-110652000D02*
X159940000Y-109810000D01*
X159940000Y-109810000D02*
X158640002Y-109810000D01*
D38*
X164540000Y-118060000D02*
X164540000Y-118136000D01*
X157186000Y-101830000D02*
X158242000Y-100774000D01*
X158242000Y-100774000D02*
X158242000Y-99568000D01*
X142747000Y-102870000D02*
X142494000Y-102870000D01*
X142494000Y-102870000D02*
X142113000Y-103251000D01*
X165066000Y-102750000D02*
X163710000Y-102750000D01*
X163710000Y-102750000D02*
X162814000Y-101854000D01*
X165066000Y-95250000D02*
X163322000Y-95250000D01*
X163322000Y-95250000D02*
X162306000Y-96266000D01*
X157186000Y-101830000D02*
X157186000Y-103418000D01*
X144018000Y-95399860D02*
X144675860Y-95399860D01*
X144675860Y-95399860D02*
X145034000Y-96266000D01*
X138488000Y-107442000D02*
X138488000Y-106876000D01*
X138488000Y-106876000D02*
X138938000Y-106426000D01*
X147066000Y-107250000D02*
X147066000Y-107442000D01*
X147066000Y-107442000D02*
X146050000Y-108458000D01*
X146050000Y-142162000D02*
X146050000Y-141986000D01*
X146050000Y-141986000D02*
X146558000Y-141478000D01*
X151130000Y-142162000D02*
X151130000Y-141986000D01*
X151130000Y-141986000D02*
X151638000Y-141478000D01*
X164621100Y-138899460D02*
X164640000Y-137460000D01*
X164640000Y-137460000D02*
X164990000Y-137160000D01*
X156440000Y-118935000D02*
X153505940Y-118935000D01*
X153505940Y-118935000D02*
X153490000Y-118919060D01*
X158545000Y-120610000D02*
X158140000Y-120610000D01*
X156940000Y-118910000D02*
X156440000Y-118910000D01*
X157090000Y-119060000D02*
X156940000Y-118910000D01*
X157090000Y-119560000D02*
X157090000Y-119060000D01*
X158140000Y-120610000D02*
X157090000Y-119560000D01*
X156440000Y-118910000D02*
X156430940Y-118919060D01*
X156420000Y-118915000D02*
X156440000Y-118935000D01*
D40*
X170790000Y-128360000D02*
X170890000Y-128460000D01*
X172740000Y-130260000D02*
X172640000Y-130260000D01*
X173482000Y-131002000D02*
X173482000Y-132334000D01*
X173482000Y-131002000D02*
X172740000Y-130260000D01*
X172640000Y-130260000D02*
X170890000Y-128460000D01*
D39*
X162690000Y-118060000D02*
X161540000Y-118060000D01*
X156840000Y-115246842D02*
X158140000Y-113810000D01*
X156840000Y-115710000D02*
X156840000Y-115246842D01*
X156840000Y-115710000D02*
X156840000Y-115610000D01*
X149040000Y-115810000D02*
X149090000Y-115610000D01*
X148990000Y-129212000D02*
X149242000Y-129212000D01*
X148990000Y-115710000D02*
X148990000Y-129212000D01*
X149090000Y-115610000D02*
X148990000Y-115710000D01*
D40*
X163322000Y-112522000D02*
X163322000Y-113328000D01*
X163322000Y-113328000D02*
X161540000Y-115110000D01*
X161540000Y-115110000D02*
X161540000Y-118060000D01*
D38*
X167435000Y-126010000D02*
X167435000Y-124955000D01*
X167435000Y-124955000D02*
X166940000Y-124460000D01*
D39*
X163625000Y-120610000D02*
X163625000Y-119245000D01*
X167435000Y-126010000D02*
X169365860Y-126010000D01*
D38*
X169365860Y-126010000D02*
X169440000Y-125935860D01*
D39*
X169440000Y-125935860D02*
X169440000Y-124260000D01*
X163625000Y-121775000D02*
X163625000Y-120610000D01*
X163290000Y-122110000D02*
X163625000Y-121775000D01*
X162140000Y-122110000D02*
X163290000Y-122110000D01*
X162040000Y-122210000D02*
X162140000Y-122110000D01*
X161540000Y-118060000D02*
X161790000Y-118060000D01*
X147776000Y-129212000D02*
X149242000Y-129212000D01*
X149240000Y-130510000D02*
X150622000Y-132334000D01*
X149242000Y-129212000D02*
X149240000Y-130510000D01*
X148140000Y-135710000D02*
X150061000Y-135710000D01*
X150061000Y-135710000D02*
X150114000Y-135763000D01*
D41*
X169490000Y-126085860D02*
X169258860Y-126317000D01*
D38*
X169594140Y-126190000D02*
X169490000Y-126085860D01*
D39*
X162740000Y-109710000D02*
X161540000Y-108710000D01*
D40*
X157873000Y-107786002D02*
X155702000Y-107786002D01*
X155448000Y-104902000D02*
X154940000Y-104902000D01*
X154940000Y-104902000D02*
X154178000Y-104140000D01*
X154178000Y-104140000D02*
X154178000Y-100838000D01*
X154178000Y-100838000D02*
X153416000Y-100076000D01*
X153670000Y-97790000D02*
X151892000Y-97790000D01*
X151892000Y-97790000D02*
X151511000Y-97790000D01*
X151511000Y-97790000D02*
X149098000Y-95377000D01*
X149098000Y-95377000D02*
X147193000Y-95377000D01*
D39*
X160266002Y-107786002D02*
X157873000Y-107786002D01*
X161540000Y-108710000D02*
X160266002Y-107786002D01*
X162740000Y-109710000D02*
X162708000Y-109678000D01*
D38*
X153162000Y-135637000D02*
X153162000Y-136652000D01*
X154297000Y-136660000D02*
X154305000Y-136652000D01*
X153170000Y-136660000D02*
X154297000Y-136660000D01*
X153162000Y-136652000D02*
X153170000Y-136660000D01*
D40*
X141351000Y-105029000D02*
X140462000Y-104140000D01*
X140462000Y-101473000D02*
X140462000Y-104140000D01*
D38*
X142113000Y-101346000D02*
X142112500Y-101346500D01*
D40*
X142112500Y-101346500D02*
X140589000Y-101346000D01*
X140589000Y-101346000D02*
X140462000Y-101473000D01*
X140462000Y-104140000D02*
X140462000Y-104267000D01*
X171940000Y-135960000D02*
X173490000Y-134760000D01*
X164490000Y-135960000D02*
X171940000Y-135960000D01*
X173482000Y-132334000D02*
X173490000Y-134760000D01*
X159385000Y-136652000D02*
X157226000Y-136652000D01*
X159890000Y-136610000D02*
X159385000Y-136652000D01*
X154305000Y-136652000D02*
X151765000Y-136652000D01*
X151765000Y-136652000D02*
X151638000Y-136525000D01*
X147193000Y-95377000D02*
X147066000Y-95250000D01*
X142113000Y-101346000D02*
X142113500Y-101345500D01*
X142113500Y-101345500D02*
X142113000Y-100203000D01*
D39*
X142113000Y-100203000D02*
X143129000Y-99314000D01*
D38*
X141351000Y-105029000D02*
X141478000Y-104902000D01*
X141478000Y-104902000D02*
X142747000Y-104902000D01*
X141351000Y-106807000D02*
X141478000Y-106934000D01*
X141478000Y-106934000D02*
X142747000Y-106934000D01*
X141351000Y-108458000D02*
X141859000Y-108966000D01*
X142747000Y-100838000D02*
X142113000Y-101346000D01*
D40*
X141351000Y-105029000D02*
X141351000Y-106807000D01*
X141351000Y-106807000D02*
X141351000Y-108458000D01*
D38*
X141859000Y-108966000D02*
X142747000Y-108966000D01*
D40*
X143129000Y-99314000D02*
X142621000Y-99822000D01*
X142621000Y-99822000D02*
X142113000Y-100203000D01*
X142113000Y-100203000D02*
X142113000Y-100331000D01*
D38*
X147066000Y-95250000D02*
X146685000Y-94869000D01*
D40*
X146685000Y-94869000D02*
X145542000Y-94869000D01*
D41*
X143129000Y-99314000D02*
X143129000Y-99037140D01*
X143129000Y-99037140D02*
X144018000Y-98148140D01*
D39*
X163322000Y-112522000D02*
X163322000Y-110236000D01*
X163322000Y-110236000D02*
X162690000Y-109710000D01*
X157840000Y-111060000D02*
X158242000Y-112522000D01*
X157840000Y-107810000D02*
X157840000Y-111060000D01*
D38*
X173482000Y-131445000D02*
X173482000Y-132334000D01*
D40*
X150622000Y-132334000D02*
X150622000Y-134366000D01*
X150622000Y-134366000D02*
X150114000Y-135763000D01*
D38*
X150114000Y-135763000D02*
X150622000Y-136143000D01*
D40*
X147776000Y-128704000D02*
X147776000Y-129212000D01*
D39*
X138390000Y-117760000D02*
X138390000Y-121660000D01*
X138390000Y-121660000D02*
X137640000Y-122410000D01*
X139290000Y-126060000D02*
X139290000Y-124060000D01*
X139290000Y-124060000D02*
X137640000Y-122410000D01*
D38*
X143204000Y-129212000D02*
X143204000Y-127624000D01*
X143204000Y-127624000D02*
X143090000Y-127510000D01*
X137640000Y-122410000D02*
X137640000Y-121878000D01*
X151130000Y-137414000D02*
X155686000Y-137414000D01*
X155686000Y-137414000D02*
X155702000Y-137398000D01*
X150622000Y-136653000D02*
X150622000Y-136906000D01*
X151130000Y-137414000D02*
X151130000Y-138762000D01*
X150622000Y-136906000D02*
X151130000Y-137414000D01*
D39*
X159540000Y-113710000D02*
X159540000Y-113960000D01*
X159540000Y-113960000D02*
X158490000Y-115110000D01*
X158490000Y-115110000D02*
X157315002Y-116410000D01*
X157315002Y-116410000D02*
X157240000Y-116410000D01*
X149840000Y-116510000D02*
X149840000Y-119860000D01*
X149840000Y-119860000D02*
X149890000Y-119810000D01*
D38*
X155540000Y-134060000D02*
X155140000Y-134060000D01*
X155140000Y-134060000D02*
X154440000Y-133360000D01*
X154440000Y-133360000D02*
X154440000Y-130660000D01*
X154490000Y-134260000D02*
X155340000Y-134260000D01*
X155340000Y-134260000D02*
X155540000Y-134060000D01*
D39*
X152990000Y-128960000D02*
X150940000Y-127010000D01*
X152990000Y-130510000D02*
X152990000Y-128960000D01*
X153090000Y-130610000D02*
X152990000Y-130510000D01*
X149890000Y-121660000D02*
X149890000Y-119810000D01*
X149890000Y-125960000D02*
X149890000Y-121660000D01*
X150940000Y-127010000D02*
X149890000Y-125960000D01*
X157480000Y-134239000D02*
X156969000Y-134239000D01*
X156790000Y-134060000D02*
X154790000Y-134060000D01*
D38*
X162021100Y-138145100D02*
X161036000Y-137160000D01*
D39*
X161036000Y-137160000D02*
X161040000Y-135760000D01*
X161040000Y-135760000D02*
X159190000Y-134210000D01*
X159190000Y-134210000D02*
X157480000Y-134239000D01*
D38*
X162021100Y-138899460D02*
X162021100Y-138145100D01*
D39*
X156969000Y-134239000D02*
X156790000Y-134060000D01*
X154790000Y-134060000D02*
X154490000Y-134260000D01*
D40*
X146740000Y-119710000D02*
X145590000Y-119010000D01*
D38*
X145590000Y-119010000D02*
X145590000Y-117760000D01*
X159540000Y-114160000D02*
X159540000Y-113710000D01*
X159540000Y-113710000D02*
X159540000Y-111260000D01*
D39*
X159540000Y-114160000D02*
X159540000Y-113710000D01*
X173482000Y-110363000D02*
X173482000Y-112522000D01*
X172720000Y-108712000D02*
X173482000Y-109601000D01*
X173482000Y-109601000D02*
X173482000Y-110363000D01*
D40*
X145852000Y-118910000D02*
X145852000Y-118960000D01*
D38*
X169640000Y-128560000D02*
X169640000Y-128210000D01*
X169740000Y-120010000D02*
X169740000Y-119460000D01*
X169740000Y-119460000D02*
X168402000Y-117772000D01*
X168402000Y-117772000D02*
X168402000Y-114122000D01*
X168402000Y-112522000D02*
X168402000Y-114122000D01*
X159328000Y-135398000D02*
X155702000Y-135398000D01*
X169040000Y-133910000D02*
X169640000Y-133310000D01*
X165240000Y-133910000D02*
X169040000Y-133910000D01*
X163490000Y-135660000D02*
X165240000Y-133910000D01*
X159328000Y-135398000D02*
X159590000Y-135660000D01*
X170790000Y-127060000D02*
X170790000Y-122210000D01*
X169640000Y-133310000D02*
X169640000Y-128560000D01*
X169640000Y-128210000D02*
X170790000Y-127060000D01*
X153162000Y-135127000D02*
X153323000Y-135127000D01*
X153323000Y-135127000D02*
X153490000Y-134960000D01*
X155702000Y-135398000D02*
X154543000Y-135398000D01*
X153490000Y-134960000D02*
X154105000Y-134960000D01*
X154105000Y-134960000D02*
X154543000Y-135398000D01*
X168402000Y-112522000D02*
X168402000Y-105791000D01*
X168402000Y-105791000D02*
X167513000Y-104902000D01*
X167513000Y-103505000D02*
X167513000Y-100457000D01*
X167513000Y-100457000D02*
X166878000Y-99822000D01*
X166878000Y-99822000D02*
X165138000Y-99822000D01*
X165138000Y-99822000D02*
X165066000Y-99750000D01*
X165862000Y-112522000D02*
X166719570Y-111160353D01*
X148971000Y-96901000D02*
X147217000Y-96901000D01*
X150876000Y-98806000D02*
X148971000Y-96901000D01*
X159004000Y-98806000D02*
X150876000Y-98806000D01*
X161502000Y-101685000D02*
X161544000Y-101727000D01*
X163340000Y-105410000D02*
X161502000Y-103911630D01*
X161502000Y-103911630D02*
X161502000Y-101685000D01*
X166719570Y-111160353D02*
X166740000Y-106560000D01*
X147217000Y-96901000D02*
X147066000Y-96750000D01*
X147066000Y-96750000D02*
X145947000Y-96750000D01*
X145947000Y-96750000D02*
X145542000Y-97155000D01*
X145542000Y-97155000D02*
X145542000Y-99187000D01*
X145542000Y-99187000D02*
X145415000Y-99314000D01*
X145415000Y-99314000D02*
X145288000Y-99314000D01*
X145288000Y-99314000D02*
X143510000Y-101092000D01*
X143510000Y-101092000D02*
X143510000Y-101091000D01*
X143510000Y-101091000D02*
X143257000Y-100838000D01*
X139388000Y-107442000D02*
X139954000Y-106876000D01*
X160782000Y-98044000D02*
X164860000Y-98044000D01*
X154686000Y-98044000D02*
X159390000Y-98010000D01*
X154051000Y-99314000D02*
X154305000Y-99568000D01*
X150803000Y-99314000D02*
X154051000Y-99314000D01*
X150352998Y-99764002D02*
X150803000Y-99314000D01*
X150368000Y-99764002D02*
X150352998Y-99764002D01*
X150368000Y-99822000D02*
X150368000Y-99764002D01*
X150368000Y-100076000D02*
X150368000Y-99822000D01*
X150368000Y-100584000D02*
X150368000Y-100076000D01*
X139954000Y-106876000D02*
X139954000Y-106680000D01*
X164860000Y-98044000D02*
X165066000Y-98250000D01*
D41*
X140462000Y-112522000D02*
X140462000Y-110548000D01*
X140462000Y-110548000D02*
X139388000Y-109474000D01*
X139388000Y-109474000D02*
X139388000Y-107442000D01*
X138488000Y-109474000D02*
X138488000Y-111956000D01*
X138488000Y-111956000D02*
X137922000Y-112522000D01*
D38*
X164590000Y-130860000D02*
X164590000Y-130110000D01*
X163321100Y-138041100D02*
X162290000Y-137010000D01*
X162290000Y-137010000D02*
X162290000Y-134710000D01*
X162290000Y-134710000D02*
X164590000Y-133160000D01*
X164590000Y-133160000D02*
X164590000Y-130860000D01*
X163321100Y-138899460D02*
X163321100Y-138041100D01*
X162355000Y-119545000D02*
X162355000Y-120610000D01*
X162740000Y-119160000D02*
X162355000Y-119545000D01*
X163540000Y-129060000D02*
X163540000Y-127510000D01*
X164590000Y-130110000D02*
X163540000Y-129060000D01*
X161790000Y-133410000D02*
X162040000Y-133160000D01*
X162040000Y-133160000D02*
X162040000Y-129410000D01*
X162040000Y-129410000D02*
X161940000Y-129310000D01*
X163390000Y-124460000D02*
X161090000Y-122210000D01*
X162671100Y-138899460D02*
X162671100Y-138091100D01*
X161790000Y-135410000D02*
X161790000Y-134860000D01*
X161790000Y-137210000D02*
X161790000Y-135410000D01*
X162671100Y-138091100D02*
X161790000Y-137210000D01*
X161790000Y-134860000D02*
X161790000Y-133410000D01*
X161085000Y-122205000D02*
X161085000Y-120610000D01*
X161085000Y-121265000D02*
X161085000Y-120610000D01*
X166165000Y-120610000D02*
X166165000Y-119235000D01*
X167440000Y-106560000D02*
X167440000Y-106110000D01*
X167340000Y-106960000D02*
X167440000Y-106560000D01*
X167340000Y-111760000D02*
X167340000Y-106960000D01*
X167140000Y-111960000D02*
X167340000Y-111760000D01*
X167140000Y-113360000D02*
X167140000Y-111960000D01*
X167940000Y-114160000D02*
X167140000Y-113360000D01*
X167940000Y-117522281D02*
X167940000Y-114160000D01*
X166165000Y-119235000D02*
X167940000Y-117522281D01*
X168402000Y-132334000D02*
X168402000Y-129872000D01*
X166165000Y-124135000D02*
X166165000Y-120610000D01*
X165790000Y-124510000D02*
X166165000Y-124135000D01*
X166040000Y-127510000D02*
X164890000Y-127510000D01*
X168402000Y-129872000D02*
X166040000Y-127510000D01*
X167039747Y-105759999D02*
X165066000Y-105750000D01*
X167440000Y-106110000D02*
X167039747Y-105759999D01*
X167490000Y-106160000D02*
X167440000Y-106110000D01*
X168390000Y-132322000D02*
X168402000Y-132334000D01*
X165025000Y-105791000D02*
X165066000Y-105750000D01*
X169690000Y-110310000D02*
X169690000Y-106010000D01*
X169690000Y-110310000D02*
X169690000Y-114310000D01*
X167930000Y-104250000D02*
X165066000Y-104250000D01*
X169690000Y-106010000D02*
X167930000Y-104250000D01*
X164895000Y-120610000D02*
X164895000Y-119855000D01*
X167190000Y-117560000D02*
X167190000Y-114310000D01*
X164895000Y-119855000D02*
X167190000Y-117560000D01*
X167190000Y-114310000D02*
X167140000Y-114260000D01*
X165862000Y-132334000D02*
X165862000Y-130532000D01*
X164895000Y-124305000D02*
X164895000Y-120610000D01*
X164690000Y-124510000D02*
X164895000Y-124305000D01*
X164190000Y-128860000D02*
X164190000Y-128010000D01*
X165862000Y-130532000D02*
X164190000Y-128860000D01*
X165076000Y-104260000D02*
X165066000Y-104250000D01*
X165083000Y-104267000D02*
X165066000Y-104250000D01*
X151257000Y-102870000D02*
X149987000Y-102870000D01*
X153670000Y-105283000D02*
X151257000Y-102870000D01*
X156190000Y-116538947D02*
X156190000Y-114226667D01*
X156190000Y-114226667D02*
X156940000Y-113560000D01*
X156940000Y-113560000D02*
X156940000Y-110810000D01*
X158390000Y-118160000D02*
X156190000Y-116538947D01*
X163322000Y-129542000D02*
X163322000Y-131328000D01*
X162440000Y-128660000D02*
X163322000Y-129542000D01*
X163322000Y-131328000D02*
X163322000Y-132334000D01*
X156940000Y-110810000D02*
X156940000Y-110760000D01*
X156872010Y-110793004D02*
X156290000Y-109860000D01*
X155840000Y-109260000D02*
X154394000Y-107660000D01*
X156290000Y-109860000D02*
X155840000Y-109260000D01*
X145415000Y-102616000D02*
X143511000Y-102616000D01*
X145415000Y-102616000D02*
X145549000Y-102750000D01*
X163322000Y-132334000D02*
X163322000Y-131328000D01*
X143511000Y-102616000D02*
X143257000Y-102870000D01*
X145549000Y-102750000D02*
X147066000Y-102750000D01*
X156940000Y-118210000D02*
X154440000Y-116410000D01*
X158390000Y-119310000D02*
X156940000Y-118210000D01*
X154440000Y-116460002D02*
X154440000Y-111710000D01*
X154440000Y-116410000D02*
X154440000Y-116460002D01*
X160782000Y-130718000D02*
X160782000Y-132334000D01*
X160782000Y-129368000D02*
X160782000Y-130718000D01*
X161590000Y-128560000D02*
X160782000Y-129368000D01*
X145573000Y-101250000D02*
X147066000Y-101250000D01*
X145542000Y-101219000D02*
X145573000Y-101250000D01*
X150876000Y-101600000D02*
X149987000Y-101600000D01*
X152908000Y-103632000D02*
X150876000Y-101600000D01*
X153227313Y-107760000D02*
X153390000Y-107760000D01*
X154440000Y-111760000D02*
X154408000Y-111740308D01*
X154408000Y-111740308D02*
X154440000Y-111706879D01*
X154440000Y-111706879D02*
X154440000Y-108879305D01*
X154440000Y-108879305D02*
X153227313Y-107760000D01*
X154440000Y-111760000D02*
X154440000Y-111760000D01*
X157840000Y-127610000D02*
X158140000Y-127610000D01*
X153640000Y-127610000D02*
X150990002Y-124960002D01*
X150990002Y-124960002D02*
X150990002Y-114259998D01*
X150990002Y-114259998D02*
X151890000Y-113310000D01*
X149340000Y-105860000D02*
X149352000Y-100584000D01*
X151890000Y-108360000D02*
X150890000Y-107760000D01*
X151890000Y-111410000D02*
X151890000Y-108360000D01*
X157840000Y-127610000D02*
X153640000Y-127610000D01*
X158140000Y-127610000D02*
X158190000Y-127560000D01*
X158242000Y-130660000D02*
X158190000Y-127560000D01*
X158242000Y-132334000D02*
X158242000Y-130660000D01*
X158242000Y-130660000D02*
X158242000Y-130612000D01*
X143257000Y-104902000D02*
X143256000Y-104901000D01*
X143256000Y-104901000D02*
X143256000Y-104521000D01*
X143256000Y-104521000D02*
X143383000Y-104521000D01*
X143383000Y-104521000D02*
X144653000Y-103251000D01*
X145995000Y-99750000D02*
X147066000Y-99750000D01*
X145669000Y-100076000D02*
X145995000Y-99750000D01*
X155702000Y-132334000D02*
X155702000Y-128260000D01*
X155740000Y-128360000D02*
X155740000Y-128260000D01*
X155740000Y-128298000D02*
X155740000Y-128360000D01*
X155702000Y-128260000D02*
X155740000Y-128298000D01*
X150540000Y-115060000D02*
X150540000Y-125410000D01*
X150540000Y-125410000D02*
X153390000Y-128260000D01*
X153390000Y-128260000D02*
X154540000Y-128260000D01*
X148690000Y-99210000D02*
X148690000Y-106460000D01*
X150690000Y-108560000D02*
X149340000Y-110610000D01*
X147730000Y-98250000D02*
X148690000Y-99210000D01*
X149340000Y-113260000D02*
X149340000Y-110610000D01*
X149340000Y-113710000D02*
X149340000Y-113260000D01*
X150540000Y-115060000D02*
X149340000Y-113710000D01*
X154540000Y-128260000D02*
X155740000Y-128260000D01*
X155740000Y-128260000D02*
X157540000Y-128260000D01*
X147066000Y-98250000D02*
X147730000Y-98250000D01*
X147907000Y-98250000D02*
X147066000Y-98250000D01*
X148082000Y-132334000D02*
X148082000Y-131102000D01*
X143890000Y-107860000D02*
X143890000Y-106934000D01*
X144190000Y-108160000D02*
X143890000Y-107860000D01*
X144690000Y-108160000D02*
X144190000Y-108160000D01*
X147090000Y-115510000D02*
X144340000Y-115510000D01*
X147490000Y-115910000D02*
X147090000Y-115510000D01*
X147490000Y-120860000D02*
X147490000Y-115910000D01*
X146740000Y-124560000D02*
X146890000Y-124410000D01*
X146740000Y-130610000D02*
X146740000Y-124560000D01*
X146940000Y-130810000D02*
X146740000Y-130610000D01*
X147790000Y-130810000D02*
X146940000Y-130810000D01*
X148082000Y-131102000D02*
X147790000Y-130810000D01*
X143891000Y-106934000D02*
X143890000Y-106934000D01*
X143890000Y-106934000D02*
X143257000Y-106934000D01*
X144416000Y-104250000D02*
X147066000Y-104250000D01*
X143891000Y-104775000D02*
X144416000Y-104250000D01*
X143891000Y-106934000D02*
X143891000Y-104775000D01*
X144526000Y-108966000D02*
X144018000Y-108966000D01*
X144526000Y-108966000D02*
X145034000Y-108966000D01*
X145034000Y-108966000D02*
X145415000Y-108585000D01*
X145415000Y-108585000D02*
X145415000Y-106553000D01*
X145415000Y-106553000D02*
X145669000Y-106299000D01*
X145669000Y-106299000D02*
X146517000Y-106299000D01*
X147066000Y-105750000D02*
X146517000Y-106299000D01*
X144018000Y-108966000D02*
X143256000Y-109728000D01*
X145542000Y-132334000D02*
X145542000Y-131362000D01*
X145542000Y-131362000D02*
X144990000Y-130810000D01*
X143290000Y-115460000D02*
X143490000Y-115260000D01*
X143290000Y-120460000D02*
X143290000Y-115460000D01*
X143690000Y-120860000D02*
X143290000Y-120460000D01*
X144340000Y-125260000D02*
X143440000Y-124360000D01*
X144340000Y-130510000D02*
X144340000Y-125260000D01*
X144640000Y-130810000D02*
X144340000Y-130510000D01*
X144990000Y-130810000D02*
X144640000Y-130810000D01*
X143257000Y-108966000D02*
X143256000Y-108967000D01*
X143256000Y-108967000D02*
X143256000Y-109728000D01*
X145542000Y-132334000D02*
X145542000Y-131318000D01*
X145669000Y-132461000D02*
X145669000Y-133350000D01*
X146050000Y-133731000D02*
X145669000Y-133350000D01*
X146050000Y-133731000D02*
X146050000Y-138762000D01*
X145669000Y-132461000D02*
X145542000Y-132334000D01*
X150790000Y-106960000D02*
X147290000Y-110460000D01*
X143002000Y-131022000D02*
X142790000Y-130810000D01*
X142790000Y-130810000D02*
X142390000Y-130810000D01*
X142390000Y-130810000D02*
X142090000Y-130510000D01*
X142090000Y-130510000D02*
X142090000Y-124710000D01*
X142090000Y-124710000D02*
X142740000Y-124060000D01*
X142740000Y-124060000D02*
X142790000Y-124010000D01*
X142790000Y-124010000D02*
X142790000Y-114910000D01*
X142790000Y-114910000D02*
X143140000Y-114560000D01*
X143140000Y-114560000D02*
X144040000Y-114560000D01*
X144040000Y-114560000D02*
X144040000Y-114560000D01*
X144040000Y-114560000D02*
X145690000Y-114560000D01*
X145690000Y-114560000D02*
X146790000Y-113460000D01*
X146790000Y-113460000D02*
X146790000Y-110960000D01*
X150790000Y-106960000D02*
X152440000Y-106960000D01*
X152440000Y-106960000D02*
X156140000Y-106960000D01*
X156590000Y-106960000D02*
X156140000Y-106960000D01*
X143002000Y-131022000D02*
X143002000Y-132334000D01*
X147290000Y-110460000D02*
X146790000Y-110960000D01*
X161630000Y-107250000D02*
X165066000Y-107250000D01*
X161190000Y-106960000D02*
X161630000Y-107250000D01*
X159640000Y-106960000D02*
X161190000Y-106960000D01*
X159640000Y-106960000D02*
X159640000Y-106960000D01*
X157240000Y-106960000D02*
X159640000Y-106960000D01*
X156590000Y-106960000D02*
X157240000Y-106960000D01*
X156590000Y-106960000D02*
X156590000Y-106960000D01*
X160640000Y-104410000D02*
X160740000Y-104410000D01*
X145990000Y-111010000D02*
X145390000Y-111010000D01*
X145390000Y-111010000D02*
X144890000Y-111010000D01*
X140462000Y-129538000D02*
X141490000Y-128510000D01*
X141490000Y-128510000D02*
X141490000Y-124560000D01*
X141490000Y-124560000D02*
X141690000Y-124360000D01*
X141690000Y-124360000D02*
X142190000Y-123860000D01*
X142190000Y-123860000D02*
X142290000Y-123760000D01*
X142290000Y-123760000D02*
X142290000Y-114660000D01*
X142290000Y-114660000D02*
X142890000Y-114060000D01*
X142890000Y-114060000D02*
X143790000Y-114060000D01*
X143790000Y-114060000D02*
X143840000Y-114060000D01*
X143840000Y-114060000D02*
X144290000Y-113610000D01*
X144290000Y-113610000D02*
X144290000Y-111610000D01*
X144290000Y-111610000D02*
X144890000Y-111010000D01*
X140462000Y-132334000D02*
X140462000Y-129538000D01*
X160640000Y-104410000D02*
X160640000Y-102960000D01*
X152240000Y-106460000D02*
X158690000Y-106460000D01*
X150540000Y-106460000D02*
X152240000Y-106460000D01*
X150540000Y-106460000D02*
X145990000Y-111010000D01*
X160740000Y-104410000D02*
X158690000Y-106460000D01*
X160990000Y-100960000D02*
X164776000Y-100960000D01*
X160640000Y-101310000D02*
X160990000Y-100960000D01*
X160640000Y-102960000D02*
X160640000Y-101310000D01*
X160640000Y-102960000D02*
X160640000Y-102960000D01*
X164776000Y-100960000D02*
X165066000Y-101250000D01*
X150190000Y-105910000D02*
X145740000Y-110360000D01*
X144740000Y-110360000D02*
X145290000Y-110360000D01*
X150190000Y-105910000D02*
X151990000Y-105910000D01*
X151990000Y-105910000D02*
X155790000Y-105910000D01*
X155790000Y-105910000D02*
X158440000Y-105910000D01*
X145740000Y-110360000D02*
X145290000Y-110360000D01*
X137922000Y-132334000D02*
X137922000Y-129878000D01*
X162900000Y-96750000D02*
X165066000Y-96750000D01*
X162690000Y-96960000D02*
X162900000Y-96750000D01*
X160540000Y-96960000D02*
X162690000Y-96960000D01*
X160090000Y-97410000D02*
X160540000Y-96960000D01*
X160090000Y-102760000D02*
X160090000Y-97410000D01*
X160090000Y-102760000D02*
X160090000Y-102760000D01*
X160090000Y-104210000D02*
X160090000Y-102760000D01*
X158440000Y-105910000D02*
X160090000Y-104260000D01*
X158440000Y-105910000D02*
X158440000Y-105910000D01*
X144740000Y-110360000D02*
X144740000Y-110360000D01*
X142690000Y-110360000D02*
X144740000Y-110360000D01*
X141740000Y-111310000D02*
X142690000Y-110360000D01*
X141740000Y-111360000D02*
X141740000Y-111310000D01*
X141740000Y-119310000D02*
X141740000Y-111360000D01*
X141740000Y-123610000D02*
X141740000Y-119310000D01*
X140990000Y-124360000D02*
X141740000Y-123610000D01*
X140990000Y-128360000D02*
X140990000Y-124360000D01*
X140140000Y-129210000D02*
X140990000Y-128360000D01*
X138590000Y-129210000D02*
X140140000Y-129210000D01*
X137922000Y-129878000D02*
X138590000Y-129210000D01*
M02*
