G04 #@! TF.FileFunction,Copper,L2,Bot,Signal*
%FSLAX46Y46*%
G04 Gerber Fmt 4.6, Leading zero omitted, Abs format (unit mm)*
G04 Created by KiCad (PCBNEW 4.0.3+e1-6302~38~ubuntu14.04.1-stable) date Tue Aug 30 16:59:56 2016*
%MOMM*%
%LPD*%
G01*
G04 APERTURE LIST*
%ADD10C,0.100000*%
%ADD11R,1.727200X2.032000*%
%ADD12O,1.727200X2.032000*%
%ADD13R,1.700000X1.200000*%
%ADD14O,1.700000X1.200000*%
%ADD15O,1.250000X0.950000*%
%ADD16O,1.000000X1.550000*%
%ADD17R,1.200000X0.700000*%
%ADD18R,2.800000X1.000000*%
%ADD19R,1.900000X1.300000*%
%ADD20R,1.200000X1.100000*%
%ADD21R,1.200000X1.000000*%
%ADD22C,1.501140*%
%ADD23C,0.600000*%
%ADD24C,0.250000*%
%ADD25C,0.600000*%
%ADD26C,0.800000*%
%ADD27C,0.254000*%
G04 APERTURE END LIST*
D10*
D11*
X173482000Y-112522000D03*
D12*
X170942000Y-112522000D03*
X168402000Y-112522000D03*
X165862000Y-112522000D03*
X163322000Y-112522000D03*
X160782000Y-112522000D03*
X158242000Y-112522000D03*
X155702000Y-112522000D03*
X153162000Y-112522000D03*
X150622000Y-112522000D03*
X148082000Y-112522000D03*
X145542000Y-112522000D03*
X143002000Y-112522000D03*
X140462000Y-112522000D03*
X137922000Y-112522000D03*
D11*
X173482000Y-132334000D03*
D12*
X170942000Y-132334000D03*
X168402000Y-132334000D03*
X165862000Y-132334000D03*
X163322000Y-132334000D03*
X160782000Y-132334000D03*
X158242000Y-132334000D03*
X155702000Y-132334000D03*
X153162000Y-132334000D03*
X150622000Y-132334000D03*
X148082000Y-132334000D03*
X145542000Y-132334000D03*
X143002000Y-132334000D03*
X140462000Y-132334000D03*
X137922000Y-132334000D03*
D13*
X139446000Y-125222000D03*
D14*
X139446000Y-127222000D03*
D15*
X160821100Y-138899460D03*
X165821100Y-138899460D03*
D16*
X159821100Y-141599460D03*
X166821100Y-141599460D03*
D17*
X159514000Y-118563000D03*
D18*
X173814000Y-115563000D03*
D19*
X174264000Y-129063000D03*
D17*
X159514000Y-117463000D03*
X159514000Y-119663000D03*
X159514000Y-120763000D03*
X159514000Y-121863000D03*
X159514000Y-122963000D03*
X159514000Y-124063000D03*
X159514000Y-125163000D03*
D20*
X159514000Y-126713000D03*
D17*
X159514000Y-116513000D03*
D21*
X164414000Y-115463000D03*
D22*
X167099060Y-128060000D03*
X171980940Y-128060000D03*
D23*
X172190000Y-124310000D03*
X170540000Y-124810000D03*
X158640002Y-109810000D03*
X171840000Y-125210000D03*
X156740000Y-121560000D03*
X158190000Y-123210000D03*
X163640000Y-129660000D03*
X162740000Y-121560000D03*
X146304000Y-125603000D03*
X141986000Y-128270000D03*
X145542000Y-130429000D03*
X141859000Y-134112000D03*
X137922000Y-128524000D03*
X139192000Y-134112000D03*
X158242000Y-99568000D03*
X142113000Y-103251000D03*
X162814000Y-101854000D03*
X162306000Y-96266000D03*
X145034000Y-96266000D03*
X138938000Y-106426000D03*
X146050000Y-108458000D03*
X165090000Y-124610000D03*
X169890000Y-116210000D03*
X162290000Y-116410000D03*
X162090000Y-118660000D03*
X147447000Y-124460000D03*
X151003000Y-125857000D03*
X146558000Y-141478000D03*
X151638000Y-141478000D03*
X164846000Y-136906000D03*
X155702000Y-107786002D03*
X155448000Y-104902000D03*
X153416000Y-100076000D03*
X153670000Y-97790000D03*
X162690000Y-109710000D03*
X161390000Y-109710000D03*
X168740000Y-121960000D03*
X164090000Y-123760000D03*
X159893000Y-136271000D03*
X157226000Y-136652000D03*
X154305000Y-136652000D03*
X151638000Y-136525000D03*
X164084000Y-135382000D03*
X150114000Y-135763000D03*
X143129000Y-99314000D03*
X145542000Y-94869000D03*
X162690000Y-109710000D03*
X165340000Y-116960000D03*
X157988000Y-119888000D03*
X150622000Y-129286000D03*
X158369000Y-116459000D03*
X159540000Y-113710000D03*
X159540000Y-111260000D03*
X172720000Y-108712000D03*
X154432000Y-130429000D03*
X156972000Y-133731000D03*
X156337000Y-116459000D03*
X151892000Y-133985000D03*
X167513000Y-103505000D03*
X167513000Y-104902000D03*
X149890000Y-118160000D03*
X160782000Y-100076000D03*
X154432000Y-107823000D03*
X159004000Y-98806000D03*
X161544000Y-101727000D03*
X162052000Y-105410000D03*
X166878000Y-105664000D03*
X160782000Y-98044000D03*
X159390000Y-98010000D03*
X154686000Y-98044000D03*
X154305000Y-99568000D03*
X150368000Y-100584000D03*
X139954000Y-106680000D03*
X170090000Y-121860000D03*
X163140000Y-124210000D03*
X162790000Y-123360000D03*
X170490000Y-120910000D03*
X167090000Y-124810000D03*
X162052000Y-106299000D03*
X162052000Y-107696000D03*
X164190000Y-116610000D03*
X166690000Y-116260000D03*
X166340000Y-125160000D03*
X157734000Y-118110000D03*
X157734000Y-114046000D03*
X156972000Y-110744000D03*
X155067000Y-108458000D03*
X153670000Y-105283000D03*
X149987000Y-102870000D03*
X145415000Y-102616000D03*
X161390000Y-129760000D03*
X160590000Y-118560000D03*
X145542000Y-101219000D03*
X149987000Y-101600000D03*
X152908000Y-103632000D03*
X155067000Y-109347000D03*
X157480000Y-118872000D03*
X160640000Y-130410000D03*
X149690000Y-114060000D03*
X152890000Y-118960000D03*
X150340000Y-116210000D03*
X149352000Y-100584000D03*
X149352000Y-107061000D03*
X144653000Y-103251000D03*
X145669000Y-100076000D03*
X157861000Y-129032000D03*
X148890000Y-114410000D03*
X145034000Y-110490000D03*
X149690000Y-116760000D03*
X151790000Y-118910000D03*
X156845000Y-129667000D03*
X144399000Y-131064000D03*
X145288000Y-135001000D03*
X146812000Y-134874000D03*
X144272000Y-110236000D03*
X143383000Y-114300000D03*
X147190000Y-126460000D03*
X144526000Y-108966000D03*
X143256000Y-109728000D03*
X148990000Y-118310000D03*
X148890000Y-117260000D03*
X147990000Y-117260000D03*
D24*
X172290000Y-124260000D02*
X170540000Y-124810000D01*
D25*
X158640002Y-109810000D02*
X158640000Y-109810000D01*
X159514000Y-122963000D02*
X158437000Y-122963000D01*
X158437000Y-122963000D02*
X158190000Y-123210000D01*
D24*
X170942000Y-132334000D02*
X170942000Y-134058000D01*
X170942000Y-134058000D02*
X170940000Y-134060000D01*
X170940000Y-134060000D02*
X164590000Y-134060000D01*
X164590000Y-134060000D02*
X164590000Y-131210000D01*
X164590000Y-131210000D02*
X163640000Y-130260000D01*
X163640000Y-130260000D02*
X163640000Y-129660000D01*
X141859000Y-134112000D02*
X139192000Y-134112000D01*
D26*
X155702000Y-107786002D02*
X155702000Y-105156000D01*
X155702000Y-105156000D02*
X155448000Y-104902000D01*
X153416000Y-100076000D02*
X153416000Y-99949000D01*
X153416000Y-99949000D02*
X153162000Y-99949000D01*
X153162000Y-99949000D02*
X153162000Y-98298000D01*
X153162000Y-98298000D02*
X153670000Y-97790000D01*
D25*
X162658000Y-109742000D02*
X161390000Y-109710000D01*
X162658000Y-109742000D02*
X162690000Y-109710000D01*
X166290000Y-121810000D02*
X166090000Y-121810000D01*
X168613000Y-121833000D02*
X166290000Y-121810000D01*
X168740000Y-121960000D02*
X168613000Y-121833000D01*
X166090000Y-121810000D02*
X164090000Y-123760000D01*
X164087391Y-123760015D02*
X164087391Y-123759948D01*
X164090000Y-123760000D02*
X164089985Y-123760015D01*
X164089985Y-123760015D02*
X164087391Y-123760015D01*
D26*
X157226000Y-136652000D02*
X154305000Y-136652000D01*
X159893000Y-136271000D02*
X163068000Y-136271000D01*
X163068000Y-136271000D02*
X164084000Y-135382000D01*
D25*
X151638000Y-136525000D02*
X151638000Y-136519828D01*
X151638000Y-136519828D02*
X151640873Y-136516955D01*
X151640873Y-136516955D02*
X151640873Y-136522127D01*
X151640873Y-136522127D02*
X151638000Y-136525000D01*
X151638000Y-136525000D02*
X151638000Y-136515929D01*
D26*
X151638000Y-136515929D02*
X150114000Y-135763000D01*
X143256000Y-99187000D02*
X143129000Y-99314000D01*
X143256000Y-94869000D02*
X143256000Y-99187000D01*
X145542000Y-94869000D02*
X143256000Y-94869000D01*
D25*
X159514000Y-120763000D02*
X161925000Y-120777000D01*
X163322000Y-119358508D02*
X164338000Y-118999000D01*
X161925000Y-120777000D02*
X163322000Y-119358508D01*
X164338000Y-118999000D02*
X165340000Y-116960000D01*
X157988000Y-119888000D02*
X157988000Y-120523000D01*
X157988000Y-120523000D02*
X158242000Y-120777000D01*
X158242000Y-120777000D02*
X159500000Y-120777000D01*
D24*
X159500000Y-120777000D02*
X159514000Y-120763000D01*
D26*
X150622000Y-132334000D02*
X150622000Y-129286000D01*
D24*
X159540000Y-113710000D02*
X159540000Y-111260000D01*
X159590000Y-111260000D02*
X159540000Y-111260000D01*
D25*
X159717000Y-111133000D02*
X160140000Y-108710000D01*
X160140000Y-108710000D02*
X172720000Y-108712000D01*
D26*
X156972000Y-133731000D02*
X156781500Y-133985000D01*
X156781500Y-133985000D02*
X154686000Y-133985000D01*
X154686000Y-133985000D02*
X154432000Y-133731000D01*
D24*
X154432000Y-133731000D02*
X154432000Y-130556000D01*
D26*
X154432000Y-130556000D02*
X154432000Y-130429000D01*
D25*
X156337000Y-116459000D02*
X156337000Y-116459000D01*
X157607000Y-116459000D02*
X158115000Y-116459000D01*
X156337000Y-116459000D02*
X157607000Y-116459000D01*
D24*
X151892000Y-133960000D02*
X151892000Y-133985000D01*
X151892000Y-133960000D02*
X151892000Y-120142000D01*
X167513000Y-104902000D02*
X167513000Y-103505000D01*
X149890000Y-118460000D02*
X149890000Y-118160000D01*
X149890000Y-118460000D02*
X149890000Y-118460000D01*
X150990000Y-119210000D02*
X149890000Y-118460000D01*
X151892000Y-120142000D02*
X150990000Y-119210000D01*
X159258000Y-101600000D02*
X160782000Y-100076000D01*
X159258000Y-103124000D02*
X159258000Y-101600000D01*
X158496000Y-103886000D02*
X159258000Y-103124000D01*
X155194000Y-103886000D02*
X158496000Y-103886000D01*
X154559000Y-104521000D02*
X155194000Y-103886000D01*
X154559000Y-107696000D02*
X154559000Y-104521000D01*
X154432000Y-107823000D02*
X154559000Y-107696000D01*
X160909000Y-98806000D02*
X159004000Y-98806000D01*
X161544000Y-99441000D02*
X160909000Y-98806000D01*
X161544000Y-101727000D02*
X161544000Y-99441000D01*
X162306000Y-105664000D02*
X162052000Y-105410000D01*
X166878000Y-105664000D02*
X162306000Y-105664000D01*
X159390000Y-98010000D02*
X160782000Y-98044000D01*
X154305000Y-98425000D02*
X154686000Y-98044000D01*
X154305000Y-99568000D02*
X154305000Y-98425000D01*
X150876000Y-101092000D02*
X150368000Y-100584000D01*
X150876000Y-103759000D02*
X150876000Y-101092000D01*
X149987000Y-103759000D02*
X150876000Y-103759000D01*
X149733000Y-103505000D02*
X149987000Y-103759000D01*
X149225000Y-103505000D02*
X149733000Y-103505000D01*
X148971000Y-103505000D02*
X149225000Y-103505000D01*
X145669000Y-103505000D02*
X148971000Y-103505000D01*
X145161000Y-104013000D02*
X145669000Y-103505000D01*
X144526000Y-104013000D02*
X145161000Y-104013000D01*
X141859000Y-106680000D02*
X144526000Y-104013000D01*
X139954000Y-106680000D02*
X141859000Y-106680000D01*
X163140000Y-124210000D02*
X163137000Y-124195000D01*
X170032420Y-121874000D02*
X170090000Y-121860000D01*
X165890000Y-121110000D02*
X169190000Y-121160000D01*
X169190000Y-121160000D02*
X170032420Y-121874000D01*
X163440000Y-123410000D02*
X165890000Y-121110000D01*
X163440000Y-123960000D02*
X163440000Y-123410000D01*
X163137000Y-124195000D02*
X163440000Y-123960000D01*
X163140000Y-124210000D02*
X163267000Y-124083000D01*
X163140000Y-122960000D02*
X165740000Y-120510000D01*
X162790000Y-123360000D02*
X162940000Y-123360000D01*
X162940000Y-123360000D02*
X163140000Y-122960000D01*
X169490000Y-120510000D02*
X170490000Y-120910000D01*
X165740000Y-120510000D02*
X169490000Y-120510000D01*
X167090000Y-124810000D02*
X167090000Y-126360000D01*
X166640000Y-126710000D02*
X165890000Y-127860000D01*
X168402000Y-130937000D02*
X168148000Y-130683000D01*
X168402000Y-130937000D02*
X168402000Y-132334000D01*
X168148000Y-130683000D02*
X166490000Y-130660000D01*
X166490000Y-130660000D02*
X165890000Y-129160000D01*
X165890000Y-129160000D02*
X165890000Y-127860000D01*
X166740000Y-126710000D02*
X166640000Y-126710000D01*
X167090000Y-126360000D02*
X166740000Y-126710000D01*
X162052000Y-107696000D02*
X162052000Y-106299000D01*
X166340000Y-125160000D02*
X166340000Y-126310000D01*
X165862000Y-130810000D02*
X165862000Y-132334000D01*
X165862000Y-130810000D02*
X165290000Y-129410000D01*
X165290000Y-129410000D02*
X165290000Y-127210000D01*
X165440000Y-127210000D02*
X165290000Y-127210000D01*
X166340000Y-126310000D02*
X165440000Y-127210000D01*
X166390000Y-125210000D02*
X166340000Y-125160000D01*
X164440000Y-116310000D02*
X164190000Y-116610000D01*
X166240000Y-116310000D02*
X166690000Y-116260000D01*
X164490000Y-116310000D02*
X166240000Y-116310000D01*
X164490000Y-116310000D02*
X164440000Y-116310000D01*
X166440000Y-125260000D02*
X166340000Y-125160000D01*
X158568000Y-118563000D02*
X157734000Y-118110000D01*
X157734000Y-114046000D02*
X157607000Y-113919000D01*
X157607000Y-113919000D02*
X157607000Y-113919000D01*
X157607000Y-113919000D02*
X156972000Y-113284000D01*
X155067000Y-108458000D02*
X153670000Y-108458000D01*
X153670000Y-108458000D02*
X153670000Y-105283000D01*
X149987000Y-102870000D02*
X149733000Y-102616000D01*
X145415000Y-102616000D02*
X149733000Y-102616000D01*
X158568000Y-118563000D02*
X159514000Y-118563000D01*
X156972000Y-110998000D02*
X156972000Y-113284000D01*
X163322000Y-132334000D02*
X161540000Y-130660000D01*
X161540000Y-130660000D02*
X161517000Y-129760000D01*
X161517000Y-129760000D02*
X161390000Y-129760000D01*
X160590000Y-118560000D02*
X160456000Y-118563000D01*
X160456000Y-118563000D02*
X159514000Y-118563000D01*
X149606000Y-101219000D02*
X145542000Y-101219000D01*
X149987000Y-101600000D02*
X149606000Y-101219000D01*
X152908000Y-108458000D02*
X152908000Y-103632000D01*
X153543000Y-109093000D02*
X152908000Y-108458000D01*
X154813000Y-109093000D02*
X153543000Y-109093000D01*
X155067000Y-109347000D02*
X154813000Y-109093000D01*
X160782000Y-132334000D02*
X160790000Y-131060000D01*
X158779000Y-119663000D02*
X159514000Y-119663000D01*
X157988000Y-118872000D02*
X158779000Y-119663000D01*
X157480000Y-118872000D02*
X157988000Y-118872000D01*
X160640000Y-130860000D02*
X160640000Y-130410000D01*
X160790000Y-131060000D02*
X160640000Y-130860000D01*
X149690000Y-114060000D02*
X149690000Y-113810000D01*
X149352000Y-112649000D02*
X149352000Y-113472000D01*
X152890000Y-118810000D02*
X152890000Y-118960000D01*
X150340000Y-116210000D02*
X152890000Y-118810000D01*
X149690000Y-113810000D02*
X149352000Y-113472000D01*
X149390000Y-107389167D02*
X149352000Y-112649000D01*
X149352000Y-112649000D02*
X149352000Y-110490000D01*
X145669000Y-100076000D02*
X148844000Y-100076000D01*
X149352000Y-100584000D02*
X148844000Y-100076000D01*
X149352000Y-110490000D02*
X149352000Y-107061000D01*
X144653000Y-103251000D02*
X144653000Y-100838000D01*
X144653000Y-100838000D02*
X144907000Y-100838000D01*
X144907000Y-100838000D02*
X145669000Y-100076000D01*
X158242000Y-124333000D02*
X159244000Y-124333000D01*
X157734000Y-124841000D02*
X158242000Y-124333000D01*
X157734000Y-125349000D02*
X157734000Y-124841000D01*
X157734000Y-126746000D02*
X157734000Y-125349000D01*
X157734000Y-128905000D02*
X157734000Y-126746000D01*
X157861000Y-129032000D02*
X157734000Y-128905000D01*
X159244000Y-124333000D02*
X159514000Y-124063000D01*
X148890000Y-114410000D02*
X148190000Y-114160000D01*
X148190000Y-114160000D02*
X146840000Y-113460000D01*
X146840000Y-113460000D02*
X146812000Y-110871000D01*
X146812000Y-110871000D02*
X146431000Y-110490000D01*
X146431000Y-110490000D02*
X145034000Y-110490000D01*
X150506425Y-117476425D02*
X150623411Y-117476425D01*
X149690000Y-116760000D02*
X150506425Y-117476425D01*
X151790000Y-118910000D02*
X151917000Y-118783000D01*
X151917000Y-118783000D02*
X150623411Y-117476425D01*
X150623411Y-117476425D02*
X150622000Y-117475000D01*
X156845000Y-129667000D02*
X156845000Y-123317000D01*
X156845000Y-123317000D02*
X157988000Y-122174000D01*
X157988000Y-122174000D02*
X159203000Y-122174000D01*
X159203000Y-122174000D02*
X159514000Y-121863000D01*
X146685000Y-135001000D02*
X145288000Y-135001000D01*
X146812000Y-134874000D02*
X146685000Y-135001000D01*
X144399000Y-131064000D02*
X144399000Y-130302000D01*
X144240000Y-113410000D02*
X144272000Y-110236000D01*
X143490000Y-114260000D02*
X144240000Y-113410000D01*
X143383000Y-114300000D02*
X143490000Y-114260000D01*
X146431000Y-128270000D02*
X144399000Y-130302000D01*
X146440000Y-127410000D02*
X146431000Y-128270000D01*
X147190000Y-126460000D02*
X146440000Y-127410000D01*
X143764000Y-109728000D02*
X144526000Y-108966000D01*
X143256000Y-109728000D02*
X143764000Y-109728000D01*
X148990000Y-118310000D02*
X148990000Y-118860000D01*
X145415000Y-122047000D02*
X148990000Y-118860000D01*
X145415000Y-122047000D02*
X145415000Y-128270000D01*
X145415000Y-128270000D02*
X145415000Y-128143000D01*
X145415000Y-128143000D02*
X145415000Y-128270000D01*
X143002000Y-130683000D02*
X145415000Y-128270000D01*
X143002000Y-130683000D02*
X143002000Y-132334000D01*
X148890000Y-117260000D02*
X148240000Y-118010000D01*
X148240000Y-118010000D02*
X148240000Y-118760000D01*
X144653000Y-121793000D02*
X148240000Y-118760000D01*
X140462000Y-132334000D02*
X140440000Y-131010000D01*
X142340000Y-130210000D02*
X144653000Y-127889000D01*
X144653000Y-127889000D02*
X144653000Y-121793000D01*
X142340000Y-131010000D02*
X142340000Y-130210000D01*
X140440000Y-131010000D02*
X142340000Y-131010000D01*
X143891000Y-121666000D02*
X143891000Y-127635000D01*
X147690000Y-118360000D02*
X147690000Y-117660000D01*
X147690000Y-117660000D02*
X147990000Y-117387000D01*
X147990000Y-117387000D02*
X147990000Y-117260000D01*
X143891000Y-121666000D02*
X147066000Y-118872000D01*
X137922000Y-132334000D02*
X137990000Y-130510000D01*
X141790000Y-129760000D02*
X143891000Y-127635000D01*
X141790000Y-130510000D02*
X141790000Y-129760000D01*
X137990000Y-130510000D02*
X141790000Y-130510000D01*
X147066000Y-118872000D02*
X147690000Y-118360000D01*
D27*
G36*
X168275000Y-100838000D02*
X168285006Y-100887410D01*
X168313447Y-100929035D01*
X168355841Y-100956315D01*
X168402000Y-100965000D01*
X173863000Y-100965000D01*
X173863000Y-110858560D01*
X172618400Y-110858560D01*
X172383083Y-110902838D01*
X172166959Y-111041910D01*
X172021969Y-111254110D01*
X172002768Y-111348927D01*
X171844036Y-111171268D01*
X171316791Y-110917291D01*
X171301026Y-110914642D01*
X171069000Y-111035783D01*
X171069000Y-112395000D01*
X171089000Y-112395000D01*
X171089000Y-112649000D01*
X171069000Y-112649000D01*
X171069000Y-114008217D01*
X171301026Y-114129358D01*
X171316791Y-114126709D01*
X171844036Y-113872732D01*
X172000907Y-113697155D01*
X172015238Y-113773317D01*
X172154310Y-113989441D01*
X172366510Y-114134431D01*
X172618400Y-114185440D01*
X173863000Y-114185440D01*
X173863000Y-114415560D01*
X172414000Y-114415560D01*
X172178683Y-114459838D01*
X171962559Y-114598910D01*
X171817569Y-114811110D01*
X171766560Y-115063000D01*
X171766560Y-116063000D01*
X171810838Y-116298317D01*
X171949910Y-116514441D01*
X172162110Y-116659431D01*
X172414000Y-116710440D01*
X173863000Y-116710440D01*
X173863000Y-127765560D01*
X173358469Y-127765560D01*
X173156254Y-127276163D01*
X172766827Y-126886056D01*
X172257756Y-126674671D01*
X171706542Y-126674190D01*
X171197103Y-126884686D01*
X170806996Y-127274113D01*
X170595611Y-127783184D01*
X170595130Y-128334398D01*
X170805626Y-128843837D01*
X171195053Y-129233944D01*
X171704124Y-129445329D01*
X172255338Y-129445810D01*
X172666560Y-129275896D01*
X172666560Y-129713000D01*
X172710838Y-129948317D01*
X172849910Y-130164441D01*
X173062110Y-130309431D01*
X173314000Y-130360440D01*
X173863000Y-130360440D01*
X173863000Y-130670560D01*
X172618400Y-130670560D01*
X172383083Y-130714838D01*
X172166959Y-130853910D01*
X172021969Y-131066110D01*
X172002768Y-131160927D01*
X171844036Y-130983268D01*
X171316791Y-130729291D01*
X171301026Y-130726642D01*
X171069000Y-130847783D01*
X171069000Y-132207000D01*
X171089000Y-132207000D01*
X171089000Y-132461000D01*
X171069000Y-132461000D01*
X171069000Y-133820217D01*
X171301026Y-133941358D01*
X171316791Y-133938709D01*
X171844036Y-133684732D01*
X172000907Y-133509155D01*
X172015238Y-133585317D01*
X172154310Y-133801441D01*
X172366510Y-133946431D01*
X172618400Y-133997440D01*
X173863000Y-133997440D01*
X173863000Y-136271000D01*
X168402000Y-136271000D01*
X168352590Y-136281006D01*
X168310965Y-136309447D01*
X168283685Y-136351841D01*
X168275000Y-136398000D01*
X168275000Y-142367000D01*
X167849277Y-142367000D01*
X167869703Y-142336430D01*
X167956100Y-141902084D01*
X167956100Y-141296836D01*
X167869703Y-140862490D01*
X167623666Y-140494270D01*
X167255446Y-140248233D01*
X166821100Y-140161836D01*
X166386754Y-140248233D01*
X166018534Y-140494270D01*
X165772497Y-140862490D01*
X165686100Y-141296836D01*
X165686100Y-141902084D01*
X165772497Y-142336430D01*
X165792923Y-142367000D01*
X160849277Y-142367000D01*
X160869703Y-142336430D01*
X160956100Y-141902084D01*
X160956100Y-141296836D01*
X160869703Y-140862490D01*
X160623666Y-140494270D01*
X160255446Y-140248233D01*
X159821100Y-140161836D01*
X159386754Y-140248233D01*
X159018534Y-140494270D01*
X158772497Y-140862490D01*
X158686100Y-141296836D01*
X158686100Y-141902084D01*
X158772497Y-142336430D01*
X158792923Y-142367000D01*
X143129000Y-142367000D01*
X143129000Y-138899460D01*
X159536415Y-138899460D01*
X159620909Y-139324239D01*
X159861526Y-139684349D01*
X160221636Y-139924966D01*
X160646415Y-140009460D01*
X160995785Y-140009460D01*
X161420564Y-139924966D01*
X161780674Y-139684349D01*
X162021291Y-139324239D01*
X162105785Y-138899460D01*
X164536415Y-138899460D01*
X164620909Y-139324239D01*
X164861526Y-139684349D01*
X165221636Y-139924966D01*
X165646415Y-140009460D01*
X165995785Y-140009460D01*
X166420564Y-139924966D01*
X166780674Y-139684349D01*
X167021291Y-139324239D01*
X167105785Y-138899460D01*
X167021291Y-138474681D01*
X166780674Y-138114571D01*
X166420564Y-137873954D01*
X165995785Y-137789460D01*
X165646415Y-137789460D01*
X165221636Y-137873954D01*
X164861526Y-138114571D01*
X164620909Y-138474681D01*
X164536415Y-138899460D01*
X162105785Y-138899460D01*
X162021291Y-138474681D01*
X161780674Y-138114571D01*
X161420564Y-137873954D01*
X160995785Y-137789460D01*
X160646415Y-137789460D01*
X160221636Y-137873954D01*
X159861526Y-138114571D01*
X159620909Y-138474681D01*
X159536415Y-138899460D01*
X143129000Y-138899460D01*
X143129000Y-136398000D01*
X143118994Y-136348590D01*
X143090553Y-136306965D01*
X143048159Y-136279685D01*
X143002000Y-136271000D01*
X137541000Y-136271000D01*
X137541000Y-135186167D01*
X144352838Y-135186167D01*
X144494883Y-135529943D01*
X144757673Y-135793192D01*
X145101201Y-135935838D01*
X145473167Y-135936162D01*
X145816943Y-135794117D01*
X145850118Y-135761000D01*
X146509995Y-135761000D01*
X146625201Y-135808838D01*
X146997167Y-135809162D01*
X147274530Y-135694558D01*
X149081266Y-135694558D01*
X149133686Y-136094979D01*
X149335351Y-136444858D01*
X149655558Y-136690931D01*
X151179557Y-137443860D01*
X151569558Y-137548663D01*
X151969978Y-137496243D01*
X152319857Y-137294578D01*
X152565930Y-136974371D01*
X152652560Y-136652000D01*
X153270000Y-136652000D01*
X153348785Y-137048077D01*
X153573144Y-137383856D01*
X153908923Y-137608215D01*
X154305000Y-137687000D01*
X157226000Y-137687000D01*
X157622077Y-137608215D01*
X157957856Y-137383856D01*
X158182215Y-137048077D01*
X158261000Y-136652000D01*
X158185215Y-136271000D01*
X158858000Y-136271000D01*
X158936785Y-136667077D01*
X159161144Y-137002856D01*
X159496923Y-137227215D01*
X159893000Y-137306000D01*
X163068000Y-137306000D01*
X163232884Y-137273202D01*
X163399594Y-137251444D01*
X163429844Y-137234024D01*
X163464077Y-137227215D01*
X163603863Y-137133814D01*
X163749552Y-137049917D01*
X164765553Y-136160917D01*
X165011751Y-135840806D01*
X165116709Y-135450847D01*
X165064444Y-135050406D01*
X164862917Y-134700447D01*
X164542807Y-134454249D01*
X164152848Y-134349291D01*
X163752407Y-134401556D01*
X163402448Y-134603083D01*
X162679114Y-135236000D01*
X159893000Y-135236000D01*
X159496923Y-135314785D01*
X159161144Y-135539144D01*
X158936785Y-135874923D01*
X158858000Y-136271000D01*
X158185215Y-136271000D01*
X158182215Y-136255923D01*
X157957856Y-135920144D01*
X157622077Y-135695785D01*
X157226000Y-135617000D01*
X154305000Y-135617000D01*
X153908923Y-135695785D01*
X153573144Y-135920144D01*
X153348785Y-136255923D01*
X153270000Y-136652000D01*
X152652560Y-136652000D01*
X152670734Y-136584371D01*
X152618314Y-136183950D01*
X152416648Y-135834071D01*
X152096442Y-135587998D01*
X150572442Y-134835069D01*
X150182442Y-134730266D01*
X149782021Y-134782686D01*
X149432142Y-134984351D01*
X149186069Y-135304558D01*
X149081266Y-135694558D01*
X147274530Y-135694558D01*
X147340943Y-135667117D01*
X147604192Y-135404327D01*
X147746838Y-135060799D01*
X147747162Y-134688833D01*
X147605117Y-134345057D01*
X147342327Y-134081808D01*
X146998799Y-133939162D01*
X146626833Y-133938838D01*
X146283057Y-134080883D01*
X146122660Y-134241000D01*
X145850463Y-134241000D01*
X145818327Y-134208808D01*
X145474799Y-134066162D01*
X145102833Y-134065838D01*
X144759057Y-134207883D01*
X144495808Y-134470673D01*
X144353162Y-134814201D01*
X144352838Y-135186167D01*
X137541000Y-135186167D01*
X137541000Y-133941559D01*
X137922000Y-134017345D01*
X138495489Y-133903271D01*
X138981670Y-133578415D01*
X139192000Y-133263634D01*
X139402330Y-133578415D01*
X139888511Y-133903271D01*
X140462000Y-134017345D01*
X141035489Y-133903271D01*
X141521670Y-133578415D01*
X141732000Y-133263634D01*
X141942330Y-133578415D01*
X142428511Y-133903271D01*
X143002000Y-134017345D01*
X143575489Y-133903271D01*
X144061670Y-133578415D01*
X144272000Y-133263634D01*
X144482330Y-133578415D01*
X144968511Y-133903271D01*
X145542000Y-134017345D01*
X146115489Y-133903271D01*
X146601670Y-133578415D01*
X146812000Y-133263634D01*
X147022330Y-133578415D01*
X147508511Y-133903271D01*
X148082000Y-134017345D01*
X148655489Y-133903271D01*
X149141670Y-133578415D01*
X149352000Y-133263634D01*
X149562330Y-133578415D01*
X150048511Y-133903271D01*
X150622000Y-134017345D01*
X150957029Y-133950704D01*
X150956838Y-134170167D01*
X151098883Y-134513943D01*
X151361673Y-134777192D01*
X151705201Y-134919838D01*
X152077167Y-134920162D01*
X152420943Y-134778117D01*
X152684192Y-134515327D01*
X152826838Y-134171799D01*
X152827050Y-133928788D01*
X153035000Y-133820217D01*
X153035000Y-132461000D01*
X153015000Y-132461000D01*
X153015000Y-132207000D01*
X153035000Y-132207000D01*
X153035000Y-130847783D01*
X153289000Y-130847783D01*
X153289000Y-132207000D01*
X153309000Y-132207000D01*
X153309000Y-132461000D01*
X153289000Y-132461000D01*
X153289000Y-133820217D01*
X153429318Y-133893477D01*
X153475785Y-134127077D01*
X153700144Y-134462856D01*
X153954142Y-134716853D01*
X153954144Y-134716856D01*
X154155429Y-134851349D01*
X154289922Y-134941215D01*
X154686000Y-135020001D01*
X154686005Y-135020000D01*
X156781500Y-135020000D01*
X156854029Y-135005573D01*
X156927871Y-135009598D01*
X157050297Y-134966533D01*
X157177577Y-134941215D01*
X157239064Y-134900131D01*
X157308826Y-134875591D01*
X157405449Y-134788957D01*
X157513356Y-134716856D01*
X157554442Y-134655366D01*
X157609500Y-134606000D01*
X157800000Y-134352000D01*
X157974618Y-133987867D01*
X157975896Y-133964414D01*
X158242000Y-134017345D01*
X158815489Y-133903271D01*
X159301670Y-133578415D01*
X159512000Y-133263634D01*
X159722330Y-133578415D01*
X160208511Y-133903271D01*
X160782000Y-134017345D01*
X161355489Y-133903271D01*
X161841670Y-133578415D01*
X162052000Y-133263634D01*
X162262330Y-133578415D01*
X162748511Y-133903271D01*
X163322000Y-134017345D01*
X163895489Y-133903271D01*
X164381670Y-133578415D01*
X164592000Y-133263634D01*
X164802330Y-133578415D01*
X165288511Y-133903271D01*
X165862000Y-134017345D01*
X166435489Y-133903271D01*
X166921670Y-133578415D01*
X167132000Y-133263634D01*
X167342330Y-133578415D01*
X167828511Y-133903271D01*
X168402000Y-134017345D01*
X168975489Y-133903271D01*
X169461670Y-133578415D01*
X169668461Y-133268931D01*
X170039964Y-133684732D01*
X170567209Y-133938709D01*
X170582974Y-133941358D01*
X170815000Y-133820217D01*
X170815000Y-132461000D01*
X170795000Y-132461000D01*
X170795000Y-132207000D01*
X170815000Y-132207000D01*
X170815000Y-130847783D01*
X170582974Y-130726642D01*
X170567209Y-130729291D01*
X170039964Y-130983268D01*
X169668461Y-131399069D01*
X169461670Y-131089585D01*
X169151069Y-130882048D01*
X169145472Y-130853910D01*
X169104148Y-130646160D01*
X168939401Y-130399599D01*
X168685401Y-130145599D01*
X168566427Y-130066104D01*
X168448551Y-129984954D01*
X168443302Y-129983834D01*
X168438839Y-129980852D01*
X168298492Y-129952935D01*
X168158542Y-129923073D01*
X167007386Y-129907104D01*
X166822677Y-129445329D01*
X167373458Y-129445810D01*
X167882897Y-129235314D01*
X168273004Y-128845887D01*
X168484389Y-128336816D01*
X168484870Y-127785602D01*
X168274374Y-127276163D01*
X167884947Y-126886056D01*
X167689272Y-126804804D01*
X167792148Y-126650839D01*
X167850000Y-126360000D01*
X167850000Y-125372463D01*
X167882192Y-125340327D01*
X168024838Y-124996799D01*
X168024839Y-124995167D01*
X169604838Y-124995167D01*
X169746883Y-125338943D01*
X170009673Y-125602192D01*
X170353201Y-125744838D01*
X170725167Y-125745162D01*
X171068943Y-125603117D01*
X171306827Y-125365648D01*
X171868798Y-125189029D01*
X172003201Y-125244838D01*
X172375167Y-125245162D01*
X172718943Y-125103117D01*
X172982192Y-124840327D01*
X173124838Y-124496799D01*
X173125162Y-124124833D01*
X172983117Y-123781057D01*
X172720327Y-123517808D01*
X172376799Y-123375162D01*
X172004833Y-123374838D01*
X171661057Y-123516883D01*
X171450326Y-123727247D01*
X170835745Y-123920401D01*
X170726799Y-123875162D01*
X170354833Y-123874838D01*
X170011057Y-124016883D01*
X169747808Y-124279673D01*
X169605162Y-124623201D01*
X169604838Y-124995167D01*
X168024839Y-124995167D01*
X168025162Y-124624833D01*
X167883117Y-124281057D01*
X167620327Y-124017808D01*
X167276799Y-123875162D01*
X166904833Y-123874838D01*
X166561057Y-124016883D01*
X166352566Y-124225010D01*
X166154833Y-124224838D01*
X165811057Y-124366883D01*
X165547808Y-124629673D01*
X165405162Y-124973201D01*
X165404838Y-125345167D01*
X165546883Y-125688943D01*
X165580000Y-125722118D01*
X165580000Y-125995198D01*
X165084277Y-126490921D01*
X164999161Y-126507852D01*
X164752599Y-126672599D01*
X164587852Y-126919161D01*
X164530000Y-127210000D01*
X164530000Y-129410000D01*
X164558560Y-129553579D01*
X164586456Y-129697448D01*
X165079560Y-130904346D01*
X164802330Y-131089585D01*
X164592000Y-131404366D01*
X164381670Y-131089585D01*
X163895489Y-130764729D01*
X163322000Y-130650655D01*
X162759231Y-130762597D01*
X162291645Y-130323349D01*
X162284504Y-130043933D01*
X162324838Y-129946799D01*
X162325162Y-129574833D01*
X162183117Y-129231057D01*
X161920327Y-128967808D01*
X161576799Y-128825162D01*
X161204833Y-128824838D01*
X160861057Y-128966883D01*
X160597808Y-129229673D01*
X160495991Y-129474874D01*
X160454833Y-129474838D01*
X160111057Y-129616883D01*
X159847808Y-129879673D01*
X159705162Y-130223201D01*
X159704838Y-130595167D01*
X159846883Y-130938943D01*
X159887255Y-130979386D01*
X159722330Y-131089585D01*
X159512000Y-131404366D01*
X159301670Y-131089585D01*
X158815489Y-130764729D01*
X158242000Y-130650655D01*
X157668511Y-130764729D01*
X157182330Y-131089585D01*
X156972000Y-131404366D01*
X156761670Y-131089585D01*
X156275489Y-130764729D01*
X155702000Y-130650655D01*
X155437715Y-130703225D01*
X155467000Y-130556000D01*
X155467000Y-130429000D01*
X155388215Y-130032923D01*
X155163856Y-129697144D01*
X154828077Y-129472785D01*
X154432000Y-129394000D01*
X154035923Y-129472785D01*
X153700144Y-129697144D01*
X153475785Y-130032923D01*
X153397000Y-130429000D01*
X153397000Y-130556000D01*
X153439418Y-130769250D01*
X153289000Y-130847783D01*
X153035000Y-130847783D01*
X152802974Y-130726642D01*
X152787209Y-130729291D01*
X152652000Y-130794422D01*
X152652000Y-120142000D01*
X152624263Y-120002557D01*
X152598811Y-119862683D01*
X152595382Y-119857365D01*
X152594148Y-119851161D01*
X152592663Y-119848938D01*
X152703201Y-119894838D01*
X153075167Y-119895162D01*
X153418943Y-119753117D01*
X153682192Y-119490327D01*
X153824838Y-119146799D01*
X153825162Y-118774833D01*
X153683117Y-118431057D01*
X153420327Y-118167808D01*
X153258956Y-118100801D01*
X151830336Y-116644167D01*
X155401838Y-116644167D01*
X155543883Y-116987943D01*
X155806673Y-117251192D01*
X156150201Y-117393838D01*
X156522167Y-117394162D01*
X156522559Y-117394000D01*
X157127805Y-117394000D01*
X156941808Y-117579673D01*
X156799162Y-117923201D01*
X156798894Y-118230781D01*
X156687808Y-118341673D01*
X156545162Y-118685201D01*
X156544838Y-119057167D01*
X156686883Y-119400943D01*
X156949673Y-119664192D01*
X157053157Y-119707162D01*
X157052838Y-120073167D01*
X157053000Y-120073559D01*
X157053000Y-120523000D01*
X157124173Y-120880809D01*
X157326855Y-121184145D01*
X157580855Y-121438145D01*
X157664231Y-121493855D01*
X157450599Y-121636599D01*
X156307599Y-122779599D01*
X156142852Y-123026161D01*
X156085000Y-123317000D01*
X156085000Y-129104537D01*
X156052808Y-129136673D01*
X155910162Y-129480201D01*
X155909838Y-129852167D01*
X156051883Y-130195943D01*
X156314673Y-130459192D01*
X156658201Y-130601838D01*
X157030167Y-130602162D01*
X157373943Y-130460117D01*
X157637192Y-130197327D01*
X157732879Y-129966889D01*
X158046167Y-129967162D01*
X158389943Y-129825117D01*
X158653192Y-129562327D01*
X158795838Y-129218799D01*
X158796162Y-128846833D01*
X158654117Y-128503057D01*
X158494000Y-128342660D01*
X158494000Y-127744566D01*
X158662110Y-127859431D01*
X158914000Y-127910440D01*
X160114000Y-127910440D01*
X160349317Y-127866162D01*
X160565441Y-127727090D01*
X160710431Y-127514890D01*
X160761440Y-127263000D01*
X160761440Y-126163000D01*
X160717162Y-125927683D01*
X160659949Y-125838772D01*
X160710431Y-125764890D01*
X160761440Y-125513000D01*
X160761440Y-124813000D01*
X160722426Y-124605658D01*
X160761440Y-124413000D01*
X160761440Y-123713000D01*
X160729860Y-123545167D01*
X161854838Y-123545167D01*
X161996883Y-123888943D01*
X162205097Y-124097521D01*
X162204838Y-124395167D01*
X162346883Y-124738943D01*
X162609673Y-125002192D01*
X162953201Y-125144838D01*
X163325167Y-125145162D01*
X163668943Y-125003117D01*
X163932192Y-124740327D01*
X163951063Y-124694880D01*
X164087307Y-124694998D01*
X164087391Y-124695015D01*
X164089985Y-124695015D01*
X164090057Y-124695001D01*
X164275167Y-124695162D01*
X164447757Y-124623849D01*
X164447794Y-124623842D01*
X164447825Y-124623821D01*
X164618943Y-124553117D01*
X164746672Y-124425610D01*
X166468516Y-122746813D01*
X168238933Y-122764342D01*
X168553201Y-122894838D01*
X168925167Y-122895162D01*
X169268943Y-122753117D01*
X169465024Y-122557378D01*
X169559673Y-122652192D01*
X169903201Y-122794838D01*
X170275167Y-122795162D01*
X170618943Y-122653117D01*
X170882192Y-122390327D01*
X171024838Y-122046799D01*
X171025143Y-121696928D01*
X171282192Y-121440327D01*
X171424838Y-121096799D01*
X171425162Y-120724833D01*
X171283117Y-120381057D01*
X171020327Y-120117808D01*
X170676799Y-119975162D01*
X170304833Y-119974838D01*
X170252508Y-119996458D01*
X169772257Y-119804358D01*
X169630971Y-119778041D01*
X169490000Y-119750000D01*
X165740000Y-119750000D01*
X165605431Y-119776768D01*
X165470135Y-119799527D01*
X165460412Y-119805614D01*
X165449161Y-119807852D01*
X165335094Y-119884069D01*
X165218791Y-119956880D01*
X162618791Y-122406880D01*
X162606004Y-122424839D01*
X162604833Y-122424838D01*
X162261057Y-122566883D01*
X161997808Y-122829673D01*
X161855162Y-123173201D01*
X161854838Y-123545167D01*
X160729860Y-123545167D01*
X160722142Y-123504150D01*
X160749000Y-123439309D01*
X160749000Y-123248750D01*
X160590250Y-123090000D01*
X160234688Y-123090000D01*
X160114000Y-123065560D01*
X158914000Y-123065560D01*
X158784113Y-123090000D01*
X158437750Y-123090000D01*
X158279000Y-123248750D01*
X158279000Y-123439309D01*
X158307870Y-123509007D01*
X158294911Y-123573000D01*
X158242000Y-123573000D01*
X157951161Y-123630852D01*
X157818243Y-123719665D01*
X157704599Y-123795599D01*
X157605000Y-123895198D01*
X157605000Y-123631802D01*
X158302802Y-122934000D01*
X159203000Y-122934000D01*
X159493839Y-122876148D01*
X159517348Y-122860440D01*
X160114000Y-122860440D01*
X160243887Y-122836000D01*
X160590250Y-122836000D01*
X160749000Y-122677250D01*
X160749000Y-122486691D01*
X160720130Y-122416993D01*
X160761440Y-122213000D01*
X160761440Y-121705259D01*
X161919571Y-121711984D01*
X161925852Y-121710773D01*
X161932137Y-121711973D01*
X162104761Y-121676264D01*
X162277787Y-121642890D01*
X162283126Y-121639367D01*
X162289392Y-121638071D01*
X162435176Y-121539043D01*
X162582295Y-121441973D01*
X162585881Y-121436673D01*
X162591172Y-121433079D01*
X163836999Y-120168086D01*
X164649896Y-119880445D01*
X164802138Y-119789920D01*
X164955465Y-119701112D01*
X164958780Y-119696779D01*
X164963469Y-119693991D01*
X165069513Y-119552053D01*
X165177150Y-119411373D01*
X166110587Y-117511895D01*
X166132192Y-117490327D01*
X166274838Y-117146799D01*
X166274879Y-117100030D01*
X166503201Y-117194838D01*
X166875167Y-117195162D01*
X167218943Y-117053117D01*
X167482192Y-116790327D01*
X167624838Y-116446799D01*
X167625162Y-116074833D01*
X167483117Y-115731057D01*
X167220327Y-115467808D01*
X166876799Y-115325162D01*
X166504833Y-115324838D01*
X166161057Y-115466883D01*
X166077795Y-115550000D01*
X164440000Y-115550000D01*
X164405831Y-115556797D01*
X164371193Y-115553122D01*
X164261422Y-115585522D01*
X164238908Y-115590000D01*
X163337750Y-115590000D01*
X163179000Y-115748750D01*
X163179000Y-116089309D01*
X163275673Y-116322698D01*
X163290668Y-116337693D01*
X163255162Y-116423201D01*
X163254838Y-116795167D01*
X163396883Y-117138943D01*
X163659673Y-117402192D01*
X164003201Y-117544838D01*
X164010800Y-117544845D01*
X163666899Y-118244658D01*
X163010104Y-118477063D01*
X162985564Y-118491655D01*
X162957608Y-118497438D01*
X162829569Y-118584411D01*
X162696531Y-118663517D01*
X162679445Y-118686386D01*
X162655827Y-118702429D01*
X161535764Y-119839724D01*
X160761440Y-119835228D01*
X160761440Y-119495150D01*
X160775167Y-119495162D01*
X161118943Y-119353117D01*
X161382192Y-119090327D01*
X161524838Y-118746799D01*
X161525162Y-118374833D01*
X161383117Y-118031057D01*
X161120327Y-117767808D01*
X160776799Y-117625162D01*
X160761440Y-117625149D01*
X160761440Y-117113000D01*
X160737056Y-116983411D01*
X160761440Y-116863000D01*
X160761440Y-116163000D01*
X160717162Y-115927683D01*
X160578090Y-115711559D01*
X160365890Y-115566569D01*
X160114000Y-115515560D01*
X158914000Y-115515560D01*
X158678683Y-115559838D01*
X158664184Y-115569168D01*
X158555799Y-115524162D01*
X158183833Y-115523838D01*
X158161200Y-115533190D01*
X158115000Y-115524000D01*
X156337816Y-115524000D01*
X156151833Y-115523838D01*
X155808057Y-115665883D01*
X155544808Y-115928673D01*
X155402162Y-116272201D01*
X155401838Y-116644167D01*
X151830336Y-116644167D01*
X151275116Y-116078060D01*
X151275162Y-116024833D01*
X151133117Y-115681057D01*
X150870327Y-115417808D01*
X150526799Y-115275162D01*
X150154833Y-115274838D01*
X149811057Y-115416883D01*
X149547808Y-115679673D01*
X149483946Y-115833468D01*
X149161057Y-115966883D01*
X148897808Y-116229673D01*
X148858236Y-116324972D01*
X148704833Y-116324838D01*
X148439772Y-116434359D01*
X148176799Y-116325162D01*
X147804833Y-116324838D01*
X147461057Y-116466883D01*
X147197808Y-116729673D01*
X147055162Y-117073201D01*
X147054995Y-117265112D01*
X147002320Y-117336434D01*
X146997943Y-117354059D01*
X146987852Y-117369161D01*
X146962348Y-117497375D01*
X146930843Y-117624228D01*
X146933544Y-117642186D01*
X146930000Y-117660000D01*
X146930000Y-118000500D01*
X146583919Y-118284464D01*
X146575458Y-118294772D01*
X146563923Y-118301458D01*
X143388923Y-121095458D01*
X143374012Y-121114960D01*
X143353599Y-121128599D01*
X143284428Y-121232121D01*
X143208805Y-121331024D01*
X143202492Y-121354748D01*
X143188852Y-121375161D01*
X143164561Y-121497277D01*
X143132544Y-121617588D01*
X143135790Y-121641921D01*
X143131000Y-121666000D01*
X143131000Y-127322723D01*
X141249556Y-129225659D01*
X141169052Y-129347636D01*
X141087852Y-129469161D01*
X141087423Y-129471318D01*
X141086212Y-129473153D01*
X141058514Y-129616650D01*
X141031989Y-129750000D01*
X137990000Y-129750000D01*
X137858201Y-129776217D01*
X137725521Y-129797504D01*
X137713269Y-129805046D01*
X137699161Y-129807852D01*
X137587436Y-129882504D01*
X137541000Y-129911088D01*
X137541000Y-127539609D01*
X138002538Y-127539609D01*
X138017714Y-127631376D01*
X138264067Y-128051125D01*
X138652299Y-128344647D01*
X139123304Y-128467256D01*
X139319000Y-128304547D01*
X139319000Y-127349000D01*
X139573000Y-127349000D01*
X139573000Y-128304547D01*
X139768696Y-128467256D01*
X140239701Y-128344647D01*
X140627933Y-128051125D01*
X140874286Y-127631376D01*
X140889462Y-127539609D01*
X140764731Y-127349000D01*
X139573000Y-127349000D01*
X139319000Y-127349000D01*
X138127269Y-127349000D01*
X138002538Y-127539609D01*
X137541000Y-127539609D01*
X137541000Y-124622000D01*
X137948560Y-124622000D01*
X137948560Y-125822000D01*
X137992838Y-126057317D01*
X138131910Y-126273441D01*
X138284309Y-126377571D01*
X138264067Y-126392875D01*
X138017714Y-126812624D01*
X138002538Y-126904391D01*
X138127269Y-127095000D01*
X139319000Y-127095000D01*
X139319000Y-127075000D01*
X139573000Y-127075000D01*
X139573000Y-127095000D01*
X140764731Y-127095000D01*
X140889462Y-126904391D01*
X140874286Y-126812624D01*
X140627933Y-126392875D01*
X140606580Y-126376731D01*
X140747441Y-126286090D01*
X140892431Y-126073890D01*
X140943440Y-125822000D01*
X140943440Y-124622000D01*
X140899162Y-124386683D01*
X140760090Y-124170559D01*
X140547890Y-124025569D01*
X140296000Y-123974560D01*
X138596000Y-123974560D01*
X138360683Y-124018838D01*
X138144559Y-124157910D01*
X137999569Y-124370110D01*
X137948560Y-124622000D01*
X137541000Y-124622000D01*
X137541000Y-114129559D01*
X137922000Y-114205345D01*
X138495489Y-114091271D01*
X138981670Y-113766415D01*
X139192000Y-113451634D01*
X139402330Y-113766415D01*
X139888511Y-114091271D01*
X140462000Y-114205345D01*
X141035489Y-114091271D01*
X141521670Y-113766415D01*
X141732000Y-113451634D01*
X141942330Y-113766415D01*
X142428511Y-114091271D01*
X142455074Y-114096555D01*
X142448162Y-114113201D01*
X142447838Y-114485167D01*
X142589883Y-114828943D01*
X142852673Y-115092192D01*
X143196201Y-115234838D01*
X143568167Y-115235162D01*
X143911943Y-115093117D01*
X144175192Y-114830327D01*
X144317838Y-114486799D01*
X144317852Y-114470460D01*
X144769665Y-113958406D01*
X144968511Y-114091271D01*
X145542000Y-114205345D01*
X146115489Y-114091271D01*
X146289272Y-113975153D01*
X146308442Y-114003181D01*
X146402475Y-114064551D01*
X146490159Y-114134693D01*
X147840159Y-114834694D01*
X147889927Y-114849113D01*
X147934384Y-114875724D01*
X148094370Y-114932862D01*
X148096883Y-114938943D01*
X148359673Y-115202192D01*
X148703201Y-115344838D01*
X149075167Y-115345162D01*
X149418943Y-115203117D01*
X149627477Y-114994946D01*
X149875167Y-114995162D01*
X150218943Y-114853117D01*
X150482192Y-114590327D01*
X150624838Y-114246799D01*
X150624875Y-114204773D01*
X151195489Y-114091271D01*
X151681670Y-113766415D01*
X151892000Y-113451634D01*
X152102330Y-113766415D01*
X152588511Y-114091271D01*
X153162000Y-114205345D01*
X153735489Y-114091271D01*
X154221670Y-113766415D01*
X154428461Y-113456931D01*
X154799964Y-113872732D01*
X155327209Y-114126709D01*
X155342974Y-114129358D01*
X155575000Y-114008217D01*
X155575000Y-112649000D01*
X155555000Y-112649000D01*
X155555000Y-112395000D01*
X155575000Y-112395000D01*
X155575000Y-111035783D01*
X155829000Y-111035783D01*
X155829000Y-112395000D01*
X155849000Y-112395000D01*
X155849000Y-112649000D01*
X155829000Y-112649000D01*
X155829000Y-114008217D01*
X156061026Y-114129358D01*
X156076791Y-114126709D01*
X156524327Y-113911129D01*
X156798878Y-114185680D01*
X156798838Y-114231167D01*
X156940883Y-114574943D01*
X157203673Y-114838192D01*
X157547201Y-114980838D01*
X157919167Y-114981162D01*
X158262943Y-114839117D01*
X158265373Y-114836691D01*
X163179000Y-114836691D01*
X163179000Y-115177250D01*
X163337750Y-115336000D01*
X164287000Y-115336000D01*
X164287000Y-114486750D01*
X164541000Y-114486750D01*
X164541000Y-115336000D01*
X165490250Y-115336000D01*
X165649000Y-115177250D01*
X165649000Y-114836691D01*
X165552327Y-114603302D01*
X165373699Y-114424673D01*
X165140310Y-114328000D01*
X164699750Y-114328000D01*
X164541000Y-114486750D01*
X164287000Y-114486750D01*
X164128250Y-114328000D01*
X163687690Y-114328000D01*
X163454301Y-114424673D01*
X163275673Y-114603302D01*
X163179000Y-114836691D01*
X158265373Y-114836691D01*
X158526192Y-114576327D01*
X158668838Y-114232799D01*
X158668936Y-114120422D01*
X158695711Y-114115096D01*
X158746883Y-114238943D01*
X159009673Y-114502192D01*
X159353201Y-114644838D01*
X159725167Y-114645162D01*
X160068943Y-114503117D01*
X160332192Y-114240327D01*
X160384011Y-114115534D01*
X160407209Y-114126709D01*
X160422974Y-114129358D01*
X160655000Y-114008217D01*
X160655000Y-112649000D01*
X160635000Y-112649000D01*
X160635000Y-112395000D01*
X160655000Y-112395000D01*
X160655000Y-111196821D01*
X160683113Y-111035783D01*
X160909000Y-111035783D01*
X160909000Y-112395000D01*
X160929000Y-112395000D01*
X160929000Y-112649000D01*
X160909000Y-112649000D01*
X160909000Y-114008217D01*
X161141026Y-114129358D01*
X161156791Y-114126709D01*
X161684036Y-113872732D01*
X162055539Y-113456931D01*
X162262330Y-113766415D01*
X162748511Y-114091271D01*
X163322000Y-114205345D01*
X163895489Y-114091271D01*
X164381670Y-113766415D01*
X164592000Y-113451634D01*
X164802330Y-113766415D01*
X165288511Y-114091271D01*
X165862000Y-114205345D01*
X166435489Y-114091271D01*
X166921670Y-113766415D01*
X167132000Y-113451634D01*
X167342330Y-113766415D01*
X167828511Y-114091271D01*
X168402000Y-114205345D01*
X168975489Y-114091271D01*
X169461670Y-113766415D01*
X169668461Y-113456931D01*
X170039964Y-113872732D01*
X170567209Y-114126709D01*
X170582974Y-114129358D01*
X170815000Y-114008217D01*
X170815000Y-112649000D01*
X170795000Y-112649000D01*
X170795000Y-112395000D01*
X170815000Y-112395000D01*
X170815000Y-111035783D01*
X170582974Y-110914642D01*
X170567209Y-110917291D01*
X170039964Y-111171268D01*
X169668461Y-111587069D01*
X169461670Y-111277585D01*
X168975489Y-110952729D01*
X168402000Y-110838655D01*
X167828511Y-110952729D01*
X167342330Y-111277585D01*
X167132000Y-111592366D01*
X166921670Y-111277585D01*
X166435489Y-110952729D01*
X165862000Y-110838655D01*
X165288511Y-110952729D01*
X164802330Y-111277585D01*
X164592000Y-111592366D01*
X164381670Y-111277585D01*
X163895489Y-110952729D01*
X163322000Y-110838655D01*
X162748511Y-110952729D01*
X162262330Y-111277585D01*
X162055539Y-111587069D01*
X161684036Y-111171268D01*
X161156791Y-110917291D01*
X161141026Y-110914642D01*
X160909000Y-111035783D01*
X160683113Y-111035783D01*
X160788681Y-110431076D01*
X160859673Y-110502192D01*
X161203201Y-110644838D01*
X161377827Y-110644990D01*
X162634412Y-110676702D01*
X162646233Y-110674659D01*
X162658000Y-110677000D01*
X162818309Y-110645112D01*
X162875167Y-110645162D01*
X162917036Y-110627862D01*
X162993902Y-110614579D01*
X163004042Y-110608168D01*
X163015809Y-110605827D01*
X163089448Y-110556623D01*
X163218943Y-110503117D01*
X163318978Y-110403257D01*
X163319145Y-110403145D01*
X163350854Y-110371436D01*
X163482192Y-110240327D01*
X163624838Y-109896799D01*
X163625057Y-109645554D01*
X172719035Y-109647000D01*
X172905167Y-109647162D01*
X173248943Y-109505117D01*
X173512192Y-109242327D01*
X173654838Y-108898799D01*
X173655162Y-108526833D01*
X173513117Y-108183057D01*
X173250327Y-107919808D01*
X172906799Y-107777162D01*
X172534833Y-107776838D01*
X172534512Y-107776970D01*
X162986932Y-107775453D01*
X162987162Y-107510833D01*
X162845117Y-107167057D01*
X162812000Y-107133882D01*
X162812000Y-106861463D01*
X162844192Y-106829327D01*
X162986838Y-106485799D01*
X162986892Y-106424000D01*
X166315537Y-106424000D01*
X166347673Y-106456192D01*
X166691201Y-106598838D01*
X167063167Y-106599162D01*
X167406943Y-106457117D01*
X167670192Y-106194327D01*
X167812838Y-105850799D01*
X167812891Y-105789759D01*
X168041943Y-105695117D01*
X168305192Y-105432327D01*
X168447838Y-105088799D01*
X168448162Y-104716833D01*
X168306117Y-104373057D01*
X168273000Y-104339882D01*
X168273000Y-104067463D01*
X168305192Y-104035327D01*
X168447838Y-103691799D01*
X168448162Y-103319833D01*
X168306117Y-102976057D01*
X168043327Y-102712808D01*
X167699799Y-102570162D01*
X167327833Y-102569838D01*
X166984057Y-102711883D01*
X166720808Y-102974673D01*
X166578162Y-103318201D01*
X166577838Y-103690167D01*
X166719883Y-104033943D01*
X166753000Y-104067118D01*
X166753000Y-104339537D01*
X166720808Y-104371673D01*
X166578162Y-104715201D01*
X166578109Y-104776241D01*
X166349057Y-104870883D01*
X166315882Y-104904000D01*
X162854597Y-104904000D01*
X162845117Y-104881057D01*
X162582327Y-104617808D01*
X162238799Y-104475162D01*
X161866833Y-104474838D01*
X161523057Y-104616883D01*
X161259808Y-104879673D01*
X161117162Y-105223201D01*
X161116838Y-105595167D01*
X161224080Y-105854714D01*
X161117162Y-106112201D01*
X161116838Y-106484167D01*
X161258883Y-106827943D01*
X161292000Y-106861118D01*
X161292000Y-107133537D01*
X161259808Y-107165673D01*
X161117162Y-107509201D01*
X161116930Y-107775155D01*
X160140149Y-107775000D01*
X160039090Y-107795085D01*
X159936079Y-107797508D01*
X159861886Y-107830304D01*
X159782328Y-107846116D01*
X159696649Y-107903345D01*
X159602406Y-107945004D01*
X159546412Y-108003696D01*
X159478960Y-108048750D01*
X159421702Y-108134413D01*
X159350578Y-108208964D01*
X159321306Y-108284616D01*
X159276230Y-108352054D01*
X159256113Y-108453104D01*
X159218930Y-108549202D01*
X158857362Y-110620310D01*
X158747808Y-110729673D01*
X158667417Y-110923276D01*
X158242000Y-110838655D01*
X157906860Y-110905318D01*
X157907162Y-110558833D01*
X157765117Y-110215057D01*
X157502327Y-109951808D01*
X157158799Y-109809162D01*
X156786833Y-109808838D01*
X156443057Y-109950883D01*
X156179808Y-110213673D01*
X156037162Y-110557201D01*
X156036840Y-110927270D01*
X155829000Y-111035783D01*
X155575000Y-111035783D01*
X155342974Y-110914642D01*
X155327209Y-110917291D01*
X154799964Y-111171268D01*
X154428461Y-111587069D01*
X154221670Y-111277585D01*
X153735489Y-110952729D01*
X153162000Y-110838655D01*
X152588511Y-110952729D01*
X152102330Y-111277585D01*
X151892000Y-111592366D01*
X151681670Y-111277585D01*
X151195489Y-110952729D01*
X150622000Y-110838655D01*
X150124384Y-110937637D01*
X150148636Y-107580624D01*
X150286838Y-107247799D01*
X150287162Y-106875833D01*
X150145117Y-106532057D01*
X149882327Y-106268808D01*
X149538799Y-106126162D01*
X149166833Y-106125838D01*
X148823057Y-106267883D01*
X148559808Y-106530673D01*
X148417162Y-106874201D01*
X148416838Y-107246167D01*
X148558883Y-107589943D01*
X148592000Y-107623118D01*
X148592000Y-110940100D01*
X148082000Y-110838655D01*
X147572791Y-110939943D01*
X147571956Y-110862781D01*
X147542283Y-110721604D01*
X147514148Y-110580160D01*
X147511823Y-110576680D01*
X147510962Y-110572585D01*
X147429549Y-110453549D01*
X147349401Y-110333599D01*
X146968401Y-109952599D01*
X146721839Y-109787852D01*
X146431000Y-109730000D01*
X145596463Y-109730000D01*
X145564327Y-109697808D01*
X145247957Y-109566439D01*
X145318192Y-109496327D01*
X145460838Y-109152799D01*
X145461162Y-108780833D01*
X145319117Y-108437057D01*
X145056327Y-108173808D01*
X144712799Y-108031162D01*
X144340833Y-108030838D01*
X143997057Y-108172883D01*
X143733808Y-108435673D01*
X143591162Y-108779201D01*
X143591121Y-108826077D01*
X143570860Y-108846338D01*
X143442799Y-108793162D01*
X143070833Y-108792838D01*
X142727057Y-108934883D01*
X142463808Y-109197673D01*
X142321162Y-109541201D01*
X142320838Y-109913167D01*
X142462883Y-110256943D01*
X142725673Y-110520192D01*
X143069201Y-110662838D01*
X143436826Y-110663158D01*
X143478883Y-110764943D01*
X143506352Y-110792460D01*
X143504877Y-110938683D01*
X143002000Y-110838655D01*
X142428511Y-110952729D01*
X141942330Y-111277585D01*
X141732000Y-111592366D01*
X141521670Y-111277585D01*
X141035489Y-110952729D01*
X140462000Y-110838655D01*
X139888511Y-110952729D01*
X139402330Y-111277585D01*
X139192000Y-111592366D01*
X138981670Y-111277585D01*
X138495489Y-110952729D01*
X137922000Y-110838655D01*
X137541000Y-110914441D01*
X137541000Y-106865167D01*
X139018838Y-106865167D01*
X139160883Y-107208943D01*
X139423673Y-107472192D01*
X139767201Y-107614838D01*
X140139167Y-107615162D01*
X140482943Y-107473117D01*
X140516118Y-107440000D01*
X141859000Y-107440000D01*
X142149839Y-107382148D01*
X142396401Y-107217401D01*
X144840802Y-104773000D01*
X145161000Y-104773000D01*
X145451839Y-104715148D01*
X145698401Y-104550401D01*
X145983802Y-104265000D01*
X149418198Y-104265000D01*
X149449599Y-104296401D01*
X149696160Y-104461148D01*
X149987000Y-104519000D01*
X150876000Y-104519000D01*
X151166839Y-104461148D01*
X151413401Y-104296401D01*
X151578148Y-104049839D01*
X151624429Y-103817167D01*
X151972838Y-103817167D01*
X152114883Y-104160943D01*
X152148000Y-104194118D01*
X152148000Y-108458000D01*
X152205852Y-108748839D01*
X152370599Y-108995401D01*
X153005599Y-109630401D01*
X153252161Y-109795148D01*
X153543000Y-109853000D01*
X154264403Y-109853000D01*
X154273883Y-109875943D01*
X154536673Y-110139192D01*
X154880201Y-110281838D01*
X155252167Y-110282162D01*
X155595943Y-110140117D01*
X155859192Y-109877327D01*
X156001838Y-109533799D01*
X156002162Y-109161833D01*
X155894920Y-108902286D01*
X155949080Y-108771855D01*
X156098077Y-108742217D01*
X156433856Y-108517858D01*
X156658215Y-108182079D01*
X156737000Y-107786002D01*
X156737000Y-105156005D01*
X156737001Y-105156000D01*
X156658215Y-104759922D01*
X156582095Y-104646000D01*
X158496000Y-104646000D01*
X158786839Y-104588148D01*
X159033401Y-104423401D01*
X159795401Y-103661401D01*
X159960148Y-103414839D01*
X160018000Y-103124000D01*
X160018000Y-101914802D01*
X160784000Y-101148802D01*
X160784000Y-101164537D01*
X160751808Y-101196673D01*
X160609162Y-101540201D01*
X160608838Y-101912167D01*
X160750883Y-102255943D01*
X161013673Y-102519192D01*
X161357201Y-102661838D01*
X161729167Y-102662162D01*
X162072943Y-102520117D01*
X162336192Y-102257327D01*
X162478838Y-101913799D01*
X162479162Y-101541833D01*
X162337117Y-101198057D01*
X162304000Y-101164882D01*
X162304000Y-99441000D01*
X162246148Y-99150161D01*
X162081401Y-98903599D01*
X161626400Y-98448598D01*
X161716838Y-98230799D01*
X161717162Y-97858833D01*
X161575117Y-97515057D01*
X161312327Y-97251808D01*
X160968799Y-97109162D01*
X160596833Y-97108838D01*
X160253057Y-97250883D01*
X160233529Y-97270377D01*
X159966288Y-97263850D01*
X159920327Y-97217808D01*
X159576799Y-97075162D01*
X159204833Y-97074838D01*
X158861057Y-97216883D01*
X158597808Y-97479673D01*
X158455162Y-97823201D01*
X158454979Y-98032926D01*
X158211808Y-98275673D01*
X158069162Y-98619201D01*
X158068838Y-98991167D01*
X158210883Y-99334943D01*
X158473673Y-99598192D01*
X158817201Y-99740838D01*
X159189167Y-99741162D01*
X159532943Y-99599117D01*
X159566118Y-99566000D01*
X159981367Y-99566000D01*
X159847162Y-99889201D01*
X159847121Y-99936077D01*
X158720599Y-101062599D01*
X158555852Y-101309161D01*
X158498000Y-101600000D01*
X158498000Y-102809198D01*
X158181198Y-103126000D01*
X155194000Y-103126000D01*
X154903161Y-103183852D01*
X154656599Y-103348599D01*
X154021599Y-103983599D01*
X153856852Y-104230161D01*
X153833384Y-104348142D01*
X153668000Y-104347998D01*
X153668000Y-104194463D01*
X153700192Y-104162327D01*
X153842838Y-103818799D01*
X153843162Y-103446833D01*
X153701117Y-103103057D01*
X153438327Y-102839808D01*
X153094799Y-102697162D01*
X152722833Y-102696838D01*
X152379057Y-102838883D01*
X152115808Y-103101673D01*
X151973162Y-103445201D01*
X151972838Y-103817167D01*
X151624429Y-103817167D01*
X151636000Y-103759000D01*
X151636000Y-101092000D01*
X151578148Y-100801161D01*
X151413401Y-100554599D01*
X151303122Y-100444320D01*
X151303162Y-100398833D01*
X151161117Y-100055057D01*
X150898327Y-99791808D01*
X150554799Y-99649162D01*
X150182833Y-99648838D01*
X149859629Y-99782383D01*
X149538799Y-99649162D01*
X149491923Y-99649121D01*
X149381401Y-99538599D01*
X149134839Y-99373852D01*
X148844000Y-99316000D01*
X146231463Y-99316000D01*
X146199327Y-99283808D01*
X145855799Y-99141162D01*
X145483833Y-99140838D01*
X145140057Y-99282883D01*
X144876808Y-99545673D01*
X144734162Y-99889201D01*
X144734121Y-99936077D01*
X144577101Y-100093097D01*
X144362161Y-100135852D01*
X144115599Y-100300599D01*
X143950852Y-100547161D01*
X143893000Y-100838000D01*
X143893000Y-102688537D01*
X143860808Y-102720673D01*
X143718162Y-103064201D01*
X143717838Y-103436167D01*
X143808533Y-103655665D01*
X141544198Y-105920000D01*
X140516463Y-105920000D01*
X140484327Y-105887808D01*
X140140799Y-105745162D01*
X139768833Y-105744838D01*
X139425057Y-105886883D01*
X139161808Y-106149673D01*
X139019162Y-106493201D01*
X139018838Y-106865167D01*
X137541000Y-106865167D01*
X137541000Y-100965000D01*
X143002000Y-100965000D01*
X143051410Y-100954994D01*
X143093035Y-100926553D01*
X143120315Y-100884159D01*
X143129000Y-100838000D01*
X143129000Y-100349001D01*
X143525077Y-100270215D01*
X143860856Y-100045856D01*
X143987853Y-99918858D01*
X143987856Y-99918856D01*
X144212215Y-99583077D01*
X144225436Y-99516611D01*
X144291001Y-99187000D01*
X144291000Y-99186995D01*
X144291000Y-98298000D01*
X152126999Y-98298000D01*
X152127000Y-98298005D01*
X152127000Y-99949000D01*
X152205785Y-100345077D01*
X152430144Y-100680856D01*
X152765923Y-100905215D01*
X152856952Y-100923322D01*
X153019923Y-101032215D01*
X153416000Y-101111000D01*
X153812077Y-101032215D01*
X154147856Y-100807856D01*
X154351525Y-100503041D01*
X154490167Y-100503162D01*
X154833943Y-100361117D01*
X155097192Y-100098327D01*
X155239838Y-99754799D01*
X155240162Y-99382833D01*
X155098117Y-99039057D01*
X155065000Y-99005882D01*
X155065000Y-98899072D01*
X155214943Y-98837117D01*
X155478192Y-98574327D01*
X155620838Y-98230799D01*
X155621162Y-97858833D01*
X155479117Y-97515057D01*
X155216327Y-97251808D01*
X154872799Y-97109162D01*
X154500833Y-97108838D01*
X154449813Y-97129919D01*
X154401855Y-97058145D01*
X154066077Y-96833786D01*
X153670000Y-96755000D01*
X153273922Y-96833786D01*
X152938144Y-97058145D01*
X152430144Y-97566144D01*
X152205785Y-97901923D01*
X152126999Y-98298000D01*
X144291000Y-98298000D01*
X144291000Y-95904000D01*
X145542000Y-95904000D01*
X145938077Y-95825215D01*
X146273856Y-95600856D01*
X146498215Y-95265077D01*
X146577000Y-94869000D01*
X168275000Y-94869000D01*
X168275000Y-100838000D01*
X168275000Y-100838000D01*
G37*
X168275000Y-100838000D02*
X168285006Y-100887410D01*
X168313447Y-100929035D01*
X168355841Y-100956315D01*
X168402000Y-100965000D01*
X173863000Y-100965000D01*
X173863000Y-110858560D01*
X172618400Y-110858560D01*
X172383083Y-110902838D01*
X172166959Y-111041910D01*
X172021969Y-111254110D01*
X172002768Y-111348927D01*
X171844036Y-111171268D01*
X171316791Y-110917291D01*
X171301026Y-110914642D01*
X171069000Y-111035783D01*
X171069000Y-112395000D01*
X171089000Y-112395000D01*
X171089000Y-112649000D01*
X171069000Y-112649000D01*
X171069000Y-114008217D01*
X171301026Y-114129358D01*
X171316791Y-114126709D01*
X171844036Y-113872732D01*
X172000907Y-113697155D01*
X172015238Y-113773317D01*
X172154310Y-113989441D01*
X172366510Y-114134431D01*
X172618400Y-114185440D01*
X173863000Y-114185440D01*
X173863000Y-114415560D01*
X172414000Y-114415560D01*
X172178683Y-114459838D01*
X171962559Y-114598910D01*
X171817569Y-114811110D01*
X171766560Y-115063000D01*
X171766560Y-116063000D01*
X171810838Y-116298317D01*
X171949910Y-116514441D01*
X172162110Y-116659431D01*
X172414000Y-116710440D01*
X173863000Y-116710440D01*
X173863000Y-127765560D01*
X173358469Y-127765560D01*
X173156254Y-127276163D01*
X172766827Y-126886056D01*
X172257756Y-126674671D01*
X171706542Y-126674190D01*
X171197103Y-126884686D01*
X170806996Y-127274113D01*
X170595611Y-127783184D01*
X170595130Y-128334398D01*
X170805626Y-128843837D01*
X171195053Y-129233944D01*
X171704124Y-129445329D01*
X172255338Y-129445810D01*
X172666560Y-129275896D01*
X172666560Y-129713000D01*
X172710838Y-129948317D01*
X172849910Y-130164441D01*
X173062110Y-130309431D01*
X173314000Y-130360440D01*
X173863000Y-130360440D01*
X173863000Y-130670560D01*
X172618400Y-130670560D01*
X172383083Y-130714838D01*
X172166959Y-130853910D01*
X172021969Y-131066110D01*
X172002768Y-131160927D01*
X171844036Y-130983268D01*
X171316791Y-130729291D01*
X171301026Y-130726642D01*
X171069000Y-130847783D01*
X171069000Y-132207000D01*
X171089000Y-132207000D01*
X171089000Y-132461000D01*
X171069000Y-132461000D01*
X171069000Y-133820217D01*
X171301026Y-133941358D01*
X171316791Y-133938709D01*
X171844036Y-133684732D01*
X172000907Y-133509155D01*
X172015238Y-133585317D01*
X172154310Y-133801441D01*
X172366510Y-133946431D01*
X172618400Y-133997440D01*
X173863000Y-133997440D01*
X173863000Y-136271000D01*
X168402000Y-136271000D01*
X168352590Y-136281006D01*
X168310965Y-136309447D01*
X168283685Y-136351841D01*
X168275000Y-136398000D01*
X168275000Y-142367000D01*
X167849277Y-142367000D01*
X167869703Y-142336430D01*
X167956100Y-141902084D01*
X167956100Y-141296836D01*
X167869703Y-140862490D01*
X167623666Y-140494270D01*
X167255446Y-140248233D01*
X166821100Y-140161836D01*
X166386754Y-140248233D01*
X166018534Y-140494270D01*
X165772497Y-140862490D01*
X165686100Y-141296836D01*
X165686100Y-141902084D01*
X165772497Y-142336430D01*
X165792923Y-142367000D01*
X160849277Y-142367000D01*
X160869703Y-142336430D01*
X160956100Y-141902084D01*
X160956100Y-141296836D01*
X160869703Y-140862490D01*
X160623666Y-140494270D01*
X160255446Y-140248233D01*
X159821100Y-140161836D01*
X159386754Y-140248233D01*
X159018534Y-140494270D01*
X158772497Y-140862490D01*
X158686100Y-141296836D01*
X158686100Y-141902084D01*
X158772497Y-142336430D01*
X158792923Y-142367000D01*
X143129000Y-142367000D01*
X143129000Y-138899460D01*
X159536415Y-138899460D01*
X159620909Y-139324239D01*
X159861526Y-139684349D01*
X160221636Y-139924966D01*
X160646415Y-140009460D01*
X160995785Y-140009460D01*
X161420564Y-139924966D01*
X161780674Y-139684349D01*
X162021291Y-139324239D01*
X162105785Y-138899460D01*
X164536415Y-138899460D01*
X164620909Y-139324239D01*
X164861526Y-139684349D01*
X165221636Y-139924966D01*
X165646415Y-140009460D01*
X165995785Y-140009460D01*
X166420564Y-139924966D01*
X166780674Y-139684349D01*
X167021291Y-139324239D01*
X167105785Y-138899460D01*
X167021291Y-138474681D01*
X166780674Y-138114571D01*
X166420564Y-137873954D01*
X165995785Y-137789460D01*
X165646415Y-137789460D01*
X165221636Y-137873954D01*
X164861526Y-138114571D01*
X164620909Y-138474681D01*
X164536415Y-138899460D01*
X162105785Y-138899460D01*
X162021291Y-138474681D01*
X161780674Y-138114571D01*
X161420564Y-137873954D01*
X160995785Y-137789460D01*
X160646415Y-137789460D01*
X160221636Y-137873954D01*
X159861526Y-138114571D01*
X159620909Y-138474681D01*
X159536415Y-138899460D01*
X143129000Y-138899460D01*
X143129000Y-136398000D01*
X143118994Y-136348590D01*
X143090553Y-136306965D01*
X143048159Y-136279685D01*
X143002000Y-136271000D01*
X137541000Y-136271000D01*
X137541000Y-135186167D01*
X144352838Y-135186167D01*
X144494883Y-135529943D01*
X144757673Y-135793192D01*
X145101201Y-135935838D01*
X145473167Y-135936162D01*
X145816943Y-135794117D01*
X145850118Y-135761000D01*
X146509995Y-135761000D01*
X146625201Y-135808838D01*
X146997167Y-135809162D01*
X147274530Y-135694558D01*
X149081266Y-135694558D01*
X149133686Y-136094979D01*
X149335351Y-136444858D01*
X149655558Y-136690931D01*
X151179557Y-137443860D01*
X151569558Y-137548663D01*
X151969978Y-137496243D01*
X152319857Y-137294578D01*
X152565930Y-136974371D01*
X152652560Y-136652000D01*
X153270000Y-136652000D01*
X153348785Y-137048077D01*
X153573144Y-137383856D01*
X153908923Y-137608215D01*
X154305000Y-137687000D01*
X157226000Y-137687000D01*
X157622077Y-137608215D01*
X157957856Y-137383856D01*
X158182215Y-137048077D01*
X158261000Y-136652000D01*
X158185215Y-136271000D01*
X158858000Y-136271000D01*
X158936785Y-136667077D01*
X159161144Y-137002856D01*
X159496923Y-137227215D01*
X159893000Y-137306000D01*
X163068000Y-137306000D01*
X163232884Y-137273202D01*
X163399594Y-137251444D01*
X163429844Y-137234024D01*
X163464077Y-137227215D01*
X163603863Y-137133814D01*
X163749552Y-137049917D01*
X164765553Y-136160917D01*
X165011751Y-135840806D01*
X165116709Y-135450847D01*
X165064444Y-135050406D01*
X164862917Y-134700447D01*
X164542807Y-134454249D01*
X164152848Y-134349291D01*
X163752407Y-134401556D01*
X163402448Y-134603083D01*
X162679114Y-135236000D01*
X159893000Y-135236000D01*
X159496923Y-135314785D01*
X159161144Y-135539144D01*
X158936785Y-135874923D01*
X158858000Y-136271000D01*
X158185215Y-136271000D01*
X158182215Y-136255923D01*
X157957856Y-135920144D01*
X157622077Y-135695785D01*
X157226000Y-135617000D01*
X154305000Y-135617000D01*
X153908923Y-135695785D01*
X153573144Y-135920144D01*
X153348785Y-136255923D01*
X153270000Y-136652000D01*
X152652560Y-136652000D01*
X152670734Y-136584371D01*
X152618314Y-136183950D01*
X152416648Y-135834071D01*
X152096442Y-135587998D01*
X150572442Y-134835069D01*
X150182442Y-134730266D01*
X149782021Y-134782686D01*
X149432142Y-134984351D01*
X149186069Y-135304558D01*
X149081266Y-135694558D01*
X147274530Y-135694558D01*
X147340943Y-135667117D01*
X147604192Y-135404327D01*
X147746838Y-135060799D01*
X147747162Y-134688833D01*
X147605117Y-134345057D01*
X147342327Y-134081808D01*
X146998799Y-133939162D01*
X146626833Y-133938838D01*
X146283057Y-134080883D01*
X146122660Y-134241000D01*
X145850463Y-134241000D01*
X145818327Y-134208808D01*
X145474799Y-134066162D01*
X145102833Y-134065838D01*
X144759057Y-134207883D01*
X144495808Y-134470673D01*
X144353162Y-134814201D01*
X144352838Y-135186167D01*
X137541000Y-135186167D01*
X137541000Y-133941559D01*
X137922000Y-134017345D01*
X138495489Y-133903271D01*
X138981670Y-133578415D01*
X139192000Y-133263634D01*
X139402330Y-133578415D01*
X139888511Y-133903271D01*
X140462000Y-134017345D01*
X141035489Y-133903271D01*
X141521670Y-133578415D01*
X141732000Y-133263634D01*
X141942330Y-133578415D01*
X142428511Y-133903271D01*
X143002000Y-134017345D01*
X143575489Y-133903271D01*
X144061670Y-133578415D01*
X144272000Y-133263634D01*
X144482330Y-133578415D01*
X144968511Y-133903271D01*
X145542000Y-134017345D01*
X146115489Y-133903271D01*
X146601670Y-133578415D01*
X146812000Y-133263634D01*
X147022330Y-133578415D01*
X147508511Y-133903271D01*
X148082000Y-134017345D01*
X148655489Y-133903271D01*
X149141670Y-133578415D01*
X149352000Y-133263634D01*
X149562330Y-133578415D01*
X150048511Y-133903271D01*
X150622000Y-134017345D01*
X150957029Y-133950704D01*
X150956838Y-134170167D01*
X151098883Y-134513943D01*
X151361673Y-134777192D01*
X151705201Y-134919838D01*
X152077167Y-134920162D01*
X152420943Y-134778117D01*
X152684192Y-134515327D01*
X152826838Y-134171799D01*
X152827050Y-133928788D01*
X153035000Y-133820217D01*
X153035000Y-132461000D01*
X153015000Y-132461000D01*
X153015000Y-132207000D01*
X153035000Y-132207000D01*
X153035000Y-130847783D01*
X153289000Y-130847783D01*
X153289000Y-132207000D01*
X153309000Y-132207000D01*
X153309000Y-132461000D01*
X153289000Y-132461000D01*
X153289000Y-133820217D01*
X153429318Y-133893477D01*
X153475785Y-134127077D01*
X153700144Y-134462856D01*
X153954142Y-134716853D01*
X153954144Y-134716856D01*
X154155429Y-134851349D01*
X154289922Y-134941215D01*
X154686000Y-135020001D01*
X154686005Y-135020000D01*
X156781500Y-135020000D01*
X156854029Y-135005573D01*
X156927871Y-135009598D01*
X157050297Y-134966533D01*
X157177577Y-134941215D01*
X157239064Y-134900131D01*
X157308826Y-134875591D01*
X157405449Y-134788957D01*
X157513356Y-134716856D01*
X157554442Y-134655366D01*
X157609500Y-134606000D01*
X157800000Y-134352000D01*
X157974618Y-133987867D01*
X157975896Y-133964414D01*
X158242000Y-134017345D01*
X158815489Y-133903271D01*
X159301670Y-133578415D01*
X159512000Y-133263634D01*
X159722330Y-133578415D01*
X160208511Y-133903271D01*
X160782000Y-134017345D01*
X161355489Y-133903271D01*
X161841670Y-133578415D01*
X162052000Y-133263634D01*
X162262330Y-133578415D01*
X162748511Y-133903271D01*
X163322000Y-134017345D01*
X163895489Y-133903271D01*
X164381670Y-133578415D01*
X164592000Y-133263634D01*
X164802330Y-133578415D01*
X165288511Y-133903271D01*
X165862000Y-134017345D01*
X166435489Y-133903271D01*
X166921670Y-133578415D01*
X167132000Y-133263634D01*
X167342330Y-133578415D01*
X167828511Y-133903271D01*
X168402000Y-134017345D01*
X168975489Y-133903271D01*
X169461670Y-133578415D01*
X169668461Y-133268931D01*
X170039964Y-133684732D01*
X170567209Y-133938709D01*
X170582974Y-133941358D01*
X170815000Y-133820217D01*
X170815000Y-132461000D01*
X170795000Y-132461000D01*
X170795000Y-132207000D01*
X170815000Y-132207000D01*
X170815000Y-130847783D01*
X170582974Y-130726642D01*
X170567209Y-130729291D01*
X170039964Y-130983268D01*
X169668461Y-131399069D01*
X169461670Y-131089585D01*
X169151069Y-130882048D01*
X169145472Y-130853910D01*
X169104148Y-130646160D01*
X168939401Y-130399599D01*
X168685401Y-130145599D01*
X168566427Y-130066104D01*
X168448551Y-129984954D01*
X168443302Y-129983834D01*
X168438839Y-129980852D01*
X168298492Y-129952935D01*
X168158542Y-129923073D01*
X167007386Y-129907104D01*
X166822677Y-129445329D01*
X167373458Y-129445810D01*
X167882897Y-129235314D01*
X168273004Y-128845887D01*
X168484389Y-128336816D01*
X168484870Y-127785602D01*
X168274374Y-127276163D01*
X167884947Y-126886056D01*
X167689272Y-126804804D01*
X167792148Y-126650839D01*
X167850000Y-126360000D01*
X167850000Y-125372463D01*
X167882192Y-125340327D01*
X168024838Y-124996799D01*
X168024839Y-124995167D01*
X169604838Y-124995167D01*
X169746883Y-125338943D01*
X170009673Y-125602192D01*
X170353201Y-125744838D01*
X170725167Y-125745162D01*
X171068943Y-125603117D01*
X171306827Y-125365648D01*
X171868798Y-125189029D01*
X172003201Y-125244838D01*
X172375167Y-125245162D01*
X172718943Y-125103117D01*
X172982192Y-124840327D01*
X173124838Y-124496799D01*
X173125162Y-124124833D01*
X172983117Y-123781057D01*
X172720327Y-123517808D01*
X172376799Y-123375162D01*
X172004833Y-123374838D01*
X171661057Y-123516883D01*
X171450326Y-123727247D01*
X170835745Y-123920401D01*
X170726799Y-123875162D01*
X170354833Y-123874838D01*
X170011057Y-124016883D01*
X169747808Y-124279673D01*
X169605162Y-124623201D01*
X169604838Y-124995167D01*
X168024839Y-124995167D01*
X168025162Y-124624833D01*
X167883117Y-124281057D01*
X167620327Y-124017808D01*
X167276799Y-123875162D01*
X166904833Y-123874838D01*
X166561057Y-124016883D01*
X166352566Y-124225010D01*
X166154833Y-124224838D01*
X165811057Y-124366883D01*
X165547808Y-124629673D01*
X165405162Y-124973201D01*
X165404838Y-125345167D01*
X165546883Y-125688943D01*
X165580000Y-125722118D01*
X165580000Y-125995198D01*
X165084277Y-126490921D01*
X164999161Y-126507852D01*
X164752599Y-126672599D01*
X164587852Y-126919161D01*
X164530000Y-127210000D01*
X164530000Y-129410000D01*
X164558560Y-129553579D01*
X164586456Y-129697448D01*
X165079560Y-130904346D01*
X164802330Y-131089585D01*
X164592000Y-131404366D01*
X164381670Y-131089585D01*
X163895489Y-130764729D01*
X163322000Y-130650655D01*
X162759231Y-130762597D01*
X162291645Y-130323349D01*
X162284504Y-130043933D01*
X162324838Y-129946799D01*
X162325162Y-129574833D01*
X162183117Y-129231057D01*
X161920327Y-128967808D01*
X161576799Y-128825162D01*
X161204833Y-128824838D01*
X160861057Y-128966883D01*
X160597808Y-129229673D01*
X160495991Y-129474874D01*
X160454833Y-129474838D01*
X160111057Y-129616883D01*
X159847808Y-129879673D01*
X159705162Y-130223201D01*
X159704838Y-130595167D01*
X159846883Y-130938943D01*
X159887255Y-130979386D01*
X159722330Y-131089585D01*
X159512000Y-131404366D01*
X159301670Y-131089585D01*
X158815489Y-130764729D01*
X158242000Y-130650655D01*
X157668511Y-130764729D01*
X157182330Y-131089585D01*
X156972000Y-131404366D01*
X156761670Y-131089585D01*
X156275489Y-130764729D01*
X155702000Y-130650655D01*
X155437715Y-130703225D01*
X155467000Y-130556000D01*
X155467000Y-130429000D01*
X155388215Y-130032923D01*
X155163856Y-129697144D01*
X154828077Y-129472785D01*
X154432000Y-129394000D01*
X154035923Y-129472785D01*
X153700144Y-129697144D01*
X153475785Y-130032923D01*
X153397000Y-130429000D01*
X153397000Y-130556000D01*
X153439418Y-130769250D01*
X153289000Y-130847783D01*
X153035000Y-130847783D01*
X152802974Y-130726642D01*
X152787209Y-130729291D01*
X152652000Y-130794422D01*
X152652000Y-120142000D01*
X152624263Y-120002557D01*
X152598811Y-119862683D01*
X152595382Y-119857365D01*
X152594148Y-119851161D01*
X152592663Y-119848938D01*
X152703201Y-119894838D01*
X153075167Y-119895162D01*
X153418943Y-119753117D01*
X153682192Y-119490327D01*
X153824838Y-119146799D01*
X153825162Y-118774833D01*
X153683117Y-118431057D01*
X153420327Y-118167808D01*
X153258956Y-118100801D01*
X151830336Y-116644167D01*
X155401838Y-116644167D01*
X155543883Y-116987943D01*
X155806673Y-117251192D01*
X156150201Y-117393838D01*
X156522167Y-117394162D01*
X156522559Y-117394000D01*
X157127805Y-117394000D01*
X156941808Y-117579673D01*
X156799162Y-117923201D01*
X156798894Y-118230781D01*
X156687808Y-118341673D01*
X156545162Y-118685201D01*
X156544838Y-119057167D01*
X156686883Y-119400943D01*
X156949673Y-119664192D01*
X157053157Y-119707162D01*
X157052838Y-120073167D01*
X157053000Y-120073559D01*
X157053000Y-120523000D01*
X157124173Y-120880809D01*
X157326855Y-121184145D01*
X157580855Y-121438145D01*
X157664231Y-121493855D01*
X157450599Y-121636599D01*
X156307599Y-122779599D01*
X156142852Y-123026161D01*
X156085000Y-123317000D01*
X156085000Y-129104537D01*
X156052808Y-129136673D01*
X155910162Y-129480201D01*
X155909838Y-129852167D01*
X156051883Y-130195943D01*
X156314673Y-130459192D01*
X156658201Y-130601838D01*
X157030167Y-130602162D01*
X157373943Y-130460117D01*
X157637192Y-130197327D01*
X157732879Y-129966889D01*
X158046167Y-129967162D01*
X158389943Y-129825117D01*
X158653192Y-129562327D01*
X158795838Y-129218799D01*
X158796162Y-128846833D01*
X158654117Y-128503057D01*
X158494000Y-128342660D01*
X158494000Y-127744566D01*
X158662110Y-127859431D01*
X158914000Y-127910440D01*
X160114000Y-127910440D01*
X160349317Y-127866162D01*
X160565441Y-127727090D01*
X160710431Y-127514890D01*
X160761440Y-127263000D01*
X160761440Y-126163000D01*
X160717162Y-125927683D01*
X160659949Y-125838772D01*
X160710431Y-125764890D01*
X160761440Y-125513000D01*
X160761440Y-124813000D01*
X160722426Y-124605658D01*
X160761440Y-124413000D01*
X160761440Y-123713000D01*
X160729860Y-123545167D01*
X161854838Y-123545167D01*
X161996883Y-123888943D01*
X162205097Y-124097521D01*
X162204838Y-124395167D01*
X162346883Y-124738943D01*
X162609673Y-125002192D01*
X162953201Y-125144838D01*
X163325167Y-125145162D01*
X163668943Y-125003117D01*
X163932192Y-124740327D01*
X163951063Y-124694880D01*
X164087307Y-124694998D01*
X164087391Y-124695015D01*
X164089985Y-124695015D01*
X164090057Y-124695001D01*
X164275167Y-124695162D01*
X164447757Y-124623849D01*
X164447794Y-124623842D01*
X164447825Y-124623821D01*
X164618943Y-124553117D01*
X164746672Y-124425610D01*
X166468516Y-122746813D01*
X168238933Y-122764342D01*
X168553201Y-122894838D01*
X168925167Y-122895162D01*
X169268943Y-122753117D01*
X169465024Y-122557378D01*
X169559673Y-122652192D01*
X169903201Y-122794838D01*
X170275167Y-122795162D01*
X170618943Y-122653117D01*
X170882192Y-122390327D01*
X171024838Y-122046799D01*
X171025143Y-121696928D01*
X171282192Y-121440327D01*
X171424838Y-121096799D01*
X171425162Y-120724833D01*
X171283117Y-120381057D01*
X171020327Y-120117808D01*
X170676799Y-119975162D01*
X170304833Y-119974838D01*
X170252508Y-119996458D01*
X169772257Y-119804358D01*
X169630971Y-119778041D01*
X169490000Y-119750000D01*
X165740000Y-119750000D01*
X165605431Y-119776768D01*
X165470135Y-119799527D01*
X165460412Y-119805614D01*
X165449161Y-119807852D01*
X165335094Y-119884069D01*
X165218791Y-119956880D01*
X162618791Y-122406880D01*
X162606004Y-122424839D01*
X162604833Y-122424838D01*
X162261057Y-122566883D01*
X161997808Y-122829673D01*
X161855162Y-123173201D01*
X161854838Y-123545167D01*
X160729860Y-123545167D01*
X160722142Y-123504150D01*
X160749000Y-123439309D01*
X160749000Y-123248750D01*
X160590250Y-123090000D01*
X160234688Y-123090000D01*
X160114000Y-123065560D01*
X158914000Y-123065560D01*
X158784113Y-123090000D01*
X158437750Y-123090000D01*
X158279000Y-123248750D01*
X158279000Y-123439309D01*
X158307870Y-123509007D01*
X158294911Y-123573000D01*
X158242000Y-123573000D01*
X157951161Y-123630852D01*
X157818243Y-123719665D01*
X157704599Y-123795599D01*
X157605000Y-123895198D01*
X157605000Y-123631802D01*
X158302802Y-122934000D01*
X159203000Y-122934000D01*
X159493839Y-122876148D01*
X159517348Y-122860440D01*
X160114000Y-122860440D01*
X160243887Y-122836000D01*
X160590250Y-122836000D01*
X160749000Y-122677250D01*
X160749000Y-122486691D01*
X160720130Y-122416993D01*
X160761440Y-122213000D01*
X160761440Y-121705259D01*
X161919571Y-121711984D01*
X161925852Y-121710773D01*
X161932137Y-121711973D01*
X162104761Y-121676264D01*
X162277787Y-121642890D01*
X162283126Y-121639367D01*
X162289392Y-121638071D01*
X162435176Y-121539043D01*
X162582295Y-121441973D01*
X162585881Y-121436673D01*
X162591172Y-121433079D01*
X163836999Y-120168086D01*
X164649896Y-119880445D01*
X164802138Y-119789920D01*
X164955465Y-119701112D01*
X164958780Y-119696779D01*
X164963469Y-119693991D01*
X165069513Y-119552053D01*
X165177150Y-119411373D01*
X166110587Y-117511895D01*
X166132192Y-117490327D01*
X166274838Y-117146799D01*
X166274879Y-117100030D01*
X166503201Y-117194838D01*
X166875167Y-117195162D01*
X167218943Y-117053117D01*
X167482192Y-116790327D01*
X167624838Y-116446799D01*
X167625162Y-116074833D01*
X167483117Y-115731057D01*
X167220327Y-115467808D01*
X166876799Y-115325162D01*
X166504833Y-115324838D01*
X166161057Y-115466883D01*
X166077795Y-115550000D01*
X164440000Y-115550000D01*
X164405831Y-115556797D01*
X164371193Y-115553122D01*
X164261422Y-115585522D01*
X164238908Y-115590000D01*
X163337750Y-115590000D01*
X163179000Y-115748750D01*
X163179000Y-116089309D01*
X163275673Y-116322698D01*
X163290668Y-116337693D01*
X163255162Y-116423201D01*
X163254838Y-116795167D01*
X163396883Y-117138943D01*
X163659673Y-117402192D01*
X164003201Y-117544838D01*
X164010800Y-117544845D01*
X163666899Y-118244658D01*
X163010104Y-118477063D01*
X162985564Y-118491655D01*
X162957608Y-118497438D01*
X162829569Y-118584411D01*
X162696531Y-118663517D01*
X162679445Y-118686386D01*
X162655827Y-118702429D01*
X161535764Y-119839724D01*
X160761440Y-119835228D01*
X160761440Y-119495150D01*
X160775167Y-119495162D01*
X161118943Y-119353117D01*
X161382192Y-119090327D01*
X161524838Y-118746799D01*
X161525162Y-118374833D01*
X161383117Y-118031057D01*
X161120327Y-117767808D01*
X160776799Y-117625162D01*
X160761440Y-117625149D01*
X160761440Y-117113000D01*
X160737056Y-116983411D01*
X160761440Y-116863000D01*
X160761440Y-116163000D01*
X160717162Y-115927683D01*
X160578090Y-115711559D01*
X160365890Y-115566569D01*
X160114000Y-115515560D01*
X158914000Y-115515560D01*
X158678683Y-115559838D01*
X158664184Y-115569168D01*
X158555799Y-115524162D01*
X158183833Y-115523838D01*
X158161200Y-115533190D01*
X158115000Y-115524000D01*
X156337816Y-115524000D01*
X156151833Y-115523838D01*
X155808057Y-115665883D01*
X155544808Y-115928673D01*
X155402162Y-116272201D01*
X155401838Y-116644167D01*
X151830336Y-116644167D01*
X151275116Y-116078060D01*
X151275162Y-116024833D01*
X151133117Y-115681057D01*
X150870327Y-115417808D01*
X150526799Y-115275162D01*
X150154833Y-115274838D01*
X149811057Y-115416883D01*
X149547808Y-115679673D01*
X149483946Y-115833468D01*
X149161057Y-115966883D01*
X148897808Y-116229673D01*
X148858236Y-116324972D01*
X148704833Y-116324838D01*
X148439772Y-116434359D01*
X148176799Y-116325162D01*
X147804833Y-116324838D01*
X147461057Y-116466883D01*
X147197808Y-116729673D01*
X147055162Y-117073201D01*
X147054995Y-117265112D01*
X147002320Y-117336434D01*
X146997943Y-117354059D01*
X146987852Y-117369161D01*
X146962348Y-117497375D01*
X146930843Y-117624228D01*
X146933544Y-117642186D01*
X146930000Y-117660000D01*
X146930000Y-118000500D01*
X146583919Y-118284464D01*
X146575458Y-118294772D01*
X146563923Y-118301458D01*
X143388923Y-121095458D01*
X143374012Y-121114960D01*
X143353599Y-121128599D01*
X143284428Y-121232121D01*
X143208805Y-121331024D01*
X143202492Y-121354748D01*
X143188852Y-121375161D01*
X143164561Y-121497277D01*
X143132544Y-121617588D01*
X143135790Y-121641921D01*
X143131000Y-121666000D01*
X143131000Y-127322723D01*
X141249556Y-129225659D01*
X141169052Y-129347636D01*
X141087852Y-129469161D01*
X141087423Y-129471318D01*
X141086212Y-129473153D01*
X141058514Y-129616650D01*
X141031989Y-129750000D01*
X137990000Y-129750000D01*
X137858201Y-129776217D01*
X137725521Y-129797504D01*
X137713269Y-129805046D01*
X137699161Y-129807852D01*
X137587436Y-129882504D01*
X137541000Y-129911088D01*
X137541000Y-127539609D01*
X138002538Y-127539609D01*
X138017714Y-127631376D01*
X138264067Y-128051125D01*
X138652299Y-128344647D01*
X139123304Y-128467256D01*
X139319000Y-128304547D01*
X139319000Y-127349000D01*
X139573000Y-127349000D01*
X139573000Y-128304547D01*
X139768696Y-128467256D01*
X140239701Y-128344647D01*
X140627933Y-128051125D01*
X140874286Y-127631376D01*
X140889462Y-127539609D01*
X140764731Y-127349000D01*
X139573000Y-127349000D01*
X139319000Y-127349000D01*
X138127269Y-127349000D01*
X138002538Y-127539609D01*
X137541000Y-127539609D01*
X137541000Y-124622000D01*
X137948560Y-124622000D01*
X137948560Y-125822000D01*
X137992838Y-126057317D01*
X138131910Y-126273441D01*
X138284309Y-126377571D01*
X138264067Y-126392875D01*
X138017714Y-126812624D01*
X138002538Y-126904391D01*
X138127269Y-127095000D01*
X139319000Y-127095000D01*
X139319000Y-127075000D01*
X139573000Y-127075000D01*
X139573000Y-127095000D01*
X140764731Y-127095000D01*
X140889462Y-126904391D01*
X140874286Y-126812624D01*
X140627933Y-126392875D01*
X140606580Y-126376731D01*
X140747441Y-126286090D01*
X140892431Y-126073890D01*
X140943440Y-125822000D01*
X140943440Y-124622000D01*
X140899162Y-124386683D01*
X140760090Y-124170559D01*
X140547890Y-124025569D01*
X140296000Y-123974560D01*
X138596000Y-123974560D01*
X138360683Y-124018838D01*
X138144559Y-124157910D01*
X137999569Y-124370110D01*
X137948560Y-124622000D01*
X137541000Y-124622000D01*
X137541000Y-114129559D01*
X137922000Y-114205345D01*
X138495489Y-114091271D01*
X138981670Y-113766415D01*
X139192000Y-113451634D01*
X139402330Y-113766415D01*
X139888511Y-114091271D01*
X140462000Y-114205345D01*
X141035489Y-114091271D01*
X141521670Y-113766415D01*
X141732000Y-113451634D01*
X141942330Y-113766415D01*
X142428511Y-114091271D01*
X142455074Y-114096555D01*
X142448162Y-114113201D01*
X142447838Y-114485167D01*
X142589883Y-114828943D01*
X142852673Y-115092192D01*
X143196201Y-115234838D01*
X143568167Y-115235162D01*
X143911943Y-115093117D01*
X144175192Y-114830327D01*
X144317838Y-114486799D01*
X144317852Y-114470460D01*
X144769665Y-113958406D01*
X144968511Y-114091271D01*
X145542000Y-114205345D01*
X146115489Y-114091271D01*
X146289272Y-113975153D01*
X146308442Y-114003181D01*
X146402475Y-114064551D01*
X146490159Y-114134693D01*
X147840159Y-114834694D01*
X147889927Y-114849113D01*
X147934384Y-114875724D01*
X148094370Y-114932862D01*
X148096883Y-114938943D01*
X148359673Y-115202192D01*
X148703201Y-115344838D01*
X149075167Y-115345162D01*
X149418943Y-115203117D01*
X149627477Y-114994946D01*
X149875167Y-114995162D01*
X150218943Y-114853117D01*
X150482192Y-114590327D01*
X150624838Y-114246799D01*
X150624875Y-114204773D01*
X151195489Y-114091271D01*
X151681670Y-113766415D01*
X151892000Y-113451634D01*
X152102330Y-113766415D01*
X152588511Y-114091271D01*
X153162000Y-114205345D01*
X153735489Y-114091271D01*
X154221670Y-113766415D01*
X154428461Y-113456931D01*
X154799964Y-113872732D01*
X155327209Y-114126709D01*
X155342974Y-114129358D01*
X155575000Y-114008217D01*
X155575000Y-112649000D01*
X155555000Y-112649000D01*
X155555000Y-112395000D01*
X155575000Y-112395000D01*
X155575000Y-111035783D01*
X155829000Y-111035783D01*
X155829000Y-112395000D01*
X155849000Y-112395000D01*
X155849000Y-112649000D01*
X155829000Y-112649000D01*
X155829000Y-114008217D01*
X156061026Y-114129358D01*
X156076791Y-114126709D01*
X156524327Y-113911129D01*
X156798878Y-114185680D01*
X156798838Y-114231167D01*
X156940883Y-114574943D01*
X157203673Y-114838192D01*
X157547201Y-114980838D01*
X157919167Y-114981162D01*
X158262943Y-114839117D01*
X158265373Y-114836691D01*
X163179000Y-114836691D01*
X163179000Y-115177250D01*
X163337750Y-115336000D01*
X164287000Y-115336000D01*
X164287000Y-114486750D01*
X164541000Y-114486750D01*
X164541000Y-115336000D01*
X165490250Y-115336000D01*
X165649000Y-115177250D01*
X165649000Y-114836691D01*
X165552327Y-114603302D01*
X165373699Y-114424673D01*
X165140310Y-114328000D01*
X164699750Y-114328000D01*
X164541000Y-114486750D01*
X164287000Y-114486750D01*
X164128250Y-114328000D01*
X163687690Y-114328000D01*
X163454301Y-114424673D01*
X163275673Y-114603302D01*
X163179000Y-114836691D01*
X158265373Y-114836691D01*
X158526192Y-114576327D01*
X158668838Y-114232799D01*
X158668936Y-114120422D01*
X158695711Y-114115096D01*
X158746883Y-114238943D01*
X159009673Y-114502192D01*
X159353201Y-114644838D01*
X159725167Y-114645162D01*
X160068943Y-114503117D01*
X160332192Y-114240327D01*
X160384011Y-114115534D01*
X160407209Y-114126709D01*
X160422974Y-114129358D01*
X160655000Y-114008217D01*
X160655000Y-112649000D01*
X160635000Y-112649000D01*
X160635000Y-112395000D01*
X160655000Y-112395000D01*
X160655000Y-111196821D01*
X160683113Y-111035783D01*
X160909000Y-111035783D01*
X160909000Y-112395000D01*
X160929000Y-112395000D01*
X160929000Y-112649000D01*
X160909000Y-112649000D01*
X160909000Y-114008217D01*
X161141026Y-114129358D01*
X161156791Y-114126709D01*
X161684036Y-113872732D01*
X162055539Y-113456931D01*
X162262330Y-113766415D01*
X162748511Y-114091271D01*
X163322000Y-114205345D01*
X163895489Y-114091271D01*
X164381670Y-113766415D01*
X164592000Y-113451634D01*
X164802330Y-113766415D01*
X165288511Y-114091271D01*
X165862000Y-114205345D01*
X166435489Y-114091271D01*
X166921670Y-113766415D01*
X167132000Y-113451634D01*
X167342330Y-113766415D01*
X167828511Y-114091271D01*
X168402000Y-114205345D01*
X168975489Y-114091271D01*
X169461670Y-113766415D01*
X169668461Y-113456931D01*
X170039964Y-113872732D01*
X170567209Y-114126709D01*
X170582974Y-114129358D01*
X170815000Y-114008217D01*
X170815000Y-112649000D01*
X170795000Y-112649000D01*
X170795000Y-112395000D01*
X170815000Y-112395000D01*
X170815000Y-111035783D01*
X170582974Y-110914642D01*
X170567209Y-110917291D01*
X170039964Y-111171268D01*
X169668461Y-111587069D01*
X169461670Y-111277585D01*
X168975489Y-110952729D01*
X168402000Y-110838655D01*
X167828511Y-110952729D01*
X167342330Y-111277585D01*
X167132000Y-111592366D01*
X166921670Y-111277585D01*
X166435489Y-110952729D01*
X165862000Y-110838655D01*
X165288511Y-110952729D01*
X164802330Y-111277585D01*
X164592000Y-111592366D01*
X164381670Y-111277585D01*
X163895489Y-110952729D01*
X163322000Y-110838655D01*
X162748511Y-110952729D01*
X162262330Y-111277585D01*
X162055539Y-111587069D01*
X161684036Y-111171268D01*
X161156791Y-110917291D01*
X161141026Y-110914642D01*
X160909000Y-111035783D01*
X160683113Y-111035783D01*
X160788681Y-110431076D01*
X160859673Y-110502192D01*
X161203201Y-110644838D01*
X161377827Y-110644990D01*
X162634412Y-110676702D01*
X162646233Y-110674659D01*
X162658000Y-110677000D01*
X162818309Y-110645112D01*
X162875167Y-110645162D01*
X162917036Y-110627862D01*
X162993902Y-110614579D01*
X163004042Y-110608168D01*
X163015809Y-110605827D01*
X163089448Y-110556623D01*
X163218943Y-110503117D01*
X163318978Y-110403257D01*
X163319145Y-110403145D01*
X163350854Y-110371436D01*
X163482192Y-110240327D01*
X163624838Y-109896799D01*
X163625057Y-109645554D01*
X172719035Y-109647000D01*
X172905167Y-109647162D01*
X173248943Y-109505117D01*
X173512192Y-109242327D01*
X173654838Y-108898799D01*
X173655162Y-108526833D01*
X173513117Y-108183057D01*
X173250327Y-107919808D01*
X172906799Y-107777162D01*
X172534833Y-107776838D01*
X172534512Y-107776970D01*
X162986932Y-107775453D01*
X162987162Y-107510833D01*
X162845117Y-107167057D01*
X162812000Y-107133882D01*
X162812000Y-106861463D01*
X162844192Y-106829327D01*
X162986838Y-106485799D01*
X162986892Y-106424000D01*
X166315537Y-106424000D01*
X166347673Y-106456192D01*
X166691201Y-106598838D01*
X167063167Y-106599162D01*
X167406943Y-106457117D01*
X167670192Y-106194327D01*
X167812838Y-105850799D01*
X167812891Y-105789759D01*
X168041943Y-105695117D01*
X168305192Y-105432327D01*
X168447838Y-105088799D01*
X168448162Y-104716833D01*
X168306117Y-104373057D01*
X168273000Y-104339882D01*
X168273000Y-104067463D01*
X168305192Y-104035327D01*
X168447838Y-103691799D01*
X168448162Y-103319833D01*
X168306117Y-102976057D01*
X168043327Y-102712808D01*
X167699799Y-102570162D01*
X167327833Y-102569838D01*
X166984057Y-102711883D01*
X166720808Y-102974673D01*
X166578162Y-103318201D01*
X166577838Y-103690167D01*
X166719883Y-104033943D01*
X166753000Y-104067118D01*
X166753000Y-104339537D01*
X166720808Y-104371673D01*
X166578162Y-104715201D01*
X166578109Y-104776241D01*
X166349057Y-104870883D01*
X166315882Y-104904000D01*
X162854597Y-104904000D01*
X162845117Y-104881057D01*
X162582327Y-104617808D01*
X162238799Y-104475162D01*
X161866833Y-104474838D01*
X161523057Y-104616883D01*
X161259808Y-104879673D01*
X161117162Y-105223201D01*
X161116838Y-105595167D01*
X161224080Y-105854714D01*
X161117162Y-106112201D01*
X161116838Y-106484167D01*
X161258883Y-106827943D01*
X161292000Y-106861118D01*
X161292000Y-107133537D01*
X161259808Y-107165673D01*
X161117162Y-107509201D01*
X161116930Y-107775155D01*
X160140149Y-107775000D01*
X160039090Y-107795085D01*
X159936079Y-107797508D01*
X159861886Y-107830304D01*
X159782328Y-107846116D01*
X159696649Y-107903345D01*
X159602406Y-107945004D01*
X159546412Y-108003696D01*
X159478960Y-108048750D01*
X159421702Y-108134413D01*
X159350578Y-108208964D01*
X159321306Y-108284616D01*
X159276230Y-108352054D01*
X159256113Y-108453104D01*
X159218930Y-108549202D01*
X158857362Y-110620310D01*
X158747808Y-110729673D01*
X158667417Y-110923276D01*
X158242000Y-110838655D01*
X157906860Y-110905318D01*
X157907162Y-110558833D01*
X157765117Y-110215057D01*
X157502327Y-109951808D01*
X157158799Y-109809162D01*
X156786833Y-109808838D01*
X156443057Y-109950883D01*
X156179808Y-110213673D01*
X156037162Y-110557201D01*
X156036840Y-110927270D01*
X155829000Y-111035783D01*
X155575000Y-111035783D01*
X155342974Y-110914642D01*
X155327209Y-110917291D01*
X154799964Y-111171268D01*
X154428461Y-111587069D01*
X154221670Y-111277585D01*
X153735489Y-110952729D01*
X153162000Y-110838655D01*
X152588511Y-110952729D01*
X152102330Y-111277585D01*
X151892000Y-111592366D01*
X151681670Y-111277585D01*
X151195489Y-110952729D01*
X150622000Y-110838655D01*
X150124384Y-110937637D01*
X150148636Y-107580624D01*
X150286838Y-107247799D01*
X150287162Y-106875833D01*
X150145117Y-106532057D01*
X149882327Y-106268808D01*
X149538799Y-106126162D01*
X149166833Y-106125838D01*
X148823057Y-106267883D01*
X148559808Y-106530673D01*
X148417162Y-106874201D01*
X148416838Y-107246167D01*
X148558883Y-107589943D01*
X148592000Y-107623118D01*
X148592000Y-110940100D01*
X148082000Y-110838655D01*
X147572791Y-110939943D01*
X147571956Y-110862781D01*
X147542283Y-110721604D01*
X147514148Y-110580160D01*
X147511823Y-110576680D01*
X147510962Y-110572585D01*
X147429549Y-110453549D01*
X147349401Y-110333599D01*
X146968401Y-109952599D01*
X146721839Y-109787852D01*
X146431000Y-109730000D01*
X145596463Y-109730000D01*
X145564327Y-109697808D01*
X145247957Y-109566439D01*
X145318192Y-109496327D01*
X145460838Y-109152799D01*
X145461162Y-108780833D01*
X145319117Y-108437057D01*
X145056327Y-108173808D01*
X144712799Y-108031162D01*
X144340833Y-108030838D01*
X143997057Y-108172883D01*
X143733808Y-108435673D01*
X143591162Y-108779201D01*
X143591121Y-108826077D01*
X143570860Y-108846338D01*
X143442799Y-108793162D01*
X143070833Y-108792838D01*
X142727057Y-108934883D01*
X142463808Y-109197673D01*
X142321162Y-109541201D01*
X142320838Y-109913167D01*
X142462883Y-110256943D01*
X142725673Y-110520192D01*
X143069201Y-110662838D01*
X143436826Y-110663158D01*
X143478883Y-110764943D01*
X143506352Y-110792460D01*
X143504877Y-110938683D01*
X143002000Y-110838655D01*
X142428511Y-110952729D01*
X141942330Y-111277585D01*
X141732000Y-111592366D01*
X141521670Y-111277585D01*
X141035489Y-110952729D01*
X140462000Y-110838655D01*
X139888511Y-110952729D01*
X139402330Y-111277585D01*
X139192000Y-111592366D01*
X138981670Y-111277585D01*
X138495489Y-110952729D01*
X137922000Y-110838655D01*
X137541000Y-110914441D01*
X137541000Y-106865167D01*
X139018838Y-106865167D01*
X139160883Y-107208943D01*
X139423673Y-107472192D01*
X139767201Y-107614838D01*
X140139167Y-107615162D01*
X140482943Y-107473117D01*
X140516118Y-107440000D01*
X141859000Y-107440000D01*
X142149839Y-107382148D01*
X142396401Y-107217401D01*
X144840802Y-104773000D01*
X145161000Y-104773000D01*
X145451839Y-104715148D01*
X145698401Y-104550401D01*
X145983802Y-104265000D01*
X149418198Y-104265000D01*
X149449599Y-104296401D01*
X149696160Y-104461148D01*
X149987000Y-104519000D01*
X150876000Y-104519000D01*
X151166839Y-104461148D01*
X151413401Y-104296401D01*
X151578148Y-104049839D01*
X151624429Y-103817167D01*
X151972838Y-103817167D01*
X152114883Y-104160943D01*
X152148000Y-104194118D01*
X152148000Y-108458000D01*
X152205852Y-108748839D01*
X152370599Y-108995401D01*
X153005599Y-109630401D01*
X153252161Y-109795148D01*
X153543000Y-109853000D01*
X154264403Y-109853000D01*
X154273883Y-109875943D01*
X154536673Y-110139192D01*
X154880201Y-110281838D01*
X155252167Y-110282162D01*
X155595943Y-110140117D01*
X155859192Y-109877327D01*
X156001838Y-109533799D01*
X156002162Y-109161833D01*
X155894920Y-108902286D01*
X155949080Y-108771855D01*
X156098077Y-108742217D01*
X156433856Y-108517858D01*
X156658215Y-108182079D01*
X156737000Y-107786002D01*
X156737000Y-105156005D01*
X156737001Y-105156000D01*
X156658215Y-104759922D01*
X156582095Y-104646000D01*
X158496000Y-104646000D01*
X158786839Y-104588148D01*
X159033401Y-104423401D01*
X159795401Y-103661401D01*
X159960148Y-103414839D01*
X160018000Y-103124000D01*
X160018000Y-101914802D01*
X160784000Y-101148802D01*
X160784000Y-101164537D01*
X160751808Y-101196673D01*
X160609162Y-101540201D01*
X160608838Y-101912167D01*
X160750883Y-102255943D01*
X161013673Y-102519192D01*
X161357201Y-102661838D01*
X161729167Y-102662162D01*
X162072943Y-102520117D01*
X162336192Y-102257327D01*
X162478838Y-101913799D01*
X162479162Y-101541833D01*
X162337117Y-101198057D01*
X162304000Y-101164882D01*
X162304000Y-99441000D01*
X162246148Y-99150161D01*
X162081401Y-98903599D01*
X161626400Y-98448598D01*
X161716838Y-98230799D01*
X161717162Y-97858833D01*
X161575117Y-97515057D01*
X161312327Y-97251808D01*
X160968799Y-97109162D01*
X160596833Y-97108838D01*
X160253057Y-97250883D01*
X160233529Y-97270377D01*
X159966288Y-97263850D01*
X159920327Y-97217808D01*
X159576799Y-97075162D01*
X159204833Y-97074838D01*
X158861057Y-97216883D01*
X158597808Y-97479673D01*
X158455162Y-97823201D01*
X158454979Y-98032926D01*
X158211808Y-98275673D01*
X158069162Y-98619201D01*
X158068838Y-98991167D01*
X158210883Y-99334943D01*
X158473673Y-99598192D01*
X158817201Y-99740838D01*
X159189167Y-99741162D01*
X159532943Y-99599117D01*
X159566118Y-99566000D01*
X159981367Y-99566000D01*
X159847162Y-99889201D01*
X159847121Y-99936077D01*
X158720599Y-101062599D01*
X158555852Y-101309161D01*
X158498000Y-101600000D01*
X158498000Y-102809198D01*
X158181198Y-103126000D01*
X155194000Y-103126000D01*
X154903161Y-103183852D01*
X154656599Y-103348599D01*
X154021599Y-103983599D01*
X153856852Y-104230161D01*
X153833384Y-104348142D01*
X153668000Y-104347998D01*
X153668000Y-104194463D01*
X153700192Y-104162327D01*
X153842838Y-103818799D01*
X153843162Y-103446833D01*
X153701117Y-103103057D01*
X153438327Y-102839808D01*
X153094799Y-102697162D01*
X152722833Y-102696838D01*
X152379057Y-102838883D01*
X152115808Y-103101673D01*
X151973162Y-103445201D01*
X151972838Y-103817167D01*
X151624429Y-103817167D01*
X151636000Y-103759000D01*
X151636000Y-101092000D01*
X151578148Y-100801161D01*
X151413401Y-100554599D01*
X151303122Y-100444320D01*
X151303162Y-100398833D01*
X151161117Y-100055057D01*
X150898327Y-99791808D01*
X150554799Y-99649162D01*
X150182833Y-99648838D01*
X149859629Y-99782383D01*
X149538799Y-99649162D01*
X149491923Y-99649121D01*
X149381401Y-99538599D01*
X149134839Y-99373852D01*
X148844000Y-99316000D01*
X146231463Y-99316000D01*
X146199327Y-99283808D01*
X145855799Y-99141162D01*
X145483833Y-99140838D01*
X145140057Y-99282883D01*
X144876808Y-99545673D01*
X144734162Y-99889201D01*
X144734121Y-99936077D01*
X144577101Y-100093097D01*
X144362161Y-100135852D01*
X144115599Y-100300599D01*
X143950852Y-100547161D01*
X143893000Y-100838000D01*
X143893000Y-102688537D01*
X143860808Y-102720673D01*
X143718162Y-103064201D01*
X143717838Y-103436167D01*
X143808533Y-103655665D01*
X141544198Y-105920000D01*
X140516463Y-105920000D01*
X140484327Y-105887808D01*
X140140799Y-105745162D01*
X139768833Y-105744838D01*
X139425057Y-105886883D01*
X139161808Y-106149673D01*
X139019162Y-106493201D01*
X139018838Y-106865167D01*
X137541000Y-106865167D01*
X137541000Y-100965000D01*
X143002000Y-100965000D01*
X143051410Y-100954994D01*
X143093035Y-100926553D01*
X143120315Y-100884159D01*
X143129000Y-100838000D01*
X143129000Y-100349001D01*
X143525077Y-100270215D01*
X143860856Y-100045856D01*
X143987853Y-99918858D01*
X143987856Y-99918856D01*
X144212215Y-99583077D01*
X144225436Y-99516611D01*
X144291001Y-99187000D01*
X144291000Y-99186995D01*
X144291000Y-98298000D01*
X152126999Y-98298000D01*
X152127000Y-98298005D01*
X152127000Y-99949000D01*
X152205785Y-100345077D01*
X152430144Y-100680856D01*
X152765923Y-100905215D01*
X152856952Y-100923322D01*
X153019923Y-101032215D01*
X153416000Y-101111000D01*
X153812077Y-101032215D01*
X154147856Y-100807856D01*
X154351525Y-100503041D01*
X154490167Y-100503162D01*
X154833943Y-100361117D01*
X155097192Y-100098327D01*
X155239838Y-99754799D01*
X155240162Y-99382833D01*
X155098117Y-99039057D01*
X155065000Y-99005882D01*
X155065000Y-98899072D01*
X155214943Y-98837117D01*
X155478192Y-98574327D01*
X155620838Y-98230799D01*
X155621162Y-97858833D01*
X155479117Y-97515057D01*
X155216327Y-97251808D01*
X154872799Y-97109162D01*
X154500833Y-97108838D01*
X154449813Y-97129919D01*
X154401855Y-97058145D01*
X154066077Y-96833786D01*
X153670000Y-96755000D01*
X153273922Y-96833786D01*
X152938144Y-97058145D01*
X152430144Y-97566144D01*
X152205785Y-97901923D01*
X152126999Y-98298000D01*
X144291000Y-98298000D01*
X144291000Y-95904000D01*
X145542000Y-95904000D01*
X145938077Y-95825215D01*
X146273856Y-95600856D01*
X146498215Y-95265077D01*
X146577000Y-94869000D01*
X168275000Y-94869000D01*
X168275000Y-100838000D01*
G36*
X150497802Y-119794254D02*
X151132000Y-120449545D01*
X151132000Y-128405905D01*
X151018077Y-128329785D01*
X150622000Y-128251000D01*
X150225923Y-128329785D01*
X149890144Y-128554144D01*
X149665785Y-128889923D01*
X149587000Y-129286000D01*
X149587000Y-131073101D01*
X149562330Y-131089585D01*
X149352000Y-131404366D01*
X149141670Y-131089585D01*
X148655489Y-130764729D01*
X148082000Y-130650655D01*
X147508511Y-130764729D01*
X147022330Y-131089585D01*
X146812000Y-131404366D01*
X146601670Y-131089585D01*
X146115489Y-130764729D01*
X145542000Y-130650655D01*
X145262826Y-130706186D01*
X145206335Y-130569467D01*
X146968401Y-128807401D01*
X147048607Y-128687364D01*
X147130066Y-128568171D01*
X147130898Y-128564207D01*
X147133148Y-128560839D01*
X147161317Y-128419227D01*
X147190958Y-128277953D01*
X147197244Y-127677335D01*
X147441723Y-127367662D01*
X147718943Y-127253117D01*
X147982192Y-126990327D01*
X148124838Y-126646799D01*
X148125162Y-126274833D01*
X147983117Y-125931057D01*
X147720327Y-125667808D01*
X147376799Y-125525162D01*
X147004833Y-125524838D01*
X146661057Y-125666883D01*
X146397808Y-125929673D01*
X146255162Y-126273201D01*
X146255036Y-126417777D01*
X146175000Y-126519156D01*
X146175000Y-122387634D01*
X149495734Y-119427304D01*
X149509038Y-119409671D01*
X149527401Y-119397401D01*
X149597902Y-119291888D01*
X149653303Y-119218459D01*
X150497802Y-119794254D01*
X150497802Y-119794254D01*
G37*
X150497802Y-119794254D02*
X151132000Y-120449545D01*
X151132000Y-128405905D01*
X151018077Y-128329785D01*
X150622000Y-128251000D01*
X150225923Y-128329785D01*
X149890144Y-128554144D01*
X149665785Y-128889923D01*
X149587000Y-129286000D01*
X149587000Y-131073101D01*
X149562330Y-131089585D01*
X149352000Y-131404366D01*
X149141670Y-131089585D01*
X148655489Y-130764729D01*
X148082000Y-130650655D01*
X147508511Y-130764729D01*
X147022330Y-131089585D01*
X146812000Y-131404366D01*
X146601670Y-131089585D01*
X146115489Y-130764729D01*
X145542000Y-130650655D01*
X145262826Y-130706186D01*
X145206335Y-130569467D01*
X146968401Y-128807401D01*
X147048607Y-128687364D01*
X147130066Y-128568171D01*
X147130898Y-128564207D01*
X147133148Y-128560839D01*
X147161317Y-128419227D01*
X147190958Y-128277953D01*
X147197244Y-127677335D01*
X147441723Y-127367662D01*
X147718943Y-127253117D01*
X147982192Y-126990327D01*
X148124838Y-126646799D01*
X148125162Y-126274833D01*
X147983117Y-125931057D01*
X147720327Y-125667808D01*
X147376799Y-125525162D01*
X147004833Y-125524838D01*
X146661057Y-125666883D01*
X146397808Y-125929673D01*
X146255162Y-126273201D01*
X146255036Y-126417777D01*
X146175000Y-126519156D01*
X146175000Y-122387634D01*
X149495734Y-119427304D01*
X149509038Y-119409671D01*
X149527401Y-119397401D01*
X149597902Y-119291888D01*
X149653303Y-119218459D01*
X150497802Y-119794254D01*
M02*
