M48
;DRILL file {KiCad 4.0.3+e1-6302~38~ubuntu14.04.1-stable} date Wed Aug 31 12:24:17 2016
;FORMAT={-:-/ absolute / metric / decimal}
FMAT,2
METRIC,TZ
T1C0.400
T2C0.500
T3C0.550
T4C0.700
T5C0.800
T6C1.016
%
G90
G05
M71
T1
X138.938Y-106.426
X139.954Y-106.68
X140.29Y-123.61
X142.113Y-103.251
X143.09Y-127.51
X143.129Y-99.314
X143.256Y-109.728
X143.44Y-124.36
X143.49Y-115.26
X143.69Y-120.86
X144.04Y-135.91
X144.34Y-115.51
X144.526Y-108.966
X144.653Y-103.251
X144.69Y-108.16
X145.034Y-96.266
X145.415Y-102.616
X145.542Y-94.869
X145.542Y-101.219
X145.669Y-100.076
X145.84Y-127.71
X146.05Y-108.458
X146.558Y-141.478
X146.79Y-120.21
X146.89Y-124.41
X147.49Y-120.86
X148.19Y-120.31
X148.69Y-106.46
X148.69Y-114.01
X149.24Y-129.21
X149.34Y-105.86
X149.352Y-100.584
X149.987Y-101.6
X149.987Y-102.87
X150.114Y-135.763
X150.368Y-100.584
X150.69Y-108.56
X150.74Y-117.31
X150.89Y-107.76
X151.638Y-136.525
X151.638Y-141.478
X151.89Y-111.41
X151.94Y-131.11
X152.29Y-115.46
X152.908Y-103.632
X153.09Y-130.61
X153.39Y-107.76
X153.416Y-100.076
X153.67Y-97.79
X153.67Y-105.283
X153.74Y-130.61
X154.305Y-99.568
X154.305Y-136.652
X154.436Y-107.61
X154.44Y-130.66
X154.49Y-134.26
X154.686Y-98.044
X154.74Y-120.96
X154.99Y-123.71
X155.19Y-121.86
X155.34Y-126.51
X155.39Y-128.31
X155.39Y-130.61
X155.448Y-104.902
X155.54Y-134.06
X155.59Y-118.11
X155.702Y-107.786
X156.24Y-115.41
X156.84Y-131.11
X156.89Y-130.31
X156.972Y-110.744
X157.226Y-136.652
X157.39Y-117.96
X157.59Y-113.96
X158.242Y-99.568
X158.29Y-117.91
X158.369Y-115.331
X158.64Y-109.81
X159.004Y-98.806
X159.39Y-98.01
X159.54Y-111.26
X159.54Y-113.71
X159.69Y-128.61
X159.69Y-135.71
X159.74Y-115.16
X159.89Y-136.61
X160.14Y-130.86
X160.34Y-128.01
X160.39Y-120.71
X160.64Y-118.71
X160.782Y-98.044
X160.99Y-121.76
X161.34Y-134.01
X161.39Y-109.71
X161.544Y-101.727
X162.306Y-96.266
X162.69Y-109.71
X162.69Y-109.71
X162.814Y-101.854
X162.99Y-135.66
X163.34Y-105.41
X163.69Y-128.01
X163.74Y-117.86
X163.79Y-123.31
X164.09Y-128.71
X164.49Y-135.96
X164.89Y-126.26
X164.99Y-137.16
X165.19Y-129.41
X165.54Y-127.31
X166.54Y-129.36
X166.89Y-106.46
X167.09Y-128.71
X167.29Y-127.31
X167.513Y-103.505
X167.513Y-104.902
X167.74Y-106.06
X168.59Y-120.61
X169.04Y-105.81
X169.69Y-109.56
X169.69Y-114.31
X170.39Y-110.11
X172.72Y-108.712
T4
X139.29Y-126.06
X139.29Y-128.06
T5
X152.04Y-122.419
X152.04Y-127.301
T6
X137.922Y-112.522
X137.922Y-132.334
X140.462Y-112.522
X140.462Y-132.334
X143.002Y-112.522
X143.002Y-132.334
X145.542Y-112.522
X145.542Y-132.334
X148.082Y-112.522
X148.082Y-132.334
X150.622Y-112.522
X150.622Y-132.334
X153.162Y-112.522
X153.162Y-132.334
X155.702Y-112.522
X155.702Y-132.334
X158.242Y-112.522
X158.242Y-132.334
X160.782Y-112.522
X160.782Y-132.334
X163.322Y-112.522
X163.322Y-132.334
X165.862Y-112.522
X165.862Y-132.334
X168.402Y-112.522
X168.402Y-132.334
X170.942Y-112.522
X170.942Y-132.334
X173.482Y-112.522
X173.482Y-132.334
T2
X159.821Y-141.924G85X159.821Y-141.274
G05
X166.821Y-141.924G85X166.821Y-141.274
G05
T3
X160.671Y-138.899G85X160.971Y-138.899
G05
X165.671Y-138.899G85X165.971Y-138.899
G05
T0
M30
