G04 #@! TF.FileFunction,Copper,L1,Top,Signal*
%FSLAX46Y46*%
G04 Gerber Fmt 4.6, Leading zero omitted, Abs format (unit mm)*
G04 Created by KiCad (PCBNEW 4.0.3+e1-6302~38~ubuntu14.04.1-stable) date Tue Aug 30 16:59:56 2016*
%MOMM*%
%LPD*%
G01*
G04 APERTURE LIST*
%ADD10C,0.100000*%
%ADD11R,0.300000X0.350000*%
%ADD12R,1.000000X1.600000*%
%ADD13R,1.950720X1.501140*%
%ADD14R,1.000000X2.500000*%
%ADD15R,1.501140X1.950720*%
%ADD16R,1.250000X1.000000*%
%ADD17R,2.600000X3.200000*%
%ADD18R,1.727200X2.032000*%
%ADD19O,1.727200X2.032000*%
%ADD20R,1.700000X1.200000*%
%ADD21O,1.700000X1.200000*%
%ADD22R,0.400000X0.600000*%
%ADD23R,0.280000X0.430000*%
%ADD24R,0.430000X0.280000*%
%ADD25R,1.700000X0.900000*%
%ADD26R,0.600000X1.500000*%
%ADD27R,2.032000X3.657600*%
%ADD28R,2.032000X1.016000*%
%ADD29O,2.000000X0.900000*%
%ADD30R,2.000000X0.900000*%
%ADD31R,4.300000X4.300000*%
%ADD32R,0.400000X1.350000*%
%ADD33O,1.250000X0.950000*%
%ADD34O,1.000000X1.550000*%
%ADD35C,1.501140*%
%ADD36C,0.600000*%
%ADD37C,0.250000*%
%ADD38C,0.600000*%
%ADD39C,0.800000*%
%ADD40C,0.300000*%
%ADD41C,0.254000*%
G04 APERTURE END LIST*
D10*
D11*
X170665000Y-125160000D03*
X171215000Y-125160000D03*
X173015000Y-125160000D03*
X172465000Y-125160000D03*
D12*
X159240000Y-120060000D03*
X162240000Y-120060000D03*
D13*
X164864140Y-115210000D03*
X162115860Y-115210000D03*
D12*
X146534000Y-124206000D03*
X143534000Y-124206000D03*
X167940000Y-115210000D03*
X170940000Y-115210000D03*
D14*
X146534000Y-128270000D03*
X143534000Y-128270000D03*
D15*
X144018000Y-98148140D03*
X144018000Y-95399860D03*
D16*
X155702000Y-137398000D03*
X155702000Y-135398000D03*
D17*
X145078000Y-118110000D03*
X137878000Y-118110000D03*
D18*
X173482000Y-112522000D03*
D19*
X170942000Y-112522000D03*
X168402000Y-112522000D03*
X165862000Y-112522000D03*
X163322000Y-112522000D03*
X160782000Y-112522000D03*
X158242000Y-112522000D03*
X155702000Y-112522000D03*
X153162000Y-112522000D03*
X150622000Y-112522000D03*
X148082000Y-112522000D03*
X145542000Y-112522000D03*
X143002000Y-112522000D03*
X140462000Y-112522000D03*
X137922000Y-112522000D03*
D18*
X173482000Y-132334000D03*
D19*
X170942000Y-132334000D03*
X168402000Y-132334000D03*
X165862000Y-132334000D03*
X163322000Y-132334000D03*
X160782000Y-132334000D03*
X158242000Y-132334000D03*
X155702000Y-132334000D03*
X153162000Y-132334000D03*
X150622000Y-132334000D03*
X148082000Y-132334000D03*
X145542000Y-132334000D03*
X143002000Y-132334000D03*
X140462000Y-132334000D03*
X137922000Y-132334000D03*
D20*
X139446000Y-125222000D03*
D21*
X139446000Y-127222000D03*
D22*
X138488000Y-109474000D03*
X139388000Y-109474000D03*
X138488000Y-107442000D03*
X139388000Y-107442000D03*
D23*
X142747000Y-100838000D03*
X143257000Y-100838000D03*
X143257000Y-102870000D03*
X142747000Y-102870000D03*
X142747000Y-104902000D03*
X143257000Y-104902000D03*
X142747000Y-106934000D03*
X143257000Y-106934000D03*
X142747000Y-108966000D03*
X143257000Y-108966000D03*
D24*
X150622000Y-136143000D03*
X150622000Y-136653000D03*
X153162000Y-135637000D03*
X153162000Y-135127000D03*
D25*
X146050000Y-142162000D03*
X146050000Y-138762000D03*
X151130000Y-142162000D03*
X151130000Y-138762000D03*
D26*
X164995000Y-123560000D03*
X166265000Y-123560000D03*
X167535000Y-123560000D03*
X168805000Y-123560000D03*
X170075000Y-123560000D03*
X171345000Y-123560000D03*
X172615000Y-123560000D03*
X173885000Y-123560000D03*
X173885000Y-118160000D03*
X172615000Y-118160000D03*
X171345000Y-118160000D03*
X170075000Y-118160000D03*
X168805000Y-118160000D03*
X167535000Y-118160000D03*
X166265000Y-118160000D03*
X164995000Y-118160000D03*
D27*
X155956000Y-126238000D03*
D28*
X149352000Y-126238000D03*
X149352000Y-128524000D03*
X149352000Y-123952000D03*
D29*
X165066000Y-107250000D03*
X147066000Y-107250000D03*
D30*
X147066000Y-95250000D03*
D29*
X147066000Y-96750000D03*
X147066000Y-98250000D03*
X147066000Y-99750000D03*
X147066000Y-101250000D03*
X147066000Y-102750000D03*
X147066000Y-104250000D03*
X147066000Y-105750000D03*
X165066000Y-105750000D03*
X165066000Y-104250000D03*
X165066000Y-102750000D03*
X165066000Y-101250000D03*
X165066000Y-99750000D03*
X165066000Y-98250000D03*
X165066000Y-96750000D03*
X165066000Y-95250000D03*
D31*
X157186000Y-101830000D03*
D32*
X162021100Y-138899460D03*
X162671100Y-138899460D03*
X163321100Y-138899460D03*
X163971100Y-138899460D03*
X164621100Y-138899460D03*
D33*
X160821100Y-138899460D03*
X165821100Y-138899460D03*
D34*
X159821100Y-141599460D03*
X166821100Y-141599460D03*
D35*
X167099060Y-128060000D03*
X171980940Y-128060000D03*
D36*
X172190000Y-124310000D03*
X170540000Y-124810000D03*
X158640002Y-109810000D03*
X171840000Y-125210000D03*
X156740000Y-121560000D03*
X158190000Y-123210000D03*
X163640000Y-129660000D03*
X162740000Y-121560000D03*
X146304000Y-125603000D03*
X141986000Y-128270000D03*
X145542000Y-130429000D03*
X141859000Y-134112000D03*
X137922000Y-128524000D03*
X139192000Y-134112000D03*
X158242000Y-99568000D03*
X142113000Y-103251000D03*
X162814000Y-101854000D03*
X162306000Y-96266000D03*
X145034000Y-96266000D03*
X138938000Y-106426000D03*
X146050000Y-108458000D03*
X165090000Y-124610000D03*
X169890000Y-116210000D03*
X162290000Y-116410000D03*
X162090000Y-118660000D03*
X147447000Y-124460000D03*
X151003000Y-125857000D03*
X146558000Y-141478000D03*
X151638000Y-141478000D03*
X164846000Y-136906000D03*
X155702000Y-107786002D03*
X155448000Y-104902000D03*
X153416000Y-100076000D03*
X153670000Y-97790000D03*
X162690000Y-109710000D03*
X161390000Y-109710000D03*
X168740000Y-121960000D03*
X164090000Y-123760000D03*
X159893000Y-136271000D03*
X157226000Y-136652000D03*
X154305000Y-136652000D03*
X151638000Y-136525000D03*
X164084000Y-135382000D03*
X150114000Y-135763000D03*
X143129000Y-99314000D03*
X145542000Y-94869000D03*
X162690000Y-109710000D03*
X165340000Y-116960000D03*
X157988000Y-119888000D03*
X150622000Y-129286000D03*
X158369000Y-116459000D03*
X159540000Y-113710000D03*
X159540000Y-111260000D03*
X172720000Y-108712000D03*
X154432000Y-130429000D03*
X156972000Y-133731000D03*
X156337000Y-116459000D03*
X151892000Y-133985000D03*
X167513000Y-103505000D03*
X167513000Y-104902000D03*
X149890000Y-118160000D03*
X160782000Y-100076000D03*
X154432000Y-107823000D03*
X159004000Y-98806000D03*
X161544000Y-101727000D03*
X162052000Y-105410000D03*
X166878000Y-105664000D03*
X160782000Y-98044000D03*
X159390000Y-98010000D03*
X154686000Y-98044000D03*
X154305000Y-99568000D03*
X150368000Y-100584000D03*
X139954000Y-106680000D03*
X170090000Y-121860000D03*
X163140000Y-124210000D03*
X162790000Y-123360000D03*
X170490000Y-120910000D03*
X167090000Y-124810000D03*
X162052000Y-106299000D03*
X162052000Y-107696000D03*
X164190000Y-116610000D03*
X166690000Y-116260000D03*
X166340000Y-125160000D03*
X157734000Y-118110000D03*
X157734000Y-114046000D03*
X156972000Y-110744000D03*
X155067000Y-108458000D03*
X153670000Y-105283000D03*
X149987000Y-102870000D03*
X145415000Y-102616000D03*
X161390000Y-129760000D03*
X160590000Y-118560000D03*
X145542000Y-101219000D03*
X149987000Y-101600000D03*
X152908000Y-103632000D03*
X155067000Y-109347000D03*
X157480000Y-118872000D03*
X160640000Y-130410000D03*
X149690000Y-114060000D03*
X152890000Y-118960000D03*
X150340000Y-116210000D03*
X149352000Y-100584000D03*
X149352000Y-107061000D03*
X144653000Y-103251000D03*
X145669000Y-100076000D03*
X157861000Y-129032000D03*
X148890000Y-114410000D03*
X145034000Y-110490000D03*
X149690000Y-116760000D03*
X151790000Y-118910000D03*
X156845000Y-129667000D03*
X144399000Y-131064000D03*
X145288000Y-135001000D03*
X146812000Y-134874000D03*
X144272000Y-110236000D03*
X143383000Y-114300000D03*
X147190000Y-126460000D03*
X144526000Y-108966000D03*
X143256000Y-109728000D03*
X148990000Y-118310000D03*
X148890000Y-117260000D03*
X147990000Y-117260000D03*
D37*
X172615000Y-123560000D02*
X172215000Y-124335000D01*
X172215000Y-124335000D02*
X172190000Y-124310000D01*
X170665000Y-125160000D02*
X170690000Y-124660000D01*
X170690000Y-124660000D02*
X170540000Y-124810000D01*
X170540000Y-124810000D02*
X167140000Y-128010000D01*
D38*
X160782000Y-112522000D02*
X160782000Y-110652000D01*
X160782000Y-110652000D02*
X159940000Y-109810000D01*
X159940000Y-109810000D02*
X158640002Y-109810000D01*
D37*
X171215000Y-125160000D02*
X171790000Y-125160000D01*
X171890000Y-125160000D02*
X171840000Y-125210000D01*
X171890000Y-125160000D02*
X172465000Y-125160000D01*
X171790000Y-125160000D02*
X171840000Y-125210000D01*
D38*
X156740000Y-121760000D02*
X156740000Y-121560000D01*
X158190000Y-123210000D02*
X156740000Y-121760000D01*
D37*
X162240000Y-120060000D02*
X162240000Y-120136000D01*
X162240000Y-120136000D02*
X162740000Y-121560000D01*
X145034000Y-128270000D02*
X145034000Y-125984000D01*
X145034000Y-125984000D02*
X145923000Y-125984000D01*
X145923000Y-125984000D02*
X146304000Y-125603000D01*
X141986000Y-128270000D02*
X141732000Y-128524000D01*
X141732000Y-128524000D02*
X141732000Y-133985000D01*
X141732000Y-133985000D02*
X141859000Y-134112000D01*
X145034000Y-128270000D02*
X145034000Y-129794000D01*
X145034000Y-129794000D02*
X145034000Y-129921000D01*
X145034000Y-129921000D02*
X145542000Y-130429000D01*
X141986000Y-128270000D02*
X145034000Y-128270000D01*
X137922000Y-128524000D02*
X138557000Y-128524000D01*
X141097000Y-128270000D02*
X140843000Y-128524000D01*
X140843000Y-128524000D02*
X137922000Y-128524000D01*
X141097000Y-128270000D02*
X141986000Y-128270000D01*
X139192000Y-129159000D02*
X139192000Y-134112000D01*
X138557000Y-128524000D02*
X139192000Y-129159000D01*
X157186000Y-101830000D02*
X158242000Y-100774000D01*
X158242000Y-100774000D02*
X158242000Y-99568000D01*
X141986000Y-128270000D02*
X141986000Y-128397000D01*
X143534000Y-128270000D02*
X141986000Y-128270000D01*
X142747000Y-102870000D02*
X142494000Y-102870000D01*
X142494000Y-102870000D02*
X142113000Y-103251000D01*
X165066000Y-102750000D02*
X163710000Y-102750000D01*
X163710000Y-102750000D02*
X162814000Y-101854000D01*
X165066000Y-95250000D02*
X163322000Y-95250000D01*
X163322000Y-95250000D02*
X162306000Y-96266000D01*
X157186000Y-101830000D02*
X157186000Y-103418000D01*
X144018000Y-95399860D02*
X144675860Y-95399860D01*
X144675860Y-95399860D02*
X145034000Y-96266000D01*
X138488000Y-107442000D02*
X138488000Y-106876000D01*
X138488000Y-106876000D02*
X138938000Y-106426000D01*
X147066000Y-107250000D02*
X147066000Y-107442000D01*
X147066000Y-107442000D02*
X146050000Y-108458000D01*
X164995000Y-123560000D02*
X164995000Y-124289000D01*
X164995000Y-124289000D02*
X165090000Y-124610000D01*
X170940000Y-115210000D02*
X170964000Y-115210000D01*
X170964000Y-115210000D02*
X169890000Y-116210000D01*
X162115860Y-115210000D02*
X162115860Y-115867860D01*
X162115860Y-115867860D02*
X162290000Y-116410000D01*
X162240000Y-120060000D02*
X162066000Y-118636000D01*
X162066000Y-118636000D02*
X162090000Y-118660000D01*
X146534000Y-124206000D02*
X146534000Y-124738000D01*
X146534000Y-124738000D02*
X147447000Y-124460000D01*
X149352000Y-126238000D02*
X150622000Y-126238000D01*
X150622000Y-126238000D02*
X151003000Y-125857000D01*
X146050000Y-142162000D02*
X146050000Y-141986000D01*
X146050000Y-141986000D02*
X146558000Y-141478000D01*
X151130000Y-142162000D02*
X151130000Y-141986000D01*
X151130000Y-141986000D02*
X151638000Y-141478000D01*
X164621100Y-138899460D02*
X164621100Y-137130900D01*
X164621100Y-137130900D02*
X164846000Y-136906000D01*
X173015000Y-125160000D02*
X173540000Y-125160000D01*
X173540000Y-125160000D02*
X173640000Y-125060000D01*
X173640000Y-125160000D02*
X172940000Y-126410000D01*
X172940000Y-126410000D02*
X171980940Y-128060000D01*
X173885000Y-123560000D02*
X173840000Y-124910000D01*
X173640000Y-125060000D02*
X173640000Y-125060000D01*
X173840000Y-124910000D02*
X173640000Y-125060000D01*
X173640000Y-125060000D02*
X173640000Y-125160000D01*
X173640000Y-125160000D02*
X173640000Y-125211000D01*
D38*
X161390000Y-109710000D02*
X161390000Y-108910000D01*
D39*
X157873000Y-107786002D02*
X155702000Y-107786002D01*
X155448000Y-104902000D02*
X154940000Y-104902000D01*
X154940000Y-104902000D02*
X154178000Y-104140000D01*
X154178000Y-104140000D02*
X154178000Y-100838000D01*
X154178000Y-100838000D02*
X153416000Y-100076000D01*
X153670000Y-97790000D02*
X151892000Y-97790000D01*
X151892000Y-97790000D02*
X151511000Y-97790000D01*
X151511000Y-97790000D02*
X149098000Y-95377000D01*
X149098000Y-95377000D02*
X147193000Y-95377000D01*
D38*
X160266002Y-107786002D02*
X157873000Y-107786002D01*
X161390000Y-108910000D02*
X160266002Y-107786002D01*
X161390000Y-109710000D02*
X161358000Y-109678000D01*
D37*
X153162000Y-135637000D02*
X153162000Y-136652000D01*
X154297000Y-136660000D02*
X154305000Y-136652000D01*
X153170000Y-136660000D02*
X154297000Y-136660000D01*
X153162000Y-136652000D02*
X153170000Y-136660000D01*
D38*
X163440000Y-125160000D02*
X163690000Y-125160000D01*
X167440000Y-130310000D02*
X172212000Y-130175000D01*
X172212000Y-130175000D02*
X173482000Y-131445000D01*
X167440000Y-130310000D02*
X163440000Y-126760000D01*
X163440000Y-125160000D02*
X163440000Y-126760000D01*
X163690000Y-125160000D02*
X164040000Y-124810000D01*
X164040000Y-124810000D02*
X164040000Y-123660000D01*
X164040000Y-123660000D02*
X164090000Y-123710000D01*
X164090000Y-123710000D02*
X164090000Y-123760000D01*
D39*
X141351000Y-105029000D02*
X140462000Y-104140000D01*
X140462000Y-101473000D02*
X140462000Y-104140000D01*
D37*
X142113000Y-101346000D02*
X142112500Y-101346500D01*
D39*
X142112500Y-101346500D02*
X140589000Y-101346000D01*
X140589000Y-101346000D02*
X140462000Y-101473000D01*
X140462000Y-104140000D02*
X140462000Y-104267000D01*
X159893000Y-136271000D02*
X159385000Y-136652000D01*
X159385000Y-136652000D02*
X157226000Y-136652000D01*
X154305000Y-136652000D02*
X151765000Y-136652000D01*
X151765000Y-136652000D02*
X151638000Y-136525000D01*
X173482000Y-132334000D02*
X173482000Y-133731000D01*
X164084000Y-135382000D02*
X171831000Y-135382000D01*
X171831000Y-135382000D02*
X173482000Y-133731000D01*
X147193000Y-95377000D02*
X147066000Y-95250000D01*
X142113000Y-101346000D02*
X142113500Y-101345500D01*
X142113500Y-101345500D02*
X142113000Y-100203000D01*
D38*
X142113000Y-100203000D02*
X143129000Y-99314000D01*
D37*
X141351000Y-105029000D02*
X141478000Y-104902000D01*
X141478000Y-104902000D02*
X142747000Y-104902000D01*
X141351000Y-106807000D02*
X141478000Y-106934000D01*
X141478000Y-106934000D02*
X142747000Y-106934000D01*
X141351000Y-108458000D02*
X141859000Y-108966000D01*
X142747000Y-100838000D02*
X142113000Y-101346000D01*
D39*
X141351000Y-105029000D02*
X141351000Y-106807000D01*
X141351000Y-106807000D02*
X141351000Y-108458000D01*
D37*
X141859000Y-108966000D02*
X142747000Y-108966000D01*
D39*
X143129000Y-99314000D02*
X142621000Y-99822000D01*
X142621000Y-99822000D02*
X142113000Y-100203000D01*
X142113000Y-100203000D02*
X142113000Y-100331000D01*
D37*
X147066000Y-95250000D02*
X146685000Y-94869000D01*
D39*
X146685000Y-94869000D02*
X145542000Y-94869000D01*
D40*
X143129000Y-99314000D02*
X143129000Y-99037140D01*
X143129000Y-99037140D02*
X144018000Y-98148140D01*
D38*
X163322000Y-112522000D02*
X163322000Y-110236000D01*
X163322000Y-110236000D02*
X162690000Y-109710000D01*
X157840000Y-111060000D02*
X158242000Y-112522000D01*
X157840000Y-107810000D02*
X157840000Y-111060000D01*
D40*
X164864140Y-115210000D02*
X164633000Y-114978860D01*
D38*
X164633000Y-114978860D02*
X164465000Y-113665000D01*
X164465000Y-113665000D02*
X163322000Y-112522000D01*
X165340000Y-116960000D02*
X164760000Y-115314140D01*
D37*
X164760000Y-115314140D02*
X164864140Y-115210000D01*
X164864140Y-115210000D02*
X167940000Y-115210000D01*
D38*
X164973000Y-117868000D02*
X164995000Y-118160000D01*
X165340000Y-116960000D02*
X164973000Y-117868000D01*
X159240000Y-120060000D02*
X158242000Y-119634000D01*
X158242000Y-119634000D02*
X157988000Y-119888000D01*
X168740000Y-121960000D02*
X166640000Y-120010000D01*
X164990000Y-119910000D02*
X164995000Y-118160000D01*
X165074308Y-120047000D02*
X164990000Y-119910000D01*
X166640000Y-120010000D02*
X165074308Y-120047000D01*
D37*
X168805000Y-123560000D02*
X168783000Y-122944000D01*
X168783000Y-122944000D02*
X168740000Y-121960000D01*
X173482000Y-131445000D02*
X173482000Y-132334000D01*
D39*
X150622000Y-132334000D02*
X150622000Y-134366000D01*
X150622000Y-134366000D02*
X150114000Y-135763000D01*
D37*
X150114000Y-135763000D02*
X150622000Y-136143000D01*
D39*
X150622000Y-129286000D02*
X149860000Y-128524000D01*
X149860000Y-128524000D02*
X149352000Y-128524000D01*
X146534000Y-128270000D02*
X149098000Y-128270000D01*
X149098000Y-128270000D02*
X149352000Y-128524000D01*
X149098000Y-123698000D02*
X149098000Y-123190000D01*
X148082000Y-122174000D02*
X144526000Y-122174000D01*
X143534000Y-123166000D02*
X143534000Y-124206000D01*
X143534000Y-123166000D02*
X144018000Y-122682000D01*
X144526000Y-122174000D02*
X144018000Y-122682000D01*
X149098000Y-123190000D02*
X148082000Y-122174000D01*
X149098000Y-123698000D02*
X149352000Y-123952000D01*
X139446000Y-125222000D02*
X139446000Y-124714000D01*
X139446000Y-124714000D02*
X139954000Y-124206000D01*
X139954000Y-124206000D02*
X143534000Y-124206000D01*
X137878000Y-118110000D02*
X138938000Y-118110000D01*
X138938000Y-118110000D02*
X139446000Y-118618000D01*
X139446000Y-118618000D02*
X139446000Y-125222000D01*
D37*
X151130000Y-137414000D02*
X155686000Y-137414000D01*
X155686000Y-137414000D02*
X155702000Y-137398000D01*
X150622000Y-136653000D02*
X150622000Y-136906000D01*
X151130000Y-137414000D02*
X151130000Y-138762000D01*
X150622000Y-136906000D02*
X151130000Y-137414000D01*
X158369000Y-116459000D02*
X158369000Y-115331000D01*
D38*
X158369000Y-115331000D02*
X158369000Y-116459000D01*
D37*
X158369000Y-115331000D02*
X159540000Y-114160000D01*
X159540000Y-114160000D02*
X159540000Y-113710000D01*
X159540000Y-113710000D02*
X159540000Y-111260000D01*
D38*
X158369000Y-115331000D02*
X159540000Y-114160000D01*
X159540000Y-114160000D02*
X159540000Y-113710000D01*
X173482000Y-110363000D02*
X173482000Y-112522000D01*
X172720000Y-108712000D02*
X173482000Y-109601000D01*
X173482000Y-109601000D02*
X173482000Y-110363000D01*
D37*
X154490000Y-133760000D02*
X154490000Y-130487000D01*
X154490000Y-130487000D02*
X154432000Y-130429000D01*
D39*
X149890000Y-119310000D02*
X145340000Y-119260000D01*
X153797000Y-130429000D02*
X153035000Y-129540000D01*
X154432000Y-130429000D02*
X153797000Y-130429000D01*
X153035000Y-129540000D02*
X153035000Y-122682000D01*
X153035000Y-122682000D02*
X149840000Y-119510000D01*
X149840000Y-119510000D02*
X149890000Y-119310000D01*
D37*
X162021100Y-138899460D02*
X162021100Y-138145100D01*
D39*
X157480000Y-134239000D02*
X156972000Y-133731000D01*
X160782000Y-134239000D02*
X157480000Y-134239000D01*
X161036000Y-134620000D02*
X160782000Y-134239000D01*
X161036000Y-137160000D02*
X161036000Y-134620000D01*
D37*
X162021100Y-138145100D02*
X161036000Y-137160000D01*
D38*
X156972000Y-133731000D02*
X157020500Y-133779500D01*
X154790000Y-134060000D02*
X154490000Y-133760000D01*
X154490000Y-133760000D02*
X154440000Y-133710000D01*
X156790000Y-134060000D02*
X154790000Y-134060000D01*
X157020500Y-133829500D02*
X156790000Y-134060000D01*
X157020500Y-133779500D02*
X157020500Y-133829500D01*
D39*
X147358000Y-119291000D02*
X150076000Y-119291000D01*
X150076000Y-119291000D02*
X152908000Y-116459000D01*
X152908000Y-116459000D02*
X156337000Y-116459000D01*
X145340000Y-119310000D02*
X147358000Y-119291000D01*
X145340000Y-119260000D02*
X145340000Y-119310000D01*
D37*
X153162000Y-135127000D02*
X153323000Y-135127000D01*
X153323000Y-135127000D02*
X153490000Y-134960000D01*
X154105000Y-134960000D02*
X154543000Y-135398000D01*
X153490000Y-134960000D02*
X154105000Y-134960000D01*
X152645000Y-134610000D02*
X153162000Y-135127000D01*
X152517000Y-134610000D02*
X152645000Y-134610000D01*
X151892000Y-133985000D02*
X152517000Y-134610000D01*
X153162000Y-135127000D02*
X153034000Y-135127000D01*
X155702000Y-135398000D02*
X154543000Y-135398000D01*
X168402000Y-112522000D02*
X168402000Y-105791000D01*
X166878000Y-99822000D02*
X165138000Y-99822000D01*
X167513000Y-100457000D02*
X166878000Y-99822000D01*
X167513000Y-103505000D02*
X167513000Y-100457000D01*
X168402000Y-105791000D02*
X167513000Y-104902000D01*
X165138000Y-99822000D02*
X165066000Y-99750000D01*
X161108000Y-99750000D02*
X165066000Y-99750000D01*
X160782000Y-100076000D02*
X161108000Y-99750000D01*
X154432000Y-114046000D02*
X154432000Y-107823000D01*
X153924000Y-114554000D02*
X154432000Y-114046000D01*
X153644119Y-114556142D02*
X153924000Y-114554000D01*
X149890000Y-118405610D02*
X153644119Y-114556142D01*
X165862000Y-112522000D02*
X166878000Y-111506000D01*
X148971000Y-96901000D02*
X147217000Y-96901000D01*
X150876000Y-98806000D02*
X148971000Y-96901000D01*
X159004000Y-98806000D02*
X150876000Y-98806000D01*
X162052000Y-102235000D02*
X161544000Y-101727000D01*
X162052000Y-105410000D02*
X162052000Y-102235000D01*
X166878000Y-111506000D02*
X166878000Y-105664000D01*
X147217000Y-96901000D02*
X147066000Y-96750000D01*
X147066000Y-96750000D02*
X145947000Y-96750000D01*
X145947000Y-96750000D02*
X145542000Y-97155000D01*
X145542000Y-97155000D02*
X145542000Y-99187000D01*
X145542000Y-99187000D02*
X145415000Y-99314000D01*
X145415000Y-99314000D02*
X145288000Y-99314000D01*
X145288000Y-99314000D02*
X143510000Y-101092000D01*
X143510000Y-101092000D02*
X143510000Y-101091000D01*
X143510000Y-101091000D02*
X143257000Y-100838000D01*
X139388000Y-107442000D02*
X139954000Y-106876000D01*
X160782000Y-98044000D02*
X164860000Y-98044000D01*
X154686000Y-98044000D02*
X159390000Y-98010000D01*
X154051000Y-99314000D02*
X154305000Y-99568000D01*
X151003000Y-99314000D02*
X154051000Y-99314000D01*
X150552998Y-99764002D02*
X151003000Y-99314000D01*
X150368000Y-99764002D02*
X150552998Y-99764002D01*
X150368000Y-99822000D02*
X150368000Y-99764002D01*
X150368000Y-100076000D02*
X150368000Y-99822000D01*
X150368000Y-100584000D02*
X150368000Y-100076000D01*
X139954000Y-106876000D02*
X139954000Y-106680000D01*
X164860000Y-98044000D02*
X165066000Y-98250000D01*
D40*
X140462000Y-112522000D02*
X140462000Y-110548000D01*
X140462000Y-110548000D02*
X139388000Y-109474000D01*
X139388000Y-109474000D02*
X139388000Y-107442000D01*
X138488000Y-109474000D02*
X138488000Y-111956000D01*
X138488000Y-111956000D02*
X137922000Y-112522000D01*
D37*
X170090000Y-121860000D02*
X170075000Y-122892000D01*
X170075000Y-122892000D02*
X170075000Y-123560000D01*
X163321100Y-138899460D02*
X163321100Y-137540100D01*
X162690000Y-130410000D02*
X162690000Y-124960000D01*
X162690000Y-124960000D02*
X163140000Y-124210000D01*
X163240000Y-130960000D02*
X162690000Y-130410000D01*
X164140000Y-130960000D02*
X163240000Y-130960000D01*
X164590000Y-131410000D02*
X164140000Y-130960000D01*
X164592000Y-133858000D02*
X164590000Y-131410000D01*
X164211000Y-134239000D02*
X164592000Y-133858000D01*
X163322000Y-134239000D02*
X164211000Y-134239000D01*
X162814000Y-134747000D02*
X163322000Y-134239000D01*
X162814000Y-137033000D02*
X162814000Y-134747000D01*
X163321100Y-137540100D02*
X162814000Y-137033000D01*
X162671100Y-138033100D02*
X162052000Y-137414000D01*
X162052000Y-137414000D02*
X162052000Y-130810000D01*
X162052000Y-130810000D02*
X162040000Y-124710000D01*
X162040000Y-124710000D02*
X162790000Y-123360000D01*
X162671100Y-138899460D02*
X162671100Y-138033100D01*
X171390000Y-122110000D02*
X171345000Y-123560000D01*
X170490000Y-120910000D02*
X171390000Y-122110000D01*
X166265000Y-123560000D02*
X166265000Y-122892000D01*
X166265000Y-122892000D02*
X165345984Y-121265327D01*
X162560000Y-105791000D02*
X165025000Y-105791000D01*
X162052000Y-106299000D02*
X162560000Y-105791000D01*
X162040000Y-113660000D02*
X162052000Y-107696000D01*
X162640000Y-113910000D02*
X162040000Y-113660000D01*
X163540000Y-113910000D02*
X162640000Y-113910000D01*
X163540000Y-114510000D02*
X163540000Y-113910000D01*
X163540000Y-120460000D02*
X163540000Y-114510000D01*
X164340000Y-121260000D02*
X163540000Y-120460000D01*
X165345984Y-121265327D02*
X164340000Y-121260000D01*
X165025000Y-105791000D02*
X165066000Y-105750000D01*
X167190000Y-124810000D02*
X167190000Y-124810000D01*
X167190000Y-124810000D02*
X166265000Y-123560000D01*
X164240000Y-120360000D02*
X164590000Y-120710000D01*
X164190000Y-116610000D02*
X164340000Y-116760000D01*
X164340000Y-116760000D02*
X164240000Y-120360000D01*
X165083000Y-104267000D02*
X167767000Y-104267000D01*
X169672000Y-106172000D02*
X167767000Y-104267000D01*
X169672000Y-114046000D02*
X169672000Y-106172000D01*
X169164000Y-114554000D02*
X169672000Y-114046000D01*
X169190000Y-116060000D02*
X169164000Y-114554000D01*
X167140000Y-116360000D02*
X168740000Y-116360000D01*
X168740000Y-116360000D02*
X169190000Y-116060000D01*
X166690000Y-116260000D02*
X167140000Y-116360000D01*
X167535000Y-122405000D02*
X167535000Y-123560000D01*
X165840000Y-120710000D02*
X167535000Y-122405000D01*
X165290000Y-120710000D02*
X165840000Y-120710000D01*
X164590000Y-120710000D02*
X165290000Y-120710000D01*
X166340000Y-125160000D02*
X166602500Y-125610000D01*
X166602500Y-125610000D02*
X167723333Y-125610000D01*
X167723333Y-125610000D02*
X167890000Y-125310000D01*
X167890000Y-125310000D02*
X167535000Y-123560000D01*
X167535000Y-123560000D02*
X167513000Y-123075000D01*
X167513000Y-123075000D02*
X167259000Y-122821000D01*
X165083000Y-104267000D02*
X165066000Y-104250000D01*
X165066000Y-104250000D02*
X166099000Y-104250000D01*
X157734000Y-118110000D02*
X157734000Y-114046000D01*
X156972000Y-110744000D02*
X155956000Y-109982000D01*
X155956000Y-109982000D02*
X155956000Y-109220000D01*
X155956000Y-109220000D02*
X155321000Y-108458000D01*
X155321000Y-108458000D02*
X155067000Y-108458000D01*
X153670000Y-105283000D02*
X151257000Y-102870000D01*
X151257000Y-102870000D02*
X149987000Y-102870000D01*
X145415000Y-102616000D02*
X143511000Y-102616000D01*
X143511000Y-102616000D02*
X143257000Y-102870000D01*
X145549000Y-102750000D02*
X147066000Y-102750000D01*
X145415000Y-102616000D02*
X145549000Y-102750000D01*
X161390000Y-129760000D02*
X161263000Y-129633000D01*
X161263000Y-129633000D02*
X161290000Y-129810000D01*
X161290000Y-129810000D02*
X161290000Y-119110000D01*
X161290000Y-119110000D02*
X160590000Y-118560000D01*
X157480000Y-118872000D02*
X157099000Y-118491000D01*
X145573000Y-101250000D02*
X147066000Y-101250000D01*
X145542000Y-101219000D02*
X145573000Y-101250000D01*
X150876000Y-101600000D02*
X149987000Y-101600000D01*
X152908000Y-103632000D02*
X150876000Y-101600000D01*
X155321000Y-109347000D02*
X155067000Y-109347000D01*
X156972000Y-111506000D02*
X155321000Y-110490000D01*
X155321000Y-110490000D02*
X155321000Y-109347000D01*
X156972000Y-113919000D02*
X156972000Y-111506000D01*
X156972000Y-111506000D02*
X156972000Y-111506000D01*
X157099000Y-114046000D02*
X156972000Y-113919000D01*
X157099000Y-118491000D02*
X157099000Y-114046000D01*
X157099000Y-118491000D02*
X157099000Y-118491000D01*
X156972000Y-119380000D02*
X157480000Y-118872000D01*
X156972000Y-120650000D02*
X156972000Y-119380000D01*
X157607000Y-121285000D02*
X156972000Y-120650000D01*
X159893000Y-121285000D02*
X157607000Y-121285000D01*
X160655000Y-122047000D02*
X159893000Y-121285000D01*
X160640000Y-130410000D02*
X160655000Y-122047000D01*
X157861000Y-128778000D02*
X157353000Y-128270000D01*
X157353000Y-128270000D02*
X157353000Y-123444000D01*
X157353000Y-123444000D02*
X152890000Y-118960000D01*
X157861000Y-128778000D02*
X157861000Y-129032000D01*
X150140000Y-115560000D02*
X150340000Y-116210000D01*
X149690000Y-114060000D02*
X150140000Y-115560000D01*
X149352000Y-107061000D02*
X149352000Y-100584000D01*
X143257000Y-104902000D02*
X143256000Y-104901000D01*
X143256000Y-104901000D02*
X143256000Y-104521000D01*
X143256000Y-104521000D02*
X143383000Y-104521000D01*
X143383000Y-104521000D02*
X144653000Y-103251000D01*
X145995000Y-99750000D02*
X147066000Y-99750000D01*
X145669000Y-100076000D02*
X145995000Y-99750000D01*
X158242000Y-132334000D02*
X158242000Y-129413000D01*
X158242000Y-129413000D02*
X157861000Y-129032000D01*
X145034000Y-110490000D02*
X145669000Y-110490000D01*
X145669000Y-110490000D02*
X148717000Y-107442000D01*
X148717000Y-107442000D02*
X148717000Y-99060000D01*
X147907000Y-98250000D02*
X148717000Y-99060000D01*
X149690000Y-116643000D02*
X149690000Y-116760000D01*
X148890000Y-114410000D02*
X149690000Y-116643000D01*
X156845000Y-129667000D02*
X154559000Y-129667000D01*
X154559000Y-129667000D02*
X154305000Y-129413000D01*
X154305000Y-129413000D02*
X154305000Y-121666000D01*
X154305000Y-121666000D02*
X151790000Y-118910000D01*
X147907000Y-98250000D02*
X147066000Y-98250000D01*
X155702000Y-132334000D02*
X155702000Y-131572000D01*
X155702000Y-131572000D02*
X156845000Y-130429000D01*
X156845000Y-130429000D02*
X156845000Y-129667000D01*
X144272000Y-131572000D02*
X144653000Y-131191000D01*
X144272000Y-132715000D02*
X144272000Y-131572000D01*
X144272000Y-133985000D02*
X144272000Y-132715000D01*
X145288000Y-135001000D02*
X144272000Y-133985000D01*
X148082000Y-133604000D02*
X146812000Y-134874000D01*
X148082000Y-132334000D02*
X148082000Y-133604000D01*
X147447000Y-125984000D02*
X147444000Y-126460000D01*
X143891000Y-109855000D02*
X143891000Y-106934000D01*
X144272000Y-110236000D02*
X143891000Y-109855000D01*
X142494000Y-115189000D02*
X143383000Y-114300000D01*
X142494000Y-115697000D02*
X142494000Y-115189000D01*
X142551998Y-115754998D02*
X142494000Y-115697000D01*
X142551998Y-120580998D02*
X142551998Y-115754998D01*
X142875000Y-120904000D02*
X142551998Y-120580998D01*
X148590000Y-120904000D02*
X142875000Y-120904000D01*
X150876000Y-123190000D02*
X148590000Y-120904000D01*
X150876000Y-124841000D02*
X150876000Y-123190000D01*
X150749000Y-124968000D02*
X150876000Y-124841000D01*
X148082000Y-124968000D02*
X150749000Y-124968000D01*
X147701000Y-125349000D02*
X148082000Y-124968000D01*
X147701000Y-125730000D02*
X147701000Y-125349000D01*
X147447000Y-125984000D02*
X147701000Y-125730000D01*
X147444000Y-126460000D02*
X147190000Y-126460000D01*
X144526000Y-131064000D02*
X144653000Y-131191000D01*
X144399000Y-131064000D02*
X144526000Y-131064000D01*
X143891000Y-106934000D02*
X143257000Y-106934000D01*
X144416000Y-104250000D02*
X147066000Y-104250000D01*
X143891000Y-104775000D02*
X144416000Y-104250000D01*
X143891000Y-106934000D02*
X143891000Y-104775000D01*
X151765000Y-130519714D02*
X151765000Y-123063000D01*
X143257000Y-108966000D02*
X143256000Y-108967000D01*
X143256000Y-108967000D02*
X143256000Y-109728000D01*
X146517000Y-106299000D02*
X147066000Y-105750000D01*
X145669000Y-106299000D02*
X146517000Y-106299000D01*
X145415000Y-106553000D02*
X145669000Y-106299000D01*
X145415000Y-108585000D02*
X145415000Y-106553000D01*
X145034000Y-108966000D02*
X145415000Y-108585000D01*
X144526000Y-108966000D02*
X145034000Y-108966000D01*
X144272000Y-114300000D02*
X144272000Y-111125000D01*
X144272000Y-111125000D02*
X143256000Y-110109000D01*
X143256000Y-110109000D02*
X143256000Y-108967000D01*
X146050000Y-130810000D02*
X151257000Y-130810000D01*
X151257000Y-130810000D02*
X151765000Y-130519714D01*
X145542000Y-131318000D02*
X146050000Y-130810000D01*
X143002000Y-115570000D02*
X144272000Y-114300000D01*
X143002000Y-120269000D02*
X143002000Y-115570000D01*
X143129000Y-120396000D02*
X143002000Y-120269000D01*
X149098000Y-120396000D02*
X143129000Y-120396000D01*
X151765000Y-123063000D02*
X149098000Y-120396000D01*
X145542000Y-132334000D02*
X145542000Y-131318000D01*
X145669000Y-132461000D02*
X145669000Y-133350000D01*
X146050000Y-133731000D02*
X145669000Y-133350000D01*
X146050000Y-133731000D02*
X146050000Y-138762000D01*
X145669000Y-132461000D02*
X145542000Y-132334000D01*
X163384000Y-107250000D02*
X163195000Y-107061000D01*
X163195000Y-107061000D02*
X152527000Y-107061000D01*
X152527000Y-107061000D02*
X151892000Y-107696000D01*
X151892000Y-107696000D02*
X151940000Y-115610000D01*
X151940000Y-115610000D02*
X150140000Y-117360000D01*
X150140000Y-117360000D02*
X149440000Y-117560000D01*
X149440000Y-117560000D02*
X148940000Y-118460000D01*
X148940000Y-118460000D02*
X148990000Y-118310000D01*
X165066000Y-107250000D02*
X163384000Y-107250000D01*
X165066000Y-101250000D02*
X163734000Y-101250000D01*
X148140000Y-113922500D02*
X148140000Y-115641579D01*
X148140000Y-115641579D02*
X148890000Y-117260000D01*
X149340000Y-113510000D02*
X148140000Y-113922500D01*
X149352000Y-109093000D02*
X149340000Y-113510000D01*
X151892000Y-106553000D02*
X149352000Y-109093000D01*
X155829000Y-106553000D02*
X151892000Y-106553000D01*
X157099000Y-105283000D02*
X155829000Y-106553000D01*
X159639000Y-105283000D02*
X157099000Y-105283000D01*
X160528000Y-104394000D02*
X159639000Y-105283000D01*
X160528000Y-101784998D02*
X160528000Y-104394000D01*
X160470002Y-101727000D02*
X160528000Y-101784998D01*
X160470002Y-101657998D02*
X160470002Y-101727000D01*
X161036000Y-101092000D02*
X160470002Y-101657998D01*
X163576000Y-101092000D02*
X161036000Y-101092000D01*
X163734000Y-101250000D02*
X163576000Y-101092000D01*
X163092000Y-96750000D02*
X162814000Y-97028000D01*
X162814000Y-97028000D02*
X160655000Y-97028000D01*
X160655000Y-97028000D02*
X160020000Y-97663000D01*
X160020000Y-97663000D02*
X160020000Y-104013000D01*
X160020000Y-104013000D02*
X159258000Y-104775000D01*
X159258000Y-104775000D02*
X156972000Y-104775000D01*
X156972000Y-104775000D02*
X155448000Y-106045000D01*
X155448000Y-106045000D02*
X151638000Y-106045000D01*
X151638000Y-106045000D02*
X146812000Y-110363000D01*
X146812000Y-110363000D02*
X146840000Y-114710000D01*
X146840000Y-114710000D02*
X147990000Y-117260000D01*
X163092000Y-96750000D02*
X165066000Y-96750000D01*
D41*
G36*
X141942330Y-133578415D02*
X142113000Y-133692453D01*
X142113000Y-134620000D01*
X137541000Y-134620000D01*
X137541000Y-133941559D01*
X137922000Y-134017345D01*
X138495489Y-133903271D01*
X138981670Y-133578415D01*
X139192000Y-133263634D01*
X139402330Y-133578415D01*
X139888511Y-133903271D01*
X140462000Y-134017345D01*
X141035489Y-133903271D01*
X141521670Y-133578415D01*
X141732000Y-133263634D01*
X141942330Y-133578415D01*
X141942330Y-133578415D01*
G37*
X141942330Y-133578415D02*
X142113000Y-133692453D01*
X142113000Y-134620000D01*
X137541000Y-134620000D01*
X137541000Y-133941559D01*
X137922000Y-134017345D01*
X138495489Y-133903271D01*
X138981670Y-133578415D01*
X139192000Y-133263634D01*
X139402330Y-133578415D01*
X139888511Y-133903271D01*
X140462000Y-134017345D01*
X141035489Y-133903271D01*
X141521670Y-133578415D01*
X141732000Y-133263634D01*
X141942330Y-133578415D01*
G36*
X145399000Y-123920250D02*
X145557750Y-124079000D01*
X146407000Y-124079000D01*
X146407000Y-124059000D01*
X146661000Y-124059000D01*
X146661000Y-124079000D01*
X146681000Y-124079000D01*
X146681000Y-124333000D01*
X146661000Y-124333000D01*
X146661000Y-124353000D01*
X146407000Y-124353000D01*
X146407000Y-124333000D01*
X145557750Y-124333000D01*
X145399000Y-124491750D01*
X145399000Y-125132310D01*
X145495673Y-125365699D01*
X145674302Y-125544327D01*
X145907691Y-125641000D01*
X146248250Y-125641000D01*
X146406998Y-125482252D01*
X146406998Y-125607861D01*
X146381590Y-125613006D01*
X146339965Y-125641447D01*
X146312685Y-125683841D01*
X146304000Y-125730000D01*
X146304000Y-126155587D01*
X146269779Y-126238000D01*
X145542000Y-126238000D01*
X145492590Y-126248006D01*
X145450965Y-126276447D01*
X145423685Y-126318841D01*
X145415000Y-126365000D01*
X145415000Y-126879559D01*
X145386560Y-127020000D01*
X145386560Y-129520000D01*
X145415000Y-129671145D01*
X145415000Y-130302000D01*
X144959466Y-130302000D01*
X144929327Y-130271808D01*
X144585799Y-130129162D01*
X144223449Y-130128846D01*
X144393698Y-130058327D01*
X144572327Y-129879699D01*
X144669000Y-129646310D01*
X144669000Y-128555750D01*
X144510250Y-128397000D01*
X143661000Y-128397000D01*
X143661000Y-129996250D01*
X143819750Y-130155000D01*
X144150516Y-130155000D01*
X143870057Y-130270883D01*
X143838886Y-130302000D01*
X142240000Y-130302000D01*
X142190590Y-130312006D01*
X142148965Y-130340447D01*
X142121685Y-130382841D01*
X142113000Y-130429000D01*
X142113000Y-130975547D01*
X141942330Y-131089585D01*
X141732000Y-131404366D01*
X141521670Y-131089585D01*
X141035489Y-130764729D01*
X140462000Y-130650655D01*
X139888511Y-130764729D01*
X139402330Y-131089585D01*
X139192000Y-131404366D01*
X138981670Y-131089585D01*
X138495489Y-130764729D01*
X137922000Y-130650655D01*
X137541000Y-130726441D01*
X137541000Y-128555750D01*
X142399000Y-128555750D01*
X142399000Y-129646310D01*
X142495673Y-129879699D01*
X142674302Y-130058327D01*
X142907691Y-130155000D01*
X143248250Y-130155000D01*
X143407000Y-129996250D01*
X143407000Y-128397000D01*
X142557750Y-128397000D01*
X142399000Y-128555750D01*
X137541000Y-128555750D01*
X137541000Y-128397000D01*
X138853414Y-128397000D01*
X139123304Y-128467256D01*
X139207803Y-128397000D01*
X139684197Y-128397000D01*
X139768696Y-128467256D01*
X140038586Y-128397000D01*
X141732000Y-128397000D01*
X141781410Y-128386994D01*
X141823035Y-128358553D01*
X141850315Y-128316159D01*
X141859000Y-128270000D01*
X141859000Y-126893690D01*
X142399000Y-126893690D01*
X142399000Y-127984250D01*
X142557750Y-128143000D01*
X143407000Y-128143000D01*
X143407000Y-126543750D01*
X143661000Y-126543750D01*
X143661000Y-128143000D01*
X144510250Y-128143000D01*
X144669000Y-127984250D01*
X144669000Y-126893690D01*
X144572327Y-126660301D01*
X144393698Y-126481673D01*
X144160309Y-126385000D01*
X143819750Y-126385000D01*
X143661000Y-126543750D01*
X143407000Y-126543750D01*
X143248250Y-126385000D01*
X142907691Y-126385000D01*
X142674302Y-126481673D01*
X142495673Y-126660301D01*
X142399000Y-126893690D01*
X141859000Y-126893690D01*
X141859000Y-126111000D01*
X144526000Y-126111000D01*
X144575410Y-126100994D01*
X144617035Y-126072553D01*
X144644315Y-126030159D01*
X144653000Y-125984000D01*
X144653000Y-125146441D01*
X144681440Y-125006000D01*
X144681440Y-123571000D01*
X145288000Y-123571000D01*
X145337410Y-123560994D01*
X145379035Y-123532553D01*
X145399000Y-123501527D01*
X145399000Y-123920250D01*
X145399000Y-123920250D01*
G37*
X145399000Y-123920250D02*
X145557750Y-124079000D01*
X146407000Y-124079000D01*
X146407000Y-124059000D01*
X146661000Y-124059000D01*
X146661000Y-124079000D01*
X146681000Y-124079000D01*
X146681000Y-124333000D01*
X146661000Y-124333000D01*
X146661000Y-124353000D01*
X146407000Y-124353000D01*
X146407000Y-124333000D01*
X145557750Y-124333000D01*
X145399000Y-124491750D01*
X145399000Y-125132310D01*
X145495673Y-125365699D01*
X145674302Y-125544327D01*
X145907691Y-125641000D01*
X146248250Y-125641000D01*
X146406998Y-125482252D01*
X146406998Y-125607861D01*
X146381590Y-125613006D01*
X146339965Y-125641447D01*
X146312685Y-125683841D01*
X146304000Y-125730000D01*
X146304000Y-126155587D01*
X146269779Y-126238000D01*
X145542000Y-126238000D01*
X145492590Y-126248006D01*
X145450965Y-126276447D01*
X145423685Y-126318841D01*
X145415000Y-126365000D01*
X145415000Y-126879559D01*
X145386560Y-127020000D01*
X145386560Y-129520000D01*
X145415000Y-129671145D01*
X145415000Y-130302000D01*
X144959466Y-130302000D01*
X144929327Y-130271808D01*
X144585799Y-130129162D01*
X144223449Y-130128846D01*
X144393698Y-130058327D01*
X144572327Y-129879699D01*
X144669000Y-129646310D01*
X144669000Y-128555750D01*
X144510250Y-128397000D01*
X143661000Y-128397000D01*
X143661000Y-129996250D01*
X143819750Y-130155000D01*
X144150516Y-130155000D01*
X143870057Y-130270883D01*
X143838886Y-130302000D01*
X142240000Y-130302000D01*
X142190590Y-130312006D01*
X142148965Y-130340447D01*
X142121685Y-130382841D01*
X142113000Y-130429000D01*
X142113000Y-130975547D01*
X141942330Y-131089585D01*
X141732000Y-131404366D01*
X141521670Y-131089585D01*
X141035489Y-130764729D01*
X140462000Y-130650655D01*
X139888511Y-130764729D01*
X139402330Y-131089585D01*
X139192000Y-131404366D01*
X138981670Y-131089585D01*
X138495489Y-130764729D01*
X137922000Y-130650655D01*
X137541000Y-130726441D01*
X137541000Y-128555750D01*
X142399000Y-128555750D01*
X142399000Y-129646310D01*
X142495673Y-129879699D01*
X142674302Y-130058327D01*
X142907691Y-130155000D01*
X143248250Y-130155000D01*
X143407000Y-129996250D01*
X143407000Y-128397000D01*
X142557750Y-128397000D01*
X142399000Y-128555750D01*
X137541000Y-128555750D01*
X137541000Y-128397000D01*
X138853414Y-128397000D01*
X139123304Y-128467256D01*
X139207803Y-128397000D01*
X139684197Y-128397000D01*
X139768696Y-128467256D01*
X140038586Y-128397000D01*
X141732000Y-128397000D01*
X141781410Y-128386994D01*
X141823035Y-128358553D01*
X141850315Y-128316159D01*
X141859000Y-128270000D01*
X141859000Y-126893690D01*
X142399000Y-126893690D01*
X142399000Y-127984250D01*
X142557750Y-128143000D01*
X143407000Y-128143000D01*
X143407000Y-126543750D01*
X143661000Y-126543750D01*
X143661000Y-128143000D01*
X144510250Y-128143000D01*
X144669000Y-127984250D01*
X144669000Y-126893690D01*
X144572327Y-126660301D01*
X144393698Y-126481673D01*
X144160309Y-126385000D01*
X143819750Y-126385000D01*
X143661000Y-126543750D01*
X143407000Y-126543750D01*
X143248250Y-126385000D01*
X142907691Y-126385000D01*
X142674302Y-126481673D01*
X142495673Y-126660301D01*
X142399000Y-126893690D01*
X141859000Y-126893690D01*
X141859000Y-126111000D01*
X144526000Y-126111000D01*
X144575410Y-126100994D01*
X144617035Y-126072553D01*
X144644315Y-126030159D01*
X144653000Y-125984000D01*
X144653000Y-125146441D01*
X144681440Y-125006000D01*
X144681440Y-123571000D01*
X145288000Y-123571000D01*
X145337410Y-123560994D01*
X145379035Y-123532553D01*
X145399000Y-123501527D01*
X145399000Y-123920250D01*
M02*
