G04 #@! TF.FileFunction,Legend,Top*
%FSLAX46Y46*%
G04 Gerber Fmt 4.6, Leading zero omitted, Abs format (unit mm)*
G04 Created by KiCad (PCBNEW 4.0.3+e1-6302~38~ubuntu14.04.1-stable) date Tue Aug 30 16:59:56 2016*
%MOMM*%
%LPD*%
G01*
G04 APERTURE LIST*
%ADD10C,0.100000*%
%ADD11C,0.150000*%
%ADD12C,0.152400*%
G04 APERTURE END LIST*
D10*
D11*
X171065000Y-125560000D02*
X170815000Y-125560000D01*
X170815000Y-124760000D02*
X171065000Y-124760000D01*
X172615000Y-124760000D02*
X172865000Y-124760000D01*
X172865000Y-125560000D02*
X172615000Y-125560000D01*
X161740000Y-119035000D02*
X159740000Y-119035000D01*
X159740000Y-121085000D02*
X161740000Y-121085000D01*
X164633000Y-116022800D02*
X164633000Y-114397200D01*
X161889800Y-114397200D02*
X161889800Y-116022800D01*
X161889800Y-116022800D02*
X165090200Y-116022800D01*
X165090200Y-116022800D02*
X165090200Y-114397200D01*
X165090200Y-114397200D02*
X161889800Y-114397200D01*
X144034000Y-125231000D02*
X146034000Y-125231000D01*
X146034000Y-123181000D02*
X144034000Y-123181000D01*
X170440000Y-114185000D02*
X168440000Y-114185000D01*
X168440000Y-116235000D02*
X170440000Y-116235000D01*
X144034000Y-129745000D02*
X146034000Y-129745000D01*
X146034000Y-126795000D02*
X144034000Y-126795000D01*
X143205200Y-97917000D02*
X144830800Y-97917000D01*
X144830800Y-95173800D02*
X143205200Y-95173800D01*
X143205200Y-95173800D02*
X143205200Y-98374200D01*
X143205200Y-98374200D02*
X144830800Y-98374200D01*
X144830800Y-98374200D02*
X144830800Y-95173800D01*
X154852000Y-135898000D02*
X154852000Y-136898000D01*
X156552000Y-136898000D02*
X156552000Y-135898000D01*
X144978000Y-121310000D02*
X136678000Y-121310000D01*
X136678000Y-114910000D02*
X144978000Y-114910000D01*
X136646000Y-123272000D02*
X141146000Y-123272000D01*
X141146000Y-123272000D02*
X141146000Y-129172000D01*
X141146000Y-129172000D02*
X136646000Y-129172000D01*
X136646000Y-129172000D02*
X136646000Y-123272000D01*
X141146000Y-125722000D02*
X140646000Y-125722000D01*
X140646000Y-125722000D02*
X140646000Y-123772000D01*
X140646000Y-123772000D02*
X137146000Y-123772000D01*
X137146000Y-123772000D02*
X137146000Y-128672000D01*
X137146000Y-128672000D02*
X140646000Y-128672000D01*
X140646000Y-128672000D02*
X140646000Y-126722000D01*
X140646000Y-126722000D02*
X141146000Y-126722000D01*
X139946000Y-123272000D02*
X139946000Y-123772000D01*
X138646000Y-123272000D02*
X138646000Y-123772000D01*
X139946000Y-128672000D02*
X139946000Y-129172000D01*
X138646000Y-128672000D02*
X138646000Y-129172000D01*
X141146000Y-124922000D02*
X141346000Y-124922000D01*
X141346000Y-124922000D02*
X141346000Y-124622000D01*
X141346000Y-124622000D02*
X141146000Y-124622000D01*
X141246000Y-124922000D02*
X141246000Y-124622000D01*
X137146000Y-126122000D02*
X137646000Y-126122000D01*
X137646000Y-126122000D02*
X137646000Y-126322000D01*
X137646000Y-126322000D02*
X137146000Y-126322000D01*
X137146000Y-126222000D02*
X137646000Y-126222000D01*
X139188000Y-108949000D02*
X138688000Y-108949000D01*
X138688000Y-109999000D02*
X139188000Y-109999000D01*
X139188000Y-106917000D02*
X138688000Y-106917000D01*
X138688000Y-107967000D02*
X139188000Y-107967000D01*
X143117000Y-100398000D02*
X142887000Y-100398000D01*
X142887000Y-101278000D02*
X143117000Y-101278000D01*
X142887000Y-103310000D02*
X143117000Y-103310000D01*
X143117000Y-102430000D02*
X142887000Y-102430000D01*
X143117000Y-104462000D02*
X142887000Y-104462000D01*
X142887000Y-105342000D02*
X143117000Y-105342000D01*
X143117000Y-106494000D02*
X142887000Y-106494000D01*
X142887000Y-107374000D02*
X143117000Y-107374000D01*
X143117000Y-108526000D02*
X142887000Y-108526000D01*
X142887000Y-109406000D02*
X143117000Y-109406000D01*
X151062000Y-136513000D02*
X151062000Y-136283000D01*
X150182000Y-136283000D02*
X150182000Y-136513000D01*
X152722000Y-135267000D02*
X152722000Y-135497000D01*
X153602000Y-135497000D02*
X153602000Y-135267000D01*
X146800000Y-140462000D02*
G75*
G03X146800000Y-140462000I-750000J0D01*
G01*
X147150000Y-142112000D02*
X147450000Y-142112000D01*
X147450000Y-142112000D02*
X147450000Y-138812000D01*
X147450000Y-138812000D02*
X147150000Y-138812000D01*
X144950000Y-142112000D02*
X144650000Y-142112000D01*
X144650000Y-142112000D02*
X144650000Y-138812000D01*
X144650000Y-138812000D02*
X144950000Y-138812000D01*
X151880000Y-140462000D02*
G75*
G03X151880000Y-140462000I-750000J0D01*
G01*
X152230000Y-142112000D02*
X152530000Y-142112000D01*
X152530000Y-142112000D02*
X152530000Y-138812000D01*
X152530000Y-138812000D02*
X152230000Y-138812000D01*
X150030000Y-142112000D02*
X149730000Y-142112000D01*
X149730000Y-142112000D02*
X149730000Y-138812000D01*
X149730000Y-138812000D02*
X150030000Y-138812000D01*
X164365000Y-122935000D02*
X164390000Y-122935000D01*
X164365000Y-118785000D02*
X164470000Y-118785000D01*
X174515000Y-118785000D02*
X174410000Y-118785000D01*
X174515000Y-122935000D02*
X174410000Y-122935000D01*
X164365000Y-122935000D02*
X164365000Y-118785000D01*
X174515000Y-122935000D02*
X174515000Y-118785000D01*
X164390000Y-122935000D02*
X164390000Y-124310000D01*
X151130000Y-122682000D02*
X148082000Y-122682000D01*
X148082000Y-122682000D02*
X148082000Y-129794000D01*
X148082000Y-129794000D02*
X151130000Y-129794000D01*
X154178000Y-122682000D02*
X154940000Y-122682000D01*
X154940000Y-122682000D02*
X157226000Y-124206000D01*
X157226000Y-124206000D02*
X157226000Y-128270000D01*
X157226000Y-128270000D02*
X154940000Y-129794000D01*
X154940000Y-129794000D02*
X154178000Y-129794000D01*
D12*
X147066000Y-88265000D02*
X147066000Y-94450000D01*
X165049200Y-107850000D02*
X165049200Y-108229400D01*
X147066000Y-107850000D02*
X147066000Y-108229400D01*
X165049200Y-88265000D02*
X165049200Y-94450000D01*
X147066000Y-108267500D02*
X165049200Y-108267500D01*
X165036500Y-88265000D02*
X147066000Y-88265000D01*
D11*
X158971100Y-144279460D02*
X167671100Y-144279460D01*
X158971100Y-137874460D02*
X167671100Y-137874460D01*
X167671100Y-137874460D02*
X167671100Y-144279460D01*
X167671100Y-143049460D02*
X158971100Y-143049460D01*
X158971100Y-144279460D02*
X158971100Y-137874460D01*
X174239000Y-127059240D02*
X174439660Y-127460560D01*
X174439660Y-127460560D02*
X174541260Y-128060000D01*
X174541260Y-128060000D02*
X174439660Y-128560380D01*
X174439660Y-128560380D02*
X174040880Y-129258880D01*
X174040880Y-129258880D02*
X173438900Y-129660200D01*
X173438900Y-129660200D02*
X172839460Y-129860860D01*
X172839460Y-129860860D02*
X166240540Y-129860860D01*
X166240540Y-129860860D02*
X165539500Y-129660200D01*
X165539500Y-129660200D02*
X165140720Y-129360480D01*
X165140720Y-129360480D02*
X164739400Y-128860100D01*
X164739400Y-128860100D02*
X164538740Y-128260660D01*
X164538740Y-128260660D02*
X164538740Y-127760280D01*
X164538740Y-127760280D02*
X164739400Y-127259900D01*
X164739400Y-127259900D02*
X165239780Y-126660460D01*
X165239780Y-126660460D02*
X165740160Y-126360740D01*
X165740160Y-126360740D02*
X166240540Y-126259140D01*
X166339600Y-126259140D02*
X172941060Y-126259140D01*
X172941060Y-126259140D02*
X173339840Y-126360740D01*
X173339840Y-126360740D02*
X173840220Y-126660460D01*
X173840220Y-126660460D02*
X174340600Y-127160840D01*
X166349760Y-125730820D02*
X165890020Y-125779080D01*
X165890020Y-125779080D02*
X165491240Y-125890840D01*
X165491240Y-125890840D02*
X165059440Y-126109280D01*
X165059440Y-126109280D02*
X164769880Y-126340420D01*
X164769880Y-126340420D02*
X164439680Y-126690940D01*
X164439680Y-126690940D02*
X164150120Y-127229420D01*
X164150120Y-127229420D02*
X164020580Y-127828860D01*
X164020580Y-127828860D02*
X164020580Y-128339400D01*
X164020580Y-128339400D02*
X164190760Y-129040440D01*
X164190760Y-129040440D02*
X164589540Y-129629720D01*
X164589540Y-129629720D02*
X165049280Y-130000560D01*
X165049280Y-130000560D02*
X165470920Y-130208840D01*
X165470920Y-130208840D02*
X165920500Y-130368860D01*
X165920500Y-130368860D02*
X166359920Y-130399340D01*
X173700520Y-130180900D02*
X174078980Y-129959920D01*
X174078980Y-129959920D02*
X174399020Y-129680520D01*
X174399020Y-129680520D02*
X174650480Y-129350320D01*
X174650480Y-129350320D02*
X174950200Y-128799140D01*
X174950200Y-128799140D02*
X175059420Y-128329240D01*
X175059420Y-128329240D02*
X175079740Y-127869500D01*
X175079740Y-127869500D02*
X174990840Y-127409760D01*
X174990840Y-127409760D02*
X174800340Y-126960180D01*
X174800340Y-126960180D02*
X174439660Y-126490280D01*
X174439660Y-126490280D02*
X174089140Y-126170240D01*
X174089140Y-126170240D02*
X173700520Y-125939100D01*
X173700520Y-125939100D02*
X173271260Y-125799400D01*
X173271260Y-125799400D02*
X172829300Y-125730820D01*
X166339600Y-130389180D02*
X172791200Y-130389180D01*
X172791200Y-130389180D02*
X173210300Y-130351080D01*
X173210300Y-130351080D02*
X173700520Y-130180900D01*
X166339600Y-125730820D02*
X172791200Y-125730820D01*
X169073334Y-125417143D02*
X169025715Y-125464762D01*
X168882858Y-125512381D01*
X168787620Y-125512381D01*
X168644762Y-125464762D01*
X168549524Y-125369524D01*
X168501905Y-125274286D01*
X168454286Y-125083810D01*
X168454286Y-124940952D01*
X168501905Y-124750476D01*
X168549524Y-124655238D01*
X168644762Y-124560000D01*
X168787620Y-124512381D01*
X168882858Y-124512381D01*
X169025715Y-124560000D01*
X169073334Y-124607619D01*
X170025715Y-125512381D02*
X169454286Y-125512381D01*
X169740000Y-125512381D02*
X169740000Y-124512381D01*
X169644762Y-124655238D01*
X169549524Y-124750476D01*
X169454286Y-124798095D01*
X174173334Y-125467143D02*
X174125715Y-125514762D01*
X173982858Y-125562381D01*
X173887620Y-125562381D01*
X173744762Y-125514762D01*
X173649524Y-125419524D01*
X173601905Y-125324286D01*
X173554286Y-125133810D01*
X173554286Y-124990952D01*
X173601905Y-124800476D01*
X173649524Y-124705238D01*
X173744762Y-124610000D01*
X173887620Y-124562381D01*
X173982858Y-124562381D01*
X174125715Y-124610000D01*
X174173334Y-124657619D01*
X174554286Y-124657619D02*
X174601905Y-124610000D01*
X174697143Y-124562381D01*
X174935239Y-124562381D01*
X175030477Y-124610000D01*
X175078096Y-124657619D01*
X175125715Y-124752857D01*
X175125715Y-124848095D01*
X175078096Y-124990952D01*
X174506667Y-125562381D01*
X175125715Y-125562381D01*
X160573334Y-122449143D02*
X160525715Y-122496762D01*
X160382858Y-122544381D01*
X160287620Y-122544381D01*
X160144762Y-122496762D01*
X160049524Y-122401524D01*
X160001905Y-122306286D01*
X159954286Y-122115810D01*
X159954286Y-121972952D01*
X160001905Y-121782476D01*
X160049524Y-121687238D01*
X160144762Y-121592000D01*
X160287620Y-121544381D01*
X160382858Y-121544381D01*
X160525715Y-121592000D01*
X160573334Y-121639619D01*
X160906667Y-121544381D02*
X161525715Y-121544381D01*
X161192381Y-121925333D01*
X161335239Y-121925333D01*
X161430477Y-121972952D01*
X161478096Y-122020571D01*
X161525715Y-122115810D01*
X161525715Y-122353905D01*
X161478096Y-122449143D01*
X161430477Y-122496762D01*
X161335239Y-122544381D01*
X161049524Y-122544381D01*
X160954286Y-122496762D01*
X160906667Y-122449143D01*
X159973334Y-115417143D02*
X159925715Y-115464762D01*
X159782858Y-115512381D01*
X159687620Y-115512381D01*
X159544762Y-115464762D01*
X159449524Y-115369524D01*
X159401905Y-115274286D01*
X159354286Y-115083810D01*
X159354286Y-114940952D01*
X159401905Y-114750476D01*
X159449524Y-114655238D01*
X159544762Y-114560000D01*
X159687620Y-114512381D01*
X159782858Y-114512381D01*
X159925715Y-114560000D01*
X159973334Y-114607619D01*
X160830477Y-114845714D02*
X160830477Y-115512381D01*
X160592381Y-114464762D02*
X160354286Y-115179048D01*
X160973334Y-115179048D01*
X146899334Y-123039143D02*
X146851715Y-123086762D01*
X146708858Y-123134381D01*
X146613620Y-123134381D01*
X146470762Y-123086762D01*
X146375524Y-122991524D01*
X146327905Y-122896286D01*
X146280286Y-122705810D01*
X146280286Y-122562952D01*
X146327905Y-122372476D01*
X146375524Y-122277238D01*
X146470762Y-122182000D01*
X146613620Y-122134381D01*
X146708858Y-122134381D01*
X146851715Y-122182000D01*
X146899334Y-122229619D01*
X147804096Y-122134381D02*
X147327905Y-122134381D01*
X147280286Y-122610571D01*
X147327905Y-122562952D01*
X147423143Y-122515333D01*
X147661239Y-122515333D01*
X147756477Y-122562952D01*
X147804096Y-122610571D01*
X147851715Y-122705810D01*
X147851715Y-122943905D01*
X147804096Y-123039143D01*
X147756477Y-123086762D01*
X147661239Y-123134381D01*
X147423143Y-123134381D01*
X147327905Y-123086762D01*
X147280286Y-123039143D01*
X172623334Y-115717143D02*
X172575715Y-115764762D01*
X172432858Y-115812381D01*
X172337620Y-115812381D01*
X172194762Y-115764762D01*
X172099524Y-115669524D01*
X172051905Y-115574286D01*
X172004286Y-115383810D01*
X172004286Y-115240952D01*
X172051905Y-115050476D01*
X172099524Y-114955238D01*
X172194762Y-114860000D01*
X172337620Y-114812381D01*
X172432858Y-114812381D01*
X172575715Y-114860000D01*
X172623334Y-114907619D01*
X173480477Y-114812381D02*
X173290000Y-114812381D01*
X173194762Y-114860000D01*
X173147143Y-114907619D01*
X173051905Y-115050476D01*
X173004286Y-115240952D01*
X173004286Y-115621905D01*
X173051905Y-115717143D01*
X173099524Y-115764762D01*
X173194762Y-115812381D01*
X173385239Y-115812381D01*
X173480477Y-115764762D01*
X173528096Y-115717143D01*
X173575715Y-115621905D01*
X173575715Y-115383810D01*
X173528096Y-115288571D01*
X173480477Y-115240952D01*
X173385239Y-115193333D01*
X173194762Y-115193333D01*
X173099524Y-115240952D01*
X173051905Y-115288571D01*
X173004286Y-115383810D01*
X146899334Y-126595143D02*
X146851715Y-126642762D01*
X146708858Y-126690381D01*
X146613620Y-126690381D01*
X146470762Y-126642762D01*
X146375524Y-126547524D01*
X146327905Y-126452286D01*
X146280286Y-126261810D01*
X146280286Y-126118952D01*
X146327905Y-125928476D01*
X146375524Y-125833238D01*
X146470762Y-125738000D01*
X146613620Y-125690381D01*
X146708858Y-125690381D01*
X146851715Y-125738000D01*
X146899334Y-125785619D01*
X147232667Y-125690381D02*
X147899334Y-125690381D01*
X147470762Y-126690381D01*
X145847143Y-96926666D02*
X145894762Y-96974285D01*
X145942381Y-97117142D01*
X145942381Y-97212380D01*
X145894762Y-97355238D01*
X145799524Y-97450476D01*
X145704286Y-97498095D01*
X145513810Y-97545714D01*
X145370952Y-97545714D01*
X145180476Y-97498095D01*
X145085238Y-97450476D01*
X144990000Y-97355238D01*
X144942381Y-97212380D01*
X144942381Y-97117142D01*
X144990000Y-96974285D01*
X145037619Y-96926666D01*
X145370952Y-96355238D02*
X145323333Y-96450476D01*
X145275714Y-96498095D01*
X145180476Y-96545714D01*
X145132857Y-96545714D01*
X145037619Y-96498095D01*
X144990000Y-96450476D01*
X144942381Y-96355238D01*
X144942381Y-96164761D01*
X144990000Y-96069523D01*
X145037619Y-96021904D01*
X145132857Y-95974285D01*
X145180476Y-95974285D01*
X145275714Y-96021904D01*
X145323333Y-96069523D01*
X145370952Y-96164761D01*
X145370952Y-96355238D01*
X145418571Y-96450476D01*
X145466190Y-96498095D01*
X145561429Y-96545714D01*
X145751905Y-96545714D01*
X145847143Y-96498095D01*
X145894762Y-96450476D01*
X145942381Y-96355238D01*
X145942381Y-96164761D01*
X145894762Y-96069523D01*
X145847143Y-96021904D01*
X145751905Y-95974285D01*
X145561429Y-95974285D01*
X145466190Y-96021904D01*
X145418571Y-96069523D01*
X145370952Y-96164761D01*
X155535334Y-139295143D02*
X155487715Y-139342762D01*
X155344858Y-139390381D01*
X155249620Y-139390381D01*
X155106762Y-139342762D01*
X155011524Y-139247524D01*
X154963905Y-139152286D01*
X154916286Y-138961810D01*
X154916286Y-138818952D01*
X154963905Y-138628476D01*
X155011524Y-138533238D01*
X155106762Y-138438000D01*
X155249620Y-138390381D01*
X155344858Y-138390381D01*
X155487715Y-138438000D01*
X155535334Y-138485619D01*
X156011524Y-139390381D02*
X156202000Y-139390381D01*
X156297239Y-139342762D01*
X156344858Y-139295143D01*
X156440096Y-139152286D01*
X156487715Y-138961810D01*
X156487715Y-138580857D01*
X156440096Y-138485619D01*
X156392477Y-138438000D01*
X156297239Y-138390381D01*
X156106762Y-138390381D01*
X156011524Y-138438000D01*
X155963905Y-138485619D01*
X155916286Y-138580857D01*
X155916286Y-138818952D01*
X155963905Y-138914190D01*
X156011524Y-138961810D01*
X156106762Y-139009429D01*
X156297239Y-139009429D01*
X156392477Y-138961810D01*
X156440096Y-138914190D01*
X156487715Y-138818952D01*
X148026381Y-118848095D02*
X147026381Y-118848095D01*
X147026381Y-118610000D01*
X147074000Y-118467142D01*
X147169238Y-118371904D01*
X147264476Y-118324285D01*
X147454952Y-118276666D01*
X147597810Y-118276666D01*
X147788286Y-118324285D01*
X147883524Y-118371904D01*
X147978762Y-118467142D01*
X148026381Y-118610000D01*
X148026381Y-118848095D01*
X148026381Y-117324285D02*
X148026381Y-117895714D01*
X148026381Y-117610000D02*
X147026381Y-117610000D01*
X147169238Y-117705238D01*
X147264476Y-117800476D01*
X147312095Y-117895714D01*
X142438381Y-126976095D02*
X141438381Y-126976095D01*
X141438381Y-126595142D01*
X141486000Y-126499904D01*
X141533619Y-126452285D01*
X141628857Y-126404666D01*
X141771714Y-126404666D01*
X141866952Y-126452285D01*
X141914571Y-126499904D01*
X141962190Y-126595142D01*
X141962190Y-126976095D01*
X141771714Y-125547523D02*
X142438381Y-125547523D01*
X141390762Y-125785619D02*
X142105048Y-126023714D01*
X142105048Y-125404666D01*
X140803334Y-110434381D02*
X140470000Y-109958190D01*
X140231905Y-110434381D02*
X140231905Y-109434381D01*
X140612858Y-109434381D01*
X140708096Y-109482000D01*
X140755715Y-109529619D01*
X140803334Y-109624857D01*
X140803334Y-109767714D01*
X140755715Y-109862952D01*
X140708096Y-109910571D01*
X140612858Y-109958190D01*
X140231905Y-109958190D01*
X141755715Y-110434381D02*
X141184286Y-110434381D01*
X141470000Y-110434381D02*
X141470000Y-109434381D01*
X141374762Y-109577238D01*
X141279524Y-109672476D01*
X141184286Y-109720095D01*
X140803334Y-108402381D02*
X140470000Y-107926190D01*
X140231905Y-108402381D02*
X140231905Y-107402381D01*
X140612858Y-107402381D01*
X140708096Y-107450000D01*
X140755715Y-107497619D01*
X140803334Y-107592857D01*
X140803334Y-107735714D01*
X140755715Y-107830952D01*
X140708096Y-107878571D01*
X140612858Y-107926190D01*
X140231905Y-107926190D01*
X141184286Y-107497619D02*
X141231905Y-107450000D01*
X141327143Y-107402381D01*
X141565239Y-107402381D01*
X141660477Y-107450000D01*
X141708096Y-107497619D01*
X141755715Y-107592857D01*
X141755715Y-107688095D01*
X141708096Y-107830952D01*
X141136667Y-108402381D01*
X141755715Y-108402381D01*
X144359334Y-101798381D02*
X144026000Y-101322190D01*
X143787905Y-101798381D02*
X143787905Y-100798381D01*
X144168858Y-100798381D01*
X144264096Y-100846000D01*
X144311715Y-100893619D01*
X144359334Y-100988857D01*
X144359334Y-101131714D01*
X144311715Y-101226952D01*
X144264096Y-101274571D01*
X144168858Y-101322190D01*
X143787905Y-101322190D01*
X144692667Y-100798381D02*
X145311715Y-100798381D01*
X144978381Y-101179333D01*
X145121239Y-101179333D01*
X145216477Y-101226952D01*
X145264096Y-101274571D01*
X145311715Y-101369810D01*
X145311715Y-101607905D01*
X145264096Y-101703143D01*
X145216477Y-101750762D01*
X145121239Y-101798381D01*
X144835524Y-101798381D01*
X144740286Y-101750762D01*
X144692667Y-101703143D01*
X144373334Y-103862381D02*
X144040000Y-103386190D01*
X143801905Y-103862381D02*
X143801905Y-102862381D01*
X144182858Y-102862381D01*
X144278096Y-102910000D01*
X144325715Y-102957619D01*
X144373334Y-103052857D01*
X144373334Y-103195714D01*
X144325715Y-103290952D01*
X144278096Y-103338571D01*
X144182858Y-103386190D01*
X143801905Y-103386190D01*
X145230477Y-103195714D02*
X145230477Y-103862381D01*
X144992381Y-102814762D02*
X144754286Y-103529048D01*
X145373334Y-103529048D01*
X144359334Y-105862381D02*
X144026000Y-105386190D01*
X143787905Y-105862381D02*
X143787905Y-104862381D01*
X144168858Y-104862381D01*
X144264096Y-104910000D01*
X144311715Y-104957619D01*
X144359334Y-105052857D01*
X144359334Y-105195714D01*
X144311715Y-105290952D01*
X144264096Y-105338571D01*
X144168858Y-105386190D01*
X143787905Y-105386190D01*
X145264096Y-104862381D02*
X144787905Y-104862381D01*
X144740286Y-105338571D01*
X144787905Y-105290952D01*
X144883143Y-105243333D01*
X145121239Y-105243333D01*
X145216477Y-105290952D01*
X145264096Y-105338571D01*
X145311715Y-105433810D01*
X145311715Y-105671905D01*
X145264096Y-105767143D01*
X145216477Y-105814762D01*
X145121239Y-105862381D01*
X144883143Y-105862381D01*
X144787905Y-105814762D01*
X144740286Y-105767143D01*
X144359334Y-107894381D02*
X144026000Y-107418190D01*
X143787905Y-107894381D02*
X143787905Y-106894381D01*
X144168858Y-106894381D01*
X144264096Y-106942000D01*
X144311715Y-106989619D01*
X144359334Y-107084857D01*
X144359334Y-107227714D01*
X144311715Y-107322952D01*
X144264096Y-107370571D01*
X144168858Y-107418190D01*
X143787905Y-107418190D01*
X145216477Y-106894381D02*
X145026000Y-106894381D01*
X144930762Y-106942000D01*
X144883143Y-106989619D01*
X144787905Y-107132476D01*
X144740286Y-107322952D01*
X144740286Y-107703905D01*
X144787905Y-107799143D01*
X144835524Y-107846762D01*
X144930762Y-107894381D01*
X145121239Y-107894381D01*
X145216477Y-107846762D01*
X145264096Y-107799143D01*
X145311715Y-107703905D01*
X145311715Y-107465810D01*
X145264096Y-107370571D01*
X145216477Y-107322952D01*
X145121239Y-107275333D01*
X144930762Y-107275333D01*
X144835524Y-107322952D01*
X144787905Y-107370571D01*
X144740286Y-107465810D01*
X144359334Y-109926381D02*
X144026000Y-109450190D01*
X143787905Y-109926381D02*
X143787905Y-108926381D01*
X144168858Y-108926381D01*
X144264096Y-108974000D01*
X144311715Y-109021619D01*
X144359334Y-109116857D01*
X144359334Y-109259714D01*
X144311715Y-109354952D01*
X144264096Y-109402571D01*
X144168858Y-109450190D01*
X143787905Y-109450190D01*
X144692667Y-108926381D02*
X145359334Y-108926381D01*
X144930762Y-109926381D01*
X150455334Y-135326381D02*
X150122000Y-134850190D01*
X149883905Y-135326381D02*
X149883905Y-134326381D01*
X150264858Y-134326381D01*
X150360096Y-134374000D01*
X150407715Y-134421619D01*
X150455334Y-134516857D01*
X150455334Y-134659714D01*
X150407715Y-134754952D01*
X150360096Y-134802571D01*
X150264858Y-134850190D01*
X149883905Y-134850190D01*
X151026762Y-134754952D02*
X150931524Y-134707333D01*
X150883905Y-134659714D01*
X150836286Y-134564476D01*
X150836286Y-134516857D01*
X150883905Y-134421619D01*
X150931524Y-134374000D01*
X151026762Y-134326381D01*
X151217239Y-134326381D01*
X151312477Y-134374000D01*
X151360096Y-134421619D01*
X151407715Y-134516857D01*
X151407715Y-134564476D01*
X151360096Y-134659714D01*
X151312477Y-134707333D01*
X151217239Y-134754952D01*
X151026762Y-134754952D01*
X150931524Y-134802571D01*
X150883905Y-134850190D01*
X150836286Y-134945429D01*
X150836286Y-135135905D01*
X150883905Y-135231143D01*
X150931524Y-135278762D01*
X151026762Y-135326381D01*
X151217239Y-135326381D01*
X151312477Y-135278762D01*
X151360096Y-135231143D01*
X151407715Y-135135905D01*
X151407715Y-134945429D01*
X151360096Y-134850190D01*
X151312477Y-134802571D01*
X151217239Y-134754952D01*
X152995334Y-134310381D02*
X152662000Y-133834190D01*
X152423905Y-134310381D02*
X152423905Y-133310381D01*
X152804858Y-133310381D01*
X152900096Y-133358000D01*
X152947715Y-133405619D01*
X152995334Y-133500857D01*
X152995334Y-133643714D01*
X152947715Y-133738952D01*
X152900096Y-133786571D01*
X152804858Y-133834190D01*
X152423905Y-133834190D01*
X153471524Y-134310381D02*
X153662000Y-134310381D01*
X153757239Y-134262762D01*
X153804858Y-134215143D01*
X153900096Y-134072286D01*
X153947715Y-133881810D01*
X153947715Y-133500857D01*
X153900096Y-133405619D01*
X153852477Y-133358000D01*
X153757239Y-133310381D01*
X153566762Y-133310381D01*
X153471524Y-133358000D01*
X153423905Y-133405619D01*
X153376286Y-133500857D01*
X153376286Y-133738952D01*
X153423905Y-133834190D01*
X153471524Y-133881810D01*
X153566762Y-133929429D01*
X153757239Y-133929429D01*
X153852477Y-133881810D01*
X153900096Y-133834190D01*
X153947715Y-133738952D01*
X143954762Y-141795333D02*
X144002381Y-141652476D01*
X144002381Y-141414380D01*
X143954762Y-141319142D01*
X143907143Y-141271523D01*
X143811905Y-141223904D01*
X143716667Y-141223904D01*
X143621429Y-141271523D01*
X143573810Y-141319142D01*
X143526190Y-141414380D01*
X143478571Y-141604857D01*
X143430952Y-141700095D01*
X143383333Y-141747714D01*
X143288095Y-141795333D01*
X143192857Y-141795333D01*
X143097619Y-141747714D01*
X143050000Y-141700095D01*
X143002381Y-141604857D01*
X143002381Y-141366761D01*
X143050000Y-141223904D01*
X143002381Y-140890571D02*
X144002381Y-140652476D01*
X143288095Y-140461999D01*
X144002381Y-140271523D01*
X143002381Y-140033428D01*
X144002381Y-139128666D02*
X144002381Y-139700095D01*
X144002381Y-139414381D02*
X143002381Y-139414381D01*
X143145238Y-139509619D01*
X143240476Y-139604857D01*
X143288095Y-139700095D01*
X154074762Y-141795333D02*
X154122381Y-141652476D01*
X154122381Y-141414380D01*
X154074762Y-141319142D01*
X154027143Y-141271523D01*
X153931905Y-141223904D01*
X153836667Y-141223904D01*
X153741429Y-141271523D01*
X153693810Y-141319142D01*
X153646190Y-141414380D01*
X153598571Y-141604857D01*
X153550952Y-141700095D01*
X153503333Y-141747714D01*
X153408095Y-141795333D01*
X153312857Y-141795333D01*
X153217619Y-141747714D01*
X153170000Y-141700095D01*
X153122381Y-141604857D01*
X153122381Y-141366761D01*
X153170000Y-141223904D01*
X153122381Y-140890571D02*
X154122381Y-140652476D01*
X153408095Y-140461999D01*
X154122381Y-140271523D01*
X153122381Y-140033428D01*
X153217619Y-139700095D02*
X153170000Y-139652476D01*
X153122381Y-139557238D01*
X153122381Y-139319142D01*
X153170000Y-139223904D01*
X153217619Y-139176285D01*
X153312857Y-139128666D01*
X153408095Y-139128666D01*
X153550952Y-139176285D01*
X154122381Y-139747714D01*
X154122381Y-139128666D01*
X162642381Y-123821905D02*
X163451905Y-123821905D01*
X163547143Y-123774286D01*
X163594762Y-123726667D01*
X163642381Y-123631429D01*
X163642381Y-123440952D01*
X163594762Y-123345714D01*
X163547143Y-123298095D01*
X163451905Y-123250476D01*
X162642381Y-123250476D01*
X163642381Y-122250476D02*
X163642381Y-122821905D01*
X163642381Y-122536191D02*
X162642381Y-122536191D01*
X162785238Y-122631429D01*
X162880476Y-122726667D01*
X162928095Y-122821905D01*
X152868381Y-126999905D02*
X153677905Y-126999905D01*
X153773143Y-126952286D01*
X153820762Y-126904667D01*
X153868381Y-126809429D01*
X153868381Y-126618952D01*
X153820762Y-126523714D01*
X153773143Y-126476095D01*
X153677905Y-126428476D01*
X152868381Y-126428476D01*
X152963619Y-125999905D02*
X152916000Y-125952286D01*
X152868381Y-125857048D01*
X152868381Y-125618952D01*
X152916000Y-125523714D01*
X152963619Y-125476095D01*
X153058857Y-125428476D01*
X153154095Y-125428476D01*
X153296952Y-125476095D01*
X153868381Y-126047524D01*
X153868381Y-125428476D01*
X161036095Y-108926381D02*
X161036095Y-109735905D01*
X161083714Y-109831143D01*
X161131333Y-109878762D01*
X161226571Y-109926381D01*
X161417048Y-109926381D01*
X161512286Y-109878762D01*
X161559905Y-109831143D01*
X161607524Y-109735905D01*
X161607524Y-108926381D01*
X161988476Y-108926381D02*
X162607524Y-108926381D01*
X162274190Y-109307333D01*
X162417048Y-109307333D01*
X162512286Y-109354952D01*
X162559905Y-109402571D01*
X162607524Y-109497810D01*
X162607524Y-109735905D01*
X162559905Y-109831143D01*
X162512286Y-109878762D01*
X162417048Y-109926381D01*
X162131333Y-109926381D01*
X162036095Y-109878762D01*
X161988476Y-109831143D01*
X162583905Y-137464381D02*
X162583905Y-136464381D01*
X162964858Y-136464381D01*
X163060096Y-136512000D01*
X163107715Y-136559619D01*
X163155334Y-136654857D01*
X163155334Y-136797714D01*
X163107715Y-136892952D01*
X163060096Y-136940571D01*
X162964858Y-136988190D01*
X162583905Y-136988190D01*
X163536286Y-136559619D02*
X163583905Y-136512000D01*
X163679143Y-136464381D01*
X163917239Y-136464381D01*
X164012477Y-136512000D01*
X164060096Y-136559619D01*
X164107715Y-136654857D01*
X164107715Y-136750095D01*
X164060096Y-136892952D01*
X163488667Y-137464381D01*
X164107715Y-137464381D01*
X163166190Y-128436191D02*
X163642381Y-128436191D01*
X162642381Y-128769524D02*
X163166190Y-128436191D01*
X162642381Y-128102857D01*
X163642381Y-127245714D02*
X163642381Y-127817143D01*
X163642381Y-127531429D02*
X162642381Y-127531429D01*
X162785238Y-127626667D01*
X162880476Y-127721905D01*
X162928095Y-127817143D01*
M02*
